<svg id="svg" version="1.1" xmlns="http://www.w3.org/2000/svg" xmlns:xlink="http://www.w3.org/1999/xlink" width="400" height="218.1818181818182" viewBox="0, 0, 400,218.1818181818182"><g id="svgg"><path id="path0" d="M0.000 109.083 L 0.000 218.167 200.000 218.167 L 400.000 218.167 400.000 109.083 L 400.000 0.000 274.459 0.000 L 148.919 0.000 149.918 0.968 C 151.877 2.868,152.598 4.063,152.832 5.800 C 153.425 10.214,153.564 12.532,153.364 14.721 C 153.183 16.714,153.017 17.527,152.082 21.000 C 151.725 22.329,151.810 27.136,152.243 30.083 C 152.391 31.092,152.622 32.892,152.756 34.083 C 152.890 35.275,153.109 37.075,153.242 38.083 C 153.921 43.204,153.993 50.533,153.399 54.083 C 153.045 56.199,153.038 58.943,153.381 61.917 C 153.529 63.200,153.691 64.737,153.740 65.333 C 153.790 65.929,153.918 67.279,154.024 68.333 C 154.331 71.374,154.293 77.248,153.953 79.380 C 153.293 83.518,153.383 83.640,157.712 84.483 C 169.625 86.803,176.311 86.194,187.750 81.751 C 191.086 80.455,193.975 79.666,197.212 79.167 C 198.899 78.906,204.803 78.950,206.853 79.237 C 208.952 79.532,210.523 79.564,215.667 79.416 C 217.821 79.354,223.521 79.285,228.333 79.263 C 240.021 79.210,240.888 79.063,247.333 76.035 C 250.573 74.513,253.024 73.715,256.827 72.942 L 259.417 72.417 271.250 72.417 C 284.452 72.417,282.975 72.531,285.921 71.278 C 286.496 71.033,287.422 70.806,288.088 70.748 C 289.834 70.594,290.693 70.386,293.250 69.500 C 303.326 66.007,307.185 67.365,311.135 75.792 C 312.122 77.900,311.694 80.381,310.099 81.785 C 308.682 83.032,307.787 83.191,301.333 83.338 C 295.950 83.461,295.687 83.482,294.000 83.933 C 292.346 84.374,292.039 84.402,288.417 84.430 C 283.037 84.472,282.061 84.699,272.011 88.243 C 267.065 89.988,263.890 90.844,259.333 91.662 C 253.993 92.621,251.351 93.609,248.833 95.587 C 248.550 95.810,246.546 96.845,245.667 97.223 C 243.378 98.207,238.119 100.110,232.583 101.957 C 229.091 103.123,221.397 105.550,219.500 106.084 C 218.629 106.330,217.242 106.739,216.417 106.994 C 215.592 107.249,214.335 107.630,213.625 107.842 C 212.915 108.053,212.324 108.268,212.313 108.321 C 212.302 108.374,212.270 111.042,212.243 114.250 C 212.157 124.485,211.229 136.624,209.915 144.728 C 209.433 147.697,209.620 149.663,210.837 154.417 C 211.892 158.542,212.077 159.858,212.080 163.250 C 212.083 166.557,212.058 166.760,210.829 173.083 C 209.884 177.953,209.640 179.333,209.255 182.000 C 208.453 187.547,208.391 190.462,209.015 193.122 C 210.276 198.490,210.087 200.778,208.211 202.854 C 206.684 204.544,204.449 205.039,200.847 204.482 C 196.732 203.847,194.982 203.886,191.500 204.694 C 186.931 205.753,179.428 205.409,177.862 204.069 C 174.848 201.489,176.508 197.612,180.991 196.762 C 183.318 196.320,185.738 195.339,188.750 193.614 C 194.121 190.540,194.664 189.697,194.666 184.417 C 194.667 181.836,194.550 180.225,193.854 173.333 C 193.574 170.553,193.335 167.280,192.907 160.333 C 192.765 158.035,192.516 156.539,191.921 154.417 C 190.769 150.311,190.488 148.777,189.735 142.509 C 189.675 142.010,189.257 140.360,188.806 138.842 C 186.777 132.015,185.625 125.254,185.476 119.292 C 185.460 118.673,185.386 118.167,185.312 118.167 C 184.883 118.167,179.292 119.635,177.593 120.194 C 174.707 121.144,173.052 121.889,170.676 123.306 C 166.425 125.842,164.340 126.821,160.283 128.189 C 156.232 129.554,153.456 131.468,153.087 133.150 C 153.031 133.405,153.139 134.956,153.326 136.598 C 153.974 142.282,153.626 148.460,152.250 155.667 C 151.467 159.772,151.273 161.991,151.474 164.583 C 151.906 170.153,151.503 174.129,149.491 184.167 C 148.767 187.778,147.988 192.899,147.831 195.083 C 147.428 200.701,146.455 202.694,143.384 204.196 L 142.250 204.750 132.583 204.800 C 122.064 204.855,121.917 204.845,120.989 203.940 C 119.181 202.181,119.905 199.506,122.441 198.578 C 122.886 198.415,123.775 198.072,124.417 197.815 C 128.796 196.063,132.840 194.818,134.844 194.604 C 136.085 194.471,136.707 194.236,137.003 193.789 C 137.524 193.003,137.267 183.584,136.488 174.917 C 136.076 170.335,136.319 166.125,137.179 162.948 C 137.845 160.484,137.846 160.474,137.697 152.250 L 137.552 144.250 136.845 142.333 C 134.396 135.692,133.925 131.559,135.086 126.880 L 135.508 125.177 135.071 123.485 C 133.777 118.474,133.406 118.083,129.946 118.084 L 127.417 118.085 126.210 118.874 C 117.177 124.778,104.803 122.837,100.986 114.917 C 98.896 110.582,99.324 104.607,102.006 100.658 C 106.393 94.197,118.427 93.073,126.417 98.376 C 128.001 99.428,132.101 99.520,133.172 98.528 C 134.604 97.201,135.656 92.282,135.014 89.917 C 133.820 85.524,134.615 80.583,137.638 73.583 C 138.176 72.339,138.389 70.885,138.579 67.167 C 138.680 65.189,139.152 60.159,139.251 59.998 C 139.658 59.340,139.656 57.009,139.247 54.788 C 138.421 50.297,138.349 46.473,139.003 41.750 C 139.194 40.375,139.496 38.200,139.676 36.917 C 140.536 30.756,140.817 26.827,140.590 24.109 L 140.471 22.678 138.824 20.714 C 136.003 17.349,135.536 15.932,135.740 11.354 C 135.898 7.808,136.793 6.486,138.577 7.164 C 139.177 7.393,139.108 7.593,139.327 5.000 C 139.568 2.145,139.733 1.511,140.447 0.676 L 141.026 -0.000 70.513 -0.000 L 0.000 0.000 0.000 109.083 M144.500 1.789 C 142.966 2.379,142.804 2.943,142.708 8.030 C 142.637 11.813,142.592 12.368,142.319 12.817 C 141.762 13.734,140.355 13.718,139.567 12.786 L 139.114 12.250 139.220 13.643 C 139.383 15.784,139.956 16.855,142.310 19.417 C 143.838 21.079,143.981 21.478,144.103 24.442 C 144.271 28.500,143.689 34.875,142.555 41.417 C 141.845 45.507,141.884 50.439,142.655 54.214 L 143.226 57.012 142.771 60.265 C 142.521 62.055,142.210 65.183,142.080 67.218 C 141.741 72.523,141.520 73.809,140.655 75.500 C 138.390 79.927,137.503 85.263,138.396 89.083 C 139.113 92.150,139.093 91.835,138.681 93.524 C 137.003 100.408,135.843 102.033,132.237 102.553 C 130.905 102.746,130.869 102.763,131.106 103.084 C 133.370 106.156,133.338 111.602,131.042 114.205 C 130.726 114.563,130.831 114.605,132.351 114.727 C 135.267 114.963,136.351 116.009,137.557 119.755 C 139.051 124.389,139.181 125.221,138.674 126.850 C 137.430 130.849,137.819 134.669,140.152 141.357 C 141.088 144.039,141.133 144.559,141.195 153.417 C 141.250 161.196,141.247 161.259,140.865 162.548 C 139.816 166.078,139.490 169.896,139.892 173.917 C 140.039 175.383,140.237 177.896,140.332 179.500 C 140.427 181.104,140.588 183.692,140.690 185.250 C 141.337 195.134,140.328 197.445,135.083 198.093 C 133.466 198.292,130.552 199.146,127.917 200.192 L 125.250 201.250 132.750 201.299 C 143.814 201.373,143.775 201.390,144.186 196.167 C 144.362 193.923,144.717 191.170,145.089 189.167 C 145.217 188.479,145.547 186.679,145.822 185.167 C 146.097 183.654,146.510 181.404,146.740 180.167 C 147.973 173.531,148.304 169.656,148.012 165.302 C 147.778 161.814,147.841 160.931,148.690 155.750 C 150.276 146.074,150.503 142.263,149.838 136.506 L 149.471 133.323 149.836 132.120 C 150.809 128.912,153.906 126.607,159.931 124.604 C 162.527 123.741,164.258 122.914,168.806 120.364 C 174.076 117.408,178.705 115.803,185.048 114.734 C 185.780 114.610,185.836 114.509,186.826 111.500 C 188.200 107.326,188.759 101.401,188.234 96.583 C 187.885 93.382,186.584 86.529,186.265 86.210 C 186.174 86.119,184.949 86.448,183.667 86.909 C 175.176 89.961,164.110 90.054,153.667 87.161 C 150.737 86.350,149.700 83.982,150.457 79.833 C 150.934 77.222,150.839 70.233,150.256 64.917 C 149.622 59.142,149.550 56.704,149.940 54.133 C 150.413 51.005,150.366 42.646,149.852 38.833 C 149.649 37.321,149.339 34.846,149.163 33.333 C 148.988 31.821,148.721 29.533,148.571 28.250 C 148.162 24.770,148.306 21.651,148.985 19.250 C 150.481 13.964,150.286 6.979,148.579 4.667 C 147.119 2.689,145.369 1.455,144.500 1.789 M300.083 71.107 C 298.977 71.277,296.410 72.048,294.327 72.836 C 291.818 73.785,290.338 74.167,289.167 74.167 C 288.625 74.167,287.646 74.420,286.219 74.930 C 284.665 75.486,283.732 75.719,282.792 75.787 C 282.081 75.839,281.500 75.903,281.500 75.930 C 281.500 75.957,281.649 76.602,281.832 77.364 C 282.026 78.173,282.165 79.330,282.165 80.143 C 282.167 81.401,282.195 81.525,282.458 81.422 C 283.335 81.081,286.555 80.827,288.750 80.926 C 290.979 81.026,291.188 81.006,293.417 80.493 C 295.703 79.966,295.859 79.953,301.167 79.840 C 309.159 79.669,309.391 79.466,306.716 74.977 C 304.743 71.667,303.014 70.658,300.083 71.107 M260.289 75.858 C 256.840 76.077,253.371 77.121,248.132 79.515 C 241.653 82.477,240.174 82.710,227.583 82.766 C 222.450 82.789,216.531 82.896,214.430 83.006 C 210.585 83.205,209.776 83.180,206.417 82.753 C 200.795 82.038,196.565 82.410,191.667 84.052 C 189.292 84.848,189.423 84.641,189.962 86.750 C 192.673 97.370,192.486 106.407,189.383 114.782 L 188.777 116.417 188.979 120.083 C 189.323 126.335,190.017 130.256,192.077 137.583 C 193.012 140.911,193.155 141.565,193.414 143.697 C 193.982 148.362,194.220 149.686,195.091 153.000 C 195.991 156.425,196.500 159.452,196.500 161.384 C 196.500 163.092,197.144 172.045,197.491 175.167 C 197.670 176.771,197.861 178.833,197.916 179.750 C 197.971 180.667,198.053 181.660,198.099 181.958 L 198.182 182.500 201.984 182.500 L 205.785 182.500 205.897 181.297 C 205.959 180.635,206.161 179.266,206.347 178.255 C 206.533 177.244,206.757 175.967,206.846 175.417 C 206.935 174.867,207.188 173.517,207.409 172.417 C 209.111 163.947,209.111 160.487,207.408 155.083 C 206.292 151.542,205.974 147.870,206.472 144.250 C 206.661 142.875,206.863 141.300,206.921 140.750 C 206.979 140.200,207.203 138.287,207.419 136.500 C 207.811 133.257,208.193 128.795,208.509 123.750 C 208.601 122.283,208.716 117.971,208.766 114.167 C 208.886 104.885,208.301 105.758,215.917 103.495 C 217.200 103.114,218.700 102.666,219.250 102.500 C 219.800 102.334,221.188 101.920,222.333 101.581 C 225.918 100.519,236.463 96.974,240.583 95.445 C 244.278 94.075,245.519 93.488,248.650 91.628 C 252.206 89.515,253.250 89.182,260.000 88.001 C 263.942 87.311,265.204 86.955,271.500 84.760 C 274.479 83.721,277.239 82.784,277.633 82.677 C 278.823 82.353,279.126 79.929,278.300 77.333 L 277.903 76.083 274.660 75.972 C 269.437 75.792,262.227 75.735,260.289 75.858 M111.167 98.825 C 105.987 99.929,103.088 103.504,103.120 108.750 C 103.152 114.084,106.297 117.599,111.915 118.578 C 121.114 120.183,131.253 113.182,129.070 106.733 C 127.139 101.028,118.576 97.246,111.167 98.825 M198.094 186.934 C 197.765 190.581,196.296 193.072,193.500 194.723 C 192.904 195.075,192.117 195.577,191.750 195.838 C 191.383 196.100,189.808 196.955,188.250 197.739 C 185.582 199.080,184.560 199.456,180.958 200.420 C 179.937 200.693,179.664 201.142,180.308 201.486 C 180.842 201.772,187.864 201.738,189.667 201.441 C 195.006 200.561,196.412 200.431,198.167 200.659 C 198.946 200.759,200.333 200.942,201.250 201.064 C 205.104 201.576,206.194 201.030,206.306 198.530 C 206.362 197.283,206.251 196.525,205.487 192.917 C 205.188 191.504,205.145 190.849,205.205 188.625 L 205.276 186.000 203.347 185.999 C 202.285 185.999,200.693 185.950,199.808 185.892 L 198.198 185.785 198.094 186.934 " stroke="none" fill="#fbfbfb" fill-rule="evenodd"></path><path id="path1" d="M140.934 0.349 C 139.985 1.096,139.576 2.536,139.390 5.781 C 139.289 7.553,139.267 7.643,138.966 7.482 C 137.055 6.459,136.036 7.815,135.884 11.583 C 135.700 16.168,136.595 18.370,140.140 22.050 L 140.750 22.684 140.734 26.300 C 140.717 29.972,140.458 33.027,139.830 36.946 C 138.455 45.536,138.389 49.358,139.514 55.489 C 139.808 57.091,139.814 57.345,139.593 58.739 C 139.274 60.746,139.071 62.735,138.665 67.828 C 138.285 72.589,138.255 72.746,137.317 74.785 C 134.843 80.162,134.074 85.567,135.162 89.917 C 135.649 91.864,135.556 92.990,134.701 95.500 C 133.395 99.335,133.503 99.251,129.833 99.249 L 127.417 99.247 126.417 98.563 C 120.529 94.537,111.518 94.056,105.669 97.455 C 97.965 101.933,97.865 115.185,105.502 119.726 C 111.618 123.363,119.672 122.891,126.652 118.486 L 127.554 117.917 129.902 117.917 C 133.431 117.917,133.496 117.969,134.747 121.833 C 135.578 124.399,135.637 125.205,135.145 127.262 C 134.242 131.042,134.698 136.018,136.359 140.500 C 137.773 144.315,137.679 143.572,137.861 152.362 C 138.020 160.073,138.015 160.344,137.690 161.529 C 136.738 165.003,136.230 169.091,136.410 171.833 C 136.467 172.704,136.621 174.692,136.751 176.250 C 137.433 184.402,137.650 193.006,137.195 193.806 C 136.892 194.338,136.048 194.657,134.469 194.837 C 133.073 194.996,131.213 195.497,128.833 196.355 C 126.352 197.250,122.607 198.677,121.891 199.000 C 119.568 200.051,119.579 203.295,121.910 204.353 C 122.966 204.833,140.883 204.826,142.465 204.345 C 145.738 203.350,147.182 201.082,147.513 196.417 C 147.707 193.675,148.240 190.115,149.282 184.583 C 151.216 174.323,151.403 172.801,151.333 167.917 C 151.233 160.963,151.242 160.778,151.807 157.333 C 153.202 148.824,153.283 148.159,153.443 143.801 C 153.547 140.985,153.407 138.304,152.982 134.962 C 152.573 131.743,154.574 129.948,161.014 127.756 C 164.010 126.735,167.104 125.282,169.917 123.572 C 173.165 121.598,176.051 120.379,180.167 119.242 C 181.875 118.770,185.366 117.972,185.423 118.041 C 185.442 118.064,185.582 119.631,185.735 121.523 C 186.253 127.973,187.085 132.333,189.160 139.490 C 189.692 141.322,189.934 142.576,190.177 144.740 C 190.543 148.000,191.001 150.558,191.575 152.538 C 192.804 156.784,192.941 157.604,193.167 162.083 C 193.334 165.392,194.259 176.943,194.408 177.585 C 195.163 180.828,194.968 187.640,194.065 189.589 C 193.101 191.670,185.663 196.018,181.832 196.740 C 181.054 196.887,180.037 197.118,179.573 197.252 C 176.046 198.276,175.599 202.791,178.854 204.528 C 179.942 205.108,189.298 205.127,191.417 204.553 C 194.478 203.723,197.079 203.666,201.000 204.342 C 207.984 205.547,210.792 202.017,209.095 194.167 C 208.074 189.449,208.347 185.190,210.333 174.833 C 210.606 173.412,211.014 171.275,211.241 170.083 C 212.423 163.872,212.276 160.589,210.513 153.738 C 209.298 149.019,209.281 148.454,210.159 141.579 C 211.533 130.817,211.820 126.794,211.947 116.542 C 212.017 110.859,212.105 108.292,212.233 108.197 C 212.447 108.038,215.790 106.997,219.550 105.918 C 220.999 105.503,223.361 104.782,224.800 104.318 C 231.535 102.143,236.743 100.415,238.417 99.801 C 243.754 97.841,244.880 97.404,246.301 96.738 C 247.155 96.339,248.767 95.459,249.885 94.784 C 253.328 92.704,254.626 92.243,258.891 91.582 C 262.403 91.038,266.635 89.987,269.750 88.887 C 270.667 88.563,272.692 87.846,274.250 87.294 C 281.292 84.799,283.885 84.239,288.146 84.296 C 291.061 84.336,291.352 84.309,294.179 83.752 C 297.084 83.179,297.238 83.167,301.229 83.167 C 308.272 83.167,310.071 82.600,311.212 80.021 C 311.982 78.279,311.580 76.691,309.456 73.083 C 306.018 67.245,302.625 66.533,293.277 69.689 C 290.929 70.482,289.949 70.729,288.613 70.863 C 287.269 70.997,286.613 71.163,285.419 71.671 C 282.973 72.711,282.882 72.717,271.750 72.589 C 257.178 72.421,253.889 72.955,246.168 76.740 C 243.108 78.241,240.067 79.043,236.333 79.333 C 232.841 79.605,208.652 79.672,206.750 79.415 C 200.132 78.521,194.248 79.299,187.750 81.927 C 177.033 86.261,169.533 86.917,157.422 84.578 C 153.402 83.802,153.195 83.560,153.706 80.243 C 154.242 76.766,154.195 70.695,153.591 65.333 C 152.950 59.637,152.883 56.735,153.316 53.336 C 153.914 48.649,153.707 42.066,152.748 35.259 C 152.142 30.957,151.802 27.571,151.717 25.000 L 151.625 22.250 152.314 19.632 C 153.381 15.578,153.533 11.817,152.832 6.804 C 152.473 4.239,151.633 2.677,149.622 0.840 L 148.703 -0.000 145.041 -0.000 C 141.576 -0.000,141.354 0.019,140.934 0.349 M146.526 2.377 C 148.942 4.303,149.546 5.435,149.911 8.727 C 150.340 12.597,150.142 15.967,149.337 18.513 C 148.206 22.086,148.229 24.595,149.489 34.667 C 150.541 43.075,150.830 50.964,150.170 53.250 C 149.740 54.741,149.768 59.662,150.229 63.333 C 151.050 69.885,151.179 75.853,150.587 79.917 C 149.765 85.555,150.834 86.670,158.333 87.993 C 168.939 89.864,175.111 89.538,184.047 86.636 C 186.528 85.830,186.334 85.737,186.886 88.000 C 189.187 97.422,189.063 105.993,186.526 112.888 C 185.721 115.076,186.071 114.782,183.814 115.165 C 179.134 115.960,173.461 117.883,169.975 119.859 C 169.358 120.208,168.567 120.655,168.218 120.851 C 167.869 121.047,167.018 121.533,166.327 121.931 C 164.312 123.092,162.443 123.911,159.358 124.982 C 153.477 127.024,150.345 129.572,149.836 132.729 C 149.742 133.307,149.801 134.582,150.016 136.666 C 150.574 142.079,150.353 147.113,149.312 152.741 C 149.011 154.372,148.828 155.601,148.137 160.667 C 147.989 161.751,147.991 162.845,148.146 165.333 C 148.398 169.386,148.122 173.304,147.237 178.250 C 146.711 181.190,145.911 185.556,145.482 187.833 C 144.986 190.470,144.539 193.670,144.336 196.034 C 144.056 199.307,143.556 200.454,142.101 201.158 C 141.389 201.503,124.220 201.725,124.559 201.385 C 124.666 201.278,126.970 200.346,129.500 199.386 C 131.254 198.720,133.203 198.200,134.692 198.000 C 141.095 197.141,141.572 195.033,139.841 175.250 C 139.503 171.389,139.465 169.885,139.659 168.082 C 139.859 166.223,139.990 165.525,140.760 162.250 L 141.190 160.417 141.092 154.667 C 140.907 143.852,140.899 143.770,139.756 140.667 C 137.733 135.172,137.353 131.391,138.409 127.254 C 139.010 124.901,138.969 124.604,137.406 119.833 C 136.122 115.916,134.853 114.833,131.548 114.833 C 130.504 114.833,130.500 114.817,131.250 113.572 C 133.279 110.203,133.253 106.865,131.173 103.485 C 130.895 103.032,130.667 102.636,130.667 102.604 C 130.667 102.572,131.140 102.497,131.720 102.438 C 135.424 102.059,136.239 101.181,137.905 95.778 C 138.943 92.411,138.980 91.966,138.402 89.824 C 137.289 85.700,138.070 80.314,140.472 75.556 C 141.234 74.045,141.469 73.026,141.664 70.373 C 142.020 65.560,142.178 63.872,142.598 60.460 L 143.023 57.004 142.473 54.127 C 141.614 49.638,141.667 46.238,142.705 39.250 C 143.720 32.415,143.898 30.447,143.897 26.083 C 143.897 21.556,143.863 21.423,142.273 19.623 C 139.787 16.811,139.313 15.920,139.008 13.483 C 138.813 11.929,138.881 11.717,139.364 12.380 C 140.103 13.395,141.333 13.623,142.034 12.875 L 142.463 12.417 142.541 8.083 C 142.630 3.042,142.687 2.797,143.940 2.002 C 145.009 1.324,145.249 1.359,146.526 2.377 M303.564 71.340 C 304.639 71.743,305.389 72.506,306.505 74.333 C 309.667 79.512,309.240 79.983,301.374 79.994 C 297.152 80.000,295.354 80.175,292.418 80.862 C 291.140 81.162,290.599 81.199,288.751 81.117 C 286.740 81.027,283.047 81.301,282.275 81.597 C 282.031 81.690,282.000 81.523,282.000 80.128 C 282.000 79.099,281.885 78.102,281.667 77.250 C 281.483 76.533,281.333 75.926,281.333 75.900 C 281.333 75.875,281.690 75.810,282.125 75.756 C 283.672 75.565,284.769 75.290,286.200 74.734 C 287.138 74.369,288.078 74.135,288.866 74.070 C 290.126 73.966,292.928 73.295,293.664 72.922 C 296.873 71.294,301.475 70.559,303.564 71.340 M273.552 75.775 L 277.853 75.885 278.161 76.488 C 278.640 77.429,278.882 79.008,278.802 80.683 C 278.714 82.516,278.769 82.459,276.335 83.245 C 275.371 83.555,273.383 84.234,271.917 84.752 C 265.078 87.169,263.437 87.628,259.167 88.318 C 253.378 89.253,252.384 89.607,247.417 92.499 C 243.280 94.908,231.417 99.157,218.318 102.921 C 215.077 103.853,211.188 105.150,210.321 105.589 C 209.051 106.233,209.032 106.343,208.921 113.750 C 208.838 119.348,208.493 127.722,208.249 130.083 C 207.732 135.080,207.099 140.693,206.840 142.583 C 206.157 147.576,206.243 149.960,207.250 153.833 C 209.396 162.087,209.388 163.026,207.077 175.000 C 206.733 176.783,205.833 182.253,205.833 182.563 C 205.833 182.720,198.199 182.687,198.102 182.530 C 198.056 182.455,197.823 180.299,197.586 177.738 C 197.349 175.178,197.085 172.408,197.001 171.583 C 196.767 169.304,196.518 165.633,196.333 161.750 C 196.169 158.310,195.758 155.591,195.088 153.500 C 194.285 150.995,193.778 148.389,193.418 144.917 C 193.137 142.199,192.777 140.510,191.609 136.417 C 190.066 131.009,189.148 125.948,188.843 121.167 C 188.575 116.969,188.601 116.320,189.091 115.122 C 190.784 110.978,191.690 105.956,191.685 100.749 C 191.681 96.918,191.544 95.541,190.685 90.667 C 190.533 89.807,189.595 85.757,189.403 85.133 C 189.284 84.744,190.104 84.350,192.583 83.607 C 197.075 82.259,201.856 81.897,206.167 82.578 C 207.403 82.773,209.001 82.882,210.667 82.884 C 215.557 82.891,237.417 82.532,237.833 82.439 C 238.063 82.388,238.972 82.230,239.855 82.089 C 242.305 81.698,245.555 80.623,248.083 79.367 C 250.783 78.026,254.537 76.686,257.068 76.160 C 260.297 75.489,261.414 75.462,273.552 75.775 M117.833 98.510 C 125.272 99.707,131.233 106.118,129.194 110.728 C 124.468 121.410,105.148 121.750,103.168 111.186 C 101.569 102.652,108.161 96.954,117.833 98.510 M203.517 185.833 L 205.482 185.833 205.385 188.125 C 205.277 190.674,205.459 192.455,206.094 195.075 C 207.436 200.614,205.952 202.141,200.250 201.086 C 197.711 200.617,195.135 200.667,192.000 201.246 C 188.709 201.854,180.989 202.083,180.243 201.594 C 179.376 201.026,179.764 200.469,181.237 200.167 C 185.089 199.377,191.384 196.315,195.068 193.439 C 196.506 192.316,197.721 189.591,197.937 187.000 L 198.052 185.619 199.802 185.726 C 200.764 185.785,202.436 185.833,203.517 185.833 " stroke="none" fill="#070707" fill-rule="evenodd"></path><path id="path2" d="M142.567 9.500 C 142.567 10.921,142.593 11.502,142.624 10.792 C 142.655 10.081,142.655 8.919,142.624 8.208 C 142.593 7.498,142.567 8.079,142.567 9.500 M150.055 12.417 C 150.055 13.058,150.086 13.300,150.122 12.955 C 150.158 12.609,150.157 12.084,150.120 11.788 C 150.083 11.492,150.054 11.775,150.055 12.417 M148.379 25.000 C 148.379 25.412,148.411 25.581,148.451 25.375 C 148.491 25.169,148.491 24.831,148.451 24.625 C 148.411 24.419,148.379 24.587,148.379 25.000 M141.887 48.000 C 141.887 48.596,141.917 48.840,141.954 48.542 C 141.991 48.244,141.991 47.756,141.954 47.458 C 141.917 47.160,141.887 47.404,141.887 48.000 M262.461 72.454 C 262.761 72.491,263.211 72.490,263.461 72.452 C 263.712 72.414,263.467 72.384,262.917 72.385 C 262.367 72.386,262.162 72.417,262.461 72.454 M267.875 72.453 C 268.127 72.491,268.540 72.491,268.792 72.453 C 269.044 72.415,268.837 72.383,268.333 72.383 C 267.829 72.383,267.623 72.415,267.875 72.453 M274.708 72.621 C 275.052 72.657,275.615 72.657,275.958 72.621 C 276.302 72.585,276.021 72.556,275.333 72.556 C 274.646 72.556,274.365 72.585,274.708 72.621 M280.542 72.615 C 280.702 72.657,280.965 72.657,281.125 72.615 C 281.285 72.573,281.154 72.539,280.833 72.539 C 280.512 72.539,280.381 72.573,280.542 72.615 M150.892 74.083 C 150.892 74.908,150.920 75.267,150.955 74.880 C 150.990 74.493,150.990 73.818,150.956 73.380 C 150.922 72.942,150.893 73.258,150.892 74.083 M269.958 75.784 C 270.165 75.824,270.502 75.824,270.708 75.784 C 270.915 75.745,270.746 75.712,270.333 75.712 C 269.921 75.712,269.752 75.745,269.958 75.784 M150.212 82.500 C 150.212 82.912,150.245 83.081,150.284 82.875 C 150.324 82.669,150.324 82.331,150.284 82.125 C 150.245 81.919,150.212 82.087,150.212 82.500 M229.296 82.789 C 229.688 82.824,230.288 82.824,230.629 82.788 C 230.971 82.752,230.650 82.723,229.917 82.724 C 229.183 82.724,228.904 82.754,229.296 82.789 M232.875 82.786 C 233.127 82.824,233.540 82.824,233.792 82.786 C 234.044 82.748,233.838 82.717,233.333 82.717 C 232.829 82.717,232.623 82.748,232.875 82.786 M297.960 83.285 C 298.168 83.324,298.468 83.323,298.627 83.281 C 298.786 83.239,298.617 83.207,298.250 83.209 C 297.883 83.211,297.753 83.245,297.960 83.285 M299.961 83.287 C 300.261 83.325,300.711 83.324,300.961 83.286 C 301.212 83.248,300.967 83.217,300.417 83.218 C 299.867 83.219,299.662 83.250,299.961 83.287 M304.708 83.282 C 304.869 83.323,305.131 83.323,305.292 83.282 C 305.452 83.240,305.321 83.205,305.000 83.205 C 304.679 83.205,304.548 83.240,304.708 83.282 M137.879 85.667 C 137.879 86.079,137.911 86.248,137.951 86.042 C 137.991 85.835,137.991 85.498,137.951 85.292 C 137.911 85.085,137.879 85.254,137.879 85.667 M113.375 98.448 C 113.535 98.490,113.798 98.490,113.958 98.448 C 114.119 98.406,113.987 98.372,113.667 98.372 C 113.346 98.372,113.215 98.406,113.375 98.448 M115.627 98.451 C 115.834 98.491,116.134 98.490,116.294 98.448 C 116.453 98.406,116.283 98.374,115.917 98.375 C 115.550 98.377,115.420 98.411,115.627 98.451 M126.500 102.885 C 126.500 102.914,126.744 103.158,127.042 103.427 L 127.583 103.917 127.094 103.375 C 126.638 102.870,126.500 102.757,126.500 102.885 M188.705 117.667 C 188.705 117.987,188.740 118.119,188.782 117.958 C 188.823 117.798,188.823 117.535,188.782 117.375 C 188.740 117.215,188.705 117.346,188.705 117.667 M212.053 118.833 C 212.053 119.429,212.084 119.673,212.121 119.375 C 212.158 119.077,212.158 118.590,212.121 118.292 C 212.084 117.994,212.053 118.237,212.053 118.833 M114.377 118.953 C 114.631 118.991,115.006 118.990,115.211 118.951 C 115.416 118.911,115.208 118.880,114.750 118.881 C 114.292 118.882,114.124 118.915,114.377 118.953 M151.658 129.125 L 151.083 129.750 151.708 129.176 C 152.290 128.641,152.410 128.500,152.283 128.500 C 152.255 128.500,151.974 128.781,151.658 129.125 M137.879 131.667 C 137.879 132.079,137.911 132.248,137.951 132.042 C 137.991 131.835,137.991 131.498,137.951 131.292 C 137.911 131.085,137.879 131.254,137.879 131.667 M153.545 140.833 C 153.545 141.246,153.578 141.415,153.618 141.208 C 153.657 141.002,153.657 140.665,153.618 140.458 C 153.578 140.252,153.545 140.421,153.545 140.833 M153.539 143.667 C 153.539 143.987,153.573 144.119,153.615 143.958 C 153.657 143.798,153.657 143.535,153.615 143.375 C 153.573 143.215,153.539 143.346,153.539 143.667 M141.053 151.333 C 141.053 151.929,141.084 152.173,141.121 151.875 C 141.158 151.577,141.158 151.090,141.121 150.792 C 141.084 150.494,141.053 150.737,141.053 151.333 M137.712 152.333 C 137.712 152.746,137.745 152.915,137.784 152.708 C 137.824 152.502,137.824 152.165,137.784 151.958 C 137.745 151.752,137.712 151.921,137.712 152.333 M137.879 157.000 C 137.879 157.412,137.911 157.581,137.951 157.375 C 137.991 157.169,137.991 156.831,137.951 156.625 C 137.911 156.419,137.879 156.587,137.879 157.000 M147.879 162.333 C 147.879 162.746,147.911 162.915,147.951 162.708 C 147.991 162.502,147.991 162.165,147.951 161.958 C 147.911 161.752,147.879 161.921,147.879 162.333 M212.055 162.750 C 212.055 163.392,212.086 163.634,212.122 163.288 C 212.158 162.942,212.157 162.417,212.120 162.121 C 212.083 161.825,212.054 162.108,212.055 162.750 M212.039 164.500 C 212.039 164.821,212.073 164.952,212.115 164.792 C 212.157 164.631,212.157 164.369,212.115 164.208 C 212.073 164.048,212.039 164.179,212.039 164.500 M137.039 182.333 C 137.039 182.654,137.073 182.785,137.115 182.625 C 137.157 182.465,137.157 182.202,137.115 182.042 C 137.073 181.881,137.039 182.012,137.039 182.333 M201.625 182.618 C 201.831 182.657,202.169 182.657,202.375 182.618 C 202.581 182.578,202.412 182.545,202.000 182.545 C 201.588 182.545,201.419 182.578,201.625 182.618 M137.385 189.250 C 137.386 189.800,137.417 190.005,137.454 189.705 C 137.491 189.406,137.490 188.956,137.452 188.705 C 137.414 188.455,137.384 188.700,137.385 189.250 M205.223 189.500 C 205.223 190.188,205.252 190.469,205.288 190.125 C 205.324 189.781,205.324 189.219,205.288 188.875 C 205.252 188.531,205.223 188.813,205.223 189.500 M140.718 189.417 C 140.719 189.967,140.750 190.172,140.787 189.872 C 140.825 189.572,140.824 189.122,140.786 188.872 C 140.748 188.622,140.717 188.867,140.718 189.417 M137.375 191.417 C 137.377 191.783,137.411 191.914,137.451 191.706 C 137.491 191.499,137.490 191.199,137.448 191.040 C 137.406 190.880,137.374 191.050,137.375 191.417 M125.292 201.454 C 125.590 201.491,126.077 201.491,126.375 201.454 C 126.673 201.417,126.429 201.387,125.833 201.387 C 125.237 201.387,124.994 201.417,125.292 201.454 M139.288 201.454 C 139.584 201.490,140.109 201.491,140.455 201.455 C 140.800 201.419,140.558 201.389,139.917 201.388 C 139.275 201.387,138.992 201.417,139.288 201.454 M135.211 204.786 C 135.464 204.825,135.839 204.824,136.044 204.784 C 136.249 204.744,136.042 204.713,135.583 204.714 C 135.125 204.716,134.957 204.748,135.211 204.786 " stroke="none" fill="#989897" fill-rule="evenodd"></path><path id="path3" d="M147.583 3.500 C 147.941 3.867,148.272 4.167,148.318 4.167 C 148.363 4.167,148.108 3.867,147.750 3.500 C 147.392 3.133,147.062 2.833,147.016 2.833 C 146.970 2.833,147.225 3.133,147.583 3.500 M139.141 6.750 C 139.108 7.162,139.138 7.500,139.207 7.500 C 139.277 7.500,139.333 7.162,139.333 6.750 C 139.333 6.337,139.303 6.000,139.267 6.000 C 139.230 6.000,139.173 6.337,139.141 6.750 M135.730 12.667 C 135.730 13.721,135.757 14.152,135.790 13.625 C 135.823 13.098,135.823 12.235,135.790 11.708 C 135.757 11.181,135.730 11.612,135.730 12.667 M153.395 12.667 C 153.395 13.629,153.423 14.023,153.456 13.542 C 153.490 13.060,153.490 12.273,153.456 11.792 C 153.423 11.310,153.395 11.704,153.395 12.667 M139.039 12.667 C 139.039 12.987,139.073 13.119,139.115 12.958 C 139.157 12.798,139.157 12.535,139.115 12.375 C 139.073 12.215,139.039 12.346,139.039 12.667 M151.724 23.917 C 151.724 24.650,151.754 24.929,151.789 24.537 C 151.824 24.145,151.824 23.545,151.788 23.204 C 151.752 22.863,151.723 23.183,151.724 23.917 M140.542 23.417 C 140.544 23.783,140.578 23.914,140.618 23.706 C 140.658 23.499,140.656 23.199,140.615 23.040 C 140.573 22.880,140.540 23.050,140.542 23.417 M144.067 26.083 C 144.067 27.458,144.093 27.999,144.124 27.284 C 144.155 26.569,144.155 25.444,144.124 24.784 C 144.092 24.124,144.066 24.708,144.067 26.083 M148.375 26.250 C 148.377 26.617,148.411 26.747,148.451 26.540 C 148.491 26.332,148.490 26.032,148.448 25.873 C 148.406 25.714,148.374 25.883,148.375 26.250 M140.548 29.083 C 140.549 29.542,140.581 29.709,140.620 29.456 C 140.658 29.203,140.657 28.828,140.617 28.623 C 140.578 28.418,140.546 28.625,140.548 29.083 M143.872 30.833 C 143.872 31.154,143.906 31.285,143.948 31.125 C 143.990 30.965,143.990 30.702,143.948 30.542 C 143.906 30.381,143.872 30.512,143.872 30.833 M150.209 43.083 C 150.211 43.450,150.245 43.580,150.285 43.373 C 150.324 43.166,150.323 42.866,150.281 42.706 C 150.239 42.547,150.207 42.717,150.209 43.083 M138.705 44.167 C 138.705 44.487,138.740 44.619,138.782 44.458 C 138.823 44.298,138.823 44.035,138.782 43.875 C 138.740 43.715,138.705 43.846,138.705 44.167 M153.705 44.167 C 153.705 44.487,153.740 44.619,153.782 44.458 C 153.823 44.298,153.823 44.035,153.782 43.875 C 153.740 43.715,153.705 43.846,153.705 44.167 M142.045 45.167 C 142.045 45.579,142.078 45.748,142.118 45.542 C 142.157 45.335,142.157 44.998,142.118 44.792 C 142.078 44.585,142.045 44.754,142.045 45.167 M150.400 47.250 C 150.400 48.625,150.426 49.165,150.457 48.451 C 150.489 47.736,150.488 46.611,150.457 45.951 C 150.425 45.290,150.400 45.875,150.400 47.250 M138.562 47.833 C 138.562 48.796,138.589 49.190,138.623 48.708 C 138.657 48.227,138.657 47.440,138.623 46.958 C 138.589 46.477,138.562 46.871,138.562 47.833 M142.039 50.667 C 142.039 50.987,142.073 51.119,142.115 50.958 C 142.157 50.798,142.157 50.535,142.115 50.375 C 142.073 50.215,142.039 50.346,142.039 50.667 M143.050 57.167 C 143.050 57.671,143.081 57.877,143.119 57.625 C 143.158 57.373,143.158 56.960,143.119 56.708 C 143.081 56.456,143.050 56.663,143.050 57.167 M138.709 65.083 C 138.711 65.450,138.745 65.580,138.785 65.373 C 138.824 65.166,138.823 64.866,138.781 64.706 C 138.739 64.547,138.707 64.717,138.709 65.083 M142.045 66.500 C 142.045 66.912,142.078 67.081,142.118 66.875 C 142.157 66.669,142.157 66.331,142.118 66.125 C 142.078 65.919,142.045 66.087,142.045 66.500 M138.539 67.667 C 138.539 67.987,138.573 68.119,138.615 67.958 C 138.657 67.798,138.657 67.535,138.615 67.375 C 138.573 67.215,138.539 67.346,138.539 67.667 M141.872 69.167 C 141.872 69.487,141.906 69.619,141.948 69.458 C 141.990 69.298,141.990 69.035,141.948 68.875 C 141.906 68.715,141.872 68.846,141.872 69.167 M288.127 70.785 C 288.334 70.824,288.634 70.823,288.794 70.781 C 288.953 70.739,288.783 70.707,288.417 70.709 C 288.050 70.711,287.920 70.745,288.127 70.785 M154.231 74.333 C 154.231 75.479,154.258 75.948,154.290 75.375 C 154.323 74.802,154.323 73.865,154.290 73.292 C 154.258 72.719,154.231 73.188,154.231 74.333 M260.877 72.453 C 261.131 72.491,261.506 72.490,261.711 72.451 C 261.916 72.411,261.708 72.380,261.250 72.381 C 260.792 72.382,260.624 72.415,260.877 72.453 M269.964 72.456 C 270.448 72.490,271.198 72.490,271.631 72.456 C 272.063 72.421,271.667 72.394,270.750 72.394 C 269.833 72.395,269.480 72.423,269.964 72.456 M277.714 72.623 C 278.245 72.657,279.070 72.656,279.548 72.623 C 280.026 72.589,279.592 72.562,278.583 72.562 C 277.575 72.563,277.184 72.590,277.714 72.623 M260.708 75.786 C 260.960 75.824,261.373 75.824,261.625 75.786 C 261.877 75.748,261.671 75.717,261.167 75.717 C 260.662 75.717,260.456 75.748,260.708 75.786 M266.465 75.790 C 267.041 75.823,267.941 75.823,268.465 75.790 C 268.988 75.757,268.517 75.730,267.417 75.730 C 266.317 75.731,265.888 75.758,266.465 75.790 M274.048 75.957 C 274.578 75.990,275.403 75.990,275.881 75.956 C 276.359 75.922,275.925 75.895,274.917 75.896 C 273.908 75.896,273.517 75.924,274.048 75.957 M198.042 79.115 C 198.202 79.157,198.465 79.157,198.625 79.115 C 198.785 79.073,198.654 79.039,198.333 79.039 C 198.012 79.039,197.881 79.073,198.042 79.115 M204.875 79.115 C 205.035 79.157,205.298 79.157,205.458 79.115 C 205.619 79.073,205.487 79.039,205.167 79.039 C 204.846 79.039,204.715 79.073,204.875 79.115 M235.542 79.282 C 235.702 79.323,235.965 79.323,236.125 79.282 C 236.285 79.240,236.154 79.205,235.833 79.205 C 235.512 79.205,235.381 79.240,235.542 79.282 M209.788 79.620 C 210.084 79.657,210.609 79.658,210.955 79.622 C 211.300 79.586,211.058 79.555,210.417 79.555 C 209.775 79.554,209.492 79.583,209.788 79.620 M211.875 79.615 C 212.035 79.657,212.298 79.657,212.458 79.615 C 212.619 79.573,212.487 79.539,212.167 79.539 C 211.846 79.539,211.715 79.573,211.875 79.615 M302.295 79.954 C 302.594 79.991,303.044 79.990,303.295 79.952 C 303.545 79.914,303.300 79.884,302.750 79.885 C 302.200 79.886,301.995 79.917,302.295 79.954 M286.463 80.956 C 286.855 80.991,287.455 80.990,287.796 80.954 C 288.137 80.919,287.817 80.890,287.083 80.890 C 286.350 80.891,286.071 80.920,286.463 80.956 M153.542 82.250 C 153.544 82.617,153.578 82.747,153.618 82.540 C 153.658 82.332,153.656 82.032,153.615 81.873 C 153.573 81.714,153.540 81.883,153.542 82.250 M199.294 82.451 C 199.501 82.491,199.801 82.490,199.960 82.448 C 200.120 82.406,199.950 82.374,199.583 82.375 C 199.217 82.377,199.086 82.411,199.294 82.451 M202.958 82.451 C 203.165 82.491,203.502 82.491,203.708 82.451 C 203.915 82.411,203.746 82.379,203.333 82.379 C 202.921 82.379,202.752 82.411,202.958 82.451 M218.961 82.787 C 219.261 82.825,219.711 82.824,219.961 82.786 C 220.212 82.748,219.967 82.717,219.417 82.718 C 218.867 82.719,218.662 82.750,218.961 82.787 M223.292 82.791 C 224.140 82.821,225.527 82.821,226.375 82.791 C 227.223 82.761,226.529 82.736,224.833 82.736 C 223.137 82.736,222.444 82.761,223.292 82.791 M234.460 82.785 C 234.668 82.824,234.968 82.823,235.127 82.781 C 235.286 82.739,235.117 82.707,234.750 82.709 C 234.383 82.711,234.253 82.745,234.460 82.785 M215.208 82.948 C 215.369 82.990,215.631 82.990,215.792 82.948 C 215.952 82.906,215.821 82.872,215.500 82.872 C 215.179 82.872,215.048 82.906,215.208 82.948 M211.711 83.120 C 211.964 83.158,212.339 83.157,212.544 83.117 C 212.749 83.078,212.542 83.046,212.083 83.048 C 211.625 83.049,211.457 83.081,211.711 83.120 M288.042 84.453 C 288.294 84.491,288.706 84.491,288.958 84.453 C 289.210 84.415,289.004 84.383,288.500 84.383 C 287.996 84.383,287.790 84.415,288.042 84.453 M168.797 85.956 C 169.282 85.990,170.032 85.990,170.464 85.956 C 170.896 85.921,170.500 85.894,169.583 85.894 C 168.667 85.895,168.313 85.923,168.797 85.956 M164.542 89.115 C 164.702 89.157,164.965 89.157,165.125 89.115 C 165.285 89.073,165.154 89.039,164.833 89.039 C 164.512 89.039,164.381 89.073,164.542 89.115 M166.627 89.285 C 166.834 89.324,167.134 89.323,167.294 89.281 C 167.453 89.239,167.283 89.207,166.917 89.209 C 166.550 89.211,166.420 89.245,166.627 89.285 M172.375 89.282 C 172.535 89.323,172.798 89.323,172.958 89.282 C 173.119 89.240,172.987 89.205,172.667 89.205 C 172.346 89.205,172.215 89.240,172.375 89.282 M138.879 91.833 C 138.879 92.246,138.911 92.415,138.951 92.208 C 138.991 92.002,138.991 91.665,138.951 91.458 C 138.911 91.252,138.879 91.421,138.879 91.833 M191.879 101.000 C 191.879 101.412,191.911 101.581,191.951 101.375 C 191.991 101.169,191.991 100.831,191.951 100.625 C 191.911 100.419,191.879 100.587,191.879 101.000 M212.230 113.417 C 212.231 114.517,212.258 114.945,212.290 114.368 C 212.323 113.792,212.323 112.892,212.290 112.368 C 212.257 111.845,212.230 112.317,212.230 113.417 M105.667 115.750 C 105.978 116.071,106.270 116.333,106.315 116.333 C 106.361 116.333,106.144 116.071,105.833 115.750 C 105.522 115.429,105.230 115.167,105.185 115.167 C 105.139 115.167,105.356 115.429,105.667 115.750 M135.333 115.719 C 135.333 115.748,135.577 115.991,135.875 116.260 L 136.417 116.750 135.927 116.208 C 135.471 115.703,135.333 115.590,135.333 115.719 M188.705 116.667 C 188.705 116.987,188.740 117.119,188.782 116.958 C 188.823 116.798,188.823 116.535,188.782 116.375 C 188.740 116.215,188.705 116.346,188.705 116.667 M129.544 117.953 C 129.797 117.991,130.172 117.990,130.377 117.951 C 130.582 117.911,130.375 117.880,129.917 117.881 C 129.458 117.882,129.291 117.915,129.544 117.953 M208.709 118.417 C 208.711 118.783,208.745 118.914,208.785 118.706 C 208.824 118.499,208.823 118.199,208.781 118.040 C 208.739 117.880,208.707 118.050,208.709 118.417 M188.875 119.750 C 188.877 120.117,188.911 120.247,188.951 120.040 C 188.991 119.832,188.990 119.532,188.948 119.373 C 188.906 119.214,188.874 119.383,188.875 119.750 M212.053 120.833 C 212.053 121.429,212.084 121.673,212.121 121.375 C 212.158 121.077,212.158 120.590,212.121 120.292 C 212.084 119.994,212.053 120.237,212.053 120.833 M189.039 122.500 C 189.039 122.821,189.073 122.952,189.115 122.792 C 189.157 122.631,189.157 122.369,189.115 122.208 C 189.073 122.048,189.039 122.179,189.039 122.500 M208.539 122.500 C 208.539 122.821,208.573 122.952,208.615 122.792 C 208.657 122.631,208.657 122.369,208.615 122.208 C 208.573 122.048,208.539 122.179,208.539 122.500 M113.708 122.282 C 113.869 122.323,114.131 122.323,114.292 122.282 C 114.452 122.240,114.321 122.205,114.000 122.205 C 113.679 122.205,113.548 122.240,113.708 122.282 M211.872 124.833 C 211.872 125.154,211.906 125.285,211.948 125.125 C 211.990 124.965,211.990 124.702,211.948 124.542 C 211.906 124.381,211.872 124.513,211.872 124.833 M208.372 125.667 C 208.372 125.987,208.406 126.119,208.448 125.958 C 208.490 125.798,208.490 125.535,208.448 125.375 C 208.406 125.215,208.372 125.346,208.372 125.667 M208.039 130.167 C 208.039 130.487,208.073 130.619,208.115 130.458 C 208.157 130.298,208.157 130.035,208.115 129.875 C 208.073 129.715,208.039 129.846,208.039 130.167 M149.545 133.667 C 149.545 134.079,149.578 134.248,149.618 134.042 C 149.657 133.835,149.657 133.498,149.618 133.292 C 149.578 133.085,149.545 133.254,149.545 133.667 M153.542 139.583 C 153.544 139.950,153.578 140.080,153.618 139.873 C 153.658 139.666,153.656 139.366,153.615 139.206 C 153.573 139.047,153.540 139.217,153.542 139.583 M150.229 142.250 C 150.229 143.258,150.257 143.649,150.290 143.119 C 150.323 142.588,150.323 141.763,150.289 141.286 C 150.256 140.808,150.229 141.242,150.229 142.250 M153.548 144.917 C 153.549 145.375,153.581 145.543,153.620 145.289 C 153.658 145.036,153.657 144.661,153.617 144.456 C 153.578 144.251,153.546 144.458,153.548 144.917 M141.067 147.750 C 141.068 149.217,141.093 149.794,141.124 149.034 C 141.155 148.273,141.155 147.073,141.124 146.367 C 141.093 145.661,141.067 146.283,141.067 147.750 M206.227 147.500 C 206.227 148.371,206.255 148.727,206.289 148.292 C 206.324 147.856,206.324 147.144,206.289 146.708 C 206.255 146.273,206.227 146.629,206.227 147.500 M209.539 147.833 C 209.539 148.154,209.573 148.285,209.615 148.125 C 209.657 147.965,209.657 147.702,209.615 147.542 C 209.573 147.381,209.539 147.512,209.539 147.833 M137.723 154.167 C 137.723 154.854,137.752 155.135,137.788 154.792 C 137.824 154.448,137.824 153.885,137.788 153.542 C 137.752 153.198,137.723 153.479,137.723 154.167 M141.209 156.083 C 141.211 156.450,141.245 156.580,141.285 156.373 C 141.324 156.166,141.323 155.866,141.281 155.706 C 141.239 155.547,141.207 155.717,141.209 156.083 M137.883 158.833 C 137.883 159.337,137.915 159.544,137.953 159.292 C 137.991 159.040,137.991 158.627,137.953 158.375 C 137.915 158.123,137.883 158.329,137.883 158.833 M196.383 160.667 C 196.383 161.171,196.415 161.377,196.453 161.125 C 196.491 160.873,196.491 160.460,196.453 160.208 C 196.415 159.956,196.383 160.162,196.383 160.667 M147.872 163.500 C 147.872 163.821,147.906 163.952,147.948 163.792 C 147.990 163.631,147.990 163.369,147.948 163.208 C 147.906 163.048,147.872 163.179,147.872 163.500 M196.542 164.083 C 196.544 164.450,196.578 164.580,196.618 164.373 C 196.658 164.166,196.656 163.866,196.615 163.706 C 196.573 163.547,196.540 163.717,196.542 164.083 M151.566 168.250 C 151.566 169.533,151.592 170.036,151.624 169.368 C 151.656 168.699,151.655 167.649,151.623 167.034 C 151.591 166.420,151.565 166.967,151.566 168.250 M196.872 169.000 C 196.872 169.321,196.906 169.452,196.948 169.292 C 196.990 169.131,196.990 168.869,196.948 168.708 C 196.906 168.548,196.872 168.679,196.872 169.000 M136.221 170.250 C 136.222 170.892,136.252 171.134,136.288 170.788 C 136.324 170.442,136.324 169.917,136.287 169.621 C 136.250 169.325,136.221 169.608,136.221 170.250 M193.545 170.167 C 193.545 170.579,193.578 170.748,193.618 170.542 C 193.657 170.335,193.657 169.998,193.618 169.792 C 193.578 169.585,193.545 169.754,193.545 170.167 M140.039 176.167 C 140.039 176.487,140.073 176.619,140.115 176.458 C 140.157 176.298,140.157 176.035,140.115 175.875 C 140.073 175.715,140.039 175.846,140.039 176.167 M140.205 178.667 C 140.205 178.987,140.240 179.119,140.282 178.958 C 140.323 178.798,140.323 178.535,140.282 178.375 C 140.240 178.215,140.205 178.346,140.205 178.667 M136.872 180.333 C 136.872 180.654,136.906 180.785,136.948 180.625 C 136.990 180.465,136.990 180.202,136.948 180.042 C 136.906 179.881,136.872 180.012,136.872 180.333 M194.717 183.333 C 194.717 183.838,194.748 184.044,194.786 183.792 C 194.824 183.540,194.824 183.127,194.786 182.875 C 194.748 182.623,194.717 182.829,194.717 183.333 M203.375 182.623 C 203.810 182.657,204.523 182.657,204.958 182.623 C 205.394 182.588,205.037 182.560,204.167 182.560 C 203.296 182.560,202.940 182.588,203.375 182.623 M194.720 185.333 C 194.720 185.929,194.750 186.173,194.787 185.875 C 194.824 185.577,194.824 185.090,194.787 184.792 C 194.750 184.494,194.720 184.737,194.720 185.333 M201.542 185.957 C 202.252 185.988,203.415 185.988,204.125 185.957 C 204.835 185.926,204.254 185.900,202.833 185.900 C 201.412 185.900,200.831 185.926,201.542 185.957 M140.721 187.417 C 140.722 188.058,140.752 188.300,140.788 187.955 C 140.824 187.609,140.824 187.084,140.787 186.788 C 140.750 186.492,140.721 186.775,140.721 187.417 M205.212 187.667 C 205.212 188.079,205.245 188.248,205.284 188.042 C 205.324 187.835,205.324 187.498,205.284 187.292 C 205.245 187.085,205.212 187.254,205.212 187.667 M208.545 188.167 C 208.545 188.579,208.578 188.748,208.618 188.542 C 208.657 188.335,208.657 187.998,208.618 187.792 C 208.578 187.585,208.545 187.754,208.545 188.167 M140.718 191.250 C 140.719 191.800,140.750 192.005,140.787 191.705 C 140.825 191.406,140.824 190.956,140.786 190.705 C 140.748 190.455,140.717 190.700,140.718 191.250 M205.205 191.167 C 205.205 191.487,205.240 191.619,205.282 191.458 C 205.323 191.298,205.323 191.035,205.282 190.875 C 205.240 190.715,205.205 190.846,205.205 191.167 M147.709 195.583 C 147.711 195.950,147.745 196.080,147.785 195.873 C 147.824 195.666,147.823 195.366,147.781 195.206 C 147.739 195.047,147.707 195.217,147.709 195.583 M206.381 198.250 C 206.382 198.708,206.415 198.876,206.453 198.623 C 206.491 198.369,206.490 197.994,206.451 197.789 C 206.411 197.584,206.380 197.792,206.381 198.250 M196.128 200.621 C 196.428 200.658,196.878 200.657,197.128 200.619 C 197.378 200.581,197.133 200.551,196.583 200.552 C 196.033 200.553,195.828 200.584,196.128 200.621 M135.042 201.448 C 135.202 201.490,135.465 201.490,135.625 201.448 C 135.785 201.406,135.654 201.372,135.333 201.372 C 135.012 201.372,134.881 201.406,135.042 201.448 M184.208 201.790 C 184.735 201.823,185.598 201.823,186.125 201.790 C 186.652 201.757,186.221 201.730,185.167 201.730 C 184.112 201.730,183.681 201.757,184.208 201.790 M177.167 203.385 C 177.167 203.414,177.410 203.658,177.708 203.927 L 178.250 204.417 177.760 203.875 C 177.304 203.370,177.167 203.257,177.167 203.385 M196.294 203.951 C 196.501 203.991,196.801 203.990,196.960 203.948 C 197.120 203.906,196.950 203.874,196.583 203.875 C 196.217 203.877,196.086 203.911,196.294 203.951 M202.875 204.782 C 203.035 204.823,203.298 204.823,203.458 204.782 C 203.619 204.740,203.487 204.705,203.167 204.705 C 202.846 204.705,202.715 204.740,202.875 204.782 M184.711 205.286 C 184.964 205.325,185.339 205.324,185.544 205.284 C 185.749 205.244,185.542 205.213,185.083 205.214 C 184.625 205.216,184.457 205.248,184.711 205.286 " stroke="none" fill="#c9c9c8" fill-rule="evenodd"></path><path id="path4" d="M142.550 6.167 C 142.550 6.671,142.581 6.877,142.619 6.625 C 142.658 6.373,142.658 5.960,142.619 5.708 C 142.581 5.456,142.550 5.662,142.550 6.167 M153.214 10.917 C 153.216 11.375,153.248 11.543,153.286 11.289 C 153.325 11.036,153.324 10.661,153.284 10.456 C 153.244 10.251,153.213 10.458,153.214 10.917 M150.039 10.833 C 150.039 11.154,150.073 11.285,150.115 11.125 C 150.157 10.965,150.157 10.702,150.115 10.542 C 150.073 10.381,150.039 10.512,150.039 10.833 M150.039 14.000 C 150.039 14.321,150.073 14.452,150.115 14.292 C 150.157 14.131,150.157 13.869,150.115 13.708 C 150.073 13.548,150.039 13.679,150.039 14.000 M153.209 14.417 C 153.211 14.783,153.245 14.914,153.285 14.706 C 153.324 14.499,153.323 14.199,153.281 14.040 C 153.239 13.880,153.207 14.050,153.209 14.417 M142.000 19.385 C 142.000 19.414,142.244 19.658,142.542 19.927 L 143.083 20.417 142.594 19.875 C 142.138 19.370,142.000 19.257,142.000 19.385 M143.879 23.333 C 143.879 23.746,143.911 23.915,143.951 23.708 C 143.991 23.502,143.991 23.165,143.951 22.958 C 143.911 22.752,143.879 22.921,143.879 23.333 M140.733 25.917 C 140.734 27.292,140.759 27.832,140.791 27.117 C 140.822 26.403,140.822 25.278,140.790 24.617 C 140.759 23.957,140.733 24.542,140.733 25.917 M143.879 28.833 C 143.879 29.246,143.911 29.415,143.951 29.208 C 143.991 29.002,143.991 28.665,143.951 28.458 C 143.911 28.252,143.879 28.421,143.879 28.833 M143.705 31.500 C 143.705 31.821,143.740 31.952,143.782 31.792 C 143.823 31.631,143.823 31.369,143.782 31.208 C 143.740 31.048,143.705 31.179,143.705 31.500 M150.375 43.750 C 150.377 44.117,150.411 44.247,150.451 44.040 C 150.491 43.832,150.490 43.532,150.448 43.373 C 150.406 43.214,150.374 43.383,150.375 43.750 M138.705 45.333 C 138.705 45.654,138.740 45.785,138.782 45.625 C 138.823 45.465,138.823 45.202,138.782 45.042 C 138.740 44.881,138.705 45.012,138.705 45.333 M141.883 46.167 C 141.883 46.671,141.915 46.877,141.953 46.625 C 141.991 46.373,141.991 45.960,141.953 45.708 C 141.915 45.456,141.883 45.663,141.883 46.167 M153.731 47.333 C 153.731 48.479,153.758 48.948,153.790 48.375 C 153.823 47.802,153.823 46.865,153.790 46.292 C 153.758 45.719,153.731 46.188,153.731 47.333 M141.881 49.750 C 141.882 50.208,141.915 50.376,141.953 50.123 C 141.991 49.869,141.990 49.494,141.951 49.289 C 141.911 49.084,141.880 49.292,141.881 49.750 M150.372 50.833 C 150.372 51.154,150.406 51.285,150.448 51.125 C 150.490 50.965,150.490 50.702,150.448 50.542 C 150.406 50.381,150.372 50.512,150.372 50.833 M149.726 57.583 C 149.725 58.408,149.754 58.767,149.788 58.380 C 149.823 57.993,149.824 57.318,149.789 56.880 C 149.755 56.442,149.726 56.758,149.726 57.583 M139.039 62.333 C 139.039 62.654,139.073 62.785,139.115 62.625 C 139.157 62.465,139.157 62.202,139.115 62.042 C 139.073 61.881,139.039 62.012,139.039 62.333 M150.539 66.667 C 150.539 66.987,150.573 67.119,150.615 66.958 C 150.657 66.798,150.657 66.535,150.615 66.375 C 150.573 66.215,150.539 66.346,150.539 66.667 M141.872 67.333 C 141.872 67.654,141.906 67.785,141.948 67.625 C 141.990 67.465,141.990 67.202,141.948 67.042 C 141.906 66.881,141.872 67.012,141.872 67.333 M301.044 67.786 C 301.297 67.825,301.672 67.824,301.877 67.784 C 302.082 67.744,301.875 67.713,301.417 67.714 C 300.958 67.716,300.791 67.748,301.044 67.786 M150.705 68.833 C 150.705 69.154,150.740 69.285,150.782 69.125 C 150.823 68.965,150.823 68.702,150.782 68.542 C 150.740 68.381,150.705 68.512,150.705 68.833 M141.709 70.083 C 141.711 70.450,141.745 70.580,141.785 70.373 C 141.824 70.166,141.823 69.866,141.781 69.706 C 141.739 69.547,141.707 69.717,141.709 70.083 M154.048 71.083 C 154.049 71.542,154.081 71.709,154.120 71.456 C 154.158 71.203,154.157 70.828,154.117 70.623 C 154.078 70.418,154.046 70.625,154.048 71.083 M150.875 72.083 C 150.877 72.450,150.911 72.580,150.951 72.373 C 150.991 72.166,150.990 71.866,150.948 71.706 C 150.906 71.547,150.874 71.717,150.875 72.083 M265.125 72.455 C 265.515 72.490,266.152 72.490,266.542 72.455 C 266.931 72.420,266.612 72.392,265.833 72.392 C 265.054 72.392,264.735 72.420,265.125 72.455 M271.875 72.623 C 272.310 72.657,273.023 72.657,273.458 72.623 C 273.894 72.588,273.537 72.560,272.667 72.560 C 271.796 72.560,271.440 72.588,271.875 72.623 M281.542 72.615 C 281.702 72.657,281.965 72.657,282.125 72.615 C 282.285 72.573,282.154 72.539,281.833 72.539 C 281.512 72.539,281.381 72.573,281.542 72.615 M288.708 74.115 C 288.869 74.157,289.131 74.157,289.292 74.115 C 289.452 74.073,289.321 74.039,289.000 74.039 C 288.679 74.039,288.548 74.073,288.708 74.115 M150.875 76.083 C 150.877 76.450,150.911 76.580,150.951 76.373 C 150.991 76.166,150.990 75.866,150.948 75.706 C 150.906 75.547,150.874 75.717,150.875 76.083 M262.792 75.624 C 263.456 75.655,264.544 75.655,265.208 75.624 C 265.873 75.592,265.329 75.566,264.000 75.566 C 262.671 75.566,262.127 75.592,262.792 75.624 M271.375 75.786 C 271.627 75.824,272.040 75.824,272.292 75.786 C 272.544 75.748,272.337 75.717,271.833 75.717 C 271.329 75.717,271.123 75.748,271.375 75.786 M199.208 79.115 C 199.369 79.157,199.631 79.157,199.792 79.115 C 199.952 79.073,199.821 79.039,199.500 79.039 C 199.179 79.039,199.048 79.073,199.208 79.115 M203.460 79.118 C 203.668 79.158,203.968 79.156,204.127 79.115 C 204.286 79.073,204.117 79.040,203.750 79.042 C 203.383 79.044,203.253 79.078,203.460 79.118 M220.958 79.458 C 223.640 79.484,228.027 79.484,230.708 79.458 C 233.390 79.432,231.196 79.411,225.833 79.411 C 220.471 79.411,218.277 79.432,220.958 79.458 M282.045 80.000 C 282.045 80.412,282.078 80.581,282.118 80.375 C 282.157 80.169,282.157 79.831,282.118 79.625 C 282.078 79.419,282.045 79.587,282.045 80.000 M213.792 79.618 C 213.998 79.657,214.335 79.657,214.542 79.618 C 214.748 79.578,214.579 79.545,214.167 79.545 C 213.754 79.545,213.585 79.578,213.792 79.618 M299.047 79.956 C 299.485 79.990,300.160 79.990,300.547 79.955 C 300.934 79.920,300.575 79.892,299.750 79.892 C 298.925 79.893,298.609 79.922,299.047 79.956 M304.794 79.951 C 305.001 79.991,305.301 79.990,305.460 79.948 C 305.620 79.906,305.450 79.874,305.083 79.875 C 304.717 79.877,304.586 79.911,304.794 79.951 M288.211 81.120 C 288.464 81.158,288.839 81.157,289.044 81.117 C 289.249 81.078,289.042 81.046,288.583 81.048 C 288.125 81.049,287.957 81.081,288.211 81.120 M200.631 82.290 C 201.115 82.324,201.865 82.323,202.297 82.289 C 202.730 82.255,202.333 82.227,201.417 82.228 C 200.500 82.228,200.146 82.256,200.631 82.290 M216.960 82.785 C 217.168 82.824,217.468 82.823,217.627 82.781 C 217.786 82.739,217.617 82.707,217.250 82.709 C 216.883 82.711,216.753 82.745,216.960 82.785 M213.544 82.953 C 213.797 82.991,214.172 82.990,214.377 82.951 C 214.582 82.911,214.375 82.880,213.917 82.881 C 213.458 82.882,213.291 82.915,213.544 82.953 M302.131 83.290 C 302.615 83.324,303.365 83.323,303.797 83.289 C 304.230 83.255,303.833 83.227,302.917 83.228 C 302.000 83.228,301.646 83.256,302.131 83.290 M137.872 84.500 C 137.872 84.821,137.906 84.952,137.948 84.792 C 137.990 84.631,137.990 84.369,137.948 84.208 C 137.906 84.048,137.872 84.179,137.872 84.500 M286.288 84.287 C 286.584 84.324,287.109 84.324,287.455 84.288 C 287.800 84.252,287.558 84.222,286.917 84.221 C 286.275 84.221,285.992 84.250,286.288 84.287 M134.556 85.500 C 134.556 86.188,134.585 86.469,134.621 86.125 C 134.657 85.781,134.657 85.219,134.621 84.875 C 134.585 84.531,134.556 84.813,134.556 85.500 M289.792 84.451 C 289.998 84.491,290.335 84.491,290.542 84.451 C 290.748 84.411,290.579 84.379,290.167 84.379 C 289.754 84.379,289.585 84.411,289.792 84.451 M137.872 86.833 C 137.872 87.154,137.906 87.285,137.948 87.125 C 137.990 86.965,137.990 86.702,137.948 86.542 C 137.906 86.381,137.872 86.513,137.872 86.833 M169.132 89.290 C 169.708 89.323,170.608 89.323,171.132 89.290 C 171.655 89.257,171.183 89.230,170.083 89.230 C 168.983 89.231,168.555 89.258,169.132 89.290 M114.794 95.118 C 115.001 95.158,115.301 95.156,115.460 95.115 C 115.620 95.073,115.450 95.040,115.083 95.042 C 114.717 95.044,114.586 95.078,114.794 95.118 M191.725 99.333 C 191.725 100.112,191.754 100.431,191.789 100.042 C 191.824 99.652,191.824 99.015,191.789 98.625 C 191.754 98.235,191.725 98.554,191.725 99.333 M191.721 102.417 C 191.722 103.058,191.752 103.300,191.788 102.955 C 191.824 102.609,191.824 102.084,191.787 101.788 C 191.750 101.492,191.721 101.775,191.721 102.417 M99.721 108.750 C 99.722 109.392,99.752 109.634,99.788 109.288 C 99.824 108.942,99.824 108.417,99.787 108.121 C 99.750 107.825,99.721 108.108,99.721 108.750 M208.887 108.667 C 208.887 109.263,208.917 109.506,208.954 109.208 C 208.991 108.910,208.991 108.423,208.954 108.125 C 208.917 107.827,208.887 108.071,208.887 108.667 M212.074 113.083 C 212.074 115.742,212.097 116.806,212.125 115.448 C 212.153 114.090,212.153 111.915,212.125 110.615 C 212.096 109.314,212.073 110.425,212.074 113.083 M208.901 112.417 C 208.901 113.883,208.927 114.461,208.957 113.700 C 208.988 112.940,208.988 111.740,208.957 111.034 C 208.926 110.328,208.901 110.950,208.901 112.417 M131.044 114.786 C 131.297 114.825,131.672 114.824,131.877 114.784 C 132.082 114.744,131.875 114.713,131.417 114.714 C 130.958 114.716,130.791 114.748,131.044 114.786 M188.712 118.833 C 188.712 119.246,188.745 119.415,188.784 119.208 C 188.824 119.002,188.824 118.665,188.784 118.458 C 188.745 118.252,188.712 118.421,188.712 118.833 M113.127 118.951 C 113.334 118.991,113.634 118.990,113.794 118.948 C 113.953 118.906,113.783 118.874,113.417 118.875 C 113.050 118.877,112.920 118.911,113.127 118.951 M115.794 118.951 C 116.001 118.991,116.301 118.990,116.460 118.948 C 116.620 118.906,116.450 118.874,116.083 118.875 C 115.717 118.877,115.586 118.911,115.794 118.951 M208.714 120.583 C 208.716 121.042,208.748 121.209,208.786 120.956 C 208.825 120.703,208.824 120.328,208.784 120.123 C 208.744 119.918,208.713 120.125,208.714 120.583 M188.875 121.750 C 188.877 122.117,188.911 122.247,188.951 122.040 C 188.991 121.832,188.990 121.532,188.948 121.373 C 188.906 121.214,188.874 121.383,188.875 121.750 M211.889 122.333 C 211.889 123.021,211.919 123.302,211.955 122.958 C 211.991 122.615,211.991 122.052,211.955 121.708 C 211.919 121.365,211.889 121.646,211.889 122.333 M189.039 123.833 C 189.039 124.154,189.073 124.285,189.115 124.125 C 189.157 123.965,189.157 123.702,189.115 123.542 C 189.073 123.381,189.039 123.513,189.039 123.833 M208.539 124.167 C 208.539 124.487,208.573 124.619,208.615 124.458 C 208.657 124.298,208.657 124.035,208.615 123.875 C 208.573 123.715,208.539 123.846,208.539 124.167 M211.709 126.083 C 211.711 126.450,211.745 126.580,211.785 126.373 C 211.824 126.166,211.823 125.866,211.781 125.706 C 211.739 125.547,211.707 125.717,211.709 126.083 M208.372 127.167 C 208.372 127.487,208.406 127.619,208.448 127.458 C 208.490 127.298,208.490 127.035,208.448 126.875 C 208.406 126.715,208.372 126.846,208.372 127.167 M208.205 129.500 C 208.205 129.821,208.240 129.952,208.282 129.792 C 208.323 129.631,208.323 129.369,208.282 129.208 C 208.240 129.048,208.205 129.179,208.205 129.500 M137.872 130.500 C 137.872 130.821,137.906 130.952,137.948 130.792 C 137.990 130.631,137.990 130.369,137.948 130.208 C 137.906 130.048,137.872 130.179,137.872 130.500 M137.879 133.000 C 137.879 133.412,137.911 133.581,137.951 133.375 C 137.991 133.169,137.991 132.831,137.951 132.625 C 137.911 132.419,137.879 132.587,137.879 133.000 M152.872 133.833 C 152.872 134.154,152.906 134.285,152.948 134.125 C 152.990 133.965,152.990 133.702,152.948 133.542 C 152.906 133.381,152.872 133.512,152.872 133.833 M149.705 134.500 C 149.705 134.821,149.740 134.952,149.782 134.792 C 149.823 134.631,149.823 134.369,149.782 134.208 C 149.740 134.048,149.705 134.179,149.705 134.500 M153.372 138.833 C 153.372 139.154,153.406 139.285,153.448 139.125 C 153.490 138.965,153.490 138.702,153.448 138.542 C 153.406 138.381,153.372 138.512,153.372 138.833 M153.550 142.333 C 153.550 142.837,153.581 143.044,153.619 142.792 C 153.658 142.540,153.658 142.127,153.619 141.875 C 153.581 141.623,153.550 141.829,153.550 142.333 M140.885 145.583 C 140.886 146.133,140.917 146.338,140.954 146.039 C 140.991 145.739,140.990 145.289,140.952 145.039 C 140.914 144.788,140.884 145.033,140.885 145.583 M150.209 145.250 C 150.211 145.617,150.245 145.747,150.285 145.540 C 150.324 145.332,150.323 145.032,150.281 144.873 C 150.239 144.714,150.207 144.883,150.209 145.250 M153.379 145.667 C 153.379 146.079,153.411 146.248,153.451 146.042 C 153.491 145.835,153.491 145.498,153.451 145.292 C 153.411 145.085,153.379 145.254,153.379 145.667 M137.736 148.583 C 137.736 150.325,137.761 151.015,137.791 150.116 C 137.821 149.218,137.821 147.793,137.791 146.950 C 137.761 146.107,137.736 146.842,137.736 148.583 M153.205 147.833 C 153.205 148.154,153.240 148.285,153.282 148.125 C 153.323 147.965,153.323 147.702,153.282 147.542 C 153.240 147.381,153.205 147.512,153.205 147.833 M206.375 149.250 C 206.377 149.617,206.411 149.747,206.451 149.540 C 206.491 149.332,206.490 149.032,206.448 148.873 C 206.406 148.714,206.374 148.883,206.375 149.250 M141.057 153.583 C 141.058 154.317,141.087 154.596,141.122 154.204 C 141.157 153.812,141.157 153.212,141.121 152.871 C 141.085 152.529,141.057 152.850,141.057 153.583 M137.881 155.583 C 137.882 156.042,137.915 156.209,137.953 155.956 C 137.991 155.703,137.990 155.328,137.951 155.123 C 137.911 154.918,137.880 155.125,137.881 155.583 M141.226 158.417 C 141.225 159.242,141.254 159.600,141.288 159.213 C 141.323 158.827,141.324 158.152,141.289 157.713 C 141.255 157.275,141.226 157.592,141.226 158.417 M193.050 161.167 C 193.050 161.671,193.081 161.877,193.119 161.625 C 193.158 161.373,193.158 160.960,193.119 160.708 C 193.081 160.456,193.050 160.662,193.050 161.167 M151.226 162.583 C 151.225 163.408,151.254 163.767,151.288 163.380 C 151.323 162.993,151.324 162.318,151.289 161.880 C 151.255 161.442,151.226 161.758,151.226 162.583 M196.379 162.667 C 196.379 163.079,196.411 163.248,196.451 163.042 C 196.491 162.835,196.491 162.498,196.451 162.292 C 196.411 162.085,196.379 162.254,196.379 162.667 M193.205 164.500 C 193.205 164.821,193.240 164.952,193.282 164.792 C 193.323 164.631,193.323 164.369,193.282 164.208 C 193.240 164.048,193.205 164.179,193.205 164.500 M151.383 166.000 C 151.383 166.504,151.415 166.710,151.453 166.458 C 151.491 166.206,151.491 165.794,151.453 165.542 C 151.415 165.290,151.383 165.496,151.383 166.000 M196.542 165.917 C 196.544 166.283,196.578 166.414,196.618 166.206 C 196.658 165.999,196.656 165.699,196.615 165.540 C 196.573 165.380,196.540 165.550,196.542 165.917 M148.225 168.167 C 148.225 168.946,148.254 169.265,148.289 168.875 C 148.324 168.485,148.324 167.848,148.289 167.458 C 148.254 167.069,148.225 167.387,148.225 168.167 M196.705 168.167 C 196.705 168.487,196.740 168.619,196.782 168.458 C 196.823 168.298,196.823 168.035,196.782 167.875 C 196.740 167.715,196.705 167.846,196.705 168.167 M139.559 170.250 C 139.559 171.075,139.587 171.434,139.622 171.047 C 139.657 170.660,139.657 169.985,139.623 169.547 C 139.588 169.109,139.560 169.425,139.559 170.250 M151.381 170.750 C 151.382 171.208,151.415 171.376,151.453 171.123 C 151.491 170.869,151.490 170.494,151.451 170.289 C 151.411 170.084,151.380 170.292,151.381 170.750 M193.709 170.750 C 193.711 171.117,193.745 171.247,193.785 171.040 C 193.824 170.832,193.823 170.532,193.781 170.373 C 193.739 170.214,193.707 170.383,193.709 170.750 M136.372 172.333 C 136.372 172.654,136.406 172.785,136.448 172.625 C 136.490 172.465,136.490 172.202,136.448 172.042 C 136.406 171.881,136.372 172.012,136.372 172.333 M193.872 172.833 C 193.872 173.154,193.906 173.285,193.948 173.125 C 193.990 172.965,193.990 172.702,193.948 172.542 C 193.906 172.381,193.872 172.512,193.872 172.833 M197.539 177.333 C 197.539 177.654,197.573 177.785,197.615 177.625 C 197.657 177.465,197.657 177.202,197.615 177.042 C 197.573 176.881,197.539 177.012,197.539 177.333 M140.039 177.667 C 140.039 177.987,140.073 178.119,140.115 177.958 C 140.157 177.798,140.157 177.535,140.115 177.375 C 140.073 177.215,140.039 177.346,140.039 177.667 M137.042 181.250 C 137.044 181.617,137.078 181.747,137.118 181.540 C 137.158 181.332,137.156 181.032,137.115 180.873 C 137.073 180.714,137.040 180.883,137.042 181.250 M194.705 181.333 C 194.705 181.654,194.740 181.785,194.782 181.625 C 194.823 181.465,194.823 181.202,194.782 181.042 C 194.740 180.881,194.705 181.012,194.705 181.333 M198.964 182.623 C 199.448 182.657,200.198 182.656,200.631 182.622 C 201.063 182.588,200.667 182.560,199.750 182.561 C 198.833 182.561,198.480 182.589,198.964 182.623 M137.212 184.000 C 137.212 184.412,137.245 184.581,137.284 184.375 C 137.324 184.169,137.324 183.831,137.284 183.625 C 137.245 183.419,137.212 183.588,137.212 184.000 M140.548 185.417 C 140.549 185.875,140.581 186.043,140.620 185.789 C 140.658 185.536,140.657 185.161,140.617 184.956 C 140.578 184.751,140.546 184.958,140.548 185.417 M198.542 185.788 C 198.885 185.824,199.448 185.824,199.792 185.788 C 200.135 185.752,199.854 185.723,199.167 185.723 C 198.479 185.723,198.198 185.752,198.542 185.788 M205.379 186.500 C 205.379 186.912,205.411 187.081,205.451 186.875 C 205.491 186.669,205.491 186.331,205.451 186.125 C 205.411 185.919,205.379 186.088,205.379 186.500 M137.379 187.667 C 137.379 188.079,137.411 188.248,137.451 188.042 C 137.491 187.835,137.491 187.498,137.451 187.292 C 137.411 187.085,137.379 187.254,137.379 187.667 M193.073 190.875 L 192.583 191.417 193.125 190.927 C 193.630 190.471,193.743 190.333,193.615 190.333 C 193.586 190.333,193.342 190.577,193.073 190.875 M140.542 193.083 C 140.544 193.450,140.578 193.580,140.618 193.373 C 140.658 193.166,140.656 192.866,140.615 192.706 C 140.573 192.547,140.540 192.717,140.542 193.083 M147.545 196.167 C 147.545 196.579,147.578 196.748,147.618 196.542 C 147.657 196.335,147.657 195.998,147.618 195.792 C 147.578 195.585,147.545 195.754,147.545 196.167 M209.718 198.250 C 209.719 198.800,209.750 199.005,209.787 198.705 C 209.825 198.406,209.824 197.956,209.786 197.705 C 209.748 197.455,209.717 197.700,209.718 198.250 M176.548 200.917 C 176.549 201.375,176.581 201.543,176.620 201.289 C 176.658 201.036,176.657 200.661,176.617 200.456 C 176.578 200.251,176.546 200.458,176.548 200.917 M120.042 201.750 C 120.044 202.117,120.078 202.247,120.118 202.040 C 120.158 201.832,120.156 201.532,120.115 201.373 C 120.073 201.214,120.040 201.383,120.042 201.750 M202.877 201.453 C 203.131 201.491,203.506 201.490,203.711 201.451 C 203.916 201.411,203.708 201.380,203.250 201.381 C 202.792 201.382,202.624 201.415,202.877 201.453 M125.698 204.791 C 127.227 204.819,129.777 204.819,131.364 204.791 C 132.951 204.764,131.700 204.742,128.583 204.741 C 125.467 204.741,124.168 204.764,125.698 204.791 M137.298 204.790 C 137.875 204.823,138.775 204.823,139.298 204.790 C 139.822 204.757,139.350 204.730,138.250 204.730 C 137.150 204.731,136.722 204.758,137.298 204.790 M182.542 205.124 C 183.619 205.153,185.381 205.153,186.458 205.124 C 187.535 205.095,186.654 205.072,184.500 205.072 C 182.346 205.072,181.465 205.095,182.542 205.124 " stroke="none" fill="#7c7c74" fill-rule="evenodd"></path></g></svg>