<svg id="svg" version="1.1" xmlns="http://www.w3.org/2000/svg" xmlns:xlink="http://www.w3.org/1999/xlink" width="400" height="218.1818181818182" viewBox="0, 0, 400,218.1818181818182"><g id="svgg"><path id="path0" d="M0.000 109.083 L 0.000 218.167 200.000 218.167 L 400.000 218.167 400.000 109.083 L 400.000 0.000 200.000 0.000 L 0.000 0.000 0.000 109.083 M187.098 26.001 C 191.614 26.388,194.769 26.903,199.833 28.080 C 203.198 28.863,208.682 30.616,211.333 31.758 C 216.293 33.893,216.341 33.916,219.000 35.392 C 228.240 40.519,235.000 46.698,245.209 59.348 C 247.619 62.335,249.600 64.105,250.713 64.267 C 251.453 64.375,251.486 64.336,252.551 62.110 C 256.569 53.711,263.129 49.173,271.261 49.168 C 284.162 49.160,294.525 63.676,290.893 76.667 C 290.752 77.171,290.531 77.958,290.402 78.417 C 289.676 81.001,287.365 84.628,284.933 87.000 C 282.918 88.965,282.664 89.457,281.006 94.583 C 279.443 99.416,277.837 100.635,274.858 99.248 C 273.756 98.735,273.324 98.728,272.721 99.210 C 270.844 100.712,266.121 103.377,264.667 103.754 C 260.982 104.709,258.178 103.082,255.752 98.583 C 255.406 97.942,254.831 96.879,254.474 96.222 C 253.173 93.827,250.340 92.829,244.854 92.834 L 243.917 92.835 243.360 94.693 C 241.604 100.551,237.935 105.363,231.790 109.868 C 226.865 113.477,225.871 114.478,224.156 117.553 C 223.738 118.303,223.311 119.067,223.208 119.250 C 221.581 122.145,219.323 125.591,217.964 127.250 C 217.514 127.800,217.024 128.400,216.877 128.583 C 216.729 128.767,215.956 129.667,215.160 130.583 C 211.451 134.851,211.288 135.452,211.896 142.583 C 212.250 146.726,212.207 150.264,211.730 156.250 C 211.122 163.880,211.494 177.541,212.332 178.399 C 212.760 178.837,214.672 179.290,217.333 179.584 C 221.734 180.071,222.183 180.189,226.167 181.907 C 226.946 182.243,228.558 182.886,229.750 183.335 C 234.425 185.098,235.130 185.442,235.789 186.287 C 237.338 188.270,236.722 191.100,234.500 192.209 L 233.750 192.583 219.917 192.583 C 203.275 192.583,203.482 192.610,201.013 190.179 C 199.389 188.581,199.305 188.282,197.835 178.833 C 197.542 176.954,197.128 174.404,196.914 173.167 C 196.701 171.929,196.477 170.579,196.418 170.167 C 196.244 168.955,195.178 163.656,194.926 162.750 C 193.946 159.226,192.559 151.649,191.830 145.833 C 191.641 144.321,191.339 141.996,191.160 140.667 C 189.985 131.950,190.201 130.310,193.462 123.150 L 193.963 122.050 188.357 121.948 C 185.273 121.892,181.550 121.734,180.083 121.597 C 178.617 121.460,176.142 121.233,174.583 121.092 C 173.025 120.950,170.512 120.649,169.000 120.422 C 165.317 119.870,159.781 119.217,156.917 118.998 C 155.633 118.900,153.646 118.747,152.500 118.658 C 150.094 118.470,143.265 118.484,140.583 118.681 C 137.335 118.919,130.319 119.328,127.833 119.423 C 124.757 119.541,122.014 119.758,119.167 120.109 C 113.120 120.856,108.769 118.695,108.533 114.830 C 108.358 111.962,109.522 110.818,115.213 108.265 C 115.742 108.028,116.212 107.833,116.256 107.833 C 116.425 107.833,119.988 106.274,121.460 105.556 C 123.412 104.602,125.481 103.066,127.820 100.832 C 127.965 100.694,128.758 99.756,129.583 98.749 C 133.811 93.584,135.896 92.235,139.456 92.359 C 142.418 92.462,145.540 94.697,146.981 97.743 C 147.409 98.647,148.044 99.210,148.661 99.232 C 148.938 99.242,149.166 99.306,149.166 99.375 C 149.167 99.746,153.525 99.252,156.199 98.578 C 157.880 98.154,159.299 97.695,163.167 96.324 C 164.221 95.951,165.533 95.492,166.083 95.306 C 166.633 95.119,167.217 94.895,167.379 94.808 C 167.542 94.721,168.780 94.399,170.129 94.091 L 172.583 93.532 172.000 93.277 C 171.452 93.038,169.472 91.976,168.167 91.222 C 167.846 91.036,167.133 90.637,166.583 90.335 C 165.046 89.491,161.264 87.108,159.490 85.866 C 156.191 83.555,154.383 82.240,153.333 81.385 C 149.453 78.227,148.554 77.449,146.860 75.780 C 141.783 70.774,139.072 66.173,137.809 60.417 C 137.663 59.751,137.589 58.109,137.587 55.500 L 137.583 51.583 138.150 49.417 C 141.650 36.035,154.240 27.426,172.500 25.928 C 178.295 25.452,180.831 25.465,187.098 26.001 M177.167 29.939 C 169.235 30.425,165.564 31.044,160.407 32.766 C 142.267 38.822,136.073 56.656,147.418 70.159 C 149.963 73.189,153.336 76.095,159.302 80.398 C 159.697 80.683,160.222 81.074,160.469 81.266 C 163.292 83.466,169.612 87.220,174.685 89.711 C 176.973 90.834,177.445 91.035,181.833 92.749 C 186.735 94.663,187.285 94.896,188.997 95.791 C 193.597 98.196,194.525 99.249,193.455 100.850 C 192.520 102.250,191.476 102.269,189.349 100.927 C 182.863 96.834,174.908 96.441,166.263 99.785 C 161.469 101.640,155.203 103.389,152.610 103.596 C 151.954 103.648,151.229 103.714,151.000 103.741 C 147.601 104.148,145.698 103.103,142.823 99.250 C 139.821 95.226,137.654 95.566,133.548 100.707 C 129.008 106.391,126.474 108.191,117.872 111.838 C 115.922 112.664,113.946 113.575,113.482 113.860 L 112.637 114.380 113.114 114.858 C 114.028 115.772,116.280 116.186,118.417 115.833 C 119.916 115.585,122.524 115.366,126.333 115.168 C 128.212 115.070,131.512 114.884,133.667 114.754 C 135.821 114.624,139.202 114.429,141.180 114.319 C 148.655 113.906,158.664 114.513,168.917 116.001 C 185.249 118.371,199.142 118.240,204.353 115.667 C 213.485 111.157,214.714 102.217,207.882 90.000 C 207.754 89.771,207.355 89.133,206.996 88.583 C 206.636 88.033,206.225 87.376,206.083 87.124 C 205.940 86.871,205.282 85.907,204.620 84.982 C 203.958 84.057,203.267 83.086,203.083 82.825 C 199.074 77.109,191.582 69.237,185.814 64.679 C 183.942 63.200,180.449 60.578,179.417 59.879 C 177.075 58.291,173.962 56.312,172.747 55.640 C 170.407 54.345,169.745 53.444,170.175 52.142 C 170.613 50.813,172.048 50.331,173.438 51.046 C 177.667 53.221,183.253 57.075,189.168 61.900 C 194.419 66.183,199.990 71.790,203.343 76.165 C 203.659 76.577,204.311 77.388,204.793 77.968 C 205.275 78.547,205.987 79.472,206.376 80.021 C 206.765 80.571,207.233 81.223,207.417 81.471 C 207.600 81.718,208.275 82.670,208.916 83.585 C 210.064 85.225,210.419 85.777,212.022 88.417 C 212.467 89.150,213.008 89.969,213.223 90.238 L 213.616 90.726 214.544 88.821 C 215.579 86.699,216.121 84.825,216.346 82.583 C 216.539 80.675,217.095 80.000,218.475 80.000 C 222.275 80.000,220.958 87.667,215.906 94.950 L 215.190 95.983 215.657 97.616 C 218.311 106.902,214.837 115.227,206.578 119.376 C 204.645 120.347,200.820 121.500,199.533 121.500 C 198.936 121.500,197.908 123.442,195.929 128.303 C 194.580 131.618,194.462 135.107,195.505 140.887 C 195.590 141.362,195.775 142.725,195.914 143.917 C 196.509 148.986,197.352 153.786,199.003 161.500 C 200.484 168.420,200.722 169.715,201.751 176.500 C 201.967 177.921,202.225 179.442,202.324 179.881 C 202.423 180.319,202.654 181.744,202.838 183.047 C 203.619 188.592,202.572 188.240,218.417 188.286 L 230.750 188.321 229.667 187.902 C 229.071 187.672,228.208 187.345,227.750 187.177 C 226.348 186.661,225.168 186.187,223.167 185.338 C 220.815 184.341,221.043 184.401,218.417 184.087 C 211.312 183.237,208.743 182.200,208.085 179.917 C 207.162 176.714,206.772 165.278,207.333 157.875 C 207.425 156.660,207.575 154.673,207.668 153.458 C 207.882 150.637,207.880 143.912,207.665 142.500 C 206.717 136.282,207.754 132.269,211.305 128.421 C 211.899 127.777,212.660 126.950,212.995 126.583 C 214.589 124.839,217.935 120.047,218.990 118.000 C 221.773 112.592,223.116 111.039,228.536 106.956 C 236.891 100.660,240.032 95.283,240.484 86.500 C 240.649 83.295,241.021 82.667,242.750 82.667 C 244.438 82.667,244.911 83.558,244.749 86.434 L 244.636 88.452 246.276 88.566 C 254.194 89.114,256.019 90.103,258.915 95.412 C 262.063 101.183,261.840 101.182,270.706 95.458 C 272.641 94.209,273.792 94.047,275.353 94.803 C 275.767 95.003,276.148 95.167,276.201 95.167 C 276.343 95.167,276.760 94.063,277.416 91.954 C 278.942 87.049,279.111 86.727,281.421 84.333 C 285.423 80.185,287.005 76.877,287.283 72.072 C 287.788 63.356,280.701 54.397,272.587 53.492 C 266.065 52.765,259.122 57.231,256.499 63.841 C 255.049 67.494,253.396 68.846,250.659 68.617 C 247.644 68.364,245.421 66.472,239.165 58.836 C 238.754 58.333,238.293 57.771,238.142 57.586 C 231.398 49.343,224.858 43.643,217.333 39.448 C 215.764 38.574,211.261 36.333,211.071 36.333 C 211.030 36.333,210.678 36.187,210.290 36.008 C 206.017 34.044,197.722 31.757,191.583 30.852 C 188.130 30.343,179.499 29.796,177.167 29.939 " stroke="none" fill="#fbfbfb" fill-rule="evenodd"></path><path id="path1" d="M176.583 25.781 C 153.850 26.727,139.488 36.894,137.664 53.333 C 136.782 61.284,140.138 69.173,147.320 76.032 C 149.043 77.677,149.946 78.453,153.311 81.177 C 157.966 84.947,165.306 89.657,171.458 92.823 C 173.100 93.667,173.131 93.757,171.832 93.904 C 170.413 94.064,167.453 94.937,163.583 96.335 C 156.969 98.725,153.549 99.567,150.406 99.577 C 148.110 99.585,147.670 99.348,146.714 97.594 C 145.375 95.137,142.785 93.048,140.480 92.568 C 136.967 91.835,133.936 93.583,129.900 98.667 C 126.591 102.836,123.922 104.753,117.833 107.334 C 109.899 110.698,108.610 111.703,108.628 114.514 C 108.654 118.660,113.282 120.814,120.083 119.844 C 121.593 119.629,124.234 119.426,126.750 119.331 C 129.042 119.245,133.017 119.009,135.583 118.807 C 141.805 118.316,151.785 118.274,156.083 118.720 C 162.401 119.375,165.211 119.704,167.760 120.087 C 174.708 121.130,182.719 121.743,189.458 121.747 C 192.485 121.749,194.166 121.810,194.165 121.917 C 194.164 122.008,193.745 122.983,193.234 124.083 C 190.378 130.230,190.225 131.663,191.401 141.250 C 192.543 150.558,193.485 156.077,195.054 162.667 C 195.779 165.713,196.306 168.480,197.164 173.750 C 197.763 177.431,198.104 179.568,199.062 185.645 C 199.609 189.121,201.613 191.327,205.000 192.185 C 205.747 192.374,208.490 192.417,219.833 192.417 L 233.750 192.417 234.437 192.049 C 236.285 191.061,236.989 188.964,236.105 187.083 C 235.498 185.790,234.677 185.308,230.417 183.746 C 228.458 183.028,226.413 182.216,225.417 181.760 C 222.717 180.526,221.091 180.113,217.546 179.762 C 213.860 179.398,212.092 178.872,211.908 178.085 C 211.242 175.234,211.044 164.743,211.524 157.771 C 211.956 151.494,211.999 144.540,211.629 140.500 C 211.173 135.510,211.545 134.444,215.175 130.333 C 218.669 126.377,221.023 123.006,223.441 118.500 C 225.448 114.758,226.366 113.753,230.903 110.329 C 236.718 105.941,239.368 103.079,241.531 98.856 C 242.426 97.107,243.667 93.690,243.667 92.972 C 243.667 92.325,250.429 92.930,252.225 93.739 C 253.584 94.350,253.962 94.830,255.690 98.132 C 258.707 103.901,262.384 105.304,267.167 102.511 C 270.376 100.638,271.354 100.033,272.392 99.278 L 273.535 98.448 274.476 98.932 C 275.283 99.347,275.606 99.416,276.750 99.416 C 279.069 99.417,279.521 98.756,281.589 92.333 C 282.460 89.629,282.935 88.830,284.841 86.862 C 291.898 79.578,293.410 69.879,288.888 60.917 C 287.109 57.392,283.211 53.295,280.167 51.751 C 269.298 46.237,258.617 50.256,252.750 62.068 C 251.014 65.563,249.840 65.238,245.619 60.090 C 234.453 46.472,230.149 42.425,220.487 36.457 C 214.545 32.787,204.509 29.044,196.500 27.511 C 195.996 27.414,195.096 27.228,194.500 27.096 C 192.817 26.725,186.406 26.018,183.083 25.837 C 180.217 25.680,179.201 25.672,176.583 25.781 M185.500 30.081 C 198.758 31.024,210.809 34.899,221.083 41.523 C 226.695 45.141,232.186 50.155,237.306 56.337 C 244.849 65.444,246.018 66.658,248.329 67.785 C 251.775 69.466,254.424 68.295,256.104 64.349 C 260.047 55.086,269.378 50.718,276.917 54.607 C 288.784 60.729,291.032 75.059,281.590 84.392 C 279.477 86.480,279.113 87.164,277.600 91.875 C 276.989 93.777,276.445 95.333,276.390 95.333 C 276.335 95.333,275.771 95.146,275.135 94.917 C 273.195 94.217,272.692 94.342,269.745 96.254 C 266.806 98.161,266.686 98.236,265.417 98.958 C 262.196 100.791,261.331 100.348,258.830 95.583 C 256.247 90.664,254.653 89.607,248.917 89.007 C 247.908 88.902,246.499 88.735,245.784 88.637 L 244.485 88.459 244.534 86.165 C 244.589 83.605,244.506 83.370,243.374 82.891 C 241.646 82.160,240.859 83.171,240.647 86.394 C 240.060 95.339,236.923 100.957,229.417 106.504 C 223.333 111.000,222.579 111.818,219.669 117.083 C 217.313 121.349,214.928 124.687,211.750 128.167 C 207.850 132.438,207.080 135.102,207.767 141.932 C 208.072 144.967,208.102 149.251,207.843 153.000 C 207.745 154.421,207.580 156.821,207.478 158.333 C 207.018 165.109,207.373 175.894,208.179 179.654 C 208.673 181.954,211.254 183.078,217.778 183.833 C 220.799 184.183,220.810 184.186,224.917 185.886 C 227.027 186.760,229.464 187.700,230.386 187.996 C 231.517 188.359,231.003 188.380,219.521 188.455 C 202.074 188.570,203.669 189.355,202.168 179.917 C 201.687 176.892,201.005 172.729,200.652 170.667 C 200.043 167.102,199.812 165.951,198.411 159.500 C 196.964 152.842,195.407 142.682,194.580 134.500 C 194.320 131.926,195.365 128.539,198.127 123.001 L 198.917 121.420 200.250 121.233 C 207.761 120.182,214.225 114.784,215.876 108.185 C 216.610 105.254,216.303 99.650,215.244 96.650 C 215.012 95.993,215.017 95.972,215.621 95.117 C 219.844 89.133,221.840 81.549,219.500 80.380 C 218.729 79.995,217.697 80.110,217.166 80.642 C 216.676 81.131,216.648 81.236,216.337 83.713 C 216.093 85.653,215.692 86.893,214.631 88.991 C 213.555 91.118,213.578 91.111,212.661 89.660 C 211.224 87.387,210.597 86.404,209.687 85.000 C 201.606 72.519,189.199 60.611,176.083 52.748 C 172.407 50.544,171.945 50.421,170.904 51.375 C 169.384 52.768,169.959 53.725,173.703 56.031 C 177.573 58.415,177.750 58.527,179.041 59.408 C 186.432 64.453,193.238 70.611,199.286 77.728 C 214.723 95.893,216.587 110.037,204.304 115.822 C 198.563 118.526,186.129 118.561,167.000 115.925 C 156.378 114.462,147.572 114.038,139.083 114.582 C 132.971 114.973,129.997 115.146,126.167 115.333 C 124.196 115.429,121.346 115.664,119.833 115.854 C 115.964 116.342,113.335 115.915,112.681 114.694 C 112.350 114.074,114.339 113.005,119.917 110.806 C 125.351 108.663,129.459 105.639,132.882 101.261 C 137.701 95.099,139.734 94.843,143.539 99.923 C 146.709 104.155,150.025 104.651,158.630 102.181 C 160.697 101.587,161.970 101.158,167.417 99.220 C 175.577 96.315,182.837 96.802,189.243 100.684 C 191.334 101.951,191.792 102.053,192.681 101.453 C 195.302 99.687,192.530 97.109,184.750 94.077 C 183.742 93.684,181.859 92.950,180.566 92.445 C 167.405 87.303,151.174 76.036,145.776 68.294 C 138.603 58.005,140.801 45.224,151.091 37.391 C 158.787 31.532,170.605 29.022,185.500 30.081 " stroke="none" fill="#070706" fill-rule="evenodd"></path><path id="path2" d="M234.417 47.167 C 234.775 47.533,235.105 47.833,235.151 47.833 C 235.197 47.833,234.941 47.533,234.583 47.167 C 234.225 46.800,233.895 46.500,233.849 46.500 C 233.803 46.500,234.059 46.800,234.417 47.167 M257.661 54.792 L 256.750 55.750 257.708 54.839 C 258.235 54.338,258.667 53.907,258.667 53.881 C 258.667 53.757,258.507 53.901,257.661 54.792 M260.409 57.875 L 259.750 58.583 260.458 57.925 C 260.848 57.562,261.167 57.243,261.167 57.216 C 261.167 57.090,261.022 57.216,260.409 57.875 M193.500 65.719 C 193.500 65.748,193.744 65.991,194.042 66.260 L 194.583 66.750 194.094 66.208 C 193.638 65.703,193.500 65.590,193.500 65.719 M250.960 68.618 C 251.168 68.658,251.468 68.656,251.627 68.615 C 251.786 68.573,251.617 68.540,251.250 68.542 C 250.883 68.544,250.753 68.578,250.960 68.618 M192.917 71.000 C 193.738 71.825,194.447 72.500,194.493 72.500 C 194.539 72.500,193.905 71.825,193.083 71.000 C 192.262 70.175,191.553 69.500,191.507 69.500 C 191.461 69.500,192.095 70.175,192.917 71.000 M280.833 84.917 C 280.428 85.329,280.135 85.667,280.181 85.667 C 280.226 85.667,280.595 85.329,281.000 84.917 C 281.405 84.504,281.699 84.167,281.653 84.167 C 281.607 84.167,281.238 84.504,280.833 84.917 M176.625 97.451 C 176.831 97.491,177.169 97.491,177.375 97.451 C 177.581 97.411,177.412 97.379,177.000 97.379 C 176.588 97.379,176.419 97.411,176.625 97.451 M134.991 98.792 L 134.417 99.417 135.042 98.842 C 135.623 98.308,135.743 98.167,135.616 98.167 C 135.588 98.167,135.307 98.448,134.991 98.792 M216.387 103.833 C 216.387 104.429,216.417 104.673,216.454 104.375 C 216.491 104.077,216.491 103.590,216.454 103.292 C 216.417 102.994,216.387 103.237,216.387 103.833 M143.708 114.282 C 143.869 114.323,144.131 114.323,144.292 114.282 C 144.452 114.240,144.321 114.205,144.000 114.205 C 143.679 114.205,143.548 114.240,143.708 114.282 M148.458 114.284 C 148.665 114.324,149.002 114.324,149.208 114.284 C 149.415 114.245,149.246 114.212,148.833 114.212 C 148.421 114.212,148.252 114.245,148.458 114.284 M211.410 115.875 L 210.583 116.750 211.458 115.923 C 211.940 115.468,212.333 115.074,212.333 115.048 C 212.333 114.924,212.179 115.062,211.410 115.875 M186.958 117.787 C 187.256 117.824,187.744 117.824,188.042 117.787 C 188.340 117.750,188.096 117.720,187.500 117.720 C 186.904 117.720,186.660 117.750,186.958 117.787 M192.794 117.785 C 193.001 117.824,193.301 117.823,193.460 117.781 C 193.620 117.739,193.450 117.707,193.083 117.709 C 192.717 117.711,192.586 117.745,192.794 117.785 M145.214 118.457 C 145.745 118.490,146.570 118.490,147.048 118.456 C 147.526 118.422,147.092 118.395,146.083 118.396 C 145.075 118.396,144.684 118.424,145.214 118.457 M152.375 118.615 C 152.535 118.657,152.798 118.657,152.958 118.615 C 153.119 118.573,152.987 118.539,152.667 118.539 C 152.346 118.539,152.215 118.573,152.375 118.615 M126.127 119.451 C 126.334 119.491,126.634 119.490,126.794 119.448 C 126.953 119.406,126.783 119.374,126.417 119.375 C 126.050 119.377,125.920 119.411,126.127 119.451 M116.377 120.286 C 116.631 120.325,117.006 120.324,117.211 120.284 C 117.416 120.244,117.208 120.213,116.750 120.214 C 116.292 120.216,116.124 120.248,116.377 120.286 M183.542 121.782 C 183.702 121.823,183.965 121.823,184.125 121.782 C 184.285 121.740,184.154 121.705,183.833 121.705 C 183.512 121.705,183.381 121.740,183.542 121.782 M188.701 121.957 C 189.316 121.989,190.366 121.989,191.034 121.957 C 191.703 121.926,191.200 121.899,189.917 121.899 C 188.633 121.899,188.086 121.925,188.701 121.957 M212.052 148.083 C 212.053 148.633,212.084 148.838,212.121 148.539 C 212.158 148.239,212.157 147.789,212.119 147.539 C 212.081 147.288,212.051 147.533,212.052 148.083 M211.232 165.750 C 211.233 167.033,211.259 167.536,211.291 166.868 C 211.322 166.199,211.322 165.149,211.290 164.534 C 211.258 163.920,211.232 164.467,211.232 165.750 M207.205 170.833 C 207.205 171.154,207.240 171.285,207.282 171.125 C 207.323 170.965,207.323 170.702,207.282 170.542 C 207.240 170.381,207.205 170.512,207.205 170.833 " stroke="none" fill="#989896" fill-rule="evenodd"></path><path id="path3" d="M178.631 25.623 C 179.115 25.657,179.865 25.656,180.297 25.622 C 180.730 25.588,180.333 25.560,179.417 25.561 C 178.500 25.561,178.146 25.589,178.631 25.623 M177.208 29.948 C 177.369 29.990,177.631 29.990,177.792 29.948 C 177.952 29.906,177.821 29.872,177.500 29.872 C 177.179 29.872,177.048 29.906,177.208 29.948 M180.127 29.951 C 180.334 29.991,180.634 29.990,180.794 29.948 C 180.953 29.906,180.783 29.874,180.417 29.875 C 180.050 29.877,179.920 29.911,180.127 29.951 M174.208 30.115 C 174.369 30.157,174.631 30.157,174.792 30.115 C 174.952 30.073,174.821 30.039,174.500 30.039 C 174.179 30.039,174.048 30.073,174.208 30.115 M144.240 38.042 L 143.750 38.583 144.292 38.094 C 144.590 37.825,144.833 37.581,144.833 37.552 C 144.833 37.423,144.696 37.537,144.240 38.042 M148.575 39.708 L 147.917 40.417 148.625 39.758 C 149.015 39.395,149.333 39.077,149.333 39.050 C 149.333 38.923,149.188 39.050,148.575 39.708 M233.167 45.917 C 233.478 46.237,233.770 46.500,233.815 46.500 C 233.861 46.500,233.644 46.237,233.333 45.917 C 233.022 45.596,232.730 45.333,232.685 45.333 C 232.639 45.333,232.856 45.596,233.167 45.917 M236.167 48.917 C 236.757 49.512,237.278 50.000,237.324 50.000 C 237.370 50.000,236.924 49.512,236.333 48.917 C 235.743 48.321,235.222 47.833,235.176 47.833 C 235.130 47.833,235.576 48.321,236.167 48.917 M230.500 49.250 C 230.811 49.571,231.103 49.833,231.149 49.833 C 231.195 49.833,230.978 49.571,230.667 49.250 C 230.356 48.929,230.064 48.667,230.018 48.667 C 229.972 48.667,230.189 48.929,230.500 49.250 M231.667 50.385 C 231.667 50.414,231.910 50.658,232.208 50.927 L 232.750 51.417 232.260 50.875 C 231.804 50.370,231.667 50.257,231.667 50.385 M232.833 51.552 C 232.833 51.581,233.077 51.825,233.375 52.094 L 233.917 52.583 233.427 52.042 C 232.971 51.537,232.833 51.423,232.833 51.552 M272.042 53.448 C 272.202 53.490,272.465 53.490,272.625 53.448 C 272.785 53.406,272.654 53.372,272.333 53.372 C 272.012 53.372,271.881 53.406,272.042 53.448 M285.667 56.083 C 285.978 56.404,286.270 56.667,286.315 56.667 C 286.361 56.667,286.144 56.404,285.833 56.083 C 285.522 55.762,285.230 55.500,285.185 55.500 C 285.139 55.500,285.356 55.762,285.667 56.083 M256.240 56.208 L 255.750 56.750 256.292 56.260 C 256.797 55.804,256.910 55.667,256.781 55.667 C 256.752 55.667,256.509 55.910,256.240 56.208 M244.826 65.375 C 245.517 66.111,245.667 66.243,245.667 66.118 C 245.667 66.091,245.310 65.735,244.875 65.326 L 244.083 64.583 244.826 65.375 M291.553 71.667 C 291.553 72.262,291.584 72.506,291.621 72.208 C 291.658 71.910,291.658 71.423,291.621 71.125 C 291.584 70.827,291.553 71.071,291.553 71.667 M198.833 71.052 C 198.833 71.081,199.077 71.325,199.375 71.594 L 199.917 72.083 199.427 71.542 C 198.971 71.037,198.833 70.923,198.833 71.052 M148.000 76.885 C 148.000 76.914,148.244 77.158,148.542 77.427 L 149.083 77.917 148.594 77.375 C 148.138 76.870,148.000 76.757,148.000 76.885 M220.553 82.500 C 220.553 83.096,220.584 83.340,220.621 83.042 C 220.658 82.744,220.658 82.256,220.621 81.958 C 220.584 81.660,220.553 81.904,220.553 82.500 M282.242 83.542 L 281.583 84.250 282.292 83.591 C 282.681 83.229,283.000 82.910,283.000 82.883 C 283.000 82.757,282.855 82.883,282.242 83.542 M244.723 85.333 C 244.723 86.021,244.752 86.302,244.788 85.958 C 244.824 85.615,244.824 85.052,244.788 84.708 C 244.752 84.365,244.723 84.646,244.723 85.333 M240.550 85.333 C 240.550 85.837,240.581 86.044,240.619 85.792 C 240.658 85.540,240.658 85.127,240.619 84.875 C 240.581 84.623,240.550 84.829,240.550 85.333 M286.240 85.542 L 285.750 86.083 286.292 85.594 C 286.797 85.138,286.910 85.000,286.781 85.000 C 286.752 85.000,286.509 85.244,286.240 85.542 M283.906 87.875 L 283.417 88.417 283.958 87.927 C 284.463 87.471,284.577 87.333,284.448 87.333 C 284.419 87.333,284.175 87.577,283.906 87.875 M244.292 92.784 C 244.498 92.824,244.835 92.824,245.042 92.784 C 245.248 92.745,245.079 92.712,244.667 92.712 C 244.254 92.712,244.085 92.745,244.292 92.784 M132.661 95.292 L 131.750 96.250 132.708 95.339 C 133.599 94.493,133.743 94.333,133.619 94.333 C 133.593 94.333,133.162 94.765,132.661 95.292 M233.246 103.042 L 231.917 104.417 233.292 103.087 C 234.569 101.853,234.743 101.667,234.621 101.667 C 234.596 101.667,233.977 102.285,233.246 103.042 M257.833 101.719 C 257.833 101.748,258.077 101.991,258.375 102.260 L 258.917 102.750 258.427 102.208 C 257.971 101.703,257.833 101.590,257.833 101.719 M129.991 104.625 L 129.417 105.250 130.042 104.676 C 130.623 104.141,130.743 104.000,130.616 104.000 C 130.588 104.000,130.307 104.281,129.991 104.625 M236.577 105.708 L 235.750 106.583 236.625 105.756 C 237.106 105.301,237.500 104.908,237.500 104.881 C 237.500 104.757,237.346 104.895,236.577 105.708 M142.708 114.282 C 142.869 114.323,143.131 114.323,143.292 114.282 C 143.452 114.240,143.321 114.205,143.000 114.205 C 142.679 114.205,142.548 114.240,142.708 114.282 M149.792 114.284 C 149.998 114.324,150.335 114.324,150.542 114.284 C 150.748 114.245,150.579 114.212,150.167 114.212 C 149.754 114.212,149.585 114.245,149.792 114.284 M136.542 114.615 C 136.702 114.657,136.965 114.657,137.125 114.615 C 137.285 114.573,137.154 114.539,136.833 114.539 C 136.512 114.539,136.381 114.573,136.542 114.615 M133.792 114.784 C 133.998 114.824,134.335 114.824,134.542 114.784 C 134.748 114.745,134.579 114.712,134.167 114.712 C 133.754 114.712,133.585 114.745,133.792 114.784 M128.377 115.120 C 128.631 115.158,129.006 115.157,129.211 115.117 C 129.416 115.078,129.208 115.046,128.750 115.048 C 128.292 115.049,128.124 115.081,128.377 115.120 M183.792 117.618 C 183.998 117.657,184.335 117.657,184.542 117.618 C 184.748 117.578,184.579 117.545,184.167 117.545 C 183.754 117.545,183.585 117.578,183.792 117.618 M195.044 117.620 C 195.297 117.658,195.672 117.657,195.877 117.617 C 196.082 117.578,195.875 117.546,195.417 117.548 C 194.958 117.549,194.791 117.581,195.044 117.620 M189.458 117.790 C 190.031 117.823,190.969 117.823,191.542 117.790 C 192.115 117.758,191.646 117.731,190.500 117.731 C 189.354 117.731,188.885 117.758,189.458 117.790 M141.375 118.615 C 141.535 118.657,141.798 118.657,141.958 118.615 C 142.119 118.573,141.987 118.539,141.667 118.539 C 141.346 118.539,141.215 118.573,141.375 118.615 M138.625 118.784 C 138.831 118.824,139.169 118.824,139.375 118.784 C 139.581 118.745,139.412 118.712,139.000 118.712 C 138.587 118.712,138.419 118.745,138.625 118.784 M154.042 118.782 C 154.202 118.823,154.465 118.823,154.625 118.782 C 154.785 118.740,154.654 118.705,154.333 118.705 C 154.012 118.705,153.881 118.740,154.042 118.782 M136.294 118.951 C 136.501 118.991,136.801 118.990,136.960 118.948 C 137.120 118.906,136.950 118.874,136.583 118.875 C 136.217 118.877,136.086 118.911,136.294 118.951 M155.960 118.951 C 156.168 118.991,156.468 118.990,156.627 118.948 C 156.786 118.906,156.617 118.874,156.250 118.875 C 155.883 118.877,155.753 118.911,155.960 118.951 M133.375 119.115 C 133.535 119.157,133.798 119.157,133.958 119.115 C 134.119 119.073,133.987 119.039,133.667 119.039 C 133.346 119.039,133.215 119.073,133.375 119.115 M127.292 119.451 C 127.498 119.491,127.835 119.491,128.042 119.451 C 128.248 119.411,128.079 119.379,127.667 119.379 C 127.254 119.379,127.085 119.411,127.292 119.451 M180.208 121.615 C 180.369 121.657,180.631 121.657,180.792 121.615 C 180.952 121.573,180.821 121.539,180.500 121.539 C 180.179 121.539,180.048 121.573,180.208 121.615 M182.292 121.784 C 182.498 121.824,182.835 121.824,183.042 121.784 C 183.248 121.745,183.079 121.712,182.667 121.712 C 182.254 121.712,182.085 121.745,182.292 121.784 M185.955 121.954 C 186.250 121.990,186.775 121.991,187.121 121.955 C 187.467 121.919,187.225 121.889,186.583 121.888 C 185.942 121.887,185.659 121.917,185.955 121.954 M192.625 121.954 C 192.923 121.991,193.410 121.991,193.708 121.954 C 194.006 121.917,193.762 121.887,193.167 121.887 C 192.571 121.887,192.327 121.917,192.625 121.954 M212.053 145.833 C 212.053 146.429,212.084 146.673,212.121 146.375 C 212.158 146.077,212.158 145.590,212.121 145.292 C 212.084 144.994,212.053 145.237,212.053 145.833 M207.888 146.083 C 207.889 146.725,207.919 146.967,207.955 146.621 C 207.991 146.275,207.990 145.750,207.954 145.455 C 207.917 145.159,207.887 145.442,207.888 146.083 M207.889 148.500 C 207.889 149.188,207.919 149.469,207.955 149.125 C 207.991 148.781,207.991 148.219,207.955 147.875 C 207.919 147.531,207.889 147.813,207.889 148.500 M212.052 149.917 C 212.053 150.467,212.084 150.672,212.121 150.372 C 212.158 150.072,212.157 149.622,212.119 149.372 C 212.081 149.122,212.051 149.367,212.052 149.917 M211.872 153.333 C 211.872 153.654,211.906 153.785,211.948 153.625 C 211.990 153.465,211.990 153.202,211.948 153.042 C 211.906 152.881,211.872 153.012,211.872 153.333 M207.209 159.750 C 207.211 160.117,207.245 160.247,207.285 160.040 C 207.324 159.832,207.323 159.532,207.281 159.373 C 207.239 159.214,207.207 159.383,207.209 159.750 M211.381 161.583 C 211.382 162.042,211.415 162.209,211.453 161.956 C 211.491 161.703,211.490 161.328,211.451 161.123 C 211.411 160.918,211.380 161.125,211.381 161.583 M207.071 165.750 C 207.071 167.675,207.095 168.440,207.124 167.449 C 207.154 166.459,207.154 164.884,207.124 163.949 C 207.095 163.015,207.070 163.825,207.071 165.750 M211.375 170.250 C 211.377 170.617,211.411 170.747,211.451 170.540 C 211.491 170.332,211.490 170.032,211.448 169.873 C 211.406 169.714,211.374 169.883,211.375 170.250 M207.209 171.917 C 207.211 172.283,207.245 172.414,207.285 172.206 C 207.324 171.999,207.323 171.699,207.281 171.540 C 207.239 171.380,207.207 171.550,207.209 171.917 M213.958 192.625 C 217.465 192.650,223.202 192.650,226.708 192.625 C 230.215 192.600,227.346 192.579,220.333 192.579 C 213.321 192.579,210.452 192.600,213.958 192.625 " stroke="none" fill="#c9cac9" fill-rule="evenodd"></path><path id="path4" d="M176.295 25.787 C 176.594 25.825,177.044 25.824,177.295 25.786 C 177.545 25.748,177.300 25.717,176.750 25.718 C 176.200 25.719,175.995 25.750,176.295 25.787 M181.542 25.786 C 181.794 25.824,182.206 25.824,182.458 25.786 C 182.710 25.748,182.504 25.717,182.000 25.717 C 181.496 25.717,181.290 25.748,181.542 25.786 M175.292 29.951 C 175.498 29.991,175.835 29.991,176.042 29.951 C 176.248 29.911,176.079 29.879,175.667 29.879 C 175.254 29.879,175.085 29.911,175.292 29.951 M182.127 29.951 C 182.334 29.991,182.634 29.990,182.794 29.948 C 182.953 29.906,182.783 29.874,182.417 29.875 C 182.050 29.877,181.920 29.911,182.127 29.951 M187.127 30.285 C 187.334 30.324,187.634 30.323,187.794 30.281 C 187.953 30.239,187.783 30.207,187.417 30.209 C 187.050 30.211,186.920 30.245,187.127 30.285 M148.161 39.958 L 147.250 40.917 148.208 40.006 C 148.735 39.505,149.167 39.073,149.167 39.047 C 149.167 38.924,149.007 39.068,148.161 39.958 M232.833 45.750 C 233.331 46.254,233.776 46.667,233.822 46.667 C 233.868 46.667,233.498 46.254,233.000 45.750 C 232.502 45.246,232.057 44.833,232.011 44.833 C 231.966 44.833,232.335 45.246,232.833 45.750 M236.417 49.333 C 236.868 49.792,237.275 50.167,237.321 50.167 C 237.367 50.167,237.035 49.792,236.583 49.333 C 236.132 48.875,235.725 48.500,235.679 48.500 C 235.633 48.500,235.965 48.875,236.417 49.333 M231.667 50.250 C 232.534 51.121,233.281 51.833,233.327 51.833 C 233.373 51.833,232.701 51.121,231.833 50.250 C 230.966 49.379,230.219 48.667,230.173 48.667 C 230.127 48.667,230.799 49.379,231.667 50.250 M270.877 49.286 C 271.131 49.325,271.506 49.324,271.711 49.284 C 271.916 49.244,271.708 49.213,271.250 49.214 C 270.792 49.216,270.624 49.248,270.877 49.286 M238.333 51.417 C 238.644 51.737,238.936 52.000,238.982 52.000 C 239.028 52.000,238.811 51.737,238.500 51.417 C 238.189 51.096,237.897 50.833,237.851 50.833 C 237.805 50.833,238.022 51.096,238.333 51.417 M234.333 53.052 C 234.333 53.081,234.577 53.325,234.875 53.594 L 235.417 54.083 234.927 53.542 C 234.471 53.037,234.333 52.923,234.333 53.052 M270.795 53.287 C 271.094 53.325,271.544 53.324,271.795 53.286 C 272.045 53.248,271.800 53.217,271.250 53.218 C 270.700 53.219,270.495 53.250,270.795 53.287 M170.333 53.719 C 170.333 53.748,170.577 53.991,170.875 54.260 L 171.417 54.750 170.927 54.208 C 170.471 53.703,170.333 53.590,170.333 53.719 M283.667 54.213 C 283.667 54.238,284.248 54.819,284.958 55.504 L 286.250 56.750 285.004 55.458 C 283.847 54.259,283.667 54.091,283.667 54.213 M141.552 55.750 C 141.553 56.300,141.584 56.505,141.621 56.205 C 141.658 55.906,141.657 55.456,141.619 55.205 C 141.581 54.955,141.551 55.200,141.552 55.750 M137.539 57.167 C 137.539 57.487,137.573 57.619,137.615 57.458 C 137.657 57.298,137.657 57.035,137.615 56.875 C 137.573 56.715,137.539 56.846,137.539 57.167 M247.417 62.167 C 247.961 62.717,248.444 63.167,248.490 63.167 C 248.535 63.167,248.128 62.717,247.583 62.167 C 247.039 61.617,246.556 61.167,246.510 61.167 C 246.465 61.167,246.872 61.617,247.417 62.167 M243.833 64.219 C 243.833 64.248,244.077 64.491,244.375 64.760 L 244.917 65.250 244.427 64.708 C 243.971 64.203,243.833 64.090,243.833 64.219 M196.417 68.667 C 197.514 69.767,198.449 70.667,198.495 70.667 C 198.541 70.667,197.680 69.767,196.583 68.667 C 195.486 67.567,194.551 66.667,194.505 66.667 C 194.459 66.667,195.320 67.567,196.417 68.667 M287.392 71.250 C 287.392 72.075,287.420 72.434,287.455 72.047 C 287.490 71.660,287.490 70.985,287.456 70.547 C 287.422 70.109,287.393 70.425,287.392 71.250 M195.417 73.500 C 195.961 74.050,196.444 74.500,196.490 74.500 C 196.535 74.500,196.128 74.050,195.583 73.500 C 195.039 72.950,194.556 72.500,194.510 72.500 C 194.465 72.500,194.872 72.950,195.417 73.500 M146.750 75.667 C 147.108 76.033,147.438 76.333,147.484 76.333 C 147.530 76.333,147.275 76.033,146.917 75.667 C 146.559 75.300,146.228 75.000,146.182 75.000 C 146.137 75.000,146.392 75.300,146.750 75.667 M148.833 77.583 C 149.144 77.904,149.436 78.167,149.482 78.167 C 149.528 78.167,149.311 77.904,149.000 77.583 C 148.689 77.262,148.397 77.000,148.351 77.000 C 148.305 77.000,148.522 77.262,148.833 77.583 M218.208 80.115 C 218.369 80.157,218.631 80.157,218.792 80.115 C 218.952 80.073,218.821 80.039,218.500 80.039 C 218.179 80.039,218.048 80.073,218.208 80.115 M220.375 83.583 C 220.377 83.950,220.411 84.080,220.451 83.873 C 220.491 83.666,220.490 83.366,220.448 83.206 C 220.406 83.047,220.374 83.217,220.375 83.583 M286.324 85.292 L 285.750 85.917 286.375 85.342 C 286.719 85.026,287.000 84.745,287.000 84.717 C 287.000 84.590,286.859 84.710,286.324 85.292 M244.556 87.000 C 244.556 87.688,244.585 87.969,244.621 87.625 C 244.657 87.281,244.657 86.719,244.621 86.375 C 244.585 86.031,244.556 86.313,244.556 87.000 M133.240 94.875 L 132.750 95.417 133.292 94.927 C 133.590 94.658,133.833 94.414,133.833 94.385 C 133.833 94.257,133.696 94.370,133.240 94.875 M131.744 96.375 L 130.917 97.250 131.792 96.423 C 132.605 95.654,132.743 95.500,132.619 95.500 C 132.592 95.500,132.199 95.894,131.744 96.375 M175.292 97.451 C 175.498 97.491,175.835 97.491,176.042 97.451 C 176.248 97.411,176.079 97.379,175.667 97.379 C 175.254 97.379,175.085 97.411,175.292 97.451 M177.960 97.451 C 178.168 97.491,178.468 97.490,178.627 97.448 C 178.786 97.406,178.617 97.374,178.250 97.375 C 177.883 97.377,177.753 97.411,177.960 97.451 M260.500 98.552 C 260.500 98.581,260.744 98.825,261.042 99.094 L 261.583 99.583 261.094 99.042 C 260.638 98.537,260.500 98.423,260.500 98.552 M276.627 99.618 C 276.834 99.658,277.134 99.656,277.294 99.615 C 277.453 99.573,277.283 99.540,276.917 99.542 C 276.550 99.544,276.420 99.578,276.627 99.618 M262.542 99.948 C 262.702 99.990,262.965 99.990,263.125 99.948 C 263.285 99.906,263.154 99.872,262.833 99.872 C 262.512 99.872,262.381 99.906,262.542 99.948 M127.742 101.042 L 127.083 101.750 127.792 101.091 C 128.450 100.478,128.577 100.333,128.450 100.333 C 128.423 100.333,128.105 100.652,127.742 101.042 M258.326 102.042 C 259.017 102.778,259.167 102.910,259.167 102.785 C 259.167 102.758,258.810 102.402,258.375 101.993 L 257.583 101.250 258.326 102.042 M233.246 103.208 L 232.083 104.417 233.292 103.254 C 234.414 102.175,234.576 102.000,234.454 102.000 C 234.428 102.000,233.885 102.544,233.246 103.208 M130.824 103.625 L 130.250 104.250 130.875 103.676 C 131.457 103.141,131.577 103.000,131.449 103.000 C 131.422 103.000,131.140 103.281,130.824 103.625 M235.410 106.708 L 234.583 107.583 235.458 106.756 C 235.940 106.301,236.333 105.908,236.333 105.881 C 236.333 105.757,236.179 105.895,235.410 106.708 M145.375 114.290 C 145.902 114.323,146.765 114.323,147.292 114.290 C 147.819 114.257,147.387 114.230,146.333 114.230 C 145.279 114.230,144.848 114.257,145.375 114.290 M140.960 114.451 C 141.168 114.491,141.468 114.490,141.627 114.448 C 141.786 114.406,141.617 114.374,141.250 114.375 C 140.883 114.377,140.753 114.411,140.960 114.451 M138.125 114.618 C 138.331 114.657,138.669 114.657,138.875 114.618 C 139.081 114.578,138.912 114.545,138.500 114.545 C 138.087 114.545,137.919 114.578,138.125 114.618 M154.127 114.618 C 154.334 114.658,154.634 114.656,154.794 114.615 C 154.953 114.573,154.783 114.540,154.417 114.542 C 154.050 114.544,153.920 114.578,154.127 114.618 M135.542 114.782 C 135.702 114.823,135.965 114.823,136.125 114.782 C 136.285 114.740,136.154 114.705,135.833 114.705 C 135.512 114.705,135.381 114.740,135.542 114.782 M156.375 114.782 C 156.535 114.823,156.798 114.823,156.958 114.782 C 157.119 114.740,156.987 114.705,156.667 114.705 C 156.346 114.705,156.215 114.740,156.375 114.782 M132.958 114.951 C 133.165 114.991,133.502 114.991,133.708 114.951 C 133.915 114.911,133.746 114.879,133.333 114.879 C 132.921 114.879,132.752 114.911,132.958 114.951 M158.042 114.948 C 158.202 114.990,158.465 114.990,158.625 114.948 C 158.785 114.906,158.654 114.872,158.333 114.872 C 158.012 114.872,157.881 114.906,158.042 114.948 M130.460 115.118 C 130.668 115.158,130.968 115.156,131.127 115.115 C 131.286 115.073,131.117 115.040,130.750 115.042 C 130.383 115.044,130.253 115.078,130.460 115.118 M126.377 115.286 C 126.631 115.325,127.006 115.324,127.211 115.284 C 127.416 115.244,127.208 115.213,126.750 115.214 C 126.292 115.216,126.124 115.248,126.377 115.286 M123.460 115.451 C 123.668 115.491,123.968 115.490,124.127 115.448 C 124.286 115.406,124.117 115.374,123.750 115.375 C 123.383 115.377,123.253 115.411,123.460 115.451 M117.208 116.115 C 117.369 116.157,117.631 116.157,117.792 116.115 C 117.952 116.073,117.821 116.039,117.500 116.039 C 117.179 116.039,117.048 116.073,117.208 116.115 M182.042 117.615 C 182.202 117.657,182.465 117.657,182.625 117.615 C 182.785 117.573,182.654 117.539,182.333 117.539 C 182.012 117.539,181.881 117.573,182.042 117.615 M184.788 117.787 C 185.084 117.824,185.609 117.824,185.955 117.788 C 186.300 117.752,186.058 117.722,185.417 117.721 C 184.775 117.721,184.492 117.750,184.788 117.787 M194.042 117.786 C 194.294 117.824,194.706 117.824,194.958 117.786 C 195.210 117.748,195.004 117.717,194.500 117.717 C 193.996 117.717,193.790 117.748,194.042 117.786 M142.961 118.454 C 143.261 118.491,143.711 118.490,143.961 118.452 C 144.212 118.414,143.967 118.384,143.417 118.385 C 142.867 118.386,142.662 118.417,142.961 118.454 M148.964 118.456 C 149.448 118.490,150.198 118.490,150.631 118.456 C 151.063 118.421,150.667 118.394,149.750 118.394 C 148.833 118.395,148.480 118.423,148.964 118.456 M139.377 118.620 C 139.631 118.658,140.006 118.657,140.211 118.617 C 140.416 118.578,140.208 118.546,139.750 118.548 C 139.292 118.549,139.124 118.581,139.377 118.620 M153.460 118.618 C 153.668 118.658,153.968 118.656,154.127 118.615 C 154.286 118.573,154.117 118.540,153.750 118.542 C 153.383 118.544,153.253 118.578,153.460 118.618 M136.875 118.782 C 137.035 118.823,137.298 118.823,137.458 118.782 C 137.619 118.740,137.487 118.705,137.167 118.705 C 136.846 118.705,136.715 118.740,136.875 118.782 M134.542 118.948 C 134.702 118.990,134.965 118.990,135.125 118.948 C 135.285 118.906,135.154 118.872,134.833 118.872 C 134.512 118.872,134.381 118.906,134.542 118.948 M129.542 119.282 C 129.702 119.323,129.965 119.323,130.125 119.282 C 130.285 119.240,130.154 119.205,129.833 119.205 C 129.512 119.205,129.381 119.240,129.542 119.282 M124.542 119.453 C 124.794 119.491,125.206 119.491,125.458 119.453 C 125.710 119.415,125.504 119.383,125.000 119.383 C 124.496 119.383,124.290 119.415,124.542 119.453 M122.294 119.618 C 122.501 119.658,122.801 119.656,122.960 119.615 C 123.120 119.573,122.950 119.540,122.583 119.542 C 122.217 119.544,122.086 119.578,122.294 119.618 M179.294 121.451 C 179.501 121.491,179.801 121.490,179.960 121.448 C 180.120 121.406,179.950 121.374,179.583 121.375 C 179.217 121.377,179.086 121.411,179.294 121.451 M181.794 121.618 C 182.001 121.658,182.301 121.656,182.460 121.615 C 182.620 121.573,182.450 121.540,182.083 121.542 C 181.717 121.544,181.586 121.578,181.794 121.618 M184.711 121.786 C 184.964 121.825,185.339 121.824,185.544 121.784 C 185.749 121.744,185.542 121.713,185.083 121.714 C 184.625 121.716,184.457 121.748,184.711 121.786 M194.552 133.583 C 194.553 134.133,194.584 134.338,194.621 134.039 C 194.658 133.739,194.657 133.289,194.619 133.039 C 194.581 132.788,194.551 133.033,194.552 133.583 M190.553 133.833 C 190.553 134.429,190.584 134.673,190.621 134.375 C 190.658 134.077,190.658 133.590,190.621 133.292 C 190.584 132.994,190.553 133.237,190.553 133.833 M207.387 138.333 C 207.387 138.929,207.417 139.173,207.454 138.875 C 207.491 138.577,207.491 138.090,207.454 137.792 C 207.417 137.494,207.387 137.737,207.387 138.333 M211.883 144.500 C 211.883 145.004,211.915 145.210,211.953 144.958 C 211.991 144.706,211.991 144.294,211.953 144.042 C 211.915 143.790,211.883 143.996,211.883 144.500 M208.042 146.917 C 208.044 147.283,208.078 147.414,208.118 147.206 C 208.158 146.999,208.156 146.699,208.115 146.540 C 208.073 146.380,208.040 146.550,208.042 146.917 M207.881 150.917 C 207.882 151.375,207.915 151.543,207.953 151.289 C 207.991 151.036,207.990 150.661,207.951 150.456 C 207.911 150.251,207.880 150.458,207.881 150.917 M211.883 151.167 C 211.883 151.671,211.915 151.877,211.953 151.625 C 211.991 151.373,211.991 150.960,211.953 150.708 C 211.915 150.456,211.883 150.662,211.883 151.167 M211.705 154.500 C 211.705 154.821,211.740 154.952,211.782 154.792 C 211.823 154.631,211.823 154.369,211.782 154.208 C 211.740 154.048,211.705 154.179,211.705 154.500 M207.381 158.917 C 207.382 159.375,207.415 159.543,207.453 159.289 C 207.491 159.036,207.490 158.661,207.451 158.456 C 207.411 158.251,207.380 158.458,207.381 158.917 M211.372 159.667 C 211.372 159.987,211.406 160.119,211.448 159.958 C 211.490 159.798,211.490 159.535,211.448 159.375 C 211.406 159.215,211.372 159.346,211.372 159.667 M207.225 162.500 C 207.225 163.279,207.254 163.598,207.289 163.208 C 207.324 162.819,207.324 162.181,207.289 161.792 C 207.254 161.402,207.225 161.721,207.225 162.500 M211.217 162.667 C 211.217 163.171,211.248 163.377,211.286 163.125 C 211.324 162.873,211.324 162.460,211.286 162.208 C 211.248 161.956,211.217 162.162,211.217 162.667 M207.226 168.917 C 207.225 169.742,207.254 170.100,207.288 169.713 C 207.323 169.327,207.324 168.652,207.289 168.213 C 207.255 167.775,207.226 168.092,207.226 168.917 M211.218 168.917 C 211.219 169.467,211.250 169.672,211.287 169.372 C 211.325 169.072,211.324 168.622,211.286 168.372 C 211.248 168.122,211.217 168.367,211.218 168.917 M211.372 171.667 C 211.372 171.987,211.406 172.119,211.448 171.958 C 211.490 171.798,211.490 171.535,211.448 171.375 C 211.406 171.215,211.372 171.346,211.372 171.667 M207.383 172.833 C 207.383 173.338,207.415 173.544,207.453 173.292 C 207.491 173.040,207.491 172.627,207.453 172.375 C 207.415 172.123,207.383 172.329,207.383 172.833 M211.053 188.458 C 213.145 188.485,216.520 188.485,218.553 188.458 C 220.586 188.432,218.875 188.410,214.750 188.410 C 210.625 188.410,208.961 188.432,211.053 188.458 M227.708 188.455 C 228.052 188.491,228.615 188.491,228.958 188.455 C 229.302 188.419,229.021 188.389,228.333 188.389 C 227.646 188.389,227.365 188.419,227.708 188.455 M201.000 190.083 C 201.311 190.404,201.603 190.667,201.649 190.667 C 201.695 190.667,201.478 190.404,201.167 190.083 C 200.856 189.762,200.564 189.500,200.518 189.500 C 200.472 189.500,200.689 189.762,201.000 190.083 M206.542 192.448 C 206.702 192.490,206.965 192.490,207.125 192.448 C 207.285 192.406,207.154 192.372,206.833 192.372 C 206.512 192.372,206.381 192.406,206.542 192.448 " stroke="none" fill="#7c7476" fill-rule="evenodd"></path></g></svg>