<svg id="svg" version="1.1" xmlns="http://www.w3.org/2000/svg" xmlns:xlink="http://www.w3.org/1999/xlink" width="400" height="218.1818181818182" viewBox="0, 0, 400,218.1818181818182"><g id="svgg"><path id="path0" d="M20.107 0.996 C 0.436 9.302,-5.810 30.497,6.160 48.326 C 10.008 54.058,14.779 59.520,20.020 64.192 C 33.332 76.060,39.130 77.061,47.365 68.910 C 50.499 65.808,50.161 65.988,51.538 66.684 C 55.615 68.746,59.229 71.327,60.236 72.897 C 60.885 73.909,63.520 79.520,63.832 80.558 C 63.917 80.839,64.857 82.837,65.921 84.997 C 72.556 98.471,79.149 105.355,91.320 111.520 C 91.868 111.798,92.050 112.121,92.485 113.590 C 93.393 116.660,94.934 121.399,95.480 122.806 C 95.772 123.556,96.267 124.833,96.580 125.642 C 96.893 126.452,98.337 129.514,99.789 132.447 C 102.865 138.663,102.846 138.567,102.339 144.961 C 101.780 152.017,102.077 158.958,103.239 165.957 C 105.196 177.752,105.526 181.169,105.698 191.361 C 105.815 198.370,106.255 197.959,98.200 198.363 C 93.951 198.576,91.421 198.929,89.362 199.598 C 86.466 200.539,73.690 205.663,72.467 206.375 C 68.274 208.814,68.221 215.340,72.375 217.661 L 73.377 218.221 94.012 218.221 C 114.501 218.221,114.654 218.218,115.643 217.764 C 123.140 214.322,125.596 210.137,126.454 199.345 C 126.789 195.128,127.453 188.306,128.547 177.851 C 129.688 166.940,130.716 150.419,130.713 143.042 C 130.710 137.038,130.319 133.517,129.066 128.205 C 128.338 125.118,127.685 121.123,127.888 120.997 C 128.134 120.846,131.016 121.626,136.934 123.446 C 137.894 123.742,139.269 124.164,139.989 124.386 C 140.709 124.607,142.379 125.100,143.699 125.481 C 145.019 125.861,147.081 126.462,148.282 126.816 C 150.334 127.422,157.168 129.117,162.793 130.417 C 170.225 132.134,174.046 133.220,177.523 134.606 C 178.123 134.845,179.105 135.237,179.705 135.476 C 180.306 135.716,181.877 136.421,183.197 137.043 C 184.517 137.666,186.626 138.615,187.882 139.153 C 189.139 139.691,191.005 140.527,192.029 141.011 C 198.333 143.990,211.450 148.792,218.767 150.799 C 219.607 151.029,220.982 151.418,221.822 151.663 C 223.945 152.283,229.425 153.569,234.370 154.609 C 239.713 155.733,246.552 156.723,252.464 157.229 C 256.321 157.559,260.171 158.189,261.757 158.748 C 270.098 161.692,275.670 162.683,282.543 162.444 C 287.819 162.261,291.790 162.663,298.963 164.107 C 301.904 164.699,305.046 165.330,305.947 165.511 C 306.847 165.692,308.320 165.991,309.220 166.176 C 312.246 166.799,319.790 168.300,321.331 168.587 C 322.171 168.743,324.233 169.131,325.914 169.449 C 327.594 169.767,329.755 170.160,330.715 170.323 C 334.848 171.023,338.726 171.793,344.899 173.139 C 353.055 174.917,358.865 176.855,362.750 179.093 C 365.836 180.870,366.585 181.973,371.321 191.708 C 375.083 199.441,375.150 199.602,375.281 201.112 L 375.395 202.442 373.786 203.825 C 370.266 206.851,369.558 208.109,369.558 211.348 C 369.558 221.592,385.367 220.283,392.775 209.427 C 396.110 204.538,396.764 201.390,396.678 190.616 C 396.615 182.612,396.828 180.199,397.932 176.432 C 400.501 167.661,400.570 163.575,398.229 158.916 C 395.747 153.977,392.064 152.387,382.433 152.097 C 369.543 151.708,360.217 148.821,340.753 139.192 C 322.419 130.121,314.056 127.922,295.254 127.228 C 283.429 126.792,278.340 125.385,268.222 119.754 C 266.977 119.061,265.921 118.494,265.876 118.494 C 265.831 118.494,264.654 117.856,263.260 117.076 C 261.865 116.296,260.687 115.657,260.641 115.657 C 260.595 115.657,259.403 115.012,257.993 114.222 C 252.918 111.382,244.470 107.353,234.697 103.113 C 226.874 99.718,225.209 98.594,222.250 94.709 C 218.600 89.916,213.095 85.112,207.310 81.672 C 199.514 77.035,189.460 75.231,178.549 76.510 C 165.553 78.033,154.988 74.169,138.105 61.717 C 128.218 54.426,125.588 52.521,123.841 51.391 C 122.761 50.692,121.238 49.709,120.458 49.207 C 109.102 41.902,98.193 39.601,81.069 40.898 L 75.614 41.311 74.086 40.704 C 68.596 38.522,65.905 35.827,65.255 31.860 C 62.745 16.553,54.780 5.713,42.335 0.665 L 40.698 0.001 31.533 0.022 L 22.368 0.042 20.107 0.996 M34.915 4.807 C 43.176 5.871,52.093 12.794,55.848 21.058 C 56.230 21.899,56.634 22.782,56.745 23.022 C 57.766 25.223,58.606 28.280,59.573 33.321 C 60.681 39.094,62.704 41.473,69.613 45.128 C 73.406 47.135,75.246 47.412,80.667 46.789 C 94.396 45.211,105.472 47.285,116.094 53.423 C 118.281 54.687,127.336 61.032,129.842 63.056 C 130.382 63.493,131.069 64.014,131.369 64.216 C 131.669 64.417,133.388 65.658,135.188 66.973 C 138.260 69.218,146.046 74.414,146.336 74.414 C 146.409 74.414,146.729 74.599,147.048 74.826 C 147.829 75.382,154.528 78.778,156.028 79.378 C 163.605 82.411,171.037 83.285,180.578 82.266 C 193.563 80.880,206.777 85.749,214.409 94.732 C 214.653 95.019,215.539 96.039,216.377 96.999 C 217.216 97.960,218.574 99.558,219.394 100.550 C 221.175 102.705,225.971 106.274,227.085 106.274 C 227.134 106.274,227.590 106.464,228.098 106.695 C 228.607 106.927,231.724 108.313,235.025 109.774 C 244.866 114.132,253.179 118.233,259.902 122.048 C 261.162 122.763,263.912 124.233,266.012 125.314 C 268.112 126.395,270.027 127.399,270.267 127.546 C 271.116 128.063,274.872 129.670,276.487 130.208 C 282.842 132.325,287.967 133.112,295.409 133.114 C 296.994 133.115,299.253 133.209,300.428 133.324 C 301.603 133.440,303.691 133.641,305.068 133.773 C 310.465 134.288,315.323 135.325,320.825 137.135 C 326.390 138.967,328.486 139.856,336.934 143.971 C 339.755 145.345,344.370 147.495,347.190 148.749 C 350.011 150.003,352.515 151.118,352.755 151.228 C 353.479 151.557,354.873 152.119,356.028 152.548 C 359.539 153.850,360.358 154.139,362.139 154.708 C 369.687 157.118,374.972 157.991,382.011 157.992 C 392.464 157.993,395.707 161.567,393.397 170.540 C 391.779 176.828,391.475 178.251,391.042 181.560 C 390.619 184.794,390.590 185.639,390.755 189.853 C 390.988 195.838,390.956 197.137,390.513 199.665 C 390.166 201.642,390.167 201.743,390.547 202.024 C 390.960 202.330,390.516 202.934,389.866 202.952 C 389.738 202.956,389.213 203.723,388.698 204.657 C 387.489 206.848,385.540 208.996,383.712 210.151 C 377.069 214.346,372.108 212.786,377.794 208.290 C 381.443 205.405,381.595 204.141,378.440 202.943 C 377.084 202.428,377.085 202.223,378.443 201.659 C 382.160 200.118,382.238 200.603,376.300 188.359 C 373.496 182.576,371.666 179.333,370.214 177.573 C 367.336 174.085,360.652 170.923,350.938 168.454 C 346.644 167.362,341.100 166.198,334.534 165.008 C 329.129 164.029,325.849 163.419,324.386 163.121 C 323.546 162.950,322.220 162.706,321.440 162.579 C 320.660 162.451,319.384 162.205,318.603 162.032 C 317.354 161.754,315.636 161.409,307.147 159.730 C 306.067 159.517,303.464 158.990,301.364 158.559 C 292.120 156.665,292.000 156.651,284.015 156.563 C 275.238 156.466,272.872 156.111,266.121 153.880 C 261.673 152.410,257.703 151.663,252.046 151.232 C 250.306 151.100,248.342 150.900,247.681 150.789 C 247.021 150.677,245.597 150.480,244.517 150.350 C 238.662 149.647,226.825 147.064,220.513 145.112 C 219.793 144.889,218.320 144.441,217.239 144.116 C 212.144 142.584,203.965 139.680,201.276 138.449 C 200.898 138.276,200.529 138.134,200.456 138.134 C 200.382 138.134,199.906 137.945,199.398 137.715 C 198.889 137.484,197.736 136.985,196.836 136.607 C 194.467 135.611,193.429 135.156,190.726 133.928 C 190.065 133.628,189.034 133.164,188.434 132.896 C 187.834 132.628,186.705 132.112,185.925 131.748 C 178.399 128.244,174.779 127.075,163.121 124.384 C 157.897 123.179,152.907 121.970,151.882 121.662 C 151.342 121.499,149.918 121.102,148.718 120.778 C 146.052 120.060,143.125 119.214,141.953 118.822 C 140.877 118.463,135.045 116.661,133.115 116.092 C 131.288 115.553,128.427 114.846,127.411 114.683 C 126.654 114.562,126.610 114.507,126.474 113.524 C 125.153 103.985,121.911 91.284,117.687 79.105 C 116.424 75.462,115.467 74.512,113.538 74.987 C 111.263 75.548,110.692 77.167,111.738 80.089 C 112.767 82.962,114.615 88.719,115.975 93.290 C 116.297 94.370,116.693 95.696,116.855 96.236 C 117.316 97.767,118.930 104.662,119.281 106.601 C 119.983 110.470,120.946 116.097,121.224 117.949 C 121.621 120.597,122.527 125.558,123.076 128.096 C 124.766 135.901,125.160 141.739,124.622 151.009 C 124.487 153.350,124.231 157.769,124.054 160.829 C 123.877 163.890,123.686 166.639,123.628 166.939 C 123.571 167.239,123.370 169.498,123.181 171.959 C 122.993 174.419,122.752 177.021,122.646 177.741 C 122.541 178.462,122.394 179.787,122.320 180.687 C 122.245 181.588,121.995 184.141,121.763 186.361 C 121.531 188.582,121.140 192.559,120.895 195.199 C 120.004 204.768,119.887 205.433,118.686 207.756 C 117.522 210.007,114.714 212.030,112.048 212.537 C 109.402 213.041,75.407 212.747,75.340 212.220 C 75.247 211.492,75.560 211.260,77.813 210.389 C 79.004 209.929,81.500 208.941,83.361 208.194 C 89.426 205.759,89.971 205.558,91.640 205.134 C 93.710 204.609,94.562 204.512,99.291 204.263 C 107.543 203.827,110.535 202.233,111.481 197.769 C 111.763 196.439,111.459 182.129,111.077 178.720 C 110.685 175.229,110.004 170.474,109.435 167.267 C 108.160 160.078,107.958 155.846,108.240 142.280 C 108.366 136.217,108.352 136.151,105.685 130.933 C 102.697 125.087,101.462 122.165,99.736 116.858 C 99.080 114.839,97.487 108.944,97.231 107.583 C 95.683 99.375,94.331 96.318,90.300 91.906 C 82.747 83.639,80.365 73.432,84.150 65.547 C 85.872 61.961,85.129 59.793,82.179 59.793 C 80.428 59.793,79.171 61.470,77.679 65.794 C 74.406 75.283,77.651 86.890,86.189 96.236 C 88.499 98.764,89.702 100.890,90.050 103.055 C 90.226 104.152,90.126 104.124,87.422 102.322 C 79.777 97.226,74.228 89.733,69.019 77.469 C 65.634 69.501,64.342 67.668,60.197 64.964 C 50.651 58.735,49.392 58.673,43.752 64.159 C 39.392 68.399,38.237 68.895,35.302 67.786 C 26.485 64.456,11.123 48.001,7.546 38.055 C 1.210 20.438,16.075 2.380,34.915 4.807 " stroke="none" fill="#060606" fill-rule="evenodd"></path><path id="path1" d="M0.027 12.821 C 0.042 20.388,0.126 25.146,0.231 24.433 C 1.320 17.039,6.209 9.476,13.044 4.612 C 15.692 2.728,17.846 1.588,21.167 0.312 C 21.824 0.060,20.387 0.018,10.966 0.010 L 0.000 0.000 0.027 12.821 M43.167 0.755 C 47.355 2.480,50.403 4.561,54.033 8.173 C 60.461 14.568,63.548 21.068,65.672 32.677 C 66.106 35.044,66.547 35.706,68.873 37.482 C 71.749 39.678,75.355 41.167,77.226 40.932 C 94.522 38.758,108.815 41.415,120.567 48.987 C 126.072 52.534,129.612 55.025,135.297 59.352 C 144.318 66.216,153.103 71.607,158.865 73.814 C 166.057 76.568,170.222 76.969,181.735 76.015 C 193.353 75.053,203.987 78.162,212.984 85.153 C 215.916 87.431,220.554 92.050,222.474 94.606 C 224.483 97.280,227.074 99.727,227.895 99.727 C 227.948 99.727,229.329 100.366,230.963 101.146 C 232.597 101.926,233.984 102.564,234.045 102.564 C 234.106 102.564,234.573 102.754,235.081 102.986 C 235.590 103.218,237.725 104.162,239.825 105.085 C 244.594 107.179,255.447 112.496,258.890 114.425 C 260.314 115.223,261.516 115.876,261.561 115.876 C 261.606 115.876,262.601 116.408,263.773 117.059 C 278.147 125.045,284.213 126.990,294.817 127.010 C 302.374 127.025,311.868 128.102,316.967 129.523 C 322.350 131.024,323.449 131.375,327.114 132.762 C 331.305 134.348,333.472 135.325,340.971 139.006 C 350.013 143.444,355.659 145.899,361.702 148.018 C 370.134 150.974,375.228 151.867,383.681 151.870 C 392.958 151.874,398.740 155.702,399.852 162.575 C 399.901 162.875,399.954 126.418,399.970 81.560 L 400.000 0.000 220.676 0.004 L 41.353 0.008 43.167 0.755 M27.059 5.220 C 11.210 8.386,2.383 23.990,8.077 38.778 C 12.241 49.590,30.650 67.902,37.410 67.956 C 39.252 67.970,40.336 67.284,43.426 64.148 C 48.932 58.560,50.270 58.498,58.265 63.461 C 64.523 67.345,65.479 68.553,69.177 77.250 C 74.415 89.571,79.789 96.857,87.496 102.091 C 90.134 103.882,89.968 103.863,89.608 102.337 C 89.199 100.608,88.342 99.073,86.796 97.298 C 84.610 94.791,83.301 93.123,82.171 91.405 C 81.590 90.521,80.928 89.526,80.701 89.194 C 78.633 86.176,76.783 80.724,76.333 76.325 C 75.362 66.819,79.949 56.942,83.948 59.928 C 85.753 61.276,85.908 62.491,84.612 65.139 C 80.510 73.519,82.695 83.029,90.803 92.089 C 94.731 96.479,95.554 98.393,97.545 107.760 C 97.783 108.878,98.132 110.351,98.322 111.034 C 100.758 119.792,101.718 122.349,105.312 129.636 C 108.783 136.675,109.176 138.630,108.465 145.336 C 107.824 151.386,108.362 159.793,109.986 169.122 C 111.324 176.801,111.699 181.330,111.777 190.726 L 111.839 198.254 111.184 199.541 C 109.330 203.184,106.590 204.197,97.252 204.692 C 92.920 204.922,91.675 205.192,87.507 206.805 C 86.127 207.340,84.359 208.019,83.579 208.315 C 82.799 208.611,81.996 208.944,81.794 209.055 C 81.593 209.167,80.513 209.607,79.394 210.034 C 76.164 211.265,75.465 211.634,75.547 212.061 C 75.656 212.628,110.439 212.764,112.493 212.206 C 116.573 211.097,119.190 207.946,119.787 203.424 C 120.252 199.905,120.457 197.930,120.686 194.763 C 120.816 192.962,121.010 190.900,121.117 190.180 C 121.223 189.460,121.466 187.103,121.656 184.943 C 121.846 182.782,122.044 180.867,122.095 180.687 C 122.146 180.507,122.340 178.543,122.524 176.323 C 122.709 174.103,122.958 171.451,123.077 170.431 C 123.197 169.411,123.445 166.268,123.629 163.448 C 123.813 160.627,124.052 157.041,124.160 155.478 C 124.269 153.914,124.424 149.741,124.506 146.203 C 124.703 137.647,124.592 136.553,122.530 126.678 C 122.229 125.237,121.844 123.175,121.674 122.095 C 120.589 115.205,118.903 105.682,118.389 103.546 C 116.642 96.281,116.554 95.944,115.556 92.744 C 115.387 92.204,114.988 90.878,114.670 89.798 C 114.351 88.718,113.358 85.648,112.464 82.976 C 110.500 77.107,110.545 76.136,112.836 74.951 C 115.384 73.633,116.538 74.855,118.611 81.067 C 121.367 89.325,123.131 95.375,124.052 99.727 C 124.217 100.507,124.608 102.324,124.920 103.764 C 125.434 106.134,125.824 108.217,126.592 112.711 C 126.736 113.552,126.870 114.262,126.889 114.290 C 126.909 114.318,127.704 114.499,128.656 114.693 C 130.533 115.074,133.780 115.992,138.243 117.404 C 142.623 118.789,146.433 119.909,150.464 120.996 C 151.664 121.320,153.284 121.763,154.064 121.982 C 154.845 122.201,156.612 122.635,157.992 122.948 C 159.373 123.261,161.386 123.720,162.466 123.970 C 163.546 124.219,165.265 124.614,166.285 124.848 C 174.402 126.708,179.228 128.370,187.125 132.023 C 189.483 133.114,190.552 133.592,194.435 135.288 C 196.416 136.153,198.331 136.991,198.691 137.150 C 200.090 137.766,201.134 138.193,202.182 138.576 C 202.782 138.796,203.813 139.186,204.474 139.444 C 209.592 141.441,213.885 142.879,221.495 145.146 C 224.642 146.084,233.796 148.288,236.225 148.693 C 236.585 148.753,237.960 149.001,239.280 149.245 C 243.189 149.965,247.332 150.538,251.260 150.899 C 258.371 151.554,261.179 152.065,266.012 153.585 C 273.859 156.052,273.870 156.054,283.361 156.251 C 292.659 156.445,293.231 156.519,305.837 159.191 C 307.278 159.496,310.175 160.085,312.275 160.498 C 314.375 160.912,316.781 161.396,317.621 161.574 C 318.462 161.751,320.524 162.153,322.204 162.467 C 323.884 162.780,326.241 163.224,327.441 163.453 C 328.642 163.682,330.753 164.073,332.133 164.322 C 337.442 165.279,340.611 165.879,342.608 166.304 C 346.724 167.181,349.719 167.863,350.682 168.143 C 351.222 168.300,351.959 168.490,352.319 168.565 C 355.196 169.167,360.652 171.140,363.798 172.716 C 369.467 175.557,371.056 177.329,375.002 185.203 C 381.120 197.413,381.947 199.686,381.441 202.890 C 381.004 205.653,380.624 206.282,378.221 208.218 C 373.803 211.778,375.400 213.828,380.758 211.474 C 388.283 208.168,390.810 203.115,390.535 191.926 C 390.321 183.216,390.751 179.494,392.916 171.304 C 395.429 161.792,392.547 158.215,382.364 158.208 C 375.777 158.204,371.015 157.562,365.194 155.894 C 361.687 154.889,357.042 153.283,355.123 152.412 C 354.744 152.241,354.366 152.100,354.283 152.100 C 354.199 152.100,353.821 151.961,353.443 151.791 C 353.064 151.621,351.577 150.970,350.136 150.346 C 344.844 148.050,344.383 147.837,338.025 144.736 C 335.205 143.360,332.013 141.839,330.933 141.356 C 329.853 140.872,328.871 140.404,328.751 140.314 C 328.631 140.225,328.287 140.080,327.987 139.992 C 327.687 139.903,327.147 139.702,326.787 139.544 C 318.005 135.683,307.973 133.760,294.381 133.332 C 281.395 132.923,275.962 131.241,261.429 123.133 C 260.183 122.438,257.729 121.108,255.210 119.764 C 249.052 116.477,234.525 109.615,228.921 107.344 C 227.250 106.668,223.958 104.892,222.669 103.972 C 221.322 103.011,220.311 101.961,217.004 98.091 C 206.100 85.327,196.532 81.352,179.705 82.595 C 163.065 83.825,153.450 80.531,135.448 67.430 C 133.551 66.050,131.526 64.577,130.949 64.157 C 130.371 63.737,128.977 62.699,127.852 61.850 C 117.326 53.916,111.688 50.760,103.750 48.360 C 98.864 46.883,90.672 46.320,82.597 46.907 C 74.607 47.488,74.099 47.457,71.249 46.213 C 64.279 43.170,60.294 39.156,59.494 34.369 C 58.258 26.981,56.512 21.981,53.661 17.660 C 47.380 8.145,36.917 3.252,27.059 5.220 M0.027 125.750 L 0.000 218.221 36.388 218.215 C 62.966 218.210,72.659 218.144,72.340 217.968 C 67.930 215.544,67.967 208.596,72.402 206.108 C 72.968 205.790,74.315 205.189,75.396 204.773 C 76.476 204.357,78.162 203.677,79.143 203.263 C 80.124 202.849,80.993 202.510,81.074 202.510 C 81.155 202.510,81.531 202.369,81.909 202.197 C 82.287 202.026,83.259 201.631,84.068 201.321 C 84.878 201.011,86.154 200.516,86.905 200.222 C 90.504 198.814,92.010 198.526,97.763 198.149 C 103.957 197.744,105.366 197.494,105.425 196.792 C 105.942 190.588,104.947 176.960,103.333 168.140 C 101.993 160.817,101.491 153.709,101.894 147.787 C 102.564 137.946,102.701 138.838,99.567 132.570 C 96.124 125.684,94.471 121.377,92.159 113.275 C 91.823 112.096,91.663 111.842,91.150 111.671 C 87.957 110.607,80.500 105.375,77.032 101.765 C 75.201 99.859,74.949 99.575,73.194 97.434 C 70.002 93.540,66.097 86.608,63.247 79.777 C 60.074 72.169,59.330 71.303,52.868 67.685 C 50.265 66.228,50.522 66.163,47.590 69.024 C 39.023 77.386,32.534 76.184,19.203 63.767 C 8.158 53.478,1.543 43.266,0.232 34.479 C 0.134 33.819,0.041 74.891,0.027 125.750 M127.962 121.486 C 128.028 121.701,128.286 123.055,128.535 124.495 C 128.784 125.936,129.086 127.409,129.206 127.769 C 131.055 133.336,131.411 145.930,130.166 161.702 C 129.271 173.043,128.260 183.918,127.336 192.144 C 127.161 193.704,126.913 196.503,126.785 198.363 C 126.003 209.734,122.823 215.446,115.898 217.921 C 115.255 218.151,138.709 218.204,244.517 218.212 L 373.923 218.221 372.969 217.749 C 367.505 215.045,367.877 208.238,373.744 203.569 C 376.045 201.738,376.166 202.168,369.602 188.762 C 366.180 181.772,365.107 180.451,361.375 178.637 C 356.014 176.031,353.532 175.296,340.316 172.403 C 338.412 171.986,334.909 171.326,329.733 170.409 C 328.352 170.164,326.585 169.827,325.805 169.659 C 325.025 169.491,323.502 169.204,322.422 169.021 C 320.235 168.650,317.953 168.206,315.657 167.703 C 314.817 167.519,311.135 166.770,307.474 166.038 C 290.112 162.565,291.466 162.750,283.033 162.690 C 279.133 162.662,275.450 162.569,274.850 162.483 C 272.022 162.077,268.282 161.123,263.939 159.698 C 260.805 158.669,258.017 158.052,255.319 157.789 C 253.939 157.655,251.975 157.450,250.955 157.335 C 249.935 157.219,248.069 157.022,246.809 156.897 C 245.548 156.772,243.781 156.532,242.881 156.364 C 241.980 156.196,240.753 155.998,240.153 155.923 C 237.018 155.536,225.119 152.901,220.731 151.623 C 214.123 149.698,212.263 149.100,205.167 146.626 C 203.186 145.934,194.656 142.486,192.696 141.584 C 189.684 140.197,189.603 140.160,187.780 139.375 C 186.819 138.961,185.297 138.279,184.397 137.858 C 179.717 135.673,175.398 133.937,172.831 133.209 C 169.737 132.331,166.887 131.595,165.739 131.376 C 165.019 131.239,164.184 131.043,163.884 130.942 C 163.584 130.840,162.160 130.491,160.720 130.166 C 154.163 128.687,151.950 128.122,145.663 126.324 C 142.260 125.351,135.687 123.344,133.168 122.510 C 132.297 122.222,131.441 121.986,131.266 121.986 C 131.091 121.986,130.527 121.849,130.013 121.682 C 128.177 121.087,127.830 121.054,127.962 121.486 M399.781 169.940 C 399.780 170.150,399.427 171.697,398.996 173.377 C 397.021 181.076,396.639 184.578,396.959 192.069 C 397.535 205.558,392.520 214.085,381.669 218.067 C 381.489 218.133,385.540 218.195,390.671 218.204 L 400.000 218.221 400.000 193.890 C 400.000 180.507,399.951 169.558,399.891 169.558 C 399.831 169.558,399.781 169.730,399.781 169.940 " stroke="none" fill="#fbfbfb" fill-rule="evenodd"></path><path id="path2" d="M30.715 4.741 C 31.105 4.789,31.743 4.789,32.133 4.741 C 32.523 4.692,32.204 4.652,31.424 4.652 C 30.644 4.652,30.325 4.692,30.715 4.741 M51.937 6.178 C 51.937 6.216,52.256 6.535,52.646 6.888 L 53.355 7.529 52.714 6.819 C 52.117 6.158,51.937 6.010,51.937 6.178 M8.499 8.456 L 7.747 9.274 8.565 8.522 C 9.015 8.109,9.384 7.741,9.384 7.704 C 9.384 7.537,9.199 7.694,8.499 8.456 M55.319 9.602 C 55.788 10.082,56.221 10.475,56.281 10.475 C 56.341 10.475,56.006 10.082,55.537 9.602 C 55.069 9.122,54.636 8.729,54.576 8.729 C 54.516 8.729,54.850 9.122,55.319 9.602 M14.498 11.402 L 13.857 12.111 14.566 11.470 C 14.956 11.118,15.276 10.799,15.276 10.761 C 15.276 10.593,15.095 10.741,14.498 11.402 M61.472 18.873 C 61.672 19.292,61.874 19.596,61.921 19.548 C 62.021 19.449,61.358 18.112,61.209 18.112 C 61.154 18.112,61.272 18.455,61.472 18.873 M6.890 23.038 C 6.809 23.358,6.786 23.662,6.837 23.713 C 6.889 23.764,6.996 23.545,7.077 23.225 C 7.157 22.905,7.180 22.601,7.129 22.550 C 7.078 22.499,6.970 22.718,6.890 23.038 M6.192 29.351 C 6.192 30.671,6.228 31.183,6.272 30.488 C 6.315 29.794,6.315 28.714,6.271 28.088 C 6.227 27.462,6.191 28.031,6.192 29.351 M84.400 40.525 C 84.671 40.578,85.064 40.576,85.273 40.521 C 85.481 40.466,85.259 40.424,84.779 40.426 C 84.299 40.428,84.128 40.473,84.400 40.525 M80.472 40.744 C 80.743 40.796,81.136 40.794,81.345 40.739 C 81.553 40.685,81.331 40.642,80.851 40.644 C 80.371 40.647,80.200 40.691,80.472 40.744 M77.632 40.961 C 77.902 41.013,78.344 41.013,78.614 40.961 C 78.884 40.909,78.663 40.867,78.123 40.867 C 77.583 40.867,77.362 40.909,77.632 40.961 M88.227 46.644 C 89.283 46.684,90.952 46.684,91.937 46.643 C 92.921 46.603,92.057 46.570,90.016 46.570 C 87.976 46.571,87.171 46.604,88.227 46.644 M82.651 46.853 C 82.921 46.905,83.363 46.905,83.633 46.853 C 83.903 46.801,83.682 46.759,83.142 46.759 C 82.602 46.759,82.381 46.801,82.651 46.853 M77.305 47.286 C 77.515 47.341,77.859 47.341,78.069 47.286 C 78.279 47.231,78.107 47.186,77.687 47.186 C 77.267 47.186,77.095 47.231,77.305 47.286 M17.239 52.878 C 17.239 52.915,17.559 53.235,17.949 53.587 L 18.658 54.228 18.017 53.519 C 17.420 52.858,17.239 52.709,17.239 52.878 M20.731 56.628 C 21.746 57.649,22.625 58.483,22.685 58.483 C 22.745 58.483,21.964 57.649,20.949 56.628 C 19.934 55.608,19.055 54.774,18.995 54.774 C 18.935 54.774,19.716 55.608,20.731 56.628 M14.075 58.702 C 14.544 59.182,14.977 59.574,15.037 59.574 C 15.097 59.574,14.762 59.182,14.294 58.702 C 13.825 58.221,13.392 57.829,13.332 57.829 C 13.272 57.829,13.606 58.221,14.075 58.702 M24.441 60.120 C 24.848 60.540,25.230 60.884,25.290 60.884 C 25.350 60.884,25.066 60.540,24.659 60.120 C 24.252 59.700,23.870 59.356,23.810 59.356 C 23.750 59.356,24.034 59.700,24.441 60.120 M49.591 59.943 C 49.801 59.998,50.145 59.998,50.355 59.943 C 50.565 59.888,50.393 59.843,49.973 59.843 C 49.553 59.843,49.381 59.888,49.591 59.943 M53.246 60.775 C 53.546 60.946,53.890 61.087,54.010 61.087 C 54.130 61.087,53.983 60.946,53.682 60.775 C 53.382 60.603,53.039 60.463,52.919 60.463 C 52.799 60.463,52.946 60.603,53.246 60.775 M44.728 62.793 L 43.535 64.048 44.790 62.855 C 45.956 61.747,46.145 61.538,45.983 61.538 C 45.949 61.538,45.384 62.103,44.728 62.793 M85.375 62.630 C 85.375 63.050,85.420 63.221,85.475 63.011 C 85.530 62.801,85.530 62.458,85.475 62.248 C 85.420 62.038,85.375 62.209,85.375 62.630 M19.194 63.775 C 19.729 64.345,20.196 64.812,20.231 64.812 C 20.395 64.812,20.222 64.616,19.258 63.712 L 18.221 62.739 19.194 63.775 M47.568 68.903 L 45.281 71.249 47.627 68.962 C 48.917 67.704,49.973 66.648,49.973 66.616 C 49.973 66.458,49.693 66.725,47.568 68.903 M83.049 68.428 C 82.969 68.748,82.945 69.052,82.996 69.103 C 83.048 69.154,83.156 68.935,83.236 68.615 C 83.316 68.295,83.340 67.992,83.288 67.940 C 83.237 67.889,83.129 68.108,83.049 68.428 M113.064 74.830 C 112.879 74.947,113.176 74.977,113.828 74.907 C 114.414 74.843,114.935 74.756,114.985 74.712 C 115.182 74.538,113.347 74.651,113.064 74.830 M161.375 74.850 C 161.615 74.953,161.959 75.038,162.139 75.038 C 162.345 75.038,162.305 74.968,162.029 74.850 C 161.789 74.747,161.446 74.662,161.266 74.662 C 161.059 74.662,161.100 74.732,161.375 74.850 M61.336 75.396 C 61.336 75.516,61.476 75.859,61.648 76.159 C 61.819 76.459,61.959 76.607,61.959 76.487 C 61.959 76.367,61.819 76.023,61.648 75.723 C 61.476 75.423,61.336 75.276,61.336 75.396 M185.005 75.884 C 185.639 75.928,186.621 75.928,187.187 75.883 C 187.753 75.838,187.234 75.802,186.034 75.803 C 184.834 75.803,184.370 75.840,185.005 75.884 M181.506 76.095 C 181.776 76.147,182.218 76.147,182.488 76.095 C 182.758 76.043,182.537 76.001,181.997 76.001 C 181.457 76.001,181.236 76.043,181.506 76.095 M189.253 76.092 C 189.463 76.146,189.806 76.146,190.016 76.092 C 190.226 76.037,190.055 75.992,189.634 75.992 C 189.214 75.992,189.043 76.037,189.253 76.092 M169.831 76.528 C 170.041 76.583,170.385 76.583,170.595 76.528 C 170.805 76.473,170.633 76.428,170.213 76.428 C 169.793 76.428,169.621 76.473,169.831 76.528 M176.053 76.532 C 176.324 76.584,176.717 76.582,176.926 76.527 C 177.134 76.473,176.912 76.430,176.432 76.433 C 175.952 76.435,175.781 76.480,176.053 76.532 M184.896 82.213 C 185.591 82.256,186.671 82.256,187.297 82.212 C 187.922 82.168,187.354 82.132,186.034 82.133 C 184.714 82.133,184.202 82.169,184.896 82.213 M181.400 82.426 C 181.731 82.476,182.222 82.475,182.491 82.423 C 182.759 82.371,182.488 82.330,181.888 82.332 C 181.288 82.334,181.068 82.376,181.400 82.426 M189.689 82.420 C 189.899 82.475,190.243 82.475,190.453 82.420 C 190.663 82.365,190.491 82.320,190.071 82.320 C 189.651 82.320,189.479 82.365,189.689 82.420 M169.943 82.860 C 170.214 82.912,170.607 82.911,170.815 82.856 C 171.024 82.801,170.802 82.759,170.322 82.761 C 169.842 82.763,169.671 82.808,169.943 82.860 M175.398 82.860 C 175.670 82.912,176.062 82.911,176.271 82.856 C 176.480 82.801,176.258 82.759,175.777 82.761 C 175.297 82.763,175.127 82.808,175.398 82.860 M216.685 88.434 C 217.220 89.004,217.686 89.471,217.721 89.471 C 217.885 89.471,217.712 89.275,216.748 88.371 L 215.712 87.398 216.685 88.434 M218.985 90.780 C 219.576 91.380,220.109 91.871,220.169 91.871 C 220.229 91.871,219.795 91.380,219.203 90.780 C 218.612 90.180,218.080 89.689,218.020 89.689 C 217.960 89.689,218.394 90.180,218.985 90.780 M90.235 91.653 C 90.703 92.133,91.136 92.526,91.196 92.526 C 91.256 92.526,90.922 92.133,90.453 91.653 C 89.984 91.173,89.551 90.780,89.491 90.780 C 89.431 90.780,89.766 91.173,90.235 91.653 M214.403 95.145 C 214.871 95.625,215.304 96.017,215.364 96.017 C 215.424 96.017,215.090 95.625,214.621 95.145 C 214.152 94.664,213.719 94.272,213.659 94.272 C 213.599 94.272,213.934 94.664,214.403 95.145 M79.651 95.431 C 79.651 95.469,79.970 95.788,80.360 96.140 L 81.069 96.781 80.428 96.072 C 79.831 95.411,79.651 95.262,79.651 95.431 M85.106 95.431 C 85.106 95.469,85.426 95.788,85.816 96.140 L 86.525 96.781 85.884 96.072 C 85.286 95.411,85.106 95.262,85.106 95.431 M82.051 97.832 C 82.051 97.869,82.370 98.188,82.761 98.541 L 83.470 99.182 82.829 98.472 C 82.231 97.811,82.051 97.663,82.051 97.832 M78.123 102.891 C 78.897 103.672,79.578 104.310,79.638 104.310 C 79.698 104.310,79.115 103.672,78.342 102.891 C 77.568 102.111,76.887 101.473,76.827 101.473 C 76.767 101.473,77.350 102.111,78.123 102.891 M241.353 105.947 C 241.653 106.118,241.997 106.258,242.117 106.258 C 242.237 106.258,242.089 106.118,241.789 105.947 C 241.489 105.775,241.146 105.635,241.026 105.635 C 240.906 105.635,241.053 105.775,241.353 105.947 M243.317 106.819 C 243.617 106.991,243.961 107.131,244.081 107.131 C 244.201 107.131,244.053 106.991,243.753 106.819 C 243.453 106.648,243.110 106.508,242.990 106.508 C 242.870 106.508,243.017 106.648,243.317 106.819 M288.107 126.719 C 288.317 126.774,288.661 126.774,288.871 126.719 C 289.081 126.664,288.909 126.619,288.489 126.619 C 288.069 126.619,287.897 126.664,288.107 126.719 M296.940 127.162 C 297.327 127.211,298.015 127.211,298.468 127.164 C 298.920 127.117,298.603 127.077,297.763 127.077 C 296.923 127.076,296.553 127.114,296.940 127.162 M301.964 127.377 C 302.234 127.429,302.676 127.429,302.946 127.377 C 303.216 127.325,302.995 127.283,302.455 127.283 C 301.915 127.283,301.694 127.325,301.964 127.377 M97.124 127.550 C 97.124 127.670,97.264 128.014,97.436 128.314 C 97.607 128.614,97.748 128.762,97.748 128.642 C 97.748 128.522,97.607 128.178,97.436 127.878 C 97.264 127.578,97.124 127.430,97.124 127.550 M304.364 127.595 C 304.634 127.647,305.076 127.647,305.346 127.595 C 305.616 127.543,305.396 127.501,304.855 127.501 C 304.315 127.501,304.094 127.543,304.364 127.595 M287.782 133.051 C 288.054 133.103,288.446 133.101,288.655 133.047 C 288.864 132.992,288.642 132.950,288.161 132.952 C 287.681 132.954,287.511 132.999,287.782 133.051 M290.289 133.271 C 290.619 133.321,291.159 133.321,291.489 133.271 C 291.819 133.221,291.549 133.181,290.889 133.181 C 290.229 133.181,289.959 133.221,290.289 133.271 M298.693 133.488 C 298.965 133.540,299.357 133.538,299.566 133.483 C 299.775 133.429,299.553 133.386,299.073 133.388 C 298.592 133.391,298.422 133.435,298.693 133.488 M304.149 133.924 C 304.420 133.976,304.813 133.974,305.022 133.920 C 305.230 133.865,305.008 133.822,304.528 133.825 C 304.048 133.827,303.877 133.872,304.149 133.924 M332.133 134.970 C 332.433 135.142,332.777 135.282,332.897 135.282 C 333.017 135.282,332.870 135.142,332.570 134.970 C 332.270 134.798,331.926 134.658,331.806 134.658 C 331.686 134.658,331.833 134.798,332.133 134.970 M124.437 137.698 C 124.437 138.118,124.482 138.290,124.537 138.080 C 124.592 137.870,124.592 137.526,124.537 137.316 C 124.482 137.106,124.437 137.278,124.437 137.698 M102.043 138.025 C 102.222 138.827,102.347 139.002,102.343 138.443 C 102.341 138.213,102.240 137.878,102.118 137.698 C 101.956 137.459,101.936 137.547,102.043 138.025 M337.825 137.561 C 338.050 137.762,339.334 138.352,339.334 138.255 C 339.334 138.129,338.125 137.480,337.890 137.480 C 337.804 137.480,337.775 137.516,337.825 137.561 M108.507 138.352 C 108.507 138.773,108.552 138.944,108.607 138.734 C 108.661 138.524,108.661 138.181,108.607 137.971 C 108.552 137.761,108.507 137.932,108.507 138.352 M130.770 138.898 C 130.772 139.378,130.817 139.549,130.869 139.277 C 130.921 139.006,130.919 138.613,130.865 138.404 C 130.810 138.196,130.767 138.418,130.770 138.898 M186.143 138.680 C 186.443 138.851,186.787 138.992,186.907 138.992 C 187.027 138.992,186.879 138.851,186.579 138.680 C 186.279 138.508,185.936 138.368,185.816 138.368 C 185.696 138.368,185.843 138.508,186.143 138.680 M102.419 140.753 C 102.419 141.653,102.458 142.021,102.505 141.571 C 102.552 141.121,102.552 140.385,102.505 139.935 C 102.458 139.484,102.419 139.853,102.419 140.753 M188.107 139.553 C 188.407 139.724,188.751 139.865,188.871 139.865 C 188.991 139.865,188.843 139.724,188.543 139.553 C 188.243 139.381,187.900 139.241,187.780 139.241 C 187.660 139.241,187.807 139.381,188.107 139.553 M124.685 141.844 C 124.685 143.104,124.721 143.620,124.765 142.990 C 124.809 142.360,124.809 141.328,124.765 140.698 C 124.721 140.068,124.685 140.584,124.685 141.844 M108.521 143.153 C 108.521 143.813,108.562 144.083,108.612 143.753 C 108.662 143.423,108.662 142.883,108.612 142.553 C 108.562 142.223,108.521 142.493,108.521 143.153 M194.435 142.390 C 194.735 142.561,195.079 142.701,195.199 142.701 C 195.319 142.701,195.172 142.561,194.872 142.390 C 194.572 142.218,194.228 142.078,194.108 142.078 C 193.988 142.078,194.135 142.218,194.435 142.390 M102.187 143.808 C 102.187 144.348,102.230 144.569,102.282 144.299 C 102.334 144.029,102.334 143.587,102.282 143.317 C 102.230 143.047,102.187 143.268,102.187 143.808 M336.498 143.906 C 336.498 143.966,336.792 144.167,337.152 144.354 C 337.512 144.540,337.807 144.643,337.807 144.583 C 337.807 144.523,337.512 144.321,337.152 144.135 C 336.792 143.949,336.498 143.846,336.498 143.906 M108.293 145.881 C 108.295 146.361,108.340 146.532,108.392 146.260 C 108.444 145.989,108.442 145.596,108.388 145.388 C 108.333 145.179,108.290 145.401,108.293 145.881 M130.788 146.863 C 130.788 147.763,130.827 148.131,130.874 147.681 C 130.921 147.231,130.921 146.495,130.874 146.045 C 130.827 145.595,130.788 145.963,130.788 146.863 M101.960 146.208 C 101.960 146.628,102.005 146.800,102.060 146.590 C 102.115 146.380,102.115 146.037,102.060 145.827 C 102.005 145.616,101.960 145.788,101.960 146.208 M124.456 148.609 C 124.456 149.389,124.496 149.708,124.544 149.318 C 124.593 148.928,124.593 148.290,124.544 147.900 C 124.496 147.510,124.456 147.829,124.456 148.609 M101.777 151.882 C 101.777 153.502,101.811 154.165,101.853 153.355 C 101.895 152.545,101.895 151.219,101.853 150.409 C 101.811 149.599,101.777 150.262,101.777 151.882 M108.098 152.100 C 108.098 153.241,108.135 153.707,108.180 153.137 C 108.225 152.567,108.225 151.634,108.180 151.064 C 108.135 150.494,108.098 150.960,108.098 152.100 M250.355 150.941 C 250.565 150.996,250.908 150.996,251.118 150.941 C 251.328 150.887,251.157 150.842,250.736 150.842 C 250.316 150.842,250.145 150.887,250.355 150.941 M252.428 151.163 C 252.698 151.215,253.140 151.215,253.410 151.163 C 253.680 151.111,253.459 151.069,252.919 151.069 C 252.379 151.069,252.158 151.111,252.428 151.163 M377.908 151.818 C 378.179 151.870,378.572 151.868,378.781 151.814 C 378.989 151.759,378.767 151.717,378.287 151.719 C 377.807 151.721,377.636 151.766,377.908 151.818 M386.418 152.036 C 386.690 152.089,387.083 152.087,387.291 152.032 C 387.500 151.977,387.278 151.935,386.798 151.937 C 386.318 151.940,386.147 151.984,386.418 152.036 M130.562 153.410 C 130.562 154.070,130.603 154.340,130.653 154.010 C 130.703 153.680,130.703 153.140,130.653 152.810 C 130.603 152.480,130.562 152.750,130.562 153.410 M124.219 154.283 C 124.219 154.703,124.264 154.875,124.318 154.664 C 124.373 154.454,124.373 154.111,124.318 153.901 C 124.264 153.691,124.219 153.863,124.219 154.283 M278.828 156.404 C 279.215 156.452,279.902 156.453,280.355 156.406 C 280.808 156.359,280.491 156.319,279.651 156.318 C 278.811 156.317,278.440 156.356,278.828 156.404 M288.543 156.397 C 288.753 156.452,289.097 156.452,289.307 156.397 C 289.517 156.342,289.345 156.297,288.925 156.297 C 288.505 156.297,288.333 156.342,288.543 156.397 M130.346 157.883 C 130.347 158.603,130.388 158.872,130.436 158.479 C 130.485 158.087,130.484 157.498,130.434 157.170 C 130.384 156.842,130.345 157.163,130.346 157.883 M101.964 158.101 C 101.967 158.582,102.012 158.752,102.064 158.481 C 102.116 158.209,102.114 157.817,102.059 157.608 C 102.005 157.399,101.962 157.621,101.964 158.101 M124.009 158.211 C 124.009 158.751,124.052 158.972,124.104 158.702 C 124.156 158.432,124.156 157.990,124.104 157.720 C 124.052 157.450,124.009 157.670,124.009 158.211 M252.100 157.494 C 252.430 157.544,252.971 157.544,253.301 157.494 C 253.631 157.444,253.361 157.403,252.700 157.403 C 252.040 157.403,251.770 157.444,252.100 157.494 M379.771 158.155 C 380.948 158.194,382.814 158.194,383.917 158.155 C 385.021 158.115,384.059 158.083,381.779 158.083 C 379.498 158.084,378.595 158.116,379.771 158.155 M108.511 159.847 C 108.514 160.327,108.558 160.498,108.610 160.227 C 108.663 159.955,108.661 159.562,108.606 159.354 C 108.551 159.145,108.509 159.367,108.511 159.847 M102.183 160.284 C 102.185 160.764,102.230 160.934,102.282 160.663 C 102.334 160.392,102.332 159.999,102.278 159.790 C 102.223 159.582,102.180 159.804,102.183 160.284 M123.799 160.938 C 123.800 161.658,123.841 161.927,123.890 161.535 C 123.938 161.142,123.937 160.553,123.888 160.225 C 123.838 159.897,123.798 160.218,123.799 160.938 M130.122 160.720 C 130.124 161.320,130.166 161.540,130.217 161.208 C 130.267 160.876,130.265 160.385,130.214 160.117 C 130.162 159.849,130.121 160.120,130.122 160.720 M268.958 161.266 C 269.198 161.369,269.542 161.453,269.722 161.453 C 269.928 161.453,269.888 161.384,269.613 161.266 C 269.373 161.163,269.029 161.078,268.849 161.078 C 268.643 161.078,268.683 161.147,268.958 161.266 M278.730 162.736 C 279.304 162.781,280.188 162.780,280.694 162.734 C 281.200 162.689,280.731 162.652,279.651 162.652 C 278.571 162.653,278.156 162.691,278.730 162.736 M123.573 164.103 C 123.573 164.643,123.615 164.864,123.667 164.594 C 123.719 164.324,123.719 163.882,123.667 163.612 C 123.615 163.342,123.573 163.562,123.573 164.103 M393.745 166.285 C 393.745 167.185,393.783 167.553,393.831 167.103 C 393.878 166.653,393.878 165.917,393.831 165.466 C 393.783 165.016,393.745 165.385,393.745 166.285 M129.456 169.558 C 129.456 169.978,129.501 170.150,129.556 169.940 C 129.611 169.730,129.611 169.386,129.556 169.176 C 129.501 168.966,129.456 169.138,129.456 169.558 M129.250 171.849 C 129.251 172.450,129.294 172.669,129.344 172.337 C 129.394 172.006,129.393 171.515,129.341 171.246 C 129.289 170.978,129.248 171.249,129.250 171.849 M122.918 172.177 C 122.918 172.717,122.961 172.938,123.013 172.668 C 123.065 172.398,123.065 171.956,123.013 171.686 C 122.961 171.416,122.918 171.637,122.918 172.177 M122.696 174.468 C 122.698 174.948,122.743 175.119,122.795 174.847 C 122.847 174.576,122.845 174.183,122.790 173.975 C 122.736 173.766,122.693 173.988,122.696 174.468 M398.379 175.138 C 398.299 175.458,398.275 175.762,398.327 175.813 C 398.378 175.865,398.486 175.645,398.566 175.325 C 398.646 175.006,398.670 174.702,398.618 174.650 C 398.567 174.599,398.459 174.819,398.379 175.138 M105.024 180.033 C 105.024 180.573,105.067 180.794,105.119 180.524 C 105.171 180.254,105.171 179.812,105.119 179.542 C 105.067 179.272,105.024 179.493,105.024 180.033 M111.355 180.360 C 111.357 180.960,111.399 181.180,111.450 180.848 C 111.500 180.516,111.498 180.025,111.447 179.757 C 111.395 179.489,111.354 179.760,111.355 180.360 M128.369 181.233 C 128.372 181.713,128.416 181.884,128.469 181.612 C 128.521 181.341,128.519 180.948,128.464 180.739 C 128.410 180.531,128.367 180.753,128.369 181.233 M122.036 181.342 C 122.036 181.762,122.081 181.934,122.136 181.724 C 122.191 181.514,122.191 181.170,122.136 180.960 C 122.081 180.750,122.036 180.922,122.036 181.342 M105.238 182.324 C 105.240 182.804,105.285 182.975,105.337 182.703 C 105.389 182.432,105.387 182.039,105.333 181.831 C 105.278 181.622,105.235 181.844,105.238 182.324 M111.577 183.306 C 111.577 183.966,111.617 184.236,111.667 183.906 C 111.717 183.576,111.717 183.036,111.667 182.706 C 111.617 182.376,111.577 182.646,111.577 183.306 M121.823 183.197 C 121.825 183.677,121.870 183.848,121.922 183.576 C 121.974 183.305,121.972 182.912,121.918 182.703 C 121.863 182.495,121.820 182.717,121.823 183.197 M396.798 185.597 C 396.799 186.438,396.839 186.754,396.886 186.302 C 396.933 185.849,396.932 185.162,396.884 184.774 C 396.836 184.387,396.797 184.757,396.798 185.597 M390.483 187.561 C 390.483 189.122,390.518 189.731,390.560 188.916 C 390.602 188.101,390.602 186.824,390.560 186.079 C 390.517 185.334,390.483 186.001,390.483 187.561 M105.492 190.944 C 105.492 193.284,105.524 194.242,105.564 193.071 C 105.603 191.901,105.603 189.986,105.564 188.816 C 105.524 187.646,105.492 188.603,105.492 190.944 M127.496 189.744 C 127.499 190.224,127.543 190.394,127.596 190.123 C 127.648 189.851,127.646 189.459,127.591 189.250 C 127.537 189.041,127.494 189.264,127.496 189.744 M396.797 190.289 C 396.797 191.069,396.836 191.388,396.885 190.998 C 396.933 190.608,396.933 189.970,396.885 189.580 C 396.836 189.190,396.797 189.509,396.797 190.289 M111.808 192.471 C 111.808 193.612,111.845 194.078,111.890 193.508 C 111.935 192.938,111.935 192.005,111.890 191.435 C 111.845 190.865,111.808 191.331,111.808 192.471 M120.954 191.817 C 120.954 192.357,120.997 192.578,121.049 192.308 C 121.101 192.038,121.101 191.596,121.049 191.326 C 120.997 191.056,120.954 191.277,120.954 191.817 M127.274 191.598 C 127.274 192.019,127.319 192.190,127.374 191.980 C 127.428 191.770,127.428 191.427,127.374 191.217 C 127.319 191.007,127.274 191.178,127.274 191.598 M120.727 193.999 C 120.727 194.419,120.772 194.591,120.827 194.381 C 120.882 194.171,120.882 193.827,120.827 193.617 C 120.772 193.407,120.727 193.579,120.727 193.999 M390.694 195.417 C 390.693 196.498,390.730 196.967,390.776 196.460 C 390.822 195.954,390.822 195.070,390.777 194.496 C 390.732 193.923,390.695 194.337,390.694 195.417 M397.013 195.854 C 397.014 196.574,397.054 196.842,397.103 196.450 C 397.152 196.058,397.151 195.469,397.101 195.141 C 397.051 194.813,397.011 195.134,397.013 195.854 M100.003 198.083 C 100.335 198.134,100.826 198.132,101.094 198.081 C 101.363 198.029,101.091 197.988,100.491 197.989 C 99.891 197.991,99.671 198.033,100.003 198.083 M96.613 198.303 C 97.000 198.351,97.687 198.352,98.140 198.304 C 98.593 198.257,98.276 198.218,97.436 198.217 C 96.596 198.216,96.225 198.254,96.613 198.303 M111.330 198.789 C 111.202 199.155,111.144 199.454,111.201 199.454 C 111.348 199.454,111.760 198.321,111.652 198.213 C 111.602 198.163,111.457 198.422,111.330 198.789 M126.623 199.127 C 126.626 199.607,126.671 199.778,126.723 199.506 C 126.775 199.235,126.773 198.842,126.718 198.634 C 126.664 198.425,126.621 198.647,126.623 199.127 M381.248 200.236 C 381.257 200.827,381.344 201.506,381.443 201.746 C 381.548 202.002,381.575 201.597,381.507 200.764 C 381.368 199.048,381.227 198.761,381.248 200.236 M396.427 200.791 C 396.245 201.701,396.421 201.877,396.618 200.982 C 396.700 200.605,396.723 200.251,396.667 200.195 C 396.612 200.139,396.503 200.408,396.427 200.791 M120.077 201.309 C 120.079 201.789,120.124 201.960,120.176 201.689 C 120.228 201.417,120.226 201.024,120.172 200.816 C 120.117 200.607,120.074 200.829,120.077 201.309 M126.413 201.528 C 126.414 202.128,126.457 202.347,126.507 202.016 C 126.557 201.684,126.556 201.193,126.504 200.924 C 126.452 200.656,126.411 200.927,126.413 201.528 M375.178 201.528 C 375.180 202.008,375.225 202.178,375.277 201.907 C 375.329 201.635,375.327 201.243,375.273 201.034 C 375.218 200.825,375.175 201.047,375.178 201.528 M389.718 202.025 C 389.646 202.459,389.678 202.663,389.799 202.542 C 389.909 202.432,389.962 202.109,389.918 201.825 C 389.849 201.389,389.818 201.419,389.718 202.025 M381.284 202.946 C 381.284 203.366,381.328 203.538,381.383 203.328 C 381.438 203.118,381.438 202.774,381.383 202.564 C 381.328 202.354,381.284 202.526,381.284 202.946 M105.728 203.601 C 105.453 203.719,105.413 203.788,105.619 203.788 C 105.799 203.788,106.143 203.704,106.383 203.601 C 106.658 203.482,106.698 203.413,106.492 203.413 C 106.312 203.413,105.968 203.498,105.728 203.601 M371.842 205.292 L 370.649 206.547 371.904 205.354 C 373.070 204.246,373.259 204.037,373.097 204.037 C 373.063 204.037,372.498 204.602,371.842 205.292 M100.766 204.410 C 101.038 204.462,101.431 204.460,101.639 204.405 C 101.848 204.351,101.626 204.308,101.146 204.310 C 100.666 204.313,100.495 204.357,100.766 204.410 M97.054 204.633 C 97.564 204.679,98.399 204.679,98.909 204.633 C 99.419 204.587,99.002 204.550,97.981 204.550 C 96.961 204.550,96.544 204.587,97.054 204.633 M71.017 207.147 L 70.376 207.856 71.086 207.215 C 71.747 206.618,71.895 206.438,71.727 206.438 C 71.689 206.438,71.370 206.757,71.017 207.147 M385.038 208.893 L 384.397 209.602 385.106 208.961 C 385.767 208.363,385.916 208.183,385.747 208.183 C 385.710 208.183,385.391 208.502,385.038 208.893 M390.958 211.846 C 389.999 212.932,389.905 213.085,390.595 212.439 C 391.412 211.672,392.516 210.353,392.323 210.373 C 392.284 210.377,391.670 211.039,390.958 211.846 M69.026 212.220 C 69.027 212.941,69.068 213.209,69.116 212.817 C 69.165 212.424,69.164 211.835,69.114 211.507 C 69.064 211.179,69.024 211.500,69.026 212.220 M75.364 211.787 C 74.981 212.786,74.662 212.769,93.262 212.713 L 110.747 212.661 93.181 212.550 L 75.614 212.439 75.631 211.948 C 75.651 211.379,75.545 211.315,75.364 211.787 M122.218 213.257 C 121.686 213.887,121.524 214.157,121.858 213.857 C 122.420 213.352,123.414 212.111,123.255 212.111 C 123.217 212.111,122.750 212.627,122.218 213.257 M376.705 212.486 C 377.035 212.536,377.575 212.536,377.905 212.486 C 378.235 212.436,377.965 212.395,377.305 212.395 C 376.645 212.395,376.375 212.436,376.705 212.486 M71.340 217.210 C 71.631 217.568,72.450 218.109,72.450 217.943 C 72.450 217.901,72.130 217.633,71.740 217.348 C 71.301 217.027,71.149 216.974,71.340 217.210 " stroke="none" fill="#9b9b9b" fill-rule="evenodd"></path><path id="path3" d="M51.500 5.960 C 51.500 5.998,51.819 6.317,52.209 6.669 L 52.919 7.310 52.278 6.601 C 51.680 5.940,51.500 5.792,51.500 5.960 M8.941 8.238 L 7.529 9.711 9.002 8.299 C 10.370 6.987,10.574 6.765,10.414 6.765 C 10.380 6.765,9.717 7.428,8.941 8.238 M54.992 9.452 C 54.992 9.489,55.311 9.809,55.701 10.161 L 56.410 10.802 55.769 10.093 C 55.172 9.432,54.992 9.283,54.992 9.452 M14.062 11.620 L 13.421 12.330 14.130 11.689 C 14.520 11.336,14.839 11.017,14.839 10.979 C 14.839 10.811,14.659 10.959,14.062 11.620 M5.968 29.460 C 5.968 30.480,6.006 30.897,6.052 30.387 C 6.098 29.877,6.098 29.043,6.052 28.532 C 6.006 28.022,5.968 28.440,5.968 29.460 M62.193 40.003 C 62.193 40.040,62.512 40.360,62.902 40.712 L 63.612 41.353 62.971 40.644 C 62.373 39.983,62.193 39.834,62.193 40.003 M86.473 40.528 C 86.805 40.578,87.296 40.576,87.564 40.525 C 87.833 40.473,87.561 40.432,86.961 40.433 C 86.361 40.435,86.142 40.477,86.473 40.528 M92.692 40.525 C 92.964 40.578,93.356 40.576,93.565 40.521 C 93.774 40.466,93.552 40.424,93.071 40.426 C 92.591 40.428,92.421 40.473,92.692 40.525 M82.545 40.746 C 82.877 40.796,83.368 40.795,83.636 40.743 C 83.905 40.691,83.633 40.650,83.033 40.652 C 82.433 40.653,82.214 40.696,82.545 40.746 M95.854 40.740 C 96.064 40.795,96.408 40.795,96.618 40.740 C 96.828 40.685,96.656 40.640,96.236 40.640 C 95.816 40.640,95.644 40.685,95.854 40.740 M79.815 40.961 C 80.085 41.013,80.526 41.013,80.797 40.961 C 81.067 40.909,80.846 40.867,80.306 40.867 C 79.765 40.867,79.544 40.909,79.815 40.961 M88.770 46.425 C 89.525 46.467,90.703 46.467,91.389 46.424 C 92.074 46.381,91.457 46.346,90.016 46.346 C 88.576 46.347,88.015 46.382,88.770 46.425 M83.301 46.639 C 83.689 46.687,84.376 46.688,84.829 46.640 C 85.281 46.593,84.965 46.554,84.124 46.553 C 83.284 46.552,82.914 46.590,83.301 46.639 M94.656 46.636 C 94.928 46.688,95.320 46.686,95.529 46.631 C 95.738 46.576,95.516 46.534,95.035 46.536 C 94.555 46.539,94.385 46.583,94.656 46.636 M80.908 46.854 C 81.180 46.906,81.572 46.904,81.781 46.849 C 81.990 46.795,81.768 46.752,81.288 46.754 C 80.807 46.757,80.637 46.802,80.908 46.854 M17.894 53.792 C 18.301 54.212,18.684 54.555,18.744 54.555 C 18.804 54.555,18.520 54.212,18.112 53.792 C 17.705 53.372,17.323 53.028,17.263 53.028 C 17.203 53.028,17.487 53.372,17.894 53.792 M23.568 59.425 C 23.568 59.462,23.887 59.781,24.277 60.134 L 24.986 60.775 24.345 60.065 C 23.748 59.404,23.568 59.256,23.568 59.425 M81.999 59.729 C 82.271 59.781,82.664 59.779,82.872 59.724 C 83.081 59.670,82.859 59.627,82.379 59.629 C 81.899 59.632,81.728 59.677,81.999 59.729 M49.482 60.165 C 49.752 60.217,50.194 60.217,50.464 60.165 C 50.734 60.113,50.513 60.070,49.973 60.070 C 49.433 60.070,49.212 60.113,49.482 60.165 M44.619 63.121 L 43.317 64.484 44.681 63.182 C 45.431 62.466,46.045 61.852,46.045 61.818 C 46.045 61.657,45.829 61.854,44.619 63.121 M85.166 62.630 C 85.166 63.170,85.208 63.391,85.260 63.121 C 85.312 62.851,85.312 62.409,85.260 62.139 C 85.208 61.869,85.166 62.089,85.166 62.630 M19.749 64.157 C 20.218 64.637,20.650 65.030,20.711 65.030 C 20.771 65.030,20.436 64.637,19.967 64.157 C 19.498 63.677,19.066 63.284,19.006 63.284 C 18.946 63.284,19.280 63.677,19.749 64.157 M48.762 67.485 L 47.900 68.412 48.827 67.550 C 49.690 66.748,49.855 66.558,49.690 66.558 C 49.654 66.558,49.237 66.975,48.762 67.485 M63.284 67.321 C 63.691 67.741,64.074 68.085,64.134 68.085 C 64.194 68.085,63.910 67.741,63.502 67.321 C 63.095 66.901,62.713 66.558,62.653 66.558 C 62.593 66.558,62.877 66.901,63.284 67.321 M45.815 70.431 L 45.063 71.249 45.881 70.497 C 46.643 69.797,46.800 69.613,46.633 69.613 C 46.597 69.613,46.228 69.981,45.815 70.431 M82.332 72.122 C 82.334 72.722,82.376 72.942,82.426 72.610 C 82.476 72.278,82.475 71.787,82.423 71.519 C 82.371 71.251,82.330 71.522,82.332 72.122 M82.325 74.741 C 82.327 75.221,82.372 75.392,82.424 75.120 C 82.476 74.849,82.474 74.456,82.419 74.247 C 82.365 74.039,82.322 74.261,82.325 74.741 M184.561 76.103 C 185.311 76.145,186.538 76.145,187.289 76.103 C 188.039 76.060,187.425 76.025,185.925 76.025 C 184.424 76.025,183.811 76.060,184.561 76.103 M177.687 76.528 C 177.897 76.583,178.241 76.583,178.451 76.528 C 178.661 76.473,178.489 76.428,178.069 76.428 C 177.649 76.428,177.477 76.473,177.687 76.528 M170.158 76.750 C 170.428 76.802,170.870 76.802,171.140 76.750 C 171.410 76.698,171.189 76.655,170.649 76.655 C 170.109 76.655,169.888 76.698,170.158 76.750 M175.289 76.752 C 175.621 76.802,176.112 76.801,176.381 76.749 C 176.649 76.698,176.378 76.657,175.777 76.658 C 175.177 76.660,174.958 76.702,175.289 76.752 M181.945 82.206 C 182.216 82.258,182.609 82.256,182.818 82.201 C 183.026 82.147,182.804 82.104,182.324 82.106 C 181.844 82.109,181.673 82.153,181.945 82.206 M189.253 82.202 C 189.463 82.257,189.806 82.257,190.016 82.202 C 190.226 82.147,190.055 82.102,189.634 82.102 C 189.214 82.102,189.043 82.147,189.253 82.202 M179.326 82.424 C 179.598 82.476,179.990 82.474,180.199 82.419 C 180.408 82.365,180.185 82.322,179.705 82.325 C 179.225 82.327,179.055 82.372,179.326 82.424 M168.085 82.638 C 168.295 82.693,168.639 82.693,168.849 82.638 C 169.059 82.583,168.887 82.538,168.467 82.538 C 168.047 82.538,167.875 82.583,168.085 82.638 M177.250 82.638 C 177.460 82.693,177.804 82.693,178.014 82.638 C 178.224 82.583,178.052 82.538,177.632 82.538 C 177.212 82.538,177.040 82.583,177.250 82.638 M172.340 82.864 C 172.730 82.912,173.369 82.912,173.759 82.864 C 174.149 82.815,173.830 82.776,173.050 82.776 C 172.270 82.776,171.950 82.815,172.340 82.864 M219.313 91.326 C 219.720 91.746,220.102 92.089,220.162 92.089 C 220.222 92.089,219.938 91.746,219.531 91.326 C 219.124 90.906,218.741 90.562,218.681 90.562 C 218.621 90.562,218.905 90.906,219.313 91.326 M90.235 91.871 C 90.703 92.351,91.136 92.744,91.196 92.744 C 91.256 92.744,90.922 92.351,90.453 91.871 C 89.984 91.391,89.551 90.998,89.491 90.998 C 89.431 90.998,89.766 91.391,90.235 91.871 M213.093 93.617 C 213.806 94.337,214.438 94.926,214.498 94.926 C 214.558 94.926,214.024 94.337,213.312 93.617 C 212.599 92.897,211.967 92.308,211.907 92.308 C 211.847 92.308,212.381 92.897,213.093 93.617 M81.288 97.327 C 82.000 98.047,82.632 98.636,82.692 98.636 C 82.752 98.636,82.218 98.047,81.506 97.327 C 80.793 96.607,80.161 96.017,80.101 96.017 C 80.041 96.017,80.575 96.607,81.288 97.327 M232.188 102.019 C 232.488 102.190,232.831 102.330,232.951 102.330 C 233.071 102.330,232.924 102.190,232.624 102.019 C 232.324 101.847,231.980 101.707,231.860 101.707 C 231.740 101.707,231.888 101.847,232.188 102.019 M78.996 103.546 C 79.403 103.966,79.786 104.310,79.846 104.310 C 79.906 104.310,79.622 103.966,79.214 103.546 C 78.807 103.126,78.425 102.782,78.365 102.782 C 78.305 102.782,78.589 103.126,78.996 103.546 M281.178 125.477 C 281.418 125.581,281.762 125.665,281.942 125.665 C 282.148 125.665,282.108 125.596,281.833 125.477 C 281.593 125.374,281.249 125.290,281.069 125.290 C 280.863 125.290,280.903 125.359,281.178 125.477 M292.471 127.165 C 293.041 127.210,293.974 127.210,294.544 127.165 C 295.115 127.120,294.648 127.084,293.508 127.084 C 292.368 127.084,291.901 127.120,292.471 127.165 M298.909 127.381 C 299.299 127.429,299.937 127.429,300.327 127.381 C 300.717 127.333,300.398 127.293,299.618 127.293 C 298.838 127.293,298.519 127.333,298.909 127.381 M302.510 127.592 C 302.720 127.647,303.063 127.647,303.273 127.592 C 303.483 127.537,303.312 127.492,302.891 127.492 C 302.471 127.492,302.300 127.537,302.510 127.592 M289.856 133.053 C 290.187 133.104,290.678 133.102,290.947 133.051 C 291.215 132.999,290.944 132.958,290.344 132.959 C 289.744 132.961,289.524 133.003,289.856 133.053 M294.544 133.277 C 295.415 133.319,296.839 133.319,297.709 133.277 C 298.579 133.236,297.867 133.202,296.127 133.202 C 294.386 133.202,293.674 133.236,294.544 133.277 M130.547 137.043 C 130.547 137.463,130.592 137.635,130.647 137.425 C 130.702 137.215,130.702 136.871,130.647 136.661 C 130.592 136.451,130.547 136.623,130.547 137.043 M124.660 138.243 C 124.662 138.723,124.707 138.894,124.759 138.623 C 124.811 138.351,124.809 137.958,124.754 137.750 C 124.700 137.541,124.657 137.763,124.660 138.243 M108.516 140.316 C 108.516 140.857,108.558 141.077,108.610 140.807 C 108.662 140.537,108.662 140.095,108.610 139.825 C 108.558 139.555,108.516 139.776,108.516 140.316 M130.796 142.390 C 130.797 143.710,130.833 144.222,130.876 143.527 C 130.920 142.833,130.919 141.753,130.875 141.127 C 130.831 140.501,130.796 141.069,130.796 142.390 M345.445 141.517 C 345.745 141.688,346.088 141.829,346.208 141.829 C 346.328 141.829,346.181 141.688,345.881 141.517 C 345.581 141.345,345.237 141.205,345.117 141.205 C 344.997 141.205,345.145 141.345,345.445 141.517 M102.178 145.772 C 102.178 146.192,102.223 146.364,102.278 146.154 C 102.333 145.944,102.333 145.600,102.278 145.390 C 102.223 145.180,102.178 145.352,102.178 145.772 M124.682 147.409 C 124.681 148.489,124.718 148.958,124.764 148.452 C 124.810 147.945,124.810 147.061,124.765 146.488 C 124.720 145.914,124.683 146.328,124.682 147.409 M101.983 149.045 C 101.983 149.945,102.021 150.314,102.068 149.864 C 102.115 149.414,102.115 148.677,102.068 148.227 C 102.021 147.777,101.983 148.145,101.983 149.045 M108.079 148.391 C 108.079 148.931,108.122 149.152,108.174 148.882 C 108.226 148.612,108.226 148.170,108.174 147.900 C 108.122 147.630,108.079 147.851,108.079 148.391 M130.564 150.464 C 130.565 151.184,130.606 151.452,130.655 151.060 C 130.703 150.668,130.702 150.079,130.652 149.751 C 130.603 149.423,130.563 149.744,130.564 150.464 M124.456 152.100 C 124.456 152.881,124.496 153.200,124.544 152.810 C 124.593 152.420,124.593 151.781,124.544 151.391 C 124.496 151.001,124.456 151.320,124.456 152.100 M248.609 150.941 C 248.819 150.996,249.163 150.996,249.373 150.941 C 249.583 150.887,249.411 150.842,248.991 150.842 C 248.571 150.842,248.399 150.887,248.609 150.941 M376.050 151.814 C 376.260 151.869,376.604 151.869,376.814 151.814 C 377.024 151.759,376.852 151.715,376.432 151.715 C 376.012 151.715,375.840 151.759,376.050 151.814 M378.345 152.040 C 378.738 152.089,379.327 152.088,379.655 152.038 C 379.983 151.988,379.662 151.949,378.942 151.950 C 378.221 151.951,377.953 151.992,378.345 152.040 M382.706 152.042 C 383.216 152.088,384.051 152.088,384.561 152.042 C 385.071 151.996,384.654 151.958,383.633 151.958 C 382.613 151.958,382.196 151.996,382.706 152.042 M101.989 154.610 C 101.990 155.810,102.026 156.273,102.071 155.639 C 102.115 155.005,102.114 154.023,102.070 153.457 C 102.025 152.891,101.989 153.410,101.989 154.610 M130.352 154.501 C 130.352 155.401,130.390 155.769,130.437 155.319 C 130.484 154.869,130.484 154.133,130.437 153.682 C 130.390 153.232,130.352 153.601,130.352 154.501 M108.079 155.810 C 108.079 156.350,108.122 156.571,108.174 156.301 C 108.226 156.031,108.226 155.589,108.174 155.319 C 108.122 155.049,108.079 155.270,108.079 155.810 M124.219 156.028 C 124.219 156.448,124.264 156.620,124.318 156.410 C 124.373 156.200,124.373 155.857,124.318 155.646 C 124.264 155.436,124.219 155.608,124.219 156.028 M283.098 156.409 C 284.033 156.450,285.506 156.450,286.371 156.408 C 287.236 156.367,286.470 156.334,284.670 156.334 C 282.870 156.334,282.162 156.368,283.098 156.409 M279.269 156.619 C 279.539 156.671,279.981 156.671,280.251 156.619 C 280.521 156.567,280.300 156.524,279.760 156.524 C 279.220 156.524,278.999 156.567,279.269 156.619 M289.089 156.619 C 289.359 156.671,289.801 156.671,290.071 156.619 C 290.341 156.567,290.120 156.524,289.580 156.524 C 289.040 156.524,288.819 156.567,289.089 156.619 M374.304 157.706 C 374.514 157.761,374.858 157.761,375.068 157.706 C 375.278 157.651,375.106 157.607,374.686 157.607 C 374.266 157.607,374.094 157.651,374.304 157.706 M102.178 158.429 C 102.178 158.849,102.223 159.021,102.278 158.811 C 102.333 158.601,102.333 158.257,102.278 158.047 C 102.223 157.837,102.178 158.009,102.178 158.429 M130.115 158.538 C 130.117 159.018,130.162 159.189,130.214 158.917 C 130.267 158.646,130.265 158.253,130.210 158.044 C 130.155 157.836,130.113 158.058,130.115 158.538 M124.000 160.175 C 124.000 160.595,124.045 160.767,124.100 160.556 C 124.155 160.346,124.155 160.003,124.100 159.793 C 124.045 159.583,124.000 159.755,124.000 160.175 M129.892 162.139 C 129.892 162.559,129.937 162.730,129.992 162.520 C 130.047 162.310,130.047 161.967,129.992 161.757 C 129.937 161.547,129.892 161.718,129.892 162.139 M108.725 163.011 C 108.725 163.432,108.770 163.603,108.825 163.393 C 108.880 163.183,108.880 162.840,108.825 162.630 C 108.770 162.420,108.725 162.591,108.725 163.011 M276.541 162.507 C 276.751 162.562,277.095 162.562,277.305 162.507 C 277.515 162.452,277.343 162.407,276.923 162.407 C 276.503 162.407,276.331 162.452,276.541 162.507 M283.088 162.519 C 284.018 162.560,285.540 162.560,286.470 162.519 C 287.400 162.478,286.639 162.445,284.779 162.445 C 282.919 162.445,282.158 162.478,283.088 162.519 M123.791 163.666 C 123.791 164.206,123.834 164.427,123.886 164.157 C 123.938 163.887,123.938 163.445,123.886 163.175 C 123.834 162.905,123.791 163.126,123.791 163.666 M393.957 166.394 C 393.959 167.114,393.999 167.382,394.048 166.990 C 394.097 166.598,394.096 166.009,394.046 165.681 C 393.996 165.353,393.956 165.674,393.957 166.394 M123.568 166.176 C 123.571 166.656,123.616 166.826,123.668 166.555 C 123.720 166.284,123.718 165.891,123.663 165.682 C 123.609 165.473,123.566 165.696,123.568 166.176 M129.465 167.594 C 129.465 168.134,129.507 168.355,129.559 168.085 C 129.611 167.815,129.611 167.373,129.559 167.103 C 129.507 166.833,129.465 167.054,129.465 167.594 M129.238 169.995 C 129.238 170.415,129.283 170.586,129.338 170.376 C 129.392 170.166,129.392 169.823,129.338 169.613 C 129.283 169.403,129.238 169.574,129.238 169.995 M122.909 174.141 C 122.909 174.561,122.954 174.733,123.009 174.523 C 123.064 174.313,123.064 173.969,123.009 173.759 C 122.954 173.549,122.909 173.721,122.909 174.141 M122.691 176.323 C 122.691 176.743,122.736 176.915,122.791 176.705 C 122.846 176.495,122.846 176.151,122.791 175.941 C 122.736 175.731,122.691 175.903,122.691 176.323 M128.583 177.414 C 128.583 177.834,128.628 178.006,128.683 177.796 C 128.738 177.586,128.738 177.242,128.683 177.032 C 128.628 176.822,128.583 176.994,128.583 177.414 M128.365 179.378 C 128.365 179.798,128.410 179.970,128.465 179.760 C 128.520 179.550,128.520 179.206,128.465 178.996 C 128.410 178.786,128.365 178.958,128.365 179.378 M390.885 181.779 C 390.885 182.199,390.930 182.370,390.985 182.160 C 391.040 181.950,391.040 181.607,390.985 181.397 C 390.930 181.187,390.885 181.358,390.885 181.779 M111.355 182.761 C 111.357 183.361,111.399 183.580,111.450 183.248 C 111.500 182.917,111.498 182.426,111.447 182.157 C 111.395 181.889,111.354 182.160,111.355 182.761 M396.777 182.870 C 396.777 183.290,396.822 183.462,396.877 183.252 C 396.932 183.041,396.932 182.698,396.877 182.488 C 396.822 182.278,396.777 182.450,396.777 182.870 M105.463 184.724 C 105.465 185.325,105.507 185.544,105.558 185.212 C 105.608 184.881,105.606 184.390,105.555 184.121 C 105.503 183.853,105.462 184.124,105.463 184.724 M121.818 184.834 C 121.818 185.254,121.863 185.426,121.918 185.215 C 121.973 185.005,121.973 184.662,121.918 184.452 C 121.863 184.242,121.818 184.414,121.818 184.834 M396.596 187.561 C 396.596 189.362,396.630 190.069,396.671 189.134 C 396.712 188.198,396.712 186.725,396.670 185.860 C 396.629 184.996,396.595 185.761,396.596 187.561 M111.602 189.416 C 111.602 191.637,111.634 192.545,111.674 191.435 C 111.713 190.325,111.713 188.508,111.674 187.398 C 111.634 186.288,111.602 187.196,111.602 189.416 M127.496 187.998 C 127.499 188.478,127.543 188.649,127.596 188.377 C 127.648 188.106,127.646 187.713,127.591 187.504 C 127.537 187.296,127.494 187.518,127.496 187.998 M390.682 192.035 C 390.682 192.695,390.723 192.965,390.773 192.635 C 390.823 192.305,390.823 191.765,390.773 191.435 C 390.723 191.105,390.682 191.375,390.682 192.035 M396.813 195.199 C 396.813 196.879,396.847 197.538,396.889 196.663 C 396.930 195.787,396.930 194.412,396.888 193.607 C 396.846 192.803,396.812 193.519,396.813 195.199 M120.945 193.562 C 120.945 193.983,120.990 194.154,121.045 193.944 C 121.100 193.734,121.100 193.391,121.045 193.181 C 120.990 192.971,120.945 193.142,120.945 193.562 M105.687 195.417 C 105.688 196.137,105.729 196.406,105.777 196.014 C 105.826 195.621,105.825 195.032,105.775 194.704 C 105.725 194.376,105.686 194.697,105.687 195.417 M126.837 194.872 C 126.837 195.292,126.882 195.464,126.937 195.254 C 126.992 195.044,126.992 194.700,126.937 194.490 C 126.882 194.280,126.837 194.452,126.837 194.872 M390.897 195.636 C 390.899 196.236,390.941 196.455,390.991 196.124 C 391.041 195.792,391.040 195.301,390.988 195.032 C 390.937 194.764,390.895 195.035,390.897 195.636 M120.732 195.636 C 120.734 196.116,120.779 196.286,120.831 196.015 C 120.883 195.743,120.881 195.351,120.826 195.142 C 120.772 194.933,120.729 195.155,120.732 195.636 M379.503 194.981 C 379.503 195.101,379.643 195.445,379.815 195.745 C 379.986 196.045,380.126 196.192,380.126 196.072 C 380.126 195.952,379.986 195.608,379.815 195.308 C 379.643 195.008,379.503 194.861,379.503 194.981 M126.628 197.054 C 126.628 197.594,126.670 197.815,126.722 197.545 C 126.774 197.275,126.774 196.833,126.722 196.563 C 126.670 196.293,126.628 196.514,126.628 197.054 M99.564 198.296 C 99.774 198.350,100.117 198.350,100.327 198.296 C 100.537 198.241,100.366 198.196,99.945 198.196 C 99.525 198.196,99.354 198.241,99.564 198.296 M380.509 200.553 C 380.198 200.798,379.424 201.238,378.788 201.532 C 378.034 201.880,377.860 202.019,378.287 201.930 C 379.037 201.773,380.633 200.896,381.023 200.427 C 381.396 199.977,381.170 200.033,380.509 200.553 M377.355 202.274 C 377.401 202.444,377.812 202.712,378.268 202.870 C 379.478 203.289,380.586 204.027,380.800 204.557 C 380.913 204.835,380.991 204.888,380.998 204.692 C 381.018 204.069,379.539 202.947,378.289 202.637 C 377.930 202.548,377.555 202.360,377.454 202.219 C 377.326 202.041,377.297 202.057,377.355 202.274 M390.616 202.213 C 390.616 202.330,390.346 202.532,390.016 202.662 C 389.686 202.793,389.569 202.910,389.756 202.923 C 390.205 202.953,390.988 202.372,390.780 202.164 C 390.690 202.074,390.616 202.096,390.616 202.213 M98.149 204.413 C 98.541 204.462,99.130 204.461,99.458 204.411 C 99.786 204.361,99.465 204.322,98.745 204.323 C 98.025 204.324,97.757 204.365,98.149 204.413 M94.544 204.624 C 94.755 204.679,95.098 204.679,95.308 204.624 C 95.518 204.569,95.346 204.524,94.926 204.524 C 94.506 204.524,94.334 204.569,94.544 204.624 M385.698 208.456 L 384.615 209.602 385.761 208.519 C 386.391 207.923,386.907 207.408,386.907 207.373 C 386.907 207.210,386.705 207.392,385.698 208.456 M376.309 209.547 L 375.668 210.256 376.378 209.615 C 377.039 209.018,377.187 208.838,377.018 208.838 C 376.981 208.838,376.662 209.157,376.309 209.547 M116.955 209.875 L 116.203 210.693 117.021 209.941 C 117.471 209.527,117.840 209.159,117.840 209.122 C 117.840 208.956,117.655 209.113,116.955 209.875 M369.298 211.348 C 369.300 212.068,369.340 212.336,369.389 211.944 C 369.437 211.551,369.436 210.962,369.387 210.634 C 369.337 210.306,369.297 210.627,369.298 211.348 M390.282 212.384 L 388.980 213.748 390.344 212.445 C 391.094 211.729,391.708 211.115,391.708 211.082 C 391.708 210.920,391.492 211.117,390.282 212.384 " stroke="none" fill="#737473" fill-rule="evenodd"></path><path id="path4" d="M12.752 12.930 L 12.111 13.639 12.821 12.998 C 13.211 12.645,13.530 12.326,13.530 12.289 C 13.530 12.120,13.350 12.269,12.752 12.930 M75.996 47.286 C 76.206 47.341,76.549 47.341,76.759 47.286 C 76.969 47.231,76.798 47.186,76.378 47.186 C 75.957 47.186,75.786 47.231,75.996 47.286 M171.795 76.746 C 172.005 76.801,172.349 76.801,172.559 76.746 C 172.769 76.691,172.597 76.646,172.177 76.646 C 171.757 76.646,171.585 76.691,171.795 76.746 M173.652 76.750 C 173.924 76.802,174.317 76.800,174.525 76.746 C 174.734 76.691,174.512 76.648,174.032 76.651 C 173.552 76.653,173.381 76.698,173.652 76.750 M220.185 101.760 C 220.185 101.797,220.505 102.116,220.895 102.469 L 221.604 103.110 220.963 102.400 C 220.366 101.739,220.185 101.591,220.185 101.760 M124.660 144.790 C 124.662 145.270,124.707 145.441,124.759 145.169 C 124.811 144.898,124.809 144.505,124.754 144.296 C 124.700 144.088,124.657 144.310,124.660 144.790 M111.792 195.417 C 111.793 196.017,111.836 196.237,111.886 195.905 C 111.936 195.574,111.935 195.083,111.883 194.814 C 111.831 194.546,111.790 194.817,111.792 195.417 M380.251 201.022 C 379.771 201.358,378.961 201.744,378.451 201.879 C 377.344 202.172,377.269 202.419,378.224 202.629 C 378.910 202.779,380.541 203.719,380.836 204.133 C 381.122 204.535,381.491 201.990,381.279 201.078 L 381.124 200.409 380.251 201.022 M389.892 202.376 C 389.811 202.588,389.902 202.646,390.196 202.569 C 390.680 202.442,390.766 202.073,390.312 202.073 C 390.145 202.073,389.956 202.209,389.892 202.376 " stroke="none" fill="#7c7c7c" fill-rule="evenodd"></path></g></svg>