<svg id="svg" version="1.1" xmlns="http://www.w3.org/2000/svg" xmlns:xlink="http://www.w3.org/1999/xlink" width="400" height="218.1818181818182" viewBox="0, 0, 400,218.1818181818182"><g id="svgg"><path id="path0" d="M202.500 0.487 C 200.327 1.411,199.143 2.154,195.417 4.932 C 189.987 8.980,186.559 11.802,181.669 16.250 C 175.746 21.638,168.429 30.170,163.519 37.417 C 161.435 40.491,160.548 41.225,154.500 44.886 C 149.191 48.099,137.714 53.735,129.333 57.246 C 127.638 57.956,125.275 58.949,124.083 59.451 C 112.510 64.332,106.571 70.995,104.508 81.418 C 103.729 85.350,103.430 86.196,101.623 89.570 C 92.535 106.536,90.524 125.382,95.522 146.750 C 97.222 154.018,97.803 156.102,99.698 161.719 C 100.341 163.627,100.841 165.213,100.809 165.244 C 100.777 165.275,98.837 165.235,96.500 165.154 C 83.534 164.707,67.435 165.263,55.083 166.584 C 52.975 166.810,50.837 167.039,50.333 167.093 C 48.682 167.269,42.450 168.150,40.917 168.424 C 40.092 168.571,38.967 168.764,38.417 168.853 C 36.666 169.136,31.284 170.180,30.333 170.422 C 29.829 170.550,28.292 170.925,26.917 171.257 C 25.542 171.588,23.704 172.070,22.833 172.329 C 21.962 172.587,20.313 173.075,19.167 173.411 C 10.751 175.885,7.157 177.926,3.930 182.061 C -2.880 190.787,-0.754 202.292,8.852 208.702 C 16.825 214.022,22.216 214.852,53.083 215.507 C 60.225 215.658,78.883 215.597,82.083 215.411 C 82.633 215.379,89.496 215.300,97.333 215.236 C 112.583 215.112,114.205 215.158,121.083 215.917 C 128.262 216.710,133.220 216.875,141.667 216.602 C 146.941 216.432,147.723 216.512,150.583 217.519 L 152.417 218.164 155.342 218.165 L 158.268 218.167 159.044 217.675 C 160.596 216.690,161.582 214.531,161.473 212.352 C 161.422 211.332,161.443 211.253,161.751 211.293 C 161.934 211.316,163.583 211.563,165.417 211.841 C 167.250 212.120,170.096 212.533,171.741 212.759 C 173.386 212.985,175.186 213.241,175.741 213.328 C 198.430 216.862,232.829 217.363,249.250 214.400 C 260.485 212.372,266.360 211.832,286.167 211.007 C 298.516 210.492,319.822 210.235,329.333 210.485 C 341.807 210.814,343.707 210.998,356.917 213.165 C 364.615 214.428,367.647 214.649,378.833 214.764 C 385.778 214.836,388.469 214.926,391.000 215.172 C 396.565 215.713,398.564 214.985,399.680 212.013 C 400.909 208.741,399.208 205.774,394.176 202.413 C 392.944 201.590,391.219 200.433,390.343 199.841 C 388.725 198.749,385.028 196.750,384.887 196.891 C 384.258 197.520,387.806 200.941,389.867 201.692 C 390.875 202.060,391.098 202.398,390.458 202.590 C 389.745 202.805,388.000 203.684,388.000 203.829 C 388.000 203.909,389.324 204.861,390.942 205.946 C 394.589 208.389,395.446 209.227,395.302 210.210 C 395.213 210.817,394.438 210.873,391.210 210.505 C 388.755 210.225,387.183 210.167,382.000 210.165 C 372.424 210.162,364.592 209.703,359.417 208.840 C 357.636 208.543,349.858 207.287,347.000 206.834 C 337.774 205.374,295.775 205.377,273.750 206.840 C 263.514 207.520,258.417 208.076,251.000 209.322 C 243.154 210.641,238.401 211.116,228.250 211.595 C 211.798 212.371,183.778 210.294,164.083 206.838 C 163.075 206.661,161.425 206.388,160.417 206.231 L 158.583 205.946 157.167 204.662 C 155.019 202.717,153.600 201.722,151.583 200.746 C 148.469 199.239,147.046 198.936,141.007 198.497 C 135.702 198.111,134.403 197.559,131.875 194.612 C 127.100 189.049,123.974 187.193,119.681 187.372 C 116.646 187.499,114.428 188.555,109.750 192.101 C 107.945 193.469,107.310 193.713,105.325 193.798 C 101.032 193.982,94.002 192.356,86.000 189.327 C 84.762 188.858,82.850 188.139,81.750 187.728 C 80.650 187.317,79.075 186.714,78.250 186.387 C 72.962 184.290,70.284 183.372,66.083 182.213 C 53.707 178.800,43.584 179.356,30.000 184.195 C 26.989 185.268,26.164 186.389,27.081 188.162 C 27.757 189.468,28.718 189.656,30.868 188.900 C 48.574 182.675,57.529 183.178,78.667 191.583 C 80.912 192.476,83.237 193.380,83.833 193.591 C 84.429 193.802,85.667 194.247,86.583 194.580 C 93.613 197.128,99.942 198.500,104.671 198.500 C 108.481 198.500,109.607 198.063,113.784 194.969 C 119.957 190.394,121.889 190.789,128.485 197.973 C 132.045 201.850,134.269 202.787,141.000 203.246 C 147.579 203.695,150.998 205.087,154.452 208.722 C 157.695 212.136,157.259 215.202,153.750 213.662 C 149.575 211.829,146.667 211.481,139.847 211.998 C 137.871 212.148,135.664 212.184,132.931 212.110 C 129.149 212.008,127.384 211.860,119.250 210.961 C 115.421 210.538,107.564 210.496,70.333 210.700 C 50.705 210.808,44.293 210.727,35.667 210.261 C 33.054 210.120,30.129 209.962,29.167 209.910 C 20.886 209.463,15.487 207.827,10.746 204.330 C 1.672 197.635,3.134 185.259,13.583 180.324 C 16.409 178.989,25.046 176.458,32.250 174.853 C 51.196 170.631,82.121 168.568,103.516 170.098 L 105.115 170.212 105.806 169.588 C 107.176 168.350,107.291 168.991,104.042 159.750 C 103.436 158.026,103.259 157.458,102.153 153.667 C 95.611 131.256,96.310 110.271,104.103 95.108 C 108.165 87.206,108.126 87.293,108.589 84.833 C 110.745 73.374,115.071 68.292,126.917 63.303 C 140.058 57.768,147.528 54.300,153.478 50.972 C 155.899 49.617,155.987 49.613,155.234 50.888 C 152.434 55.629,149.000 62.525,149.000 63.407 C 149.000 64.677,149.962 65.583,151.308 65.583 C 152.671 65.583,152.870 65.363,154.698 61.838 C 158.354 54.783,161.736 48.758,163.915 45.417 C 164.393 44.683,165.366 43.183,166.078 42.083 C 174.743 28.687,185.755 17.488,200.557 7.015 C 204.612 4.146,207.118 3.468,209.780 4.518 C 210.039 4.620,211.225 5.036,212.417 5.443 C 218.766 7.608,231.016 13.277,238.417 17.475 C 239.058 17.839,240.296 18.530,241.167 19.011 C 242.037 19.492,243.313 20.234,244.001 20.659 C 244.689 21.085,245.364 21.477,245.501 21.530 C 245.638 21.583,246.702 22.217,247.865 22.938 C 249.029 23.660,250.904 24.808,252.032 25.491 C 253.160 26.174,254.571 27.044,255.167 27.426 C 256.421 28.229,260.000 30.399,263.000 32.176 C 266.707 34.370,270.047 35.937,273.833 37.256 C 281.279 39.851,283.971 42.067,285.750 47.070 C 286.812 50.055,287.402 51.482,288.703 54.218 C 289.826 56.580,289.880 56.751,289.961 58.177 C 290.058 59.879,289.989 59.949,289.042 59.117 C 285.507 56.008,279.194 52.746,276.322 52.545 C 273.498 52.347,273.014 53.864,274.349 58.729 C 274.821 60.448,274.856 61.124,274.439 60.441 C 273.676 59.190,271.971 57.152,270.165 55.331 C 267.708 52.855,267.167 52.040,265.928 48.951 C 264.104 44.408,263.460 43.432,260.860 41.280 C 254.947 36.386,244.760 32.535,225.250 27.818 C 221.574 26.929,215.484 24.610,211.885 22.729 C 208.491 20.955,208.038 21.110,205.756 24.833 C 202.306 30.462,199.849 33.684,194.417 39.704 C 193.317 40.923,192.117 42.285,191.750 42.731 C 191.383 43.177,190.887 43.777,190.647 44.063 C 188.384 46.760,187.346 49.220,184.803 57.917 C 181.846 68.030,177.805 74.244,168.438 83.078 C 153.176 97.473,142.247 119.412,143.652 132.832 C 144.485 140.792,148.034 145.042,155.000 146.426 C 165.775 148.566,173.769 156.100,176.746 166.918 C 177.412 169.341,177.507 169.411,181.434 170.424 C 188.117 172.147,189.948 172.652,193.917 173.870 C 196.693 174.722,204.774 177.457,206.833 178.243 C 207.704 178.575,209.092 179.097,209.917 179.403 C 211.815 180.108,214.137 181.009,216.167 181.828 C 232.381 188.376,241.491 189.484,253.833 186.413 C 254.704 186.196,255.979 185.897,256.667 185.749 C 259.419 185.154,262.398 184.493,265.250 183.843 C 272.397 182.213,282.964 181.495,288.083 182.291 C 288.817 182.405,290.279 182.614,291.333 182.757 C 295.075 183.263,300.460 184.493,306.500 186.222 C 309.188 186.991,310.240 187.307,314.417 188.599 C 315.792 189.024,317.404 189.505,318.000 189.667 C 318.596 189.829,320.283 190.299,321.750 190.711 C 334.359 194.254,344.062 194.976,348.414 192.695 C 349.586 192.080,350.433 191.311,353.250 188.303 C 356.869 184.439,360.601 185.011,365.572 190.192 C 370.558 195.387,371.379 196.125,373.750 197.534 C 375.928 198.829,380.323 200.468,380.905 200.202 C 381.598 199.886,383.500 197.189,383.500 196.520 C 383.500 196.434,382.844 196.137,382.042 195.861 C 376.038 193.796,375.277 193.299,370.000 188.004 C 361.100 179.072,355.398 178.581,348.724 186.171 C 346.445 188.763,345.181 189.329,341.667 189.332 C 335.915 189.336,323.792 186.813,314.583 183.695 L 313.583 183.356 313.640 179.220 C 313.832 165.109,310.704 155.638,300.029 138.006 C 296.607 132.353,295.096 128.196,293.427 119.833 C 291.033 107.843,289.135 105.161,281.167 102.507 C 275.988 100.782,274.127 99.034,273.882 95.667 C 273.688 93.002,274.752 90.204,278.222 84.250 C 281.520 78.592,281.960 70.224,279.498 60.017 C 279.077 58.274,279.024 58.306,280.782 59.257 C 287.255 62.760,295.128 70.879,299.545 78.606 C 304.161 86.680,307.747 98.353,309.828 112.083 C 310.364 115.622,310.808 116.245,312.706 116.124 C 314.466 116.011,315.022 115.006,314.685 112.544 C 313.860 106.523,312.115 98.552,310.079 91.507 C 307.193 81.523,301.854 71.972,295.280 65.031 C 294.065 63.749,293.674 63.232,293.764 63.027 C 294.474 61.402,294.559 60.903,294.567 58.333 C 294.576 55.400,294.542 55.273,292.791 51.750 C 292.290 50.742,291.593 49.167,291.243 48.250 C 288.778 41.811,288.154 40.559,286.606 38.948 C 285.080 37.360,280.840 34.976,276.667 33.359 C 275.704 32.987,274.045 32.347,272.980 31.938 C 269.602 30.641,264.615 27.858,256.518 22.750 C 254.736 21.626,243.672 15.007,242.667 14.463 C 242.071 14.141,241.096 13.610,240.500 13.282 C 234.770 10.129,224.137 4.965,220.083 3.366 C 219.625 3.185,218.275 2.648,217.083 2.173 C 215.892 1.697,214.065 1.013,213.023 0.654 L 211.130 0.000 207.356 0.013 C 203.622 0.026,203.572 0.031,202.500 0.487 M211.196 27.658 C 214.741 29.569,220.731 31.546,230.348 33.980 C 240.220 36.479,248.713 39.329,251.750 41.162 C 252.025 41.328,252.925 41.814,253.750 42.242 C 254.575 42.670,255.550 43.243,255.917 43.516 C 256.283 43.788,256.846 44.188,257.167 44.403 C 259.213 45.779,260.474 47.453,261.253 49.832 C 262.498 53.628,263.828 55.713,266.995 58.833 C 268.344 60.163,269.628 61.523,269.849 61.856 C 272.179 65.373,273.663 66.778,275.523 67.225 C 276.066 67.355,276.103 67.493,276.340 70.351 C 276.761 75.411,275.942 78.941,273.323 83.351 C 266.948 94.086,267.832 101.455,275.979 105.507 C 276.678 105.854,278.375 106.529,279.750 107.005 C 285.885 109.131,286.713 110.406,288.832 121.000 C 290.783 130.753,291.720 133.069,298.470 144.829 C 306.661 159.100,308.980 166.612,308.996 178.931 C 309.000 181.906,308.970 182.085,308.503 181.835 C 307.977 181.554,302.419 180.093,298.667 179.250 C 287.096 176.652,275.640 176.630,264.000 179.184 C 261.706 179.688,260.991 179.857,255.000 181.313 C 248.744 182.834,246.643 183.165,242.494 183.282 C 235.189 183.489,228.735 181.869,215.917 176.614 C 214.248 175.930,210.071 174.357,206.000 172.881 C 203.976 172.147,200.860 171.114,197.167 169.953 C 191.879 168.290,189.792 167.684,186.167 166.755 C 180.818 165.386,181.415 165.723,180.736 163.684 C 178.006 155.491,172.989 149.339,165.917 145.510 C 162.735 143.788,161.960 143.505,155.083 141.550 C 150.752 140.318,148.825 137.772,148.346 132.649 C 147.163 119.971,157.510 99.884,172.591 85.583 C 175.880 82.464,176.139 82.208,177.633 80.596 C 178.302 79.873,178.907 79.350,178.978 79.433 C 179.049 79.516,179.310 80.075,179.558 80.675 C 182.840 88.617,190.592 95.359,199.356 97.895 C 219.071 103.600,239.155 89.037,239.780 68.583 C 240.138 56.841,235.509 48.328,226.258 43.718 C 223.943 42.564,223.495 42.038,222.485 39.286 C 222.208 38.533,221.831 37.511,221.646 37.014 C 220.025 32.650,217.729 31.720,213.468 33.700 C 212.177 34.299,211.910 34.370,211.527 34.215 C 211.283 34.115,210.708 33.882,210.250 33.696 C 209.792 33.510,208.779 33.228,208.000 33.068 C 206.197 32.700,206.238 32.772,207.098 31.500 C 207.501 30.904,208.297 29.648,208.867 28.708 C 209.436 27.769,209.919 27.000,209.938 27.000 C 209.958 27.000,210.524 27.296,211.196 27.658 M204.314 37.032 C 204.625 37.122,205.787 37.407,206.898 37.666 C 208.008 37.925,209.404 38.343,210.000 38.596 C 211.677 39.306,212.717 39.238,214.778 38.281 C 215.679 37.862,216.517 37.496,216.641 37.468 C 216.792 37.433,217.144 38.196,217.732 39.833 C 219.498 44.750,220.441 45.991,223.750 47.751 C 230.569 51.379,233.487 55.358,234.749 62.750 C 239.176 88.690,207.759 104.969,189.074 86.417 C 185.994 83.359,181.704 75.621,182.472 74.509 C 183.062 73.653,184.931 70.255,185.869 68.333 C 187.540 64.907,188.602 61.890,190.244 55.901 C 191.745 50.426,193.361 47.686,198.137 42.519 C 200.272 40.208,200.403 40.061,201.885 38.289 C 202.839 37.149,203.322 36.693,203.499 36.766 C 203.637 36.823,204.004 36.943,204.314 37.032 " stroke="none" fill="#060606" fill-rule="evenodd"></path><path id="path1" d="M0.016 95.708 C 0.030 172.937,0.073 191.158,0.241 190.076 C 1.156 184.192,5.246 179.026,11.417 175.963 C 13.094 175.130,17.381 173.734,23.750 171.946 C 41.690 166.909,70.632 164.146,96.232 165.026 C 98.605 165.108,100.575 165.147,100.608 165.114 C 100.642 165.080,100.074 163.260,99.346 161.068 C 97.583 155.762,96.676 152.427,95.157 145.667 C 92.479 133.743,92.104 119.754,94.186 109.417 C 95.781 101.496,97.557 96.800,102.171 88.309 C 103.164 86.481,103.736 84.834,104.091 82.784 C 105.296 75.813,107.607 71.186,112.027 66.896 C 114.782 64.222,119.272 61.267,122.611 59.930 C 124.108 59.331,129.976 56.852,130.963 56.401 C 131.447 56.181,131.884 56.000,131.934 56.000 C 132.394 56.000,144.997 49.956,149.333 47.656 C 154.635 44.843,160.766 40.911,161.790 39.667 C 161.903 39.529,162.686 38.404,163.530 37.167 C 171.971 24.788,182.059 14.619,196.368 4.064 C 199.018 2.110,201.099 0.878,202.833 0.239 C 203.311 0.062,184.992 0.021,101.708 0.012 L 0.000 0.000 0.016 95.708 M212.167 0.248 C 216.084 1.390,227.240 6.192,233.067 9.244 C 233.809 9.633,235.617 10.574,237.083 11.334 C 238.550 12.095,240.349 13.054,241.081 13.467 C 241.812 13.880,242.787 14.420,243.247 14.668 C 244.109 15.133,245.726 16.057,246.167 16.338 C 246.522 16.564,252.483 20.148,253.083 20.496 C 254.509 21.324,255.475 21.915,256.079 22.326 C 257.839 23.526,266.274 28.557,268.500 29.734 C 270.749 30.924,271.922 31.443,274.417 32.353 C 276.944 33.275,278.763 34.050,280.917 35.123 C 286.972 38.141,288.039 39.397,290.784 46.750 C 291.564 48.838,292.013 49.881,293.080 52.083 C 295.125 56.305,295.376 59.565,293.922 63.036 C 293.832 63.250,294.155 63.689,295.209 64.786 C 299.930 69.698,304.279 76.250,306.754 82.181 C 309.044 87.667,310.063 90.687,311.642 96.667 C 313.083 102.123,315.149 113.237,314.934 114.381 C 314.613 116.096,312.328 116.914,310.930 115.814 C 310.268 115.294,310.053 114.733,309.846 113.000 C 309.026 106.117,305.994 93.777,303.561 87.417 C 299.035 75.586,290.061 64.481,281.016 59.522 C 279.131 58.488,279.269 58.361,279.759 60.671 C 282.261 72.469,281.667 78.968,277.461 85.809 C 273.715 91.901,273.008 96.711,275.476 99.300 C 276.756 100.643,278.217 101.415,281.549 102.509 C 289.135 105.000,291.236 108.038,293.577 119.894 C 295.262 128.426,296.265 131.203,300.003 137.680 C 300.660 138.818,302.062 141.287,303.119 143.167 C 304.176 145.046,305.097 146.658,305.166 146.750 C 305.555 147.269,308.114 152.438,309.002 154.500 C 312.481 162.577,313.755 168.990,313.744 178.360 L 313.738 183.303 316.244 184.061 C 328.107 187.653,335.591 189.166,341.504 189.166 C 344.976 189.167,346.581 188.590,347.984 186.837 C 353.393 180.075,359.313 179.085,365.839 183.850 C 366.439 184.288,368.539 186.291,370.506 188.303 C 375.160 193.062,375.967 193.586,381.833 195.661 C 386.972 197.479,387.764 197.893,393.292 201.658 C 397.673 204.642,399.077 205.990,399.722 207.834 C 399.961 208.517,399.985 199.346,399.992 104.292 L 400.000 0.000 305.708 0.015 C 227.617 0.027,211.546 0.067,212.167 0.248 M205.501 4.425 C 203.623 4.950,199.443 7.730,193.667 12.297 C 177.391 25.165,166.812 38.600,155.250 61.083 C 152.764 65.918,152.180 66.434,150.250 65.500 C 148.789 64.793,148.514 63.450,149.444 61.560 C 151.049 58.297,154.393 51.981,155.360 50.384 L 155.682 49.852 154.216 50.700 C 149.609 53.365,141.168 57.379,132.000 61.265 C 120.315 66.217,117.933 67.623,114.333 71.697 C 111.297 75.134,110.119 77.783,108.916 83.883 C 108.320 86.906,107.971 87.946,106.848 90.058 C 103.153 97.005,102.523 98.394,101.058 102.833 C 96.303 117.242,96.831 135.538,102.554 154.667 C 103.902 159.173,103.966 159.359,106.108 165.152 C 107.605 169.197,106.649 170.565,102.604 170.171 C 99.574 169.876,80.607 169.750,74.583 169.985 C 63.072 170.433,50.550 171.668,41.333 173.264 C 34.472 174.453,27.524 175.967,23.833 177.077 C 23.146 177.284,21.758 177.695,20.750 177.991 C 13.649 180.077,11.637 181.062,8.694 183.894 C 4.340 188.084,3.619 196.038,7.176 200.640 C 11.717 206.518,18.806 209.309,30.500 209.826 C 32.654 209.921,34.792 210.037,35.250 210.082 C 40.317 210.584,76.593 210.974,82.000 210.584 C 90.703 209.956,117.548 210.434,123.667 211.326 C 126.658 211.762,129.995 211.912,135.417 211.854 C 149.816 211.701,149.215 211.653,153.091 213.258 C 157.443 215.060,157.965 212.427,154.033 208.504 C 150.502 204.981,147.717 203.858,141.411 203.414 C 133.652 202.868,132.025 202.105,127.116 196.706 C 122.022 191.105,119.606 190.796,113.917 195.017 C 109.496 198.297,108.738 198.583,104.500 198.578 C 98.413 198.569,90.847 196.598,79.583 192.086 C 57.661 183.306,47.734 182.699,30.688 189.101 C 27.910 190.145,25.879 188.412,26.975 185.933 C 27.397 184.980,28.057 184.645,32.083 183.340 C 45.319 179.050,54.837 178.783,67.083 182.356 C 70.824 183.448,72.239 183.935,76.917 185.740 C 93.736 192.231,99.628 193.869,105.313 193.635 C 107.459 193.546,107.878 193.367,110.464 191.428 C 119.023 185.009,124.322 185.676,131.580 194.086 C 134.631 197.621,135.415 197.954,141.777 198.416 C 149.170 198.954,152.754 200.365,157.167 204.478 L 158.583 205.798 164.833 206.815 C 168.271 207.374,171.721 207.908,172.500 208.002 C 173.279 208.096,174.404 208.248,175.000 208.340 C 178.999 208.956,182.856 209.431,187.167 209.835 C 194.720 210.544,196.216 210.664,200.583 210.906 C 209.664 211.410,211.863 211.502,217.417 211.605 C 224.274 211.733,229.382 211.546,238.833 210.823 C 241.467 210.621,247.400 209.838,250.644 209.263 C 257.030 208.132,263.743 207.348,270.750 206.915 C 272.950 206.778,275.800 206.595,277.083 206.507 C 279.160 206.364,283.656 206.188,291.917 205.924 C 299.023 205.698,319.753 205.477,325.083 205.571 C 340.574 205.844,343.126 206.044,354.083 207.834 C 365.542 209.707,369.162 209.990,381.750 209.997 C 387.114 209.999,388.510 210.052,390.873 210.343 C 394.116 210.742,395.053 210.728,395.138 210.278 C 395.330 209.267,394.673 208.608,390.950 206.082 C 389.330 204.983,387.610 203.804,387.127 203.462 C 385.591 202.376,383.828 201.557,380.917 200.580 C 373.486 198.085,371.773 196.999,366.722 191.583 C 364.188 188.867,363.660 188.371,362.409 187.529 C 358.772 185.082,355.809 185.436,353.023 188.651 C 349.755 192.424,347.947 193.579,344.669 193.990 C 340.152 194.556,329.908 193.294,323.833 191.422 C 323.421 191.295,322.071 190.917,320.833 190.582 C 318.541 189.962,317.772 189.736,313.485 188.428 C 306.386 186.261,303.379 185.432,297.167 183.926 C 287.496 181.583,275.202 181.579,265.333 183.916 C 262.740 184.530,260.375 185.071,257.667 185.668 C 256.337 185.961,254.518 186.380,253.623 186.599 C 246.362 188.377,239.815 188.634,233.251 187.400 C 228.719 186.548,225.089 185.404,217.000 182.278 C 204.404 177.409,201.984 176.539,194.750 174.281 C 189.667 172.694,185.747 171.610,179.362 170.025 C 177.682 169.608,177.271 169.134,176.593 166.833 C 173.546 156.488,167.502 150.300,157.500 147.283 C 156.446 146.965,154.805 146.497,153.853 146.243 C 139.199 142.328,139.996 121.661,155.715 98.000 C 160.099 91.401,162.740 88.389,172.009 79.417 C 174.757 76.756,176.810 74.275,178.491 71.583 C 178.891 70.942,179.389 70.145,179.597 69.814 C 180.336 68.636,182.224 64.720,183.004 62.750 C 183.768 60.817,184.246 59.362,185.330 55.667 C 187.698 47.594,188.927 45.439,194.788 39.083 C 197.697 35.928,198.763 34.673,200.519 32.331 C 202.134 30.177,204.117 27.248,206.077 24.119 C 208.040 20.985,208.570 20.867,212.216 22.752 C 216.891 25.169,221.521 26.792,229.333 28.750 C 238.073 30.940,238.089 30.945,242.583 32.395 C 250.255 34.870,255.072 37.031,259.083 39.800 C 262.870 42.413,264.035 43.866,265.659 48.000 C 267.259 52.074,267.613 52.617,270.658 55.670 C 271.717 56.732,272.921 58.075,273.333 58.654 C 274.720 60.602,274.704 60.610,274.092 58.250 C 273.198 54.807,273.221 54.069,274.252 53.037 L 275.004 52.286 276.210 52.383 C 279.017 52.608,284.537 55.351,288.296 58.386 C 290.006 59.767,289.900 59.798,289.790 57.947 C 289.702 56.483,289.648 56.301,288.834 54.739 C 288.359 53.828,287.834 52.746,287.668 52.333 C 287.501 51.921,287.128 51.021,286.838 50.333 C 286.549 49.646,286.086 48.408,285.810 47.583 C 283.909 41.916,282.083 40.460,272.250 36.769 C 268.100 35.212,266.665 34.502,262.000 31.700 C 260.396 30.737,258.933 29.865,258.750 29.763 C 258.361 29.547,256.278 28.270,255.329 27.667 C 254.359 27.049,251.331 25.201,249.732 24.250 C 248.961 23.792,247.750 23.054,247.040 22.611 C 239.048 17.619,227.029 11.453,218.167 7.798 C 210.789 4.755,207.477 3.873,205.501 4.425 M209.205 28.375 C 208.823 29.040,208.063 30.258,207.515 31.083 L 206.519 32.583 208.423 33.037 C 209.471 33.286,210.626 33.643,210.991 33.829 C 211.857 34.270,211.992 34.260,213.189 33.655 C 218.180 31.136,220.478 32.622,222.853 39.904 C 223.495 41.871,224.145 42.541,226.636 43.801 C 235.408 48.241,239.895 56.200,239.902 67.333 C 239.918 93.750,209.849 108.664,188.831 92.665 C 184.618 89.458,180.268 83.743,179.089 79.866 C 178.936 79.364,178.937 79.363,177.506 80.917 C 176.830 81.650,175.521 82.960,174.597 83.827 C 167.525 90.465,163.959 94.585,159.661 101.083 C 156.311 106.149,152.926 112.512,151.496 116.432 C 149.423 122.112,148.920 124.151,148.483 128.631 C 147.917 134.454,149.540 138.915,152.834 140.584 C 153.299 140.819,154.895 141.352,156.381 141.768 C 162.912 143.594,165.879 144.932,169.659 147.757 C 175.042 151.780,178.550 156.774,180.883 163.736 L 181.437 165.388 183.593 165.941 C 189.581 167.476,190.584 167.764,197.500 169.932 C 201.751 171.264,204.937 172.323,206.250 172.839 C 206.708 173.019,208.996 173.873,211.333 174.736 C 213.671 175.600,216.408 176.654,217.417 177.077 C 218.425 177.501,219.550 177.953,219.917 178.081 C 220.283 178.209,221.408 178.621,222.417 178.996 C 236.661 184.292,241.567 184.477,258.500 180.358 C 272.280 177.005,281.181 176.360,292.083 177.925 C 296.767 178.597,303.844 180.200,307.875 181.502 L 308.833 181.811 308.833 178.233 C 308.833 168.719,306.697 160.180,302.249 151.917 C 302.003 151.458,301.466 150.458,301.057 149.694 C 300.648 148.930,299.635 147.130,298.805 145.694 C 294.696 138.583,292.618 134.594,291.629 131.917 C 290.222 128.110,289.777 126.371,288.172 118.417 C 286.606 110.658,285.381 109.041,279.583 107.075 C 268.113 103.186,265.937 95.581,272.926 83.805 C 276.085 78.483,276.707 75.451,276.062 68.513 C 275.964 67.461,275.914 67.333,275.601 67.330 C 274.313 67.316,272.559 65.862,270.698 63.266 C 269.709 61.886,268.484 60.487,266.815 58.833 C 263.690 55.736,262.780 54.320,261.245 50.167 C 260.206 47.355,259.530 46.388,257.500 44.817 C 252.287 40.781,244.305 37.635,230.271 34.085 C 221.264 31.807,214.479 29.574,211.216 27.815 C 210.555 27.458,209.988 27.167,209.957 27.167 C 209.925 27.167,209.587 27.710,209.205 28.375 M202.885 37.292 C 202.684 37.544,201.692 38.688,200.681 39.833 C 192.313 49.314,192.076 49.705,189.932 57.500 C 188.140 64.015,185.111 71.086,182.800 74.147 C 182.396 74.682,182.409 74.793,183.097 76.644 C 191.424 99.060,221.792 100.407,232.458 78.833 C 236.106 71.455,235.793 60.820,231.750 54.742 C 229.831 51.858,227.702 50.008,224.057 48.056 C 221.360 46.612,220.130 45.508,219.209 43.705 C 218.562 42.439,218.422 42.095,217.333 39.083 C 217.035 38.258,216.771 37.560,216.746 37.531 C 216.722 37.503,216.000 37.833,215.142 38.266 C 212.996 39.350,211.638 39.459,209.881 38.687 C 209.231 38.402,208.154 38.054,207.488 37.914 C 206.225 37.648,203.854 37.060,203.471 36.917 C 203.350 36.871,203.086 37.040,202.885 37.292 M0.021 206.792 L 0.000 218.167 75.958 218.160 C 144.245 218.154,151.858 218.128,151.333 217.899 C 150.219 217.412,148.074 216.867,146.583 216.691 C 145.170 216.525,144.523 216.532,140.974 216.753 C 138.606 216.901,129.740 216.846,127.500 216.669 C 126.354 216.579,123.617 216.316,121.417 216.084 C 119.217 215.853,116.442 215.580,115.250 215.478 C 112.580 215.251,95.911 215.262,83.417 215.500 C 52.961 216.081,25.881 215.229,19.372 213.486 C 8.470 210.567,1.300 204.206,0.192 196.472 C 0.092 195.772,0.034 199.243,0.021 206.792 M305.833 210.612 C 286.269 210.952,268.857 211.801,260.083 212.843 C 256.200 213.305,254.481 213.572,248.917 214.577 C 247.725 214.793,246.262 215.018,245.667 215.078 C 245.071 215.139,243.721 215.295,242.667 215.425 C 235.671 216.291,218.404 216.843,211.514 216.420 C 210.727 216.372,208.096 216.253,205.667 216.155 C 201.747 215.998,199.348 215.836,191.083 215.168 C 188.902 214.992,183.865 214.482,181.083 214.156 C 176.890 213.663,163.414 211.733,161.858 211.402 C 161.479 211.321,161.470 211.344,161.577 212.121 C 161.839 214.027,160.791 216.591,159.313 217.662 L 158.617 218.167 279.308 218.167 L 400.000 218.167 399.986 214.875 C 399.977 212.859,399.918 211.761,399.834 212.041 C 399.014 214.764,395.925 215.990,391.583 215.317 C 391.033 215.231,386.121 215.094,380.667 215.011 C 375.212 214.928,369.700 214.777,368.417 214.675 C 365.215 214.422,360.376 213.881,358.667 213.583 C 342.171 210.716,332.179 210.154,305.833 210.612 " stroke="none" fill="#fbfbfb" fill-rule="evenodd"></path><path id="path2" d="M179.494 18.125 L 178.583 19.083 179.542 18.172 C 180.432 17.326,180.576 17.167,180.453 17.167 C 180.427 17.167,179.995 17.598,179.494 18.125 M184.409 20.208 L 183.750 20.917 184.458 20.258 C 184.848 19.895,185.167 19.577,185.167 19.550 C 185.167 19.423,185.022 19.550,184.409 20.208 M174.740 23.042 L 174.250 23.583 174.792 23.094 C 175.297 22.638,175.410 22.500,175.281 22.500 C 175.252 22.500,175.009 22.744,174.740 23.042 M178.906 25.708 L 178.417 26.250 178.958 25.760 C 179.463 25.304,179.577 25.167,179.448 25.167 C 179.419 25.167,179.175 25.410,178.906 25.708 M286.500 38.750 C 286.811 39.071,287.103 39.333,287.149 39.333 C 287.195 39.333,286.978 39.071,286.667 38.750 C 286.356 38.429,286.064 38.167,286.018 38.167 C 285.972 38.167,286.189 38.429,286.500 38.750 M199.406 41.208 L 198.917 41.750 199.458 41.260 C 199.963 40.804,200.077 40.667,199.948 40.667 C 199.919 40.667,199.675 40.910,199.406 41.208 M229.000 51.385 C 229.000 51.414,229.244 51.658,229.542 51.927 L 230.083 52.417 229.594 51.875 C 229.138 51.370,229.000 51.257,229.000 51.385 M270.993 56.042 C 271.684 56.778,271.833 56.910,271.833 56.785 C 271.833 56.758,271.477 56.402,271.042 55.993 L 270.250 55.250 270.993 56.042 M265.333 57.417 C 265.644 57.737,265.936 58.000,265.982 58.000 C 266.028 58.000,265.811 57.737,265.500 57.417 C 265.189 57.096,264.897 56.833,264.851 56.833 C 264.805 56.833,265.022 57.096,265.333 57.417 M294.725 58.167 C 294.725 58.946,294.754 59.265,294.789 58.875 C 294.824 58.485,294.824 57.848,294.789 57.458 C 294.754 57.069,294.725 57.387,294.725 58.167 M266.667 58.750 C 266.978 59.071,267.270 59.333,267.315 59.333 C 267.361 59.333,267.144 59.071,266.833 58.750 C 266.522 58.429,266.230 58.167,266.185 58.167 C 266.139 58.167,266.356 58.429,266.667 58.750 M289.820 59.042 C 289.771 59.400,289.796 59.604,289.880 59.520 C 289.960 59.440,289.999 59.159,289.966 58.895 C 289.911 58.455,289.900 58.466,289.820 59.042 M148.875 63.417 C 148.877 63.783,148.911 63.914,148.951 63.706 C 148.991 63.499,148.990 63.199,148.948 63.040 C 148.906 62.880,148.874 63.050,148.875 63.417 M272.333 65.417 C 272.644 65.737,272.936 66.000,272.982 66.000 C 273.028 66.000,272.811 65.737,272.500 65.417 C 272.189 65.096,271.897 64.833,271.851 64.833 C 271.805 64.833,272.022 65.096,272.333 65.417 M290.000 66.583 C 290.775 67.362,291.447 68.000,291.493 68.000 C 291.538 68.000,290.942 67.362,290.167 66.583 C 289.392 65.804,288.720 65.167,288.674 65.167 C 288.628 65.167,289.225 65.804,290.000 66.583 M151.042 65.782 C 151.202 65.823,151.465 65.823,151.625 65.782 C 151.785 65.740,151.654 65.705,151.333 65.705 C 151.012 65.705,150.881 65.740,151.042 65.782 M235.064 67.583 C 235.064 68.683,235.091 69.112,235.124 68.535 C 235.156 67.959,235.156 67.059,235.123 66.535 C 235.090 66.012,235.063 66.483,235.064 67.583 M239.875 69.583 C 239.877 69.950,239.911 70.080,239.951 69.873 C 239.991 69.666,239.990 69.366,239.948 69.206 C 239.906 69.047,239.874 69.217,239.875 69.583 M292.500 69.219 C 292.500 69.248,292.744 69.491,293.042 69.760 L 293.583 70.250 293.094 69.708 C 292.638 69.203,292.500 69.090,292.500 69.219 M276.205 70.333 C 276.205 70.654,276.240 70.785,276.282 70.625 C 276.323 70.465,276.323 70.202,276.282 70.042 C 276.240 69.881,276.205 70.012,276.205 70.333 M281.218 72.417 C 281.219 72.967,281.250 73.172,281.287 72.872 C 281.325 72.572,281.324 72.122,281.286 71.872 C 281.248 71.622,281.217 71.867,281.218 72.417 M170.824 80.625 L 170.250 81.250 170.875 80.676 C 171.219 80.360,171.500 80.078,171.500 80.051 C 171.500 79.923,171.359 80.043,170.824 80.625 M168.573 82.708 L 168.083 83.250 168.625 82.760 C 168.923 82.491,169.167 82.248,169.167 82.219 C 169.167 82.090,169.029 82.203,168.573 82.708 M170.330 87.792 L 168.750 89.417 170.375 87.837 C 171.884 86.369,172.076 86.167,171.955 86.167 C 171.930 86.167,171.199 86.898,170.330 87.792 M164.240 87.042 L 163.750 87.583 164.292 87.094 C 164.590 86.825,164.833 86.581,164.833 86.552 C 164.833 86.423,164.696 86.537,164.240 87.042 M230.910 89.542 L 230.083 90.417 230.958 89.590 C 231.440 89.135,231.833 88.741,231.833 88.715 C 231.833 88.590,231.679 88.729,230.910 89.542 M186.167 90.385 C 186.167 90.414,186.410 90.658,186.708 90.927 L 187.250 91.417 186.760 90.875 C 186.304 90.370,186.167 90.257,186.167 90.385 M207.292 99.290 C 207.773 99.323,208.560 99.323,209.042 99.290 C 209.523 99.256,209.129 99.228,208.167 99.228 C 207.204 99.228,206.810 99.256,207.292 99.290 M92.879 120.000 C 92.879 120.412,92.911 120.581,92.951 120.375 C 92.991 120.169,92.991 119.831,92.951 119.625 C 92.911 119.419,92.879 119.587,92.879 120.000 M97.731 124.000 C 97.731 125.146,97.758 125.615,97.790 125.042 C 97.823 124.469,97.823 123.531,97.790 122.958 C 97.758 122.385,97.731 122.854,97.731 124.000 M92.879 129.167 C 92.879 129.579,92.911 129.748,92.951 129.542 C 92.991 129.335,92.991 128.998,92.951 128.792 C 92.911 128.585,92.879 128.754,92.879 129.167 M97.875 129.417 C 97.877 129.783,97.911 129.914,97.951 129.706 C 97.991 129.499,97.990 129.199,97.948 129.040 C 97.906 128.880,97.874 129.050,97.875 129.417 M93.039 131.333 C 93.039 131.654,93.073 131.785,93.115 131.625 C 93.157 131.465,93.157 131.202,93.115 131.042 C 93.073 130.881,93.039 131.012,93.039 131.333 M147.583 143.000 C 147.941 143.367,148.272 143.667,148.318 143.667 C 148.363 143.667,148.108 143.367,147.750 143.000 C 147.392 142.633,147.062 142.333,147.016 142.333 C 146.970 142.333,147.225 142.633,147.583 143.000 M172.750 150.500 C 173.387 151.142,173.945 151.667,173.991 151.667 C 174.037 151.667,173.553 151.142,172.917 150.500 C 172.280 149.858,171.721 149.333,171.676 149.333 C 171.630 149.333,172.113 149.858,172.750 150.500 M84.302 164.958 C 85.706 164.986,87.956 164.986,89.302 164.958 C 90.648 164.930,89.500 164.907,86.750 164.907 C 84.000 164.907,82.898 164.930,84.302 164.958 M75.628 165.121 C 75.928 165.158,76.378 165.157,76.628 165.119 C 76.878 165.081,76.633 165.051,76.083 165.052 C 75.533 165.053,75.328 165.084,75.628 165.121 M96.292 165.121 C 96.590 165.158,97.077 165.158,97.375 165.121 C 97.673 165.084,97.429 165.053,96.833 165.053 C 96.237 165.053,95.994 165.084,96.292 165.121 M65.294 165.618 C 65.501 165.658,65.801 165.656,65.960 165.615 C 66.120 165.573,65.950 165.540,65.583 165.542 C 65.217 165.544,65.086 165.578,65.294 165.618 M62.375 165.782 C 62.535 165.823,62.798 165.823,62.958 165.782 C 63.119 165.740,62.987 165.705,62.667 165.705 C 62.346 165.705,62.215 165.740,62.375 165.782 M83.542 169.791 C 84.985 169.819,87.348 169.819,88.792 169.791 C 90.235 169.764,89.054 169.741,86.167 169.741 C 83.279 169.741,82.098 169.764,83.542 169.791 M75.377 169.953 C 75.631 169.991,76.006 169.990,76.211 169.951 C 76.416 169.911,76.208 169.880,75.750 169.881 C 75.292 169.882,75.124 169.915,75.377 169.953 M97.295 169.954 C 97.594 169.991,98.044 169.990,98.295 169.952 C 98.545 169.914,98.300 169.884,97.750 169.885 C 97.200 169.886,96.995 169.917,97.295 169.954 M70.958 170.118 C 71.165 170.157,71.502 170.157,71.708 170.118 C 71.915 170.078,71.746 170.045,71.333 170.045 C 70.921 170.045,70.752 170.078,70.958 170.118 M101.625 170.118 C 101.831 170.157,102.169 170.157,102.375 170.118 C 102.581 170.078,102.412 170.045,102.000 170.045 C 101.587 170.045,101.419 170.078,101.625 170.118 M67.875 170.282 C 68.035 170.323,68.298 170.323,68.458 170.282 C 68.619 170.240,68.487 170.205,68.167 170.205 C 67.846 170.205,67.715 170.240,67.875 170.282 M103.711 170.286 C 103.964 170.325,104.339 170.324,104.544 170.284 C 104.749 170.244,104.542 170.213,104.083 170.214 C 103.625 170.216,103.457 170.248,103.711 170.286 M65.542 170.448 C 65.702 170.490,65.965 170.490,66.125 170.448 C 66.285 170.406,66.154 170.372,65.833 170.372 C 65.512 170.372,65.381 170.406,65.542 170.448 M313.714 175.250 C 313.716 175.708,313.748 175.876,313.786 175.623 C 313.825 175.369,313.824 174.994,313.784 174.789 C 313.744 174.584,313.713 174.792,313.714 175.250 M276.711 177.286 C 276.964 177.325,277.339 177.324,277.544 177.284 C 277.749 177.244,277.542 177.213,277.083 177.214 C 276.625 177.216,276.457 177.248,276.711 177.286 M50.042 179.956 C 50.569 179.990,51.431 179.990,51.958 179.956 C 52.485 179.923,52.054 179.896,51.000 179.896 C 49.946 179.896,49.515 179.923,50.042 179.956 M54.794 180.118 C 55.001 180.158,55.301 180.156,55.460 180.115 C 55.620 180.073,55.450 180.040,55.083 180.042 C 54.717 180.044,54.586 180.078,54.794 180.118 M313.705 180.500 C 313.705 180.821,313.740 180.952,313.782 180.792 C 313.823 180.631,313.823 180.369,313.782 180.208 C 313.740 180.048,313.705 180.179,313.705 180.500 M357.542 180.953 C 357.794 180.991,358.206 180.991,358.458 180.953 C 358.710 180.915,358.504 180.883,358.000 180.883 C 357.496 180.883,357.290 180.915,357.542 180.953 M278.542 182.121 C 278.885 182.157,279.448 182.157,279.792 182.121 C 280.135 182.085,279.854 182.056,279.167 182.056 C 278.479 182.056,278.198 182.085,278.542 182.121 M282.455 182.120 C 282.750 182.157,283.275 182.158,283.621 182.122 C 283.967 182.086,283.725 182.055,283.083 182.055 C 282.442 182.054,282.159 182.083,282.455 182.120 M275.708 182.282 C 275.869 182.323,276.131 182.323,276.292 182.282 C 276.452 182.240,276.321 182.205,276.000 182.205 C 275.679 182.205,275.548 182.240,275.708 182.282 M286.042 182.282 C 286.202 182.323,286.465 182.323,286.625 182.282 C 286.785 182.240,286.654 182.205,286.333 182.205 C 286.012 182.205,285.881 182.240,286.042 182.282 M239.208 183.282 C 239.369 183.323,239.631 183.323,239.792 183.282 C 239.952 183.240,239.821 183.205,239.500 183.205 C 239.179 183.205,239.048 183.240,239.208 183.282 M242.125 183.287 C 242.423 183.324,242.910 183.324,243.208 183.287 C 243.506 183.250,243.262 183.220,242.667 183.220 C 242.071 183.220,241.827 183.250,242.125 183.287 M370.326 188.208 C 371.017 188.944,371.167 189.077,371.167 188.951 C 371.167 188.925,370.810 188.568,370.375 188.160 L 369.583 187.417 370.326 188.208 M238.292 188.118 C 238.498 188.157,238.835 188.157,239.042 188.118 C 239.248 188.078,239.079 188.045,238.667 188.045 C 238.254 188.045,238.085 188.078,238.292 188.118 M364.833 189.583 C 365.331 190.088,365.776 190.500,365.822 190.500 C 365.868 190.500,365.498 190.088,365.000 189.583 C 364.502 189.079,364.057 188.667,364.011 188.667 C 363.966 188.667,364.335 189.079,364.833 189.583 M341.042 189.288 C 341.385 189.324,341.948 189.324,342.292 189.288 C 342.635 189.252,342.354 189.223,341.667 189.223 C 340.979 189.223,340.698 189.252,341.042 189.288 M129.750 192.167 C 130.108 192.533,130.438 192.833,130.484 192.833 C 130.530 192.833,130.275 192.533,129.917 192.167 C 129.559 191.800,129.228 191.500,129.182 191.500 C 129.137 191.500,129.392 191.800,129.750 192.167 M119.875 192.115 C 120.035 192.157,120.298 192.157,120.458 192.115 C 120.619 192.073,120.487 192.039,120.167 192.039 C 119.846 192.039,119.715 192.073,119.875 192.115 M104.128 193.787 C 104.428 193.825,104.878 193.824,105.128 193.786 C 105.378 193.748,105.133 193.717,104.583 193.718 C 104.033 193.719,103.828 193.750,104.128 193.787 M126.750 196.333 C 127.108 196.700,127.438 197.000,127.484 197.000 C 127.530 197.000,127.275 196.700,126.917 196.333 C 126.559 195.967,126.228 195.667,126.182 195.667 C 126.137 195.667,126.392 195.967,126.750 196.333 M383.759 196.492 C 383.851 196.585,384.187 196.700,384.505 196.749 C 385.092 196.838,384.981 196.767,384.087 196.482 C 383.754 196.376,383.646 196.379,383.759 196.492 M140.711 198.453 C 140.964 198.491,141.339 198.490,141.544 198.451 C 141.749 198.411,141.542 198.380,141.083 198.381 C 140.625 198.382,140.457 198.415,140.711 198.453 M102.460 198.618 C 102.668 198.658,102.968 198.656,103.127 198.615 C 103.286 198.573,103.117 198.540,102.750 198.542 C 102.383 198.544,102.253 198.578,102.460 198.618 M143.375 198.615 C 143.535 198.657,143.798 198.657,143.958 198.615 C 144.119 198.573,143.987 198.539,143.667 198.539 C 143.346 198.539,143.215 198.573,143.375 198.615 M382.833 201.201 C 383.063 201.299,383.794 201.628,384.458 201.931 C 385.123 202.235,385.667 202.447,385.667 202.402 C 385.667 202.263,382.949 200.999,382.675 201.011 C 382.527 201.018,382.594 201.098,382.833 201.201 M8.250 202.000 C 8.608 202.367,8.938 202.667,8.984 202.667 C 9.030 202.667,8.775 202.367,8.417 202.000 C 8.059 201.633,7.728 201.333,7.682 201.333 C 7.637 201.333,7.892 201.633,8.250 202.000 M385.833 202.555 C 385.833 202.601,386.227 202.877,386.708 203.169 C 387.190 203.461,387.471 203.592,387.333 203.459 C 387.022 203.159,385.833 202.443,385.833 202.555 M141.625 203.451 C 141.831 203.491,142.169 203.491,142.375 203.451 C 142.581 203.411,142.412 203.379,142.000 203.379 C 141.587 203.379,141.419 203.411,141.625 203.451 M157.660 205.042 C 158.350 205.778,158.500 205.910,158.500 205.785 C 158.500 205.758,158.144 205.402,157.708 204.993 L 156.917 204.250 157.660 205.042 M315.958 205.625 C 317.815 205.652,320.852 205.652,322.708 205.625 C 324.565 205.598,323.046 205.576,319.333 205.576 C 315.621 205.576,314.102 205.598,315.958 205.625 M300.549 205.790 C 301.171 205.823,302.146 205.822,302.715 205.790 C 303.284 205.757,302.775 205.731,301.583 205.731 C 300.392 205.732,299.926 205.758,300.549 205.790 M331.458 205.787 C 331.756 205.824,332.244 205.824,332.542 205.787 C 332.840 205.750,332.596 205.720,332.000 205.720 C 331.404 205.720,331.160 205.750,331.458 205.787 M293.958 205.954 C 294.256 205.991,294.744 205.991,295.042 205.954 C 295.340 205.917,295.096 205.887,294.500 205.887 C 293.904 205.887,293.660 205.917,293.958 205.954 M336.461 205.954 C 336.761 205.991,337.211 205.990,337.461 205.952 C 337.712 205.914,337.467 205.884,336.917 205.885 C 336.367 205.886,336.162 205.917,336.461 205.954 M287.208 206.123 C 287.644 206.157,288.356 206.157,288.792 206.123 C 289.227 206.088,288.871 206.060,288.000 206.060 C 287.129 206.060,286.773 206.088,287.208 206.123 M340.127 206.118 C 340.334 206.158,340.634 206.156,340.794 206.115 C 340.953 206.073,340.783 206.040,340.417 206.042 C 340.050 206.044,339.920 206.078,340.127 206.118 M282.463 206.289 C 282.855 206.324,283.455 206.324,283.796 206.288 C 284.137 206.252,283.817 206.223,283.083 206.224 C 282.350 206.224,282.071 206.254,282.463 206.289 M278.708 206.448 C 278.869 206.490,279.131 206.490,279.292 206.448 C 279.452 206.406,279.321 206.372,279.000 206.372 C 278.679 206.372,278.548 206.406,278.708 206.448 M268.125 207.118 C 268.331 207.157,268.669 207.157,268.875 207.118 C 269.081 207.078,268.912 207.045,268.500 207.045 C 268.087 207.045,267.919 207.078,268.125 207.118 M154.000 208.417 C 154.311 208.737,154.603 209.000,154.649 209.000 C 154.695 209.000,154.478 208.737,154.167 208.417 C 153.856 208.096,153.564 207.833,153.518 207.833 C 153.472 207.833,153.689 208.096,154.000 208.417 M27.708 209.782 C 27.869 209.823,28.131 209.823,28.292 209.782 C 28.452 209.740,28.321 209.705,28.000 209.705 C 27.679 209.705,27.548 209.740,27.708 209.782 M30.621 209.954 C 30.917 209.990,31.442 209.991,31.788 209.955 C 32.134 209.919,31.892 209.889,31.250 209.888 C 30.608 209.887,30.325 209.917,30.621 209.954 M372.129 209.956 C 372.521 209.991,373.121 209.990,373.463 209.954 C 373.804 209.919,373.483 209.890,372.750 209.890 C 372.017 209.891,371.737 209.920,372.129 209.956 M34.292 210.118 C 34.498 210.157,34.835 210.157,35.042 210.118 C 35.248 210.078,35.079 210.045,34.667 210.045 C 34.254 210.045,34.085 210.078,34.292 210.118 M387.875 210.115 C 388.035 210.157,388.298 210.157,388.458 210.115 C 388.619 210.073,388.488 210.039,388.167 210.039 C 387.846 210.039,387.715 210.073,387.875 210.115 M36.958 210.284 C 37.165 210.324,37.502 210.324,37.708 210.284 C 37.915 210.245,37.746 210.212,37.333 210.212 C 36.921 210.212,36.752 210.245,36.958 210.284 M40.708 210.453 C 40.960 210.491,41.373 210.491,41.625 210.453 C 41.877 210.415,41.671 210.383,41.167 210.383 C 40.662 210.383,40.456 210.415,40.708 210.453 M92.958 210.457 C 93.531 210.489,94.469 210.489,95.042 210.457 C 95.615 210.424,95.146 210.398,94.000 210.398 C 92.854 210.398,92.385 210.424,92.958 210.457 M110.625 210.451 C 110.831 210.491,111.169 210.491,111.375 210.451 C 111.581 210.411,111.412 210.379,111.000 210.379 C 110.587 210.379,110.419 210.411,110.625 210.451 M46.792 210.623 C 47.273 210.657,48.060 210.657,48.542 210.623 C 49.023 210.589,48.629 210.562,47.667 210.562 C 46.704 210.562,46.310 210.589,46.792 210.623 M83.465 210.624 C 84.041 210.656,84.941 210.656,85.465 210.623 C 85.988 210.590,85.517 210.563,84.417 210.564 C 83.317 210.564,82.888 210.591,83.465 210.624 M305.631 210.623 C 306.115 210.657,306.865 210.656,307.297 210.622 C 307.730 210.588,307.333 210.560,306.417 210.561 C 305.500 210.561,305.146 210.589,305.631 210.623 M329.208 210.621 C 329.552 210.657,330.115 210.657,330.458 210.621 C 330.802 210.585,330.521 210.556,329.833 210.556 C 329.146 210.556,328.865 210.585,329.208 210.621 M55.213 210.789 C 55.652 210.824,56.327 210.823,56.713 210.788 C 57.100 210.754,56.742 210.725,55.917 210.726 C 55.092 210.726,54.775 210.755,55.213 210.789 M69.958 210.791 C 70.806 210.821,72.194 210.821,73.042 210.791 C 73.890 210.761,73.196 210.736,71.500 210.736 C 69.804 210.736,69.110 210.761,69.958 210.791 M196.875 210.782 C 197.035 210.823,197.298 210.823,197.458 210.782 C 197.619 210.740,197.487 210.705,197.167 210.705 C 196.846 210.705,196.715 210.740,196.875 210.782 M297.042 210.789 C 297.477 210.824,298.190 210.824,298.625 210.789 C 299.060 210.755,298.704 210.727,297.833 210.727 C 296.962 210.727,296.606 210.755,297.042 210.789 M335.292 210.784 C 335.498 210.824,335.835 210.824,336.042 210.784 C 336.248 210.745,336.079 210.712,335.667 210.712 C 335.254 210.712,335.085 210.745,335.292 210.784 M199.377 210.953 C 199.631 210.991,200.006 210.990,200.211 210.951 C 200.416 210.911,200.208 210.880,199.750 210.881 C 199.292 210.882,199.124 210.915,199.377 210.953 M291.542 210.955 C 291.885 210.991,292.448 210.991,292.792 210.955 C 293.135 210.919,292.854 210.889,292.167 210.889 C 291.479 210.889,291.198 210.919,291.542 210.955 M338.627 210.951 C 338.834 210.991,339.134 210.990,339.294 210.948 C 339.453 210.906,339.283 210.874,338.917 210.875 C 338.550 210.877,338.420 210.911,338.627 210.951 M202.708 211.115 C 202.869 211.157,203.131 211.157,203.292 211.115 C 203.452 211.073,203.321 211.039,203.000 211.039 C 202.679 211.039,202.548 211.073,202.708 211.115 M235.460 211.118 C 235.668 211.158,235.968 211.156,236.127 211.115 C 236.286 211.073,236.117 211.040,235.750 211.042 C 235.383 211.044,235.253 211.078,235.460 211.118 M286.542 211.119 C 286.794 211.158,287.206 211.158,287.458 211.119 C 287.710 211.081,287.504 211.050,287.000 211.050 C 286.496 211.050,286.290 211.081,286.542 211.119 M341.042 211.115 C 341.202 211.157,341.465 211.157,341.625 211.115 C 341.785 211.073,341.654 211.039,341.333 211.039 C 341.012 211.039,340.881 211.073,341.042 211.115 M206.125 211.284 C 206.331 211.324,206.669 211.324,206.875 211.284 C 207.081 211.245,206.912 211.212,206.500 211.212 C 206.088 211.212,205.919 211.245,206.125 211.284 M282.292 211.284 C 282.498 211.324,282.835 211.324,283.042 211.284 C 283.248 211.245,283.079 211.212,282.667 211.212 C 282.254 211.212,282.085 211.245,282.292 211.284 M209.542 211.448 C 209.702 211.490,209.965 211.490,210.125 211.448 C 210.285 211.406,210.154 211.372,209.833 211.372 C 209.512 211.372,209.381 211.406,209.542 211.448 M230.042 211.448 C 230.202 211.490,230.465 211.490,230.625 211.448 C 230.785 211.406,230.654 211.372,230.333 211.372 C 230.012 211.372,229.881 211.406,230.042 211.448 M278.544 211.453 C 278.797 211.491,279.172 211.490,279.377 211.451 C 279.582 211.411,279.375 211.380,278.917 211.381 C 278.458 211.382,278.291 211.415,278.544 211.453 M214.960 211.618 C 215.168 211.658,215.468 211.656,215.627 211.615 C 215.786 211.573,215.617 211.540,215.250 211.542 C 214.883 211.544,214.753 211.578,214.960 211.618 M225.875 211.615 C 226.035 211.657,226.298 211.657,226.458 211.615 C 226.619 211.573,226.487 211.539,226.167 211.539 C 225.846 211.539,225.715 211.573,225.875 211.615 M275.292 211.618 C 275.498 211.657,275.835 211.657,276.042 211.618 C 276.248 211.578,276.079 211.545,275.667 211.545 C 275.254 211.545,275.085 211.578,275.292 211.618 M127.460 211.785 C 127.668 211.824,127.968 211.823,128.127 211.781 C 128.286 211.739,128.117 211.707,127.750 211.709 C 127.383 211.711,127.253 211.745,127.460 211.785 M141.542 211.786 C 141.794 211.824,142.206 211.824,142.458 211.786 C 142.710 211.748,142.504 211.717,142.000 211.717 C 141.496 211.717,141.290 211.748,141.542 211.786 M272.292 211.784 C 272.498 211.824,272.835 211.824,273.042 211.784 C 273.248 211.745,273.079 211.712,272.667 211.712 C 272.254 211.712,272.085 211.745,272.292 211.784 M129.795 211.954 C 130.094 211.991,130.544 211.990,130.795 211.952 C 131.045 211.914,130.800 211.884,130.250 211.885 C 129.700 211.886,129.495 211.917,129.795 211.954 M139.127 211.951 C 139.334 211.991,139.634 211.990,139.794 211.948 C 139.953 211.906,139.783 211.874,139.417 211.875 C 139.050 211.877,138.920 211.911,139.127 211.951 M269.627 211.951 C 269.834 211.991,270.134 211.990,270.294 211.948 C 270.453 211.906,270.283 211.874,269.917 211.875 C 269.550 211.877,269.420 211.911,269.627 211.951 M267.294 212.118 C 267.501 212.158,267.801 212.156,267.960 212.115 C 268.120 212.073,267.950 212.040,267.583 212.042 C 267.217 212.044,267.086 212.078,267.294 212.118 M161.542 212.750 C 161.544 213.117,161.578 213.247,161.618 213.040 C 161.658 212.832,161.656 212.532,161.615 212.373 C 161.573 212.214,161.540 212.383,161.542 212.750 M29.294 214.785 C 29.501 214.824,29.801 214.823,29.960 214.781 C 30.120 214.739,29.950 214.707,29.583 214.709 C 29.217 214.711,29.086 214.745,29.294 214.785 M370.125 214.787 C 370.423 214.824,370.910 214.824,371.208 214.787 C 371.506 214.750,371.262 214.720,370.667 214.720 C 370.071 214.720,369.827 214.750,370.125 214.787 M32.044 214.953 C 32.297 214.991,32.672 214.990,32.877 214.951 C 33.082 214.911,32.875 214.880,32.417 214.881 C 31.958 214.882,31.791 214.915,32.044 214.953 M188.375 214.948 C 188.535 214.990,188.798 214.990,188.958 214.948 C 189.119 214.906,188.987 214.872,188.667 214.872 C 188.346 214.872,188.215 214.906,188.375 214.948 M374.958 214.956 C 375.440 214.990,376.227 214.990,376.708 214.956 C 377.190 214.923,376.796 214.895,375.833 214.895 C 374.871 214.895,374.477 214.923,374.958 214.956 M383.375 214.957 C 384.085 214.988,385.248 214.988,385.958 214.957 C 386.669 214.926,386.087 214.900,384.667 214.900 C 383.246 214.900,382.665 214.926,383.375 214.957 M36.044 215.120 C 36.297 215.158,36.672 215.157,36.877 215.117 C 37.082 215.078,36.875 215.046,36.417 215.048 C 35.958 215.049,35.791 215.081,36.044 215.120 M40.208 215.286 C 40.460 215.324,40.873 215.324,41.125 215.286 C 41.377 215.248,41.171 215.217,40.667 215.217 C 40.162 215.217,39.956 215.248,40.208 215.286 M96.625 215.291 C 97.565 215.321,99.102 215.321,100.042 215.291 C 100.981 215.261,100.212 215.237,98.333 215.237 C 96.454 215.237,95.685 215.261,96.625 215.291 M102.629 215.289 C 103.021 215.324,103.621 215.324,103.963 215.288 C 104.304 215.252,103.983 215.223,103.250 215.224 C 102.517 215.224,102.237 215.254,102.629 215.289 M109.625 215.289 C 110.015 215.324,110.652 215.324,111.042 215.289 C 111.431 215.254,111.112 215.225,110.333 215.225 C 109.554 215.225,109.235 215.254,109.625 215.289 M45.042 215.453 C 45.294 215.491,45.706 215.491,45.958 215.453 C 46.210 215.415,46.004 215.383,45.500 215.383 C 44.996 215.383,44.790 215.415,45.042 215.453 M86.213 215.456 C 86.652 215.490,87.327 215.490,87.713 215.455 C 88.100 215.420,87.742 215.392,86.917 215.392 C 86.092 215.393,85.775 215.422,86.213 215.456 M114.375 215.448 C 114.535 215.490,114.798 215.490,114.958 215.448 C 115.119 215.406,114.987 215.372,114.667 215.372 C 114.346 215.372,114.215 215.406,114.375 215.448 M51.297 215.623 C 51.782 215.657,52.532 215.656,52.964 215.622 C 53.396 215.588,53.000 215.560,52.083 215.561 C 51.167 215.561,50.813 215.589,51.297 215.623 M76.542 215.621 C 76.885 215.657,77.448 215.657,77.792 215.621 C 78.135 215.585,77.854 215.556,77.167 215.556 C 76.479 215.556,76.198 215.585,76.542 215.621 M198.375 215.782 C 198.535 215.823,198.798 215.823,198.958 215.782 C 199.119 215.740,198.987 215.705,198.667 215.705 C 198.346 215.705,198.215 215.740,198.375 215.782 M200.877 215.953 C 201.131 215.991,201.506 215.990,201.711 215.951 C 201.916 215.911,201.708 215.880,201.250 215.881 C 200.792 215.882,200.624 215.915,200.877 215.953 M236.794 215.951 C 237.001 215.991,237.301 215.990,237.460 215.948 C 237.620 215.906,237.450 215.874,237.083 215.875 C 236.717 215.877,236.586 215.911,236.794 215.951 M203.958 216.118 C 204.165 216.157,204.502 216.157,204.708 216.118 C 204.915 216.078,204.746 216.045,204.333 216.045 C 203.921 216.045,203.752 216.078,203.958 216.118 M234.542 216.115 C 234.702 216.157,234.965 216.157,235.125 216.115 C 235.285 216.073,235.154 216.039,234.833 216.039 C 234.512 216.039,234.381 216.073,234.542 216.115 M207.792 216.284 C 207.998 216.324,208.335 216.324,208.542 216.284 C 208.748 216.245,208.579 216.212,208.167 216.212 C 207.754 216.212,207.585 216.245,207.792 216.284 M231.460 216.285 C 231.668 216.324,231.968 216.323,232.127 216.281 C 232.286 216.239,232.117 216.207,231.750 216.209 C 231.383 216.211,231.253 216.245,231.460 216.285 M212.288 216.454 C 212.584 216.490,213.109 216.491,213.455 216.455 C 213.800 216.419,213.558 216.389,212.917 216.388 C 212.275 216.387,211.992 216.417,212.288 216.454 M227.208 216.453 C 227.460 216.491,227.873 216.491,228.125 216.453 C 228.377 216.415,228.171 216.383,227.667 216.383 C 227.162 216.383,226.956 216.415,227.208 216.453 M142.708 216.619 C 142.960 216.658,143.373 216.658,143.625 216.619 C 143.877 216.581,143.671 216.550,143.167 216.550 C 142.662 216.550,142.456 216.581,142.708 216.619 M129.042 216.786 C 129.294 216.824,129.706 216.824,129.958 216.786 C 130.210 216.748,130.004 216.717,129.500 216.717 C 128.996 216.717,128.790 216.748,129.042 216.786 M139.625 216.784 C 139.831 216.824,140.169 216.824,140.375 216.784 C 140.581 216.745,140.412 216.712,140.000 216.712 C 139.587 216.712,139.419 216.745,139.625 216.784 " stroke="none" fill="#979797" fill-rule="evenodd"></path><path id="path3" d="M206.794 4.118 C 207.001 4.158,207.301 4.156,207.460 4.115 C 207.620 4.073,207.450 4.040,207.083 4.042 C 206.717 4.044,206.586 4.078,206.794 4.118 M184.406 13.708 L 183.917 14.250 184.458 13.760 C 184.963 13.304,185.077 13.167,184.948 13.167 C 184.919 13.167,184.675 13.410,184.406 13.708 M181.158 16.625 L 180.583 17.250 181.208 16.676 C 181.790 16.141,181.910 16.000,181.783 16.000 C 181.755 16.000,181.474 16.281,181.158 16.625 M176.830 20.958 L 175.250 22.583 176.875 21.003 C 177.769 20.134,178.500 19.403,178.500 19.378 C 178.500 19.258,178.298 19.449,176.830 20.958 M181.497 22.958 L 179.917 24.583 181.542 23.003 C 183.051 21.536,183.242 21.333,183.122 21.333 C 183.097 21.333,182.366 22.065,181.497 22.958 M208.875 21.615 C 209.035 21.657,209.298 21.657,209.458 21.615 C 209.619 21.573,209.487 21.539,209.167 21.539 C 208.846 21.539,208.715 21.573,208.875 21.615 M262.326 42.542 C 263.017 43.278,263.167 43.410,263.167 43.285 C 263.167 43.258,262.810 42.902,262.375 42.493 L 261.583 41.750 262.326 42.542 M275.627 52.451 C 275.834 52.491,276.134 52.490,276.294 52.448 C 276.453 52.406,276.283 52.374,275.917 52.375 C 275.550 52.377,275.420 52.411,275.627 52.451 M269.493 54.708 C 270.184 55.444,270.333 55.577,270.333 55.451 C 270.333 55.425,269.977 55.068,269.542 54.660 L 268.750 53.917 269.493 54.708 M289.875 57.917 C 289.877 58.283,289.911 58.414,289.951 58.206 C 289.991 57.999,289.990 57.699,289.948 57.540 C 289.906 57.380,289.874 57.550,289.875 57.917 M267.333 59.219 C 267.333 59.248,267.577 59.491,267.875 59.760 L 268.417 60.250 267.927 59.708 C 267.471 59.203,267.333 59.090,267.333 59.219 M294.833 64.583 C 295.331 65.087,295.776 65.500,295.822 65.500 C 295.868 65.500,295.498 65.087,295.000 64.583 C 294.502 64.079,294.057 63.667,294.011 63.667 C 293.966 63.667,294.335 64.079,294.833 64.583 M239.896 67.250 C 239.896 68.258,239.924 68.649,239.957 68.119 C 239.990 67.588,239.990 66.763,239.956 66.286 C 239.922 65.808,239.895 66.242,239.896 67.250 M111.658 67.292 L 111.083 67.917 111.708 67.342 C 112.290 66.808,112.410 66.667,112.283 66.667 C 112.255 66.667,111.974 66.948,111.658 67.292 M281.045 70.500 C 281.045 70.912,281.078 71.081,281.118 70.875 C 281.157 70.669,281.157 70.331,281.118 70.125 C 281.078 69.919,281.045 70.087,281.045 70.500 M276.389 72.500 C 276.389 73.188,276.419 73.469,276.455 73.125 C 276.491 72.781,276.491 72.219,276.455 71.875 C 276.419 71.531,276.389 71.813,276.389 72.500 M281.039 74.167 C 281.039 74.487,281.073 74.619,281.115 74.458 C 281.157 74.298,281.157 74.035,281.115 73.875 C 281.073 73.715,281.039 73.846,281.039 74.167 M173.158 78.458 L 172.583 79.083 173.208 78.509 C 173.552 78.193,173.833 77.912,173.833 77.884 C 173.833 77.757,173.692 77.877,173.158 78.458 M171.824 79.792 L 171.250 80.417 171.875 79.842 C 172.219 79.526,172.500 79.245,172.500 79.217 C 172.500 79.090,172.359 79.210,171.824 79.792 M176.740 81.542 L 176.250 82.083 176.792 81.594 C 177.090 81.325,177.333 81.081,177.333 81.052 C 177.333 80.923,177.196 81.037,176.740 81.542 M174.577 83.708 L 173.750 84.583 174.625 83.756 C 175.106 83.301,175.500 82.908,175.500 82.881 C 175.500 82.757,175.346 82.895,174.577 83.708 M166.496 84.792 L 165.083 86.250 166.542 84.837 C 167.344 84.060,168.000 83.404,168.000 83.379 C 168.000 83.257,167.809 83.437,166.496 84.792 M188.917 86.333 C 189.461 86.883,189.944 87.333,189.990 87.333 C 190.035 87.333,189.628 86.883,189.083 86.333 C 188.539 85.783,188.056 85.333,188.010 85.333 C 187.965 85.333,188.372 85.783,188.917 86.333 M227.077 86.542 L 226.250 87.417 227.125 86.590 C 227.606 86.135,228.000 85.741,228.000 85.715 C 228.000 85.590,227.846 85.729,227.077 86.542 M207.464 94.456 C 207.948 94.490,208.698 94.490,209.131 94.456 C 209.563 94.421,209.167 94.394,208.250 94.394 C 207.333 94.395,206.980 94.423,207.464 94.456 M269.055 95.417 C 269.055 96.058,269.086 96.300,269.122 95.955 C 269.158 95.609,269.157 95.084,269.120 94.788 C 269.083 94.492,269.054 94.775,269.055 95.417 M312.208 116.282 C 312.369 116.323,312.631 116.323,312.792 116.282 C 312.952 116.240,312.821 116.205,312.500 116.205 C 312.179 116.205,312.048 116.240,312.208 116.282 M93.039 118.500 C 93.039 118.821,93.073 118.952,93.115 118.792 C 93.157 118.631,93.157 118.369,93.115 118.208 C 93.073 118.048,93.039 118.179,93.039 118.500 M92.887 122.167 C 92.887 122.763,92.917 123.006,92.954 122.708 C 92.991 122.410,92.991 121.923,92.954 121.625 C 92.917 121.327,92.887 121.571,92.887 122.167 M92.889 126.833 C 92.889 127.521,92.919 127.802,92.955 127.458 C 92.991 127.115,92.991 126.552,92.955 126.208 C 92.919 125.865,92.889 126.146,92.889 126.833 M97.717 127.333 C 97.717 127.837,97.748 128.044,97.786 127.792 C 97.824 127.540,97.824 127.127,97.786 126.875 C 97.748 126.623,97.717 126.829,97.717 127.333 M148.214 130.750 C 148.216 131.208,148.248 131.376,148.286 131.123 C 148.325 130.869,148.324 130.494,148.284 130.289 C 148.244 130.084,148.213 130.292,148.214 130.750 M169.250 153.833 C 169.608 154.200,169.938 154.500,169.984 154.500 C 170.030 154.500,169.775 154.200,169.417 153.833 C 169.059 153.467,168.728 153.167,168.682 153.167 C 168.637 153.167,168.892 153.467,169.250 153.833 M78.125 165.118 C 78.331 165.157,78.669 165.157,78.875 165.118 C 79.081 165.078,78.912 165.045,78.500 165.045 C 78.087 165.045,77.919 165.078,78.125 165.118 M94.125 165.118 C 94.331 165.157,94.669 165.157,94.875 165.118 C 95.081 165.078,94.912 165.045,94.500 165.045 C 94.087 165.045,93.919 165.078,94.125 165.118 M72.875 165.282 C 73.035 165.323,73.298 165.323,73.458 165.282 C 73.619 165.240,73.487 165.205,73.167 165.205 C 72.846 165.205,72.715 165.240,72.875 165.282 M99.792 165.284 C 99.998 165.324,100.335 165.324,100.542 165.284 C 100.748 165.245,100.579 165.212,100.167 165.212 C 99.754 165.212,99.585 165.245,99.792 165.284 M61.375 165.948 C 61.535 165.990,61.798 165.990,61.958 165.948 C 62.119 165.906,61.987 165.872,61.667 165.872 C 61.346 165.872,61.215 165.906,61.375 165.948 M78.208 169.790 C 78.735 169.823,79.598 169.823,80.125 169.790 C 80.652 169.757,80.221 169.730,79.167 169.730 C 78.112 169.730,77.681 169.757,78.208 169.790 M92.465 169.790 C 93.041 169.823,93.941 169.823,94.465 169.790 C 94.988 169.757,94.517 169.730,93.417 169.730 C 92.317 169.731,91.888 169.758,92.465 169.790 M73.625 169.951 C 73.831 169.991,74.169 169.991,74.375 169.951 C 74.581 169.911,74.412 169.879,74.000 169.879 C 73.587 169.879,73.419 169.911,73.625 169.951 M99.208 169.953 C 99.460 169.991,99.873 169.991,100.125 169.953 C 100.377 169.915,100.171 169.883,99.667 169.883 C 99.162 169.883,98.956 169.915,99.208 169.953 M69.708 170.115 C 69.869 170.157,70.131 170.157,70.292 170.115 C 70.452 170.073,70.321 170.039,70.000 170.039 C 69.679 170.039,69.548 170.073,69.708 170.115 M308.833 178.617 C 308.787 180.469,308.808 181.926,308.879 181.855 C 308.949 181.784,308.987 180.269,308.962 178.488 L 308.916 175.250 308.833 178.617 M313.727 178.167 C 313.727 179.037,313.755 179.394,313.789 178.958 C 313.824 178.523,313.824 177.810,313.789 177.375 C 313.755 176.940,313.727 177.296,313.727 178.167 M278.621 177.287 C 278.917 177.324,279.442 177.324,279.788 177.288 C 280.134 177.252,279.892 177.222,279.250 177.221 C 278.608 177.221,278.325 177.250,278.621 177.287 M283.125 177.284 C 283.331 177.324,283.669 177.324,283.875 177.284 C 284.081 177.245,283.912 177.212,283.500 177.212 C 283.087 177.212,282.919 177.245,283.125 177.284 M275.375 177.448 C 275.535 177.490,275.798 177.490,275.958 177.448 C 276.119 177.406,275.987 177.372,275.667 177.372 C 275.346 177.372,275.215 177.406,275.375 177.448 M286.542 177.448 C 286.702 177.490,286.965 177.490,287.125 177.448 C 287.285 177.406,287.154 177.372,286.833 177.372 C 286.512 177.372,286.381 177.406,286.542 177.448 M284.708 182.115 C 284.869 182.157,285.131 182.157,285.292 182.115 C 285.452 182.073,285.321 182.039,285.000 182.039 C 284.679 182.039,284.548 182.073,284.708 182.115 M50.215 184.790 C 50.838 184.823,51.813 184.822,52.382 184.790 C 52.951 184.757,52.442 184.731,51.250 184.731 C 50.058 184.732,49.593 184.758,50.215 184.790 M368.083 186.000 C 368.535 186.458,368.942 186.833,368.987 186.833 C 369.033 186.833,368.701 186.458,368.250 186.000 C 367.799 185.542,367.392 185.167,367.346 185.167 C 367.300 185.167,367.632 185.542,368.083 186.000 M347.406 187.542 L 346.917 188.083 347.458 187.594 C 347.963 187.138,348.077 187.000,347.948 187.000 C 347.919 187.000,347.675 187.244,347.406 187.542 M119.708 187.286 C 119.960 187.324,120.373 187.324,120.625 187.286 C 120.877 187.248,120.671 187.217,120.167 187.217 C 119.662 187.217,119.456 187.248,119.708 187.286 M240.708 188.123 C 241.144 188.157,241.856 188.157,242.292 188.123 C 242.727 188.088,242.371 188.060,241.500 188.060 C 240.629 188.060,240.273 188.088,240.708 188.123 M371.250 189.333 C 371.608 189.700,371.938 190.000,371.984 190.000 C 372.030 190.000,371.775 189.700,371.417 189.333 C 371.059 188.967,370.728 188.667,370.682 188.667 C 370.637 188.667,370.892 188.967,371.250 189.333 M366.333 191.083 C 366.644 191.404,366.936 191.667,366.982 191.667 C 367.028 191.667,366.811 191.404,366.500 191.083 C 366.189 190.762,365.897 190.500,365.851 190.500 C 365.805 190.500,366.022 190.762,366.333 191.083 M340.964 194.123 C 341.448 194.157,342.198 194.156,342.631 194.122 C 343.063 194.088,342.667 194.060,341.750 194.061 C 340.833 194.061,340.480 194.089,340.964 194.123 M129.083 198.833 C 129.441 199.200,129.772 199.500,129.818 199.500 C 129.863 199.500,129.608 199.200,129.250 198.833 C 128.892 198.467,128.562 198.167,128.516 198.167 C 128.470 198.167,128.725 198.467,129.083 198.833 M104.288 198.620 C 104.584 198.657,105.109 198.658,105.455 198.622 C 105.800 198.586,105.558 198.555,104.917 198.555 C 104.275 198.554,103.992 198.583,104.288 198.620 M142.125 198.618 C 142.331 198.657,142.669 198.657,142.875 198.618 C 143.081 198.578,142.912 198.545,142.500 198.545 C 142.087 198.545,141.919 198.578,142.125 198.618 M386.583 199.643 C 387.042 200.128,387.567 200.605,387.750 200.702 C 387.933 200.799,388.046 200.846,388.000 200.806 C 387.954 200.766,387.429 200.289,386.833 199.747 L 385.750 198.760 386.583 199.643 M140.208 203.282 C 140.369 203.323,140.631 203.323,140.792 203.282 C 140.952 203.240,140.821 203.205,140.500 203.205 C 140.179 203.205,140.048 203.240,140.208 203.282 M156.500 204.083 C 156.811 204.404,157.103 204.667,157.149 204.667 C 157.195 204.667,156.978 204.404,156.667 204.083 C 156.356 203.762,156.064 203.500,156.018 203.500 C 155.972 203.500,156.189 203.762,156.500 204.083 M397.833 205.250 C 398.144 205.571,398.436 205.833,398.482 205.833 C 398.528 205.833,398.311 205.571,398.000 205.250 C 397.689 204.929,397.397 204.667,397.351 204.667 C 397.305 204.667,397.522 204.929,397.833 205.250 M4.917 205.667 C 5.275 206.033,5.605 206.333,5.651 206.333 C 5.697 206.333,5.441 206.033,5.083 205.667 C 4.725 205.300,4.395 205.000,4.349 205.000 C 4.303 205.000,4.559 205.300,4.917 205.667 M306.380 205.789 C 306.818 205.824,307.493 205.823,307.880 205.788 C 308.267 205.754,307.908 205.725,307.083 205.726 C 306.258 205.726,305.942 205.755,306.380 205.789 M328.877 205.786 C 329.131 205.825,329.506 205.824,329.711 205.784 C 329.916 205.744,329.708 205.713,329.250 205.714 C 328.792 205.716,328.624 205.748,328.877 205.786 M296.375 205.956 C 296.810 205.990,297.523 205.990,297.958 205.956 C 298.394 205.922,298.037 205.893,297.167 205.893 C 296.296 205.893,295.940 205.922,296.375 205.956 M334.461 205.954 C 334.761 205.991,335.211 205.990,335.461 205.952 C 335.712 205.914,335.467 205.884,334.917 205.885 C 334.367 205.886,334.162 205.917,334.461 205.954 M290.961 206.121 C 291.261 206.158,291.711 206.157,291.961 206.119 C 292.212 206.081,291.967 206.051,291.417 206.052 C 290.867 206.053,290.662 206.084,290.961 206.121 M338.292 206.118 C 338.498 206.157,338.835 206.157,339.042 206.118 C 339.248 206.078,339.079 206.045,338.667 206.045 C 338.254 206.045,338.085 206.078,338.292 206.118 M285.208 206.286 C 285.460 206.324,285.873 206.324,286.125 206.286 C 286.377 206.248,286.171 206.217,285.667 206.217 C 285.162 206.217,284.956 206.248,285.208 206.286 M280.125 206.451 C 280.331 206.491,280.669 206.491,280.875 206.451 C 281.081 206.411,280.912 206.379,280.500 206.379 C 280.087 206.379,279.919 206.411,280.125 206.451 M274.294 206.785 C 274.501 206.824,274.801 206.823,274.960 206.781 C 275.120 206.739,274.950 206.707,274.583 206.709 C 274.217 206.711,274.086 206.745,274.294 206.785 M271.708 206.948 C 271.869 206.990,272.131 206.990,272.292 206.948 C 272.452 206.906,272.321 206.872,272.000 206.872 C 271.679 206.872,271.548 206.906,271.708 206.948 M269.375 207.115 C 269.535 207.157,269.798 207.157,269.958 207.115 C 270.119 207.073,269.987 207.039,269.667 207.039 C 269.346 207.039,269.215 207.073,269.375 207.115 M267.042 207.282 C 267.202 207.323,267.465 207.323,267.625 207.282 C 267.785 207.240,267.654 207.205,267.333 207.205 C 267.012 207.205,266.881 207.240,267.042 207.282 M370.458 209.951 C 370.665 209.991,371.002 209.991,371.208 209.951 C 371.415 209.911,371.246 209.879,370.833 209.879 C 370.421 209.879,370.252 209.911,370.458 209.951 M32.875 210.115 C 33.035 210.157,33.298 210.157,33.458 210.115 C 33.619 210.073,33.487 210.039,33.167 210.039 C 32.846 210.039,32.715 210.073,32.875 210.115 M188.375 210.115 C 188.535 210.157,188.798 210.157,188.958 210.115 C 189.119 210.073,188.987 210.039,188.667 210.039 C 188.346 210.039,188.215 210.073,188.375 210.115 M375.125 210.123 C 375.606 210.157,376.394 210.157,376.875 210.123 C 377.356 210.089,376.962 210.062,376.000 210.062 C 375.037 210.062,374.644 210.089,375.125 210.123 M382.550 210.124 C 383.449 210.154,384.874 210.154,385.717 210.124 C 386.560 210.094,385.825 210.069,384.083 210.069 C 382.342 210.070,381.652 210.094,382.550 210.124 M38.960 210.451 C 39.168 210.491,39.468 210.490,39.627 210.448 C 39.786 210.406,39.617 210.374,39.250 210.375 C 38.883 210.377,38.753 210.411,38.960 210.451 M99.875 210.458 C 101.410 210.486,103.923 210.486,105.458 210.458 C 106.994 210.431,105.737 210.408,102.667 210.408 C 99.596 210.408,98.340 210.431,99.875 210.458 M315.386 210.458 C 317.386 210.485,320.611 210.485,322.553 210.458 C 324.495 210.431,322.858 210.410,318.917 210.410 C 314.975 210.410,313.386 210.432,315.386 210.458 M43.792 210.621 C 44.090 210.658,44.577 210.658,44.875 210.621 C 45.173 210.584,44.929 210.553,44.333 210.553 C 43.737 210.553,43.494 210.584,43.792 210.621 M88.121 210.620 C 88.417 210.657,88.942 210.658,89.288 210.622 C 89.634 210.586,89.392 210.555,88.750 210.555 C 88.108 210.554,87.825 210.583,88.121 210.620 M302.047 210.623 C 302.485 210.657,303.160 210.657,303.547 210.622 C 303.934 210.587,303.575 210.559,302.750 210.559 C 301.925 210.560,301.609 210.588,302.047 210.623 M331.875 210.619 C 332.127 210.658,332.540 210.658,332.792 210.619 C 333.044 210.581,332.837 210.550,332.333 210.550 C 331.829 210.550,331.623 210.581,331.875 210.619 M51.621 210.787 C 51.917 210.824,52.442 210.824,52.788 210.788 C 53.134 210.752,52.892 210.722,52.250 210.721 C 51.608 210.721,51.325 210.750,51.621 210.787 M75.628 210.787 C 75.928 210.825,76.378 210.824,76.628 210.786 C 76.878 210.748,76.633 210.717,76.083 210.718 C 75.533 210.719,75.328 210.750,75.628 210.787 M77.628 210.787 C 77.928 210.825,78.378 210.824,78.628 210.786 C 78.878 210.748,78.633 210.717,78.083 210.718 C 77.533 210.719,77.328 210.750,77.628 210.787 M294.621 210.787 C 294.917 210.824,295.442 210.824,295.788 210.788 C 296.134 210.752,295.892 210.722,295.250 210.721 C 294.608 210.721,294.325 210.750,294.621 210.787 M336.875 210.782 C 337.035 210.823,337.298 210.823,337.458 210.782 C 337.619 210.740,337.487 210.705,337.167 210.705 C 336.846 210.705,336.715 210.740,336.875 210.782 M393.627 210.785 C 393.834 210.824,394.134 210.823,394.294 210.781 C 394.453 210.739,394.283 210.707,393.917 210.709 C 393.550 210.711,393.420 210.745,393.627 210.785 M198.208 210.948 C 198.369 210.990,198.631 210.990,198.792 210.948 C 198.952 210.906,198.821 210.872,198.500 210.872 C 198.179 210.872,198.048 210.906,198.208 210.948 M288.796 210.956 C 289.188 210.991,289.788 210.990,290.129 210.954 C 290.471 210.919,290.150 210.890,289.417 210.890 C 288.683 210.891,288.404 210.920,288.796 210.956 M201.294 211.118 C 201.501 211.158,201.801 211.156,201.960 211.115 C 202.120 211.073,201.950 211.040,201.583 211.042 C 201.217 211.044,201.086 211.078,201.294 211.118 M284.542 211.119 C 284.794 211.158,285.206 211.158,285.458 211.119 C 285.710 211.081,285.504 211.050,285.000 211.050 C 284.496 211.050,284.290 211.081,284.542 211.119 M204.292 211.284 C 204.498 211.324,204.835 211.324,205.042 211.284 C 205.248 211.245,205.079 211.212,204.667 211.212 C 204.254 211.212,204.085 211.245,204.292 211.284 M280.875 211.282 C 281.035 211.323,281.298 211.323,281.458 211.282 C 281.619 211.240,281.487 211.205,281.167 211.205 C 280.846 211.205,280.715 211.240,280.875 211.282 M208.044 211.453 C 208.297 211.491,208.672 211.490,208.877 211.451 C 209.082 211.411,208.875 211.380,208.417 211.381 C 207.958 211.382,207.791 211.415,208.044 211.453 M231.208 211.448 C 231.369 211.490,231.631 211.490,231.792 211.448 C 231.952 211.406,231.821 211.372,231.500 211.372 C 231.179 211.372,231.048 211.406,231.208 211.448 M212.708 211.619 C 212.960 211.658,213.373 211.658,213.625 211.619 C 213.877 211.581,213.671 211.550,213.167 211.550 C 212.662 211.550,212.456 211.581,212.708 211.619 M226.958 211.618 C 227.165 211.657,227.502 211.657,227.708 211.618 C 227.915 211.578,227.746 211.545,227.333 211.545 C 226.921 211.545,226.752 211.578,226.958 211.618 M274.042 211.615 C 274.202 211.657,274.465 211.657,274.625 211.615 C 274.785 211.573,274.654 211.539,274.333 211.539 C 274.012 211.539,273.881 211.573,274.042 211.615 M143.208 211.782 C 143.369 211.823,143.631 211.823,143.792 211.782 C 143.952 211.740,143.821 211.705,143.500 211.705 C 143.179 211.705,143.048 211.740,143.208 211.782 M270.875 211.782 C 271.035 211.823,271.298 211.823,271.458 211.782 C 271.619 211.740,271.487 211.705,271.167 211.705 C 270.846 211.705,270.715 211.740,270.875 211.782 M140.208 211.948 C 140.369 211.990,140.631 211.990,140.792 211.948 C 140.952 211.906,140.821 211.872,140.500 211.872 C 140.179 211.872,140.048 211.906,140.208 211.948 M131.958 212.122 C 132.348 212.157,132.985 212.157,133.375 212.122 C 133.765 212.087,133.446 212.058,132.667 212.058 C 131.887 212.058,131.569 212.087,131.958 212.122 M137.042 212.121 C 137.385 212.157,137.948 212.157,138.292 212.121 C 138.635 212.085,138.354 212.056,137.667 212.056 C 136.979 212.056,136.698 212.085,137.042 212.121 M368.375 214.615 C 368.535 214.657,368.798 214.657,368.958 214.615 C 369.119 214.573,368.988 214.539,368.667 214.539 C 368.346 214.539,368.215 214.573,368.375 214.615 M30.875 214.782 C 31.035 214.823,31.298 214.823,31.458 214.782 C 31.619 214.740,31.488 214.705,31.167 214.705 C 30.846 214.705,30.715 214.740,30.875 214.782 M372.455 214.787 C 372.750 214.824,373.275 214.824,373.621 214.788 C 373.967 214.752,373.725 214.722,373.083 214.721 C 372.442 214.721,372.159 214.750,372.455 214.787 M33.958 214.951 C 34.165 214.991,34.502 214.991,34.708 214.951 C 34.915 214.911,34.746 214.879,34.333 214.879 C 33.921 214.879,33.752 214.911,33.958 214.951 M387.794 214.951 C 388.001 214.991,388.301 214.990,388.460 214.948 C 388.620 214.906,388.450 214.874,388.083 214.875 C 387.717 214.877,387.586 214.911,387.794 214.951 M37.544 215.120 C 37.797 215.158,38.172 215.157,38.377 215.117 C 38.582 215.078,38.375 215.046,37.917 215.048 C 37.458 215.049,37.291 215.081,37.544 215.120 M42.127 215.285 C 42.334 215.324,42.634 215.323,42.794 215.281 C 42.953 215.239,42.783 215.207,42.417 215.209 C 42.050 215.211,41.920 215.245,42.127 215.285 M92.625 215.289 C 93.015 215.324,93.652 215.324,94.042 215.289 C 94.431 215.254,94.112 215.225,93.333 215.225 C 92.554 215.225,92.235 215.254,92.625 215.289 M112.211 215.286 C 112.464 215.325,112.839 215.324,113.044 215.284 C 113.249 215.244,113.042 215.213,112.583 215.214 C 112.125 215.216,111.957 215.248,112.211 215.286 M47.125 215.454 C 47.423 215.491,47.910 215.491,48.208 215.454 C 48.506 215.417,48.262 215.387,47.667 215.387 C 47.071 215.387,46.827 215.417,47.125 215.454 M83.208 215.453 C 83.460 215.491,83.873 215.491,84.125 215.453 C 84.377 215.415,84.171 215.383,83.667 215.383 C 83.162 215.383,82.956 215.415,83.208 215.453 M55.048 215.623 C 55.578 215.657,56.403 215.656,56.881 215.623 C 57.359 215.589,56.925 215.562,55.917 215.562 C 54.908 215.563,54.517 215.590,55.048 215.623 M71.632 215.624 C 72.208 215.656,73.108 215.656,73.632 215.623 C 74.155 215.590,73.683 215.563,72.583 215.564 C 71.483 215.564,71.055 215.591,71.632 215.624 M199.460 215.785 C 199.668 215.824,199.968 215.823,200.127 215.781 C 200.286 215.739,200.117 215.707,199.750 215.709 C 199.383 215.711,199.253 215.745,199.460 215.785 M202.708 215.948 C 202.869 215.990,203.131 215.990,203.292 215.948 C 203.452 215.906,203.321 215.872,203.000 215.872 C 202.679 215.872,202.548 215.906,202.708 215.948 M205.460 216.118 C 205.668 216.158,205.968 216.156,206.127 216.115 C 206.286 216.073,206.117 216.040,205.750 216.042 C 205.383 216.044,205.253 216.078,205.460 216.118 M233.294 216.118 C 233.501 216.158,233.801 216.156,233.960 216.115 C 234.120 216.073,233.950 216.040,233.583 216.042 C 233.217 216.044,233.086 216.078,233.294 216.118 M209.458 216.284 C 209.665 216.324,210.002 216.324,210.208 216.284 C 210.415 216.245,210.246 216.212,209.833 216.212 C 209.421 216.212,209.252 216.245,209.458 216.284 M230.127 216.285 C 230.334 216.324,230.634 216.323,230.794 216.281 C 230.953 216.239,230.783 216.207,230.417 216.209 C 230.050 216.211,229.920 216.245,230.127 216.285 M215.128 216.454 C 215.428 216.491,215.878 216.490,216.128 216.452 C 216.378 216.414,216.133 216.384,215.583 216.385 C 215.033 216.386,214.828 216.417,215.128 216.454 M225.208 216.453 C 225.460 216.491,225.873 216.491,226.125 216.453 C 226.377 216.415,226.171 216.383,225.667 216.383 C 225.162 216.383,224.956 216.415,225.208 216.453 M127.125 216.618 C 127.331 216.657,127.669 216.657,127.875 216.618 C 128.081 216.578,127.912 216.545,127.500 216.545 C 127.087 216.545,126.919 216.578,127.125 216.618 M141.294 216.618 C 141.501 216.658,141.801 216.656,141.960 216.615 C 142.120 216.573,141.950 216.540,141.583 216.542 C 141.217 216.544,141.086 216.578,141.294 216.618 M131.380 216.789 C 131.818 216.824,132.493 216.823,132.880 216.788 C 133.267 216.754,132.908 216.725,132.083 216.726 C 131.258 216.726,130.942 216.755,131.380 216.789 M137.461 216.787 C 137.761 216.825,138.211 216.824,138.461 216.786 C 138.712 216.748,138.467 216.717,137.917 216.718 C 137.367 216.719,137.162 216.750,137.461 216.787 " stroke="none" fill="#7c7374" fill-rule="evenodd"></path><path id="path4" d="M383.543 196.701 C 383.507 197.181,382.424 198.851,381.678 199.575 C 380.797 200.432,380.796 200.430,382.208 200.848 C 383.457 201.218,385.634 202.283,386.938 203.163 C 387.838 203.771,387.658 203.768,388.896 203.189 C 389.457 202.926,390.134 202.622,390.400 202.514 C 390.964 202.285,390.848 202.122,389.917 201.834 C 388.122 201.280,384.833 198.295,384.833 197.221 C 384.833 196.835,383.571 196.327,383.543 196.701 M304.794 205.785 C 305.001 205.824,305.301 205.823,305.460 205.781 C 305.620 205.739,305.450 205.707,305.083 205.709 C 304.717 205.711,304.586 205.745,304.794 205.785 M330.208 205.782 C 330.369 205.823,330.631 205.823,330.792 205.782 C 330.952 205.740,330.821 205.705,330.500 205.705 C 330.179 205.705,330.048 205.740,330.208 205.782 M289.708 206.115 C 289.869 206.157,290.131 206.157,290.292 206.115 C 290.452 206.073,290.321 206.039,290.000 206.039 C 289.679 206.039,289.548 206.073,289.708 206.115 M96.294 210.451 C 96.501 210.491,96.801 210.490,96.960 210.448 C 97.120 210.406,96.950 210.374,96.583 210.375 C 96.217 210.377,96.086 210.411,96.294 210.451 M109.042 210.453 C 109.294 210.491,109.706 210.491,109.958 210.453 C 110.210 210.415,110.004 210.383,109.500 210.383 C 108.996 210.383,108.790 210.415,109.042 210.453 M86.625 210.618 C 86.831 210.657,87.169 210.657,87.375 210.618 C 87.581 210.578,87.412 210.545,87.000 210.545 C 86.587 210.545,86.419 210.578,86.625 210.618 M53.627 210.785 C 53.834 210.824,54.134 210.823,54.294 210.781 C 54.453 210.739,54.283 210.707,53.917 210.709 C 53.550 210.711,53.420 210.745,53.627 210.785 M135.208 212.119 C 135.460 212.158,135.873 212.158,136.125 212.119 C 136.377 212.081,136.171 212.050,135.667 212.050 C 135.162 212.050,134.956 212.081,135.208 212.119 M378.875 214.957 C 379.494 214.989,380.506 214.989,381.125 214.957 C 381.744 214.925,381.238 214.899,380.000 214.899 C 378.762 214.899,378.256 214.925,378.875 214.957 " stroke="none" fill="#747c79" fill-rule="evenodd"></path></g></svg>