<?xml version="1.0" encoding="UTF-8"?>
<svg version="1.1" xmlns="http://www.w3.org/2000/svg" width="2048" height="2048">
<path d="M0 0 C675.84 0 1351.68 0 2048 0 C2048 675.84 2048 1351.68 2048 2048 C1372.16 2048 696.32 2048 0 2048 C0 1372.16 0 696.32 0 0 Z " fill="#FEFEFE" transform="translate(0,0)"/>
<path d="M0 0 C0.77085938 0.17144531 1.54171875 0.34289062 2.3359375 0.51953125 C9.82124136 2.49943244 15.3084407 7.09755272 19.67578125 13.4296875 C23.37643859 20.12214388 24.05369394 25.3729092 22.37109375 32.76171875 C20.21750284 39.84056242 17.00326839 43.7795204 11 48 C9.824375 48.86625 9.824375 48.86625 8.625 49.75 C6.26384137 50.87436125 4.19947524 51.51457485 1.6875 52.1875 C-11.99845294 56.10944472 -24.20835036 63.96852642 -34.77734375 73.3359375 C-48.17202108 85.11379995 -63.23959556 94.53045521 -78.56396484 103.55957031 C-80.54006622 104.72804076 -82.50285025 105.91266295 -84.45703125 107.1171875 C-90.05923164 110.51768396 -95.80497177 113.3307037 -101.75 116.0625 C-113.63868996 121.54578608 -124.81448658 128.21888637 -136 135 C-136.69996094 135.4228125 -137.39992188 135.845625 -138.12109375 136.28125 C-151.28661512 144.29746597 -163.55885906 153.72990358 -175.69360352 163.20947266 C-178.92255163 165.71620553 -182.18483591 168.17797918 -185.44506836 170.64379883 C-194.19626633 177.26780513 -202.81392884 184.01721215 -211.296875 190.98046875 C-214.88296108 193.91974506 -218.52823435 196.77772109 -222.1875 199.625 C-228.94960645 204.90269523 -235.49094975 210.41502653 -242 216 C-243.13261741 216.96767631 -244.26543278 217.93512095 -245.3984375 218.90234375 C-256.49927499 228.38783095 -267.59322704 237.88237727 -278.41015625 247.69140625 C-282.16182746 251.03565615 -285.99110032 254.28696382 -289.81518555 257.54785156 C-294.20095476 261.29526569 -298.50912371 265.11927785 -302.78125 268.99609375 C-304.79308393 270.81311982 -306.82660434 272.59944392 -308.875 274.375 C-312.84199471 277.82805208 -316.71218391 281.38437366 -320.57324219 284.95483398 C-323.36447053 287.52934931 -326.20070687 290.01637472 -329.125 292.4375 C-338.34751792 300.47617504 -345.23299535 310.91947897 -352 321 C-366.61832243 342.74115782 -366.61832243 342.74115782 -374 351 C-374.69480469 351.78890625 -375.38960937 352.5778125 -376.10546875 353.390625 C-382.74319991 360.47391815 -390.45410392 365.96497973 -398.31640625 371.60546875 C-404.76039426 376.23895497 -411.08439397 381.0053667 -416.9375 386.375 C-417.77152344 387.13554688 -418.60554688 387.89609375 -419.46484375 388.6796875 C-420.30144531 389.44539063 -421.13804687 390.21109375 -422 391 C-423.66524498 392.50157815 -425.33190626 394.00158716 -427 395.5 C-429.45783805 397.70976433 -431.91357568 399.92144544 -434.359375 402.14453125 C-440.86092893 408.04054829 -447.50683616 413.75428976 -454.18554688 419.44726562 C-455.96867402 420.97319252 -457.74340033 422.50830677 -459.515625 424.046875 C-467.48733459 430.95688206 -475.63921239 437.56756213 -484 444 C-484.78826172 444.6089209 -485.57652344 445.2178418 -486.38867188 445.84521484 C-513.88795891 467.0665801 -542.47361024 486.55552919 -572.703125 503.69726562 C-574.19194267 504.54168857 -575.67903735 505.38915949 -577.1640625 506.24023438 C-595.8167146 516.92593267 -615.10909409 526.48362752 -634.7578125 535.1953125 C-635.46703857 535.51677246 -636.17626465 535.83823242 -636.90698242 536.16943359 C-639 537 -639 537 -641.1184082 537.44384766 C-643.50822684 537.99701764 -645.00973834 538.54480603 -647 540 C-649.21322618 543.56149019 -650.73762373 547.30524935 -652.21768188 551.22186279 C-653.43363253 554.43673175 -654.74340541 557.61350172 -656.0390625 560.796875 C-656.29164322 561.42520233 -656.54422394 562.05352966 -656.80445862 562.70089722 C-659.69450177 569.84032701 -663.31139848 576.49715633 -667.04003906 583.22070312 C-668.52483701 585.97279046 -669.84303284 588.80228786 -671.1875 591.625 C-679.38062166 608.14431025 -689.87929602 623.61239905 -700 639 C-699.0258313 638.73497681 -699.0258313 638.73497681 -698.03198242 638.46459961 C-687.7449786 635.77161617 -677.32079112 633.98153955 -666.85864258 632.12768555 C-655.47369929 630.10331632 -644.22497962 627.78018294 -633 625 C-631.95674561 624.7419458 -630.91349121 624.4838916 -629.83862305 624.21801758 C-604.49970694 618.00458397 -604.49970694 618.00458397 -580.1171875 608.8828125 C-578 608 -578 608 -576 608 C-575.84144531 606.76765625 -575.68289063 605.5353125 -575.51953125 604.265625 C-573.53482399 589.80185126 -570.63290115 576.0450603 -558.8671875 566.21875 C-550.77978392 560.47021226 -542.83278424 558.48885376 -533 558.625 C-532.16210938 558.61339844 -531.32421875 558.60179687 -530.4609375 558.58984375 C-518.37339568 558.64597785 -508.29706714 564.53556675 -497.59375 569.6171875 C-487.45299683 574.37955055 -478.31631356 578.13839729 -466.96069336 578.11010742 C-465.20111549 578.11097603 -465.20111549 578.11097603 -463.4059906 578.11186218 C-462.14666214 578.10975235 -460.88733368 578.10764252 -459.58984375 578.10546875 C-456.87953719 578.11894163 -454.16927074 578.13386078 -451.45898438 578.15039062 C-447.22048162 578.17447606 -442.98245748 578.19065135 -438.74389648 578.17504883 C-421.75174996 578.12271493 -406.07019267 578.86899972 -390 585 C-389.26731903 585.27880005 -388.53463806 585.5576001 -387.77975464 585.84484863 C-373.22885961 591.46456751 -373.22885961 591.46456751 -369.1875 597.875 C-366.79985969 604.27884454 -366.67650962 612.32888977 -368.984375 618.73046875 C-370.19147175 620.95465628 -371.50326588 622.96217249 -373 625 C-373.556875 625.9075 -374.11375 626.815 -374.6875 627.75 C-380.12843589 633.04388357 -386.71594587 635.03449451 -394 636.625 C-408.66971574 639.89450729 -422.70782179 646.76843221 -436.0612793 653.52661133 C-454.01037343 662.53419354 -473.89194513 667.01262837 -493.28201294 671.88064575 C-494.01394867 672.06440765 -494.7458844 672.24816956 -495.5 672.4375 C-496.23169403 672.62118134 -496.96338806 672.80486267 -497.71725464 672.99411011 C-519.46190612 678.47785148 -540.77075323 685.22935884 -561 695 C-563.24191405 696.06307687 -565.48412749 697.12552248 -567.7265625 698.1875 C-582.11840939 705.02969725 -596.33797246 712.16560123 -610.41552734 719.63574219 C-612.86974344 720.93124186 -615.33276559 722.20758899 -617.80078125 723.4765625 C-630.80789002 730.18669797 -643.40843987 737.54460684 -656 745 C-656.92184082 745.5455957 -657.84368164 746.09119141 -658.79345703 746.65332031 C-660.59361311 747.71895044 -662.39374351 748.78462394 -664.19384766 749.8503418 C-665.07862793 750.374104 -665.9634082 750.89786621 -666.875 751.4375 C-667.76493652 751.96448486 -668.65487305 752.49146973 -669.57177734 753.03442383 C-684.71822644 761.98852893 -699.9758158 770.75123358 -715.3125 779.375 C-724.30153586 784.43385735 -733.22515994 789.59890371 -742.125 794.8125 C-742.72470612 795.16326599 -743.32441223 795.51403198 -743.94229126 795.87542725 C-751.37771849 800.22720474 -758.74345402 804.67753666 -766.07128906 809.20776367 C-769.77326984 811.47320556 -773.52099 813.63877337 -777.3125 815.75 C-777.94994141 816.10964844 -778.58738281 816.46929688 -779.24414062 816.83984375 C-786.38058444 820.83740682 -792.96328283 824.27784632 -801 826 C-796.89726652 831.38627021 -792.68829639 836.41733452 -787.8125 841.125 C-772.6558209 856.1889777 -771.29259807 879.70679223 -767.4375 899.875 C-766.96487371 902.32174623 -766.49156975 904.76836165 -766.01757812 907.21484375 C-765.10049619 911.95073409 -764.18602748 916.68711739 -763.27319336 921.42382812 C-762.12734096 927.3565179 -760.96375044 933.28544622 -759.78125 939.2109375 C-759.55078224 940.36962845 -759.55078224 940.36962845 -759.31565857 941.55172729 C-758.42764361 945.98075048 -757.4772267 950.39250461 -756.49353027 954.8012085 C-749.27116086 987.45527716 -747.32089191 1021.78094799 -744 1055 C-743.89969482 1055.99948669 -743.79938965 1056.99897339 -743.69604492 1058.02874756 C-736.89745639 1126.02693926 -736.89745639 1126.02693926 -749 1148 C-749.66 1148 -750.32 1148 -751 1148 C-751 1148.66 -751 1149.32 -751 1150 C-751.66 1150 -752.32 1150 -753 1150 C-753 1150.66 -753 1151.32 -753 1152 C-753.66 1152 -754.32 1152 -755 1152 C-755 1152.66 -755 1153.32 -755 1154 C-770.2931908 1165.78850124 -788.9078206 1164.74333467 -807.21541977 1164.63869596 C-810.87514648 1164.62210586 -814.53483135 1164.63114893 -818.19458008 1164.63621521 C-824.32694821 1164.64070919 -830.45900858 1164.62502406 -836.59130859 1164.59692383 C-843.66258117 1164.56476915 -850.73330276 1164.56494058 -857.80461502 1164.5821386 C-864.64441023 1164.59803402 -871.48400501 1164.59125822 -878.3237915 1164.57420158 C-881.21996455 1164.56736253 -884.11597541 1164.5683305 -887.012146 1164.57574654 C-891.05397892 1164.58487381 -895.09496818 1164.56080815 -899.13671875 1164.53344727 C-900.32646805 1164.53997314 -901.51621735 1164.54649902 -902.74201965 1164.55322266 C-910.03490225 1164.46939108 -916.15199683 1163.76579858 -921.55107117 1158.48206425 C-925.4709788 1153.93834498 -926.13807129 1151.40822347 -926.125 1145.5 C-926.12757813 1144.3346875 -926.13015625 1143.169375 -926.1328125 1141.96875 C-926 1139 -926 1139 -925 1137 C-924.34 1137 -923.68 1137 -923 1137 C-922.79375 1136.4121875 -922.5875 1135.824375 -922.375 1135.21875 C-920.45888106 1132.1268308 -918.21216571 1131.16668976 -915 1129.5 C-914.11562256 1129.03956299 -914.11562256 1129.03956299 -913.21337891 1128.56982422 C-909.21180529 1126.52071447 -905.16479264 1124.80088604 -900.96484375 1123.21484375 C-896.87420862 1121.53870735 -892.91963205 1119.60470549 -888.9375 1117.6875 C-871.02284073 1109.13536406 -854.27078012 1102.58920599 -834.39257812 1100.72192383 C-829.0895776 1100.20312678 -824.16109236 1099.19646425 -819.06640625 1097.5859375 C-817 1097 -817 1097 -814 1097 C-816.49762859 1085.27039611 -819.0000508 1073.55449085 -822 1061.94140625 C-822.69452748 1059.25011227 -823.33283939 1056.55269604 -823.9375 1053.83984375 C-830.08088467 1026.89826677 -839.36002835 999.60264047 -852.0390625 975.03125 C-854.36878102 970.41098725 -856.12922431 965.61555354 -857.875 960.75 C-858.22087158 959.79053467 -858.56674316 958.83106934 -858.9230957 957.8425293 C-863.19311774 945.84288989 -866.82262362 933.68630662 -869.98852539 921.3515625 C-875.87035609 898.46499149 -887.10398282 890.62928699 -906.625 878.5 C-912.39531853 874.84800692 -917.74933594 870.70136576 -923.11035156 866.48339844 C-925.9371782 864.26430301 -928.77904958 862.06469692 -931.61889648 859.86230469 C-934.69086297 857.47770566 -937.75721608 855.08593953 -940.82373047 852.69433594 C-942.84921489 851.11739384 -944.87901123 849.54620217 -946.91015625 847.9765625 C-952.01518906 844.01720912 -957.03052708 840.04749928 -961.75 835.625 C-976.74525088 822.04393538 -991.53396838 814.72362179 -1010.60107422 808.49755859 C-1059.82284022 792.41218224 -1059.82284022 792.41218224 -1079 775 C-1079.69738281 774.43152344 -1080.39476562 773.86304688 -1081.11328125 773.27734375 C-1086.06038029 769.21399833 -1089.96915043 764.57699756 -1093.921875 759.55078125 C-1096.74345968 756.06041514 -1096.74345968 756.06041514 -1100 753 C-1102.03903184 752.76420295 -1102.03903184 752.76420295 -1104.1875 753.4375 C-1105.50427734 753.76814453 -1105.50427734 753.76814453 -1106.84765625 754.10546875 C-1107.88792969 754.40066406 -1108.92820312 754.69585938 -1110 755 C-1110.92401611 755.25064209 -1110.92401611 755.25064209 -1111.86669922 755.50634766 C-1122.48886346 758.39153965 -1132.76759877 761.95979147 -1143 766 C-1143.68562012 766.26538574 -1144.37124023 766.53077148 -1145.07763672 766.80419922 C-1168.39120509 775.84746374 -1187.5739623 785.56372847 -1198.89697266 808.78320312 C-1204.78325567 820.79602561 -1211.08994008 832.11863205 -1223 839 C-1237.49748825 843.41093792 -1248.47729726 836.64616476 -1261 830 C-1262.78772944 829.05983693 -1264.5754893 828.1197317 -1266.36328125 827.1796875 C-1268.84397643 825.87403382 -1271.32053229 824.56355935 -1273.78369141 823.22509766 C-1281.02824071 818.92578621 -1281.02824071 818.92578621 -1289 818.875 C-1289.57621094 819.0709375 -1290.15242188 819.266875 -1290.74609375 819.46875 C-1297.21320588 820.99306066 -1304.50754013 821.13691152 -1310.5625 818.375 C-1316.60889255 812.48364316 -1319.52882994 807.08565739 -1322.5625 799.25 C-1322.93568359 798.3115625 -1323.30886719 797.373125 -1323.69335938 796.40625 C-1326.69590827 788.84504861 -1326.69590827 788.84504861 -1327.99169922 785.24414062 C-1329.91306378 780.04209186 -1331.64496077 776.63556637 -1336 773 C-1336.51626953 772.55865723 -1337.03253906 772.11731445 -1337.56445312 771.66259766 C-1338.6906544 770.70203358 -1339.82299371 769.74862573 -1340.9609375 768.80200195 C-1361.09752436 752.03708431 -1375.34157428 729.55685077 -1378 703 C-1379.18719562 672.23638513 -1374.46222056 644.41650406 -1353 621 C-1352.48195801 620.4342627 -1351.96391602 619.86852539 -1351.43017578 619.28564453 C-1332.68708846 599.06879578 -1308.55790129 584.79360229 -1280.34375 583.6640625 C-1252.64503957 583.23901234 -1227.0285762 590.15327965 -1206 609 C-1204.32676915 610.66007652 -1202.66020929 612.32690088 -1201 614 C-1199.84951172 615.06347656 -1199.84951172 615.06347656 -1198.67578125 616.1484375 C-1190.01118364 624.31177739 -1182.93982555 634.13556054 -1178 645 C-1178 645.66 -1178 646.32 -1178 647 C-1169.78904977 647.52133017 -1163.72909484 646.19636701 -1157.375 640.75 C-1156.59125 639.8425 -1155.8075 638.935 -1155 638 C-1154.27296875 637.2575 -1154.27296875 637.2575 -1153.53125 636.5 C-1147.49509011 630.12217068 -1143.0838266 622.57877991 -1138.40087891 615.19726562 C-1122.15490841 589.71561096 -1103.86293771 567.68866306 -1080 549 C-1079.49259277 548.5982959 -1078.98518555 548.1965918 -1078.46240234 547.78271484 C-1070.88381435 541.78846855 -1063.10357729 536.27272763 -1055 531 C-1053.18587426 529.79410884 -1051.37341997 528.58570003 -1049.5625 527.375 C-1048.5725 526.71628906 -1047.5825 526.05757812 -1046.5625 525.37890625 C-1043.8060373 523.54206762 -1041.05869569 521.69199288 -1038.3125 519.83984375 C-1020.61320225 507.92840437 -1002.69851944 496.73739315 -983.89453125 486.6484375 C-980.08100567 484.59961637 -976.33991499 482.47191126 -972.625 480.25 C-967.65873302 477.30991327 -962.56216287 474.72970598 -957.390625 472.17724609 C-949.76992379 468.41140893 -942.2544444 464.45548079 -934.75048828 460.46289062 C-932.81505281 459.43349871 -930.87841881 458.40635862 -928.94091797 457.38085938 C-914.3668598 449.66038055 -900.01768315 441.6934288 -886 433 C-884.96101563 432.35675781 -883.92203125 431.71351563 -882.8515625 431.05078125 C-880.21632835 429.39313396 -877.60421249 427.70594789 -875 426 C-874.15260254 425.44795898 -874.15260254 425.44795898 -873.28808594 424.88476562 C-858.27444773 415.08605903 -844.38960697 404.27424009 -830.9375 392.4375 C-829.6254487 391.2911529 -828.3129129 390.1453602 -827 389 C-826.16855469 388.26523437 -825.33710937 387.53046875 -824.48046875 386.7734375 C-811.34163062 375.44995183 -796.87907385 366.00091684 -781 359 C-780.24477051 358.65984863 -779.48954102 358.31969727 -778.71142578 357.96923828 C-747.94387136 344.36376926 -712.42957815 342.52565381 -679.45361328 347.91625977 C-647.3932635 353.07905337 -623.9416618 340.01832112 -596.34765625 325.3046875 C-571.8992894 312.28651478 -546.51692713 300.84188726 -520.75244141 290.70483398 C-515.24747791 288.52987438 -509.87539795 286.16090327 -504.52734375 283.62109375 C-500.84158909 281.92719764 -497.11861752 280.35149246 -493.37841797 278.78271484 C-465.19970214 266.93456176 -442.09896681 251.22739308 -423 227 C-421.68756014 225.37495143 -420.3750611 223.74995065 -419.0625 222.125 C-416.49269912 218.91148174 -413.97718449 215.66285703 -411.49194336 212.38354492 C-373.9108022 162.95256095 -324.51381281 136.27189647 -268.39990234 112.47314453 C-253.67282958 106.22071939 -239.06792914 99.95291241 -225.07324219 92.15429688 C-222.9972249 90.99845494 -220.91014117 89.86501836 -218.8203125 88.734375 C-211.95118806 84.98468537 -205.27910523 81.0040527 -198.75 76.6875 C-198.12963867 76.27886719 -197.50927734 75.87023437 -196.87011719 75.44921875 C-195.22086958 74.33691421 -193.60871596 73.17015897 -192 72 C-191.21109375 71.47019531 -190.4221875 70.94039062 -189.609375 70.39453125 C-186.8776472 66.33009159 -187.49621317 61.77556568 -187.5 57 C-187.17732052 42.85149274 -184.59283058 31.44718938 -174.15625 21.1875 C-164.01049597 12.87130817 -150.95941357 11.03064909 -138.26586914 12.26611328 C-135.5251785 12.62239081 -132.7943344 13.01886536 -130.0625 13.4375 C-129.13115234 13.57220703 -128.19980469 13.70691406 -127.24023438 13.84570312 C-123.69474423 14.37048687 -120.40753759 14.86415414 -117 16 C-100.02953504 18.27527403 -86.22818138 13.66376863 -70.58140564 7.8139801 C-69.52403954 7.41879433 -69.52403954 7.41879433 -68.4453125 7.015625 C-67.74753189 6.75414169 -67.04975128 6.49265839 -66.33082581 6.22325134 C-59.02671841 3.54207444 -51.58646129 1.70769125 -44 0 C-42.97011963 -0.23203125 -41.94023926 -0.4640625 -40.87915039 -0.703125 C-28.04461958 -3.43777249 -12.68162246 -3.4209875 0 0 Z " fill="#FDFDFC" transform="translate(1702,443)"/>
<path d="M0 0 C0.77085938 0.17144531 1.54171875 0.34289062 2.3359375 0.51953125 C9.82124136 2.49943244 15.3084407 7.09755272 19.67578125 13.4296875 C23.37643859 20.12214388 24.05369394 25.3729092 22.37109375 32.76171875 C20.21750284 39.84056242 17.00326839 43.7795204 11 48 C9.824375 48.86625 9.824375 48.86625 8.625 49.75 C6.26384137 50.87436125 4.19947524 51.51457485 1.6875 52.1875 C-11.99845294 56.10944472 -24.20835036 63.96852642 -34.77734375 73.3359375 C-48.17202108 85.11379995 -63.23959556 94.53045521 -78.56396484 103.55957031 C-80.54006622 104.72804076 -82.50285025 105.91266295 -84.45703125 107.1171875 C-90.05923164 110.51768396 -95.80497177 113.3307037 -101.75 116.0625 C-113.63868996 121.54578608 -124.81448658 128.21888637 -136 135 C-136.69996094 135.4228125 -137.39992188 135.845625 -138.12109375 136.28125 C-151.28661512 144.29746597 -163.55885906 153.72990358 -175.69360352 163.20947266 C-178.92255163 165.71620553 -182.18483591 168.17797918 -185.44506836 170.64379883 C-194.19626633 177.26780513 -202.81392884 184.01721215 -211.296875 190.98046875 C-214.88296108 193.91974506 -218.52823435 196.77772109 -222.1875 199.625 C-228.94960645 204.90269523 -235.49094975 210.41502653 -242 216 C-243.13261741 216.96767631 -244.26543278 217.93512095 -245.3984375 218.90234375 C-256.49927499 228.38783095 -267.59322704 237.88237727 -278.41015625 247.69140625 C-282.16182746 251.03565615 -285.99110032 254.28696382 -289.81518555 257.54785156 C-294.20095476 261.29526569 -298.50912371 265.11927785 -302.78125 268.99609375 C-304.79308393 270.81311982 -306.82660434 272.59944392 -308.875 274.375 C-312.84199471 277.82805208 -316.71218391 281.38437366 -320.57324219 284.95483398 C-323.36447053 287.52934931 -326.20070687 290.01637472 -329.125 292.4375 C-338.34751792 300.47617504 -345.23299535 310.91947897 -352 321 C-366.61832243 342.74115782 -366.61832243 342.74115782 -374 351 C-374.69480469 351.78890625 -375.38960937 352.5778125 -376.10546875 353.390625 C-382.74319991 360.47391815 -390.45410392 365.96497973 -398.31640625 371.60546875 C-404.76039426 376.23895497 -411.08439397 381.0053667 -416.9375 386.375 C-417.77152344 387.13554688 -418.60554688 387.89609375 -419.46484375 388.6796875 C-420.30144531 389.44539063 -421.13804687 390.21109375 -422 391 C-423.66524498 392.50157815 -425.33190626 394.00158716 -427 395.5 C-429.45783805 397.70976433 -431.91357568 399.92144544 -434.359375 402.14453125 C-440.86092893 408.04054829 -447.50683616 413.75428976 -454.18554688 419.44726562 C-455.96867402 420.97319252 -457.74340033 422.50830677 -459.515625 424.046875 C-467.48733459 430.95688206 -475.63921239 437.56756213 -484 444 C-484.78826172 444.6089209 -485.57652344 445.2178418 -486.38867188 445.84521484 C-513.88795891 467.0665801 -542.47361024 486.55552919 -572.703125 503.69726562 C-574.19194267 504.54168857 -575.67903735 505.38915949 -577.1640625 506.24023438 C-595.8167146 516.92593267 -615.10909409 526.48362752 -634.7578125 535.1953125 C-635.46703857 535.51677246 -636.17626465 535.83823242 -636.90698242 536.16943359 C-639 537 -639 537 -641.1184082 537.44384766 C-643.50822684 537.99701764 -645.00973834 538.54480603 -647 540 C-649.21322618 543.56149019 -650.73762373 547.30524935 -652.21768188 551.22186279 C-653.43363253 554.43673175 -654.74340541 557.61350172 -656.0390625 560.796875 C-656.29164322 561.42520233 -656.54422394 562.05352966 -656.80445862 562.70089722 C-659.69450177 569.84032701 -663.31139848 576.49715633 -667.04003906 583.22070312 C-668.52483701 585.97279046 -669.84303284 588.80228786 -671.1875 591.625 C-679.38062166 608.14431025 -689.87929602 623.61239905 -700 639 C-699.0258313 638.73497681 -699.0258313 638.73497681 -698.03198242 638.46459961 C-687.7449786 635.77161617 -677.32079112 633.98153955 -666.85864258 632.12768555 C-655.47369929 630.10331632 -644.22497962 627.78018294 -633 625 C-631.95674561 624.7419458 -630.91349121 624.4838916 -629.83862305 624.21801758 C-604.49970694 618.00458397 -604.49970694 618.00458397 -580.1171875 608.8828125 C-578 608 -578 608 -576 608 C-575.84144531 606.76765625 -575.68289063 605.5353125 -575.51953125 604.265625 C-573.53482399 589.80185126 -570.63290115 576.0450603 -558.8671875 566.21875 C-550.77978392 560.47021226 -542.83278424 558.48885376 -533 558.625 C-532.16210938 558.61339844 -531.32421875 558.60179687 -530.4609375 558.58984375 C-518.37339568 558.64597785 -508.29706714 564.53556675 -497.59375 569.6171875 C-487.45299683 574.37955055 -478.31631356 578.13839729 -466.96069336 578.11010742 C-465.20111549 578.11097603 -465.20111549 578.11097603 -463.4059906 578.11186218 C-462.14666214 578.10975235 -460.88733368 578.10764252 -459.58984375 578.10546875 C-456.87953719 578.11894163 -454.16927074 578.13386078 -451.45898438 578.15039062 C-447.22048162 578.17447606 -442.98245748 578.19065135 -438.74389648 578.17504883 C-421.75174996 578.12271493 -406.07019267 578.86899972 -390 585 C-389.26731903 585.27880005 -388.53463806 585.5576001 -387.77975464 585.84484863 C-373.22885961 591.46456751 -373.22885961 591.46456751 -369.1875 597.875 C-366.79985969 604.27884454 -366.67650962 612.32888977 -368.984375 618.73046875 C-370.19147175 620.95465628 -371.50326588 622.96217249 -373 625 C-373.556875 625.9075 -374.11375 626.815 -374.6875 627.75 C-380.12843589 633.04388357 -386.71594587 635.03449451 -394 636.625 C-408.66971574 639.89450729 -422.70782179 646.76843221 -436.0612793 653.52661133 C-454.01037343 662.53419354 -473.89194513 667.01262837 -493.28201294 671.88064575 C-494.01394867 672.06440765 -494.7458844 672.24816956 -495.5 672.4375 C-496.23169403 672.62118134 -496.96338806 672.80486267 -497.71725464 672.99411011 C-519.46190612 678.47785148 -540.77075323 685.22935884 -561 695 C-563.24191405 696.06307687 -565.48412749 697.12552248 -567.7265625 698.1875 C-582.11840939 705.02969725 -596.33797246 712.16560123 -610.41552734 719.63574219 C-612.86974344 720.93124186 -615.33276559 722.20758899 -617.80078125 723.4765625 C-630.80789002 730.18669797 -643.40843987 737.54460684 -656 745 C-656.92184082 745.5455957 -657.84368164 746.09119141 -658.79345703 746.65332031 C-660.59361311 747.71895044 -662.39374351 748.78462394 -664.19384766 749.8503418 C-665.07862793 750.374104 -665.9634082 750.89786621 -666.875 751.4375 C-667.76493652 751.96448486 -668.65487305 752.49146973 -669.57177734 753.03442383 C-684.71822644 761.98852893 -699.9758158 770.75123358 -715.3125 779.375 C-724.30153586 784.43385735 -733.22515994 789.59890371 -742.125 794.8125 C-742.72470612 795.16326599 -743.32441223 795.51403198 -743.94229126 795.87542725 C-751.37771849 800.22720474 -758.74345402 804.67753666 -766.07128906 809.20776367 C-769.77326984 811.47320556 -773.52099 813.63877337 -777.3125 815.75 C-777.94994141 816.10964844 -778.58738281 816.46929688 -779.24414062 816.83984375 C-786.38058444 820.83740682 -792.96328283 824.27784632 -801 826 C-796.89726652 831.38627021 -792.68829639 836.41733452 -787.8125 841.125 C-772.6558209 856.1889777 -771.29259807 879.70679223 -767.4375 899.875 C-766.96487371 902.32174623 -766.49156975 904.76836165 -766.01757812 907.21484375 C-765.10049619 911.95073409 -764.18602748 916.68711739 -763.27319336 921.42382812 C-762.12734096 927.3565179 -760.96375044 933.28544622 -759.78125 939.2109375 C-759.55078224 940.36962845 -759.55078224 940.36962845 -759.31565857 941.55172729 C-758.42764361 945.98075048 -757.4772267 950.39250461 -756.49353027 954.8012085 C-749.27116086 987.45527716 -747.32089191 1021.78094799 -744 1055 C-743.89969482 1055.99948669 -743.79938965 1056.99897339 -743.69604492 1058.02874756 C-736.89745639 1126.02693926 -736.89745639 1126.02693926 -749 1148 C-749.66 1148 -750.32 1148 -751 1148 C-751 1148.66 -751 1149.32 -751 1150 C-751.66 1150 -752.32 1150 -753 1150 C-753 1150.66 -753 1151.32 -753 1152 C-753.66 1152 -754.32 1152 -755 1152 C-755 1152.66 -755 1153.32 -755 1154 C-770.2931908 1165.78850124 -788.9078206 1164.74333467 -807.21541977 1164.63869596 C-810.87514648 1164.62210586 -814.53483135 1164.63114893 -818.19458008 1164.63621521 C-824.32694821 1164.64070919 -830.45900858 1164.62502406 -836.59130859 1164.59692383 C-843.66258117 1164.56476915 -850.73330276 1164.56494058 -857.80461502 1164.5821386 C-864.64441023 1164.59803402 -871.48400501 1164.59125822 -878.3237915 1164.57420158 C-881.21996455 1164.56736253 -884.11597541 1164.5683305 -887.012146 1164.57574654 C-891.05397892 1164.58487381 -895.09496818 1164.56080815 -899.13671875 1164.53344727 C-900.32646805 1164.53997314 -901.51621735 1164.54649902 -902.74201965 1164.55322266 C-910.03490225 1164.46939108 -916.15199683 1163.76579858 -921.55107117 1158.48206425 C-925.4709788 1153.93834498 -926.13807129 1151.40822347 -926.125 1145.5 C-926.12757813 1144.3346875 -926.13015625 1143.169375 -926.1328125 1141.96875 C-926 1139 -926 1139 -925 1137 C-924.34 1137 -923.68 1137 -923 1137 C-922.79375 1136.4121875 -922.5875 1135.824375 -922.375 1135.21875 C-920.45888106 1132.1268308 -918.21216571 1131.16668976 -915 1129.5 C-914.11562256 1129.03956299 -914.11562256 1129.03956299 -913.21337891 1128.56982422 C-909.21180529 1126.52071447 -905.16479264 1124.80088604 -900.96484375 1123.21484375 C-896.87420862 1121.53870735 -892.91963205 1119.60470549 -888.9375 1117.6875 C-871.02284073 1109.13536406 -854.27078012 1102.58920599 -834.39257812 1100.72192383 C-829.0895776 1100.20312678 -824.16109236 1099.19646425 -819.06640625 1097.5859375 C-817 1097 -817 1097 -814 1097 C-816.49762859 1085.27039611 -819.0000508 1073.55449085 -822 1061.94140625 C-822.69452748 1059.25011227 -823.33283939 1056.55269604 -823.9375 1053.83984375 C-830.08088467 1026.89826677 -839.36002835 999.60264047 -852.0390625 975.03125 C-854.36878102 970.41098725 -856.12922431 965.61555354 -857.875 960.75 C-858.22087158 959.79053467 -858.56674316 958.83106934 -858.9230957 957.8425293 C-863.19311774 945.84288989 -866.82262362 933.68630662 -869.98852539 921.3515625 C-875.87035609 898.46499149 -887.10398282 890.62928699 -906.625 878.5 C-912.39531853 874.84800692 -917.74933594 870.70136576 -923.11035156 866.48339844 C-925.9371782 864.26430301 -928.77904958 862.06469692 -931.61889648 859.86230469 C-934.69086297 857.47770566 -937.75721608 855.08593953 -940.82373047 852.69433594 C-942.84921489 851.11739384 -944.87901123 849.54620217 -946.91015625 847.9765625 C-952.01518906 844.01720912 -957.03052708 840.04749928 -961.75 835.625 C-976.74525088 822.04393538 -991.53396838 814.72362179 -1010.60107422 808.49755859 C-1059.82284022 792.41218224 -1059.82284022 792.41218224 -1079 775 C-1079.69738281 774.43152344 -1080.39476562 773.86304688 -1081.11328125 773.27734375 C-1086.06038029 769.21399833 -1089.96915043 764.57699756 -1093.921875 759.55078125 C-1096.74345968 756.06041514 -1096.74345968 756.06041514 -1100 753 C-1102.03903184 752.76420295 -1102.03903184 752.76420295 -1104.1875 753.4375 C-1105.50427734 753.76814453 -1105.50427734 753.76814453 -1106.84765625 754.10546875 C-1107.88792969 754.40066406 -1108.92820312 754.69585938 -1110 755 C-1110.92401611 755.25064209 -1110.92401611 755.25064209 -1111.86669922 755.50634766 C-1122.48886346 758.39153965 -1132.76759877 761.95979147 -1143 766 C-1143.68562012 766.26538574 -1144.37124023 766.53077148 -1145.07763672 766.80419922 C-1168.39120509 775.84746374 -1187.5739623 785.56372847 -1198.89697266 808.78320312 C-1204.78325567 820.79602561 -1211.08994008 832.11863205 -1223 839 C-1237.49748825 843.41093792 -1248.47729726 836.64616476 -1261 830 C-1262.78772944 829.05983693 -1264.5754893 828.1197317 -1266.36328125 827.1796875 C-1268.84397643 825.87403382 -1271.32053229 824.56355935 -1273.78369141 823.22509766 C-1281.02824071 818.92578621 -1281.02824071 818.92578621 -1289 818.875 C-1289.57621094 819.0709375 -1290.15242188 819.266875 -1290.74609375 819.46875 C-1297.21320588 820.99306066 -1304.50754013 821.13691152 -1310.5625 818.375 C-1316.60889255 812.48364316 -1319.52882994 807.08565739 -1322.5625 799.25 C-1322.93568359 798.3115625 -1323.30886719 797.373125 -1323.69335938 796.40625 C-1326.69590827 788.84504861 -1326.69590827 788.84504861 -1327.99169922 785.24414062 C-1329.91306378 780.04209186 -1331.64496077 776.63556637 -1336 773 C-1336.51626953 772.55865723 -1337.03253906 772.11731445 -1337.56445312 771.66259766 C-1338.6906544 770.70203358 -1339.82299371 769.74862573 -1340.9609375 768.80200195 C-1361.09752436 752.03708431 -1375.34157428 729.55685077 -1378 703 C-1379.18719562 672.23638513 -1374.46222056 644.41650406 -1353 621 C-1352.48195801 620.4342627 -1351.96391602 619.86852539 -1351.43017578 619.28564453 C-1332.68708846 599.06879578 -1308.55790129 584.79360229 -1280.34375 583.6640625 C-1252.64503957 583.23901234 -1227.0285762 590.15327965 -1206 609 C-1204.32676915 610.66007652 -1202.66020929 612.32690088 -1201 614 C-1199.84951172 615.06347656 -1199.84951172 615.06347656 -1198.67578125 616.1484375 C-1190.01118364 624.31177739 -1182.93982555 634.13556054 -1178 645 C-1178 645.66 -1178 646.32 -1178 647 C-1169.78904977 647.52133017 -1163.72909484 646.19636701 -1157.375 640.75 C-1156.59125 639.8425 -1155.8075 638.935 -1155 638 C-1154.27296875 637.2575 -1154.27296875 637.2575 -1153.53125 636.5 C-1147.49509011 630.12217068 -1143.0838266 622.57877991 -1138.40087891 615.19726562 C-1122.15490841 589.71561096 -1103.86293771 567.68866306 -1080 549 C-1079.49259277 548.5982959 -1078.98518555 548.1965918 -1078.46240234 547.78271484 C-1070.88381435 541.78846855 -1063.10357729 536.27272763 -1055 531 C-1053.18587426 529.79410884 -1051.37341997 528.58570003 -1049.5625 527.375 C-1048.5725 526.71628906 -1047.5825 526.05757812 -1046.5625 525.37890625 C-1043.8060373 523.54206762 -1041.05869569 521.69199288 -1038.3125 519.83984375 C-1020.61320225 507.92840437 -1002.69851944 496.73739315 -983.89453125 486.6484375 C-980.08100567 484.59961637 -976.33991499 482.47191126 -972.625 480.25 C-967.65873302 477.30991327 -962.56216287 474.72970598 -957.390625 472.17724609 C-949.76992379 468.41140893 -942.2544444 464.45548079 -934.75048828 460.46289062 C-932.81505281 459.43349871 -930.87841881 458.40635862 -928.94091797 457.38085938 C-914.3668598 449.66038055 -900.01768315 441.6934288 -886 433 C-884.96101563 432.35675781 -883.92203125 431.71351563 -882.8515625 431.05078125 C-880.21632835 429.39313396 -877.60421249 427.70594789 -875 426 C-874.15260254 425.44795898 -874.15260254 425.44795898 -873.28808594 424.88476562 C-858.27444773 415.08605903 -844.38960697 404.27424009 -830.9375 392.4375 C-829.6254487 391.2911529 -828.3129129 390.1453602 -827 389 C-826.16855469 388.26523437 -825.33710937 387.53046875 -824.48046875 386.7734375 C-811.34163062 375.44995183 -796.87907385 366.00091684 -781 359 C-780.24477051 358.65984863 -779.48954102 358.31969727 -778.71142578 357.96923828 C-747.94387136 344.36376926 -712.42957815 342.52565381 -679.45361328 347.91625977 C-647.3932635 353.07905337 -623.9416618 340.01832112 -596.34765625 325.3046875 C-571.8992894 312.28651478 -546.51692713 300.84188726 -520.75244141 290.70483398 C-515.24747791 288.52987438 -509.87539795 286.16090327 -504.52734375 283.62109375 C-500.84158909 281.92719764 -497.11861752 280.35149246 -493.37841797 278.78271484 C-465.19970214 266.93456176 -442.09896681 251.22739308 -423 227 C-421.68756014 225.37495143 -420.3750611 223.74995065 -419.0625 222.125 C-416.49269912 218.91148174 -413.97718449 215.66285703 -411.49194336 212.38354492 C-373.9108022 162.95256095 -324.51381281 136.27189647 -268.39990234 112.47314453 C-253.67282958 106.22071939 -239.06792914 99.95291241 -225.07324219 92.15429688 C-222.9972249 90.99845494 -220.91014117 89.86501836 -218.8203125 88.734375 C-211.95118806 84.98468537 -205.27910523 81.0040527 -198.75 76.6875 C-198.12963867 76.27886719 -197.50927734 75.87023437 -196.87011719 75.44921875 C-195.22086958 74.33691421 -193.60871596 73.17015897 -192 72 C-191.21109375 71.47019531 -190.4221875 70.94039062 -189.609375 70.39453125 C-186.8776472 66.33009159 -187.49621317 61.77556568 -187.5 57 C-187.17732052 42.85149274 -184.59283058 31.44718938 -174.15625 21.1875 C-164.01049597 12.87130817 -150.95941357 11.03064909 -138.26586914 12.26611328 C-135.5251785 12.62239081 -132.7943344 13.01886536 -130.0625 13.4375 C-129.13115234 13.57220703 -128.19980469 13.70691406 -127.24023438 13.84570312 C-123.69474423 14.37048687 -120.40753759 14.86415414 -117 16 C-100.02953504 18.27527403 -86.22818138 13.66376863 -70.58140564 7.8139801 C-69.52403954 7.41879433 -69.52403954 7.41879433 -68.4453125 7.015625 C-67.74753189 6.75414169 -67.04975128 6.49265839 -66.33082581 6.22325134 C-59.02671841 3.54207444 -51.58646129 1.70769125 -44 0 C-42.97011963 -0.23203125 -41.94023926 -0.4640625 -40.87915039 -0.703125 C-28.04461958 -3.43777249 -12.68162246 -3.4209875 0 0 Z M-68 32 C-69.77065933 32.70876819 -71.54148111 33.41713075 -73.3125 34.125 C-74.50166016 34.60453125 -74.50166016 34.60453125 -75.71484375 35.09375 C-93.98805519 42.34056206 -110.4733806 41.93433141 -129.41064453 37.77905273 C-138.44934276 35.85666859 -149.01064737 33.61307848 -157.39453125 38.63476562 C-161.20698874 41.8767459 -162.78166519 46.13120206 -163.34570312 50.95898438 C-163.47341603 54.30992778 -163.5114059 57.64666469 -163.5 61 C-163.46792324 70.43056806 -164.03019154 76.77883887 -169.796875 84.36328125 C-194.97506755 109.49111742 -232.22573651 123.44068942 -264.39038086 137.42602539 C-268.94477019 139.41196709 -273.47476928 141.44872254 -278 143.5 C-282.79052427 145.66637126 -287.58157678 147.82851748 -292.40625 149.91796875 C-293.09976562 150.21832031 -293.79328125 150.51867187 -294.5078125 150.828125 C-296.34755909 151.62174118 -298.18931637 152.41069185 -300.03125 153.19921875 C-309.62814993 157.46916034 -318.73769053 162.45174356 -327.6875 167.9375 C-328.65494141 168.51951172 -329.62238281 169.10152344 -330.61914062 169.70117188 C-336.74566638 173.43665652 -342.42795373 177.48394923 -348 182 C-349.34384766 183.04800781 -349.34384766 183.04800781 -350.71484375 184.1171875 C-371.06642172 200.21246006 -387.00494649 219.86590578 -402.6171875 240.44140625 C-424.00619946 268.46907571 -450.05990897 287.99229855 -483 301 C-484.89713129 301.7885512 -486.79301534 302.58011133 -488.6875 303.375 C-489.64269531 303.76945312 -490.59789062 304.16390625 -491.58203125 304.5703125 C-496.02765387 306.42985293 -500.44976817 308.34255157 -504.875 310.25 C-512.33951887 313.46647888 -519.84029525 316.57690209 -527.375 319.625 C-535.38964329 322.87853117 -543.25918796 326.31452377 -551.05273438 330.06689453 C-553.22264984 331.10669103 -555.39975291 332.13038584 -557.578125 333.15234375 C-559.19797425 333.91394004 -560.81776654 334.67565749 -562.4375 335.4375 C-563.15188232 335.77265625 -563.86626465 336.1078125 -564.60229492 336.453125 C-575.284052 341.50263991 -585.82685207 346.83607998 -596.2890625 352.32421875 C-597.67706788 353.05015975 -599.06508875 353.77607115 -600.453125 354.50195312 C-602.5457082 355.59653888 -604.63672056 356.69370797 -606.72363281 357.79907227 C-615.95126642 362.68043457 -624.99945235 366.8946882 -635 370 C-636.49551392 370.47240112 -636.49551392 370.47240112 -638.02124023 370.9543457 C-645.92331868 373.20109882 -653.50762305 373.45070066 -661.6875 373.375 C-662.92177734 373.38660156 -664.15605469 373.39820313 -665.42773438 373.41015625 C-672.23247098 373.38901258 -678.60395897 372.81770426 -685.25390625 371.49609375 C-693.79844447 369.81702587 -702.1135539 369.57413037 -710.80371094 369.66381836 C-713.26269991 369.68762294 -715.72061046 369.68431858 -718.1796875 369.67773438 C-730.63445182 369.69826206 -742.47237329 370.77921355 -754.375 374.6875 C-755.18171143 374.94950195 -755.98842285 375.21150391 -756.81958008 375.48144531 C-775.16648074 381.6169995 -791.3990598 391.33742416 -806 404 C-807.60717657 405.36607476 -809.2183372 406.72735956 -810.82958984 408.08862305 C-811.94135659 409.02798633 -813.05236247 409.96825089 -814.16259766 410.90942383 C-834.59668098 428.2308101 -856.10922589 443.1346799 -879 457 C-879.71736328 457.43666992 -880.43472656 457.87333984 -881.17382812 458.32324219 C-900.00512239 469.75070228 -919.66000851 479.77032962 -939.125 490.0625 C-976.45726485 509.80252025 -1012.67005545 530.44859542 -1046.80859375 555.39941406 C-1048.91081723 556.93486161 -1051.01733014 558.46422838 -1053.125 559.9921875 C-1060.23067143 565.15610062 -1067.19369315 570.44357859 -1074 576 C-1074.91523437 576.69222656 -1075.83046875 577.38445313 -1076.7734375 578.09765625 C-1077.50820312 578.72542969 -1078.24296875 579.35320313 -1079 580 C-1079 580.66 -1079 581.32 -1079 582 C-1079.57363281 582.24878906 -1080.14726563 582.49757813 -1080.73828125 582.75390625 C-1095.48201807 590.87696678 -1106.55713101 610.93996593 -1115.5 624.9375 C-1116.05046997 625.79843262 -1116.05046997 625.79843262 -1116.61206055 626.67675781 C-1118.13806131 629.06852499 -1119.66187457 631.46142558 -1121.17041016 633.86425781 C-1130.72804951 649.03598332 -1141.6036384 663.86034647 -1159.4921875 669.3046875 C-1171.52689923 671.69018715 -1183.98586669 671.16717202 -1194.49609375 664.390625 C-1197.8588174 661.18003705 -1199.63973197 657.60396076 -1201.75 653.5 C-1205.83539992 645.85070765 -1210.13410926 638.44742302 -1216 632 C-1216.66 632 -1217.32 632 -1218 632 C-1218 631.34 -1218 630.68 -1218 630 C-1233.81847093 614.97671252 -1254.52667135 607.41775457 -1276.15942383 607.57958984 C-1298.35033934 608.32379015 -1317.93921332 618.8011456 -1333.10546875 634.765625 C-1347.78168368 652.07448055 -1356.50835697 673.07297408 -1355 696 C-1351.50677591 719.87494888 -1340.574873 737.86247004 -1322 753 C-1320.60790613 753.9637573 -1319.21221369 754.92234316 -1317.8125 755.875 C-1310.02348465 761.65494393 -1307.16421249 770.70739402 -1304.1640625 779.58203125 C-1302.84531458 783.45419376 -1301.34837293 787.22835289 -1299.796875 791.01171875 C-1299.13938675 792.65221639 -1298.5588849 794.32334531 -1298 796 C-1295.10528406 795.05753435 -1292.27803474 794.12511563 -1289.5 792.875 C-1285.05474731 791.31916156 -1281.5052554 791.57467975 -1277.28051758 793.55712891 C-1275.89532875 794.26769146 -1274.51694889 794.99163595 -1273.14453125 795.7265625 C-1272.40224777 796.11186127 -1271.65996429 796.49716003 -1270.89518738 796.89413452 C-1268.52815191 798.12640054 -1266.17044411 799.37544165 -1263.8125 800.625 C-1262.24731783 801.44250432 -1260.68156717 802.25892119 -1259.11523438 803.07421875 C-1257.58308312 803.87452116 -1256.05117858 804.67529608 -1254.51953125 805.4765625 C-1253.40277512 806.06053802 -1253.40277512 806.06053802 -1252.26345825 806.65631104 C-1247.1621661 809.34180007 -1242.17460179 812.18200251 -1237.26831055 815.21240234 C-1234.96895151 816.23384178 -1234.96895151 816.23384178 -1232.38720703 815.41479492 C-1229.60788131 813.76760812 -1228.66087611 812.46396473 -1227.10546875 809.65234375 C-1226.60192871 808.75499512 -1226.09838867 807.85764648 -1225.57958984 806.93310547 C-1225.0583252 805.96518066 -1224.53706055 804.99725586 -1224 804 C-1223.45682129 803.01531738 -1222.91364258 802.03063477 -1222.35400391 801.01611328 C-1220.64252446 797.88047579 -1218.97365751 794.72505132 -1217.3125 791.5625 C-1216.74466797 790.50740234 -1216.17683594 789.45230469 -1215.59179688 788.36523438 C-1206.37226169 770.80164156 -1204.84587744 753.14769883 -1210 734 C-1210.33 733.34 -1210.66 732.68 -1211 732 C-1211.3885634 727.88122799 -1211.45820463 725.71100718 -1209.1875 722.1875 C-1206.05606765 719.05606765 -1204.62185267 718.04011953 -1200.125 717.75 C-1196.628387 717.87808106 -1193.97964705 718.01356863 -1191 720 C-1183.95687808 730.77183352 -1183.50831339 744.48497377 -1183 757 C-1179.07115424 755.7487179 -1175.35237012 754.3263638 -1171.62109375 752.57421875 C-1170.12606323 751.8776416 -1170.12606323 751.8776416 -1168.60083008 751.16699219 C-1167.55693115 750.67875977 -1166.51303223 750.19052734 -1165.4375 749.6875 C-1148.14289733 741.69764856 -1130.37777476 735.08268158 -1112 730 C-1112.28875 729.12859375 -1112.5775 728.2571875 -1112.875 727.359375 C-1115.26425898 719.69383576 -1117.51057876 712.08159636 -1116 704 C-1114.55191676 701.58997575 -1113.3462344 700.65953165 -1111 699 C-1110.67 698.67 -1110.34 698.34 -1110 698 C-1105.00240648 697.61556973 -1101.99375774 697.89374398 -1098 701 C-1094.6234636 704.56071111 -1093.91114568 708.74558118 -1092.8125 713.375 C-1089.15852499 727.4203646 -1082.2305158 737.73610568 -1072 748 C-1071.16855469 748.83789062 -1070.33710937 749.67578125 -1069.48046875 750.5390625 C-1049.75007933 770.11409453 -1025.40453564 779.05999208 -999.125 786.5625 C-978.25866762 792.58483869 -962.13744931 803.95956875 -945.87084961 817.89575195 C-941.68985301 821.46254129 -937.3909903 824.83901804 -933.01342773 828.16015625 C-929.44757761 830.87009582 -925.94234176 833.64332243 -922.4621582 836.46240234 C-911.32269213 845.47877008 -899.65900019 853.56835077 -887.8125 861.625 C-853.80266777 884.7583298 -853.80266777 884.7583298 -848.49020386 907.01281738 C-847.6584026 910.49081647 -846.78093354 913.95737674 -845.91015625 917.42578125 C-845.74250259 918.09825897 -845.57484894 918.77073669 -845.40211487 919.46359253 C-843.57637207 926.76191563 -841.45231526 933.88752179 -839 941 C-838.64784424 942.03133057 -838.64784424 942.03133057 -838.28857422 943.08349609 C-834.87051794 953.00440993 -830.91058758 962.6110818 -826.625 972.1875 C-781.3158571 1073.5944151 -781.3158571 1073.5944151 -791.8359375 1107.7109375 C-795.35516702 1113.87549391 -801.71746547 1117.49346711 -808.375 1119.4765625 C-809.9126833 1119.87507421 -811.45462347 1120.25745012 -813 1120.625 C-813.8237915 1120.8310083 -814.64758301 1121.0370166 -815.49633789 1121.24926758 C-824.13275237 1123.36456209 -832.88568177 1125.22015181 -841.71044922 1126.34570312 C-849.53747359 1127.43232929 -856.09793003 1129.82190947 -863.25 1133.125 C-864.29285156 1133.59292969 -865.33570313 1134.06085938 -866.41015625 1134.54296875 C-868.94602891 1135.6829482 -871.47543042 1136.83525831 -874 1138 C-874 1138.33 -874 1138.66 -874 1139 C-861.4564307 1139.06952592 -848.91290728 1139.12282458 -836.36918449 1139.15543652 C-830.54455634 1139.171089 -824.72006007 1139.19231994 -818.89550781 1139.22631836 C-813.27396473 1139.25892626 -807.65254848 1139.27685616 -802.03091812 1139.28463173 C-799.88672006 1139.29017263 -797.7425289 1139.30099263 -795.59838486 1139.31719017 C-792.59392066 1139.33898315 -789.5899798 1139.3419661 -786.58544922 1139.34057617 C-785.69999924 1139.351362 -784.81454926 1139.36214783 -783.90226746 1139.3732605 C-777.7908291 1139.34268931 -773.79883381 1138.07913369 -768.8125 1134.375 C-764.2521401 1128.39935599 -763.54250634 1121.30033664 -763.7421875 1114.00390625 C-763.75418182 1113.18016006 -763.76617615 1112.35641388 -763.77853394 1111.50770569 C-763.93531724 1103.29587238 -764.45581232 1095.12144434 -765.125 1086.9375 C-765.18702606 1086.15203796 -765.24905212 1085.36657593 -765.31295776 1084.55731201 C-766.64841796 1067.72358841 -768.34622746 1050.92342595 -770.0625 1034.125 C-770.19215149 1032.84358124 -770.32180298 1031.56216248 -770.4553833 1030.24191284 C-770.82990117 1026.55903568 -771.21236185 1022.87707621 -771.59765625 1019.1953125 C-771.70907455 1018.09680466 -771.82049286 1016.99829681 -771.93528748 1015.86650085 C-772.5122149 1010.4515523 -773.29626832 1005.22096642 -774.55937195 999.92367554 C-775.13151286 997.42584666 -775.44709417 994.93811048 -775.7109375 992.390625 C-775.81921875 991.39925537 -775.9275 990.40788574 -776.0390625 989.38647461 C-776.14992188 988.35143799 -776.26078125 987.31640137 -776.375 986.25 C-777.5779888 975.6431788 -779.31188283 965.24435354 -781.44506836 954.78979492 C-782.09832983 951.50566874 -782.7071441 948.21445142 -783.31640625 944.921875 C-785.60446973 932.61056458 -788.1199304 920.34327291 -790.59057617 908.06762695 C-791.02283923 905.91865741 -791.45448738 903.76956409 -791.88551331 901.62034607 C-792.31136699 899.50075636 -792.73967834 897.38165885 -793.17051697 895.26307678 C-794.19706535 890.18198824 -795.1677297 885.1028192 -796.01196289 879.98803711 C-796.1743898 879.03773117 -796.33681671 878.08742523 -796.50416565 877.10832214 C-796.80275729 875.34155442 -797.08495767 873.57189541 -797.34654236 871.79927063 C-798.83056534 863.15953994 -803.6099232 858.68765615 -810 853 C-810.84884766 851.85724609 -810.84884766 851.85724609 -811.71484375 850.69140625 C-812.13894531 850.13324219 -812.56304688 849.57507812 -813 849 C-813.66 849 -814.32 849 -815 849 C-815 848.34 -815 847.68 -815 847 C-816.58438921 845.39729881 -816.58438921 845.39729881 -818.625 843.75 C-822.81656226 840.24900164 -822.81656226 840.24900164 -824.14208984 838.44970703 C-826.46498046 835.49990737 -828.08030968 834.16477719 -831.84521484 833.49023438 C-835.36495129 833.32582392 -838.85186587 833.32436424 -842.375 833.375 C-862.13822835 833.14419228 -877.77018713 829.69707399 -892.62109375 815.6328125 C-897.20479018 810.55988739 -900.67381405 804.95099836 -904 799 C-904.86818359 797.50146484 -904.86818359 797.50146484 -905.75390625 795.97265625 C-910.41903747 786.7008541 -911.31510757 777.12600223 -912.09301758 766.86083984 C-912.6806082 760.33342171 -912.6806082 760.33342171 -915.85644531 754.79272461 C-918.1518559 752.98189522 -920.48040373 751.47983528 -923 750 C-924.34122044 749.068761 -925.67741291 748.13022742 -927.0078125 747.18359375 C-928.37692824 746.26333035 -929.74946152 745.34813523 -931.125 744.4375 C-931.8792627 743.93573242 -932.63352539 743.43396484 -933.41064453 742.91699219 C-939.80444297 738.70439463 -946.32364067 734.71174431 -952.875 730.75 C-956.58468917 728.50222601 -960.29366441 726.25330016 -964 724 C-964.65291016 723.60329102 -965.30582031 723.20658203 -965.97851562 722.79785156 C-979.88141265 714.25887502 -990.17959297 703.6141065 -999 690 C-999.6084375 689.06671875 -1000.216875 688.1334375 -1000.84375 687.171875 C-1005.75574628 679.32231231 -1009.80094782 671.5286512 -1008 662 C-1005.80977082 659.17575712 -1004.16982793 657.58491397 -1001 656 C-997.12558459 655.62746006 -994.50272424 655.7989103 -990.875 657.25 C-987.25878342 660.70898977 -986.16747212 664.06569668 -984.41796875 668.69140625 C-980.71766243 677.32545434 -974.54189022 685.97768839 -967.625 692.375 C-967.08101562 692.89835937 -966.53703125 693.42171875 -965.9765625 693.9609375 C-963.02607929 695.51198203 -961.16552636 694.83429383 -958 694 C-937.60050422 685.71174909 -927.75496819 667.24673801 -919.32421875 648.24609375 C-911.71784293 631.70812627 -899.06773414 624.00974609 -884 615 C-881.84578658 613.70003391 -879.70218424 612.38651938 -877.5625 611.0625 C-876.75941406 610.57910156 -875.95632813 610.09570312 -875.12890625 609.59765625 C-870.61187077 606.20780761 -868.3549325 602.00308889 -866.30078125 596.8359375 C-865.81851074 595.64081543 -865.33624023 594.44569336 -864.83935547 593.21435547 C-864.59038513 592.58768982 -864.34141479 591.96102417 -864.0848999 591.31536865 C-862.77484605 588.02434361 -861.43267091 584.74651189 -860.08984375 581.46875 C-859.82427673 580.81977753 -859.55870972 580.17080505 -859.28509521 579.50216675 C-853.52407891 565.49067139 -846.6126516 552.05530752 -839.45556641 538.71533203 C-837.83239783 535.68734127 -836.21915882 532.65414574 -834.60546875 529.62109375 C-828.00533044 517.25011145 -821.32227096 504.96032559 -814 493 C-813.39865234 492.0097583 -813.39865234 492.0097583 -812.78515625 490.99951172 C-811.59805255 489.05434938 -810.39624971 487.11927096 -809.1875 485.1875 C-808.50042969 484.08792969 -807.81335938 482.98835938 -807.10546875 481.85546875 C-804.58140358 478.43229317 -802.16917593 475.51300809 -797.90234375 474.50390625 C-793.59663157 474.63230721 -791.1721829 475.07183117 -788 478 C-787.34 478 -786.68 478 -786 478 C-784.25080012 483.24759964 -784.27077901 488.29417292 -786.41772461 493.31640625 C-787.07264893 494.38761719 -787.72757324 495.45882813 -788.40234375 496.5625 C-788.75520447 497.1512088 -789.10806519 497.7399176 -789.47161865 498.34646606 C-790.61142999 500.24085883 -791.77440324 502.11983408 -792.9375 504 C-793.7328795 505.31633685 -794.52624618 506.63389196 -795.31762695 507.95263672 C-796.86033238 510.5206073 -798.40988192 513.08417489 -799.96679688 515.64355469 C-815.67910125 541.58168636 -829.23909268 569.06533572 -841.12597656 596.95166016 C-842.06465179 599.15151635 -843.0130359 601.34707377 -843.9609375 603.54296875 C-850.0658364 617.7711089 -855.76197522 632.1603957 -860.078125 647.04296875 C-860.77515638 649.27878551 -861.56865802 651.48482927 -862.40625 653.671875 C-864.32395404 658.71448372 -865.77346106 663.87686481 -867.25 669.0625 C-869.05450368 675.35216669 -870.86632383 681.63472345 -872.8359375 687.875 C-876.75556547 700.30752017 -879.88805428 712.73073025 -882.48730469 725.50439453 C-883.5648279 730.74936705 -884.71891858 735.96697154 -886.0703125 741.1484375 C-890.45618181 758.34023674 -891.20901213 773.89072178 -883 790 C-876.8059365 800.36768247 -867.63032445 806.98147708 -856 810 C-851.42151547 810.5372116 -846.91819036 810.57200321 -842.3125 810.5 C-841.07951172 810.48864014 -839.84652344 810.47728027 -838.57617188 810.46557617 C-829.14530895 810.26527576 -820.8906695 809.18722114 -812 806 C-810.989375 805.649375 -809.97875 805.29875 -808.9375 804.9375 C-796.56210886 800.1979885 -785.22422516 792.85309544 -774.06469727 785.79980469 C-766.4840578 781.0155216 -758.7504574 776.50219174 -751 772 C-750.25379395 771.56574707 -749.50758789 771.13149414 -748.73876953 770.68408203 C-734.90262977 762.63530105 -721.01365839 754.67736042 -707.08984375 746.78125 C-701.32778834 743.50720724 -695.60789472 740.17935052 -689.9375 736.75 C-683.14989468 732.64698474 -676.2767574 728.70432401 -669.37915039 724.78955078 C-664.65243065 722.10239399 -659.94570664 719.38760595 -655.26953125 716.61328125 C-640.45864424 707.83641358 -625.36193707 699.76946191 -610 692 C-609.21157715 691.60087402 -608.4231543 691.20174805 -607.61083984 690.79052734 C-604.41129892 689.17475546 -601.20563015 687.57230796 -597.9921875 685.984375 C-594.94356362 684.47645351 -591.91165628 682.93788441 -588.8828125 681.390625 C-576.46259374 675.06812542 -563.93709074 669.19182386 -551 664 C-550.31260742 663.72349609 -549.62521484 663.44699219 -548.91699219 663.16210938 C-534.38597571 657.4309546 -519.0924299 653.91915701 -504 650 C-474.34301525 642.39560419 -474.34301525 642.39560419 -446 631 C-433.86536708 625.31180338 -421.72262105 620.21066803 -409 616 C-407.53626471 615.50838864 -406.0727239 615.01619784 -404.609375 614.5234375 C-401.0767911 613.33711898 -397.5398476 612.16449135 -394 611 C-394 610.34 -394 609.68 -394 609 C-411.56735344 601.22299185 -430.42610222 601.6467365 -449.25 602 C-472.70707847 602.43734713 -490.74739977 599.74534341 -512 589.3125 C-514.02010122 588.32792355 -516.04090239 587.34478154 -518.0625 586.36328125 C-519.37927734 585.71806519 -519.37927734 585.71806519 -520.72265625 585.05981445 C-527.49244249 581.90933824 -535.4365638 581.99973721 -542.5625 584 C-548.60694909 588.95954797 -549.70922674 596.52300581 -550.875 603.875 C-552.53634383 613.05646408 -554.54774378 620.27197746 -561.9296875 626.453125 C-566.95303764 629.89569602 -572.61339775 631.77417354 -578.3125 633.8125 C-579.50963623 634.24481934 -580.70677246 634.67713867 -581.94018555 635.12255859 C-585.61976704 636.43619409 -589.30726007 637.72386197 -593 639 C-594.051875 639.36561035 -595.10375 639.7312207 -596.1875 640.10791016 C-616.03969883 646.89692725 -636.45302402 650.9640955 -657 655 C-658.17788086 655.23235352 -659.35576172 655.46470703 -660.56933594 655.70410156 C-667.1892984 657.00257726 -673.81383333 658.27677255 -680.46166992 659.42529297 C-688.35062718 660.80769184 -696.13807895 662.55917894 -703.9375 664.375 C-705.21818359 664.66632812 -706.49886719 664.95765625 -707.81835938 665.2578125 C-719.45787438 667.96164278 -730.34687065 671.29993313 -741 676.75 C-742.29236572 677.40633423 -742.29236572 677.40633423 -743.61083984 678.07592773 C-753.62806174 683.24631917 -762.44548191 689.11902849 -770.69921875 696.859375 C-772.75894143 698.7757214 -774.88058876 700.53942814 -777.0625 702.3125 C-781.44963105 706.0779728 -784.57553593 710.69232566 -787.82421875 715.42578125 C-790.15740375 718.18622813 -791.54185115 719.09547622 -795 720 C-799.44819376 719.92056797 -801.41743095 719.48125269 -804.875 716.625 C-808.20876663 712.50681769 -808.54014091 709.19818773 -808 704 C-806.56202367 701.14618141 -804.68075917 698.73816448 -802.6875 696.25 C-802.14279053 695.55116699 -801.59808105 694.85233398 -801.03686523 694.13232422 C-786.11097618 675.31657939 -767.3011815 662.46439663 -745.359375 653.03515625 C-744.58078125 652.69355469 -743.8021875 652.35195312 -743 652 C-742.0203125 651.61328125 -741.040625 651.2265625 -740.03125 650.828125 C-736.04667121 648.42505429 -734.21537303 645.5574245 -731.75 641.6875 C-730.78779669 640.23088587 -729.82422921 638.77517205 -728.859375 637.3203125 C-728.38048828 636.59102539 -727.90160156 635.86173828 -727.40820312 635.11035156 C-725.3548193 632.03312379 -723.17841143 629.0517259 -721 626.0625 C-698.32925699 594.48794782 -678.99584984 559.02589995 -667 522 C-666.42260689 520.30573998 -665.84451404 518.61171823 -665.265625 516.91796875 C-658.57240987 496.74953788 -656.29963538 476.3732626 -657.23486328 455.22924805 C-657.54670033 444.78945673 -657.54670033 444.78945673 -654.62109375 441.171875 C-650.56875094 437.81404698 -648.27763207 437.56019733 -643 438 C-639.29609979 440.02666238 -637.34636989 441.48044516 -635 445 C-633.35208447 451.03118685 -633.77622784 457.39184228 -633.75976562 463.59741211 C-633.75019695 465.76782639 -633.71920687 467.93723502 -633.6875 470.10742188 C-633.61278861 480.0934412 -634.86056905 489.24290863 -637 499 C-637.39958516 500.99925379 -637.7962823 502.99909202 -638.1875 505 C-638.45728004 506.33354685 -638.72762815 507.6669801 -639 509 C-634.00629083 508.35340419 -629.85577199 506.22870103 -625.375 504.0625 C-624.54105713 503.66281006 -623.70711426 503.26312012 -622.84790039 502.85131836 C-613.77507291 498.46601908 -604.86461986 493.78976933 -596 489 C-594.88890869 488.40300293 -594.88890869 488.40300293 -593.75537109 487.79394531 C-573.77985348 477.02806272 -554.74071202 464.77518948 -536 452 C-534.72527832 451.13157471 -534.72527832 451.13157471 -533.42480469 450.24560547 C-518.22071584 439.84540495 -503.62653707 428.74879516 -489.4375 417.00390625 C-486.98498729 414.98765782 -484.49615988 413.02432566 -482 411.0625 C-477.3966559 407.39727816 -473.08360957 403.46692752 -468.76171875 399.4765625 C-466.20348623 397.18247563 -463.57863057 395.05623016 -460.875 392.9375 C-455.72244199 388.79626068 -451.13403353 384.20918551 -446.5 379.5 C-440.28146743 373.19167895 -434.04677402 367.38323939 -427 362 C-425.97648437 361.19433594 -424.95296875 360.38867188 -423.8984375 359.55859375 C-418.44934911 355.28576193 -412.91378533 351.20610745 -407.1875 347.3125 C-393.03929385 337.58030057 -383.80381839 325.07329874 -374.4375 310.9375 C-360.85422999 290.46809553 -345.06210534 271.50069616 -325.7109375 256.20703125 C-322.69584493 253.75238096 -319.84223238 251.14962355 -317 248.5 C-312.4128315 244.23038203 -307.66553131 240.24238151 -302.78125 236.3125 C-299.75980516 233.80028744 -296.87561617 231.17595912 -294 228.5 C-289.3688789 224.19125149 -284.58195471 220.1513294 -279.65234375 216.18359375 C-277.00732363 214.00602932 -274.46787475 211.74681237 -271.9375 209.4375 C-268.80903828 206.58854034 -265.63721107 203.86697555 -262.3125 201.25 C-258.00377644 197.85831306 -253.87181 194.30085353 -249.75 190.6875 C-243.73205558 185.42341513 -237.55651226 180.42443939 -231.23828125 175.52734375 C-228.42397377 173.34389995 -225.67443619 171.0925618 -222.9375 168.8125 C-214.17528934 161.60112309 -205.05194154 154.84070125 -196 148 C-195.26523438 147.44344727 -194.53046875 146.88689453 -193.7734375 146.31347656 C-189.20037459 142.85107674 -184.60964226 139.41354775 -180 136 C-179.30374512 135.48373047 -178.60749023 134.96746094 -177.89013672 134.43554688 C-153.53152596 116.43587311 -127.82962195 101.51627968 -100.875 87.75 C-90.46921859 82.4247802 -80.57758999 76.69937891 -71 70 C-69.47246094 68.94039062 -69.47246094 68.94039062 -67.9140625 67.859375 C-63.37998408 64.63344806 -59.03451075 61.23698471 -54.75 57.6875 C-38.03298525 43.87986585 -21.43895482 34.3328628 -1 27 C-1 26.34 -1 25.68 -1 25 C-24.00623859 19.65415203 -46.18797236 22.93641903 -68 32 Z " fill="#050606" transform="translate(1702,443)"/>
<path d="M0 0 C1.19199002 3.57597007 0.7235814 4.53079941 -0.4765625 8.0234375 C-0.98461426 9.53973755 -0.98461426 9.53973755 -1.50292969 11.08666992 C-1.87321289 12.17181885 -2.24349609 13.25696777 -2.625 14.375 C-5.91329759 24.29212203 -8.61531772 34.18453997 -10.92578125 44.3671875 C-12.05036704 49.31536497 -13.45003996 54.16155509 -14.88671875 59.02734375 C-17.54158661 68.27049561 -19.70312528 77.66290508 -22 87 C-26.14866844 85.42242343 -29.38406083 83.46943635 -33 80.875 C-39.490426 76.27427525 -46.18071542 72.09603509 -53 68 C-51.67435721 64.02307163 -49.90226296 63.43812839 -46.375 61.25 C-31.67742717 51.64804794 -23.38850816 37.5664621 -15.97216797 22.03320312 C-7.24011806 3.77089482 -7.24011806 3.77089482 0 0 Z " fill="#F6F6F5" transform="translate(816,1087)"/>
<path d="M0 0 C1.50433594 0.29197266 1.50433594 0.29197266 3.0390625 0.58984375 C4.19535156 0.82380859 4.19535156 0.82380859 5.375 1.0625 C5.375 1.7225 5.375 2.3825 5.375 3.0625 C3.60858317 3.7612693 1.83667336 4.44616583 0.0625 5.125 C-1.41669922 5.69927734 -1.41669922 5.69927734 -2.92578125 6.28515625 C-5.625 7.0625 -5.625 7.0625 -8.625 6.0625 C-8.25 3.125 -8.25 3.125 -7.625 0.0625 C-4.81015955 -1.34492022 -3.05563887 -0.60402164 0 0 Z " fill="#EFEDEE" transform="translate(1695.625,466.9375)"/>
<path d="M0 0 C0.99 0.66 1.98 1.32 3 2 C5.15274948 1.69159401 5.15274948 1.69159401 7 1 C7 1.66 7 2.32 7 3 C7.69480469 2.81566406 8.38960937 2.63132812 9.10546875 2.44140625 C12.44260193 1.9325047 15.00182365 2.319022 18.3125 2.9375 C19.38113281 3.13214844 20.44976563 3.32679687 21.55078125 3.52734375 C22.76314453 3.76130859 22.76314453 3.76130859 24 4 C24 4.33 24 4.66 24 5 C14.76 5 5.52 5 -4 5 C-3.01 4.67 -2.02 4.34 -1 4 C-0.26676204 1.98491642 -0.26676204 1.98491642 0 0 Z " fill="#E3E7E7" transform="translate(850,1248)"/>
<path d="M0 0 C2.97 0.495 2.97 0.495 6 1 C5.01 1.495 5.01 1.495 4 2 C4 2.66 4 3.32 4 4 C4.66 4.33 5.32 4.66 6 5 C5.34 5 4.68 5 4 5 C4 6.65 4 8.3 4 10 C3.01 10 2.02 10 1 10 C0.67 13.63 0.34 17.26 0 21 C-0.33 21 -0.66 21 -1 21 C-1.0269501 18.06243881 -1.04681474 15.12512445 -1.0625 12.1875 C-1.07087891 11.35412109 -1.07925781 10.52074219 -1.08789062 9.66210938 C-1.09111328 8.85966797 -1.09433594 8.05722656 -1.09765625 7.23046875 C-1.10289307 6.49207764 -1.10812988 5.75368652 -1.11352539 4.99291992 C-1 3 -1 3 0 0 Z " fill="#E9E9E6" transform="translate(963,1542)"/>
<path d="M0 0 C1.18414294 3.55242882 0.69535532 4.69830562 -0.4375 8.1875 C-0.72496094 9.08855469 -1.01242187 9.98960938 -1.30859375 10.91796875 C-1.53675781 11.60503906 -1.76492188 12.29210938 -2 13 C-3.32 12.34 -4.64 11.68 -6 11 C-6.33 11.66 -6.66 12.32 -7 13 C-7.8125 10.3125 -7.8125 10.3125 -8 7 C-5.56754989 4.02700542 -3.19086664 2.12724443 0 0 Z " fill="#EDECEB" transform="translate(816,1087)"/>
<path d="M0 0 C0.97001953 0.00451172 1.94003906 0.00902344 2.93945312 0.01367188 C5.3138676 0.0253685 7.68815021 0.04175914 10.0625 0.0625 C10.0625 1.0525 10.0625 2.0425 10.0625 3.0625 C6.33334983 3.09162348 2.6042291 3.10934037 -1.125 3.125 C-2.70764648 3.13756836 -2.70764648 3.13756836 -4.32226562 3.15039062 C-5.85463867 3.15522461 -5.85463867 3.15522461 -7.41796875 3.16015625 C-8.35535889 3.16539307 -9.29274902 3.17062988 -10.25854492 3.17602539 C-12.91799477 3.06332657 -15.34670573 2.65626649 -17.9375 2.0625 C-17.9375 1.7325 -17.9375 1.4025 -17.9375 1.0625 C-11.92889451 0.00411873 -6.09122439 -0.05412571 0 0 Z " fill="#F3F3F2" transform="translate(826.9375,1606.9375)"/>
<path d="M0 0 C0.27573092 2.10094974 0.51978976 4.20607635 0.75 6.3125 C0.88921875 7.48425781 1.0284375 8.65601563 1.171875 9.86328125 C1 13 1 13 -0.984375 14.91796875 C-1.64953125 15.27503906 -2.3146875 15.63210938 -3 16 C-5.59080963 6.4463895 -5.59080963 6.4463895 -5 3 C-1.79310345 0 -1.79310345 0 0 0 Z " fill="#EFEEEB" transform="translate(856,1333)"/>
<path d="M0 0 C0.33 0 0.66 0 1 0 C1.66 6.27 2.32 12.54 3 19 C2.01 19 1.02 19 0 19 C0 18.01 0 17.02 0 16 C-0.66 15.67 -1.32 15.34 -2 15 C-2 11.37 -2 7.74 -2 4 C-1.34 4 -0.68 4 0 4 C0 2.68 0 1.36 0 0 Z " fill="#E0DFDE" transform="translate(788,1206)"/>
<path d="M0 0 C2 3 2 3 1.625 5.1875 C1.41875 5.785625 1.2125 6.38375 1 7 C-1.31 7.33 -3.62 7.66 -6 8 C-6 8.66 -6 9.32 -6 10 C-7.65 10.66 -9.3 11.32 -11 12 C-10.67567593 8.93617261 -10.01098513 8.01029035 -7.71484375 5.859375 C-6.79832031 5.16328125 -5.88179687 4.4671875 -4.9375 3.75 C-4.01839844 3.04359375 -3.09929687 2.3371875 -2.15234375 1.609375 C-1.44207031 1.07828125 -0.73179688 0.5471875 0 0 Z " fill="#EEEEEB" transform="translate(1505,621)"/>
<path d="M0 0 C0 1.32 0 2.64 0 4 C0.66 4 1.32 4 2 4 C1.67 4.99 1.34 5.98 1 7 C-0.65 7.33 -2.3 7.66 -4 8 C-4.66 6.68 -5.32 5.36 -6 4 C-2.25 0 -2.25 0 0 0 Z M-8 5 C-7.34 5.33 -6.68 5.66 -6 6 C-6.99 6.99 -7.98 7.98 -9 9 C-9.66 8.67 -10.32 8.34 -11 8 C-10.01 7.01 -9.02 6.02 -8 5 Z " fill="#151615" transform="translate(619,996)"/>
<path d="M0 0 C-0.25390625 1.859375 -0.25390625 1.859375 -1 4 C-2.77734375 5.265625 -2.77734375 5.265625 -4.9375 6.25 C-6.00291016 6.75273438 -6.00291016 6.75273438 -7.08984375 7.265625 C-9 8 -9 8 -11 8 C-9 2 -9 2 -7.25 0.8125 C-4.70039426 -0.10819096 -2.69076919 -0.14948718 0 0 Z " fill="#EFEEED" transform="translate(1121,758)"/>
<path d="M0 0 C0.66 0.33 1.32 0.66 2 1 C2 1.99 2 2.98 2 4 C3.32 2.68 4.64 1.36 6 0 C6.66 1.98 7.32 3.96 8 6 C4.04 6.66 0.08 7.32 -4 8 C-2 3 -2 3 0 0 Z " fill="#ECECEC" transform="translate(1006,1074)"/>
<path d="M0 0 C4.05606165 0.46800711 7.46588679 0.87953208 11 3 C11 3.66 11 4.32 11 5 C8.36 5.66 5.72 6.32 3 7 C2.690625 6.21625 2.38125 5.4325 2.0625 4.625 C1.07124962 2.07669872 1.07124962 2.07669872 0 0 Z " fill="#E3E3E2" transform="translate(1297,1049)"/>
<path d="M0 0 C1.485 0.99 1.485 0.99 3 2 C2.67 3.32 2.34 4.64 2 6 C2.66 6.33 3.32 6.66 4 7 C3.67 8.65 3.34 10.3 3 12 C2.34 12 1.68 12 1 12 C1 13.65 1 15.3 1 17 C0.67 17 0.34 17 0 17 C-0.19386492 14.35448944 -0.38038267 11.70882217 -0.5625 9.0625 C-0.61857422 8.30775391 -0.67464844 7.55300781 -0.73242188 6.77539062 C-0.86176157 4.85254042 -0.93516912 2.92610452 -1 1 C-0.67 0.67 -0.34 0.34 0 0 Z " fill="#E5E4E2" transform="translate(953,1446)"/>
<path d="M0 0 C-0.33 0.66 -0.66 1.32 -1 2 C-1.66 2 -2.32 2 -3 2 C-3 2.66 -3 3.32 -3 4 C-3.99 4 -4.98 4 -6 4 C-6.33 4.66 -6.66 5.32 -7 6 C-7.99 6.33 -8.98 6.66 -10 7 C-10.33 6.34 -10.66 5.68 -11 5 C-11.99 4.34 -12.98 3.68 -14 3 C-12.04486839 2.303447 -10.08577524 1.61800435 -8.125 0.9375 C-7.03445313 0.55464844 -5.94390625 0.17179687 -4.8203125 -0.22265625 C-2 -1 -2 -1 0 0 Z " fill="#EAEAE9" transform="translate(586,1200)"/>
<path d="M0 0 C5.445 1.485 5.445 1.485 11 3 C6.5 7 6.5 7 2 7 C0 4 0 4 0 0 Z " fill="#EFEFED" transform="translate(667,1243)"/>
<path d="M0 0 C0.33 0 0.66 0 1 0 C1.33 1.98 1.66 3.96 2 6 C-3.75 9 -3.75 9 -6 9 C-6.66 7.02 -7.32 5.04 -8 3 C-6.68 2.67 -5.36 2.34 -4 2 C-4 2.66 -4 3.32 -4 4 C-3.01 4 -2.02 4 -1 4 C-0.67 2.68 -0.34 1.36 0 0 Z " fill="#E4E3E2" transform="translate(410,1230)"/>
<path d="M0 0 C-0.18359375 1.796875 -0.18359375 1.796875 -1 4 C-3.28515625 5.703125 -3.28515625 5.703125 -6.0625 7.25 C-7.44115234 8.03117188 -7.44115234 8.03117188 -8.84765625 8.828125 C-9.55792969 9.21484375 -10.26820313 9.6015625 -11 10 C-10.21042494 6.18770828 -8.98682184 4.560133 -6 2 C-3.7859478 0.69761635 -2.56707742 0 0 0 Z " fill="#131313" transform="translate(692,971)"/>
<path d="M0 0 C-2.74093665 1.8272911 -5.13825324 2.93698178 -8.1875 4.125 C-9.08855469 4.47820313 -9.98960937 4.83140625 -10.91796875 5.1953125 C-11.94857422 5.59363281 -11.94857422 5.59363281 -13 6 C-13.33 4.68 -13.66 3.36 -14 2 C-8.79666866 -0.24281523 -5.65735415 -1.55577239 0 0 Z " fill="#19191A" transform="translate(937,822)"/>
<path d="M0 0 C1.29474635 3.88423904 0.63372371 5.28699157 -1 9 C-3.625 11.875 -3.625 11.875 -6 14 C-6.99 13.67 -7.98 13.34 -9 13 C-6.03 8.71 -3.06 4.42 0 0 Z " fill="#E7E6E5" transform="translate(1347,767)"/>
<path d="M0 0 C0.33 0.66 0.66 1.32 1 2 C1.66 2.33 2.32 2.66 3 3 C2.01 4.485 2.01 4.485 1 6 C1.33 6.99 1.66 7.98 2 9 C1.01 9 0.02 9 -1 9 C-1 9.66 -1 10.32 -1 11 C-2.65 11 -4.3 11 -6 11 C-5.47599609 10.18595703 -5.47599609 10.18595703 -4.94140625 9.35546875 C-4.25884766 8.28232422 -4.25884766 8.28232422 -3.5625 7.1875 C-3.11003906 6.47980469 -2.65757813 5.77210938 -2.19140625 5.04296875 C-0.85913661 2.91865448 -0.85913661 2.91865448 0 0 Z " fill="#E3E4E3" transform="translate(1538,517)"/>
<path d="M0 0 C0.042721 1.66611905 0.04063832 3.33382885 0 5 C-0.33 5.33 -0.66 5.66 -1 6 C-0.67 6 -0.34 6 0 6 C0 7.65 0 9.3 0 11 C-0.66 11 -1.32 11 -2 11 C-2.33 12.32 -2.66 13.64 -3 15 C-3.24900646 13.06494977 -3.47356242 11.12674066 -3.6875 9.1875 C-3.81511719 8.10855469 -3.94273437 7.02960938 -4.07421875 5.91796875 C-4 3 -4 3 -2.58203125 1.11328125 C-1 0 -1 0 0 0 Z " fill="#F6F5F3" transform="translate(969,1551)"/>
<path d="M0 0 C0.99 0.33 1.98 0.66 3 1 C3 1.66 3 2.32 3 3 C-3.4 7.06153846 -3.4 7.06153846 -6.4375 6.75 C-6.953125 6.5025 -7.46875 6.255 -8 6 C-8 5.34 -8 4.68 -8 4 C-5.33333333 2.66666667 -2.66666667 1.33333333 0 0 Z " fill="#121312" transform="translate(1109,790)"/>
<path d="M0 0 C0.66 0.33 1.32 0.66 2 1 C1.21654285 2.17219543 0.42297164 3.33763668 -0.375 4.5 C-0.81585937 5.1496875 -1.25671875 5.799375 -1.7109375 6.46875 C-2.13632813 6.9740625 -2.56171875 7.479375 -3 8 C-3.66 8 -4.32 8 -5 8 C-5 8.99 -5 9.98 -5 11 C-5.66 11 -6.32 11 -7 11 C-7.33 9.68 -7.66 8.36 -8 7 C-5.36 4.69 -2.72 2.38 0 0 Z " fill="#ECEBE9" transform="translate(1402,708)"/>
<path d="M0 0 C1.32 0.66 2.64 1.32 4 2 C4 6 4 6 3 8 C2.34 8 1.68 8 1 8 C0.67 8.66 0.34 9.32 0 10 C-0.66 9.01 -1.32 8.02 -2 7 C-1.125 3.3125 -1.125 3.3125 0 0 Z " fill="#F0F0EF" transform="translate(843,1086)"/>
<path d="M0 0 C0.99 0.33 1.98 0.66 3 1 C3 2.32 3 3.64 3 5 C1.68 5.33 0.36 5.66 -1 6 C-1 6.99 -1 7.98 -1 9 C-2.32 9.33 -3.64 9.66 -5 10 C-3.66511872 6.40608886 -2.03977277 3.24509304 0 0 Z " fill="#EDEDEC" transform="translate(916,935)"/>
<path d="M0 0 C4.29 0 8.58 0 13 0 C13 0.99 13 1.98 13 3 C12.38125 2.814375 11.7625 2.62875 11.125 2.4375 C8.95839822 1.76313824 8.95839822 1.76313824 7 3 C4.6670134 3.04022391 2.33293334 3.04320247 0 3 C0 2.01 0 1.02 0 0 Z " fill="#F4F6F2" transform="translate(906,1607)"/>
<path d="M0 0 C3 1 3 1 4.25 3.3125 C5.0275526 6.09873015 4.98726527 7.33438378 4 10 C3.01 9.34 2.02 8.68 1 8 C0.34 7.67 -0.32 7.34 -1 7 C-1 3 -1 3 0 0 Z M1 3 C2 5 2 5 2 5 Z " fill="#F0EFEE" transform="translate(488,1174)"/>
<path d="M0 0 C1.4800841 0.11362262 2.95910074 0.24122908 4.4375 0.375 C5.26121094 0.44460938 6.08492188 0.51421875 6.93359375 0.5859375 C7.95646484 0.79089844 7.95646484 0.79089844 9 1 C9.33 1.66 9.66 2.32 10 3 C9.67 3.66 9.34 4.32 9 5 C5.37 4.34 1.74 3.68 -2 3 C-1.34 2.01 -0.68 1.02 0 0 Z " fill="#0D1010" transform="translate(445,1050)"/>
<path d="M0 0 C0.66 0.33 1.32 0.66 2 1 C1.67 1.66 1.34 2.32 1 3 C1.27942455 4.67654729 1.60828247 6.34608154 2 8 C1.34 8 0.68 8 0 8 C-0.66 8.66 -1.32 9.32 -2 10 C-2.66 8.68 -3.32 7.36 -4 6 C-2.68 4.02 -1.36 2.04 0 0 Z " fill="#E9E9E8" transform="translate(1158,1028)"/>
<path d="M0 0 C0.66 0.33 1.32 0.66 2 1 C1.195625 1.763125 0.39125 2.52625 -0.4375 3.3125 C-3.16799024 5.79430898 -3.16799024 5.79430898 -4 9 C-4.66 9 -5.32 9 -6 9 C-6.33 9.99 -6.66 10.98 -7 12 C-7.66 12 -8.32 12 -9 12 C-7.72210402 6.03648545 -4.66283606 3.51582826 0 0 Z " fill="#171918" transform="translate(1405,673)"/>
<path d="M0 0 C0.33 1.32 0.66 2.64 1 4 C2.98 4.495 2.98 4.495 5 5 C4.5359375 6.051875 4.5359375 6.051875 4.0625 7.125 C2.96697322 10.08936657 2.43577008 12.87698108 2 16 C1.67 16 1.34 16 1 16 C0.67 10.72 0.34 5.44 0 0 Z " fill="#D1D0CF" transform="translate(960,1527)"/>
<path d="M0 0 C0.66 0 1.32 0 2 0 C2 2.97 2 5.94 2 9 C1.34 9 0.68 9 0 9 C-0.33 9.66 -0.66 10.32 -1 11 C-1.22174933 9.54364629 -1.42698698 8.08477044 -1.625 6.625 C-1.74101563 5.81289062 -1.85703125 5.00078125 -1.9765625 4.1640625 C-1.98429688 3.44992187 -1.99203125 2.73578125 -2 2 C-1.34 1.34 -0.68 0.68 0 0 Z " fill="#EEEEEC" transform="translate(941,1363)"/>
<path d="M0 0 C0.66 1.32 1.32 2.64 2 4 C-1.3171411 5.4216319 -4.44219804 6.39009109 -8 7 C-8 6.01 -8 5.02 -8 4 C-5.36 2.68 -2.72 1.36 0 0 Z " fill="#E9E9E8" transform="translate(1139,1070)"/>
<path d="M0 0 C1.65 0 3.3 0 5 0 C4.67 0.99 4.34 1.98 4 3 C4.66 3 5.32 3 6 3 C6 3.66 6 4.32 6 5 C3.69 5.66 1.38 6.32 -1 7 C-0.67 4.69 -0.34 2.38 0 0 Z " fill="#F0EFEF" transform="translate(1149,999)"/>
<path d="M0 0 C-0.75 2.4375 -0.75 2.4375 -2 5 C-4.92916561 6.32284898 -5.87822605 6.04059132 -9 5 C-4.5 0 -4.5 0 0 0 Z " fill="#EBEBE9" transform="translate(1661,523)"/>
<path d="M0 0 C0.66 0 1.32 0 2 0 C2 0.66 2 1.32 2 2 C2.66 2 3.32 2 4 2 C4 2.66 4 3.32 4 4 C0.04 5.98 0.04 5.98 -4 8 C-3.07689062 4.30756248 -2.45048444 2.74454257 0 0 Z " fill="#F2F3F2" transform="translate(964,1201)"/>
<path d="M0 0 C0.99 1.485 0.99 1.485 2 3 C3.65 2.67 5.3 2.34 7 2 C7.33 2.99 7.66 3.98 8 5 C2.25 8 2.25 8 0 8 C0 5.36 0 2.72 0 0 Z " fill="#EAE5E5" transform="translate(519,1192)"/>
<path d="M0 0 C1.0828125 0.37125 1.0828125 0.37125 2.1875 0.75 C1.1975 1.245 1.1975 1.245 0.1875 1.75 C0.1875 2.74 0.1875 3.73 0.1875 4.75 C-2.6875 5.375 -2.6875 5.375 -5.8125 5.75 C-6.4725 5.09 -7.1325 4.43 -7.8125 3.75 C-3.50480769 -0.31153846 -3.50480769 -0.31153846 0 0 Z " fill="#F3F4F2" transform="translate(933.8125,1140.25)"/>
<path d="M0 0 C0.66 0.33 1.32 0.66 2 1 C0.02 3.97 0.02 3.97 -2 7 C-4.97 6.505 -4.97 6.505 -8 6 C-8 5.34 -8 4.68 -8 4 C-6.71349294 3.30289269 -5.42059335 2.61757124 -4.125 1.9375 C-3.40570312 1.55464844 -2.68640625 1.17179687 -1.9453125 0.77734375 C-1.30335937 0.52082031 -0.66140625 0.26429687 0 0 Z " fill="#EBEBEA" transform="translate(1149,1133)"/>
<path d="M0 0 C2 2 2 2 2 5 C1.2575 5.12375 0.515 5.2475 -0.25 5.375 C-2.98179311 5.87589514 -2.98179311 5.87589514 -5.1875 7.125 C-5.785625 7.41375 -6.38375 7.7025 -7 8 C-7.66 7.67 -8.32 7.34 -9 7 C-6.03 4.69 -3.06 2.38 0 0 Z " fill="#EFEFEE" transform="translate(1669,514)"/>
<path d="M0 0 C0.66 0.33 1.32 0.66 2 1 C1.01 2.485 1.01 2.485 0 4 C-0.66 4 -1.32 4 -2 4 C-2 4.99 -2 5.98 -2 7 C-4.475 6.01 -4.475 6.01 -7 5 C-4.88437775 2.67281553 -2.94982021 1.14186589 0 0 Z M-9 5 C-8.01 5.495 -8.01 5.495 -7 6 C-7.99 6.495 -7.99 6.495 -9 7 C-9 6.34 -9 5.68 -9 5 Z " fill="#E6E6E6" transform="translate(397,1057)"/>
<path d="M0 0 C0.66 0.33 1.32 0.66 2 1 C1.67 3.31 1.34 5.62 1 8 C0.34 8 -0.32 8 -1 8 C-1 8.66 -1 9.32 -1 10 C-1.99 10 -2.98 10 -4 10 C-2.8905928 6.51329166 -1.73662334 3.22515763 0 0 Z " fill="#E7E7E6" transform="translate(875,1009)"/>
<path d="M0 0 C-2.85306797 2.32472205 -5.54074837 3.7508258 -9 5 C-9 2 -9 2 -8 0 C-4.71023192 -1.09658936 -3.28696233 -0.79953138 0 0 Z " fill="#1A1B1B" transform="translate(1246,731)"/>
<path d="M0 0 C0.66 0.33 1.32 0.66 2 1 C-3.23414634 7.36585366 -3.23414634 7.36585366 -6 10 C-6.66 10.66 -7.32 11.32 -8 12 C-8.99 11.67 -9.98 11.34 -11 11 C-7.37 7.37 -3.74 3.74 0 0 Z " fill="#D5D5D3" transform="translate(1341,635)"/>
<path d="M0 0 C-1.32 1.32 -2.64 2.64 -4 4 C-4.33 3.34 -4.66 2.68 -5 2 C-6.32 2.33 -7.64 2.66 -9 3 C-9.33 2.01 -9.66 1.02 -10 0 C-6.7169902 -1.6415049 -3.57454967 -0.51888624 0 0 Z " fill="#F1F1EF" transform="translate(845,1276)"/>
<path d="M0 0 C-2 2 -2 2 -4.8203125 2.1953125 C-5.91085937 2.17210937 -7.00140625 2.14890625 -8.125 2.125 C-9.22070312 2.10695313 -10.31640625 2.08890625 -11.4453125 2.0703125 C-12.28835938 2.04710937 -13.13140625 2.02390625 -14 2 C-14.33 1.34 -14.66 0.68 -15 0 C-13.25093341 -0.19601608 -11.50068154 -0.38147403 -9.75 -0.5625 C-8.77546875 -0.66691406 -7.8009375 -0.77132813 -6.796875 -0.87890625 C-4.2368648 -0.98974468 -2.41851841 -0.77738092 0 0 Z " fill="#E1E2E0" transform="translate(413,1263)"/>
<path d="M0 0 C0.53625 0.37125 1.0725 0.7425 1.625 1.125 C-1.64045761 3.00891785 -4.65611761 3.61787967 -8.375 4.125 C-8.375 3.135 -8.375 2.145 -8.375 1.125 C-2.95961538 -1.09038462 -2.95961538 -1.09038462 0 0 Z " fill="#EFEFEE" transform="translate(1188.375,1092.875)"/>
<path d="M0 0 C1.98 0 3.96 0 6 0 C7.125 2.75 7.125 2.75 8 6 C7.0546875 8.203125 7.0546875 8.203125 6 10 C5.73445313 9.44570312 5.46890625 8.89140625 5.1953125 8.3203125 C4.84210938 7.59585937 4.48890625 6.87140625 4.125 6.125 C3.77695313 5.40570312 3.42890625 4.68640625 3.0703125 3.9453125 C2.03442457 1.84864981 2.03442457 1.84864981 0 0 Z " fill="#DEE0DA" transform="translate(1327,1035)"/>
<path d="M0 0 C0.99 0.33 1.98 0.66 3 1 C0.25 7.875 0.25 7.875 -2 9 C-2.33 7.35 -2.66 5.7 -3 4 C-2.34 4 -1.68 4 -1 4 C-0.67 2.68 -0.34 1.36 0 0 Z " fill="#161B1B" transform="translate(1720,477)"/>
<path d="M0 0 C3 1 3 1 5 3 C5.66 3 6.32 3 7 3 C7 4.65 7 6.3 7 8 C3.2047869 6.50902342 1.38957269 4.24299151 -1 1 C-0.67 0.67 -0.34 0.34 0 0 Z " fill="#E7E8E7" transform="translate(912,1280)"/>
<path d="M0 0 C-0.33 0.99 -0.66 1.98 -1 3 C-3.5625 4.1875 -3.5625 4.1875 -6 5 C-6.33 4.67 -6.66 4.34 -7 4 C-7.66 4.66 -8.32 5.32 -9 6 C-9 5.34 -9 4.68 -9 4 C-9.66 3.67 -10.32 3.34 -11 3 C-9.73160474 2.49384702 -8.46016898 1.99530901 -7.1875 1.5 C-6.12595703 1.08234375 -6.12595703 1.08234375 -5.04296875 0.65625 C-3 0 -3 0 0 0 Z " fill="#EAE9E8" transform="translate(1179,1123)"/>
<path d="M0 0 C1.32 0.33 2.64 0.66 4 1 C2.68 3.31 1.36 5.62 0 8 C-0.99 7.34 -1.98 6.68 -3 6 C-2.67 4.68 -2.34 3.36 -2 2 C-1.01 2.33 -0.02 2.66 1 3 C0.67 2.01 0.34 1.02 0 0 Z " fill="#EBEBEA" transform="translate(1001,1030)"/>
<path d="M0 0 C0.33 0.66 0.66 1.32 1 2 C-0.3125 3.5 -0.3125 3.5 -2 5 C-2.99 5 -3.98 5 -5 5 C-5.33 5.66 -5.66 6.32 -6 7 C-7.65 6.67 -9.3 6.34 -11 6 C-7.58983503 3.13546142 -4.09305456 1.65296434 0 0 Z " fill="#E5E4E5" transform="translate(1478,562)"/>
<path d="M0 0 C0.99 1.485 0.99 1.485 2 3 C2.99 3.33 3.98 3.66 5 4 C5 5.32 5 6.64 5 8 C4.01 8 3.02 8 2 8 C1.67 9.32 1.34 10.64 1 12 C0.67 8.04 0.34 4.08 0 0 Z " fill="#E8E8E6" transform="translate(948,1415)"/>
<path d="M0 0 C4.455 0.99 4.455 0.99 9 2 C7.02 2.99 7.02 2.99 5 4 C4.67 4.66 4.34 5.32 4 6 C3.34 5.67 2.68 5.34 2 5 C2 4.01 2 3.02 2 2 C1.34 2 0.68 2 0 2 C0 1.34 0 0.68 0 0 Z " fill="#F0F0EE" transform="translate(690,1251)"/>
<path d="M0 0 C0.33 0 0.66 0 1 0 C1.06058594 0.69867187 1.12117188 1.39734375 1.18359375 2.1171875 C1.26738281 3.02726562 1.35117188 3.93734375 1.4375 4.875 C1.55931641 6.23238281 1.55931641 6.23238281 1.68359375 7.6171875 C1.86989285 10.01110861 1.86989285 10.01110861 3 12 C1.68 13.32 0.36 14.64 -1 16 C-1.33 15.01 -1.66 14.02 -2 13 C-1.67 12.34 -1.34 11.68 -1 11 C-0.7724985 9.12943209 -0.59037189 7.25314042 -0.4375 5.375 C-0.35371094 4.37210938 -0.26992187 3.36921875 -0.18359375 2.3359375 C-0.12300781 1.56507812 -0.06242187 0.79421875 0 0 Z " fill="#DBDDDC" transform="translate(1334,1048)"/>
<path d="M0 0 C0.33 0.66 0.66 1.32 1 2 C0.34 2 -0.32 2 -1 2 C-1 2.99 -1 3.98 -1 5 C-1.99 5.33 -2.98 5.66 -4 6 C-4.66 5.67 -5.32 5.34 -6 5 C-6.33 5.66 -6.66 6.32 -7 7 C-7 6.34 -7 5.68 -7 5 C-7.66 4.67 -8.32 4.34 -9 4 C-6.03 2.68 -3.06 1.36 0 0 Z " fill="#EBEAE9" transform="translate(1085,969)"/>
<path d="M0 0 C0.55171875 0.22558594 1.1034375 0.45117188 1.671875 0.68359375 C1.341875 1.34359375 1.011875 2.00359375 0.671875 2.68359375 C0.011875 2.35359375 -0.648125 2.02359375 -1.328125 1.68359375 C-1.658125 2.34359375 -1.988125 3.00359375 -2.328125 3.68359375 C-2.988125 3.68359375 -3.648125 3.68359375 -4.328125 3.68359375 C-5.5346875 4.45703125 -5.5346875 4.45703125 -6.765625 5.24609375 C-7.61125 5.72046875 -8.456875 6.19484375 -9.328125 6.68359375 C-10.318125 6.35359375 -11.308125 6.02359375 -12.328125 5.68359375 C-10.75465324 4.64762475 -9.16890954 3.63027643 -7.578125 2.62109375 C-6.69640625 2.05261719 -5.8146875 1.48414063 -4.90625 0.8984375 C-2.328125 -0.31640625 -2.328125 -0.31640625 0 0 Z " fill="#E4E2E2" transform="translate(1568.328125,577.31640625)"/>
<path d="M0 0 C1.32 0.33 2.64 0.66 4 1 C4 1.99 4 2.98 4 4 C4.66 4.33 5.32 4.66 6 5 C3.36 5.33 0.72 5.66 -2 6 C-1.34 4.02 -0.68 2.04 0 0 Z " fill="#EEECE9" transform="translate(850,1541)"/>
<path d="M0 0 C2.31 1.65 4.62 3.3 7 5 C6.67 5.66 6.34 6.32 6 7 C4.35 7 2.7 7 1 7 C1 6.01 1 5.02 1 4 C0.34 3.34 -0.32 2.68 -1 2 C-0.67 1.34 -0.34 0.68 0 0 Z " fill="#EAEBEB" transform="translate(352,1204)"/>
<path d="M0 0 C1.9375 0.75 1.9375 0.75 4 2 C4.33 3.32 4.66 4.64 5 6 C0.545 5.01 0.545 5.01 -4 4 C-2.68 2.68 -1.36 1.36 0 0 Z M5 1 C5.99 1.495 5.99 1.495 7 2 C6.34 2.66 5.68 3.32 5 4 C5 3.01 5 2.02 5 1 Z " fill="#ECECEC" transform="translate(504,1156)"/>
<path d="M0 0 C0.66 0.99 1.32 1.98 2 3 C0.8125 5.5 0.8125 5.5 -1 8 C-2.65 8 -4.3 8 -6 8 C-4.02 5.36 -2.04 2.72 0 0 Z " fill="#E7E7E4" transform="translate(1323,654)"/>
<path d="M0 0 C0.99 1.32 1.98 2.64 3 4 C0.36 4.99 -2.28 5.98 -5 7 C-3.92643531 2.70574125 -3.4915227 2.25259529 0 0 Z " fill="#EEEDEE" transform="translate(1448,545)"/>
<path d="M0 0 C0.66 0.33 1.32 0.66 2 1 C0.66666667 4.33333333 -0.66666667 7.66666667 -2 11 C-2.33 11 -2.66 11 -3 11 C-3.125 4.375 -3.125 4.375 -2 1 C-1.34 0.67 -0.68 0.34 0 0 Z " fill="#E8E7E4" transform="translate(957,1459)"/>
<path d="M0 0 C0.33 0 0.66 0 1 0 C1.22174933 1.45635371 1.42698698 2.91522956 1.625 4.375 C1.74101563 5.18710938 1.85703125 5.99921875 1.9765625 6.8359375 C1.98429688 7.55007813 1.99203125 8.26421875 2 9 C1.34 9.66 0.68 10.32 0 11 C-0.66 10.67 -1.32 10.34 -2 10 C-1.33333333 6.66666667 -0.66666667 3.33333333 0 0 Z " fill="#212221" transform="translate(929,1320)"/>
<path d="M0 0 C-0.33 1.65 -0.66 3.3 -1 5 C-5.455 4.01 -5.455 4.01 -10 3 C-10 2.67 -10 2.34 -10 2 C-8.7090864 1.66376204 -7.41723903 1.33110751 -6.125 1 C-5.40570312 0.814375 -4.68640625 0.62875 -3.9453125 0.4375 C-2 0 -2 0 0 0 Z " fill="#E4E4E0" transform="translate(701,1223)"/>
<path d="M0 0 C0.99 0.33 1.98 0.66 3 1 C2.67 4.3 2.34 7.6 2 11 C-0.67927341 6.98108988 -0.15601248 4.75838077 0 0 Z " fill="#0F1210" transform="translate(1045,905)"/>
<path d="M0 0 C2.4375 0.375 2.4375 0.375 5 1 C5.33 1.66 5.66 2.32 6 3 C3.36 3.66 0.72 4.32 -2 5 C-2 4.01 -2 3.02 -2 2 C-1.34 2 -0.68 2 0 2 C0 1.34 0 0.68 0 0 Z " fill="#E2E2E0" transform="translate(841,1545)"/>
<path d="M0 0 C1.65 0.99 3.3 1.98 5 3 C4.67 4.32 4.34 5.64 4 7 C2.68 6.67 1.36 6.34 0 6 C0 4.02 0 2.04 0 0 Z " fill="#EEEFED" transform="translate(388,1258)"/>
<path d="M0 0 C-0.625 1.9375 -0.625 1.9375 -2 4 C-5.125 4.75 -5.125 4.75 -8 5 C-8.33 4.01 -8.66 3.02 -9 2 C-2.25 0 -2.25 0 0 0 Z " fill="#EEEEED" transform="translate(548,1111)"/>
<path d="M0 0 C0.33 0.99 0.66 1.98 1 3 C-2.465 4.485 -2.465 4.485 -6 6 C-6.66 5.34 -7.32 4.68 -8 4 C-7.34 4 -6.68 4 -6 4 C-5.67 3.01 -5.34 2.02 -5 1 C-2 0 -2 0 0 0 Z " fill="#F1EFF0" transform="translate(1466,538)"/>
<path d="M0 0 C-0.33 0.99 -0.66 1.98 -1 3 C-3.97 3 -6.94 3 -10 3 C-10 2.34 -10 1.68 -10 1 C-6.61981469 -0.04005702 -3.5219721 -0.08004482 0 0 Z " fill="#F8F8F7" transform="translate(808,1607)"/>
<path d="M0 0 C0.66 0.66 1.32 1.32 2 2 C1.01 3.98 0.02 5.96 -1 8 C-1.99 7.67 -2.98 7.34 -4 7 C-3.43628586 3.73045798 -2.50037734 2.17424117 0 0 Z " fill="#EDEBEB" transform="translate(486,1226)"/>
<path d="M0 0 C-3.06117568 2.62386487 -3.73173127 3 -8 3 C-8 2.01 -8 1.02 -8 0 C-4.71023192 -1.09658936 -3.28696233 -0.79953138 0 0 Z " fill="#EDECEB" transform="translate(746,1135)"/>
<path d="M0 0 C-0.99 1.485 -0.99 1.485 -2 3 C-2.66 3 -3.32 3 -4 3 C-4.33 3.66 -4.66 4.32 -5 5 C-5.66 4.67 -6.32 4.34 -7 4 C-6.67 2.68 -6.34 1.36 -6 0 C-2.25 -1.125 -2.25 -1.125 0 0 Z " fill="#EDEDED" transform="translate(1203,1117)"/>
<path d="M0 0 C0.99 0.33 1.98 0.66 3 1 C3.33 1.99 3.66 2.98 4 4 C2.02 4.66 0.04 5.32 -2 6 C-2 4.68 -2 3.36 -2 2 C-1.34 2 -0.68 2 0 2 C0 1.34 0 0.68 0 0 Z " fill="#F0EFEF" transform="translate(942,1097)"/>
<path d="M0 0 C2.1519437 3.22791555 2.20086443 4.28400809 2 8 C0.35 8 -1.3 8 -3 8 C-2.01 5.36 -1.02 2.72 0 0 Z " fill="#EBE9EA" transform="translate(1049,995)"/>
<path d="M0 0 C-1.75 5.75 -1.75 5.75 -4 8 C-4.6875 5.6875 -4.6875 5.6875 -5 3 C-3.40083326 0.79162689 -2.76966516 0 0 0 Z " fill="#E9E8E8" transform="translate(1026,988)"/>
<path d="M0 0 C0.66 0.33 1.32 0.66 2 1 C2 1.99 2 2.98 2 4 C-1.375 4.625 -1.375 4.625 -5 5 C-5.66 4.34 -6.32 3.68 -7 3 C-4.69631264 1.93347808 -2.35981813 0.93578995 0 0 Z " fill="#E5E3E3" transform="translate(1486,558)"/>
<path d="M0 0 C2.13586678 3.20380017 2.23132175 4.01939967 2.125 7.6875 C2.10695313 8.49574219 2.08890625 9.30398438 2.0703125 10.13671875 C2.03550781 11.05904297 2.03550781 11.05904297 2 12 C1.67 11.01 1.34 10.02 1 9 C0.34 8.67 -0.32 8.34 -1 8 C-0.34 8 0.32 8 1 8 C0.01 6.02 -0.98 4.04 -2 2 C-1.34 1.34 -0.68 0.68 0 0 Z " fill="#232728" transform="translate(1723,461)"/>
<path d="M0 0 C0.66 0.99 1.32 1.98 2 3 C1 4 1 4 -0.84765625 4.09765625 C-2.8984375 4.06510417 -4.94921875 4.03255208 -7 4 C-4.61426621 2.10786631 -2.92824652 0.97608217 0 0 Z " fill="#F3F2F3" transform="translate(835,1578)"/>
<path d="M0 0 C2.0625 1.75 2.0625 1.75 4 4 C3.75 6.25 3.75 6.25 3 8 C2.34 8 1.68 8 1 8 C0.34 5.69 -0.32 3.38 -1 1 C-0.67 0.67 -0.34 0.34 0 0 Z " fill="#ECEAE7" transform="translate(885,1433)"/>
<path d="M0 0 C2 0.875 2 0.875 3.25 3.4375 C3.4975 4.241875 3.745 5.04625 4 5.875 C0.62496331 4.6891763 -1.64722731 3.59926311 -4 0.875 C-2 -0.125 -2 -0.125 0 0 Z " fill="#E0E1DE" transform="translate(817,1302.125)"/>
<path d="M0 0 C0.33 0.99 0.66 1.98 1 3 C0.01 3.495 0.01 3.495 -1 4 C-1.99 5.485 -1.99 5.485 -3 7 C-4.32 6.01 -5.64 5.02 -7 4 C-4.69 2.68 -2.38 1.36 0 0 Z " fill="#E8E8E6" transform="translate(943,1247)"/>
<path d="M0 0 C1.98 0.495 1.98 0.495 4 1 C4 1.99 4 2.98 4 4 C3.34 4.66 2.68 5.32 2 6 C1.01 6 0.02 6 -1 6 C0 3 0 3 1 2 C0.67 1.34 0.34 0.68 0 0 Z " fill="#F2F2F1" transform="translate(413,1229)"/>
<path d="M0 0 C0.99 0 1.98 0 3 0 C3 1.32 3 2.64 3 4 C1.35 4.66 -0.3 5.32 -2 6 C-1.125 1.125 -1.125 1.125 0 0 Z " fill="#151615" transform="translate(1121,1142)"/>
<path d="M0 0 C1.65 0.33 3.3 0.66 5 1 C3.35 2.65 1.7 4.3 0 6 C0 5.34 0 4.68 0 4 C-0.66 3.67 -1.32 3.34 -2 3 C-1.34 2.01 -0.68 1.02 0 0 Z " fill="#E5E5E2" transform="translate(1221,847)"/>
<path d="M0 0 C0.33 1.32 0.66 2.64 1 4 C-0.65 4.66 -2.3 5.32 -4 6 C-4.33 5.01 -4.66 4.02 -5 3 C-3.35 2.01 -1.7 1.02 0 0 Z " fill="#EBE9E8" transform="translate(923,828)"/>
<path d="M0 0 C1.98 0 3.96 0 6 0 C5.34 1.32 4.68 2.64 4 4 C2.02 4 0.04 4 -2 4 C-2 3.34 -2 2.68 -2 2 C-1.34 2 -0.68 2 0 2 C0 1.34 0 0.68 0 0 Z " fill="#F8F6F5" transform="translate(1479,562)"/>
<path d="M0 0 C0 1.65 0 3.3 0 5 C-0.99 4.67 -1.98 4.34 -3 4 C-3.99 4.66 -4.98 5.32 -6 6 C-6.33 5.01 -6.66 4.02 -7 3 C-2.25 0 -2.25 0 0 0 Z " fill="#ECEAEC" transform="translate(1638,538)"/>
<path d="M0 0 C0 1.66666667 0 3.33333333 0 5 C-0.99 5.33 -1.98 5.66 -3 6 C-3 5.34 -3 4.68 -3 4 C-4.32 4.33 -5.64 4.66 -7 5 C-4.87219421 2.65941363 -2.88437779 1.29299694 0 0 Z " fill="#E7E7E6" transform="translate(921,1260)"/>
<path d="M0 0 C0.66 0 1.32 0 2 0 C2.33 2.64 2.66 5.28 3 8 C2.34 8 1.68 8 1 8 C-0.35439668 5.29120665 -0.06501451 2.99066732 0 0 Z " fill="#343333" transform="translate(788,1200)"/>
<path d="M0 0 C2.475 0.495 2.475 0.495 5 1 C5 2.65 5 4.3 5 6 C4.01 6 3.02 6 2 6 C1.34 4.02 0.68 2.04 0 0 Z " fill="#E6E4E2" transform="translate(512,1163)"/>
<path d="M0 0 C1 4 1 4 -0.4375 6.75 C-1.2109375 7.86375 -1.2109375 7.86375 -2 9 C-1.34 9 -0.68 9 0 9 C-0.33 9.66 -0.66 10.32 -1 11 C-1.99 10.01 -2.98 9.02 -4 8 C-2.68 5.36 -1.36 2.72 0 0 Z " fill="#E4E3E2" transform="translate(900,962)"/>
<path d="M0 0 C0.66 0.99 1.32 1.98 2 3 C1.01 3.99 0.02 4.98 -1 6 C-2.32 5.34 -3.64 4.68 -5 4 C-3.35 2.68 -1.7 1.36 0 0 Z " fill="#F1EFEF" transform="translate(724,954)"/>
<path d="M0 0 C0.99 0.33 1.98 0.66 3 1 C2.01 2.98 1.02 4.96 0 7 C-0.66 6.67 -1.32 6.34 -2 6 C-2 4.35 -2 2.7 -2 1 C-1.34 0.67 -0.68 0.34 0 0 Z " fill="#F2F1F1" transform="translate(875,952)"/>
<path d="M0 0 C0.66 0.33 1.32 0.66 2 1 C2 1.66 2 2.32 2 3 C1.34 3 0.68 3 0 3 C-0.33 3.99 -0.66 4.98 -1 6 C-2.65 5.67 -4.3 5.34 -6 5 C-5.195625 4.360625 -4.39125 3.72125 -3.5625 3.0625 C-1.7249496 1.59396498 -1.7249496 1.59396498 0 0 Z " fill="#E2E2E2" transform="translate(1184,911)"/>
<path d="M0 0 C0.66 0.33 1.32 0.66 2 1 C1.4375 2.9375 1.4375 2.9375 0 5 C-3.625 5.75 -3.625 5.75 -7 6 C-4.74259377 3.66475218 -2.7194239 1.81294927 0 0 Z " fill="#E3E3E3" transform="translate(861,875)"/>
<path d="M0 0 C-0.309375 0.598125 -0.61875 1.19625 -0.9375 1.8125 C-2.10209704 4.08956772 -2.10209704 4.08956772 -3 7 C-3.66 6.67 -4.32 6.34 -5 6 C-5 5.34 -5 4.68 -5 4 C-5.66 3.67 -6.32 3.34 -7 3 C-2.25 0 -2.25 0 0 0 Z " fill="#232423" transform="translate(1102,771)"/>
<path d="M0 0 C1.65 0 3.3 0 5 0 C4.67 0.99 4.34 1.98 4 3 C1.4375 4.1875 1.4375 4.1875 -1 5 C-0.67 3.35 -0.34 1.7 0 0 Z " fill="#0D0E0F" transform="translate(1205,746)"/>
<path d="M0 0 C-0.33 0.99 -0.66 1.98 -1 3 C-4.0625 4.1875 -4.0625 4.1875 -7 5 C-7.66 4.34 -8.32 3.68 -9 3 C-2.25 0 -2.25 0 0 0 Z " fill="#212222" transform="translate(1421,562)"/>
<path d="M0 0 C0.99 0.33 1.98 0.66 3 1 C3 2.66666667 3 4.33333333 3 6 C2.01 6.33 1.02 6.66 0 7 C-0.38133299 5.0085944 -0.71325582 3.00720923 -1 1 C-0.67 0.67 -0.34 0.34 0 0 Z " fill="#F2F2EF" transform="translate(903,1488)"/>
<path d="M0 0 C1.65 1.65 3.3 3.3 5 5 C4.01 6.485 4.01 6.485 3 8 C2.34 7.67 1.68 7.34 1 7 C0.59270772 4.67843403 0.25561323 2.3431213 0 0 Z " fill="#E4E4E4" transform="translate(895,1300)"/>
<path d="M0 0 C1.32 0.66 2.64 1.32 4 2 C3.01 2 2.02 2 1 2 C0.67 2.99 0.34 3.98 0 5 C-1.32 4.34 -2.64 3.68 -4 3 C-2.68 2.01 -1.36 1.02 0 0 Z " fill="#E9E7E9" transform="translate(483,1278)"/>
<path d="M0 0 C0.6875 1.8125 0.6875 1.8125 1 4 C-0.4375 5.75 -0.4375 5.75 -2 7 C-2.99 5.35 -3.98 3.7 -5 2 C-4.360625 1.855625 -3.72125 1.71125 -3.0625 1.5625 C-1.02454854 1.18992819 -1.02454854 1.18992819 0 0 Z " fill="#EDEEEB" transform="translate(366,1174)"/>
<path d="M0 0 C1.98 0.66 3.96 1.32 6 2 C5.67 3.32 5.34 4.64 5 6 C3.2925002 4.71937515 1.62626404 3.38232443 0 2 C0 1.34 0 0.68 0 0 Z " fill="#E5E5E5" transform="translate(781,1164)"/>
<path d="M0 0 C0.66 0 1.32 0 2 0 C2.33 1.32 2.66 2.64 3 4 C2.01 4.66 1.02 5.32 0 6 C-0.66 5.67 -1.32 5.34 -2 5 C-1.34 3.35 -0.68 1.7 0 0 Z " fill="#161616" transform="translate(781,1133)"/>
<path d="M0 0 C0.66 0 1.32 0 2 0 C2.33 0.99 2.66 1.98 3 3 C0.36 3.99 -2.28 4.98 -5 6 C-5 5.01 -5 4.02 -5 3 C-3.35 2.67 -1.7 2.34 0 2 C0 1.34 0 0.68 0 0 Z " fill="#171918" transform="translate(1156,1127)"/>
<path d="M0 0 C-0.33 1.32 -0.66 2.64 -1 4 C-2.32 4 -3.64 4 -5 4 C-5 3.34 -5 2.68 -5 2 C-5.66 1.67 -6.32 1.34 -7 1 C-4.50935112 0.31292445 -2.62113708 0 0 0 Z " fill="#E3E2E2" transform="translate(1186,1121)"/>
<path d="M0 0 C0.33 0.66 0.66 1.32 1 2 C1.99 2.33 2.98 2.66 4 3 C1.1875 4.5625 1.1875 4.5625 -2 6 C-2.99 5.67 -3.98 5.34 -5 5 C-3.35 3.35 -1.7 1.7 0 0 Z " fill="#F0F0F0" transform="translate(538,1084)"/>
<path d="M0 0 C0.66 0.33 1.32 0.66 2 1 C1.67 1.33 1.34 1.66 1 2 C1.66 2.66 2.32 3.32 3 4 C1.35 4.66 -0.3 5.32 -2 6 C-2 2 -2 2 0 0 Z " fill="#EDEDE9" transform="translate(889,816)"/>
<path d="M0 0 C0.66 0.66 1.32 1.32 2 2 C-0.97 4.475 -0.97 4.475 -4 7 C-4.33 5.68 -4.66 4.36 -5 3 C-3.35 2.67 -1.7 2.34 0 2 C0 1.34 0 0.68 0 0 Z " fill="#EAE9E5" transform="translate(1260,688)"/>
<path d="M0 0 C0.66 1.32 1.32 2.64 2 4 C0.02 4.66 -1.96 5.32 -4 6 C-4 5.01 -4 4.02 -4 3 C-2 1.3125 -2 1.3125 0 0 Z " fill="#E5E4E3" transform="translate(1523,535)"/>
<path d="M0 0 C0.66 0.33 1.32 0.66 2 1 C1.67 2.98 1.34 4.96 1 7 C-0.32 6.67 -1.64 6.34 -3 6 C-2.01 4.02 -1.02 2.04 0 0 Z " fill="#DCDCD7" transform="translate(958,1579)"/>
<path d="M0 0 C0.33 0.66 0.66 1.32 1 2 C0.01 3.485 0.01 3.485 -1 5 C-1.99 5 -2.98 5 -4 5 C-4.33 4.01 -4.66 3.02 -5 2 C-3.35 1.34 -1.7 0.68 0 0 Z " fill="#E9E8E7" transform="translate(541,1216)"/>
<path d="M0 0 C-0.33 1.32 -0.66 2.64 -1 4 C-2.65 2.68 -4.3 1.36 -6 0 C-3.50907189 -1.24546405 -2.58919267 -0.7767578 0 0 Z " fill="#E6E6E4" transform="translate(651,1204)"/>
<path d="M0 0 C1.74627478 2.61941217 2.38722388 4.03824877 3 7 C1.0625 6.25 1.0625 6.25 -1 5 C-1.75 2.875 -1.75 2.875 -2 1 C-1.34 0.67 -0.68 0.34 0 0 Z " fill="#E4E4E2" transform="translate(587,1166)"/>
<path d="M0 0 C0.66 0 1.32 0 2 0 C1.67 1.32 1.34 2.64 1 4 C0.67 2.68 0.34 1.36 0 0 Z M-2 1 C-1.34 1.66 -0.68 2.32 0 3 C-0.33 3.99 -0.66 4.98 -1 6 C-1.99 6 -2.98 6 -4 6 C-3.34 4.35 -2.68 2.7 -2 1 Z " fill="#E4E4E3" transform="translate(801,1111)"/>
<path d="M0 0 C0.33 1.32 0.66 2.64 1 4 C-0.9375 6.75 -0.9375 6.75 -3 9 C-3.66 8.67 -4.32 8.34 -5 8 C-3.35 5.36 -1.7 2.72 0 0 Z " fill="#D5D6D5" transform="translate(587,1067)"/>
<path d="M0 0 C0.33 0.66 0.66 1.32 1 2 C1.66 2.33 2.32 2.66 3 3 C1.02 3.99 -0.96 4.98 -3 6 C-3 4.68 -3 3.36 -3 2 C-2.01 1.34 -1.02 0.68 0 0 Z " fill="#E7E6E6" transform="translate(804,1062)"/>
<path d="M0 0 C2.31 0.33 4.62 0.66 7 1 C6.01 1.495 6.01 1.495 5 2 C5 2.66 5 3.32 5 4 C3.0625 3.6875 3.0625 3.6875 1 3 C0.67 2.01 0.34 1.02 0 0 Z " fill="#DEDDDA" transform="translate(1297,1049)"/>
<path d="M0 0 C2.97 0.495 2.97 0.495 6 1 C5.67 1.99 5.34 2.98 5 4 C2.03 3.505 2.03 3.505 -1 3 C-0.67 2.01 -0.34 1.02 0 0 Z " fill="#E3E4E3" transform="translate(1218,1016)"/>
<path d="M0 0 C0.33 0 0.66 0 1 0 C0.67 2.97 0.34 5.94 0 9 C-0.33 8.34 -0.66 7.68 -1 7 C-1.66 6.67 -2.32 6.34 -3 6 C-2.01 4.02 -1.02 2.04 0 0 Z " fill="#E0E0DE" transform="translate(895,970)"/>
<path d="M0 0 C0.66 0.33 1.32 0.66 2 1 C2 1.99 2 2.98 2 4 C-0.31 4 -2.62 4 -5 4 C-3.35 2.68 -1.7 1.36 0 0 Z " fill="#EBE9E9" transform="translate(717,958)"/>
<path d="M0 0 C1.4606285 2.64738916 2 3.89448334 2 7 C1.34 7 0.68 7 0 7 C-0.66 5.35 -1.32 3.7 -2 2 C-1.34 1.34 -0.68 0.68 0 0 Z " fill="#ECEBE9" transform="translate(1249,860)"/>
<path d="M0 0 C1.98 0 3.96 0 6 0 C4.68 1.32 3.36 2.64 2 4 C1.01 3.67 0.02 3.34 -1 3 C-0.67 2.01 -0.34 1.02 0 0 Z " fill="#E3E2DF" transform="translate(836,859)"/>
<path d="M0 0 C1.32 0.66 2.64 1.32 4 2 C4 2.66 4 3.32 4 4 C2.68 4.33 1.36 4.66 0 5 C-0.5625 3.0625 -0.5625 3.0625 -1 1 C-0.67 0.67 -0.34 0.34 0 0 Z " fill="#F1F1EF" transform="translate(1126,753)"/>
<path d="M0 0 C0.66 0.33 1.32 0.66 2 1 C0.515 3.475 0.515 3.475 -1 6 C-2.32 5.34 -3.64 4.68 -5 4 C-3.35 2.68 -1.7 1.36 0 0 Z " fill="#1D1D1C" transform="translate(1254,696)"/>
<path d="M0 0 C1.32 0.66 2.64 1.32 4 2 C3.01 3.32 2.02 4.64 1 6 C0.01 5.67 -0.98 5.34 -2 5 C-1.34 3.35 -0.68 1.7 0 0 Z " fill="#F2F2ED" transform="translate(1300,637)"/>
<path d="M0 0 C0 0.99 0 1.98 0 3 C0.66 3.33 1.32 3.66 2 4 C-0.49092811 5.24546405 -1.41080733 4.7767578 -4 4 C-4 3.01 -4 2.02 -4 1 C-2 0 -2 0 0 0 Z " fill="#F0EDEE" transform="translate(1465,569)"/>
<path d="M0 0 C0 0.99 0 1.98 0 3 C-1.98 3.99 -3.96 4.98 -6 6 C-6.33 5.34 -6.66 4.68 -7 4 C-2.25 0 -2.25 0 0 0 Z " fill="#EEEEED" transform="translate(1625,514)"/>
</svg>
