<svg id="svg" version="1.1" xmlns="http://www.w3.org/2000/svg" xmlns:xlink="http://www.w3.org/1999/xlink" width="400" height="218.1818181818182" viewBox="0, 0, 400,218.1818181818182"><g id="svgg"><path id="path0" d="M197.860 21.364 C 192.020 22.021,188.397 26.975,188.439 34.250 C 188.465 38.889,189.427 42.026,191.867 45.432 C 194.247 48.753,192.424 52.065,187.892 52.651 C 182.002 53.413,181.746 53.477,180.074 54.621 C 176.092 57.347,175.697 60.807,178.623 67.333 C 180.279 71.028,182.753 78.668,183.805 83.333 C 185.255 89.767,184.902 92.524,181.761 99.333 C 179.130 105.038,178.666 106.710,178.544 110.941 C 178.266 120.540,182.034 126.153,192.056 131.072 C 194.886 132.462,194.855 132.429,194.504 133.654 C 193.651 136.628,193.610 144.522,194.428 148.288 C 194.848 150.222,194.916 152.570,194.599 154.170 C 194.094 156.717,194.230 156.537,191.946 157.677 C 187.700 159.796,187.085 161.529,188.844 166.417 C 189.385 167.921,189.435 169.678,189.014 172.419 C 188.335 176.835,189.699 179.759,193.250 181.495 C 194.883 182.293,194.803 182.188,194.607 183.267 C 194.484 183.949,194.496 184.692,194.652 185.978 C 194.771 186.953,194.920 189.142,194.983 190.842 L 195.098 193.935 195.648 194.828 C 196.640 196.440,197.610 196.834,200.594 196.833 C 205.609 196.831,208.564 195.472,208.564 193.165 C 208.564 192.210,208.164 191.493,206.424 189.333 C 204.340 186.747,204.239 186.555,203.998 184.735 C 203.584 181.605,203.854 179.635,205.670 172.562 C 207.670 164.771,208.167 161.984,208.167 158.562 C 208.167 157.486,208.238 156.642,208.334 156.583 C 208.521 156.467,213.363 151.203,214.917 149.426 C 215.467 148.797,216.035 148.162,216.180 148.016 C 216.325 147.870,217.191 146.813,218.105 145.667 C 222.413 140.268,223.239 138.486,223.239 134.583 C 223.239 130.406,222.253 128.465,217.821 123.917 L 215.709 121.750 216.098 119.842 C 217.504 112.947,217.048 108.150,214.165 99.500 C 212.054 93.166,212.095 93.347,212.096 90.333 C 212.097 87.599,212.231 86.696,213.356 81.833 C 214.599 76.459,214.955 75.302,215.664 74.333 C 219.672 68.858,221.285 65.010,221.136 61.276 C 220.964 56.990,219.326 55.650,211.720 53.579 C 210.797 53.327,208.617 52.353,208.108 51.965 C 207.814 51.740,207.843 51.635,208.742 49.669 C 210.266 46.339,210.431 45.043,209.697 42.185 C 209.418 41.097,209.407 40.865,209.603 40.212 C 210.366 37.678,210.533 32.514,209.934 29.991 C 208.514 24.012,203.865 20.690,197.860 21.364 M202.250 24.162 C 206.129 25.501,208.360 29.868,207.913 35.243 C 207.772 36.933,207.686 36.979,207.099 35.672 C 206.854 35.125,206.581 34.633,206.493 34.579 C 206.405 34.525,206.333 34.232,206.333 33.929 C 206.333 31.690,205.333 28.921,204.217 28.069 C 202.445 26.718,201.278 27.640,200.571 30.948 C 199.822 34.451,199.505 35.777,199.237 36.521 C 198.235 39.301,197.773 41.716,197.742 44.333 L 197.711 46.917 197.316 46.870 C 196.557 46.780,194.070 44.673,193.462 43.606 C 189.309 36.309,190.152 27.431,195.255 24.721 C 197.269 23.651,200.112 23.424,202.250 24.162 M203.657 32.345 C 203.753 32.934,203.830 35.592,203.830 38.250 L 203.829 43.083 203.333 44.500 C 202.470 46.967,202.476 46.986,206.282 54.500 C 210.582 62.988,211.644 66.875,210.625 70.386 C 210.332 71.398,209.821 71.689,208.443 71.632 L 207.281 71.583 206.996 70.750 C 206.840 70.292,206.366 69.219,205.944 68.366 C 204.735 65.925,204.414 64.834,203.753 60.917 C 203.107 57.094,202.748 55.566,201.230 50.178 C 199.679 44.672,199.766 41.935,201.641 37.138 C 201.737 36.892,202.085 35.467,202.415 33.971 C 203.247 30.194,203.297 30.128,203.657 32.345 M207.083 41.959 C 207.844 44.429,207.795 45.942,206.893 47.833 L 206.218 49.250 205.958 48.643 C 205.320 47.150,205.275 46.351,205.756 45.000 C 206.084 44.079,206.225 43.301,206.289 42.042 C 206.398 39.935,206.458 39.928,207.083 41.959 M195.830 48.915 C 196.095 49.052,196.817 49.296,197.437 49.458 L 198.562 49.753 198.778 50.585 C 198.981 51.370,198.950 51.609,198.234 54.833 C 197.817 56.712,197.434 58.598,197.383 59.024 C 197.221 60.388,197.228 60.390,193.060 58.029 C 191.030 56.879,190.000 56.944,190.000 58.222 C 190.000 59.092,190.315 59.338,193.565 61.000 C 197.144 62.831,196.817 62.294,196.417 65.667 C 196.281 66.813,196.169 68.259,196.168 68.880 C 196.166 70.154,196.030 70.305,195.132 70.028 C 194.830 69.935,193.796 69.622,192.833 69.331 C 191.871 69.041,190.933 68.739,190.750 68.661 C 189.050 67.937,186.111 67.122,185.708 67.264 C 184.726 67.609,184.572 68.937,185.461 69.396 C 186.428 69.896,193.660 72.133,195.333 72.450 L 196.083 72.592 196.122 73.421 C 196.633 84.518,201.257 87.400,208.929 81.403 C 209.808 80.715,210.707 79.950,210.925 79.702 C 211.460 79.094,211.458 79.404,210.912 81.583 C 209.032 89.095,209.155 92.286,211.604 99.555 C 213.779 106.009,214.072 107.257,214.311 111.083 C 214.461 113.494,214.448 113.837,214.061 117.458 C 213.755 120.330,213.794 120.286,212.523 119.192 C 208.206 115.479,196.357 108.307,194.532 108.302 C 193.809 108.300,193.333 108.743,193.333 109.417 C 193.333 110.127,193.521 110.268,196.333 111.683 C 208.191 117.648,219.305 127.010,220.573 132.102 C 221.814 137.087,220.370 139.711,210.097 151.143 C 207.807 153.692,208.012 153.717,207.586 150.841 C 206.908 146.275,207.160 143.224,208.528 139.410 C 208.853 138.503,209.333 137.953,209.333 138.487 C 209.333 138.572,209.528 138.872,209.765 139.154 C 210.901 140.504,212.607 139.014,211.623 137.532 C 210.000 135.088,207.548 133.759,201.250 131.913 C 191.477 129.049,185.178 124.974,182.577 119.833 C 180.883 116.485,180.366 110.712,181.427 107.000 C 181.571 106.496,181.801 105.683,181.937 105.193 C 182.172 104.350,182.527 103.483,183.415 101.583 C 183.630 101.125,184.032 100.263,184.308 99.667 C 187.261 93.312,187.705 89.224,186.158 82.623 C 184.898 77.247,182.298 69.341,180.492 65.399 C 178.736 61.566,178.705 59.238,180.385 57.456 C 181.701 56.061,182.962 55.644,187.326 55.165 C 192.069 54.643,194.668 52.746,195.100 49.490 C 195.224 48.556,195.189 48.584,195.830 48.915 M214.583 56.915 C 218.595 58.064,219.718 60.476,218.239 64.770 C 215.130 73.797,203.631 84.796,200.773 81.476 C 198.162 78.443,197.829 70.121,199.863 58.750 C 200.233 56.682,200.424 56.163,200.561 56.851 C 200.605 57.070,200.760 57.850,200.905 58.583 C 201.051 59.317,201.317 60.986,201.498 62.293 C 201.861 64.933,202.343 66.515,203.462 68.750 C 204.589 70.999,205.006 72.356,205.119 74.134 C 205.294 76.913,207.374 77.656,207.626 75.031 L 207.709 74.167 208.574 74.167 C 214.090 74.167,214.952 67.552,210.687 57.953 C 210.126 56.690,209.667 55.596,209.667 55.523 C 209.667 55.449,210.548 55.668,211.625 56.009 C 212.702 56.349,214.033 56.757,214.583 56.915 M200.213 134.161 C 204.047 135.255,207.000 136.380,207.000 136.746 C 207.000 136.771,206.814 137.213,206.586 137.728 C 204.930 141.472,204.473 145.743,205.173 150.917 C 205.614 154.175,205.780 159.535,205.514 161.934 C 205.305 163.822,204.750 166.311,203.029 173.083 C 201.685 178.372,201.500 179.521,201.500 182.575 C 201.500 186.635,201.665 187.195,203.571 189.583 C 205.761 192.328,206.167 192.875,206.167 193.086 C 206.167 193.953,200.261 194.791,198.448 194.181 C 197.588 193.892,197.488 193.552,197.397 190.583 C 197.354 189.208,197.205 187.282,197.066 186.303 C 196.812 184.523,196.812 184.520,197.269 182.553 C 197.961 179.572,197.839 175.919,196.826 169.317 C 195.881 163.150,195.874 160.317,196.793 155.750 C 197.308 153.193,197.357 150.527,196.928 148.417 C 196.462 146.122,196.167 143.506,196.168 141.677 C 196.171 138.999,196.862 133.333,197.186 133.333 C 197.256 133.333,198.619 133.706,200.213 134.161 M193.715 162.625 C 193.776 164.505,193.969 166.616,194.244 168.417 C 195.111 174.098,195.563 179.338,195.206 179.559 C 194.969 179.706,193.393 178.838,192.757 178.209 C 191.426 176.895,190.961 175.100,191.408 173.000 C 192.054 169.961,191.941 167.944,190.964 165.083 C 190.290 163.113,190.247 161.843,190.835 161.256 C 191.200 160.891,193.248 159.681,193.518 159.670 C 193.573 159.668,193.662 160.998,193.715 162.625 " stroke="none" fill="#080909" fill-rule="evenodd"></path><path id="path1" d="M0.000 109.083 L 0.000 218.167 200.000 218.167 L 400.000 218.167 400.000 109.083 L 400.000 0.000 200.000 0.000 L 0.000 0.000 0.000 109.083 M203.021 21.609 C 209.292 23.785,212.201 31.991,209.673 40.374 C 209.515 40.899,209.543 41.188,209.850 42.207 C 210.627 44.786,210.432 46.537,209.052 49.374 C 208.543 50.421,208.000 51.648,208.000 51.753 C 208.000 52.043,211.124 53.192,215.500 54.510 C 223.070 56.792,223.370 64.173,216.280 73.733 C 215.038 75.407,215.096 75.248,213.841 80.500 C 211.664 89.611,211.646 91.565,213.684 97.500 C 217.043 107.282,217.675 112.013,216.498 118.583 C 215.848 122.213,215.675 121.565,217.880 123.759 C 224.463 130.312,225.277 135.983,220.593 142.667 C 219.649 144.015,219.487 144.228,218.653 145.232 C 218.416 145.517,217.864 146.200,217.426 146.750 C 216.988 147.300,216.356 148.050,216.021 148.417 C 215.687 148.783,214.926 149.645,214.332 150.331 C 213.737 151.018,213.127 151.693,212.977 151.831 C 212.300 152.456,209.833 155.323,209.833 155.485 C 209.833 155.585,209.760 155.667,209.670 155.667 C 209.580 155.667,209.253 155.913,208.943 156.214 L 208.379 156.761 208.289 159.422 C 208.165 163.066,207.355 167.128,205.164 175.083 C 204.354 178.024,204.090 179.848,204.090 182.500 C 204.089 186.025,204.200 186.347,206.333 188.998 C 210.168 193.762,209.336 196.000,203.425 196.822 C 196.814 197.741,195.045 196.477,194.812 190.667 C 194.744 188.971,194.604 187.058,194.500 186.417 C 194.396 185.775,194.335 184.576,194.364 183.753 L 194.417 182.255 193.542 181.812 C 191.248 180.649,190.190 179.638,189.331 177.790 C 188.481 175.960,188.428 174.923,189.004 171.336 C 189.310 169.428,189.135 167.718,188.415 165.583 C 186.927 161.176,187.700 159.546,192.343 157.302 L 193.935 156.532 194.126 155.704 C 194.791 152.826,194.783 151.319,194.082 147.237 C 193.394 143.231,193.397 139.968,194.090 135.417 C 194.230 134.500,194.385 133.450,194.434 133.083 L 194.524 132.417 191.887 131.138 C 178.664 124.723,174.793 113.757,181.058 100.461 C 184.979 92.140,185.288 89.458,183.233 81.583 C 182.045 77.031,179.333 68.954,178.485 67.445 C 176.445 63.814,176.013 58.956,177.546 56.886 C 179.647 54.049,181.242 53.238,185.667 52.753 C 190.495 52.224,191.999 51.470,192.487 49.333 C 192.753 48.172,192.705 46.977,192.374 46.485 C 189.964 42.911,189.571 42.122,188.931 39.581 C 186.703 30.737,190.116 22.688,196.667 21.338 C 197.978 21.067,201.949 21.237,203.021 21.609 M197.592 23.999 C 190.807 25.225,188.621 36.696,193.828 43.743 C 194.421 44.545,194.646 44.784,195.719 45.749 C 196.101 46.093,197.342 46.834,197.535 46.833 C 197.562 46.833,197.591 45.689,197.600 44.292 C 197.617 41.583,197.665 41.341,199.236 35.917 C 199.475 35.092,199.898 33.301,200.176 31.938 C 200.899 28.395,201.514 27.333,202.846 27.333 C 204.645 27.333,206.132 29.790,206.446 33.281 C 206.509 33.980,206.668 34.588,206.861 34.864 C 207.033 35.110,207.277 35.557,207.403 35.857 L 207.633 36.403 207.756 35.247 C 208.524 28.077,203.822 22.874,197.592 23.999 M203.034 31.917 C 202.935 32.283,202.805 32.883,202.746 33.250 C 202.614 34.065,201.964 36.538,201.322 38.667 C 199.951 43.210,199.907 45.509,201.118 49.167 C 201.254 49.579,201.543 50.592,201.759 51.417 C 201.975 52.242,202.293 53.442,202.466 54.083 C 203.106 56.457,203.505 58.316,203.922 60.883 C 204.516 64.530,204.826 65.627,205.886 67.833 C 206.393 68.887,206.954 70.125,207.133 70.583 L 207.459 71.417 208.476 71.466 C 209.703 71.526,210.031 71.371,210.424 70.547 C 210.819 69.719,210.833 66.366,210.447 65.000 C 210.305 64.496,210.070 63.633,209.925 63.083 C 209.781 62.533,209.596 61.933,209.515 61.750 C 209.123 60.864,208.837 60.190,208.588 59.564 C 208.321 58.893,206.568 55.385,204.522 51.428 C 202.526 47.567,202.372 46.749,203.205 44.417 L 203.741 42.917 203.711 37.917 C 203.690 34.214,203.621 32.700,203.449 32.083 L 203.215 31.250 203.034 31.917 M206.513 42.042 C 206.504 42.820,206.341 43.654,205.985 44.744 C 205.436 46.424,205.450 47.223,206.047 48.374 L 206.281 48.825 206.469 48.454 C 207.735 45.955,207.756 44.564,206.583 41.083 C 206.552 40.992,206.520 41.423,206.513 42.042 M195.272 49.375 C 195.216 49.581,195.170 49.911,195.169 50.108 C 195.166 50.576,194.262 52.293,193.718 52.864 C 192.420 54.227,189.850 55.142,186.333 55.493 C 184.310 55.695,183.045 55.928,182.757 56.152 C 182.661 56.227,182.375 56.337,182.121 56.398 C 181.866 56.459,181.350 56.787,180.972 57.128 C 178.865 59.032,178.778 60.852,180.586 65.167 C 182.342 69.354,183.450 72.455,184.728 76.750 C 188.132 88.195,188.075 92.068,184.385 99.833 C 183.971 100.704,183.516 101.717,183.373 102.083 C 183.231 102.450,183.053 102.830,182.979 102.928 C 182.610 103.412,181.641 106.679,181.321 108.513 C 180.153 115.229,182.321 121.373,187.156 125.045 C 187.666 125.432,188.121 125.798,188.167 125.857 C 188.562 126.370,195.051 129.833,195.616 129.833 C 195.667 129.833,196.130 130.015,196.646 130.237 C 197.492 130.602,198.871 131.045,202.917 132.253 C 203.650 132.472,204.539 132.737,204.891 132.844 C 205.554 133.043,207.752 134.066,208.910 134.714 C 210.477 135.591,212.318 137.874,212.114 138.687 C 211.755 140.118,210.036 140.217,209.331 138.846 L 209.123 138.441 208.873 138.919 C 208.429 139.767,207.701 142.776,207.487 144.652 C 207.174 147.393,207.793 153.350,208.335 152.807 C 209.131 152.009,213.885 146.678,214.917 145.426 C 215.283 144.981,215.660 144.535,215.754 144.434 C 215.920 144.255,217.216 142.558,218.279 141.128 C 221.542 136.738,221.591 132.300,218.417 128.402 C 215.599 124.941,208.817 119.181,204.417 116.512 C 203.775 116.123,202.800 115.515,202.250 115.162 C 200.622 114.116,199.638 113.567,196.531 111.970 C 193.228 110.272,193.108 110.176,193.221 109.296 C 193.471 107.345,195.580 107.948,202.000 111.807 C 202.321 112.000,202.883 112.320,203.250 112.518 C 203.617 112.716,205.192 113.728,206.750 114.765 C 209.338 116.489,210.656 117.456,212.812 119.212 L 213.583 119.841 213.783 118.379 C 214.774 111.131,214.429 108.428,211.343 99.281 C 209.059 92.513,208.955 89.543,210.723 81.629 L 211.122 79.842 210.103 80.676 C 209.542 81.135,208.901 81.664,208.678 81.853 C 205.257 84.745,201.457 85.456,199.139 83.640 C 197.601 82.434,196.264 78.170,195.964 73.512 L 195.917 72.773 193.583 72.169 C 191.543 71.640,187.836 70.491,185.726 69.734 C 184.493 69.291,184.302 67.790,185.410 67.264 C 186.147 66.914,185.823 66.849,189.766 68.143 C 191.682 68.772,193.588 69.380,194.000 69.494 C 194.412 69.608,194.922 69.769,195.133 69.851 C 195.919 70.157,195.927 70.138,196.138 67.292 C 196.249 65.802,196.386 64.159,196.442 63.640 L 196.544 62.696 194.897 61.871 C 190.048 59.439,189.840 59.293,189.836 58.321 C 189.831 57.078,191.642 56.523,192.500 57.505 C 192.546 57.558,192.846 57.731,193.167 57.891 C 193.487 58.050,194.012 58.339,194.333 58.532 C 195.164 59.031,196.787 59.833,196.967 59.833 C 197.051 59.833,197.164 59.461,197.218 59.006 C 197.272 58.551,197.502 57.369,197.729 56.381 C 199.078 50.499,199.081 49.956,197.760 49.743 C 197.388 49.683,196.755 49.491,196.354 49.317 C 195.435 48.918,195.394 48.920,195.272 49.375 M210.152 56.375 C 210.321 56.765,210.648 57.496,210.878 58.000 C 211.108 58.504,211.447 59.254,211.632 59.667 C 212.672 61.986,213.502 65.762,213.499 68.162 C 213.494 72.191,212.103 74.046,208.907 74.288 C 207.881 74.365,207.720 74.419,207.784 74.665 C 208.158 76.093,206.382 77.351,205.473 76.303 C 205.093 75.864,205.043 75.636,204.942 73.917 C 204.840 72.165,204.397 70.913,202.665 67.478 C 202.113 66.385,201.647 64.504,201.229 61.688 C 201.003 60.164,200.721 58.467,200.601 57.917 C 200.342 56.721,200.385 56.581,199.677 60.917 C 198.119 70.453,198.453 77.751,200.597 80.990 C 201.865 82.907,204.284 81.981,209.250 77.679 C 214.675 72.978,219.385 64.141,218.522 60.283 C 218.216 58.915,216.986 57.829,215.167 57.319 C 214.754 57.203,214.342 57.053,214.250 56.986 C 214.158 56.918,213.783 56.809,213.417 56.742 C 213.050 56.675,212.137 56.406,211.388 56.144 C 210.639 55.881,209.986 55.667,209.936 55.667 C 209.886 55.667,209.983 55.985,210.152 56.375 M197.091 133.875 C 196.670 135.812,196.299 140.312,196.380 142.497 C 196.462 144.688,196.592 145.747,197.202 149.167 C 197.510 150.894,197.415 153.331,196.941 155.833 C 195.968 160.976,195.971 161.738,196.990 169.333 C 198.142 177.913,198.187 179.346,197.404 182.583 C 196.931 184.539,196.919 184.828,197.250 186.556 C 197.388 187.275,197.502 188.662,197.503 189.640 C 197.512 194.213,197.948 194.648,202.057 194.185 C 205.042 193.848,206.414 193.278,205.783 192.637 C 205.664 192.516,205.260 192.004,204.885 191.500 C 204.510 190.996,203.746 190.021,203.188 189.333 C 200.406 185.910,200.496 181.590,203.583 170.250 C 205.764 162.239,205.953 159.625,204.990 150.770 C 204.384 145.192,204.909 140.618,206.518 137.465 C 206.691 137.125,206.833 136.818,206.833 136.783 C 206.833 136.459,202.781 134.965,200.167 134.326 C 199.479 134.158,198.638 133.903,198.297 133.760 C 197.456 133.407,197.188 133.433,197.091 133.875 M192.500 160.345 C 190.290 161.532,190.123 162.048,191.046 164.833 C 192.066 167.915,192.308 170.794,191.680 172.396 C 190.619 175.104,192.640 179.333,194.994 179.333 C 195.431 179.333,194.964 173.995,193.974 167.667 C 193.781 166.429,193.576 164.165,193.519 162.635 L 193.417 159.853 192.500 160.345 " stroke="none" fill="#fbfbfb" fill-rule="evenodd"></path><path id="path2" d="M190.885 34.250 C 190.886 34.800,190.917 35.005,190.954 34.705 C 190.991 34.406,190.990 33.956,190.952 33.705 C 190.914 33.455,190.884 33.700,190.885 34.250 M206.383 41.500 C 206.383 42.004,206.415 42.210,206.453 41.958 C 206.491 41.706,206.491 41.294,206.453 41.042 C 206.415 40.790,206.383 40.996,206.383 41.500 M192.712 47.667 C 192.712 48.079,192.745 48.248,192.784 48.042 C 192.824 47.835,192.824 47.498,192.784 47.292 C 192.745 47.085,192.712 47.254,192.712 47.667 M176.539 60.667 C 176.539 60.987,176.573 61.119,176.615 60.958 C 176.657 60.798,176.657 60.535,176.615 60.375 C 176.573 60.215,176.539 60.346,176.539 60.667 M213.385 67.917 C 213.386 68.467,213.417 68.672,213.454 68.372 C 213.491 68.072,213.490 67.622,213.452 67.372 C 213.414 67.122,213.384 67.367,213.385 67.917 M212.052 90.583 C 212.053 91.133,212.084 91.338,212.121 91.039 C 212.158 90.739,212.157 90.289,212.119 90.039 C 212.081 89.788,212.051 90.033,212.052 90.583 M216.894 112.917 C 216.895 113.833,216.923 114.187,216.956 113.703 C 216.990 113.218,216.990 112.468,216.956 112.036 C 216.921 111.604,216.894 112.000,216.894 112.917 M185.660 123.875 C 186.350 124.611,186.500 124.743,186.500 124.618 C 186.500 124.591,186.144 124.235,185.708 123.826 L 184.917 123.083 185.660 123.875 M223.383 134.667 C 223.383 135.171,223.415 135.377,223.453 135.125 C 223.491 134.873,223.491 134.460,223.453 134.208 C 223.415 133.956,223.383 134.162,223.383 134.667 M196.218 141.250 C 196.219 141.800,196.250 142.005,196.287 141.705 C 196.325 141.406,196.324 140.956,196.286 140.705 C 196.248 140.455,196.217 140.700,196.218 141.250 M208.227 158.333 C 208.227 159.204,208.255 159.560,208.289 159.125 C 208.324 158.690,208.324 157.977,208.289 157.542 C 208.255 157.106,208.227 157.462,208.227 158.333 M193.542 162.917 C 193.544 163.283,193.578 163.414,193.618 163.206 C 193.658 162.999,193.656 162.699,193.615 162.540 C 193.573 162.380,193.540 162.550,193.542 162.917 M191.881 169.250 C 191.882 169.708,191.915 169.876,191.953 169.623 C 191.991 169.369,191.990 168.994,191.951 168.789 C 191.911 168.584,191.880 168.792,191.881 169.250 M195.205 178.667 C 195.205 178.987,195.240 179.119,195.282 178.958 C 195.323 178.798,195.323 178.535,195.282 178.375 C 195.240 178.215,195.205 178.346,195.205 178.667 " stroke="none" fill="#9a9b9a" fill-rule="evenodd"></path><path id="path3" d="M206.167 23.385 C 206.167 23.414,206.410 23.658,206.708 23.927 L 207.250 24.417 206.760 23.875 C 206.304 23.370,206.167 23.257,206.167 23.385 M204.833 25.917 C 205.144 26.238,205.436 26.500,205.482 26.500 C 205.528 26.500,205.311 26.238,205.000 25.917 C 204.689 25.596,204.397 25.333,204.351 25.333 C 204.305 25.333,204.522 25.596,204.833 25.917 M188.218 34.083 C 188.219 34.633,188.250 34.838,188.287 34.539 C 188.325 34.239,188.324 33.789,188.286 33.539 C 188.248 33.288,188.217 33.533,188.218 34.083 M203.714 34.750 C 203.716 35.208,203.748 35.376,203.786 35.123 C 203.825 34.869,203.824 34.494,203.784 34.289 C 203.744 34.084,203.713 34.292,203.714 34.750 M207.653 35.875 C 207.604 36.233,207.629 36.437,207.713 36.353 C 207.794 36.273,207.833 35.992,207.800 35.729 C 207.745 35.288,207.733 35.300,207.653 35.875 M203.712 38.667 C 203.712 39.079,203.745 39.248,203.784 39.042 C 203.824 38.835,203.824 38.498,203.784 38.292 C 203.745 38.085,203.712 38.254,203.712 38.667 M206.372 42.833 C 206.372 43.154,206.406 43.285,206.448 43.125 C 206.490 42.965,206.490 42.702,206.448 42.542 C 206.406 42.381,206.372 42.512,206.372 42.833 M210.223 45.000 C 210.223 45.688,210.252 45.969,210.288 45.625 C 210.324 45.281,210.324 44.719,210.288 44.375 C 210.252 44.031,210.223 44.313,210.223 45.000 M207.542 44.917 C 207.544 45.283,207.578 45.414,207.618 45.206 C 207.658 44.999,207.656 44.699,207.615 44.540 C 207.573 44.380,207.540 44.550,207.542 44.917 M186.375 55.448 C 186.535 55.490,186.798 55.490,186.958 55.448 C 187.119 55.406,186.987 55.372,186.667 55.372 C 186.346 55.372,186.215 55.406,186.375 55.448 M180.573 57.375 L 180.083 57.917 180.625 57.427 C 180.923 57.158,181.167 56.914,181.167 56.885 C 181.167 56.757,181.029 56.870,180.573 57.375 M179.212 60.667 C 179.212 61.079,179.245 61.248,179.284 61.042 C 179.324 60.835,179.324 60.498,179.284 60.292 C 179.245 60.085,179.212 60.254,179.212 60.667 M198.558 71.167 C 198.558 71.946,198.587 72.265,198.622 71.875 C 198.657 71.485,198.657 70.848,198.622 70.458 C 198.587 70.069,198.558 70.387,198.558 71.167 M208.127 71.618 C 208.334 71.658,208.634 71.656,208.794 71.615 C 208.953 71.573,208.783 71.540,208.417 71.542 C 208.050 71.544,207.920 71.578,208.127 71.618 M205.045 74.500 C 205.045 74.912,205.078 75.081,205.118 74.875 C 205.157 74.669,205.157 74.331,205.118 74.125 C 205.078 73.919,205.045 74.087,205.045 74.500 M208.208 74.286 C 208.460 74.324,208.873 74.324,209.125 74.286 C 209.377 74.248,209.171 74.217,208.667 74.217 C 208.162 74.217,207.956 74.248,208.208 74.286 M210.654 80.124 C 210.325 80.496,210.317 80.524,210.610 80.278 C 210.959 79.985,210.973 79.985,211.050 80.279 C 211.095 80.449,211.122 80.382,211.112 80.125 C 211.102 79.873,211.086 79.667,211.076 79.667 C 211.066 79.667,210.876 79.872,210.654 80.124 M212.205 88.500 C 212.205 88.821,212.240 88.952,212.282 88.792 C 212.323 88.631,212.323 88.369,212.282 88.208 C 212.240 88.048,212.205 88.179,212.205 88.500 M187.217 89.500 C 187.217 90.004,187.248 90.210,187.286 89.958 C 187.324 89.706,187.324 89.294,187.286 89.042 C 187.248 88.790,187.217 88.996,187.217 89.500 M216.875 110.750 C 216.877 111.117,216.911 111.247,216.951 111.040 C 216.991 110.832,216.990 110.532,216.948 110.373 C 216.906 110.214,216.874 110.383,216.875 110.750 M178.217 111.833 C 178.217 112.337,178.248 112.544,178.286 112.292 C 178.324 112.040,178.324 111.627,178.286 111.375 C 178.248 111.123,178.217 111.329,178.217 111.833 M216.872 115.000 C 216.872 115.321,216.906 115.452,216.948 115.292 C 216.990 115.131,216.990 114.869,216.948 114.708 C 216.906 114.548,216.872 114.679,216.872 115.000 M216.083 125.833 C 216.535 126.292,216.942 126.667,216.987 126.667 C 217.033 126.667,216.701 126.292,216.250 125.833 C 215.799 125.375,215.392 125.000,215.346 125.000 C 215.300 125.000,215.632 125.375,216.083 125.833 M193.560 141.500 C 193.560 142.371,193.588 142.727,193.623 142.292 C 193.657 141.856,193.657 141.144,193.623 140.708 C 193.588 140.273,193.560 140.629,193.560 141.500 M218.135 141.292 C 217.841 141.634,217.621 142.000,217.709 142.000 C 217.743 142.000,217.937 141.775,218.140 141.500 C 218.542 140.957,218.538 140.822,218.135 141.292 M213.740 150.875 L 213.250 151.417 213.792 150.927 C 214.297 150.471,214.410 150.333,214.281 150.333 C 214.252 150.333,214.009 150.577,213.740 150.875 M197.379 151.833 C 197.379 152.246,197.411 152.415,197.451 152.208 C 197.491 152.002,197.491 151.665,197.451 151.458 C 197.411 151.252,197.379 151.421,197.379 151.833 M208.906 152.208 L 208.417 152.750 208.958 152.260 C 209.463 151.804,209.577 151.667,209.448 151.667 C 209.419 151.667,209.175 151.910,208.906 152.208 M210.573 154.375 L 210.083 154.917 210.625 154.427 C 211.130 153.971,211.243 153.833,211.115 153.833 C 211.086 153.833,210.842 154.077,210.573 154.375 M205.545 156.667 C 205.545 157.079,205.578 157.248,205.618 157.042 C 205.657 156.835,205.657 156.498,205.618 156.292 C 205.578 156.085,205.545 156.254,205.545 156.667 M205.539 160.000 C 205.539 160.321,205.573 160.452,205.615 160.292 C 205.657 160.131,205.657 159.869,205.615 159.708 C 205.573 159.548,205.539 159.679,205.539 160.000 M208.212 160.500 C 208.212 160.912,208.245 161.081,208.284 160.875 C 208.324 160.669,208.324 160.331,208.284 160.125 C 208.245 159.919,208.212 160.087,208.212 160.500 M187.709 162.417 C 187.711 162.783,187.745 162.914,187.785 162.706 C 187.824 162.499,187.823 162.199,187.781 162.040 C 187.739 161.880,187.707 162.050,187.709 162.417 M193.542 164.083 C 193.544 164.450,193.578 164.580,193.618 164.373 C 193.658 164.166,193.656 163.866,193.615 163.706 C 193.573 163.547,193.540 163.717,193.542 164.083 M189.209 169.417 C 189.211 169.783,189.245 169.914,189.285 169.706 C 189.324 169.499,189.323 169.199,189.281 169.040 C 189.239 168.880,189.207 169.050,189.209 169.417 M191.875 170.583 C 191.877 170.950,191.911 171.080,191.951 170.873 C 191.991 170.666,191.990 170.366,191.948 170.206 C 191.906 170.047,191.874 170.217,191.875 170.583 M197.888 178.583 C 197.889 179.225,197.919 179.467,197.955 179.121 C 197.991 178.775,197.990 178.250,197.954 177.955 C 197.917 177.659,197.887 177.942,197.888 178.583 M201.224 182.417 C 201.224 183.150,201.254 183.429,201.289 183.037 C 201.324 182.645,201.324 182.045,201.288 181.704 C 201.252 181.363,201.223 181.683,201.224 182.417 M203.879 182.500 C 203.879 182.912,203.911 183.081,203.951 182.875 C 203.991 182.669,203.991 182.331,203.951 182.125 C 203.911 181.919,203.879 182.088,203.879 182.500 M207.740 195.208 L 207.250 195.750 207.792 195.260 C 208.297 194.804,208.410 194.667,208.281 194.667 C 208.252 194.667,208.009 194.910,207.740 195.208 " stroke="none" fill="#c8c9c9" fill-rule="evenodd"></path><path id="path4" d="M199.542 21.286 C 199.794 21.324,200.206 21.324,200.458 21.286 C 200.710 21.248,200.504 21.217,200.000 21.217 C 199.496 21.217,199.290 21.248,199.542 21.286 M198.958 23.787 C 199.256 23.824,199.744 23.824,200.042 23.787 C 200.340 23.750,200.096 23.720,199.500 23.720 C 198.904 23.720,198.660 23.750,198.958 23.787 M204.667 25.552 C 204.667 25.581,204.910 25.825,205.208 26.094 L 205.750 26.583 205.260 26.042 C 204.804 25.537,204.667 25.423,204.667 25.552 M190.875 32.750 C 190.877 33.117,190.911 33.247,190.951 33.040 C 190.991 32.832,190.990 32.532,190.948 32.373 C 190.906 32.214,190.874 32.383,190.875 32.750 M207.889 34.000 C 207.889 34.688,207.919 34.969,207.955 34.625 C 207.991 34.281,207.991 33.719,207.955 33.375 C 207.919 33.031,207.889 33.313,207.889 34.000 M210.387 34.167 C 210.387 34.762,210.417 35.006,210.454 34.708 C 210.491 34.410,210.491 33.923,210.454 33.625 C 210.417 33.327,210.387 33.571,210.387 34.167 M200.050 44.333 C 200.050 44.837,200.081 45.044,200.119 44.792 C 200.158 44.540,200.158 44.127,200.119 43.875 C 200.081 43.623,200.050 43.829,200.050 44.333 M197.542 44.250 C 197.544 44.617,197.578 44.747,197.618 44.540 C 197.658 44.332,197.656 44.032,197.615 43.873 C 197.573 43.714,197.540 43.883,197.542 44.250 M219.000 56.385 C 219.000 56.414,219.244 56.658,219.542 56.927 L 220.083 57.417 219.594 56.875 C 219.138 56.370,219.000 56.257,219.000 56.385 M221.218 61.583 C 221.219 62.133,221.250 62.338,221.287 62.039 C 221.325 61.739,221.324 61.289,221.286 61.039 C 221.248 60.788,221.217 61.033,221.218 61.583 M218.705 62.167 C 218.705 62.487,218.740 62.619,218.782 62.458 C 218.823 62.298,218.823 62.035,218.782 61.875 C 218.740 61.715,218.705 61.846,218.705 62.167 M210.883 68.000 C 210.883 68.504,210.915 68.710,210.953 68.458 C 210.991 68.206,210.991 67.794,210.953 67.542 C 210.915 67.290,210.883 67.496,210.883 68.000 M198.539 68.667 C 198.539 68.987,198.573 69.119,198.615 68.958 C 198.657 68.798,198.657 68.535,198.615 68.375 C 198.573 68.215,198.539 68.346,198.539 68.667 M196.045 69.333 C 196.045 69.746,196.078 69.915,196.118 69.708 C 196.157 69.502,196.157 69.165,196.118 68.958 C 196.078 68.752,196.045 68.921,196.045 69.333 M195.777 72.613 C 195.883 72.689,196.006 72.976,196.050 73.251 C 196.124 73.708,196.128 73.702,196.107 73.180 C 196.092 72.828,195.987 72.583,195.833 72.542 C 195.665 72.496,195.646 72.520,195.777 72.613 M198.539 73.833 C 198.539 74.154,198.573 74.285,198.615 74.125 C 198.657 73.965,198.657 73.702,198.615 73.542 C 198.573 73.381,198.539 73.512,198.539 73.833 M201.875 82.115 C 202.035 82.157,202.298 82.157,202.458 82.115 C 202.619 82.073,202.487 82.039,202.167 82.039 C 201.846 82.039,201.715 82.073,201.875 82.115 M187.060 89.333 C 187.060 90.204,187.088 90.560,187.123 90.125 C 187.157 89.690,187.157 88.977,187.123 88.542 C 187.088 88.106,187.060 88.462,187.060 89.333 M212.042 89.083 C 212.044 89.450,212.078 89.580,212.118 89.373 C 212.158 89.166,212.156 88.866,212.115 88.706 C 212.073 88.547,212.040 88.717,212.042 89.083 M216.705 110.000 C 216.705 110.321,216.740 110.452,216.782 110.292 C 216.823 110.131,216.823 109.869,216.782 109.708 C 216.740 109.548,216.705 109.679,216.705 110.000 M178.398 112.000 C 178.398 113.146,178.424 113.615,178.457 113.042 C 178.489 112.469,178.489 111.531,178.457 110.958 C 178.424 110.385,178.398 110.854,178.398 112.000 M180.894 111.917 C 180.895 112.833,180.923 113.187,180.956 112.703 C 180.990 112.218,180.990 111.468,180.956 111.036 C 180.921 110.604,180.894 111.000,180.894 111.917 M216.709 115.583 C 216.711 115.950,216.745 116.080,216.785 115.873 C 216.824 115.666,216.823 115.366,216.781 115.206 C 216.739 115.047,216.707 115.217,216.709 115.583 M217.250 123.333 C 217.701 123.792,218.108 124.167,218.154 124.167 C 218.200 124.167,217.868 123.792,217.417 123.333 C 216.965 122.875,216.558 122.500,216.513 122.500 C 216.467 122.500,216.799 122.875,217.250 123.333 M196.539 136.667 C 196.539 136.987,196.573 137.119,196.615 136.958 C 196.657 136.798,196.657 136.535,196.615 136.375 C 196.573 136.215,196.539 136.346,196.539 136.667 M193.718 140.083 C 193.719 140.633,193.750 140.838,193.787 140.539 C 193.825 140.239,193.824 139.789,193.786 139.539 C 193.748 139.288,193.717 139.533,193.718 140.083 M196.205 139.833 C 196.205 140.154,196.240 140.285,196.282 140.125 C 196.323 139.965,196.323 139.702,196.282 139.542 C 196.240 139.381,196.205 139.512,196.205 139.833 M193.721 142.750 C 193.722 143.392,193.752 143.634,193.788 143.288 C 193.824 142.942,193.824 142.417,193.787 142.121 C 193.750 141.825,193.721 142.108,193.721 142.750 M196.205 143.500 C 196.205 143.821,196.240 143.952,196.282 143.792 C 196.323 143.631,196.323 143.369,196.282 143.208 C 196.240 143.048,196.205 143.179,196.205 143.500 M207.218 145.917 C 207.219 146.467,207.250 146.672,207.287 146.372 C 207.325 146.072,207.324 145.622,207.286 145.372 C 207.248 145.122,207.217 145.367,207.218 145.917 M204.721 146.583 C 204.722 147.225,204.752 147.467,204.788 147.121 C 204.824 146.775,204.824 146.250,204.787 145.955 C 204.750 145.659,204.721 145.942,204.721 146.583 M207.209 147.583 C 207.211 147.950,207.245 148.080,207.285 147.873 C 207.324 147.666,207.323 147.366,207.281 147.206 C 207.239 147.047,207.207 147.217,207.209 147.583 M194.709 150.917 C 194.711 151.283,194.745 151.414,194.785 151.206 C 194.824 150.999,194.823 150.699,194.781 150.540 C 194.739 150.380,194.707 150.550,194.709 150.917 M212.575 152.042 L 211.917 152.750 212.625 152.091 C 213.284 151.478,213.410 151.333,213.284 151.333 C 213.257 151.333,212.938 151.652,212.575 152.042 M208.575 152.708 L 207.917 153.417 208.625 152.758 C 209.284 152.145,209.410 152.000,209.284 152.000 C 209.257 152.000,208.938 152.319,208.575 152.708 M194.705 152.833 C 194.705 153.154,194.740 153.285,194.782 153.125 C 194.823 152.965,194.823 152.702,194.782 152.542 C 194.740 152.381,194.705 152.512,194.705 152.833 M193.555 161.250 C 193.555 161.892,193.586 162.134,193.622 161.788 C 193.658 161.442,193.657 160.917,193.620 160.621 C 193.583 160.325,193.554 160.608,193.555 161.250 M196.052 161.750 C 196.053 162.300,196.084 162.505,196.121 162.205 C 196.158 161.906,196.157 161.456,196.119 161.205 C 196.081 160.955,196.051 161.200,196.052 161.750 M197.714 177.083 C 197.716 177.542,197.748 177.709,197.786 177.456 C 197.825 177.203,197.824 176.828,197.784 176.623 C 197.744 176.418,197.713 176.625,197.714 177.083 M195.217 177.333 C 195.217 177.838,195.248 178.044,195.286 177.792 C 195.324 177.540,195.324 177.127,195.286 176.875 C 195.248 176.623,195.217 176.829,195.217 177.333 M190.750 179.833 C 191.108 180.200,191.438 180.500,191.484 180.500 C 191.530 180.500,191.275 180.200,190.917 179.833 C 190.559 179.467,190.228 179.167,190.182 179.167 C 190.137 179.167,190.392 179.467,190.750 179.833 M201.399 182.667 C 201.399 183.904,201.425 184.410,201.457 183.792 C 201.489 183.173,201.489 182.160,201.457 181.542 C 201.425 180.923,201.399 181.429,201.399 182.667 M196.875 184.583 C 196.877 184.950,196.911 185.080,196.951 184.873 C 196.991 184.666,196.990 184.366,196.948 184.206 C 196.906 184.047,196.874 184.217,196.875 184.583 M194.879 189.000 C 194.879 189.412,194.911 189.581,194.951 189.375 C 194.991 189.169,194.991 188.831,194.951 188.625 C 194.911 188.419,194.879 188.588,194.879 189.000 M197.395 190.167 C 197.395 191.129,197.423 191.523,197.456 191.042 C 197.490 190.560,197.490 189.773,197.456 189.292 C 197.423 188.810,197.395 189.204,197.395 190.167 M194.890 191.417 C 194.891 192.150,194.920 192.429,194.956 192.037 C 194.991 191.645,194.990 191.045,194.954 190.704 C 194.919 190.363,194.890 190.683,194.890 191.417 M200.294 194.451 C 200.501 194.491,200.801 194.490,200.960 194.448 C 201.120 194.406,200.950 194.374,200.583 194.375 C 200.217 194.377,200.086 194.411,200.294 194.451 M200.042 196.955 C 200.385 196.991,200.948 196.991,201.292 196.955 C 201.635 196.919,201.354 196.889,200.667 196.889 C 199.979 196.889,199.698 196.919,200.042 196.955 " stroke="none" fill="#807f73" fill-rule="evenodd"></path></g></svg>