<?xml version="1.0" standalone="no"?>
<!DOCTYPE svg PUBLIC "-//W3C//DTD SVG 20010904//EN"
 "http://www.w3.org/TR/2001/REC-SVG-20010904/DTD/svg10.dtd">
<svg version="1.0" xmlns="http://www.w3.org/2000/svg"
 width="2816.000000pt" height="1536.000000pt" viewBox="0 0 2816.000000 1536.000000"
 preserveAspectRatio="xMidYMid meet">

<g transform="translate(0.000000,1536.000000) scale(0.100000,-0.100000)"
fill="#000000" stroke="none">
<path d="M10885 15315 c-166 -82 -312 -244 -389 -435 -42 -102 -105 -453 -140
-775 -51 -469 -51 -1174 -1 -1595 68 -558 121 -823 320 -1585 9 -33 72 -231
140 -440 68 -209 138 -434 154 -500 17 -66 42 -162 56 -214 36 -134 61 -301
75 -491 36 -512 112 -961 265 -1568 119 -468 167 -802 167 -1152 0 -246 -15
-393 -68 -655 -86 -420 -208 -713 -539 -1295 -134 -235 -285 -508 -285 -514 0
-2 -25 -56 -55 -119 -114 -241 -196 -491 -241 -737 -22 -117 -30 -479 -14
-607 28 -228 109 -465 217 -636 13 -21 23 -40 21 -42 -2 -1 -42 -7 -90 -13
-116 -15 -248 -61 -393 -137 -227 -119 -326 -128 -733 -69 -205 30 -264 35
-348 31 -185 -10 -375 -76 -526 -183 -111 -78 -283 -251 -343 -344 -219 -338
-103 -687 265 -802 70 -22 90 -23 320 -22 164 1 288 6 375 17 495 64 681 77
1069 77 346 0 453 -7 976 -65 428 -46 567 -66 850 -121 129 -25 330 -63 445
-85 116 -22 226 -44 245 -49 69 -17 418 -79 585 -104 546 -81 618 -86 1276
-86 614 0 697 6 1004 71 184 38 273 69 430 145 113 56 144 77 241 163 193 172
303 350 366 588 30 112 31 128 32 320 1 177 3 200 16 190 8 -6 38 -32 66 -57
27 -25 102 -90 165 -145 129 -113 249 -233 349 -350 205 -240 399 -400 715
-587 221 -131 548 -257 822 -318 75 -17 128 -20 359 -20 l270 0 120 34 c156
44 202 62 306 121 125 70 198 132 257 220 61 92 75 137 75 236 -1 181 -132
331 -412 472 -70 35 -152 74 -182 86 -575 224 -689 272 -905 382 -136 69 -241
130 -324 189 -35 25 -73 52 -85 60 -52 35 -234 187 -287 239 -9 9 -56 54 -104
100 -289 280 -666 729 -937 1119 -192 275 -685 915 -749 972 -10 8 -51 56 -91
105 -71 87 -75 93 -96 185 -25 109 -93 463 -89 466 1 1 25 -2 52 -7 316 -56
525 -73 840 -66 273 6 330 14 477 69 258 95 379 291 433 703 66 503 70 891 15
1425 -31 299 -45 393 -115 755 -93 484 -126 685 -150 928 -14 139 -30 302 -36
362 -26 259 -85 481 -179 670 -56 113 -180 276 -281 369 -105 97 -309 221
-449 273 -36 13 -74 28 -85 33 -83 39 -308 116 -438 149 -62 16 -137 38 -167
50 -30 11 -75 25 -100 31 -199 51 -405 145 -518 237 -51 41 -114 136 -143 212
-28 77 -49 226 -49 360 l0 113 62 77 c262 325 466 779 542 1211 44 245 51 333
51 625 0 346 -19 484 -101 740 -171 530 -549 900 -1053 1031 -89 23 -107 24
-403 24 -303 0 -312 -1 -407 -26 -163 -44 -310 -109 -426 -187 -156 -105 -307
-252 -404 -391 -55 -79 -158 -272 -180 -336 l-12 -35 -46 55 c-113 135 -402
401 -618 569 -173 135 -323 245 -385 282 -108 64 -136 69 -395 69 l-230 0 -90
-45z m410 -256 c85 -16 172 -63 321 -175 284 -215 533 -432 706 -615 180 -191
230 -255 224 -288 -37 -178 -37 -565 0 -861 18 -146 68 -396 91 -458 11 -28
-221 172 -363 313 -116 115 -156 163 -226 270 -103 157 -145 238 -210 409 -60
156 -78 194 -111 224 -33 31 -98 45 -145 32 -48 -13 -55 -18 -86 -64 -41 -61
-36 -113 26 -275 49 -129 165 -421 223 -561 108 -259 144 -409 220 -899 30
-200 60 -385 66 -410 22 -103 39 -129 212 -311 121 -128 187 -221 278 -395 26
-49 52 -106 58 -125 18 -56 105 -166 155 -195 72 -42 148 -52 251 -31 101 19
160 50 249 129 83 74 159 187 203 307 23 60 57 245 50 265 -3 6 -2 18 3 25 6
10 28 2 97 -33 174 -90 306 -122 503 -121 188 0 303 28 466 113 l112 58 7 -66
c31 -302 154 -517 381 -666 164 -109 306 -166 724 -290 490 -145 689 -226 845
-343 210 -157 355 -392 409 -662 15 -77 60 -458 71 -610 17 -229 43 -395 119
-764 112 -539 148 -797 177 -1281 23 -382 -28 -1045 -95 -1234 -34 -95 -111
-166 -210 -195 -132 -39 -346 -52 -586 -36 -257 16 -666 72 -687 94 -23 23
-47 379 -40 589 3 92 9 172 12 177 4 6 130 10 329 10 l322 0 42 27 c88 57 94
128 27 293 -145 353 -215 672 -285 1300 -13 114 -13 117 65 486 43 209 63 360
54 412 -20 111 -160 160 -248 86 -37 -30 -45 -54 -76 -224 -73 -402 -209 -927
-355 -1375 -57 -175 -130 -468 -158 -640 -40 -233 -47 -333 -47 -645 0 -319 6
-396 60 -765 13 -88 23 -161 21 -162 -2 -2 -54 54 -117 124 -63 70 -150 166
-194 213 -44 47 -105 112 -135 145 -30 33 -96 105 -146 160 -112 123 -290 331
-313 365 -24 36 -196 199 -266 252 -189 142 -372 225 -580 264 -131 24 -345
15 -479 -21 -207 -55 -310 -108 -496 -256 -178 -141 -338 -331 -662 -789 -98
-137 -470 -703 -583 -885 -34 -55 -128 -208 -210 -340 -81 -132 -172 -277
-202 -322 -70 -106 -88 -158 -73 -212 21 -79 86 -131 164 -131 83 0 89 7 229
240 38 63 108 177 156 253 47 76 95 152 105 170 11 18 63 100 116 182 53 83
129 202 170 265 297 465 603 897 771 1089 151 174 248 257 375 327 140 76 214
99 374 118 67 7 233 -14 309 -41 76 -26 176 -75 236 -116 84 -58 219 -181 295
-270 47 -55 110 -127 140 -161 31 -33 71 -79 89 -101 41 -48 202 -223 327
-355 50 -52 117 -124 149 -160 32 -36 116 -126 185 -200 110 -117 305 -333
565 -625 193 -218 562 -697 853 -1110 47 -66 128 -175 181 -243 53 -68 109
-140 124 -160 34 -45 246 -287 378 -432 240 -263 433 -442 653 -605 48 -36
287 -188 366 -234 58 -33 318 -161 327 -161 3 0 39 -16 80 -35 41 -19 77 -35
79 -35 5 0 86 -32 550 -216 214 -84 335 -165 368 -246 l16 -36 -73 -55 c-182
-137 -400 -207 -647 -207 -147 0 -253 18 -448 76 -219 65 -499 183 -600 253
-15 10 -61 40 -102 67 -197 127 -358 274 -597 544 -104 118 -154 165 -350 332
-203 173 -573 450 -751 562 -26 17 -90 58 -142 91 -113 74 -247 155 -256 155
-3 0 -19 9 -35 21 -17 12 -60 38 -97 58 -138 77 -167 94 -177 101 -10 8 -101
57 -245 133 -41 21 -131 68 -200 104 -156 82 -246 132 -430 241 -506 300 -790
627 -1044 1202 -51 114 -76 144 -135 160 -123 33 -236 -77 -201 -195 54 -181
282 -604 417 -772 l33 -42 -19 -33 c-11 -18 -29 -58 -41 -88 -59 -150 -202
-450 -285 -594 -148 -257 -244 -392 -382 -537 l-74 -78 -117 -35 c-64 -20
-193 -61 -287 -91 -517 -166 -876 -234 -1141 -214 -102 7 -161 29 -263 98
-101 69 -179 153 -279 302 -204 304 -259 687 -167 1144 47 230 140 475 289
754 36 67 66 124 66 126 0 2 96 167 159 273 155 261 379 717 444 902 77 222
84 244 107 350 81 363 104 564 104 895 -1 378 -54 754 -169 1202 -155 604
-212 930 -255 1453 -30 373 -41 444 -112 700 -96 348 -174 605 -303 990 -14
41 -47 163 -74 270 -27 107 -63 247 -79 310 -91 356 -182 922 -212 1325 -14
187 -14 707 0 920 12 189 40 436 76 665 50 327 83 418 188 525 114 116 226
153 381 124z m2940 0 c97 -12 259 -61 358 -108 111 -53 220 -133 327 -241 119
-118 185 -213 243 -345 110 -252 145 -421 154 -735 4 -172 2 -232 -16 -375
-31 -243 -73 -436 -137 -625 -212 -628 -619 -1059 -1037 -1096 -83 -7 -169 6
-277 43 -100 34 -140 55 -235 123 -460 332 -775 1084 -775 1851 0 527 127 892
409 1178 128 130 274 216 476 283 173 57 318 70 510 47z m-1885 -2591 c247
-222 809 -799 823 -846 12 -38 -1 -261 -19 -351 -19 -90 -49 -155 -105 -221
-44 -52 -116 -97 -141 -87 -9 3 -41 57 -72 120 -115 234 -263 452 -392 577
-37 36 -76 84 -86 108 -12 25 -37 158 -64 335 -41 267 -60 374 -79 450 -4 15
-3 27 2 27 5 0 65 -50 133 -112z m3660 -5410 c0 -49 80 -409 113 -508 20 -58
33 -108 31 -112 -3 -5 -77 -8 -165 -8 l-160 0 6 38 c13 75 97 410 128 510 30
98 47 127 47 80z m-1945 -3979 c173 -153 378 -290 675 -449 74 -40 155 -84
180 -98 25 -13 59 -31 75 -40 47 -24 427 -231 460 -251 27 -16 245 -144 380
-223 148 -86 240 -153 281 -205 60 -74 114 -178 146 -277 31 -95 33 -109 32
-241 0 -120 -4 -154 -27 -238 -72 -259 -220 -438 -468 -562 -225 -113 -640
-181 -1154 -189 -353 -6 -667 15 -1120 74 -306 40 -424 61 -1075 190 -976 195
-1557 261 -2275 262 -503 1 -608 -5 -970 -52 -372 -48 -428 -53 -562 -47 -136
5 -178 15 -231 55 -119 88 -91 193 103 388 122 123 197 178 297 218 135 53
257 56 535 12 228 -37 373 -44 510 -26 107 15 179 40 356 125 228 109 257 118
362 119 110 1 158 -14 410 -128 205 -94 412 -124 660 -96 231 26 639 121 965
226 129 41 276 88 327 105 262 84 453 113 743 113 258 0 362 -16 606 -95 177
-57 219 -59 275 -11 63 52 79 158 35 223 -30 44 -97 71 -326 133 -237 64 -343
78 -603 79 l-218 0 20 21 c23 25 164 247 210 331 95 172 146 277 216 443 43
100 80 182 84 182 3 0 42 -32 86 -71z"/>
</g>
</svg>
