<svg id="svg" version="1.1" xmlns="http://www.w3.org/2000/svg" xmlns:xlink="http://www.w3.org/1999/xlink" width="400" height="218.1818181818182" viewBox="0, 0, 400,218.1818181818182"><g id="svgg"><path id="path0" d="M196.727 26.946 C 185.636 29.001,180.318 42.266,184.870 56.519 C 185.681 59.059,188.344 63.989,189.564 65.209 C 190.300 65.945,190.094 70.474,189.250 72.130 C 188.230 74.129,184.327 75.934,177.960 77.352 C 168.137 79.540,165.587 82.085,160.678 94.599 C 160.019 96.279,158.146 100.355,156.517 103.655 C 154.887 106.956,153.136 110.687,152.625 111.948 C 152.114 113.208,151.615 114.234,151.516 114.227 C 151.417 114.221,150.649 113.895,149.809 113.503 C 139.318 108.608,127.877 118.730,130.356 130.715 C 131.714 137.280,134.196 143.654,140.044 155.592 C 146.451 168.671,147.334 170.662,148.836 175.422 C 149.987 179.067,150.144 178.807,144.512 182.568 C 140.491 185.253,137.904 186.588,135.928 186.998 C 130.421 188.141,128.261 191.959,131.318 195.150 C 133.205 197.121,142.504 196.956,148.621 194.844 L 151.337 193.907 154.173 193.995 C 162.699 194.261,163.520 194.151,165.264 192.506 C 167.608 190.294,167.669 185.698,165.417 180.797 C 163.626 176.896,161.788 169.180,161.056 162.489 C 160.755 159.733,160.617 159.727,163.376 162.586 C 173.542 173.123,182.710 176.491,195.417 174.359 C 200.180 173.560,199.995 173.560,204.692 174.359 C 217.075 176.465,225.535 173.525,235.514 163.647 C 237.525 161.656,239.171 160.162,239.171 160.327 C 239.171 165.451,236.881 175.268,234.015 182.433 C 232.468 186.302,232.829 190.765,234.840 192.615 C 236.505 194.146,237.341 194.249,246.045 193.994 C 248.868 193.911,248.893 193.915,251.173 194.733 C 257.207 196.899,266.525 197.173,268.591 195.246 C 272.002 192.064,269.650 188.105,263.630 186.897 C 262.078 186.585,258.365 184.593,255.101 182.320 C 254.561 181.944,253.530 181.234,252.810 180.743 C 250.757 179.343,250.433 178.915,250.586 177.804 C 250.714 176.874,252.250 172.010,252.810 170.758 C 252.972 170.398,253.418 169.367,253.803 168.467 C 254.187 167.567,255.778 164.228,257.338 161.047 C 261.952 151.637,264.035 147.292,264.819 145.445 C 271.579 129.499,271.703 122.447,265.331 116.447 C 260.603 111.996,255.108 110.972,250.089 113.607 C 248.298 114.548,248.507 114.640,247.677 112.548 C 246.610 109.857,245.923 108.372,243.360 103.214 C 240.728 97.919,240.726 97.914,239.054 93.726 C 234.552 82.445,231.666 79.578,222.695 77.475 C 212.265 75.031,210.417 73.674,210.203 68.303 L 210.103 65.794 210.852 64.812 C 216.877 56.907,218.532 44.318,214.650 35.917 C 211.512 29.123,204.341 25.534,196.727 26.946 M204.474 30.815 C 216.062 35.301,216.265 57.092,204.801 65.836 C 194.393 73.774,181.829 51.631,188.662 37.393 C 191.549 31.379,198.481 28.495,204.474 30.815 M198.393 70.928 C 200.940 71.359,204.591 70.562,206.028 69.261 C 206.495 68.839,206.584 69.001,206.869 70.781 C 207.682 75.869,211.123 78.312,220.596 80.527 C 228.582 82.395,231.128 84.260,233.697 90.125 C 234.091 91.026,234.587 92.155,234.799 92.635 C 235.010 93.115,235.709 94.834,236.351 96.454 C 236.993 98.074,238.589 101.559,239.898 104.199 C 247.805 120.144,249.644 127.623,246.384 130.569 C 244.540 132.235,238.629 131.871,230.333 129.582 C 229.013 129.217,227.540 128.827,227.059 128.713 C 226.579 128.600,224.615 128.012,222.695 127.407 C 220.775 126.802,218.467 126.082,217.567 125.808 C 200.588 120.641,201.746 121.970,201.746 107.638 C 201.746 101.224,201.821 97.789,201.962 97.835 C 202.165 97.903,202.912 100.077,204.187 104.310 C 204.959 106.874,205.316 108.591,205.675 111.470 C 206.529 118.302,209.386 119.445,227.059 120.022 C 233.262 120.225,236.636 120.574,237.652 121.118 C 239.167 121.928,240.861 120.204,239.935 118.792 C 239.480 118.097,238.121 117.494,236.552 117.290 C 235.892 117.205,235.176 117.042,234.960 116.929 C 233.894 116.368,229.280 107.942,226.200 100.927 C 224.524 97.114,224.515 97.096,223.953 96.727 C 222.920 96.051,221.277 96.937,221.277 98.170 C 221.277 98.403,221.669 99.435,222.149 100.465 C 223.491 103.342,223.212 105.543,220.560 112.996 L 219.418 116.203 218.220 116.141 C 211.233 115.777,209.358 114.532,208.950 109.984 C 208.763 107.902,207.905 104.383,206.688 100.709 C 206.569 100.349,206.007 98.582,205.441 96.782 C 204.026 92.288,202.844 91.228,200.564 92.407 C 200.031 92.683,199.894 92.684,199.538 92.414 C 198.996 92.004,197.628 92.007,196.829 92.420 C 195.979 92.860,195.669 93.509,194.278 97.763 C 192.079 104.489,191.394 107.208,190.961 110.931 C 190.523 114.694,189.504 115.283,181.862 116.187 L 180.744 116.320 180.300 115.279 C 178.829 111.839,176.869 104.542,177.032 103.114 C 177.087 102.632,177.490 101.474,177.928 100.541 C 178.365 99.608,178.723 98.574,178.723 98.243 C 178.723 96.344,176.122 95.843,175.352 97.595 C 175.180 97.987,174.480 99.585,173.798 101.146 C 171.393 106.642,166.562 115.601,165.472 116.586 C 165.239 116.796,164.237 117.131,163.246 117.330 C 160.909 117.799,160.089 118.335,159.996 119.454 C 159.862 121.078,160.865 121.613,162.893 120.998 C 164.707 120.448,168.950 120.065,174.795 119.925 C 190.803 119.540,193.386 118.318,194.539 110.583 C 194.829 108.633,195.276 106.350,195.532 105.510 C 197.142 100.216,197.976 97.763,198.166 97.763 C 198.309 97.763,198.361 101.207,198.317 107.747 C 198.223 121.838,199.181 120.586,185.161 124.942 C 183.361 125.501,181.200 126.188,180.360 126.468 C 168.761 130.335,158.001 132.417,154.903 131.394 C 150.330 129.885,151.541 121.730,158.387 107.914 C 161.304 102.029,162.804 98.857,163.447 97.218 C 168.501 84.331,169.986 82.710,178.537 80.752 C 188.876 78.385,192.399 76.023,193.168 70.941 C 193.288 70.150,193.417 69.394,193.456 69.260 C 193.498 69.114,194.172 69.342,195.156 69.837 C 196.154 70.338,197.410 70.761,198.393 70.928 M174.800 109.829 C 174.930 110.334,175.423 111.947,175.897 113.412 C 176.371 114.878,176.759 116.179,176.759 116.304 C 176.759 116.451,175.568 116.530,173.377 116.530 C 171.517 116.530,169.995 116.468,169.995 116.392 C 169.995 116.034,174.239 108.709,174.391 108.803 C 174.487 108.863,174.671 109.324,174.800 109.829 M226.933 110.600 C 227.397 111.521,228.278 113.142,228.891 114.202 C 229.504 115.261,230.005 116.219,230.005 116.329 C 230.005 116.443,228.539 116.530,226.623 116.530 C 222.903 116.530,223.036 116.593,223.581 115.112 C 224.241 113.316,224.951 111.152,225.194 110.202 C 225.566 108.742,225.617 108.634,225.864 108.786 C 225.988 108.863,226.469 109.679,226.933 110.600 M148.519 116.733 C 149.528 117.233,150.355 117.724,150.355 117.823 C 150.355 117.922,150.201 118.433,150.014 118.958 C 147.456 126.123,148.612 132.239,152.924 134.356 C 155.114 135.432,160.967 135.207,167.104 133.812 C 168.726 133.444,168.955 133.436,169.396 133.734 C 171.051 134.851,179.020 142.581,181.786 145.753 C 185.526 150.043,186.378 150.575,187.331 149.215 C 188.220 147.945,187.079 146.113,182.305 141.142 L 180.688 139.459 181.117 138.306 C 181.930 136.124,182.676 133.240,182.936 131.277 L 183.197 129.310 184.943 128.719 C 185.903 128.395,188.679 127.484,191.113 126.695 C 196.223 125.039,197.151 124.607,198.821 123.107 L 200.043 122.010 201.211 123.107 C 202.965 124.754,203.235 124.870,211.784 127.657 C 217.432 129.497,216.859 129.101,217.143 131.364 C 217.345 132.981,217.874 135.033,218.961 138.415 L 219.296 139.459 217.034 141.906 C 212.237 147.094,211.700 148.020,212.804 149.195 C 213.994 150.461,214.348 150.213,219.248 144.681 C 223.065 140.371,230.421 133.560,231.264 133.555 C 231.536 133.553,232.874 133.793,234.236 134.087 C 249.003 137.280,254.209 132.356,250.083 119.098 L 249.690 117.837 250.268 117.436 C 256.934 112.802,266.440 118.361,266.444 126.896 C 266.446 130.632,264.670 137.050,261.975 143.044 C 261.813 143.404,261.365 144.435,260.979 145.336 C 260.035 147.537,258.611 150.514,254.719 158.429 C 252.919 162.089,251.152 165.772,250.791 166.612 C 246.740 176.066,246.186 179.273,248.215 181.518 C 249.952 183.439,258.628 188.835,261.429 189.735 C 265.377 191.005,266.089 191.284,266.318 191.653 C 267.447 193.470,257.884 193.442,252.465 191.611 C 249.199 190.508,247.234 190.234,244.711 190.528 C 238.054 191.305,236.411 190.672,236.471 187.352 C 236.498 185.804,236.703 185.092,238.294 181.015 C 240.441 175.511,241.855 168.848,242.991 158.865 C 244.030 149.743,246.956 141.963,250.624 138.571 C 251.904 137.387,252.167 136.053,251.292 135.178 C 248.874 132.760,242.407 142.622,240.697 151.337 C 240.364 153.035,239.737 153.935,235.682 158.535 C 225.669 169.894,215.830 173.510,203.055 170.525 C 201.380 170.134,198.836 170.134,197.163 170.526 C 185.417 173.276,176.856 170.730,167.513 161.709 C 165.682 159.941,164.498 158.639,160.960 154.501 C 159.911 153.273,159.565 152.577,159.332 151.217 C 158.146 144.318,152.103 134.102,149.583 134.734 C 147.718 135.202,147.742 136.460,149.660 138.817 C 154.008 144.159,155.951 149.346,157.007 158.429 C 158.345 169.930,159.607 175.679,162.262 182.356 C 165.147 189.612,163.955 191.341,156.543 190.650 C 152.691 190.291,151.086 190.461,147.615 191.599 C 143.868 192.827,135.488 193.492,133.974 192.682 C 132.915 192.115,133.665 191.237,135.734 190.621 C 140.981 189.059,141.122 188.990,146.645 185.330 C 153.560 180.747,153.998 179.760,151.901 173.492 C 150.364 168.898,149.083 166.036,143.181 154.010 C 141.605 150.800,140.316 148.128,140.316 148.072 C 140.316 148.016,139.981 147.255,139.570 146.380 C 136.746 140.362,134.311 133.262,133.757 129.427 C 132.421 120.188,140.855 112.935,148.519 116.733 M179.514 131.206 C 179.166 133.012,178.161 136.232,177.916 136.326 C 177.610 136.444,173.498 132.715,173.491 132.315 C 173.488 132.175,173.953 131.955,174.523 131.827 C 175.093 131.698,176.296 131.355,177.196 131.063 C 179.495 130.317,179.683 130.329,179.514 131.206 M223.459 131.267 C 224.359 131.542,225.413 131.833,225.802 131.913 C 226.928 132.143,226.848 132.305,224.575 134.402 C 222.070 136.711,222.071 136.711,221.631 135.352 C 221.243 134.155,220.404 130.943,220.404 130.656 C 220.404 130.422,221.267 130.595,223.459 131.267 " stroke="none" fill="#070707" fill-rule="evenodd"></path><path id="path1" d="M0.000 109.111 L 0.000 218.221 200.000 218.221 L 400.000 218.221 400.000 109.111 L 400.000 0.000 200.000 0.000 L 0.000 0.000 0.000 109.111 M205.128 27.063 C 212.912 29.770,216.991 36.403,217.001 46.372 C 217.007 53.315,215.373 58.718,211.606 64.207 L 210.299 66.111 210.441 68.244 C 210.784 73.379,212.785 74.933,221.604 76.916 C 230.482 78.911,233.904 81.511,237.268 88.816 C 238.303 91.064,238.734 92.065,238.742 92.241 C 238.746 92.338,238.939 92.810,239.171 93.290 C 239.403 93.770,239.596 94.246,239.600 94.349 C 239.615 94.736,241.930 99.779,243.972 103.873 C 246.318 108.580,248.336 113.042,248.336 113.526 C 248.336 114.105,248.561 114.073,250.252 113.250 C 259.211 108.888,270.376 116.562,270.376 127.081 C 270.376 130.606,268.015 139.011,265.454 144.605 C 265.281 144.983,265.139 145.349,265.139 145.419 C 265.139 145.628,262.831 150.445,257.234 161.920 C 253.715 169.135,252.971 170.862,251.695 174.778 C 250.807 177.507,250.737 178.794,251.446 179.402 C 254.053 181.639,261.532 186.044,263.723 186.632 C 266.680 187.426,267.269 187.632,268.121 188.170 C 270.714 189.807,271.081 193.375,268.863 195.379 C 267.550 196.565,266.830 196.672,260.781 196.574 L 255.428 196.487 252.373 195.443 C 248.761 194.210,247.193 194.038,242.961 194.412 C 235.719 195.052,232.731 193.016,232.749 187.452 C 232.755 185.297,233.455 182.204,234.156 181.233 C 234.242 181.113,234.437 180.622,234.588 180.142 C 234.739 179.662,234.936 179.171,235.024 179.051 C 235.902 177.859,237.975 168.780,238.512 163.775 C 238.641 162.575,238.800 161.348,238.866 161.047 C 238.953 160.655,238.314 161.208,236.597 163.011 C 228.935 171.061,220.126 175.450,211.633 175.450 C 209.918 175.450,203.142 174.527,201.986 174.136 C 201.176 173.862,198.992 173.860,198.276 174.132 C 197.397 174.467,190.018 175.450,188.389 175.450 C 182.514 175.450,174.191 172.393,169.549 168.530 C 169.374 168.384,168.494 167.657,167.594 166.912 C 166.694 166.168,164.889 164.470,163.584 163.140 L 161.211 160.720 161.363 162.357 C 161.917 168.318,163.613 175.751,165.396 180.033 C 168.525 187.545,167.971 191.900,163.635 193.883 C 162.174 194.551,160.505 194.647,155.483 194.352 C 152.287 194.165,150.271 194.340,149.277 194.890 C 146.610 196.367,136.592 197.280,132.993 196.373 C 129.280 195.438,128.595 190.259,131.906 188.156 C 132.622 187.702,136.639 186.361,137.286 186.361 C 138.236 186.361,146.778 181.048,148.718 179.250 C 149.597 178.435,148.605 174.313,146.408 169.653 C 146.178 169.165,145.990 168.704,145.990 168.628 C 145.990 168.450,143.662 163.607,139.855 155.868 C 138.189 152.480,136.825 149.662,136.825 149.607 C 136.825 149.552,136.442 148.691,135.973 147.694 C 131.347 137.848,129.121 129.423,129.894 124.688 C 131.519 114.749,143.043 108.769,150.998 113.737 C 151.507 114.055,151.443 114.128,152.087 112.493 C 152.654 111.056,153.813 108.589,156.955 102.128 C 159.492 96.911,159.797 96.227,160.745 93.617 C 164.469 83.367,168.805 78.909,176.541 77.376 C 179.786 76.734,183.170 75.756,185.004 74.931 C 185.637 74.647,186.227 74.407,186.313 74.399 C 188.750 74.174,190.878 67.241,189.157 65.131 C 181.814 56.126,180.868 40.486,187.185 32.515 C 191.316 27.304,199.056 24.952,205.128 27.063 M197.535 30.576 C 186.703 32.379,183.471 48.896,191.497 61.429 C 198.217 71.921,208.933 67.216,212.373 52.264 C 215.395 39.129,208.316 28.782,197.535 30.576 M193.518 70.531 C 193.077 75.607,189.228 78.581,180.578 80.528 C 171.797 82.505,169.270 84.246,166.680 90.108 C 166.332 90.898,165.959 91.740,165.852 91.980 C 165.745 92.220,165.099 93.841,164.415 95.581 C 163.732 97.321,161.825 101.495,160.177 104.855 C 152.169 121.184,150.545 128.197,154.191 130.696 C 156.257 132.112,163.601 131.186,173.377 128.279 C 174.577 127.922,176.099 127.481,176.759 127.299 C 177.420 127.116,178.942 126.640,180.142 126.241 C 181.342 125.842,183.355 125.203,184.615 124.822 C 185.876 124.441,187.300 123.997,187.780 123.836 C 188.260 123.674,189.536 123.281,190.616 122.961 C 193.624 122.071,194.816 121.525,195.966 120.508 C 197.994 118.714,197.940 119.062,197.875 108.219 L 197.818 98.745 197.319 100.491 C 197.045 101.451,196.673 102.777,196.493 103.437 C 196.313 104.097,196.079 104.834,195.973 105.074 C 195.604 105.911,194.888 109.454,194.662 111.561 C 194.287 115.064,192.850 117.261,190.326 118.193 C 189.765 118.400,189.208 118.643,189.086 118.734 C 188.850 118.909,185.917 119.474,183.415 119.826 C 182.575 119.944,178.549 120.127,174.468 120.233 C 167.137 120.422,163.253 120.836,161.874 121.574 C 161.082 121.998,159.520 120.714,159.520 119.638 C 159.520 118.324,160.957 117.384,163.647 116.940 L 165.112 116.698 166.003 115.359 C 167.677 112.843,172.613 103.703,172.613 103.119 C 172.613 103.063,172.945 102.302,173.351 101.427 C 173.757 100.552,174.413 99.119,174.808 98.241 C 175.576 96.537,175.902 96.236,176.978 96.236 C 179.134 96.236,179.588 98.544,177.944 101.146 C 176.906 102.787,177.351 106.046,179.418 111.948 C 179.775 112.968,180.230 114.282,180.428 114.868 L 180.789 115.933 182.539 115.800 C 184.765 115.631,188.007 114.965,188.923 114.489 C 190.049 113.903,190.310 113.262,190.862 109.723 C 191.471 105.822,191.774 104.656,193.827 98.309 C 195.864 92.010,196.681 91.035,199.135 91.972 C 200.071 92.329,200.168 92.329,200.912 91.976 C 203.033 90.970,204.289 92.250,205.791 96.951 C 208.602 105.752,208.735 106.270,209.373 110.894 C 209.799 113.980,210.295 114.475,213.717 115.233 C 215.575 115.644,219.313 116.056,219.313 115.849 C 219.313 115.798,219.711 114.630,220.198 113.252 C 222.987 105.367,223.255 103.214,221.803 100.345 C 220.961 98.682,220.907 97.758,221.602 96.932 C 222.748 95.571,224.362 96.062,225.198 98.027 C 227.730 103.978,231.017 110.540,233.349 114.301 C 234.886 116.778,234.802 116.705,236.374 116.956 C 240.101 117.551,241.673 119.416,239.786 121.004 C 239.007 121.659,239.089 121.661,235.461 120.903 C 233.514 120.496,232.055 120.396,225.750 120.235 C 221.669 120.132,217.643 119.939,216.803 119.808 C 215.963 119.676,214.589 119.466,213.749 119.340 C 208.184 118.507,205.840 116.253,205.363 111.280 C 205.150 109.057,204.564 106.416,203.597 103.328 C 203.335 102.488,202.935 101.173,202.711 100.405 C 202.486 99.638,202.245 98.954,202.177 98.885 C 202.108 98.816,202.081 103.127,202.117 108.464 L 202.182 118.167 202.762 119.058 C 203.907 120.817,205.299 121.639,209.242 122.882 C 210.400 123.247,211.740 123.675,212.220 123.832 C 212.700 123.990,214.124 124.437,215.385 124.826 C 216.645 125.215,218.560 125.824,219.640 126.179 C 223.835 127.556,229.713 129.215,233.061 129.964 C 233.841 130.139,235.068 130.425,235.788 130.599 C 247.515 133.442,249.920 129.904,245.277 116.639 C 244.941 115.679,244.510 114.599,244.320 114.239 C 244.130 113.879,243.974 113.514,243.973 113.429 C 243.971 113.225,242.074 109.223,239.393 103.764 C 237.098 99.091,236.553 97.914,236.551 97.621 C 236.550 97.519,236.413 97.175,236.247 96.857 C 236.081 96.538,235.824 95.900,235.675 95.438 C 235.526 94.977,235.275 94.354,235.115 94.053 C 234.956 93.753,234.518 92.771,234.142 91.871 C 231.639 85.885,229.940 83.990,225.314 82.031 C 224.809 81.818,221.951 81.086,219.422 80.523 C 217.180 80.025,215.117 79.439,214.839 79.223 C 214.719 79.129,214.241 78.931,213.776 78.781 C 209.820 77.505,206.959 74.259,206.514 70.540 C 206.372 69.348,206.230 69.183,205.798 69.703 C 205.040 70.617,202.697 71.238,200.000 71.239 C 197.270 71.239,196.960 71.151,193.754 69.449 C 193.679 69.409,193.573 69.896,193.518 70.531 M173.760 110.025 C 173.496 110.542,172.900 111.653,172.436 112.493 C 171.972 113.333,171.339 114.487,171.029 115.057 L 170.466 116.094 173.394 116.094 C 175.272 116.094,176.323 116.013,176.323 115.867 C 176.323 115.743,175.922 114.393,175.431 112.867 C 174.941 111.341,174.472 109.866,174.390 109.588 C 174.252 109.120,174.206 109.151,173.760 110.025 M225.641 109.368 C 225.641 109.722,224.603 113.127,224.023 114.675 C 223.473 116.145,223.380 116.094,226.623 116.094 C 228.243 116.094,229.569 116.052,229.569 116.002 C 229.569 115.951,229.097 115.092,228.519 114.092 C 227.942 113.093,227.148 111.637,226.755 110.857 C 225.951 109.263,225.641 108.849,225.641 109.368 M142.259 116.209 C 137.804 117.290,133.797 122.272,133.774 126.759 C 133.761 129.108,135.398 135.753,136.790 139.007 C 136.919 139.307,137.286 140.240,137.607 141.080 C 137.928 141.920,138.374 143.020,138.599 143.523 C 138.823 144.027,139.007 144.484,139.007 144.539 C 139.007 144.685,140.947 148.792,143.041 153.082 C 144.038 155.123,145.847 158.829,147.062 161.318 C 152.108 171.654,153.983 177.723,152.918 180.267 C 152.248 181.865,150.744 183.048,143.153 187.941 C 141.338 189.112,139.000 190.035,135.591 190.929 C 134.180 191.299,133.532 191.931,134.097 192.385 C 135.220 193.287,144.288 192.503,148.003 191.183 C 150.806 190.187,152.680 189.965,155.798 190.261 C 163.816 191.023,164.893 189.688,162.032 182.537 C 159.755 176.847,158.589 172.197,157.546 164.648 C 157.313 162.968,156.880 159.825,156.583 157.665 C 155.277 148.178,153.425 143.454,149.069 138.503 C 147.573 136.803,147.505 135.436,148.880 134.724 C 151.858 133.184,158.175 142.979,159.721 151.534 C 159.973 152.926,160.662 153.893,164.311 157.981 C 174.623 169.528,182.738 172.782,195.589 170.525 L 200.025 169.746 203.940 170.455 C 214.950 172.451,221.534 170.771,229.851 163.843 C 233.294 160.974,239.890 153.614,240.178 152.319 C 241.834 144.867,244.479 139.404,248.324 135.494 C 249.994 133.796,252.046 134.299,252.046 136.407 C 252.046 137.068,251.775 137.539,250.435 139.208 C 246.586 144.001,244.365 149.726,243.528 157.010 C 243.284 159.127,242.870 162.200,242.335 165.848 C 241.332 172.683,240.128 177.266,237.862 182.870 C 237.001 184.999,236.744 186.198,236.820 187.727 C 236.957 190.461,237.823 190.781,243.746 190.290 C 247.750 189.958,248.845 190.091,252.710 191.383 C 257.168 192.874,266.230 193.316,266.230 192.043 C 266.230 191.603,265.198 191.108,263.284 190.630 C 258.246 189.370,248.206 182.942,247.076 180.251 C 246.641 179.215,246.840 176.225,247.468 174.359 C 247.982 172.833,248.893 170.376,249.208 169.667 C 249.314 169.427,249.707 168.494,250.080 167.594 C 250.990 165.396,251.061 165.248,255.051 157.119 C 259.135 148.799,260.058 146.840,261.423 143.590 C 261.800 142.690,262.197 141.757,262.303 141.517 C 262.854 140.276,263.833 137.584,264.366 135.843 C 264.697 134.763,265.102 133.486,265.267 133.006 C 268.891 122.436,260.676 112.803,251.604 116.985 C 249.953 117.745,249.925 117.798,250.408 119.222 C 251.557 122.606,251.984 127.439,251.325 129.588 C 249.470 135.627,244.907 136.621,231.642 133.879 C 231.067 133.760,230.802 133.906,229.460 135.082 C 225.972 138.138,221.052 143.009,218.344 146.087 C 214.431 150.535,214.144 150.717,212.806 149.591 C 211.249 148.281,211.851 147.123,216.980 141.557 C 219.153 139.198,219.030 139.555,218.369 137.526 C 217.410 134.586,216.927 132.614,216.780 131.042 L 216.637 129.514 213.992 128.660 C 212.538 128.189,210.807 127.619,210.147 127.393 C 209.487 127.167,208.505 126.845,207.965 126.678 C 204.160 125.501,202.377 124.643,201.044 123.347 L 200.084 122.414 198.842 123.485 C 197.199 124.901,196.108 125.413,191.817 126.780 C 189.836 127.411,187.136 128.291,185.816 128.735 L 183.415 129.543 183.257 131.117 C 183.103 132.648,182.112 136.715,181.787 137.152 C 180.836 138.429,181.078 139.442,182.757 141.223 C 188.198 146.992,188.996 148.544,187.118 149.704 C 185.852 150.486,185.347 150.214,182.934 147.447 C 181.765 146.106,180.609 144.806,180.366 144.560 C 180.123 144.313,179.177 143.331,178.265 142.377 C 174.947 138.909,169.366 133.770,168.918 133.770 C 168.820 133.770,167.279 134.082,165.494 134.464 C 162.499 135.105,161.918 135.160,157.992 135.173 L 153.737 135.188 152.646 134.568 C 148.397 132.155,147.228 126.403,149.578 119.480 C 150.124 117.874,150.067 117.738,148.554 117.015 C 146.211 115.894,144.472 115.671,142.259 116.209 M178.603 130.903 C 178.489 131.006,177.807 131.247,177.087 131.439 C 176.367 131.631,175.305 131.921,174.727 132.083 L 173.676 132.379 175.640 134.181 C 177.940 136.290,177.849 136.277,178.351 134.561 C 179.358 131.128,179.425 130.158,178.603 130.903 M220.935 131.664 C 221.015 132.162,221.328 133.385,221.631 134.382 C 222.260 136.446,222.067 136.440,224.110 134.455 C 224.772 133.811,225.535 133.137,225.805 132.957 C 226.352 132.591,226.449 132.242,226.005 132.242 C 225.744 132.242,224.628 131.930,221.743 131.049 L 220.791 130.758 220.935 131.664 " stroke="none" fill="#fbfbfb" fill-rule="evenodd"></path><path id="path2" d="M213.063 46.263 C 213.063 47.403,213.100 47.870,213.145 47.300 C 213.190 46.729,213.190 45.797,213.145 45.226 C 213.100 44.656,213.063 45.123,213.063 46.263 M186.867 46.263 C 186.867 47.043,186.907 47.362,186.955 46.972 C 187.004 46.582,187.004 45.944,186.955 45.554 C 186.907 45.164,186.867 45.483,186.867 46.263 M192.908 63.571 C 192.908 63.608,193.227 63.927,193.617 64.280 L 194.326 64.921 193.685 64.212 C 193.088 63.551,192.908 63.402,192.908 63.571 M210.217 67.212 C 210.217 67.992,210.257 68.312,210.305 67.921 C 210.354 67.531,210.354 66.893,210.305 66.503 C 210.257 66.113,210.217 66.432,210.217 67.212 M201.955 98.473 C 201.897 98.623,201.876 102.870,201.907 107.911 L 201.964 117.076 202.073 107.638 C 202.133 102.447,202.155 98.200,202.121 98.200 C 202.087 98.200,202.012 98.322,201.955 98.473 M170.707 116.469 C 171.038 116.519,171.529 116.517,171.798 116.466 C 172.066 116.414,171.795 116.373,171.195 116.374 C 170.595 116.376,170.375 116.418,170.707 116.469 M175.396 120.180 C 175.786 120.228,176.424 120.228,176.814 120.180 C 177.204 120.131,176.885 120.092,176.105 120.092 C 175.325 120.092,175.005 120.131,175.396 120.180 M223.956 120.182 C 224.530 120.228,225.414 120.227,225.920 120.181 C 226.427 120.136,225.957 120.099,224.877 120.099 C 223.797 120.100,223.383 120.137,223.956 120.182 M133.614 126.896 C 133.616 127.496,133.658 127.716,133.708 127.384 C 133.758 127.052,133.757 126.561,133.705 126.293 C 133.653 126.024,133.612 126.296,133.614 126.896 M148.441 126.568 C 148.441 126.989,148.486 127.160,148.541 126.950 C 148.596 126.740,148.596 126.397,148.541 126.187 C 148.486 125.977,148.441 126.148,148.441 126.568 M173.923 138.025 C 174.330 138.445,174.712 138.789,174.772 138.789 C 174.832 138.789,174.548 138.445,174.141 138.025 C 173.734 137.605,173.351 137.261,173.291 137.261 C 173.231 137.261,173.515 137.605,173.923 138.025 M224.864 139.062 L 224.223 139.771 224.932 139.130 C 225.593 138.532,225.741 138.352,225.573 138.352 C 225.535 138.352,225.216 138.672,224.864 139.062 M216.353 142.335 L 215.712 143.044 216.421 142.403 C 216.811 142.051,217.130 141.732,217.130 141.694 C 217.130 141.525,216.950 141.674,216.353 142.335 M165.630 159.806 C 165.630 159.844,165.949 160.163,166.339 160.516 L 167.049 161.157 166.408 160.447 C 165.810 159.786,165.630 159.638,165.630 159.806 M187.840 171.464 C 188.353 171.510,189.139 171.509,189.586 171.462 C 190.033 171.416,189.613 171.378,188.652 171.379 C 187.692 171.379,187.327 171.418,187.840 171.464 M210.535 171.464 C 211.048 171.510,211.834 171.509,212.281 171.462 C 212.728 171.416,212.308 171.378,211.348 171.379 C 210.387 171.379,210.022 171.418,210.535 171.464 M167.223 187.452 C 167.223 188.112,167.264 188.382,167.314 188.052 C 167.364 187.722,167.364 187.182,167.314 186.852 C 167.264 186.522,167.223 186.792,167.223 187.452 M246.102 190.225 C 246.373 190.277,246.766 190.275,246.975 190.221 C 247.183 190.166,246.961 190.124,246.481 190.126 C 246.001 190.128,245.830 190.173,246.102 190.225 M135.243 192.847 C 135.633 192.896,136.271 192.896,136.661 192.847 C 137.051 192.799,136.732 192.759,135.952 192.759 C 135.172 192.759,134.853 192.799,135.243 192.847 M138.298 192.849 C 138.808 192.895,139.643 192.895,140.153 192.849 C 140.663 192.803,140.245 192.766,139.225 192.766 C 138.205 192.766,137.788 192.803,138.298 192.849 M260.294 192.852 C 261.290 192.893,262.861 192.892,263.786 192.852 C 264.710 192.811,263.895 192.778,261.975 192.778 C 260.055 192.778,259.298 192.812,260.294 192.852 " stroke="none" fill="#989899" fill-rule="evenodd"></path><path id="path3" d="M199.177 26.562 C 199.564 26.611,200.252 26.611,200.704 26.564 C 201.157 26.517,200.840 26.477,200.000 26.476 C 199.160 26.475,198.789 26.514,199.177 26.562 M202.128 26.773 C 202.338 26.828,202.681 26.828,202.891 26.773 C 203.101 26.719,202.930 26.674,202.510 26.674 C 202.089 26.674,201.918 26.719,202.128 26.773 M211.238 31.097 C 211.890 31.757,212.473 32.297,212.533 32.297 C 212.593 32.297,212.109 31.757,211.457 31.097 C 210.805 30.436,210.222 29.896,210.162 29.896 C 210.102 29.896,210.586 30.436,211.238 31.097 M188.750 30.933 L 187.998 31.751 188.816 30.999 C 189.578 30.299,189.735 30.115,189.568 30.115 C 189.532 30.115,189.163 30.483,188.750 30.933 M191.263 33.661 L 190.180 34.806 191.326 33.723 C 192.390 32.717,192.571 32.515,192.409 32.515 C 192.374 32.515,191.859 33.031,191.263 33.661 M213.039 43.535 C 213.042 44.015,213.086 44.186,213.139 43.915 C 213.191 43.643,213.189 43.250,213.134 43.042 C 213.079 42.833,213.037 43.055,213.039 43.535 M186.857 44.081 C 186.857 44.621,186.900 44.842,186.952 44.572 C 187.004 44.302,187.004 43.860,186.952 43.590 C 186.900 43.320,186.857 43.541,186.857 44.081 M216.776 46.372 C 216.776 47.692,216.812 48.204,216.855 47.510 C 216.899 46.815,216.898 45.735,216.855 45.109 C 216.811 44.484,216.775 45.052,216.776 46.372 M183.168 46.372 C 183.168 47.572,183.205 48.035,183.249 47.401 C 183.293 46.767,183.293 45.785,183.248 45.219 C 183.203 44.653,183.167 45.172,183.168 46.372 M213.257 46.372 C 213.260 46.852,213.305 47.023,213.357 46.751 C 213.409 46.480,213.407 46.087,213.352 45.879 C 213.298 45.670,213.255 45.892,213.257 46.372 M186.860 48.554 C 186.862 49.154,186.904 49.374,186.954 49.042 C 187.004 48.711,187.003 48.220,186.951 47.951 C 186.899 47.683,186.858 47.954,186.860 48.554 M213.039 48.991 C 213.042 49.471,213.086 49.642,213.139 49.370 C 213.191 49.099,213.189 48.706,213.134 48.497 C 213.079 48.289,213.037 48.511,213.039 48.991 M185.504 58.592 C 185.504 58.712,185.644 59.056,185.816 59.356 C 185.987 59.656,186.127 59.804,186.127 59.684 C 186.127 59.564,185.987 59.220,185.816 58.920 C 185.644 58.620,185.504 58.472,185.504 58.592 M214.111 59.256 C 213.745 60.059,213.815 60.230,214.210 59.501 C 214.395 59.160,214.505 58.840,214.455 58.790 C 214.405 58.741,214.250 58.950,214.111 59.256 M189.924 67.321 C 189.925 68.161,189.965 68.478,190.012 68.026 C 190.059 67.573,190.058 66.886,190.010 66.498 C 189.962 66.111,189.923 66.481,189.924 67.321 M199.509 67.587 C 199.839 67.637,200.379 67.637,200.709 67.587 C 201.039 67.537,200.769 67.496,200.109 67.496 C 199.449 67.496,199.179 67.537,199.509 67.587 M210.202 69.285 C 210.205 69.765,210.249 69.936,210.302 69.665 C 210.354 69.393,210.352 69.000,210.297 68.792 C 210.243 68.583,210.200 68.805,210.202 69.285 M193.428 69.273 C 193.362 69.446,193.353 69.765,193.410 69.982 C 193.475 70.235,193.521 70.156,193.537 69.763 C 193.554 69.360,193.648 69.204,193.814 69.306 C 193.970 69.403,194.007 69.366,193.911 69.210 C 193.704 68.875,193.574 68.892,193.428 69.273 M199.839 71.295 C 200.110 71.347,200.503 71.345,200.712 71.290 C 200.920 71.236,200.698 71.193,200.218 71.195 C 199.738 71.198,199.567 71.242,199.839 71.295 M211.675 73.213 C 212.082 73.633,212.464 73.977,212.524 73.977 C 212.584 73.977,212.300 73.633,211.893 73.213 C 211.486 72.793,211.104 72.450,211.044 72.450 C 210.984 72.450,211.268 72.793,211.675 73.213 M190.824 75.777 L 189.962 76.705 190.889 75.842 C 191.399 75.368,191.817 74.950,191.817 74.915 C 191.817 74.750,191.627 74.915,190.824 75.777 M180.578 76.596 C 180.303 76.714,180.263 76.783,180.469 76.783 C 180.649 76.783,180.993 76.699,181.233 76.596 C 181.508 76.478,181.548 76.408,181.342 76.408 C 181.162 76.408,180.818 76.493,180.578 76.596 M171.031 79.339 C 170.215 79.782,170.265 79.966,171.086 79.542 C 171.446 79.356,171.740 79.157,171.740 79.100 C 171.740 78.959,171.717 78.967,171.031 79.339 M232.624 82.160 C 233.031 82.580,233.413 82.924,233.474 82.924 C 233.534 82.924,233.249 82.580,232.842 82.160 C 232.435 81.740,232.053 81.397,231.993 81.397 C 231.933 81.397,232.217 81.740,232.624 82.160 M226.096 82.133 C 226.320 82.334,227.605 82.924,227.605 82.826 C 227.605 82.701,226.395 82.051,226.161 82.051 C 226.075 82.051,226.046 82.088,226.096 82.133 M169.776 84.779 C 169.246 85.319,168.862 85.761,168.922 85.761 C 168.982 85.761,169.464 85.319,169.995 84.779 C 170.525 84.239,170.909 83.797,170.849 83.797 C 170.789 83.797,170.306 84.239,169.776 84.779 M162.174 90.462 C 161.808 91.265,161.878 91.436,162.273 90.706 C 162.458 90.366,162.568 90.046,162.518 89.996 C 162.469 89.946,162.314 90.156,162.174 90.462 M159.337 97.445 C 158.972 98.248,159.041 98.419,159.437 97.689 C 159.621 97.349,159.731 97.029,159.682 96.979 C 159.632 96.929,159.477 97.139,159.337 97.445 M197.844 98.102 C 197.770 98.294,197.806 98.384,197.927 98.309 C 198.065 98.224,198.162 101.540,198.200 107.626 L 198.259 117.076 198.311 107.420 C 198.359 98.640,198.275 96.977,197.844 98.102 M241.150 98.745 C 241.150 98.865,241.291 99.209,241.462 99.509 C 241.634 99.809,241.774 99.956,241.774 99.836 C 241.774 99.716,241.634 99.373,241.462 99.073 C 241.291 98.773,241.150 98.625,241.150 98.745 M237.222 98.963 C 237.222 99.083,237.363 99.427,237.534 99.727 C 237.706 100.027,237.846 100.175,237.846 100.055 C 237.846 99.935,237.706 99.591,237.534 99.291 C 237.363 98.991,237.222 98.843,237.222 98.963 M157.447 101.473 C 157.261 101.833,157.157 102.128,157.217 102.128 C 157.277 102.128,157.479 101.833,157.665 101.473 C 157.851 101.113,157.954 100.818,157.894 100.818 C 157.834 100.818,157.633 101.113,157.447 101.473 M156.617 103.112 C 156.417 103.531,156.299 103.873,156.354 103.873 C 156.503 103.873,157.165 102.537,157.066 102.437 C 157.018 102.390,156.816 102.694,156.617 103.112 M201.715 106.710 C 201.715 107.851,201.752 108.317,201.797 107.747 C 201.842 107.177,201.842 106.244,201.797 105.674 C 201.752 105.104,201.715 105.570,201.715 106.710 M154.610 107.147 C 154.424 107.507,154.320 107.801,154.380 107.801 C 154.441 107.801,154.642 107.507,154.828 107.147 C 155.014 106.787,155.118 106.492,155.058 106.492 C 154.998 106.492,154.796 106.787,154.610 107.147 M225.562 108.826 C 225.486 108.902,225.430 109.121,225.438 109.311 C 225.449 109.560,225.501 109.535,225.623 109.221 C 225.778 108.824,225.825 108.848,226.159 109.494 C 226.360 109.883,226.574 110.202,226.634 110.202 C 226.788 110.202,226.121 108.945,225.891 108.803 C 225.787 108.739,225.639 108.749,225.562 108.826 M205.401 110.311 C 205.404 110.791,205.449 110.962,205.501 110.690 C 205.553 110.419,205.551 110.026,205.496 109.817 C 205.442 109.609,205.399 109.831,205.401 110.311 M201.722 113.039 C 201.722 114.659,201.756 115.322,201.798 114.512 C 201.840 113.702,201.840 112.376,201.798 111.566 C 201.756 110.756,201.722 111.418,201.722 113.039 M194.490 111.184 C 194.493 111.664,194.537 111.835,194.590 111.563 C 194.642 111.292,194.640 110.899,194.585 110.690 C 194.531 110.482,194.488 110.704,194.490 111.184 M156.718 111.193 C 156.353 111.996,156.423 112.167,156.818 111.437 C 157.003 111.097,157.113 110.777,157.063 110.727 C 157.013 110.677,156.858 110.887,156.718 111.193 M205.615 112.166 C 205.615 112.586,205.660 112.758,205.715 112.548 C 205.770 112.338,205.770 111.994,205.715 111.784 C 205.660 111.574,205.615 111.746,205.615 112.166 M143.530 112.105 C 143.918 112.153,144.605 112.154,145.058 112.107 C 145.511 112.060,145.194 112.020,144.354 112.019 C 143.513 112.018,143.143 112.057,143.530 112.105 M255.046 112.105 C 255.436 112.154,256.075 112.154,256.465 112.105 C 256.855 112.057,256.536 112.017,255.756 112.017 C 254.975 112.017,254.656 112.057,255.046 112.105 M252.810 112.394 C 252.505 112.532,252.638 112.552,253.246 112.459 C 253.726 112.386,254.160 112.290,254.210 112.246 C 254.397 112.081,253.229 112.204,252.810 112.394 M155.846 113.157 C 155.480 113.960,155.550 114.131,155.945 113.401 C 156.130 113.061,156.240 112.741,156.190 112.691 C 156.140 112.641,155.985 112.851,155.846 113.157 M265.685 116.748 C 266.397 117.469,267.029 118.058,267.089 118.058 C 267.149 118.058,266.616 117.469,265.903 116.748 C 265.190 116.028,264.558 115.439,264.498 115.439 C 264.438 115.439,264.972 116.028,265.685 116.748 M134.305 116.585 L 133.442 117.512 134.370 116.650 C 135.232 115.847,135.398 115.657,135.233 115.657 C 135.197 115.657,134.780 116.075,134.305 116.585 M176.541 115.977 C 176.541 116.232,176.091 116.311,174.304 116.368 L 172.068 116.438 174.414 116.484 C 176.629 116.528,176.759 116.506,176.759 116.094 C 176.759 115.854,176.710 115.657,176.650 115.657 C 176.590 115.657,176.541 115.801,176.541 115.977 M182.381 116.030 C 182.653 116.082,183.045 116.080,183.254 116.026 C 183.463 115.971,183.241 115.928,182.761 115.931 C 182.280 115.933,182.110 115.978,182.381 116.030 M192.241 116.694 L 191.489 117.512 192.308 116.760 C 193.069 116.060,193.226 115.876,193.060 115.876 C 193.023 115.876,192.655 116.244,192.241 116.694 M216.748 116.026 C 216.959 116.081,217.302 116.081,217.512 116.026 C 217.722 115.971,217.550 115.926,217.130 115.926 C 216.710 115.926,216.538 115.971,216.748 116.026 M218.767 116.094 L 218.112 116.260 218.700 116.286 C 219.023 116.300,219.348 116.214,219.422 116.094 C 219.496 115.974,219.526 115.887,219.489 115.901 C 219.452 115.916,219.127 116.002,218.767 116.094 M223.244 116.148 C 223.241 116.495,223.505 116.526,226.132 116.483 L 229.023 116.436 226.304 116.367 C 224.472 116.320,223.530 116.211,223.416 116.032 C 223.299 115.848,223.246 115.884,223.244 116.148 M252.755 116.101 C 252.024 116.394,252.161 116.544,252.919 116.279 C 253.279 116.154,253.573 116.012,253.573 115.963 C 253.573 115.834,253.308 115.878,252.755 116.101 M160.558 118.112 C 160.275 118.382,160.196 118.494,160.382 118.361 C 160.568 118.228,160.917 118.010,161.157 117.877 C 161.397 117.744,161.476 117.632,161.332 117.628 C 161.189 117.624,160.841 117.842,160.558 118.112 M238.843 117.877 C 239.083 118.010,239.432 118.228,239.618 118.361 C 239.804 118.494,239.725 118.382,239.442 118.112 C 239.159 117.842,238.811 117.624,238.668 117.628 C 238.524 117.632,238.603 117.744,238.843 117.877 M159.789 119.585 C 159.789 120.005,159.834 120.177,159.889 119.967 C 159.943 119.757,159.943 119.414,159.889 119.203 C 159.834 118.993,159.789 119.165,159.789 119.585 M181.508 119.740 C 181.780 119.792,182.173 119.790,182.381 119.735 C 182.590 119.681,182.368 119.638,181.888 119.640 C 181.408 119.643,181.237 119.688,181.508 119.740 M203.382 120.349 C 203.790 120.769,204.172 121.113,204.232 121.113 C 204.292 121.113,204.008 120.769,203.601 120.349 C 203.194 119.929,202.811 119.585,202.751 119.585 C 202.691 119.585,202.975 119.929,203.382 120.349 M218.058 119.736 C 218.268 119.791,218.612 119.791,218.822 119.736 C 219.032 119.681,218.860 119.636,218.440 119.636 C 218.020 119.636,217.848 119.681,218.058 119.736 M177.584 119.964 C 178.097 120.010,178.882 120.009,179.329 119.962 C 179.776 119.915,179.356 119.878,178.396 119.878 C 177.436 119.879,177.070 119.918,177.584 119.964 M221.120 119.964 C 221.693 120.009,222.577 120.009,223.084 119.963 C 223.590 119.917,223.121 119.880,222.040 119.881 C 220.960 119.882,220.546 119.919,221.120 119.964 M170.059 120.184 C 170.995 120.225,172.468 120.225,173.332 120.184 C 174.197 120.142,173.432 120.109,171.631 120.109 C 169.831 120.109,169.123 120.143,170.059 120.184 M227.995 120.184 C 228.750 120.226,229.929 120.226,230.614 120.183 C 231.300 120.140,230.682 120.105,229.242 120.105 C 227.801 120.106,227.241 120.141,227.995 120.184 M269.534 123.077 C 269.534 123.257,269.619 123.601,269.722 123.841 C 269.840 124.116,269.909 124.156,269.909 123.950 C 269.909 123.770,269.825 123.426,269.722 123.186 C 269.604 122.911,269.534 122.871,269.534 123.077 M247.755 126.350 C 247.755 127.250,247.793 127.619,247.840 127.169 C 247.887 126.718,247.887 125.982,247.840 125.532 C 247.793 125.082,247.755 125.450,247.755 126.350 M152.168 126.459 C 152.169 127.179,152.210 127.448,152.259 127.056 C 152.307 126.663,152.306 126.074,152.256 125.746 C 152.207 125.418,152.167 125.739,152.168 126.459 M216.367 125.477 C 216.607 125.581,216.950 125.665,217.130 125.665 C 217.337 125.665,217.296 125.596,217.021 125.477 C 216.781 125.374,216.438 125.290,216.258 125.290 C 216.051 125.290,216.092 125.359,216.367 125.477 M179.924 126.467 C 179.378 126.730,179.360 126.760,179.815 126.649 C 180.433 126.498,181.128 126.144,180.797 126.149 C 180.676 126.150,180.284 126.294,179.924 126.467 M173.813 128.314 C 173.538 128.432,173.498 128.502,173.704 128.502 C 173.884 128.502,174.228 128.417,174.468 128.314 C 174.743 128.196,174.784 128.127,174.577 128.127 C 174.397 128.127,174.053 128.211,173.813 128.314 M225.532 128.314 C 225.772 128.417,226.116 128.502,226.296 128.502 C 226.502 128.502,226.462 128.432,226.187 128.314 C 225.947 128.211,225.603 128.127,225.423 128.127 C 225.216 128.127,225.257 128.196,225.532 128.314 M246.969 129.680 L 246.584 130.387 247.024 129.872 C 247.398 129.434,247.598 128.966,247.409 128.970 C 247.379 128.971,247.181 129.290,246.969 129.680 M183.172 129.502 C 183.105 129.675,183.089 129.994,183.136 130.211 C 183.190 130.457,183.264 130.339,183.335 129.896 C 183.454 129.153,183.377 128.967,183.172 129.502 M216.963 130.933 C 216.963 131.353,217.008 131.525,217.063 131.315 C 217.117 131.105,217.117 130.761,217.063 130.551 C 217.008 130.341,216.963 130.513,216.963 130.933 M178.983 130.644 C 179.185 130.698,179.395 130.907,179.448 131.110 C 179.517 131.371,179.553 131.335,179.571 130.987 C 179.590 130.609,179.483 130.502,179.105 130.522 C 178.757 130.540,178.722 130.575,178.983 130.644 M134.019 131.151 C 134.019 131.331,134.103 131.675,134.206 131.915 C 134.324 132.190,134.394 132.230,134.394 132.024 C 134.394 131.844,134.309 131.500,134.206 131.260 C 134.088 130.985,134.019 130.945,134.019 131.151 M249.222 132.743 C 248.305 133.818,248.297 133.838,249.077 133.115 C 249.767 132.474,250.474 131.563,250.253 131.597 C 250.219 131.603,249.755 132.118,249.222 132.743 M150.355 132.529 C 150.355 132.566,150.674 132.885,151.064 133.238 L 151.773 133.879 151.132 133.170 C 150.535 132.509,150.355 132.360,150.355 132.529 M225.303 133.606 L 224.441 134.534 225.368 133.671 C 226.231 132.869,226.396 132.679,226.231 132.679 C 226.195 132.679,225.778 133.096,225.303 133.606 M268.755 134.331 C 268.675 134.651,268.652 134.954,268.703 135.006 C 268.754 135.057,268.862 134.838,268.942 134.518 C 269.023 134.198,269.046 133.894,268.995 133.843 C 268.943 133.792,268.836 134.011,268.755 134.331 M165.303 134.206 C 164.747 134.445,165.320 134.445,166.067 134.206 C 166.505 134.066,166.527 134.030,166.176 134.025 C 165.936 134.022,165.543 134.103,165.303 134.206 M176.432 135.297 C 177.023 135.897,177.556 136.388,177.616 136.388 C 177.676 136.388,177.241 135.897,176.650 135.297 C 176.059 134.697,175.526 134.206,175.466 134.206 C 175.406 134.206,175.841 134.697,176.432 135.297 M217.598 134.424 C 217.598 134.604,217.682 134.948,217.785 135.188 C 217.903 135.463,217.973 135.504,217.973 135.297 C 217.973 135.117,217.888 134.774,217.785 134.534 C 217.667 134.258,217.598 134.218,217.598 134.424 M182.121 134.986 C 182.041 135.305,182.018 135.609,182.069 135.661 C 182.120 135.712,182.228 135.492,182.308 135.173 C 182.389 134.853,182.412 134.549,182.361 134.498 C 182.309 134.446,182.202 134.666,182.121 134.986 M228.792 135.352 L 228.151 136.061 228.860 135.420 C 229.521 134.823,229.669 134.643,229.501 134.643 C 229.463 134.643,229.144 134.962,228.792 135.352 M248.820 135.243 C 248.298 135.753,248.289 135.778,248.762 135.410 C 249.693 134.684,249.738 134.643,249.583 134.643 C 249.501 134.643,249.158 134.913,248.820 135.243 M160.447 135.011 C 160.657 135.066,161.001 135.066,161.211 135.011 C 161.421 134.956,161.249 134.912,160.829 134.912 C 160.409 134.912,160.237 134.956,160.447 135.011 M238.901 135.015 C 239.172 135.067,239.565 135.065,239.773 135.011 C 239.982 134.956,239.760 134.913,239.280 134.916 C 238.800 134.918,238.629 134.963,238.901 135.015 M251.483 135.291 C 251.883 135.917,251.924 136.654,251.597 137.330 C 251.375 137.791,251.379 137.792,251.706 137.383 C 252.179 136.793,252.130 135.877,251.592 135.267 L 251.138 134.752 251.483 135.291 M156.083 135.240 C 156.773 135.284,157.902 135.284,158.592 135.240 C 159.283 135.197,158.718 135.162,157.338 135.162 C 155.957 135.162,155.393 135.197,156.083 135.240 M241.517 135.240 C 242.147 135.284,243.178 135.284,243.808 135.240 C 244.438 135.196,243.923 135.160,242.662 135.160 C 241.402 135.160,240.887 135.196,241.517 135.240 M172.286 136.388 C 172.755 136.869,173.187 137.261,173.247 137.261 C 173.307 137.261,172.973 136.869,172.504 136.388 C 172.035 135.908,171.603 135.516,171.543 135.516 C 171.483 135.516,171.817 135.908,172.286 136.388 M226.395 137.534 L 225.532 138.462 226.459 137.599 C 226.969 137.124,227.387 136.707,227.387 136.671 C 227.387 136.506,227.197 136.672,226.395 137.534 M218.565 137.698 C 218.645 137.998,218.802 138.391,218.913 138.571 C 219.054 138.798,219.071 138.732,218.969 138.352 C 218.889 138.052,218.732 137.660,218.621 137.480 C 218.481 137.252,218.463 137.319,218.565 137.698 M250.288 138.953 L 249.536 139.771 250.355 139.019 C 251.116 138.319,251.273 138.134,251.107 138.134 C 251.070 138.134,250.702 138.502,250.288 138.953 M177.087 140.971 C 178.523 142.411,179.748 143.590,179.808 143.590 C 179.868 143.590,178.741 142.411,177.305 140.971 C 175.868 139.531,174.644 138.352,174.584 138.352 C 174.524 138.352,175.650 139.531,177.087 140.971 M132.804 139.662 C 132.884 139.962,133.041 140.355,133.152 140.535 C 133.292 140.762,133.310 140.696,133.208 140.316 C 133.128 140.016,132.971 139.624,132.860 139.444 C 132.720 139.216,132.702 139.283,132.804 139.662 M222.254 141.462 L 220.076 143.699 222.313 141.521 C 224.391 139.498,224.649 139.225,224.491 139.225 C 224.459 139.225,223.452 140.232,222.254 141.462 M218.003 140.644 C 217.473 141.184,217.089 141.626,217.149 141.626 C 217.209 141.626,217.691 141.184,218.221 140.644 C 218.752 140.104,219.136 139.662,219.076 139.662 C 219.016 139.662,218.533 140.104,218.003 140.644 M182.542 141.408 C 183.133 142.008,183.666 142.499,183.726 142.499 C 183.786 142.499,183.352 142.008,182.761 141.408 C 182.169 140.807,181.637 140.316,181.577 140.316 C 181.517 140.316,181.951 140.807,182.542 141.408 M215.483 143.426 L 214.621 144.354 215.548 143.491 C 216.411 142.689,216.576 142.499,216.411 142.499 C 216.375 142.499,215.958 142.916,215.483 143.426 M218.972 144.954 L 218.331 145.663 219.040 145.022 C 219.430 144.669,219.749 144.350,219.749 144.313 C 219.749 144.144,219.569 144.293,218.972 144.954 M260.155 146.763 C 259.790 147.566,259.860 147.737,260.255 147.007 C 260.440 146.667,260.550 146.347,260.500 146.297 C 260.450 146.247,260.295 146.457,260.155 146.763 M187.631 147.862 C 187.684 148.317,187.576 148.847,187.354 149.211 L 186.990 149.809 187.439 149.294 C 187.883 148.785,188.063 147.433,187.716 147.219 C 187.621 147.160,187.583 147.449,187.631 147.862 M158.459 147.736 C 158.459 147.916,158.544 148.260,158.647 148.500 C 158.765 148.775,158.835 148.815,158.835 148.609 C 158.835 148.429,158.750 148.085,158.647 147.845 C 158.529 147.570,158.459 147.530,158.459 147.736 M241.259 148.297 C 241.179 148.617,241.156 148.921,241.207 148.972 C 241.258 149.024,241.366 148.804,241.446 148.484 C 241.527 148.164,241.550 147.861,241.499 147.809 C 241.447 147.758,241.340 147.977,241.259 148.297 M140.332 148.063 C 140.332 148.183,140.472 148.527,140.644 148.827 C 140.815 149.127,140.956 149.274,140.956 149.154 C 140.956 149.034,140.815 148.691,140.644 148.391 C 140.472 148.091,140.332 147.943,140.332 148.063 M184.397 148.936 C 184.804 149.356,185.187 149.700,185.247 149.700 C 185.307 149.700,185.023 149.356,184.615 148.936 C 184.208 148.516,183.826 148.172,183.766 148.172 C 183.706 148.172,183.990 148.516,184.397 148.936 M262.183 151.030 C 261.991 151.401,261.872 151.743,261.920 151.791 C 261.967 151.838,262.169 151.534,262.369 151.116 C 262.817 150.175,262.662 150.103,262.183 151.030 M138.722 153.298 C 138.922 153.716,139.124 154.020,139.171 153.973 C 139.271 153.873,138.609 152.537,138.459 152.537 C 138.404 152.537,138.523 152.879,138.722 153.298 M143.481 154.719 C 143.667 155.079,143.868 155.374,143.928 155.374 C 143.988 155.374,143.885 155.079,143.699 154.719 C 143.513 154.359,143.311 154.064,143.251 154.064 C 143.191 154.064,143.294 154.359,143.481 154.719 M259.356 156.901 C 259.170 157.261,259.067 157.556,259.127 157.556 C 259.187 157.556,259.388 157.261,259.574 156.901 C 259.761 156.541,259.864 156.247,259.804 156.247 C 259.744 156.247,259.542 156.541,259.356 156.901 M164.321 158.497 C 164.321 158.535,164.640 158.854,165.030 159.206 L 165.739 159.847 165.098 159.138 C 164.501 158.477,164.321 158.328,164.321 158.497 M233.267 160.993 L 232.515 161.811 233.333 161.059 C 234.095 160.359,234.252 160.175,234.085 160.175 C 234.049 160.175,233.681 160.543,233.267 160.993 M257.392 160.829 C 257.206 161.189,257.103 161.484,257.163 161.484 C 257.223 161.484,257.424 161.189,257.610 160.829 C 257.797 160.469,257.900 160.175,257.840 160.175 C 257.780 160.175,257.578 160.469,257.392 160.829 M168.031 162.248 C 168.682 162.908,169.265 163.448,169.325 163.448 C 169.385 163.448,168.901 162.908,168.249 162.248 C 167.597 161.588,167.014 161.047,166.954 161.047 C 166.894 161.047,167.379 161.588,168.031 162.248 M252.518 162.475 C 252.152 163.278,252.222 163.449,252.617 162.719 C 252.802 162.379,252.912 162.059,252.862 162.009 C 252.812 161.959,252.657 162.169,252.518 162.475 M256.509 162.595 C 256.317 162.967,256.199 163.309,256.246 163.356 C 256.293 163.404,256.495 163.100,256.695 162.681 C 257.144 161.740,256.988 161.668,256.509 162.595 M235.347 163.939 L 233.606 165.739 235.406 163.999 C 237.079 162.382,237.306 162.139,237.147 162.139 C 237.114 162.139,236.304 162.949,235.347 163.939 M230.430 163.612 L 229.678 164.430 230.496 163.678 C 231.258 162.978,231.415 162.793,231.248 162.793 C 231.212 162.793,230.844 163.161,230.430 163.612 M164.757 164.212 C 165.409 164.872,165.992 165.412,166.052 165.412 C 166.112 165.412,165.627 164.872,164.975 164.212 C 164.324 163.552,163.741 163.011,163.681 163.011 C 163.621 163.011,164.105 163.552,164.757 164.212 M253.609 168.804 C 253.243 169.606,253.313 169.777,253.708 169.048 C 253.893 168.707,254.003 168.388,253.953 168.338 C 253.903 168.288,253.748 168.497,253.609 168.804 M199.727 170.145 C 199.937 170.200,200.281 170.200,200.491 170.145 C 200.701 170.090,200.529 170.045,200.109 170.045 C 199.689 170.045,199.517 170.090,199.727 170.145 M252.689 171.007 C 252.569 171.324,252.511 171.623,252.560 171.673 C 252.610 171.722,252.754 171.463,252.882 171.097 C 253.166 170.283,252.995 170.203,252.689 171.007 M185.979 171.454 C 186.189 171.509,186.533 171.509,186.743 171.454 C 186.953 171.399,186.781 171.355,186.361 171.355 C 185.941 171.355,185.769 171.399,185.979 171.454 M190.562 171.454 C 190.772 171.509,191.116 171.509,191.326 171.454 C 191.536 171.399,191.364 171.355,190.944 171.355 C 190.524 171.355,190.352 171.399,190.562 171.454 M208.674 171.454 C 208.884 171.509,209.228 171.509,209.438 171.454 C 209.648 171.399,209.476 171.355,209.056 171.355 C 208.636 171.355,208.464 171.399,208.674 171.454 M213.257 171.454 C 213.467 171.509,213.811 171.509,214.021 171.454 C 214.231 171.399,214.059 171.355,213.639 171.355 C 213.219 171.355,213.047 171.399,213.257 171.454 M188.273 171.676 C 188.545 171.729,188.937 171.727,189.146 171.672 C 189.355 171.617,189.133 171.575,188.652 171.577 C 188.172 171.580,188.002 171.624,188.273 171.676 M210.966 171.676 C 211.236 171.728,211.678 171.728,211.948 171.676 C 212.218 171.624,211.997 171.582,211.457 171.582 C 210.917 171.582,210.696 171.624,210.966 171.676 M178.723 173.449 C 178.903 173.561,179.296 173.717,179.596 173.797 C 179.975 173.899,180.042 173.882,179.815 173.741 C 179.634 173.630,179.242 173.473,178.942 173.393 C 178.562 173.292,178.496 173.309,178.723 173.449 M182.433 174.577 C 182.733 174.673,183.175 174.752,183.415 174.752 C 183.761 174.752,183.738 174.716,183.306 174.577 C 183.006 174.481,182.564 174.402,182.324 174.402 C 181.978 174.402,182.001 174.439,182.433 174.577 M187.405 175.175 C 188.039 175.219,189.021 175.219,189.587 175.174 C 190.153 175.129,189.634 175.093,188.434 175.093 C 187.234 175.094,186.771 175.131,187.405 175.175 M210.428 175.175 C 211.123 175.219,212.203 175.218,212.828 175.174 C 213.454 175.130,212.886 175.095,211.566 175.095 C 210.245 175.096,209.734 175.132,210.428 175.175 M153.036 178.396 C 153.037 178.996,153.080 179.216,153.130 178.884 C 153.180 178.552,153.179 178.061,153.127 177.793 C 153.075 177.525,153.034 177.796,153.036 178.396 M246.868 178.287 C 246.868 178.827,246.911 179.048,246.963 178.778 C 247.015 178.508,247.015 178.066,246.963 177.796 C 246.911 177.526,246.868 177.747,246.868 178.287 M250.518 178.165 C 250.518 178.578,250.594 178.963,250.686 179.020 C 250.778 179.076,250.817 178.739,250.772 178.269 C 250.672 177.213,250.518 177.151,250.518 178.165 M151.434 181.942 L 150.682 182.761 151.500 182.008 C 152.262 181.309,152.419 181.124,152.252 181.124 C 152.216 181.124,151.848 181.492,151.434 181.942 M247.681 181.192 C 247.681 181.230,248.001 181.549,248.391 181.901 L 249.100 182.542 248.459 181.833 C 247.861 181.172,247.681 181.024,247.681 181.192 M166.990 185.925 C 166.990 186.345,167.035 186.517,167.090 186.307 C 167.145 186.097,167.145 185.753,167.090 185.543 C 167.035 185.333,166.990 185.505,166.990 185.925 M232.919 187.452 C 232.919 188.472,232.956 188.890,233.002 188.380 C 233.048 187.870,233.048 187.035,233.002 186.525 C 232.956 186.015,232.919 186.432,232.919 187.452 M236.393 187.452 C 236.393 187.992,236.436 188.213,236.488 187.943 C 236.540 187.673,236.540 187.231,236.488 186.961 C 236.436 186.691,236.393 186.912,236.393 187.452 M133.442 187.569 C 132.897 187.832,132.879 187.862,133.333 187.751 C 133.952 187.600,134.647 187.246,134.315 187.251 C 134.195 187.252,133.803 187.396,133.442 187.569 M236.553 188.947 C 236.552 189.389,237.977 190.727,238.440 190.717 C 238.699 190.712,238.591 190.599,238.139 190.402 C 237.751 190.234,237.236 189.771,236.994 189.374 C 236.752 188.977,236.553 188.785,236.553 188.947 M151.828 190.443 C 152.098 190.495,152.540 190.495,152.810 190.443 C 153.080 190.391,152.859 190.349,152.319 190.349 C 151.779 190.349,151.558 190.391,151.828 190.443 M154.340 190.446 C 154.672 190.496,155.163 190.495,155.431 190.443 C 155.700 190.391,155.428 190.350,154.828 190.352 C 154.228 190.353,154.008 190.396,154.340 190.446 M244.572 190.443 C 244.842 190.495,245.284 190.495,245.554 190.443 C 245.824 190.391,245.603 190.349,245.063 190.349 C 244.523 190.349,244.302 190.391,244.572 190.443 M247.518 190.440 C 247.728 190.494,248.071 190.494,248.282 190.440 C 248.492 190.385,248.320 190.340,247.900 190.340 C 247.480 190.340,247.308 190.385,247.518 190.440 M156.519 190.658 C 156.729 190.713,157.073 190.713,157.283 190.658 C 157.493 190.603,157.321 190.558,156.901 190.558 C 156.481 190.558,156.309 190.603,156.519 190.658 M242.717 190.658 C 242.927 190.713,243.271 190.713,243.481 190.658 C 243.691 190.603,243.519 190.558,243.099 190.558 C 242.679 190.558,242.507 190.603,242.717 190.658 M159.247 190.880 C 159.517 190.932,159.959 190.932,160.229 190.880 C 160.499 190.828,160.278 190.785,159.738 190.785 C 159.198 190.785,158.977 190.828,159.247 190.880 M129.901 192.035 C 129.901 192.575,129.944 192.796,129.996 192.526 C 130.048 192.256,130.048 191.814,129.996 191.544 C 129.944 191.274,129.901 191.495,129.901 192.035 M165.289 192.526 L 164.648 193.235 165.357 192.594 C 165.747 192.242,166.067 191.923,166.067 191.885 C 166.067 191.716,165.886 191.865,165.289 192.526 M145.008 192.253 C 144.733 192.371,144.693 192.441,144.899 192.441 C 145.079 192.441,145.423 192.356,145.663 192.253 C 145.938 192.135,145.978 192.066,145.772 192.066 C 145.592 192.066,145.248 192.150,145.008 192.253 M141.356 192.844 C 141.627 192.896,142.020 192.894,142.228 192.840 C 142.437 192.785,142.215 192.742,141.735 192.745 C 141.255 192.747,141.084 192.792,141.356 192.844 M257.556 192.840 C 257.766 192.895,258.110 192.895,258.320 192.840 C 258.530 192.785,258.358 192.740,257.938 192.740 C 257.518 192.740,257.346 192.785,257.556 192.840 M269.613 193.779 C 269.532 194.036,269.158 194.608,268.783 195.050 C 268.143 195.804,268.139 195.820,268.714 195.308 C 269.354 194.739,270.049 193.598,269.867 193.417 C 269.809 193.359,269.695 193.522,269.613 193.779 M152.923 193.939 C 153.315 193.987,153.904 193.986,154.232 193.937 C 154.560 193.887,154.239 193.847,153.519 193.848 C 152.799 193.850,152.530 193.890,152.923 193.939 M245.881 193.939 C 246.271 193.987,246.909 193.987,247.300 193.939 C 247.690 193.890,247.370 193.851,246.590 193.851 C 245.810 193.851,245.491 193.890,245.881 193.939 M156.083 194.149 C 156.293 194.204,156.637 194.204,156.847 194.149 C 157.057 194.094,156.885 194.050,156.465 194.050 C 156.045 194.050,155.873 194.094,156.083 194.149 M158.708 194.378 C 159.282 194.423,160.166 194.422,160.672 194.377 C 161.179 194.331,160.709 194.294,159.629 194.295 C 158.549 194.295,158.134 194.333,158.708 194.378 M239.444 194.378 C 240.014 194.422,240.947 194.422,241.517 194.378 C 242.087 194.333,241.620 194.296,240.480 194.296 C 239.340 194.296,238.873 194.333,239.444 194.378 M135.996 196.562 C 137.040 196.602,138.807 196.602,139.923 196.562 C 141.040 196.522,140.185 196.490,138.025 196.490 C 135.865 196.489,134.951 196.522,135.996 196.562 M259.847 196.562 C 260.957 196.602,262.774 196.602,263.884 196.562 C 264.995 196.522,264.086 196.490,261.866 196.490 C 259.645 196.490,258.737 196.522,259.847 196.562 " stroke="none" fill="#737474" fill-rule="evenodd"></path><path id="path4" d="M211.238 30.878 C 211.890 31.538,212.473 32.079,212.533 32.079 C 212.593 32.079,212.109 31.538,211.457 30.878 C 210.805 30.218,210.222 29.678,210.162 29.678 C 210.102 29.678,210.586 30.218,211.238 30.878 M199.512 30.271 C 199.844 30.321,200.335 30.320,200.603 30.268 C 200.872 30.216,200.600 30.175,200.000 30.177 C 199.400 30.179,199.180 30.221,199.512 30.271 M191.263 33.879 L 190.180 35.025 191.326 33.942 C 192.390 32.935,192.571 32.733,192.409 32.733 C 192.374 32.733,191.859 33.249,191.263 33.879 M216.745 42.771 C 216.745 43.191,216.789 43.363,216.844 43.153 C 216.899 42.943,216.899 42.600,216.844 42.390 C 216.789 42.179,216.745 42.351,216.745 42.771 M216.992 46.372 C 216.992 47.572,217.029 48.035,217.073 47.401 C 217.118 46.767,217.117 45.785,217.072 45.219 C 217.027 44.653,216.991 45.172,216.992 46.372 M182.947 46.372 C 182.946 47.452,182.983 47.922,183.029 47.415 C 183.075 46.909,183.075 46.025,183.030 45.451 C 182.985 44.877,182.948 45.292,182.947 46.372 M183.138 49.973 C 183.138 50.393,183.183 50.565,183.238 50.355 C 183.293 50.145,183.293 49.801,183.238 49.591 C 183.183 49.381,183.138 49.553,183.138 49.973 M216.745 50.191 C 216.745 50.611,216.789 50.783,216.844 50.573 C 216.899 50.363,216.899 50.019,216.844 49.809 C 216.789 49.599,216.745 49.771,216.745 50.191 M189.633 67.386 L 189.740 69.285 189.806 67.560 C 189.842 66.611,189.794 65.757,189.699 65.661 C 189.603 65.565,189.574 66.341,189.633 67.386 M199.404 67.370 C 199.796 67.419,200.385 67.418,200.713 67.368 C 201.041 67.318,200.720 67.279,200.000 67.280 C 199.280 67.281,199.012 67.322,199.404 67.370 M169.765 85.052 L 169.013 85.870 169.831 85.118 C 170.593 84.418,170.750 84.233,170.583 84.233 C 170.546 84.233,170.178 84.602,169.765 85.052 M177.432 96.302 C 177.482 96.338,177.818 96.540,178.178 96.751 L 178.833 97.134 178.317 96.685 C 178.034 96.438,177.698 96.236,177.572 96.236 C 177.445 96.236,177.382 96.265,177.432 96.302 M197.874 99.454 C 198.008 100.858,198.094 100.972,198.120 99.782 C 198.134 99.152,198.067 98.636,197.971 98.636 C 197.875 98.636,197.831 99.004,197.874 99.454 M198.025 109.220 C 198.025 113.421,198.055 115.108,198.090 112.970 C 198.126 110.832,198.126 107.395,198.090 105.332 C 198.054 103.270,198.025 105.019,198.025 109.220 M222.740 103.012 C 222.808 103.546,222.900 104.023,222.943 104.073 C 223.121 104.278,223.000 102.649,222.816 102.357 C 222.686 102.153,222.660 102.384,222.740 103.012 M209.107 109.765 C 209.107 110.185,209.152 110.357,209.207 110.147 C 209.262 109.937,209.262 109.594,209.207 109.384 C 209.152 109.173,209.107 109.345,209.107 109.765 M265.139 115.985 C 265.546 116.405,265.928 116.748,265.989 116.748 C 266.049 116.748,265.764 116.405,265.357 115.985 C 264.950 115.565,264.568 115.221,264.508 115.221 C 264.448 115.221,264.732 115.565,265.139 115.985 M134.089 116.585 L 133.006 117.730 134.152 116.648 C 135.216 115.641,135.397 115.439,135.235 115.439 C 135.200 115.439,134.685 115.955,134.089 116.585 M176.323 115.870 C 176.323 115.994,175.036 116.110,173.213 116.149 L 170.104 116.216 173.322 116.264 C 176.059 116.305,176.541 116.263,176.541 115.985 C 176.541 115.805,176.492 115.657,176.432 115.657 C 176.372 115.657,176.323 115.753,176.323 115.870 M192.460 116.694 L 191.708 117.512 192.526 116.760 C 193.288 116.060,193.445 115.876,193.278 115.876 C 193.241 115.876,192.873 116.244,192.460 116.694 M223.459 116.148 C 223.459 116.238,224.883 116.312,226.623 116.312 C 228.363 116.312,229.787 116.238,229.787 116.148 C 229.787 116.058,228.363 115.985,226.623 115.985 C 224.883 115.985,223.459 116.058,223.459 116.148 M159.665 118.858 C 159.330 119.194,159.553 120.252,160.081 120.828 L 160.643 121.440 160.163 120.749 C 159.835 120.277,159.714 119.846,159.782 119.386 C 159.889 118.659,159.884 118.639,159.665 118.858 M183.472 119.740 C 183.744 119.792,184.137 119.790,184.345 119.735 C 184.554 119.681,184.332 119.638,183.852 119.640 C 183.372 119.643,183.201 119.688,183.472 119.740 M196.169 120.404 L 195.417 121.222 196.236 120.470 C 196.997 119.770,197.154 119.585,196.988 119.585 C 196.951 119.585,196.583 119.954,196.169 120.404 M216.094 119.736 C 216.304 119.791,216.648 119.791,216.858 119.736 C 217.068 119.681,216.896 119.636,216.476 119.636 C 216.056 119.636,215.884 119.681,216.094 119.736 M181.508 119.958 C 181.780 120.010,182.173 120.008,182.381 119.954 C 182.590 119.899,182.368 119.856,181.888 119.859 C 181.408 119.861,181.237 119.906,181.508 119.958 M217.951 119.958 C 218.223 120.010,218.616 120.008,218.824 119.954 C 219.033 119.899,218.811 119.856,218.331 119.859 C 217.851 119.861,217.680 119.906,217.951 119.958 M177.796 120.176 C 178.066 120.228,178.508 120.228,178.778 120.176 C 179.048 120.124,178.827 120.081,178.287 120.081 C 177.747 120.081,177.526 120.124,177.796 120.176 M221.552 120.178 C 221.884 120.229,222.375 120.227,222.643 120.175 C 222.912 120.124,222.640 120.083,222.040 120.084 C 221.440 120.086,221.221 120.128,221.552 120.178 M199.224 123.022 L 198.472 123.841 199.291 123.089 C 200.052 122.389,200.209 122.204,200.043 122.204 C 200.006 122.204,199.638 122.572,199.224 123.022 M251.442 124.604 C 251.442 125.025,251.487 125.196,251.542 124.986 C 251.596 124.776,251.596 124.433,251.542 124.223 C 251.487 124.013,251.442 124.184,251.442 124.604 M148.446 125.150 C 148.448 125.630,148.493 125.801,148.545 125.529 C 148.597 125.258,148.595 124.865,148.541 124.656 C 148.486 124.448,148.443 124.670,148.446 125.150 M270.236 127.114 C 270.235 128.194,270.272 128.664,270.318 128.157 C 270.363 127.651,270.364 126.767,270.319 126.193 C 270.274 125.619,270.236 126.034,270.236 127.114 M129.693 127.005 C 129.693 127.785,129.733 128.104,129.781 127.714 C 129.830 127.324,129.830 126.686,129.781 126.296 C 129.733 125.906,129.693 126.225,129.693 127.005 M251.664 126.678 C 251.667 127.158,251.712 127.328,251.764 127.057 C 251.816 126.785,251.814 126.393,251.759 126.184 C 251.705 125.975,251.662 126.197,251.664 126.678 M266.296 127.005 C 266.296 127.665,266.337 127.935,266.387 127.605 C 266.437 127.275,266.437 126.735,266.387 126.405 C 266.337 126.075,266.296 126.345,266.296 127.005 M148.441 127.878 C 148.441 128.298,148.486 128.470,148.541 128.260 C 148.596 128.050,148.596 127.706,148.541 127.496 C 148.486 127.286,148.441 127.458,148.441 127.878 M133.820 128.751 C 133.820 129.171,133.865 129.343,133.920 129.133 C 133.975 128.923,133.975 128.579,133.920 128.369 C 133.865 128.159,133.820 128.331,133.820 128.751 M159.574 131.302 C 159.785 131.356,160.128 131.356,160.338 131.302 C 160.548 131.247,160.376 131.202,159.956 131.202 C 159.536 131.202,159.364 131.247,159.574 131.302 M239.662 131.302 C 239.872 131.356,240.215 131.356,240.426 131.302 C 240.636 131.247,240.464 131.202,240.044 131.202 C 239.624 131.202,239.452 131.247,239.662 131.302 M156.851 131.527 C 157.243 131.576,157.832 131.575,158.160 131.525 C 158.488 131.475,158.167 131.436,157.447 131.437 C 156.727 131.438,156.458 131.479,156.851 131.527 M241.957 131.527 C 242.349 131.576,242.938 131.575,243.266 131.525 C 243.594 131.475,243.273 131.436,242.553 131.437 C 241.833 131.438,241.565 131.479,241.957 131.527 M174.468 132.024 C 174.193 132.142,174.153 132.212,174.359 132.212 C 174.539 132.212,174.883 132.127,175.123 132.024 C 175.398 131.906,175.438 131.836,175.232 131.836 C 175.052 131.836,174.708 131.921,174.468 132.024 M248.991 133.224 C 248.461 133.764,248.076 134.206,248.136 134.206 C 248.196 134.206,248.679 133.764,249.209 133.224 C 249.739 132.684,250.124 132.242,250.064 132.242 C 250.004 132.242,249.521 132.684,248.991 133.224 M150.791 133.224 C 151.198 133.644,151.580 133.988,151.640 133.988 C 151.700 133.988,151.416 133.644,151.009 133.224 C 150.602 132.804,150.220 132.460,150.160 132.460 C 150.100 132.460,150.384 132.804,150.791 133.224 M230.530 134.043 C 230.118 134.529,230.118 134.531,230.551 134.180 C 230.791 133.986,231.135 133.773,231.315 133.706 C 231.593 133.604,231.589 133.583,231.294 133.569 C 231.103 133.559,230.759 133.773,230.530 134.043 M176.849 135.452 C 177.589 136.248,178.069 136.468,178.069 136.012 C 178.069 135.939,178.001 135.947,177.919 136.029 C 177.836 136.112,177.370 135.809,176.882 135.356 L 175.996 134.534 176.849 135.452 M228.903 135.461 L 228.151 136.279 228.969 135.527 C 229.731 134.827,229.888 134.643,229.721 134.643 C 229.684 134.643,229.316 135.011,228.903 135.461 M175.659 139.716 C 176.563 140.680,176.759 140.853,176.759 140.689 C 176.759 140.654,176.293 140.188,175.723 139.653 L 174.686 138.680 175.659 139.716 M218.099 140.371 L 217.458 141.080 218.167 140.439 C 218.828 139.842,218.976 139.662,218.808 139.662 C 218.770 139.662,218.451 139.981,218.099 140.371 M222.472 141.462 L 220.731 143.262 222.531 141.522 C 224.203 139.905,224.431 139.662,224.272 139.662 C 224.239 139.662,223.429 140.472,222.472 141.462 M178.178 142.280 C 178.769 142.881,179.302 143.372,179.362 143.372 C 179.422 143.372,178.987 142.881,178.396 142.280 C 177.805 141.680,177.272 141.189,177.212 141.189 C 177.152 141.189,177.587 141.680,178.178 142.280 M134.003 143.262 C 134.003 143.382,134.144 143.726,134.315 144.026 C 134.487 144.326,134.627 144.474,134.627 144.354 C 134.627 144.233,134.487 143.890,134.315 143.590 C 134.144 143.290,134.003 143.142,134.003 143.262 M182.215 146.713 C 182.215 146.751,182.534 147.070,182.924 147.422 L 183.633 148.063 182.992 147.354 C 182.395 146.693,182.215 146.545,182.215 146.713 M184.444 149.157 C 184.891 149.624,185.291 149.961,185.334 149.907 C 185.377 149.853,185.012 149.472,184.523 149.059 L 183.633 148.309 184.444 149.157 M163.011 156.751 C 163.011 156.789,163.331 157.108,163.721 157.461 L 164.430 158.101 163.789 157.392 C 163.192 156.731,163.011 156.583,163.011 156.751 M235.231 158.592 L 234.479 159.411 235.297 158.659 C 236.059 157.959,236.216 157.774,236.049 157.774 C 236.013 157.774,235.645 158.142,235.231 158.592 M232.831 161.211 L 232.079 162.029 232.897 161.277 C 233.659 160.577,233.816 160.393,233.649 160.393 C 233.612 160.393,233.244 160.761,232.831 161.211 M161.098 161.266 C 161.098 161.686,161.143 161.858,161.198 161.648 C 161.253 161.438,161.253 161.094,161.198 160.884 C 161.143 160.674,161.098 160.846,161.098 161.266 M167.921 161.920 C 168.513 162.520,169.045 163.011,169.105 163.011 C 169.165 163.011,168.731 162.520,168.140 161.920 C 167.549 161.320,167.016 160.829,166.956 160.829 C 166.896 160.829,167.330 161.320,167.921 161.920 M238.785 161.702 C 238.785 162.122,238.830 162.294,238.885 162.084 C 238.940 161.874,238.940 161.530,238.885 161.320 C 238.830 161.110,238.785 161.282,238.785 161.702 M235.457 164.048 L 233.388 166.176 235.516 164.107 C 237.492 162.185,237.742 161.920,237.584 161.920 C 237.552 161.920,236.595 162.878,235.457 164.048 M164.321 163.993 C 164.973 164.654,165.555 165.194,165.615 165.194 C 165.675 165.194,165.191 164.654,164.539 163.993 C 163.887 163.333,163.305 162.793,163.245 162.793 C 163.185 162.793,163.669 163.333,164.321 163.993 M199.621 169.931 C 199.892 169.983,200.285 169.981,200.494 169.926 C 200.702 169.872,200.480 169.829,200.000 169.831 C 199.520 169.834,199.349 169.878,199.621 169.931 M187.405 175.393 C 188.039 175.437,189.021 175.437,189.587 175.392 C 190.153 175.347,189.634 175.311,188.434 175.312 C 187.234 175.312,186.771 175.349,187.405 175.393 M210.428 175.393 C 211.123 175.437,212.203 175.436,212.828 175.392 C 213.454 175.349,212.886 175.313,211.566 175.313 C 210.245 175.314,209.734 175.350,210.428 175.393 M250.792 178.178 C 250.794 178.658,250.839 178.829,250.891 178.557 C 250.943 178.286,250.941 177.893,250.886 177.684 C 250.832 177.476,250.789 177.698,250.792 178.178 M236.612 187.452 C 236.612 187.992,236.654 188.213,236.706 187.943 C 236.758 187.673,236.758 187.231,236.706 186.961 C 236.654 186.691,236.612 186.912,236.612 187.452 M130.810 189.034 L 130.169 189.744 130.878 189.103 C 131.268 188.750,131.588 188.431,131.588 188.393 C 131.588 188.225,131.408 188.373,130.810 189.034 M268.412 188.393 C 268.412 188.431,268.732 188.750,269.122 189.103 L 269.831 189.744 269.190 189.034 C 268.592 188.373,268.412 188.225,268.412 188.393 M158.806 190.665 C 159.193 190.713,159.881 190.714,160.333 190.667 C 160.786 190.619,160.469 190.580,159.629 190.579 C 158.789 190.578,158.418 190.617,158.806 190.665 M239.775 190.666 C 240.167 190.714,240.756 190.713,241.084 190.663 C 241.412 190.613,241.091 190.574,240.371 190.575 C 239.651 190.576,239.383 190.617,239.775 190.666 M270.209 192.035 C 270.209 192.455,270.254 192.627,270.309 192.417 C 270.364 192.207,270.364 191.863,270.309 191.653 C 270.254 191.443,270.209 191.615,270.209 192.035 M141.575 192.630 C 141.967 192.678,142.557 192.677,142.884 192.627 C 143.212 192.577,142.891 192.538,142.171 192.539 C 141.451 192.540,141.183 192.581,141.575 192.630 M257.013 192.626 C 257.284 192.678,257.677 192.676,257.886 192.621 C 258.094 192.567,257.872 192.524,257.392 192.526 C 256.912 192.529,256.741 192.574,257.013 192.626 M152.706 194.159 C 153.220 194.205,154.005 194.204,154.452 194.158 C 154.899 194.111,154.479 194.073,153.519 194.074 C 152.559 194.075,152.193 194.113,152.706 194.159 M245.669 194.159 C 246.182 194.205,246.967 194.204,247.414 194.158 C 247.861 194.111,247.441 194.073,246.481 194.074 C 245.521 194.075,245.155 194.113,245.669 194.159 M159.359 194.592 C 159.691 194.642,160.182 194.641,160.450 194.589 C 160.719 194.537,160.447 194.496,159.847 194.498 C 159.247 194.499,159.028 194.542,159.359 194.592 M239.883 194.592 C 240.215 194.642,240.706 194.641,240.974 194.589 C 241.242 194.537,240.971 194.496,240.371 194.498 C 239.771 194.499,239.551 194.542,239.883 194.592 M148.718 194.989 C 148.170 195.253,148.152 195.283,148.609 195.172 C 148.909 195.100,149.248 194.954,149.362 194.847 C 149.645 194.583,149.489 194.617,148.718 194.989 M145.663 195.963 C 145.388 196.081,145.347 196.150,145.554 196.150 C 145.734 196.150,146.077 196.066,146.318 195.963 C 146.593 195.845,146.633 195.775,146.427 195.775 C 146.247 195.775,145.903 195.860,145.663 195.963 " stroke="none" fill="#bcbcbc" fill-rule="evenodd"></path></g></svg>