<?xml version="1.0" standalone="no"?>
<!DOCTYPE svg PUBLIC "-//W3C//DTD SVG 20010904//EN"
 "http://www.w3.org/TR/2001/REC-SVG-20010904/DTD/svg10.dtd">
<svg version="1.0" xmlns="http://www.w3.org/2000/svg"
 width="2816.000000pt" height="1536.000000pt" viewBox="0 0 2816.000000 1536.000000"
 preserveAspectRatio="xMidYMid meet">

<g transform="translate(0.000000,1536.000000) scale(0.100000,-0.100000)"
fill="#000000" stroke="none">
<path d="M10430 15334 c-360 -48 -612 -95 -960 -180 -435 -107 -951 -281
-1275 -430 -39 -17 -129 -58 -200 -89 -210 -93 -590 -293 -800 -422 -194 -119
-528 -348 -635 -433 -25 -20 -81 -65 -125 -100 -99 -78 -321 -277 -525 -470
-289 -275 -415 -377 -591 -477 -321 -184 -657 -271 -909 -234 -95 14 -249 67
-395 136 -109 51 -246 107 -366 149 -448 156 -1048 176 -1536 50 -392 -101
-780 -297 -1073 -542 -131 -109 -332 -310 -413 -412 -263 -331 -469 -755 -557
-1150 -68 -307 -89 -704 -51 -998 48 -375 127 -630 293 -952 136 -263 289
-477 498 -694 449 -466 1064 -738 1670 -739 205 0 348 22 654 99 212 53 224
54 283 44 73 -12 183 -43 375 -105 249 -80 291 -89 423 -89 136 0 180 13 286
85 133 90 206 252 246 544 l8 59 145 88 c80 48 199 117 264 153 178 98 252
151 341 240 92 92 142 177 177 300 18 67 22 104 22 220 -1 130 -3 149 -37 267
-20 71 -59 183 -87 250 -28 68 -52 129 -53 137 -3 21 403 221 449 221 6 0 15
-91 22 -217 18 -314 40 -726 52 -968 14 -282 38 -739 50 -960 47 -845 50
-1310 11 -1510 -12 -60 -28 -137 -36 -170 -48 -199 -105 -600 -125 -875 -15
-196 -15 -743 0 -965 13 -212 57 -795 70 -935 19 -205 59 -748 71 -955 12
-221 7 -463 -11 -511 -34 -88 -95 -110 -376 -139 -263 -26 -536 -86 -869 -190
-261 -81 -655 -233 -818 -315 -236 -120 -377 -333 -377 -571 0 -105 21 -192
67 -288 47 -98 159 -212 255 -259 l67 -32 1403 2 1403 3 95 33 c209 74 340
154 495 303 210 203 343 440 415 741 16 68 43 215 60 328 40 273 69 432 220
1240 18 96 63 339 155 845 20 105 51 269 70 365 19 96 52 281 74 410 124 735
147 1009 138 1654 -6 401 -6 414 23 700 16 160 36 361 45 446 8 85 17 166 20
180 14 71 108 1168 159 1845 9 110 18 232 22 271 l5 71 117 -29 c547 -138
1025 -111 1521 87 262 105 480 245 788 508 159 136 237 190 381 264 111 56
328 131 455 157 207 43 552 59 762 36 322 -35 668 -131 954 -265 333 -155 560
-313 801 -554 246 -246 390 -491 461 -781 20 -83 23 -121 24 -295 0 -110 -6
-343 -14 -518 -24 -543 -6 -1644 39 -2462 31 -563 133 -1544 221 -2130 80
-534 133 -866 183 -1145 30 -168 73 -420 95 -560 46 -289 74 -408 132 -554
136 -340 341 -602 668 -849 193 -147 486 -278 729 -328 149 -30 778 -27 1269
6 377 26 1373 98 1588 115 331 27 1076 90 1115 95 25 3 153 14 285 25 132 11
357 31 500 45 285 27 572 54 1240 115 242 22 526 49 630 60 504 51 865 53
1165 7 431 -67 1397 -248 1715 -322 33 -8 152 -35 265 -60 113 -26 248 -59
300 -73 88 -25 112 -27 328 -30 l233 -3 67 33 c96 46 187 140 240 245 57 116
76 209 69 342 -12 218 -79 372 -253 581 -202 244 -445 419 -863 622 -383 185
-562 337 -876 743 -68 88 -177 217 -239 283 -31 32 -182 156 -244 200 -43 30
-175 96 -233 115 -126 43 -174 51 -304 50 -285 -1 -485 -93 -770 -353 -97 -89
-230 -178 -318 -213 -36 -14 -112 -36 -169 -48 -212 -44 -685 -6 -1128 90
-198 43 -641 147 -745 176 -164 45 -748 191 -870 218 -265 59 -637 120 -905
149 -147 16 -621 15 -765 -1 -171 -19 -349 -49 -484 -82 -67 -17 -125 -28
-128 -26 -2 3 7 49 21 103 36 141 108 509 155 784 52 308 84 541 120 895 76
737 80 792 131 2055 11 259 38 506 72 655 11 50 49 187 85 305 170 570 239
946 265 1446 12 236 2 605 -21 764 -6 36 -20 133 -31 215 -44 307 -92 510
-185 790 -145 436 -382 895 -645 1250 -331 447 -735 841 -1210 1181 -110 79
-473 314 -485 314 -3 0 -31 17 -62 37 -32 20 -87 53 -123 73 -36 20 -110 63
-165 94 -130 76 -749 386 -769 386 -3 0 -29 11 -58 24 -314 141 -964 380
-1243 455 -38 11 -137 39 -220 64 -408 121 -926 230 -1365 287 -41 5 -111 14
-155 20 -304 40 -319 40 -1353 39 l-1007 -1 -185 -24z m1732 -469 c783 -47
1398 -148 2184 -361 395 -106 934 -297 1329 -469 305 -133 517 -235 741 -356
310 -167 740 -437 979 -612 449 -331 774 -663 1074 -1097 231 -334 425 -748
541 -1148 130 -454 177 -826 167 -1327 -10 -495 -68 -869 -207 -1315 -143
-458 -163 -558 -194 -960 -21 -264 -25 -338 -36 -680 -47 -1435 -192 -2533
-477 -3605 -53 -203 -59 -279 -24 -346 51 -99 132 -149 242 -149 76 0 100 7
309 88 192 75 297 106 452 132 208 36 383 50 623 50 510 0 846 -56 1775 -295
732 -188 985 -246 1310 -299 334 -55 394 -60 660 -60 218 0 272 3 370 21 285
53 513 171 740 381 160 148 247 201 367 222 122 21 266 -31 390 -143 110 -99
123 -114 403 -461 98 -122 331 -351 452 -444 59 -46 156 -113 215 -149 119
-73 299 -163 325 -163 30 0 148 203 148 254 0 9 8 16 18 16 12 0 22 -17 36
-61 21 -66 74 -154 131 -218 61 -67 236 -171 289 -171 9 0 16 -8 16 -17 0 -13
-17 -23 -59 -36 -32 -10 -72 -27 -90 -38 l-32 -19 89 -85 c107 -102 154 -167
187 -260 44 -125 28 -185 -49 -185 -23 0 -65 7 -93 15 -49 15 -393 99 -615
150 -120 28 -515 111 -593 124 -27 5 -97 18 -155 30 -58 12 -168 33 -245 46
-261 45 -600 104 -710 125 -215 40 -446 60 -690 60 -270 0 -488 -15 -1150 -80
-381 -38 -941 -89 -1130 -105 -104 -9 -485 -42 -845 -75 -360 -33 -740 -66
-845 -74 -104 -9 -363 -29 -575 -46 -212 -17 -434 -35 -495 -40 -591 -51
-1650 -122 -1830 -123 -158 0 -195 3 -307 26 -278 59 -501 180 -709 387 -234
232 -359 491 -414 855 -24 164 -100 617 -150 900 -24 138 -55 324 -69 415
-101 658 -151 1029 -181 1340 -107 1132 -124 1385 -151 2310 -14 479 -15 629
-5 985 6 231 16 499 22 595 22 341 -7 608 -91 855 -176 515 -606 1002 -1190
1347 -333 197 -777 362 -1160 432 -708 129 -1424 21 -1940 -294 -109 -66 -236
-163 -375 -286 -255 -224 -447 -336 -751 -439 -363 -123 -815 -106 -1205 43
l-26 10 24 194 c21 176 59 412 83 513 46 193 -68 356 -249 355 -124 -1 -220
-73 -255 -192 -52 -179 -109 -558 -146 -976 -11 -119 -24 -266 -30 -327 -5
-60 -26 -317 -45 -570 -50 -643 -92 -1109 -200 -2190 -2 -27 -14 -138 -26
-245 -20 -186 -21 -208 -8 -475 19 -426 -2 -812 -72 -1305 -25 -178 -82 -528
-109 -670 -11 -58 -43 -229 -70 -380 -28 -151 -75 -401 -105 -555 -30 -154
-71 -370 -90 -480 -20 -110 -52 -283 -71 -384 -19 -101 -59 -333 -90 -515 -91
-548 -109 -631 -162 -766 -96 -241 -305 -427 -547 -484 -111 -27 -543 -37
-1564 -37 -893 0 -926 1 -950 19 -40 30 -40 77 0 118 67 69 562 259 1014 389
125 36 360 82 485 95 259 26 299 32 374 51 177 45 341 155 430 289 161 239
163 477 22 2155 -46 538 -51 659 -50 1100 0 569 11 676 124 1241 27 137 53
296 58 354 13 151 14 419 2 695 -5 132 -17 400 -25 595 -26 606 -44 979 -70
1410 -13 228 -31 564 -40 745 -8 182 -20 408 -25 503 -22 385 3 697 76 971
100 371 271 676 508 911 116 113 146 197 112 314 -28 96 -103 163 -207 186
-49 11 -64 10 -115 -5 -53 -16 -71 -30 -164 -124 -305 -306 -516 -669 -635
-1092 -74 -260 -103 -468 -112 -792 l-6 -217 -41 -10 c-157 -40 -403 -147
-601 -263 l-69 -40 -31 38 c-139 176 -271 288 -442 370 -110 54 -162 66 -234
53 -177 -31 -267 -234 -175 -393 31 -52 65 -79 161 -131 105 -56 143 -84 226
-170 114 -119 232 -310 334 -544 120 -273 126 -433 21 -514 -18 -13 -102 -65
-187 -113 -289 -166 -521 -308 -560 -341 -56 -48 -96 -138 -114 -257 -9 -55
-23 -137 -32 -182 -18 -96 -17 -95 -123 -62 -105 33 -378 115 -475 143 -121
35 -226 49 -294 41 -31 -3 -128 -26 -216 -50 -364 -101 -579 -124 -835 -90
-419 55 -838 288 -1145 635 -85 97 -114 135 -208 275 -282 421 -418 941 -378
1444 12 146 46 344 80 461 37 128 124 347 186 466 118 228 234 384 421 563
345 332 713 518 1219 618 73 15 140 18 360 17 252 0 279 -2 408 -27 183 -36
399 -109 572 -192 194 -93 257 -117 395 -153 205 -53 499 -56 713 -8 461 105
831 313 1252 705 549 510 654 599 1010 848 394 276 999 598 1420 754 44 17
132 50 195 75 120 46 173 64 435 145 206 64 366 106 642 169 448 101 704 136
1363 183 140 10 729 5 952 -8z"/>
</g>
</svg>
