<svg id="svg" version="1.1" xmlns="http://www.w3.org/2000/svg" xmlns:xlink="http://www.w3.org/1999/xlink" width="400" height="218.1818181818182" viewBox="0, 0, 400,218.1818181818182"><g id="svgg"><path id="path0" d="M0.000 109.083 L 0.000 218.167 200.000 218.167 L 400.000 218.167 400.000 109.083 L 400.000 0.000 200.000 0.000 L 0.000 0.000 0.000 109.083 M257.265 2.384 C 259.050 2.847,259.964 4.085,260.394 6.619 C 261.024 10.336,261.124 10.540,262.894 11.730 C 266.615 14.232,268.201 17.494,266.935 20.048 L 266.623 20.680 267.708 22.965 C 268.305 24.222,269.223 26.375,269.748 27.750 C 270.273 29.125,270.877 30.700,271.089 31.250 C 271.302 31.800,271.852 33.225,272.312 34.417 C 272.771 35.608,273.339 36.977,273.574 37.458 C 273.808 37.938,274.000 38.371,274.000 38.419 C 274.000 38.611,278.616 47.723,280.796 51.833 C 281.209 52.612,283.087 56.288,284.970 60.000 C 286.852 63.712,288.944 67.837,289.618 69.167 C 294.074 77.954,292.907 82.084,283.506 90.798 C 275.612 98.114,268.047 103.581,257.917 109.289 C 256.542 110.064,255.220 110.883,254.981 111.109 L 254.545 111.520 254.432 115.385 C 254.154 124.979,253.287 133.750,251.596 144.083 C 250.087 153.300,250.000 153.921,250.000 155.444 C 250.000 156.254,250.219 158.417,250.486 160.250 C 251.912 170.035,251.613 174.119,248.771 183.667 C 245.624 194.242,244.814 199.492,245.647 203.917 C 247.266 212.521,244.226 216.014,236.055 214.935 C 232.823 214.508,231.491 214.582,227.083 215.437 C 221.741 216.473,215.324 216.006,213.554 214.452 C 210.454 211.730,212.014 207.931,216.751 206.669 C 220.413 205.693,221.950 205.012,225.366 202.853 C 229.731 200.095,230.638 199.233,231.379 197.141 C 232.584 193.742,232.945 190.549,233.075 182.167 C 233.127 178.821,233.253 173.421,233.355 170.167 C 233.559 163.659,233.628 164.629,232.509 158.250 C 232.332 157.242,232.106 155.029,232.006 153.333 C 231.906 151.637,231.713 149.500,231.577 148.583 C 231.334 146.949,231.136 145.978,229.942 140.562 C 228.688 134.873,228.135 126.524,228.643 120.939 C 228.786 119.359,228.908 119.451,226.167 119.081 C 222.511 118.589,217.396 117.243,209.583 114.719 C 205.919 113.535,201.697 111.548,197.750 109.150 C 196.438 108.354,195.475 108.010,192.667 107.336 C 188.289 106.287,185.037 103.362,183.024 98.667 C 182.454 97.335,182.539 97.377,180.202 97.259 C 171.315 96.809,167.153 96.293,161.250 94.911 C 156.599 93.821,154.424 93.372,151.917 92.985 C 146.287 92.114,139.448 89.948,131.167 86.411 L 128.917 85.449 125.917 85.319 C 122.207 85.158,122.580 85.265,118.583 83.215 C 118.125 82.980,117.130 82.578,116.373 82.321 C 114.385 81.646,113.852 81.231,113.000 79.698 C 112.543 78.875,112.599 78.916,110.872 78.151 C 107.625 76.713,107.031 73.540,109.732 72.065 L 110.547 71.620 113.482 71.716 C 115.096 71.769,117.654 71.967,119.167 72.157 C 121.865 72.494,122.708 72.684,128.417 74.239 C 131.569 75.097,135.099 75.668,140.350 76.168 C 146.414 76.746,149.936 77.373,153.153 78.447 C 154.495 78.896,156.636 79.516,157.841 79.805 C 160.525 80.451,169.946 80.749,172.667 80.274 C 174.850 79.894,178.167 79.120,178.167 78.991 C 178.167 78.713,176.823 76.856,176.274 76.375 C 175.453 75.657,175.307 75.680,173.914 76.747 C 170.105 79.664,167.464 79.271,164.484 75.342 C 163.548 74.107,163.258 73.849,162.126 73.247 C 159.693 71.951,159.319 71.304,159.251 68.267 L 159.206 66.250 158.277 64.333 C 153.327 54.124,160.441 42.979,171.891 43.004 C 180.626 43.022,186.000 49.311,186.000 59.514 C 186.000 63.389,186.236 64.017,188.036 64.933 C 190.067 65.967,192.174 65.141,193.936 62.622 C 196.943 58.321,200.030 55.693,205.124 53.095 C 207.527 51.869,209.224 50.584,212.824 47.264 C 217.382 43.060,218.654 41.729,220.084 39.666 C 222.898 35.606,226.907 31.651,231.500 28.405 C 233.591 26.927,238.794 22.698,246.595 16.135 C 248.293 14.707,249.014 14.169,250.184 13.456 C 250.591 13.208,250.625 13.086,250.735 11.478 C 251.196 4.793,253.607 1.435,257.265 2.384 M255.953 7.608 C 255.745 7.945,255.333 9.731,255.333 10.300 L 255.333 10.863 256.042 10.746 C 256.431 10.681,256.768 10.612,256.791 10.593 C 256.814 10.573,256.660 9.852,256.449 8.991 C 256.238 8.130,256.015 7.507,255.953 7.608 M257.083 14.939 C 254.120 15.563,253.550 15.976,240.333 27.082 C 238.600 28.538,235.525 30.935,231.667 33.836 C 229.311 35.608,225.811 39.261,224.005 41.834 C 222.371 44.163,219.761 46.949,216.266 50.097 C 215.358 50.914,214.533 51.661,214.433 51.757 C 214.332 51.852,213.308 52.722,212.156 53.690 C 210.170 55.358,209.650 55.699,206.667 57.291 C 202.857 59.323,200.281 61.400,198.492 63.881 C 194.244 69.773,190.773 71.173,186.044 68.902 C 182.698 67.295,181.663 65.076,181.583 59.333 C 181.472 51.389,177.556 46.910,171.154 47.405 C 163.085 48.030,158.991 55.127,162.394 62.593 C 163.259 64.491,163.667 66.166,163.667 67.818 L 163.667 68.948 164.291 69.265 C 165.546 69.904,166.131 70.363,166.672 71.132 C 169.010 74.457,169.587 74.656,171.723 72.878 C 173.029 71.791,174.196 71.278,175.343 71.289 C 180.797 71.340,185.605 81.960,180.708 83.137 C 169.999 85.711,160.623 85.639,152.674 82.921 C 149.147 81.716,145.980 81.148,139.166 80.501 C 133.778 79.989,130.335 79.408,126.750 78.403 C 121.313 76.881,119.435 76.502,117.315 76.500 L 116.546 76.500 116.789 77.240 C 116.993 77.859,117.120 77.999,117.558 78.093 C 118.311 78.253,119.830 78.901,121.750 79.880 L 123.417 80.730 126.167 80.856 C 129.439 81.005,129.380 80.993,131.917 82.008 C 143.142 86.501,147.839 87.970,153.500 88.757 C 154.554 88.903,156.692 89.325,158.250 89.695 C 165.056 91.309,165.710 91.447,168.333 91.820 C 172.304 92.384,173.691 92.507,178.667 92.735 C 185.070 93.028,185.545 93.243,186.922 96.472 C 188.747 100.754,190.687 102.424,194.765 103.227 C 197.000 103.667,197.930 104.062,200.750 105.763 C 205.137 108.409,207.987 109.626,214.417 111.596 C 220.619 113.496,223.188 114.122,227.704 114.831 C 233.116 115.682,233.164 115.747,232.951 121.925 C 232.672 130.032,233.250 136.147,234.914 142.667 C 235.527 145.070,236.024 148.639,236.248 152.250 C 236.426 155.120,236.610 156.691,236.981 158.500 C 237.891 162.930,237.884 162.780,237.682 173.695 C 237.344 191.972,236.896 196.215,234.878 200.250 C 233.954 202.098,230.646 204.998,227.422 206.787 C 223.523 208.950,221.282 209.997,219.500 210.489 C 216.969 211.188,216.935 211.207,218.000 211.347 C 220.456 211.669,223.573 211.519,227.134 210.909 C 231.697 210.126,233.214 210.042,235.838 210.423 C 241.699 211.276,242.367 210.623,241.433 204.953 C 240.899 201.711,240.871 199.232,241.331 196.044 C 242.078 190.874,242.202 190.351,244.608 182.250 C 246.704 175.195,247.411 169.994,246.841 165.833 C 245.296 154.566,245.287 155.075,247.257 143.083 C 248.854 133.367,249.979 121.592,250.211 112.167 C 250.288 109.053,250.933 108.160,254.555 106.159 C 265.477 100.123,275.566 92.662,283.167 85.001 C 287.170 80.965,288.067 79.029,287.497 75.649 C 287.285 74.390,279.705 58.986,275.138 50.531 C 274.062 48.539,269.660 39.702,269.435 39.083 C 269.302 38.717,268.730 37.292,268.164 35.917 C 267.598 34.542,266.734 32.367,266.245 31.083 C 265.106 28.096,263.422 24.167,263.280 24.167 C 263.249 24.167,262.992 24.488,262.710 24.882 C 262.107 25.721,259.859 26.977,257.316 27.897 C 255.544 28.537,255.544 28.538,255.517 30.392 C 255.493 32.008,255.966 32.475,258.124 32.972 C 263.785 34.276,265.949 39.191,268.848 57.333 C 269.807 63.330,272.199 68.703,275.598 72.491 C 278.694 75.942,277.333 77.753,269.322 80.845 C 264.488 82.711,263.012 83.320,261.002 84.280 C 259.765 84.870,258.152 85.713,257.418 86.154 C 253.297 88.629,251.165 88.992,247.250 87.890 C 242.394 86.522,237.974 87.387,233.046 90.670 C 226.326 95.148,218.986 93.506,212.932 86.172 C 208.518 80.825,206.371 75.540,206.962 71.481 C 207.301 69.157,207.614 68.711,211.852 64.500 C 216.270 60.109,216.969 59.292,222.333 52.232 C 224.185 49.796,226.371 47.500,229.063 45.167 C 232.423 42.254,234.316 40.111,239.502 33.350 C 245.940 24.958,247.345 23.887,251.652 24.083 C 254.351 24.205,255.532 24.054,257.151 23.378 L 257.737 23.133 257.205 22.909 C 256.018 22.410,255.644 20.665,256.522 19.723 C 257.252 18.942,259.278 18.182,261.726 17.773 L 262.889 17.578 262.486 17.145 C 261.753 16.359,259.849 15.020,259.211 14.843 C 258.463 14.635,258.547 14.631,257.083 14.939 M248.787 29.343 C 247.505 30.486,245.289 33.070,243.009 36.083 C 241.968 37.458,240.768 38.996,240.342 39.500 C 239.916 40.004,239.051 41.092,238.420 41.917 C 236.915 43.883,234.436 46.422,231.745 48.750 C 228.904 51.208,226.361 53.989,224.505 56.667 C 224.282 56.987,223.609 57.854,223.009 58.593 C 222.408 59.332,221.654 60.266,221.333 60.669 C 218.834 63.810,217.444 65.308,213.712 68.878 C 211.423 71.068,211.270 71.333,211.288 73.083 C 211.325 76.853,215.974 84.099,220.198 86.971 C 223.856 89.457,227.186 89.248,231.750 86.247 C 236.737 82.967,242.307 82.059,248.203 83.563 C 251.403 84.379,251.975 84.256,255.953 81.899 C 258.316 80.499,260.493 79.529,267.083 76.940 C 271.885 75.055,271.954 75.007,271.188 74.131 C 268.283 70.807,265.517 64.158,264.580 58.250 C 263.224 49.703,261.346 42.164,259.819 39.139 C 259.252 38.015,258.742 37.693,256.873 37.277 C 252.837 36.380,251.083 34.366,251.083 30.625 L 251.083 28.500 250.408 28.500 C 249.833 28.500,249.593 28.625,248.787 29.343 " stroke="none" fill="#fbfbfb" fill-rule="evenodd"></path><path id="path1" d="M254.898 2.603 C 252.603 3.417,251.164 6.543,250.889 11.313 L 250.780 13.208 249.765 13.864 C 248.763 14.512,246.411 16.374,244.752 17.833 C 242.336 19.959,235.071 25.917,233.076 27.408 C 232.347 27.954,231.150 28.850,230.417 29.400 C 226.194 32.569,222.782 35.997,220.370 39.495 C 217.467 43.705,209.246 51.170,205.333 53.151 C 200.100 55.799,197.234 58.217,194.042 62.679 C 191.876 65.706,189.064 66.375,186.943 64.365 C 185.974 63.446,185.930 63.240,185.813 59.000 C 185.531 48.848,180.552 43.176,171.899 43.149 C 160.401 43.112,153.412 54.296,158.524 64.550 L 159.338 66.184 159.389 68.317 C 159.457 71.185,160.060 72.250,162.092 73.097 C 163.132 73.531,163.612 73.944,164.561 75.222 C 166.207 77.441,167.308 78.230,169.044 78.434 C 170.623 78.619,171.764 78.154,174.393 76.252 C 174.839 75.930,175.297 75.667,175.411 75.667 C 176.074 75.667,178.601 78.822,178.217 79.170 C 178.034 79.336,173.516 80.297,171.989 80.496 C 167.307 81.103,157.764 80.290,154.417 78.999 C 151.456 77.857,147.362 77.017,142.250 76.505 C 133.277 75.605,132.010 75.388,125.917 73.701 C 120.563 72.219,111.959 71.287,110.113 71.989 C 107.182 73.103,107.787 76.924,111.088 78.152 C 112.480 78.670,112.811 78.921,113.154 79.720 C 113.615 80.796,114.577 81.554,116.145 82.076 C 116.891 82.325,118.448 83.015,119.604 83.610 C 122.126 84.909,123.164 85.160,126.024 85.164 C 128.217 85.167,129.577 85.444,131.033 86.184 C 132.036 86.695,136.059 88.292,138.833 89.282 C 144.907 91.450,147.046 92.026,152.333 92.917 C 154.304 93.250,156.667 93.702,157.583 93.923 C 166.899 96.168,171.010 96.762,179.632 97.110 C 182.760 97.236,182.537 97.112,183.418 99.221 C 185.251 103.605,188.585 106.257,193.833 107.507 C 195.680 107.946,196.322 108.184,197.417 108.833 C 205.357 113.540,215.944 117.280,226.009 118.933 L 228.767 119.386 228.696 124.669 C 228.595 132.184,228.957 135.773,230.493 142.489 C 231.371 146.326,231.911 149.716,232.077 152.417 C 232.287 155.865,232.542 157.991,233.033 160.417 C 233.651 163.466,233.662 164.000,233.376 177.500 C 233.010 194.786,232.382 198.026,228.896 200.604 C 227.153 201.893,223.699 204.071,222.053 204.918 C 220.757 205.585,220.200 205.783,216.238 206.984 C 212.391 208.151,211.040 210.934,213.005 213.646 C 214.692 215.977,221.402 216.562,228.667 215.012 C 231.228 214.466,233.179 214.416,236.370 214.817 C 244.194 215.799,246.923 212.694,245.583 204.333 C 244.880 199.945,245.430 194.638,247.223 188.500 C 250.235 178.188,250.593 176.735,251.006 173.185 C 251.355 170.183,251.132 165.266,250.435 160.583 C 249.619 155.103,249.621 155.071,251.248 145.417 C 253.065 134.635,254.014 125.292,254.253 115.833 C 254.307 113.679,254.384 111.757,254.424 111.563 C 254.499 111.193,255.674 110.374,257.750 109.245 C 263.106 106.333,271.360 100.903,275.333 97.679 C 293.308 83.093,294.902 79.300,288.299 66.833 C 287.789 65.871,285.836 62.046,283.960 58.333 C 282.083 54.621,280.264 51.058,279.918 50.417 C 275.901 42.969,273.040 36.805,270.637 30.417 C 269.055 26.213,268.393 24.628,267.287 22.390 L 266.449 20.697 266.808 19.934 C 268.009 17.379,266.521 14.320,262.908 11.915 C 261.096 10.710,261.056 10.641,260.481 7.710 C 259.910 4.796,259.674 4.203,258.747 3.349 C 257.721 2.403,256.260 2.120,254.898 2.603 M256.547 8.750 C 256.690 9.483,256.856 10.208,256.916 10.360 C 257.032 10.657,256.881 10.733,255.792 10.926 C 255.038 11.060,254.978 10.702,255.437 8.844 C 255.957 6.745,256.151 6.729,256.547 8.750 M260.493 15.355 C 261.557 16.046,263.000 17.362,263.000 17.641 C 263.000 17.723,262.531 17.839,261.958 17.899 C 260.325 18.068,257.584 18.974,256.898 19.572 C 255.813 20.515,256.000 22.188,257.258 22.787 C 257.987 23.135,257.980 23.240,257.208 23.543 C 255.542 24.198,254.206 24.323,250.583 24.163 C 247.470 24.026,245.227 25.971,238.955 34.250 C 235.675 38.580,234.411 40.098,232.178 42.392 C 231.209 43.387,229.442 45.044,228.250 46.075 C 225.422 48.522,224.552 49.505,220.479 54.854 C 216.630 59.910,215.227 61.497,211.458 65.058 C 207.539 68.761,206.847 70.094,207.043 73.563 C 207.414 80.134,214.539 89.765,220.750 92.093 C 225.286 93.793,228.887 93.248,233.667 90.135 C 238.281 87.131,242.062 86.489,247.417 87.802 C 251.555 88.817,252.937 88.595,256.987 86.269 C 259.819 84.642,262.471 83.376,265.621 82.148 C 270.838 80.114,271.609 79.793,273.250 78.973 C 276.338 77.431,277.000 76.782,277.000 75.292 C 277.000 74.346,276.839 74.074,275.117 72.107 C 271.957 68.498,269.622 63.138,268.753 57.500 C 267.585 49.927,265.579 41.466,264.205 38.325 C 263.082 35.756,260.618 33.333,259.129 33.333 C 258.012 33.333,255.990 32.477,255.618 31.847 C 255.057 30.897,255.348 28.453,256.047 28.240 C 259.295 27.250,262.586 25.374,262.920 24.322 C 263.200 23.439,264.186 25.343,266.291 30.833 C 269.434 39.029,270.492 41.335,275.585 51.083 C 276.600 53.026,280.025 59.755,284.324 68.250 C 289.500 78.478,289.148 80.130,280.087 88.101 C 279.264 88.824,278.439 89.555,278.254 89.724 C 271.978 95.445,262.776 101.877,254.586 106.269 C 250.652 108.378,250.423 108.854,250.173 115.454 C 249.829 124.516,248.558 136.995,247.334 143.333 C 245.808 151.236,245.557 156.160,246.395 161.750 C 247.401 168.465,247.370 171.417,246.236 176.667 C 245.827 178.559,245.631 179.264,244.006 184.667 C 241.350 193.502,240.631 199.554,241.580 205.100 C 242.243 208.977,242.034 209.988,240.426 210.686 L 239.583 211.051 236.917 210.688 C 233.613 210.238,231.764 210.235,229.225 210.676 C 223.091 211.742,223.402 211.709,220.500 211.605 C 217.374 211.493,216.521 211.348,217.114 211.029 C 217.314 210.921,217.591 210.833,217.729 210.833 C 219.151 210.833,223.652 208.849,227.889 206.353 C 235.670 201.769,236.953 198.437,237.331 181.833 C 237.426 177.662,237.573 172.300,237.656 169.917 C 237.840 164.668,237.705 162.625,236.919 158.772 C 236.444 156.445,236.279 155.102,236.084 151.978 C 235.844 148.151,235.620 146.569,234.754 142.583 C 232.858 133.856,232.487 129.938,232.832 122.284 C 233.112 116.088,232.870 115.691,228.450 115.088 C 224.285 114.520,220.657 113.658,214.774 111.839 C 207.581 109.615,205.589 108.771,200.699 105.882 C 197.605 104.054,196.954 103.778,194.723 103.351 C 190.673 102.577,189.086 101.253,186.979 96.892 C 185.203 93.215,184.987 93.114,178.333 92.851 C 171.643 92.587,167.182 91.977,161.000 90.479 C 156.230 89.324,155.615 89.189,154.250 88.999 C 150.068 88.417,146.210 87.473,142.000 86.002 C 139.470 85.117,138.299 84.670,132.353 82.315 C 129.639 81.239,128.537 81.000,126.281 80.998 C 124.022 80.996,123.276 80.806,121.000 79.656 C 120.037 79.170,118.727 78.611,118.087 78.415 C 116.972 78.074,116.344 77.334,116.334 76.350 C 116.330 75.994,122.085 76.885,124.318 77.586 C 128.065 78.761,132.213 79.608,136.500 80.073 C 147.806 81.298,148.073 81.344,152.917 82.860 C 158.080 84.477,162.063 84.951,169.060 84.781 L 172.917 84.687 177.043 83.791 C 179.805 83.192,181.321 82.785,181.627 82.561 C 184.422 80.511,181.080 73.158,176.671 71.656 C 174.866 71.042,174.193 71.268,170.939 73.589 C 169.509 74.609,168.868 74.307,166.917 71.694 C 166.092 70.590,165.712 70.240,164.750 69.702 L 163.583 69.048 163.489 67.316 C 163.382 65.332,163.298 65.033,162.021 62.083 L 161.083 59.917 161.093 57.500 C 161.138 46.770,175.912 43.213,180.582 52.807 C 181.439 54.568,181.711 56.133,181.687 59.167 C 181.639 65.315,183.393 68.275,187.757 69.411 C 191.590 70.410,194.430 69.079,197.661 64.769 C 200.461 61.034,202.269 59.506,206.667 57.158 C 209.110 55.854,210.361 55.099,210.864 54.626 C 210.986 54.511,211.535 54.042,212.084 53.584 C 213.473 52.426,213.963 51.996,216.160 50.015 C 220.444 46.149,222.065 44.397,224.326 41.188 C 226.581 37.987,229.030 35.688,235.180 31.000 C 237.542 29.199,240.052 27.195,241.500 25.951 C 241.729 25.755,243.304 24.433,245.000 23.014 C 246.696 21.595,248.833 19.801,249.750 19.028 C 254.635 14.906,258.020 13.748,260.493 15.355 M251.201 28.917 C 250.729 33.779,252.158 35.851,256.870 37.131 C 257.846 37.396,258.834 37.738,259.066 37.890 C 260.492 38.825,262.575 45.958,264.255 55.667 C 265.138 60.769,265.450 62.148,266.264 64.524 C 267.468 68.039,269.248 71.465,270.992 73.626 C 271.455 74.199,271.833 74.770,271.833 74.894 C 271.833 75.146,269.749 76.069,265.242 77.814 C 263.597 78.451,261.875 79.137,261.417 79.338 C 259.216 80.307,256.980 81.424,255.726 82.181 C 252.216 84.301,250.557 84.625,248.089 83.672 C 243.698 81.976,236.544 83.227,231.417 86.588 C 227.449 89.188,224.829 89.486,221.314 87.735 C 215.789 84.981,209.724 74.840,211.440 71.224 C 211.747 70.578,212.502 69.777,215.426 66.995 C 218.273 64.285,220.515 61.667,224.910 55.918 C 227.543 52.474,228.389 51.566,231.667 48.666 C 234.447 46.206,236.586 44.047,237.917 42.358 C 238.375 41.776,239.305 40.614,239.983 39.775 C 240.661 38.936,241.779 37.500,242.467 36.583 C 246.900 30.682,249.241 28.286,250.495 28.367 C 251.224 28.415,251.248 28.434,251.201 28.917 " stroke="none" fill="#060607" fill-rule="evenodd"></path><path id="path2" d="M255.875 2.282 C 256.035 2.323,256.298 2.323,256.458 2.282 C 256.619 2.240,256.487 2.205,256.167 2.205 C 255.846 2.205,255.715 2.240,255.875 2.282 M255.186 10.542 C 255.172 10.875,255.246 10.999,255.458 10.997 C 255.643 10.996,255.681 10.950,255.561 10.872 C 255.457 10.805,255.334 10.600,255.289 10.417 C 255.225 10.161,255.201 10.190,255.186 10.542 M250.705 11.667 C 250.705 11.987,250.740 12.119,250.782 11.958 C 250.823 11.798,250.823 11.535,250.782 11.375 C 250.740 11.215,250.705 11.346,250.705 11.667 M245.161 26.625 L 244.250 27.583 245.208 26.672 C 246.099 25.826,246.243 25.667,246.119 25.667 C 246.093 25.667,245.662 26.098,245.161 26.625 M242.991 28.958 L 242.417 29.583 243.042 29.009 C 243.623 28.474,243.743 28.333,243.616 28.333 C 243.588 28.333,243.307 28.615,242.991 28.958 M250.042 28.448 C 250.202 28.490,250.465 28.490,250.625 28.448 C 250.785 28.406,250.654 28.372,250.333 28.372 C 250.012 28.372,249.881 28.406,250.042 28.448 M255.381 30.583 C 255.382 31.042,255.415 31.209,255.453 30.956 C 255.491 30.703,255.490 30.328,255.451 30.123 C 255.411 29.918,255.380 30.125,255.381 30.583 M261.917 34.833 C 262.275 35.200,262.605 35.500,262.651 35.500 C 262.697 35.500,262.441 35.200,262.083 34.833 C 261.725 34.467,261.395 34.167,261.349 34.167 C 261.303 34.167,261.559 34.467,261.917 34.833 M227.746 37.208 L 226.417 38.583 227.792 37.254 C 229.069 36.019,229.243 35.833,229.121 35.833 C 229.096 35.833,228.477 36.452,227.746 37.208 M231.746 42.708 L 230.583 43.917 231.792 42.754 C 232.914 41.675,233.076 41.500,232.954 41.500 C 232.928 41.500,232.385 42.044,231.746 42.708 M215.573 44.708 L 215.083 45.250 215.625 44.760 C 216.130 44.304,216.243 44.167,216.115 44.167 C 216.086 44.167,215.842 44.410,215.573 44.708 M221.406 45.042 L 220.917 45.583 221.458 45.094 C 221.963 44.638,222.077 44.500,221.948 44.500 C 221.919 44.500,221.675 44.744,221.406 45.042 M229.240 45.042 L 228.750 45.583 229.292 45.094 C 229.797 44.638,229.910 44.500,229.781 44.500 C 229.752 44.500,229.509 44.744,229.240 45.042 M213.240 46.875 L 212.750 47.417 213.292 46.927 C 213.797 46.471,213.910 46.333,213.781 46.333 C 213.752 46.333,213.509 46.577,213.240 46.875 M233.240 47.375 L 232.750 47.917 233.292 47.427 C 233.797 46.971,233.910 46.833,233.781 46.833 C 233.752 46.833,233.509 47.077,233.240 47.375 M160.740 47.542 L 160.250 48.083 160.792 47.594 C 161.090 47.325,161.333 47.081,161.333 47.052 C 161.333 46.923,161.196 47.037,160.740 47.542 M218.406 48.042 L 217.917 48.583 218.458 48.094 C 218.963 47.638,219.077 47.500,218.948 47.500 C 218.919 47.500,218.675 47.744,218.406 48.042 M211.073 48.875 L 210.583 49.417 211.125 48.927 C 211.630 48.471,211.743 48.333,211.615 48.333 C 211.586 48.333,211.342 48.577,211.073 48.875 M228.740 51.375 L 228.250 51.917 228.792 51.427 C 229.090 51.158,229.333 50.914,229.333 50.885 C 229.333 50.757,229.196 50.870,228.740 51.375 M161.042 56.750 C 161.044 57.117,161.078 57.247,161.118 57.040 C 161.158 56.832,161.156 56.532,161.115 56.373 C 161.073 56.214,161.040 56.383,161.042 56.750 M197.075 58.708 L 196.417 59.417 197.125 58.758 C 197.515 58.395,197.833 58.077,197.833 58.050 C 197.833 57.923,197.688 58.050,197.075 58.708 M181.548 60.750 C 181.549 61.208,181.581 61.376,181.620 61.123 C 181.658 60.869,181.657 60.494,181.617 60.289 C 181.578 60.084,181.546 60.292,181.548 60.750 M185.887 61.333 C 185.887 61.929,185.917 62.173,185.954 61.875 C 185.991 61.577,185.991 61.090,185.954 60.792 C 185.917 60.494,185.887 60.737,185.887 61.333 M200.075 61.875 L 199.417 62.583 200.125 61.925 C 200.515 61.562,200.833 61.243,200.833 61.216 C 200.833 61.090,200.688 61.216,200.075 61.875 M213.247 63.208 L 211.750 64.750 213.292 63.253 C 214.724 61.864,214.909 61.667,214.788 61.667 C 214.763 61.667,214.070 62.360,213.247 63.208 M210.740 65.542 L 210.250 66.083 210.792 65.594 C 211.297 65.138,211.410 65.000,211.281 65.000 C 211.252 65.000,211.009 65.244,210.740 65.542 M189.375 65.448 C 189.535 65.490,189.798 65.490,189.958 65.448 C 190.119 65.406,189.987 65.372,189.667 65.372 C 189.346 65.372,189.215 65.406,189.375 65.448 M216.333 66.250 C 215.928 66.662,215.635 67.000,215.681 67.000 C 215.726 67.000,216.095 66.662,216.500 66.250 C 216.905 65.837,217.199 65.500,217.153 65.500 C 217.107 65.500,216.738 65.837,216.333 66.250 M209.244 67.042 L 208.417 67.917 209.292 67.090 C 209.773 66.635,210.167 66.241,210.167 66.215 C 210.167 66.090,210.012 66.229,209.244 67.042 M163.539 66.833 C 163.539 67.154,163.573 67.285,163.615 67.125 C 163.657 66.965,163.657 66.702,163.615 66.542 C 163.573 66.381,163.539 66.512,163.539 66.833 M183.333 66.885 C 183.333 66.914,183.577 67.158,183.875 67.427 L 184.417 67.917 183.927 67.375 C 183.471 66.870,183.333 66.757,183.333 66.885 M163.548 68.250 C 163.549 68.708,163.581 68.876,163.620 68.623 C 163.658 68.369,163.657 67.994,163.617 67.789 C 163.578 67.584,163.546 67.792,163.548 68.250 M213.824 68.625 L 213.250 69.250 213.875 68.676 C 214.219 68.360,214.500 68.078,214.500 68.051 C 214.500 67.923,214.359 68.043,213.824 68.625 M159.205 69.000 C 159.205 69.321,159.240 69.452,159.282 69.292 C 159.323 69.131,159.323 68.869,159.282 68.708 C 159.240 68.548,159.205 68.679,159.205 69.000 M190.375 69.782 C 190.535 69.823,190.798 69.823,190.958 69.782 C 191.119 69.740,190.987 69.705,190.667 69.705 C 190.346 69.705,190.215 69.740,190.375 69.782 M114.294 71.785 C 114.501 71.824,114.801 71.823,114.960 71.781 C 115.120 71.739,114.950 71.707,114.583 71.709 C 114.217 71.711,114.086 71.745,114.294 71.785 M108.042 74.750 C 108.044 75.117,108.078 75.247,108.118 75.040 C 108.158 74.832,108.156 74.532,108.115 74.373 C 108.073 74.214,108.040 74.383,108.042 74.750 M140.542 76.282 C 140.702 76.323,140.965 76.323,141.125 76.282 C 141.285 76.240,141.154 76.205,140.833 76.205 C 140.512 76.205,140.381 76.240,140.542 76.282 M169.208 78.615 C 169.369 78.657,169.631 78.657,169.792 78.615 C 169.952 78.573,169.821 78.539,169.500 78.539 C 169.179 78.539,169.048 78.573,169.208 78.615 M182.705 80.333 C 182.705 80.654,182.740 80.785,182.782 80.625 C 182.823 80.465,182.823 80.202,182.782 80.042 C 182.740 79.881,182.705 80.012,182.705 80.333 M160.875 80.282 C 161.035 80.323,161.298 80.323,161.458 80.282 C 161.619 80.240,161.487 80.205,161.167 80.205 C 160.846 80.205,160.715 80.240,160.875 80.282 M162.960 80.451 C 163.168 80.491,163.468 80.490,163.627 80.448 C 163.786 80.406,163.617 80.374,163.250 80.375 C 162.883 80.377,162.753 80.411,162.960 80.451 M166.208 80.619 C 166.460 80.658,166.873 80.658,167.125 80.619 C 167.377 80.581,167.171 80.550,166.667 80.550 C 166.162 80.550,165.956 80.581,166.208 80.619 M169.708 80.615 C 169.869 80.657,170.131 80.657,170.292 80.615 C 170.452 80.573,170.321 80.539,170.000 80.539 C 169.679 80.539,169.548 80.573,169.708 80.615 M125.295 80.954 C 125.594 80.991,126.044 80.990,126.295 80.952 C 126.545 80.914,126.300 80.884,125.750 80.885 C 125.200 80.886,124.995 80.917,125.295 80.954 M127.460 80.951 C 127.668 80.991,127.968 80.990,128.127 80.948 C 128.286 80.906,128.117 80.874,127.750 80.875 C 127.383 80.877,127.253 80.911,127.460 80.951 M242.208 82.956 C 242.644 82.990,243.356 82.990,243.792 82.956 C 244.227 82.922,243.871 82.893,243.000 82.893 C 242.129 82.893,241.773 82.922,242.208 82.956 M164.542 84.953 C 164.794 84.991,165.206 84.991,165.458 84.953 C 165.710 84.915,165.504 84.883,165.000 84.883 C 164.496 84.883,164.290 84.915,164.542 84.953 M170.708 84.948 C 170.869 84.990,171.131 84.990,171.292 84.948 C 171.452 84.906,171.321 84.872,171.000 84.872 C 170.679 84.872,170.548 84.906,170.708 84.948 M124.792 85.290 C 125.365 85.323,126.302 85.323,126.875 85.290 C 127.448 85.258,126.979 85.231,125.833 85.231 C 124.688 85.231,124.219 85.258,124.792 85.290 M242.458 87.284 C 242.665 87.324,243.002 87.324,243.208 87.284 C 243.415 87.245,243.246 87.212,242.833 87.212 C 242.421 87.212,242.252 87.245,242.458 87.284 M225.294 88.785 C 225.501 88.824,225.801 88.823,225.960 88.781 C 226.120 88.739,225.950 88.707,225.583 88.709 C 225.217 88.711,225.086 88.745,225.294 88.785 M174.294 92.618 C 174.501 92.658,174.801 92.656,174.960 92.615 C 175.120 92.573,174.950 92.540,174.583 92.542 C 174.217 92.544,174.086 92.578,174.294 92.618 M177.042 92.788 C 177.385 92.824,177.948 92.824,178.292 92.788 C 178.635 92.752,178.354 92.723,177.667 92.723 C 176.979 92.723,176.698 92.752,177.042 92.788 M280.740 93.208 L 280.250 93.750 280.792 93.260 C 281.297 92.804,281.410 92.667,281.281 92.667 C 281.252 92.667,281.009 92.910,280.740 93.208 M181.960 92.951 C 182.168 92.991,182.468 92.990,182.627 92.948 C 182.786 92.906,182.617 92.874,182.250 92.875 C 181.883 92.877,181.753 92.911,181.960 92.951 M224.963 93.122 C 225.355 93.157,225.955 93.157,226.296 93.121 C 226.637 93.085,226.317 93.057,225.583 93.057 C 224.850 93.058,224.571 93.087,224.963 93.122 M185.000 93.719 C 185.000 93.748,185.244 93.991,185.542 94.260 L 186.083 94.750 185.594 94.208 C 185.138 93.703,185.000 93.590,185.000 93.719 M172.042 96.782 C 172.202 96.823,172.465 96.823,172.625 96.782 C 172.785 96.740,172.654 96.705,172.333 96.705 C 172.012 96.705,171.881 96.740,172.042 96.782 M174.375 96.948 C 174.535 96.990,174.798 96.990,174.958 96.948 C 175.119 96.906,174.987 96.872,174.667 96.872 C 174.346 96.872,174.215 96.906,174.375 96.948 M180.708 97.286 C 180.960 97.324,181.373 97.324,181.625 97.286 C 181.877 97.248,181.671 97.217,181.167 97.217 C 180.662 97.217,180.456 97.248,180.708 97.286 M254.398 113.667 C 254.398 114.813,254.424 115.281,254.457 114.708 C 254.489 114.135,254.489 113.198,254.457 112.625 C 254.424 112.052,254.398 112.521,254.398 113.667 M250.039 116.500 C 250.039 116.821,250.073 116.952,250.115 116.792 C 250.157 116.631,250.157 116.369,250.115 116.208 C 250.073 116.048,250.039 116.179,250.039 116.500 M254.217 119.500 C 254.217 120.004,254.248 120.210,254.286 119.958 C 254.324 119.706,254.324 119.294,254.286 119.042 C 254.248 118.790,254.217 118.996,254.217 119.500 M228.545 122.500 C 228.545 122.912,228.578 123.081,228.618 122.875 C 228.657 122.669,228.657 122.331,228.618 122.125 C 228.578 121.919,228.545 122.087,228.545 122.500 M232.883 123.000 C 232.883 123.504,232.915 123.710,232.953 123.458 C 232.991 123.206,232.991 122.794,232.953 122.542 C 232.915 122.290,232.883 122.496,232.883 123.000 M249.372 126.167 C 249.372 126.487,249.406 126.619,249.448 126.458 C 249.490 126.298,249.490 126.035,249.448 125.875 C 249.406 125.715,249.372 125.846,249.372 126.167 M253.539 128.667 C 253.539 128.987,253.573 129.119,253.615 128.958 C 253.657 128.798,253.657 128.535,253.615 128.375 C 253.573 128.215,253.539 128.346,253.539 128.667 M232.879 130.000 C 232.879 130.412,232.911 130.581,232.951 130.375 C 232.991 130.169,232.991 129.831,232.951 129.625 C 232.911 129.419,232.879 129.587,232.879 130.000 M236.039 149.833 C 236.039 150.154,236.073 150.285,236.115 150.125 C 236.157 149.965,236.157 149.702,236.115 149.542 C 236.073 149.381,236.039 149.512,236.039 149.833 M236.218 153.250 C 236.219 153.800,236.250 154.005,236.287 153.705 C 236.325 153.406,236.324 152.956,236.286 152.705 C 236.248 152.455,236.217 152.700,236.218 153.250 M232.045 154.167 C 232.045 154.579,232.078 154.748,232.118 154.542 C 232.157 154.335,232.157 153.998,232.118 153.792 C 232.078 153.585,232.045 153.754,232.045 154.167 M249.881 155.583 C 249.882 156.042,249.915 156.209,249.953 155.956 C 249.991 155.703,249.990 155.328,249.951 155.123 C 249.911 154.918,249.880 155.125,249.881 155.583 M245.705 157.000 C 245.705 157.321,245.740 157.452,245.782 157.292 C 245.823 157.131,245.823 156.869,245.782 156.708 C 245.740 156.548,245.705 156.679,245.705 157.000 M233.552 165.917 C 233.553 166.467,233.584 166.672,233.621 166.372 C 233.658 166.072,233.657 165.622,233.619 165.372 C 233.581 165.122,233.551 165.367,233.552 165.917 M237.712 168.833 C 237.712 169.246,237.745 169.415,237.784 169.208 C 237.824 169.002,237.824 168.665,237.784 168.458 C 237.745 168.252,237.712 168.421,237.712 168.833 M233.372 168.833 C 233.372 169.154,233.406 169.285,233.448 169.125 C 233.490 168.965,233.490 168.702,233.448 168.542 C 233.406 168.381,233.372 168.512,233.372 168.833 M247.042 169.417 C 247.044 169.783,247.078 169.914,247.118 169.706 C 247.158 169.499,247.156 169.199,247.115 169.040 C 247.073 168.880,247.040 169.050,247.042 169.417 M233.236 175.417 C 233.236 177.067,233.261 177.719,233.291 176.867 C 233.321 176.014,233.321 174.664,233.291 173.867 C 233.260 173.069,233.235 173.767,233.236 175.417 M237.542 178.583 C 237.544 178.950,237.578 179.080,237.618 178.873 C 237.658 178.666,237.656 178.366,237.615 178.206 C 237.573 178.047,237.540 178.217,237.542 178.583 M237.392 183.917 C 237.392 184.742,237.420 185.100,237.455 184.713 C 237.490 184.327,237.490 183.652,237.456 183.213 C 237.422 182.775,237.393 183.092,237.392 183.917 M233.064 184.583 C 233.064 185.683,233.091 186.112,233.124 185.535 C 233.156 184.959,233.156 184.059,233.123 183.535 C 233.090 183.012,233.063 183.483,233.064 184.583 M237.212 188.833 C 237.212 189.246,237.245 189.415,237.284 189.208 C 237.324 189.002,237.324 188.665,237.284 188.458 C 237.245 188.252,237.212 188.421,237.212 188.833 M237.039 191.000 C 237.039 191.321,237.073 191.452,237.115 191.292 C 237.157 191.131,237.157 190.869,237.115 190.708 C 237.073 190.548,237.039 190.679,237.039 191.000 M241.045 198.500 C 241.045 198.912,241.078 199.081,241.118 198.875 C 241.157 198.669,241.157 198.331,241.118 198.125 C 241.078 197.919,241.045 198.088,241.045 198.500 M233.075 202.542 L 232.417 203.250 233.125 202.591 C 233.784 201.978,233.910 201.833,233.784 201.833 C 233.757 201.833,233.438 202.152,233.075 202.542 M231.877 210.286 C 232.131 210.325,232.506 210.324,232.711 210.284 C 232.916 210.244,232.708 210.213,232.250 210.214 C 231.792 210.216,231.624 210.248,231.877 210.286 M233.875 210.282 C 234.035 210.323,234.298 210.323,234.458 210.282 C 234.619 210.240,234.487 210.205,234.167 210.205 C 233.846 210.205,233.715 210.240,233.875 210.282 M220.961 211.621 C 221.261 211.658,221.711 211.657,221.961 211.619 C 222.212 211.581,221.967 211.551,221.417 211.552 C 220.867 211.553,220.662 211.584,220.961 211.621 M220.049 215.957 C 220.764 215.989,221.889 215.988,222.549 215.957 C 223.210 215.925,222.625 215.900,221.250 215.900 C 219.875 215.900,219.335 215.926,220.049 215.957 " stroke="none" fill="#9a9b9b" fill-rule="evenodd"></path><path id="path3" d="M258.500 3.052 C 258.500 3.081,258.744 3.325,259.042 3.594 L 259.583 4.083 259.094 3.542 C 258.638 3.037,258.500 2.923,258.500 3.052 M265.167 13.750 C 265.478 14.071,265.770 14.333,265.815 14.333 C 265.861 14.333,265.644 14.071,265.333 13.750 C 265.022 13.429,264.730 13.167,264.685 13.167 C 264.639 13.167,264.856 13.429,265.167 13.750 M244.406 18.042 L 243.917 18.583 244.458 18.094 C 244.963 17.638,245.077 17.500,244.948 17.500 C 244.919 17.500,244.675 17.744,244.406 18.042 M267.205 18.000 C 267.205 18.321,267.240 18.452,267.282 18.292 C 267.323 18.131,267.323 17.869,267.282 17.708 C 267.240 17.548,267.205 17.679,267.205 18.000 M252.795 24.287 C 253.094 24.325,253.544 24.324,253.795 24.286 C 254.045 24.248,253.800 24.217,253.250 24.218 C 252.700 24.219,252.495 24.250,252.795 24.287 M244.240 27.708 L 243.750 28.250 244.292 27.760 C 244.797 27.304,244.910 27.167,244.781 27.167 C 244.752 27.167,244.509 27.410,244.240 27.708 M223.658 35.292 L 223.083 35.917 223.708 35.342 C 224.290 34.808,224.410 34.667,224.283 34.667 C 224.255 34.667,223.974 34.948,223.658 35.292 M217.246 43.208 L 215.917 44.583 217.292 43.254 C 218.048 42.523,218.667 41.904,218.667 41.879 C 218.667 41.757,218.481 41.931,217.246 43.208 M170.625 43.118 C 170.831 43.157,171.169 43.157,171.375 43.118 C 171.581 43.078,171.412 43.045,171.000 43.045 C 170.587 43.045,170.419 43.078,170.625 43.118 M172.294 43.118 C 172.501 43.158,172.801 43.156,172.960 43.115 C 173.120 43.073,172.950 43.040,172.583 43.042 C 172.217 43.044,172.086 43.078,172.294 43.118 M211.906 48.208 L 211.417 48.750 211.958 48.260 C 212.256 47.991,212.500 47.748,212.500 47.719 C 212.500 47.590,212.362 47.703,211.906 48.208 M156.705 57.000 C 156.705 57.321,156.740 57.452,156.782 57.292 C 156.823 57.131,156.823 56.869,156.782 56.708 C 156.740 56.548,156.705 56.679,156.705 57.000 M185.893 58.500 C 185.893 59.371,185.922 59.727,185.956 59.292 C 185.990 58.856,185.990 58.144,185.956 57.708 C 185.922 57.273,185.893 57.629,185.893 58.500 M197.906 58.042 L 197.417 58.583 197.958 58.094 C 198.463 57.638,198.577 57.500,198.448 57.500 C 198.419 57.500,198.175 57.744,197.906 58.042 M156.709 58.250 C 156.711 58.617,156.745 58.747,156.785 58.540 C 156.824 58.332,156.823 58.032,156.781 57.873 C 156.739 57.714,156.707 57.883,156.709 58.250 M181.705 58.333 C 181.705 58.654,181.740 58.785,181.782 58.625 C 181.823 58.465,181.823 58.202,181.782 58.042 C 181.740 57.881,181.705 58.012,181.705 58.333 M215.158 67.292 L 214.583 67.917 215.208 67.342 C 215.552 67.026,215.833 66.745,215.833 66.717 C 215.833 66.590,215.692 66.710,215.158 67.292 M212.658 69.625 L 212.083 70.250 212.708 69.676 C 213.052 69.360,213.333 69.078,213.333 69.051 C 213.333 68.923,213.192 69.043,212.658 69.625 M111.708 71.788 C 112.052 71.824,112.615 71.824,112.958 71.788 C 113.302 71.752,113.021 71.723,112.333 71.723 C 111.646 71.723,111.365 71.752,111.708 71.788 M291.879 76.333 C 291.879 76.746,291.911 76.915,291.951 76.708 C 291.991 76.502,291.991 76.165,291.951 75.958 C 291.911 75.752,291.879 75.921,291.879 76.333 M165.750 76.833 C 166.108 77.200,166.438 77.500,166.484 77.500 C 166.530 77.500,166.275 77.200,165.917 76.833 C 165.559 76.467,165.228 76.167,165.182 76.167 C 165.137 76.167,165.392 76.467,165.750 76.833 M291.879 77.833 C 291.879 78.246,291.911 78.415,291.951 78.208 C 291.991 78.002,291.991 77.665,291.951 77.458 C 291.911 77.252,291.879 77.421,291.879 77.833 M159.875 80.282 C 160.035 80.323,160.298 80.323,160.458 80.282 C 160.619 80.240,160.487 80.205,160.167 80.205 C 159.846 80.205,159.715 80.240,159.875 80.282 M164.542 80.615 C 164.702 80.657,164.965 80.657,165.125 80.615 C 165.285 80.573,165.154 80.539,164.833 80.539 C 164.512 80.539,164.381 80.573,164.542 80.615 M217.660 85.042 C 218.350 85.778,218.500 85.910,218.500 85.785 C 218.500 85.758,218.144 85.402,217.708 84.993 L 216.917 84.250 217.660 85.042 M167.215 84.957 C 167.838 84.989,168.813 84.989,169.382 84.957 C 169.951 84.924,169.442 84.898,168.250 84.898 C 167.058 84.898,166.593 84.925,167.215 84.957 M243.875 87.282 C 244.035 87.323,244.298 87.323,244.458 87.282 C 244.619 87.240,244.487 87.205,244.167 87.205 C 243.846 87.205,243.715 87.240,243.875 87.282 M283.158 90.958 L 282.583 91.583 283.208 91.009 C 283.790 90.474,283.910 90.333,283.783 90.333 C 283.755 90.333,283.474 90.615,283.158 90.958 M179.877 92.953 C 180.131 92.991,180.506 92.990,180.711 92.951 C 180.916 92.911,180.708 92.880,180.250 92.881 C 179.792 92.882,179.624 92.915,179.877 92.953 M173.208 96.782 C 173.369 96.823,173.631 96.823,173.792 96.782 C 173.952 96.740,173.821 96.705,173.500 96.705 C 173.179 96.705,173.048 96.740,173.208 96.782 M189.333 100.750 C 189.644 101.071,189.936 101.333,189.982 101.333 C 190.028 101.333,189.811 101.071,189.500 100.750 C 189.189 100.429,188.897 100.167,188.851 100.167 C 188.805 100.167,189.022 100.429,189.333 100.750 M250.223 112.333 C 250.223 113.021,250.252 113.302,250.288 112.958 C 250.324 112.615,250.324 112.052,250.288 111.708 C 250.252 111.365,250.223 111.646,250.223 112.333 M254.218 117.250 C 254.219 117.800,254.250 118.005,254.287 117.705 C 254.325 117.406,254.324 116.956,254.286 116.705 C 254.248 116.455,254.217 116.700,254.218 117.250 M232.885 121.083 C 232.886 121.633,232.917 121.838,232.954 121.539 C 232.991 121.239,232.990 120.789,232.952 120.539 C 232.914 120.288,232.884 120.533,232.885 121.083 M254.039 121.333 C 254.039 121.654,254.073 121.785,254.115 121.625 C 254.157 121.465,254.157 121.202,254.115 121.042 C 254.073 120.881,254.039 121.013,254.039 121.333 M228.569 126.250 C 228.569 127.900,228.594 128.552,228.624 127.700 C 228.655 126.847,228.654 125.497,228.624 124.700 C 228.593 123.902,228.569 124.600,228.569 126.250 M232.730 126.167 C 232.730 127.221,232.757 127.652,232.790 127.125 C 232.823 126.598,232.823 125.735,232.790 125.208 C 232.757 124.681,232.730 125.112,232.730 126.167 M236.045 151.167 C 236.045 151.579,236.078 151.748,236.118 151.542 C 236.157 151.335,236.157 150.998,236.118 150.792 C 236.078 150.585,236.045 150.754,236.045 151.167 M245.721 155.250 C 245.722 155.892,245.752 156.134,245.788 155.788 C 245.824 155.442,245.824 154.917,245.787 154.621 C 245.750 154.325,245.721 154.608,245.721 155.250 M237.712 164.333 C 237.712 164.746,237.745 164.915,237.784 164.708 C 237.824 164.502,237.824 164.165,237.784 163.958 C 237.745 163.752,237.712 163.921,237.712 164.333 M251.230 169.250 C 251.231 170.350,251.258 170.778,251.290 170.202 C 251.323 169.625,251.323 168.725,251.290 168.202 C 251.257 167.678,251.230 168.150,251.230 169.250 M233.385 170.417 C 233.386 170.967,233.417 171.172,233.454 170.872 C 233.491 170.572,233.490 170.122,233.452 169.872 C 233.414 169.622,233.384 169.867,233.385 170.417 M237.571 174.083 C 237.571 176.008,237.595 176.773,237.624 175.783 C 237.654 174.792,237.654 173.217,237.624 172.283 C 237.595 171.348,237.570 172.158,237.571 174.083 M233.226 180.417 C 233.225 181.242,233.254 181.600,233.288 181.213 C 233.323 180.827,233.324 180.152,233.289 179.713 C 233.255 179.275,233.226 179.592,233.226 180.417 M237.372 181.000 C 237.372 181.321,237.406 181.452,237.448 181.292 C 237.490 181.131,237.490 180.869,237.448 180.708 C 237.406 180.548,237.372 180.679,237.372 181.000 M237.214 187.250 C 237.216 187.708,237.248 187.876,237.286 187.623 C 237.325 187.369,237.324 186.994,237.284 186.789 C 237.244 186.584,237.213 186.792,237.214 187.250 M233.048 187.750 C 233.049 188.208,233.081 188.376,233.120 188.123 C 233.158 187.869,233.157 187.494,233.117 187.289 C 233.078 187.084,233.046 187.292,233.048 187.750 M241.055 200.250 C 241.055 200.892,241.086 201.134,241.122 200.788 C 241.158 200.442,241.157 199.917,241.120 199.621 C 241.083 199.325,241.054 199.608,241.055 200.250 M245.212 199.833 C 245.212 200.246,245.245 200.415,245.284 200.208 C 245.324 200.002,245.324 199.665,245.284 199.458 C 245.245 199.252,245.212 199.421,245.212 199.833 M241.883 208.000 C 241.883 208.504,241.915 208.710,241.953 208.458 C 241.991 208.206,241.991 207.794,241.953 207.542 C 241.915 207.290,241.883 207.496,241.883 208.000 M238.792 210.951 C 238.998 210.991,239.335 210.991,239.542 210.951 C 239.748 210.911,239.579 210.879,239.167 210.879 C 238.754 210.879,238.585 210.911,238.792 210.951 M219.627 211.618 C 219.834 211.658,220.134 211.656,220.294 211.615 C 220.453 211.573,220.283 211.540,219.917 211.542 C 219.550 211.544,219.420 211.578,219.627 211.618 M222.792 211.618 C 222.998 211.657,223.335 211.657,223.542 211.618 C 223.748 211.578,223.579 211.545,223.167 211.545 C 222.754 211.545,222.585 211.578,222.792 211.618 M231.708 214.615 C 231.869 214.657,232.131 214.657,232.292 214.615 C 232.452 214.573,232.321 214.539,232.000 214.539 C 231.679 214.539,231.548 214.573,231.708 214.615 M233.542 214.615 C 233.702 214.657,233.965 214.657,234.125 214.615 C 234.285 214.573,234.154 214.539,233.833 214.539 C 233.512 214.539,233.381 214.573,233.542 214.615 M217.875 215.782 C 218.035 215.823,218.298 215.823,218.458 215.782 C 218.619 215.740,218.487 215.705,218.167 215.705 C 217.846 215.705,217.715 215.740,217.875 215.782 " stroke="none" fill="#7c7376" fill-rule="evenodd"></path><path id="path4" d="M283.573 84.708 L 283.083 85.250 283.625 84.760 C 284.130 84.304,284.243 84.167,284.115 84.167 C 284.086 84.167,283.842 84.410,283.573 84.708 M237.372 182.000 C 237.372 182.321,237.406 182.452,237.448 182.292 C 237.490 182.131,237.490 181.869,237.448 181.708 C 237.406 181.548,237.372 181.679,237.372 182.000 " stroke="none" fill="#747c7a" fill-rule="evenodd"></path></g></svg>