<svg id="svg" version="1.1" xmlns="http://www.w3.org/2000/svg" xmlns:xlink="http://www.w3.org/1999/xlink" width="400" height="218.1818181818182" viewBox="0, 0, 400,218.1818181818182"><g id="svgg"><path id="path0" d="M25.667 0.475 C 7.179 5.345,-3.771 24.418,1.268 42.973 C 3.995 53.013,11.057 60.816,22.000 65.879 C 30.160 69.655,33.681 75.955,35.828 90.622 C 38.149 106.480,39.974 112.523,45.011 121.016 C 49.385 128.393,49.697 128.735,75.908 154.820 C 96.509 175.322,104.522 183.332,105.764 184.667 C 109.414 188.587,112.915 192.703,116.467 197.247 C 119.832 201.553,121.407 203.377,123.417 205.297 C 130.325 211.895,137.595 215.777,146.722 217.742 C 149.777 218.400,164.467 218.401,167.583 217.743 C 176.771 215.804,184.338 212.111,194.327 204.691 C 197.687 202.194,199.196 200.965,207.333 194.099 C 223.793 180.209,234.045 170.383,253.694 149.661 C 267.218 135.398,273.432 131.073,287.333 126.249 C 294.872 123.634,296.019 123.209,300.167 121.497 C 309.183 117.777,320.319 110.082,329.083 101.515 C 330.183 100.440,333.521 97.214,336.500 94.346 C 339.479 91.479,342.142 88.893,342.417 88.601 C 344.358 86.540,355.597 76.372,357.026 75.383 C 361.522 72.276,366.216 71.096,370.833 71.912 C 376.625 72.937,378.582 72.894,381.489 71.678 C 386.885 69.422,388.743 65.355,389.758 53.583 C 390.203 48.432,390.481 46.300,391.014 43.949 C 391.321 42.597,391.675 41.543,393.537 36.417 C 393.904 35.408,394.338 34.171,394.502 33.667 C 394.666 33.162,394.878 32.563,394.973 32.333 C 395.146 31.914,395.870 30.008,396.619 28.000 C 396.841 27.404,397.400 25.792,397.861 24.417 C 398.323 23.042,398.766 21.793,398.847 21.642 C 400.808 17.966,400.000 12.072,397.209 9.682 C 392.355 5.526,386.700 7.137,382.439 13.889 C 380.059 17.660,357.771 40.327,351.833 45.015 C 349.964 46.491,344.730 50.443,342.667 51.937 C 339.852 53.975,333.263 57.739,324.250 62.458 C 322.325 63.466,319.604 64.900,318.203 65.645 C 316.802 66.390,315.626 67.000,315.589 67.000 C 315.553 67.000,314.283 67.675,312.768 68.500 C 311.253 69.325,309.968 70.000,309.912 70.000 C 309.856 70.000,309.009 70.440,308.030 70.979 C 307.051 71.517,305.500 72.354,304.583 72.839 C 303.667 73.323,302.108 74.158,301.119 74.693 C 300.130 75.229,299.291 75.667,299.255 75.667 C 299.219 75.667,298.040 76.291,296.636 77.055 C 295.232 77.818,293.333 78.840,292.417 79.326 C 291.500 79.813,289.813 80.715,288.667 81.332 C 285.408 83.087,284.028 83.825,282.500 84.631 C 281.721 85.042,280.671 85.603,280.167 85.878 C 279.346 86.325,276.624 87.768,272.000 90.207 C 271.129 90.666,269.994 91.295,269.478 91.604 C 268.962 91.914,268.500 92.167,268.453 92.167 C 268.405 92.167,267.903 92.428,267.337 92.748 L 266.310 93.329 264.113 92.675 C 261.748 91.972,255.739 90.172,250.941 88.730 C 241.659 85.941,239.069 85.600,224.536 85.254 C 218.787 85.117,211.983 84.927,209.417 84.832 C 206.850 84.737,201.112 84.549,196.667 84.414 C 192.221 84.279,186.708 84.090,184.417 83.994 C 177.014 83.684,172.816 84.019,157.000 86.187 C 151.933 86.882,147.158 86.793,141.333 85.896 C 131.937 84.448,128.138 83.876,121.000 82.835 C 109.995 81.230,108.294 80.928,104.000 79.819 C 100.101 78.812,99.540 78.671,97.500 78.184 C 89.250 76.216,87.176 75.874,81.239 75.500 C 74.644 75.085,70.113 71.568,68.588 65.683 C 68.149 63.992,68.077 64.097,70.458 62.976 C 75.919 60.406,77.175 59.619,78.594 57.876 C 80.914 55.029,81.804 50.766,80.777 47.417 C 80.091 45.181,77.768 39.189,76.835 37.250 C 76.659 36.883,76.239 35.946,75.902 35.167 C 71.422 24.794,62.317 11.588,56.238 6.644 C 52.796 3.846,48.770 1.808,44.077 0.491 L 42.330 0.000 34.873 0.007 L 27.417 0.014 25.667 0.475 M38.173 5.906 C 45.674 6.848,51.418 10.097,56.606 16.333 C 62.416 23.317,66.864 30.691,71.032 40.250 C 76.343 52.429,76.206 53.135,67.770 57.099 C 60.559 60.489,60.646 60.357,61.996 65.762 C 63.236 70.726,64.547 73.276,67.282 76.042 C 67.894 76.660,68.456 77.167,68.531 77.167 C 68.892 77.167,68.604 77.502,68.125 77.639 C 64.277 78.736,58.109 82.636,57.177 84.562 C 56.058 86.873,58.191 89.577,60.690 89.014 C 61.436 88.845,61.334 88.909,63.731 87.123 C 71.025 81.691,81.555 80.589,94.167 83.939 C 95.404 84.268,97.167 84.713,98.083 84.929 C 99.000 85.144,100.575 85.549,101.583 85.829 C 104.436 86.620,108.313 87.445,111.417 87.921 C 115.894 88.608,120.749 89.320,122.833 89.595 C 124.752 89.848,126.073 90.053,131.833 90.989 C 141.453 92.552,145.994 93.061,150.333 93.063 C 153.904 93.065,155.188 92.955,160.960 92.156 C 175.654 90.122,173.993 90.173,199.167 90.993 C 211.007 91.379,215.499 91.501,223.917 91.665 C 238.135 91.943,241.545 92.422,251.147 95.488 C 254.058 96.418,258.833 97.842,262.833 98.974 C 263.796 99.247,266.034 99.889,267.807 100.401 C 269.580 100.914,271.155 101.334,271.307 101.336 C 271.459 101.337,271.696 101.417,271.833 101.514 C 272.008 101.636,268.215 101.657,259.167 101.581 C 247.998 101.488,245.776 101.511,242.750 101.749 C 237.277 102.179,234.621 101.759,230.322 99.783 C 226.981 98.247,224.853 98.437,209.935 101.602 C 196.883 104.370,192.154 105.362,187.667 106.269 C 185.146 106.778,182.483 107.296,181.750 107.419 C 181.017 107.542,179.519 107.800,178.421 107.992 C 172.268 109.067,164.373 109.120,155.750 108.145 C 153.308 107.869,148.736 107.935,143.250 108.326 C 134.817 108.927,131.346 109.170,127.667 109.418 C 125.696 109.550,123.108 109.736,121.917 109.831 C 120.725 109.925,118.025 110.115,115.917 110.252 C 113.808 110.389,111.033 110.579,109.750 110.673 C 108.467 110.768,105.879 110.952,104.000 111.084 C 102.121 111.215,99.121 111.436,97.333 111.573 C 95.546 111.710,92.321 111.937,90.167 112.076 C 78.224 112.849,78.305 112.835,77.361 114.260 C 76.366 115.763,76.557 117.286,77.884 118.421 C 79.048 119.418,78.757 119.420,93.250 118.340 C 99.174 117.899,103.026 117.624,110.917 117.080 C 115.592 116.758,120.761 116.386,122.405 116.256 C 125.914 115.976,125.396 115.786,126.753 117.850 C 127.357 118.769,128.508 120.435,129.310 121.552 C 130.851 123.699,132.530 126.062,133.926 128.050 C 134.390 128.710,135.860 130.862,137.193 132.833 C 138.526 134.804,139.855 136.754,140.147 137.167 C 140.439 137.579,141.116 138.554,141.652 139.333 C 142.189 140.112,143.330 141.698,144.189 142.858 C 151.008 152.061,150.506 151.290,149.957 151.743 C 148.994 152.538,146.390 154.748,146.083 155.032 C 145.900 155.201,143.462 157.223,140.667 159.525 C 137.871 161.827,134.257 164.828,132.636 166.195 C 131.014 167.561,129.018 169.220,128.199 169.881 C 126.679 171.108,122.875 174.250,119.583 176.997 C 118.575 177.839,117.188 178.988,116.500 179.550 C 115.813 180.113,114.698 181.060,114.024 181.656 L 112.797 182.740 112.292 182.162 C 110.009 179.549,105.699 175.146,97.583 167.136 C 72.084 141.968,57.012 126.704,54.587 123.589 C 47.739 114.794,44.595 106.368,42.425 91.000 C 40.954 80.579,40.167 77.487,37.768 72.702 C 34.614 66.413,31.111 63.146,23.435 59.333 C 12.876 54.089,6.939 45.414,6.555 34.667 C 5.944 17.570,21.120 3.766,38.173 5.906 M392.615 14.422 C 394.006 15.333,393.600 18.040,391.167 24.083 C 391.056 24.358,390.646 25.483,390.255 26.583 C 389.168 29.642,387.411 34.480,386.411 37.167 C 384.562 42.137,384.093 44.483,383.506 51.709 C 382.392 65.423,381.052 67.171,372.750 65.732 C 366.188 64.595,360.705 65.555,355.415 68.767 C 353.910 69.681,354.177 69.777,352.941 67.875 C 346.582 58.092,346.032 57.151,346.547 56.954 C 347.061 56.757,355.759 50.073,358.583 47.705 C 359.500 46.937,365.415 41.157,371.727 34.862 C 383.612 23.009,384.366 22.189,387.829 17.333 C 390.222 13.978,391.112 13.437,392.615 14.422 M341.414 61.875 C 341.759 62.448,342.496 63.629,343.051 64.500 C 343.607 65.371,344.298 66.458,344.587 66.917 C 345.911 69.016,347.285 71.179,347.953 72.214 C 348.354 72.837,348.719 73.444,348.765 73.564 C 348.814 73.691,348.099 74.463,347.050 75.418 C 344.785 77.477,343.139 79.010,341.333 80.741 C 340.554 81.488,339.279 82.692,338.500 83.416 C 337.721 84.140,335.133 86.610,332.750 88.903 C 324.924 96.434,324.431 96.907,322.912 98.335 C 320.160 100.923,319.769 101.261,316.733 103.680 C 313.509 106.247,311.812 107.507,309.417 109.110 C 307.968 110.079,304.557 112.167,304.422 112.167 C 304.386 112.167,303.395 112.686,302.220 113.321 C 298.165 115.513,293.570 117.372,286.250 119.780 C 275.923 123.178,269.035 126.869,261.369 133.112 C 257.710 136.091,257.085 136.717,241.261 153.249 C 230.921 164.053,220.350 174.260,212.250 181.262 C 210.783 182.530,208.721 184.324,207.667 185.249 C 205.388 187.247,201.900 190.222,200.337 191.500 C 199.720 192.004,198.061 193.361,196.649 194.516 C 187.176 202.265,181.917 205.663,174.417 208.880 C 164.922 212.953,153.183 213.402,143.341 210.068 C 135.153 207.294,128.920 202.618,122.833 194.682 C 121.962 193.546,120.331 191.459,119.208 190.044 C 118.085 188.629,117.167 187.452,117.167 187.430 C 117.167 187.408,118.198 186.530,119.458 185.480 C 124.654 181.150,126.794 179.377,127.683 178.667 C 128.736 177.824,131.991 175.135,134.750 172.829 C 135.758 171.986,137.146 170.826,137.833 170.252 C 138.521 169.677,140.471 168.058,142.167 166.653 C 143.862 165.249,146.776 162.821,148.641 161.258 C 154.003 156.764,154.534 156.333,154.715 156.333 C 154.809 156.333,156.509 157.941,158.492 159.905 C 160.635 162.028,162.264 163.511,162.507 163.562 C 164.398 163.957,164.915 163.834,166.583 162.594 C 168.635 161.068,174.184 157.072,176.956 155.124 C 177.576 154.689,178.833 153.803,179.750 153.156 C 181.224 152.116,183.344 150.652,191.052 145.354 C 197.765 140.739,207.818 134.008,217.953 127.343 C 222.117 124.604,223.633 123.616,228.417 120.524 C 232.351 117.981,234.959 116.317,236.447 115.400 C 237.381 114.825,238.656 114.025,239.281 113.622 C 239.905 113.218,242.179 111.770,244.333 110.402 L 248.250 107.917 256.000 108.000 C 260.262 108.046,266.450 108.083,269.750 108.083 L 275.750 108.083 276.741 107.597 C 281.616 105.203,281.076 97.363,275.947 96.076 C 275.178 95.883,275.223 95.848,278.167 94.293 C 279.037 93.833,280.125 93.251,280.583 92.999 C 281.042 92.747,282.092 92.184,282.917 91.748 C 283.742 91.311,285.358 90.447,286.508 89.827 C 287.658 89.207,289.421 88.270,290.425 87.743 C 291.429 87.217,292.672 86.535,293.188 86.227 C 293.705 85.919,294.164 85.667,294.210 85.667 C 294.255 85.667,294.921 85.319,295.688 84.894 C 296.455 84.470,298.471 83.391,300.167 82.498 C 301.862 81.606,304.975 79.956,307.083 78.832 C 309.192 77.709,312.079 76.186,313.500 75.449 C 314.921 74.711,316.363 73.934,316.705 73.721 C 317.047 73.508,317.376 73.333,317.435 73.333 C 317.495 73.333,318.190 72.968,318.980 72.522 C 319.770 72.075,321.542 71.128,322.917 70.416 C 324.292 69.704,325.492 69.068,325.583 69.003 C 325.675 68.938,326.725 68.375,327.917 67.752 C 332.603 65.299,337.492 62.662,339.000 61.773 C 340.923 60.639,340.662 60.628,341.414 61.875 M229.052 106.230 C 231.538 107.244,232.775 107.637,234.320 107.902 C 235.769 108.152,235.735 108.265,233.868 109.406 C 232.496 110.245,222.968 116.354,218.583 119.206 C 212.683 123.045,194.385 135.225,190.917 137.623 C 186.967 140.355,183.760 142.552,181.583 144.019 C 180.300 144.884,176.565 147.502,173.284 149.837 C 170.002 152.173,166.596 154.590,165.714 155.209 L 164.111 156.335 162.014 154.292 C 157.662 150.053,156.815 149.121,154.877 146.433 C 153.799 144.937,151.936 142.371,150.737 140.732 C 148.525 137.705,144.241 131.587,141.998 128.250 C 141.320 127.242,139.524 124.665,138.008 122.524 C 136.491 120.384,134.774 117.960,134.192 117.138 C 133.610 116.317,133.164 115.614,133.201 115.577 C 133.267 115.511,136.134 115.282,143.833 114.729 C 148.910 114.365,154.033 114.362,157.167 114.721 C 165.363 115.663,174.409 115.418,181.500 114.064 C 185.104 113.376,190.056 112.386,192.667 111.831 C 193.996 111.548,195.983 111.137,197.083 110.916 C 198.183 110.695,200.696 110.171,202.667 109.752 C 204.637 109.332,206.775 108.882,207.417 108.751 C 208.058 108.621,209.821 108.246,211.333 107.918 C 224.677 105.022,225.823 104.913,229.052 106.230 " stroke="none" fill="#050506" fill-rule="evenodd"></path><path id="path1" d="M0.027 15.208 C 0.041 23.573,0.078 30.154,0.109 29.833 C 1.155 18.849,8.268 8.441,18.282 3.237 C 20.771 1.944,24.846 0.363,26.333 0.115 C 26.563 0.077,20.731 0.035,13.375 0.023 L 0.000 0.000 0.027 15.208 M43.833 0.194 C 49.577 1.809,54.745 4.735,58.500 8.497 C 61.655 11.659,67.469 19.220,69.574 22.899 C 69.999 23.642,70.642 24.738,71.004 25.333 C 71.366 25.929,71.785 26.679,71.934 27.000 C 72.083 27.321,72.336 27.771,72.497 28.000 C 73.040 28.776,74.455 31.571,75.660 34.250 C 76.319 35.717,77.030 37.292,77.238 37.750 C 77.620 38.589,79.218 42.608,80.153 45.083 C 82.960 52.516,80.761 58.131,73.688 61.590 C 67.702 64.519,68.294 63.994,68.834 65.895 C 70.490 71.725,74.761 74.923,81.428 75.325 C 85.290 75.558,89.245 76.073,91.750 76.668 C 92.483 76.843,94.846 77.409,97.000 77.927 C 99.154 78.446,101.329 78.966,101.833 79.083 C 102.337 79.201,103.950 79.600,105.417 79.971 C 107.955 80.613,112.943 81.524,116.917 82.072 C 117.925 82.212,120.550 82.591,122.750 82.915 C 124.950 83.240,127.537 83.617,128.500 83.754 C 129.462 83.890,131.375 84.187,132.750 84.412 C 149.059 87.084,149.406 87.094,162.667 85.249 C 166.094 84.772,170.699 84.229,172.583 84.078 C 173.317 84.020,174.098 83.943,174.320 83.909 C 175.248 83.763,182.820 83.715,185.750 83.837 C 190.502 84.035,207.948 84.643,211.750 84.743 C 213.583 84.791,216.696 84.871,218.667 84.920 C 238.783 85.419,241.934 85.749,249.583 88.154 C 250.133 88.327,251.521 88.747,252.667 89.086 C 253.813 89.426,255.162 89.839,255.667 90.004 C 256.759 90.362,259.873 91.286,262.417 92.008 C 263.425 92.294,264.706 92.674,265.263 92.852 L 266.277 93.175 267.013 92.774 C 267.418 92.554,268.837 91.775,270.167 91.044 C 271.496 90.312,273.633 89.167,274.917 88.498 C 277.876 86.957,279.040 86.332,279.250 86.168 C 279.342 86.097,280.129 85.680,281.000 85.242 C 281.871 84.804,283.221 84.093,284.000 83.661 C 284.779 83.230,286.054 82.540,286.833 82.129 C 288.946 81.012,290.714 80.064,292.667 79.002 C 294.675 77.910,297.123 76.608,301.957 74.061 C 302.760 73.638,304.692 72.602,306.250 71.758 C 307.808 70.915,309.608 69.962,310.250 69.640 C 310.892 69.318,311.979 68.752,312.667 68.383 C 313.354 68.013,314.629 67.336,315.500 66.876 C 317.369 65.890,318.950 65.055,322.634 63.105 C 324.128 62.314,325.377 61.667,325.410 61.667 C 325.468 61.667,330.403 59.018,332.167 58.041 C 338.624 54.461,341.024 52.984,343.896 50.822 C 344.801 50.141,346.005 49.246,346.571 48.833 C 349.396 46.776,352.557 44.238,355.500 41.666 C 357.208 40.174,377.747 19.516,378.865 18.167 C 380.459 16.242,381.747 14.603,382.335 13.750 C 385.138 9.682,386.754 8.282,389.441 7.595 C 393.787 6.484,398.568 9.220,399.761 13.500 C 399.938 14.134,399.973 13.143,399.985 7.125 L 400.000 0.000 221.625 0.015 C 104.334 0.025,43.450 0.086,43.833 0.194 M31.542 6.011 C 13.627 8.340,2.485 25.769,8.161 42.583 C 10.596 49.795,16.111 55.774,23.496 59.208 C 28.060 61.329,30.436 62.929,33.018 65.619 C 38.042 70.851,40.851 77.809,42.176 88.298 C 42.358 89.738,42.615 91.554,42.746 92.333 C 42.877 93.112,43.067 94.388,43.169 95.167 C 44.739 107.185,49.815 118.338,57.657 127.000 C 58.828 128.293,84.367 153.826,95.499 164.833 C 106.297 175.510,109.805 179.078,112.010 181.627 L 112.769 182.504 114.193 181.294 C 114.976 180.628,115.909 179.846,116.267 179.557 C 116.994 178.968,121.448 175.271,124.750 172.515 C 125.942 171.521,127.329 170.384,127.833 169.989 C 128.337 169.593,130.175 168.059,131.917 166.579 C 133.658 165.099,137.480 161.917,140.408 159.506 C 143.337 157.096,145.820 155.040,145.926 154.937 C 146.032 154.834,147.031 154.002,148.146 153.087 C 149.460 152.010,150.142 151.342,150.084 151.191 C 150.035 151.063,149.209 149.899,148.249 148.604 C 146.138 145.758,142.499 140.792,141.968 140.035 C 141.756 139.733,141.353 139.171,141.072 138.785 C 140.791 138.399,139.344 136.283,137.856 134.083 C 136.368 131.883,134.744 129.521,134.246 128.833 C 133.749 128.146,133.219 127.363,133.068 127.094 C 132.917 126.825,132.179 125.775,131.429 124.761 C 129.848 122.624,128.488 120.685,126.701 118.022 L 125.430 116.128 124.423 116.228 C 122.688 116.401,115.047 116.976,112.000 117.163 C 110.396 117.261,107.696 117.449,106.000 117.581 C 104.304 117.713,101.642 117.903,100.083 118.003 C 98.525 118.103,95.412 118.329,93.167 118.505 C 81.750 119.403,79.320 119.475,78.318 118.945 C 75.014 117.201,76.524 112.860,80.525 112.600 C 81.474 112.538,84.162 112.343,86.500 112.166 C 88.837 111.990,92.138 111.766,93.833 111.669 C 95.529 111.571,98.079 111.385,99.500 111.254 C 100.921 111.124,103.396 110.937,105.000 110.839 C 108.081 110.651,119.036 109.885,126.583 109.330 C 129.058 109.147,132.883 108.886,135.083 108.748 C 137.283 108.611,140.921 108.350,143.167 108.168 C 149.019 107.696,153.472 107.724,158.449 108.265 C 167.462 109.245,174.921 108.729,186.667 106.315 C 187.996 106.042,190.021 105.631,191.167 105.401 C 192.313 105.171,194.112 104.798,195.167 104.572 C 196.221 104.345,197.833 104.006,198.750 103.818 C 199.667 103.631,201.279 103.289,202.333 103.060 C 224.019 98.343,228.445 97.825,230.667 99.745 C 230.804 99.863,231.104 100.016,231.333 100.084 C 231.563 100.151,232.173 100.383,232.691 100.598 C 235.490 101.762,238.436 102.005,243.833 101.516 C 247.496 101.184,248.172 101.172,254.250 101.328 C 257.825 101.420,263.037 101.491,265.833 101.486 L 270.917 101.478 269.750 101.141 C 267.480 100.484,265.064 99.779,263.500 99.319 C 262.629 99.062,261.092 98.617,260.083 98.329 C 259.075 98.041,257.688 97.629,257.000 97.414 C 256.313 97.199,255.510 96.975,255.216 96.917 C 254.922 96.858,253.309 96.361,251.632 95.813 C 241.872 92.620,238.846 92.183,224.083 91.835 C 210.822 91.522,191.022 90.936,183.917 90.647 C 177.344 90.379,173.164 90.613,165.667 91.668 C 154.794 93.198,152.510 93.386,147.560 93.160 C 144.280 93.010,138.083 92.184,129.500 90.751 C 128.171 90.529,126.446 90.268,125.667 90.170 C 124.888 90.072,123.275 89.844,122.083 89.664 C 120.892 89.483,118.867 89.182,117.583 88.995 C 109.123 87.761,106.839 87.354,103.511 86.487 C 89.140 82.743,86.589 82.271,80.667 82.261 C 74.047 82.250,68.260 83.893,64.263 86.917 C 63.536 87.467,62.624 88.155,62.238 88.447 C 59.486 90.525,55.935 88.225,56.843 84.954 C 57.407 82.924,62.284 79.642,67.916 77.500 C 68.327 77.344,68.320 77.331,67.207 76.210 C 64.081 73.061,62.665 69.935,61.125 62.783 C 60.778 61.173,61.607 59.860,63.551 58.937 C 64.211 58.624,65.575 57.977,66.583 57.499 C 72.791 54.555,73.382 54.175,74.034 52.708 C 74.916 50.725,74.451 48.611,71.744 42.292 C 71.518 41.765,71.134 40.865,70.890 40.292 C 67.910 33.290,64.262 26.803,60.089 21.083 C 55.479 14.765,52.645 11.897,48.770 9.628 C 43.698 6.658,37.146 5.282,31.542 6.011 M390.750 14.287 C 390.185 14.424,388.580 16.322,387.256 18.417 C 386.879 19.013,385.865 20.323,384.177 22.395 C 383.085 23.734,362.854 44.105,360.237 46.500 C 359.345 47.317,355.500 50.438,353.764 51.755 C 353.405 52.027,352.355 52.831,351.431 53.540 C 350.506 54.250,349.019 55.363,348.125 56.014 C 347.231 56.665,346.500 57.236,346.500 57.282 C 346.500 57.415,348.212 60.254,349.395 62.083 C 349.988 63.000,351.271 65.006,352.247 66.542 C 353.223 68.077,354.059 69.333,354.105 69.333 C 354.152 69.333,354.762 68.986,355.461 68.561 C 360.529 65.485,365.872 64.506,372.167 65.499 C 380.483 66.811,382.039 65.369,382.987 55.479 C 383.174 53.520,383.476 50.365,383.657 48.469 C 384.105 43.770,384.594 41.734,386.632 36.083 C 387.857 32.689,390.066 26.628,390.490 25.500 C 390.748 24.813,391.093 23.875,391.257 23.417 C 391.422 22.958,391.797 21.908,392.092 21.083 C 393.988 15.784,393.557 13.603,390.750 14.287 M399.833 18.885 C 399.833 19.259,397.073 27.360,396.160 29.667 C 395.960 30.171,395.475 31.483,395.083 32.583 C 394.300 34.776,393.027 38.319,392.090 40.917 C 391.117 43.611,390.591 46.234,390.251 50.083 C 389.501 58.571,389.220 60.761,388.582 63.103 C 386.510 70.711,380.520 74.113,372.333 72.333 C 365.768 70.906,360.020 72.640,354.333 77.763 C 353.106 78.869,352.090 79.802,347.083 84.420 C 344.542 86.764,338.117 92.918,333.583 97.351 C 325.074 105.670,322.360 108.015,315.500 112.977 C 310.615 116.510,303.778 120.357,299.750 121.840 C 299.292 122.008,298.167 122.457,297.250 122.836 C 295.779 123.445,294.483 123.917,288.500 126.020 C 287.721 126.294,286.671 126.656,286.167 126.824 C 284.574 127.356,281.287 128.608,280.167 129.110 C 279.429 129.440,276.869 130.726,276.138 131.133 C 275.833 131.303,275.058 131.732,274.417 132.086 C 267.534 135.887,264.293 138.796,248.323 155.505 C 246.530 157.382,244.355 159.657,243.490 160.562 C 239.030 165.224,232.629 171.545,226.672 177.167 C 225.263 178.496,223.992 179.701,223.847 179.845 C 223.404 180.285,220.170 183.187,218.653 184.506 C 217.866 185.190,216.591 186.317,215.820 187.010 C 214.629 188.079,209.316 192.615,202.566 198.325 C 188.633 210.111,177.446 216.316,167.000 218.052 C 166.771 218.090,219.102 218.131,283.292 218.144 L 400.000 218.167 400.000 118.417 C 400.000 63.554,399.962 18.667,399.917 18.667 C 399.871 18.667,399.833 18.765,399.833 18.885 M0.021 127.875 L 0.000 218.167 73.708 218.152 C 145.176 218.137,147.379 218.127,146.167 217.835 C 142.150 216.867,140.403 216.274,136.116 214.428 C 130.584 212.045,122.840 205.753,118.562 200.167 C 118.035 199.479,117.165 198.354,116.627 197.667 C 116.089 196.979,115.446 196.157,115.199 195.839 C 110.506 189.808,106.028 184.983,94.699 173.750 C 56.132 135.511,50.627 129.847,47.396 125.083 C 42.712 118.175,38.824 109.207,37.606 102.500 C 36.702 97.527,35.902 92.621,35.674 90.667 C 34.124 77.355,30.025 69.841,22.339 66.223 C 17.596 63.991,16.706 63.480,13.833 61.347 C 6.537 55.930,1.262 47.192,0.190 38.750 C 0.102 38.058,0.034 74.356,0.021 127.875 M339.816 61.474 C 339.025 61.974,334.053 64.694,331.083 66.250 C 330.075 66.779,328.950 67.381,328.583 67.589 C 328.217 67.797,327.279 68.300,326.500 68.707 C 325.721 69.115,324.108 69.958,322.917 70.581 C 321.725 71.204,319.550 72.368,318.083 73.169 C 316.617 73.969,314.704 74.999,313.833 75.456 C 312.962 75.914,310.712 77.096,308.833 78.082 C 306.954 79.068,305.342 79.931,305.250 79.998 C 305.158 80.066,303.996 80.687,302.667 81.378 C 297.843 83.885,295.461 85.148,293.167 86.414 C 292.296 86.895,290.758 87.721,289.750 88.250 C 288.742 88.779,286.717 89.865,285.250 90.664 C 283.783 91.462,281.683 92.586,280.583 93.162 C 275.746 95.692,275.455 95.891,276.318 96.080 C 276.584 96.138,277.155 96.437,277.585 96.743 C 281.560 99.569,281.173 105.529,276.875 107.686 L 275.750 108.250 272.083 108.307 C 270.067 108.338,263.967 108.279,258.528 108.175 L 248.640 107.986 247.945 108.383 C 247.167 108.828,240.642 112.912,238.583 114.243 C 237.850 114.717,236.463 115.584,235.500 116.169 C 234.537 116.753,233.161 117.630,232.441 118.116 C 231.721 118.602,231.106 119.000,231.074 119.000 C 231.043 119.000,230.189 119.544,229.177 120.208 C 228.165 120.873,226.169 122.167,224.741 123.083 C 222.225 124.699,214.149 130.022,207.167 134.667 C 204.059 136.735,198.958 140.171,193.250 144.043 C 192.058 144.851,190.708 145.766,190.250 146.075 C 189.792 146.385,188.929 146.983,188.333 147.406 C 187.737 147.828,186.612 148.606,185.833 149.135 C 183.716 150.572,181.064 152.408,179.750 153.347 C 179.108 153.806,178.321 154.364,178.000 154.589 C 177.679 154.813,176.798 155.428,176.042 155.956 C 173.132 157.990,172.192 158.662,170.478 159.935 C 163.154 165.373,163.794 165.382,158.116 159.765 C 156.301 157.969,154.752 156.500,154.674 156.500 C 154.596 156.500,153.934 157.006,153.201 157.625 C 152.469 158.244,150.718 159.714,149.310 160.892 C 147.902 162.071,146.254 163.458,145.649 163.976 C 145.043 164.493,143.402 165.854,142.001 167.000 C 140.601 168.146,137.984 170.322,136.186 171.837 C 133.085 174.448,131.455 175.796,127.921 178.667 C 127.075 179.354,125.302 180.820,123.983 181.924 C 119.396 185.760,117.602 187.251,117.440 187.361 C 117.348 187.423,117.640 187.900,118.104 188.444 C 119.064 189.573,121.469 192.626,123.005 194.667 C 125.704 198.252,129.641 202.286,132.167 204.053 C 140.539 209.910,148.616 212.391,158.417 212.117 C 169.419 211.809,179.900 207.503,191.250 198.631 C 195.228 195.521,196.575 194.427,201.742 190.109 C 205.426 187.030,214.275 179.341,217.000 176.852 C 222.202 172.098,227.431 167.107,231.069 163.423 C 237.338 157.076,240.460 153.861,247.917 146.074 C 258.963 134.537,261.831 131.994,268.749 127.601 C 273.732 124.437,278.713 122.151,285.679 119.832 C 288.193 118.995,290.700 118.135,291.250 117.921 C 291.800 117.708,293.112 117.214,294.167 116.825 C 295.221 116.437,296.271 116.022,296.500 115.903 C 296.729 115.785,297.779 115.303,298.833 114.832 C 302.415 113.233,306.958 110.635,310.464 108.182 C 314.039 105.681,315.027 104.931,318.355 102.196 C 320.346 100.560,320.724 100.212,326.165 95.013 C 329.336 91.982,330.576 90.792,336.165 85.409 C 337.312 84.305,338.849 82.842,339.580 82.159 C 340.312 81.476,341.587 80.274,342.413 79.490 C 343.240 78.705,344.854 77.212,346.000 76.173 C 347.146 75.133,348.221 74.154,348.389 73.997 C 348.683 73.723,348.586 73.539,345.852 69.231 C 344.288 66.766,342.516 63.946,341.913 62.964 C 340.597 60.815,340.719 60.903,339.816 61.474 M223.917 105.619 C 223.642 105.656,221.992 105.945,220.250 106.261 C 217.145 106.824,216.205 107.015,211.667 108.002 C 210.429 108.271,207.429 108.909,205.000 109.418 C 202.571 109.928,199.908 110.492,199.083 110.672 C 198.258 110.852,196.683 111.182,195.583 111.405 C 194.483 111.628,191.896 112.152,189.833 112.570 C 187.771 112.988,185.371 113.478,184.500 113.659 C 175.314 115.569,166.113 115.948,156.250 114.824 C 152.865 114.438,150.243 114.416,146.327 114.743 C 144.726 114.876,141.317 115.104,138.750 115.250 C 136.183 115.395,133.911 115.551,133.701 115.596 L 133.318 115.677 133.701 116.195 C 134.384 117.121,135.298 118.393,136.074 119.500 C 136.492 120.096,137.317 121.258,137.906 122.083 C 139.623 124.486,141.070 126.559,141.250 126.874 C 142.321 128.749,145.969 133.776,146.206 133.704 C 146.290 133.679,146.311 133.735,146.252 133.830 C 146.194 133.924,146.732 134.842,147.448 135.869 C 148.164 136.897,148.862 137.903,149.000 138.106 C 149.409 138.708,151.965 142.190,152.592 143.000 C 152.912 143.412,154.032 144.960,155.083 146.438 C 156.924 149.030,162.931 155.407,163.989 155.893 C 164.238 156.007,164.934 155.584,167.413 153.810 C 169.125 152.585,171.101 151.183,171.804 150.694 C 172.508 150.205,173.831 149.267,174.746 148.611 C 175.660 147.954,176.572 147.304,176.773 147.167 C 176.974 147.029,177.463 146.687,177.861 146.407 C 179.448 145.287,180.859 144.312,183.167 142.743 C 187.414 139.854,189.359 138.524,191.833 136.816 C 194.274 135.131,207.241 126.477,213.083 122.634 C 218.973 118.760,220.749 117.597,221.042 117.423 C 221.339 117.247,223.592 115.792,230.083 111.585 C 230.817 111.109,232.259 110.202,233.289 109.569 C 235.192 108.398,235.444 108.167,234.814 108.167 C 234.211 108.167,231.318 107.320,229.833 106.709 C 226.926 105.513,226.876 105.499,225.623 105.525 C 224.960 105.539,224.192 105.581,223.917 105.619 " stroke="none" fill="#fbfbfb" fill-rule="evenodd"></path><path id="path2" d="M14.573 14.208 L 14.083 14.750 14.625 14.260 C 14.923 13.991,15.167 13.748,15.167 13.719 C 15.167 13.590,15.029 13.703,14.573 14.208 M6.542 32.917 C 6.544 33.283,6.578 33.414,6.618 33.206 C 6.658 32.999,6.656 32.699,6.615 32.540 C 6.573 32.380,6.540 32.550,6.542 32.917 M6.542 34.750 C 6.544 35.117,6.578 35.247,6.618 35.040 C 6.658 34.832,6.656 34.532,6.615 34.373 C 6.573 34.214,6.540 34.383,6.542 34.750 M358.658 38.792 L 358.083 39.417 358.708 38.842 C 359.290 38.308,359.410 38.167,359.283 38.167 C 359.255 38.167,358.974 38.448,358.658 38.792 M81.209 49.917 C 81.211 50.283,81.245 50.414,81.285 50.206 C 81.324 49.999,81.323 49.699,81.281 49.540 C 81.239 49.380,81.207 49.550,81.209 49.917 M81.205 51.333 C 81.205 51.654,81.240 51.785,81.282 51.625 C 81.323 51.465,81.323 51.202,81.282 51.042 C 81.240 50.881,81.205 51.012,81.205 51.333 M77.906 58.708 L 77.417 59.250 77.958 58.760 C 78.256 58.491,78.500 58.248,78.500 58.219 C 78.500 58.090,78.362 58.203,77.906 58.708 M32.500 65.250 C 32.811 65.571,33.103 65.833,33.149 65.833 C 33.195 65.833,32.978 65.571,32.667 65.250 C 32.356 64.929,32.064 64.667,32.018 64.667 C 31.972 64.667,32.189 64.929,32.500 65.250 M81.208 75.448 C 81.369 75.490,81.631 75.490,81.792 75.448 C 81.952 75.406,81.821 75.372,81.500 75.372 C 81.179 75.372,81.048 75.406,81.208 75.448 M79.963 82.122 C 80.355 82.157,80.955 82.157,81.296 82.121 C 81.637 82.085,81.317 82.057,80.583 82.057 C 79.850 82.058,79.571 82.087,79.963 82.122 M184.875 83.948 C 185.035 83.990,185.298 83.990,185.458 83.948 C 185.619 83.906,185.487 83.872,185.167 83.872 C 184.846 83.872,184.715 83.906,184.875 83.948 M193.377 84.286 C 193.631 84.325,194.006 84.324,194.211 84.284 C 194.416 84.244,194.208 84.213,193.750 84.214 C 193.292 84.216,193.124 84.248,193.377 84.286 M198.460 84.451 C 198.668 84.491,198.968 84.490,199.127 84.448 C 199.286 84.406,199.117 84.374,198.750 84.375 C 198.383 84.377,198.253 84.411,198.460 84.451 M214.125 84.951 C 214.331 84.991,214.669 84.991,214.875 84.951 C 215.081 84.911,214.912 84.879,214.500 84.879 C 214.088 84.879,213.919 84.911,214.125 84.951 M220.875 85.121 C 221.219 85.157,221.781 85.157,222.125 85.121 C 222.469 85.085,222.188 85.056,221.500 85.056 C 220.813 85.056,220.531 85.085,220.875 85.121 M227.542 85.286 C 227.794 85.324,228.206 85.324,228.458 85.286 C 228.710 85.248,228.504 85.217,228.000 85.217 C 227.496 85.217,227.290 85.248,227.542 85.286 M174.875 90.615 C 175.035 90.657,175.298 90.657,175.458 90.615 C 175.619 90.573,175.487 90.539,175.167 90.539 C 174.846 90.539,174.715 90.573,174.875 90.615 M188.125 90.784 C 188.331 90.824,188.669 90.824,188.875 90.784 C 189.081 90.745,188.912 90.712,188.500 90.712 C 188.088 90.712,187.919 90.745,188.125 90.784 M193.627 90.951 C 193.834 90.991,194.134 90.990,194.294 90.948 C 194.453 90.906,194.283 90.874,193.917 90.875 C 193.550 90.877,193.420 90.911,193.627 90.951 M198.792 91.118 C 198.998 91.157,199.335 91.157,199.542 91.118 C 199.748 91.078,199.579 91.045,199.167 91.045 C 198.754 91.045,198.585 91.078,198.792 91.118 M210.542 91.448 C 210.702 91.490,210.965 91.490,211.125 91.448 C 211.285 91.406,211.154 91.372,210.833 91.372 C 210.512 91.372,210.381 91.406,210.542 91.448 M215.875 91.615 C 216.035 91.657,216.298 91.657,216.458 91.615 C 216.619 91.573,216.487 91.539,216.167 91.539 C 215.846 91.539,215.715 91.573,215.875 91.615 M222.544 91.786 C 222.797 91.825,223.172 91.824,223.377 91.784 C 223.582 91.744,223.375 91.713,222.917 91.714 C 222.458 91.716,222.291 91.748,222.544 91.786 M230.708 91.953 C 230.960 91.991,231.373 91.991,231.625 91.953 C 231.877 91.915,231.671 91.883,231.167 91.883 C 230.662 91.883,230.456 91.915,230.708 91.953 M338.244 92.708 L 337.417 93.583 338.292 92.756 C 338.773 92.301,339.167 91.908,339.167 91.881 C 339.167 91.757,339.012 91.895,338.244 92.708 M332.667 98.083 C 332.262 98.496,331.968 98.833,332.014 98.833 C 332.060 98.833,332.428 98.496,332.833 98.083 C 333.238 97.671,333.532 97.333,333.486 97.333 C 333.440 97.333,333.072 97.671,332.667 98.083 M253.295 101.454 C 253.594 101.491,254.044 101.490,254.295 101.452 C 254.545 101.414,254.300 101.384,253.750 101.385 C 253.200 101.386,252.995 101.417,253.295 101.454 M263.958 101.624 C 264.623 101.655,265.710 101.655,266.375 101.624 C 267.040 101.592,266.496 101.566,265.167 101.566 C 263.837 101.566,263.294 101.592,263.958 101.624 M328.078 102.542 L 327.083 103.583 328.125 102.589 C 328.698 102.041,329.167 101.573,329.167 101.547 C 329.167 101.424,329.002 101.574,328.078 102.542 M257.213 108.123 C 257.652 108.157,258.327 108.157,258.713 108.122 C 259.100 108.087,258.742 108.059,257.917 108.059 C 257.092 108.060,256.775 108.088,257.213 108.123 M269.549 108.290 C 270.171 108.323,271.146 108.322,271.715 108.290 C 272.284 108.257,271.775 108.231,270.583 108.231 C 269.392 108.232,268.926 108.258,269.549 108.290 M163.794 108.785 C 164.001 108.824,164.301 108.823,164.460 108.781 C 164.620 108.739,164.450 108.707,164.083 108.709 C 163.717 108.711,163.586 108.745,163.794 108.785 M170.208 108.782 C 170.369 108.823,170.631 108.823,170.792 108.782 C 170.952 108.740,170.821 108.705,170.500 108.705 C 170.179 108.705,170.048 108.740,170.208 108.782 M104.875 110.948 C 105.035 110.990,105.298 110.990,105.458 110.948 C 105.619 110.906,105.487 110.872,105.167 110.872 C 104.846 110.872,104.715 110.906,104.875 110.948 M167.708 115.453 C 167.960 115.491,168.373 115.491,168.625 115.453 C 168.877 115.415,168.671 115.383,168.167 115.383 C 167.662 115.383,167.456 115.415,167.708 115.453 M58.583 128.167 C 58.941 128.533,59.272 128.833,59.318 128.833 C 59.363 128.833,59.108 128.533,58.750 128.167 C 58.392 127.800,58.062 127.500,58.016 127.500 C 57.970 127.500,58.225 127.800,58.583 128.167 M54.660 133.708 C 55.350 134.444,55.500 134.577,55.500 134.451 C 55.500 134.425,55.144 134.068,54.708 133.660 L 53.917 132.917 54.660 133.708 M64.000 133.583 C 64.311 133.904,64.603 134.167,64.649 134.167 C 64.695 134.167,64.478 133.904,64.167 133.583 C 63.856 133.262,63.564 133.000,63.518 133.000 C 63.472 133.000,63.689 133.262,64.000 133.583 M256.167 137.583 C 255.762 137.996,255.468 138.333,255.514 138.333 C 255.560 138.333,255.928 137.996,256.333 137.583 C 256.738 137.171,257.032 136.833,256.986 136.833 C 256.940 136.833,256.572 137.171,256.167 137.583 M262.000 141.250 C 261.595 141.662,261.301 142.000,261.347 142.000 C 261.393 142.000,261.762 141.662,262.167 141.250 C 262.572 140.837,262.865 140.500,262.819 140.500 C 262.774 140.500,262.405 140.837,262.000 141.250 M259.573 143.708 L 259.083 144.250 259.625 143.760 C 260.130 143.304,260.243 143.167,260.115 143.167 C 260.086 143.167,259.842 143.410,259.573 143.708 M249.333 144.583 C 248.928 144.996,248.635 145.333,248.681 145.333 C 248.726 145.333,249.095 144.996,249.500 144.583 C 249.905 144.171,250.199 143.833,250.153 143.833 C 250.107 143.833,249.738 144.171,249.333 144.583 M256.829 146.458 L 255.750 147.583 256.875 146.505 C 257.494 145.912,258.000 145.405,258.000 145.380 C 258.000 145.257,257.830 145.413,256.829 146.458 M245.906 148.208 L 245.417 148.750 245.958 148.260 C 246.463 147.804,246.577 147.667,246.448 147.667 C 246.419 147.667,246.175 147.910,245.906 148.208 M242.661 151.625 L 241.750 152.583 242.708 151.672 C 243.599 150.826,243.743 150.667,243.619 150.667 C 243.593 150.667,243.162 151.098,242.661 151.625 M249.909 153.708 L 249.250 154.417 249.958 153.758 C 250.617 153.145,250.743 153.000,250.617 153.000 C 250.590 153.000,250.271 153.319,249.909 153.708 M238.491 155.958 L 237.917 156.583 238.542 156.009 C 239.123 155.474,239.243 155.333,239.116 155.333 C 239.088 155.333,238.807 155.615,238.491 155.958 M87.250 156.833 C 87.701 157.292,88.108 157.667,88.154 157.667 C 88.200 157.667,87.868 157.292,87.417 156.833 C 86.965 156.375,86.558 156.000,86.513 156.000 C 86.467 156.000,86.799 156.375,87.250 156.833 M157.750 159.333 C 158.294 159.883,158.777 160.333,158.823 160.333 C 158.869 160.333,158.461 159.883,157.917 159.333 C 157.372 158.783,156.890 158.333,156.844 158.333 C 156.798 158.333,157.206 158.783,157.750 159.333 M89.750 159.333 C 90.108 159.700,90.438 160.000,90.484 160.000 C 90.530 160.000,90.275 159.700,89.917 159.333 C 89.559 158.967,89.228 158.667,89.182 158.667 C 89.137 158.667,89.392 158.967,89.750 159.333 M92.493 162.042 C 92.902 162.477,93.258 162.833,93.285 162.833 C 93.410 162.833,93.278 162.684,92.542 161.993 L 91.750 161.250 92.493 162.042 M230.500 164.083 C 230.095 164.496,229.801 164.833,229.847 164.833 C 229.893 164.833,230.262 164.496,230.667 164.083 C 231.072 163.671,231.365 163.333,231.319 163.333 C 231.274 163.333,230.905 163.671,230.500 164.083 M85.667 164.713 C 85.667 164.738,86.248 165.319,86.958 166.004 L 88.250 167.250 87.004 165.958 C 85.847 164.759,85.667 164.591,85.667 164.713 M227.906 175.875 L 227.417 176.417 227.958 175.927 C 228.463 175.471,228.577 175.333,228.448 175.333 C 228.419 175.333,228.175 175.577,227.906 175.875 M97.917 176.833 C 98.275 177.200,98.605 177.500,98.651 177.500 C 98.697 177.500,98.441 177.200,98.083 176.833 C 97.725 176.467,97.395 176.167,97.349 176.167 C 97.303 176.167,97.559 176.467,97.917 176.833 M123.000 205.052 C 123.000 205.081,123.244 205.325,123.542 205.594 L 124.083 206.083 123.594 205.542 C 123.138 205.037,123.000 204.923,123.000 205.052 M158.042 212.282 C 158.202 212.323,158.465 212.323,158.625 212.282 C 158.785 212.240,158.654 212.205,158.333 212.205 C 158.012 212.205,157.881 212.240,158.042 212.282 " stroke="none" fill="#99989a" fill-rule="evenodd"></path><path id="path3" d="M33.965 5.790 C 34.541 5.823,35.441 5.823,35.965 5.790 C 36.488 5.757,36.017 5.730,34.917 5.730 C 33.817 5.731,33.388 5.758,33.965 5.790 M57.000 7.219 C 57.000 7.248,57.244 7.491,57.542 7.760 L 58.083 8.250 57.594 7.708 C 57.138 7.203,57.000 7.090,57.000 7.219 M391.208 7.448 C 391.369 7.490,391.631 7.490,391.792 7.448 C 391.952 7.406,391.821 7.372,391.500 7.372 C 391.179 7.372,391.048 7.406,391.208 7.448 M9.245 10.208 L 8.250 11.250 9.292 10.255 C 10.259 9.331,10.410 9.167,10.286 9.167 C 10.261 9.167,9.792 9.635,9.245 10.208 M53.333 12.917 C 53.644 13.237,53.936 13.500,53.982 13.500 C 54.028 13.500,53.811 13.237,53.500 12.917 C 53.189 12.596,52.897 12.333,52.851 12.333 C 52.805 12.333,53.022 12.596,53.333 12.917 M54.667 14.250 C 54.978 14.571,55.270 14.833,55.315 14.833 C 55.361 14.833,55.144 14.571,54.833 14.250 C 54.522 13.929,54.230 13.667,54.185 13.667 C 54.139 13.667,54.356 13.929,54.667 14.250 M13.491 15.292 L 12.917 15.917 13.542 15.342 C 14.123 14.808,14.243 14.667,14.116 14.667 C 14.088 14.667,13.807 14.948,13.491 15.292 M374.582 22.875 L 371.417 26.083 374.625 22.918 C 376.390 21.178,377.833 19.734,377.833 19.710 C 377.833 19.591,377.522 19.894,374.582 22.875 M382.491 24.125 L 381.917 24.750 382.542 24.176 C 383.123 23.641,383.243 23.500,383.116 23.500 C 383.088 23.500,382.807 23.781,382.491 24.125 M368.575 28.875 L 367.917 29.583 368.625 28.925 C 369.284 28.312,369.410 28.167,369.284 28.167 C 369.257 28.167,368.938 28.485,368.575 28.875 M374.832 31.792 L 371.917 34.750 374.875 31.835 C 376.502 30.232,377.833 28.901,377.833 28.877 C 377.833 28.758,377.540 29.043,374.832 31.792 M0.039 31.500 C 0.039 31.821,0.073 31.952,0.115 31.792 C 0.157 31.631,0.157 31.369,0.115 31.208 C 0.073 31.048,0.039 31.179,0.039 31.500 M6.539 31.833 C 6.539 32.154,6.573 32.285,6.615 32.125 C 6.657 31.965,6.657 31.702,6.615 31.542 C 6.573 31.381,6.539 31.512,6.539 31.833 M360.578 36.875 L 359.583 37.917 360.625 36.922 C 361.198 36.375,361.667 35.906,361.667 35.880 C 361.667 35.757,361.502 35.907,360.578 36.875 M367.665 38.958 L 364.583 42.083 367.708 39.002 C 369.427 37.307,370.833 35.901,370.833 35.877 C 370.833 35.758,370.528 36.055,367.665 38.958 M356.833 40.583 C 356.428 40.996,356.135 41.333,356.181 41.333 C 356.226 41.333,356.595 40.996,357.000 40.583 C 357.405 40.171,357.699 39.833,357.653 39.833 C 357.607 39.833,357.238 40.171,356.833 40.583 M361.913 44.708 L 360.583 46.083 361.958 44.754 C 363.235 43.519,363.409 43.333,363.288 43.333 C 363.263 43.333,362.644 43.952,361.913 44.708 M389.872 52.167 C 389.872 52.487,389.906 52.619,389.948 52.458 C 389.990 52.298,389.990 52.035,389.948 51.875 C 389.906 51.715,389.872 51.846,389.872 52.167 M73.240 54.042 L 72.750 54.583 73.292 54.094 C 73.797 53.638,73.910 53.500,73.781 53.500 C 73.752 53.500,73.509 53.744,73.240 54.042 M383.205 54.500 C 383.205 54.821,383.240 54.952,383.282 54.792 C 383.323 54.631,383.323 54.369,383.282 54.208 C 383.240 54.048,383.205 54.179,383.205 54.500 M9.083 57.000 C 9.441 57.367,9.772 57.667,9.818 57.667 C 9.863 57.667,9.608 57.367,9.250 57.000 C 8.892 56.633,8.562 56.333,8.516 56.333 C 8.470 56.333,8.725 56.633,9.083 57.000 M11.000 58.917 C 11.311 59.237,11.603 59.500,11.649 59.500 C 11.695 59.500,11.478 59.237,11.167 58.917 C 10.856 58.596,10.564 58.333,10.518 58.333 C 10.472 58.333,10.689 58.596,11.000 58.917 M61.217 62.167 C 61.217 62.671,61.248 62.877,61.286 62.625 C 61.324 62.373,61.324 61.960,61.286 61.708 C 61.248 61.456,61.217 61.663,61.217 62.167 M365.708 65.282 C 365.869 65.323,366.131 65.323,366.292 65.282 C 366.452 65.240,366.321 65.205,366.000 65.205 C 365.679 65.205,365.548 65.240,365.708 65.282 M368.875 65.282 C 369.035 65.323,369.298 65.323,369.458 65.282 C 369.619 65.240,369.488 65.205,369.167 65.205 C 368.846 65.205,368.715 65.240,368.875 65.282 M33.167 66.052 C 33.167 66.081,33.410 66.325,33.708 66.594 L 34.250 67.083 33.760 66.542 C 33.304 66.037,33.167 65.923,33.167 66.052 M71.993 71.708 C 72.684 72.444,72.833 72.577,72.833 72.451 C 72.833 72.425,72.477 72.068,72.042 71.660 L 71.250 70.917 71.993 71.708 M347.740 74.708 L 347.250 75.250 347.792 74.760 C 348.297 74.304,348.410 74.167,348.281 74.167 C 348.252 74.167,348.009 74.410,347.740 74.708 M66.167 75.052 C 66.167 75.081,66.410 75.325,66.708 75.594 L 67.250 76.083 66.760 75.542 C 66.304 75.037,66.167 74.923,66.167 75.052 M79.958 75.451 C 80.165 75.491,80.502 75.491,80.708 75.451 C 80.915 75.411,80.746 75.379,80.333 75.379 C 79.921 75.379,79.752 75.411,79.958 75.451 M82.794 75.618 C 83.001 75.658,83.301 75.656,83.460 75.615 C 83.620 75.573,83.450 75.540,83.083 75.542 C 82.717 75.544,82.586 75.578,82.794 75.618 M343.824 78.292 L 343.250 78.917 343.875 78.342 C 344.457 77.808,344.577 77.667,344.449 77.667 C 344.422 77.667,344.140 77.948,343.824 78.292 M350.991 80.625 L 350.417 81.250 351.042 80.676 C 351.623 80.141,351.743 80.000,351.616 80.000 C 351.588 80.000,351.307 80.281,350.991 80.625 M340.824 81.125 L 340.250 81.750 340.875 81.176 C 341.457 80.641,341.577 80.500,341.449 80.500 C 341.422 80.500,341.140 80.781,340.824 81.125 M349.324 82.125 L 348.750 82.750 349.375 82.176 C 349.957 81.641,350.077 81.500,349.949 81.500 C 349.922 81.500,349.640 81.781,349.324 82.125 M78.292 82.118 C 78.498 82.157,78.835 82.157,79.042 82.118 C 79.248 82.078,79.079 82.045,78.667 82.045 C 78.254 82.045,78.085 82.078,78.292 82.118 M82.125 82.118 C 82.331 82.157,82.669 82.157,82.875 82.118 C 83.081 82.078,82.912 82.045,82.500 82.045 C 82.087 82.045,81.919 82.078,82.125 82.118 M337.909 83.875 L 337.250 84.583 337.958 83.925 C 338.348 83.562,338.667 83.243,338.667 83.216 C 338.667 83.090,338.522 83.216,337.909 83.875 M347.077 84.208 L 346.250 85.083 347.125 84.256 C 347.606 83.801,348.000 83.408,348.000 83.381 C 348.000 83.257,347.846 83.395,347.077 84.208 M176.958 83.954 C 177.256 83.991,177.744 83.991,178.042 83.954 C 178.340 83.917,178.096 83.887,177.500 83.887 C 176.904 83.887,176.660 83.917,176.958 83.954 M182.796 83.956 C 183.188 83.991,183.788 83.990,184.129 83.954 C 184.471 83.919,184.150 83.890,183.417 83.890 C 182.683 83.891,182.404 83.920,182.796 83.956 M174.208 84.115 C 174.369 84.157,174.631 84.157,174.792 84.115 C 174.952 84.073,174.821 84.039,174.500 84.039 C 174.179 84.039,174.048 84.073,174.208 84.115 M187.208 84.119 C 187.460 84.158,187.873 84.158,188.125 84.119 C 188.377 84.081,188.171 84.050,187.667 84.050 C 187.162 84.050,186.956 84.081,187.208 84.119 M191.288 84.287 C 191.584 84.324,192.109 84.324,192.455 84.288 C 192.800 84.252,192.558 84.222,191.917 84.221 C 191.275 84.221,190.992 84.250,191.288 84.287 M196.875 84.453 C 197.127 84.491,197.540 84.491,197.792 84.453 C 198.044 84.415,197.838 84.383,197.333 84.383 C 196.829 84.383,196.623 84.415,196.875 84.453 M202.628 84.621 C 202.928 84.658,203.378 84.657,203.628 84.619 C 203.878 84.581,203.633 84.551,203.083 84.552 C 202.533 84.553,202.328 84.584,202.628 84.621 M207.542 84.786 C 207.794 84.824,208.206 84.824,208.458 84.786 C 208.710 84.748,208.504 84.717,208.000 84.717 C 207.496 84.717,207.290 84.748,207.542 84.786 M212.121 84.954 C 212.417 84.990,212.942 84.991,213.288 84.955 C 213.634 84.919,213.392 84.889,212.750 84.888 C 212.108 84.887,211.825 84.917,212.121 84.954 M218.213 85.123 C 218.652 85.157,219.327 85.157,219.713 85.122 C 220.100 85.087,219.742 85.059,218.917 85.059 C 218.092 85.060,217.775 85.088,218.213 85.123 M225.375 85.288 C 225.719 85.324,226.281 85.324,226.625 85.288 C 226.969 85.252,226.688 85.223,226.000 85.223 C 225.313 85.223,225.031 85.252,225.375 85.288 M232.288 85.454 C 232.584 85.490,233.109 85.491,233.455 85.455 C 233.800 85.419,233.558 85.389,232.917 85.388 C 232.275 85.387,231.992 85.417,232.288 85.454 M344.658 86.458 L 344.083 87.083 344.708 86.509 C 345.052 86.193,345.333 85.912,345.333 85.884 C 345.333 85.757,345.192 85.877,344.658 86.458 M334.495 87.125 L 333.417 88.250 334.542 87.171 C 335.160 86.578,335.667 86.072,335.667 86.046 C 335.667 85.924,335.497 86.080,334.495 87.125 M340.246 90.708 L 339.083 91.917 340.292 90.754 C 341.414 89.675,341.576 89.500,341.454 89.500 C 341.428 89.500,340.885 90.044,340.246 90.708 M329.997 91.458 L 328.250 93.250 330.042 91.503 C 331.027 90.542,331.833 89.736,331.833 89.711 C 331.833 89.591,331.620 89.794,329.997 91.458 M178.625 90.455 C 179.015 90.490,179.652 90.490,180.042 90.455 C 180.431 90.420,180.112 90.392,179.333 90.392 C 178.554 90.392,178.235 90.420,178.625 90.455 M173.794 90.618 C 174.001 90.658,174.301 90.656,174.460 90.615 C 174.620 90.573,174.450 90.540,174.083 90.542 C 173.717 90.544,173.586 90.578,173.794 90.618 M184.795 90.621 C 185.094 90.658,185.544 90.657,185.795 90.619 C 186.045 90.581,185.800 90.551,185.250 90.552 C 184.700 90.553,184.495 90.584,184.795 90.621 M189.880 90.789 C 190.318 90.824,190.993 90.823,191.380 90.788 C 191.767 90.754,191.408 90.725,190.583 90.726 C 189.758 90.726,189.442 90.755,189.880 90.789 M194.961 90.954 C 195.261 90.991,195.711 90.990,195.961 90.952 C 196.212 90.914,195.967 90.884,195.417 90.885 C 194.867 90.886,194.662 90.917,194.961 90.954 M200.288 91.120 C 200.584 91.157,201.109 91.158,201.455 91.122 C 201.800 91.086,201.558 91.055,200.917 91.055 C 200.275 91.054,199.992 91.083,200.288 91.120 M205.877 91.286 C 206.131 91.325,206.506 91.324,206.711 91.284 C 206.916 91.244,206.708 91.213,206.250 91.214 C 205.792 91.216,205.624 91.248,205.877 91.286 M211.625 91.451 C 211.831 91.491,212.169 91.491,212.375 91.451 C 212.581 91.411,212.412 91.379,212.000 91.379 C 211.588 91.379,211.419 91.411,211.625 91.451 M217.380 91.623 C 217.818 91.657,218.493 91.657,218.880 91.622 C 219.267 91.587,218.908 91.559,218.083 91.559 C 217.258 91.560,216.942 91.588,217.380 91.623 M224.632 91.790 C 225.208 91.823,226.108 91.823,226.632 91.790 C 227.155 91.757,226.683 91.730,225.583 91.730 C 224.483 91.731,224.055 91.758,224.632 91.790 M232.458 91.954 C 232.756 91.991,233.244 91.991,233.542 91.954 C 233.840 91.917,233.596 91.887,233.000 91.887 C 232.404 91.887,232.160 91.917,232.458 91.954 M147.460 93.118 C 147.668 93.158,147.968 93.156,148.127 93.115 C 148.286 93.073,148.117 93.040,147.750 93.042 C 147.383 93.044,147.253 93.078,147.460 93.118 M152.625 93.118 C 152.831 93.157,153.169 93.157,153.375 93.118 C 153.581 93.078,153.412 93.045,153.000 93.045 C 152.587 93.045,152.419 93.078,152.625 93.118 M325.747 95.542 L 324.250 97.083 325.792 95.587 C 326.640 94.764,327.333 94.070,327.333 94.045 C 327.333 93.924,327.136 94.110,325.747 95.542 M335.328 95.458 L 334.417 96.417 335.375 95.506 C 336.265 94.659,336.410 94.500,336.286 94.500 C 336.260 94.500,335.829 94.931,335.328 95.458 M277.833 97.052 C 277.833 97.081,278.077 97.325,278.375 97.594 L 278.917 98.083 278.427 97.542 C 277.971 97.037,277.833 96.923,277.833 97.052 M321.991 99.125 L 321.417 99.750 322.042 99.176 C 322.623 98.641,322.743 98.500,322.616 98.500 C 322.588 98.500,322.307 98.781,321.991 99.125 M329.833 100.750 C 329.428 101.162,329.135 101.500,329.181 101.500 C 329.226 101.500,329.595 101.162,330.000 100.750 C 330.405 100.337,330.699 100.000,330.653 100.000 C 330.607 100.000,330.238 100.337,329.833 100.750 M280.218 102.083 C 280.219 102.633,280.250 102.838,280.287 102.539 C 280.325 102.239,280.324 101.789,280.286 101.539 C 280.248 101.288,280.217 101.533,280.218 102.083 M247.792 101.458 C 248.731 101.487,250.269 101.487,251.208 101.458 C 252.148 101.428,251.379 101.404,249.500 101.404 C 247.621 101.404,246.852 101.428,247.792 101.458 M243.958 101.618 C 244.165 101.657,244.502 101.657,244.708 101.618 C 244.915 101.578,244.746 101.545,244.333 101.545 C 243.921 101.545,243.752 101.578,243.958 101.618 M259.292 101.624 C 259.956 101.655,261.044 101.655,261.708 101.624 C 262.373 101.592,261.829 101.566,260.500 101.566 C 259.171 101.566,258.627 101.592,259.292 101.624 M238.708 101.955 C 239.052 101.991,239.615 101.991,239.958 101.955 C 240.302 101.919,240.021 101.889,239.333 101.889 C 238.646 101.889,238.365 101.919,238.708 101.955 M149.042 107.955 C 149.385 107.991,149.948 107.991,150.292 107.955 C 150.635 107.919,150.354 107.889,149.667 107.889 C 148.979 107.889,148.698 107.919,149.042 107.955 M152.625 107.951 C 152.831 107.991,153.169 107.991,153.375 107.951 C 153.581 107.911,153.412 107.879,153.000 107.879 C 152.587 107.879,152.419 107.911,152.625 107.951 M249.625 107.957 C 250.290 107.989,251.377 107.989,252.042 107.957 C 252.706 107.925,252.162 107.900,250.833 107.900 C 249.504 107.900,248.960 107.925,249.625 107.957 M146.042 108.115 C 146.202 108.157,146.465 108.157,146.625 108.115 C 146.785 108.073,146.654 108.039,146.333 108.039 C 146.012 108.039,145.881 108.073,146.042 108.115 M260.368 108.123 C 260.982 108.155,262.032 108.156,262.701 108.124 C 263.370 108.092,262.867 108.066,261.583 108.066 C 260.300 108.065,259.753 108.091,260.368 108.123 M143.460 108.285 C 143.668 108.324,143.968 108.323,144.127 108.281 C 144.286 108.239,144.117 108.207,143.750 108.209 C 143.383 108.211,143.253 108.245,143.460 108.285 M273.125 108.287 C 273.423 108.324,273.910 108.324,274.208 108.287 C 274.506 108.250,274.262 108.220,273.667 108.220 C 273.071 108.220,272.827 108.250,273.125 108.287 M141.127 108.451 C 141.334 108.491,141.634 108.490,141.794 108.448 C 141.953 108.406,141.783 108.374,141.417 108.375 C 141.050 108.377,140.920 108.411,141.127 108.451 M162.627 108.785 C 162.834 108.824,163.134 108.823,163.294 108.781 C 163.453 108.739,163.283 108.707,162.917 108.709 C 162.550 108.711,162.420 108.745,162.627 108.785 M171.208 108.782 C 171.369 108.823,171.631 108.823,171.792 108.782 C 171.952 108.740,171.821 108.705,171.500 108.705 C 171.179 108.705,171.048 108.740,171.208 108.782 M133.960 108.951 C 134.168 108.991,134.468 108.990,134.627 108.948 C 134.786 108.906,134.617 108.874,134.250 108.875 C 133.883 108.877,133.753 108.911,133.960 108.951 M131.708 109.115 C 131.869 109.157,132.131 109.157,132.292 109.115 C 132.452 109.073,132.321 109.039,132.000 109.039 C 131.679 109.039,131.548 109.073,131.708 109.115 M129.292 109.284 C 129.498 109.324,129.835 109.324,130.042 109.284 C 130.248 109.245,130.079 109.212,129.667 109.212 C 129.254 109.212,129.085 109.245,129.292 109.284 M117.794 110.118 C 118.001 110.158,118.301 110.156,118.460 110.115 C 118.620 110.073,118.450 110.040,118.083 110.042 C 117.717 110.044,117.586 110.078,117.794 110.118 M115.294 110.285 C 115.501 110.324,115.801 110.323,115.960 110.281 C 116.120 110.239,115.950 110.207,115.583 110.209 C 115.217 110.211,115.086 110.245,115.294 110.285 M103.127 111.118 C 103.334 111.158,103.634 111.156,103.794 111.115 C 103.953 111.073,103.783 111.040,103.417 111.042 C 103.050 111.044,102.920 111.078,103.127 111.118 M98.875 111.448 C 99.035 111.490,99.298 111.490,99.458 111.448 C 99.619 111.406,99.487 111.372,99.167 111.372 C 98.846 111.372,98.715 111.406,98.875 111.448 M91.792 111.951 C 91.998 111.991,92.335 111.991,92.542 111.951 C 92.748 111.911,92.579 111.879,92.167 111.879 C 91.754 111.879,91.585 111.911,91.792 111.951 M89.375 112.115 C 89.535 112.157,89.798 112.157,89.958 112.115 C 90.119 112.073,89.987 112.039,89.667 112.039 C 89.346 112.039,89.215 112.073,89.375 112.115 M86.794 112.285 C 87.001 112.324,87.301 112.323,87.460 112.281 C 87.620 112.239,87.450 112.207,87.083 112.209 C 86.717 112.211,86.586 112.245,86.794 112.285 M82.042 112.615 C 82.202 112.657,82.465 112.657,82.625 112.615 C 82.785 112.573,82.654 112.539,82.333 112.539 C 82.012 112.539,81.881 112.573,82.042 112.615 M79.708 112.782 C 79.869 112.823,80.131 112.823,80.292 112.782 C 80.452 112.740,80.321 112.705,80.000 112.705 C 79.679 112.705,79.548 112.740,79.708 112.782 M150.292 114.457 C 150.865 114.489,151.802 114.489,152.375 114.457 C 152.948 114.424,152.479 114.398,151.333 114.398 C 150.188 114.398,149.719 114.424,150.292 114.457 M146.542 114.615 C 146.702 114.657,146.965 114.657,147.125 114.615 C 147.285 114.573,147.154 114.539,146.833 114.539 C 146.512 114.539,146.381 114.573,146.542 114.615 M144.127 114.785 C 144.334 114.824,144.634 114.823,144.794 114.781 C 144.953 114.739,144.783 114.707,144.417 114.709 C 144.050 114.711,143.920 114.745,144.127 114.785 M141.460 114.951 C 141.668 114.991,141.968 114.990,142.127 114.948 C 142.286 114.906,142.117 114.874,141.750 114.875 C 141.383 114.877,141.253 114.911,141.460 114.951 M139.208 115.115 C 139.369 115.157,139.631 115.157,139.792 115.115 C 139.952 115.073,139.821 115.039,139.500 115.039 C 139.179 115.039,139.048 115.073,139.208 115.115 M160.294 115.118 C 160.501 115.158,160.801 115.156,160.960 115.115 C 161.120 115.073,160.950 115.040,160.583 115.042 C 160.217 115.044,160.086 115.078,160.294 115.118 M163.377 115.286 C 163.631 115.325,164.006 115.324,164.211 115.284 C 164.416 115.244,164.208 115.213,163.750 115.214 C 163.292 115.216,163.124 115.248,163.377 115.286 M118.208 116.615 C 118.369 116.657,118.631 116.657,118.792 116.615 C 118.952 116.573,118.821 116.539,118.500 116.539 C 118.179 116.539,118.048 116.573,118.208 116.615 M115.794 116.785 C 116.001 116.824,116.301 116.823,116.460 116.781 C 116.620 116.739,116.450 116.707,116.083 116.709 C 115.717 116.711,115.586 116.745,115.794 116.785 M113.375 116.948 C 113.535 116.990,113.798 116.990,113.958 116.948 C 114.119 116.906,113.987 116.872,113.667 116.872 C 113.346 116.872,113.215 116.906,113.375 116.948 M104.042 117.615 C 104.202 117.657,104.465 117.657,104.625 117.615 C 104.785 117.573,104.654 117.539,104.333 117.539 C 104.013 117.539,103.881 117.573,104.042 117.615 M101.294 117.785 C 101.501 117.824,101.801 117.823,101.960 117.781 C 102.120 117.739,101.950 117.707,101.583 117.709 C 101.217 117.711,101.086 117.745,101.294 117.785 M89.958 118.618 C 90.165 118.657,90.502 118.657,90.708 118.618 C 90.915 118.578,90.746 118.545,90.333 118.545 C 89.921 118.545,89.752 118.578,89.958 118.618 M87.627 118.785 C 87.834 118.824,88.134 118.823,88.294 118.781 C 88.453 118.739,88.283 118.707,87.917 118.709 C 87.550 118.711,87.420 118.745,87.627 118.785 M85.208 118.948 C 85.369 118.990,85.631 118.990,85.792 118.948 C 85.952 118.906,85.821 118.872,85.500 118.872 C 85.179 118.872,85.048 118.906,85.208 118.948 M60.750 130.500 C 61.108 130.867,61.438 131.167,61.484 131.167 C 61.530 131.167,61.275 130.867,60.917 130.500 C 60.559 130.133,60.228 129.833,60.182 129.833 C 60.137 129.833,60.392 130.133,60.750 130.500 M52.000 130.917 C 52.311 131.237,52.603 131.500,52.649 131.500 C 52.695 131.500,52.478 131.237,52.167 130.917 C 51.856 130.596,51.564 130.333,51.518 130.333 C 51.472 130.333,51.689 130.596,52.000 130.917 M258.158 135.792 L 257.583 136.417 258.208 135.842 C 258.790 135.308,258.910 135.167,258.783 135.167 C 258.755 135.167,258.474 135.448,258.158 135.792 M77.000 146.750 C 81.812 151.563,85.786 155.500,85.832 155.500 C 85.878 155.500,81.979 151.563,77.167 146.750 C 72.355 141.938,68.380 138.000,68.335 138.000 C 68.289 138.000,72.188 141.938,77.000 146.750 M61.167 140.250 C 62.218 141.304,63.115 142.167,63.161 142.167 C 63.207 142.167,62.385 141.304,61.333 140.250 C 60.282 139.196,59.385 138.333,59.339 138.333 C 59.293 138.333,60.115 139.196,61.167 140.250 M254.075 139.708 L 253.417 140.417 254.125 139.758 C 254.515 139.395,254.833 139.077,254.833 139.050 C 254.833 138.923,254.688 139.050,254.075 139.708 M251.661 142.292 L 250.750 143.250 251.708 142.339 C 252.599 141.493,252.743 141.333,252.619 141.333 C 252.593 141.333,252.162 141.765,251.661 142.292 M247.495 146.625 L 246.417 147.750 247.542 146.671 C 248.587 145.670,248.743 145.500,248.620 145.500 C 248.595 145.500,248.088 146.006,247.495 146.625 M254.000 149.250 C 253.595 149.662,253.301 150.000,253.347 150.000 C 253.393 150.000,253.762 149.662,254.167 149.250 C 254.572 148.837,254.865 148.500,254.819 148.500 C 254.774 148.500,254.405 148.837,254.000 149.250 M244.333 149.917 C 243.928 150.329,243.635 150.667,243.681 150.667 C 243.726 150.667,244.095 150.329,244.500 149.917 C 244.905 149.504,245.199 149.167,245.153 149.167 C 245.107 149.167,244.738 149.504,244.333 149.917 M158.326 150.708 C 158.735 151.144,159.091 151.500,159.118 151.500 C 159.243 151.500,159.111 151.350,158.375 150.660 L 157.583 149.917 158.326 150.708 M74.917 154.000 C 75.368 154.458,75.775 154.833,75.821 154.833 C 75.867 154.833,75.535 154.458,75.083 154.000 C 74.632 153.542,74.225 153.167,74.179 153.167 C 74.133 153.167,74.465 153.542,74.917 154.000 M240.244 154.208 L 239.417 155.083 240.292 154.256 C 240.773 153.801,241.167 153.408,241.167 153.381 C 241.167 153.257,241.012 153.395,240.244 154.208 M162.917 155.167 C 163.553 155.808,164.112 156.333,164.158 156.333 C 164.204 156.333,163.720 155.808,163.083 155.167 C 162.447 154.525,161.888 154.000,161.842 154.000 C 161.796 154.000,162.280 154.525,162.917 155.167 M248.245 155.375 L 247.250 156.417 248.292 155.422 C 249.259 154.498,249.410 154.333,249.286 154.333 C 249.261 154.333,248.792 154.802,248.245 155.375 M76.833 155.879 C 76.833 155.904,77.415 156.486,78.125 157.171 L 79.417 158.417 78.171 157.125 C 77.014 155.925,76.833 155.757,76.833 155.879 M155.833 157.417 C 156.331 157.921,156.776 158.333,156.822 158.333 C 156.868 158.333,156.498 157.921,156.000 157.417 C 155.502 156.912,155.057 156.500,155.011 156.500 C 154.966 156.500,155.335 156.912,155.833 157.417 M244.830 158.958 L 243.250 160.583 244.875 159.003 C 246.384 157.536,246.576 157.333,246.455 157.333 C 246.430 157.333,245.699 158.065,244.830 158.958 M234.081 160.542 L 231.250 163.417 234.125 160.585 C 235.706 159.028,237.000 157.734,237.000 157.710 C 237.000 157.591,236.712 157.871,234.081 160.542 M79.500 158.546 C 79.500 158.571,80.081 159.152,80.792 159.838 L 82.083 161.083 80.838 159.792 C 79.680 158.592,79.500 158.424,79.500 158.546 M83.083 162.167 C 83.441 162.533,83.772 162.833,83.818 162.833 C 83.863 162.833,83.608 162.533,83.250 162.167 C 82.892 161.800,82.562 161.500,82.516 161.500 C 82.470 161.500,82.725 161.800,83.083 162.167 M160.917 162.500 C 161.275 162.867,161.605 163.167,161.651 163.167 C 161.697 163.167,161.441 162.867,161.083 162.500 C 160.725 162.133,160.395 161.833,160.349 161.833 C 160.303 161.833,160.559 162.133,160.917 162.500 M239.250 164.667 C 237.877 166.042,236.792 167.167,236.838 167.167 C 236.883 167.167,238.044 166.042,239.417 164.667 C 240.789 163.292,241.875 162.167,241.829 162.167 C 241.783 162.167,240.623 163.292,239.250 164.667 M95.417 165.000 C 96.606 166.192,97.616 167.167,97.662 167.167 C 97.708 167.167,96.772 166.192,95.583 165.000 C 94.394 163.808,93.384 162.833,93.338 162.833 C 93.292 162.833,94.228 163.808,95.417 165.000 M84.667 163.719 C 84.667 163.748,84.910 163.991,85.208 164.260 L 85.750 164.750 85.260 164.208 C 84.804 163.703,84.667 163.590,84.667 163.719 M228.247 166.375 L 226.750 167.917 228.292 166.420 C 229.724 165.030,229.909 164.833,229.788 164.833 C 229.763 164.833,229.070 165.527,228.247 166.375 M235.246 168.708 L 234.083 169.917 235.292 168.754 C 236.414 167.675,236.576 167.500,236.454 167.500 C 236.428 167.500,235.885 168.044,235.246 168.708 M98.667 168.219 C 98.667 168.248,98.910 168.491,99.208 168.760 L 99.750 169.250 99.260 168.708 C 98.804 168.203,98.667 168.090,98.667 168.219 M91.250 170.167 C 91.701 170.625,92.108 171.000,92.154 171.000 C 92.200 171.000,91.868 170.625,91.417 170.167 C 90.965 169.708,90.558 169.333,90.513 169.333 C 90.467 169.333,90.799 169.708,91.250 170.167 M223.661 170.792 L 222.750 171.750 223.708 170.839 C 224.599 169.993,224.743 169.833,224.619 169.833 C 224.593 169.833,224.162 170.265,223.661 170.792 M232.906 171.042 L 232.417 171.583 232.958 171.094 C 233.463 170.638,233.577 170.500,233.448 170.500 C 233.419 170.500,233.175 170.744,232.906 171.042 M93.917 172.833 C 94.830 173.750,95.615 174.500,95.660 174.500 C 95.706 174.500,94.997 173.750,94.083 172.833 C 93.170 171.917,92.385 171.167,92.340 171.167 C 92.294 171.167,93.003 171.917,93.917 172.833 M221.000 173.250 C 220.595 173.662,220.301 174.000,220.347 174.000 C 220.393 174.000,220.762 173.662,221.167 173.250 C 221.572 172.838,221.865 172.500,221.819 172.500 C 221.774 172.500,221.405 172.838,221.000 173.250 M229.667 174.083 C 229.262 174.496,228.968 174.833,229.014 174.833 C 229.060 174.833,229.428 174.496,229.833 174.083 C 230.238 173.671,230.532 173.333,230.486 173.333 C 230.440 173.333,230.072 173.671,229.667 174.083 M226.245 177.375 L 225.250 178.417 226.292 177.422 C 227.259 176.498,227.410 176.333,227.286 176.333 C 227.261 176.333,226.792 176.802,226.245 177.375 M216.824 177.125 L 216.250 177.750 216.875 177.176 C 217.457 176.641,217.577 176.500,217.449 176.500 C 217.422 176.500,217.140 176.781,216.824 177.125 M108.750 178.333 C 109.294 178.883,109.777 179.333,109.823 179.333 C 109.869 179.333,109.461 178.883,108.917 178.333 C 108.372 177.783,107.890 177.333,107.844 177.333 C 107.798 177.333,108.206 177.783,108.750 178.333 M98.667 177.552 C 98.667 177.581,98.910 177.825,99.208 178.094 L 99.750 178.583 99.260 178.042 C 98.804 177.537,98.667 177.423,98.667 177.552 M223.833 179.583 C 223.428 179.996,223.135 180.333,223.181 180.333 C 223.226 180.333,223.595 179.996,224.000 179.583 C 224.405 179.171,224.699 178.833,224.653 178.833 C 224.607 178.833,224.238 179.171,223.833 179.583 M102.167 181.083 C 103.034 181.954,103.781 182.667,103.827 182.667 C 103.873 182.667,103.201 181.954,102.333 181.083 C 101.466 180.213,100.719 179.500,100.673 179.500 C 100.627 179.500,101.299 180.213,102.167 181.083 M221.740 181.542 L 221.250 182.083 221.792 181.594 C 222.297 181.138,222.410 181.000,222.281 181.000 C 222.252 181.000,222.009 181.244,221.740 181.542 M112.375 182.250 L 112.832 182.742 113.208 182.335 L 113.583 181.929 113.207 182.242 C 112.836 182.550,112.823 182.549,112.373 182.157 L 111.917 181.759 112.375 182.250 M124.333 206.219 C 124.333 206.248,124.577 206.491,124.875 206.760 L 125.417 207.250 124.927 206.708 C 124.471 206.203,124.333 206.090,124.333 206.219 M159.042 212.282 C 159.202 212.323,159.465 212.323,159.625 212.282 C 159.785 212.240,159.654 212.205,159.333 212.205 C 159.012 212.205,158.881 212.240,159.042 212.282 " stroke="none" fill="#7c7479" fill-rule="evenodd"></path><path id="path4" d="M10.410 8.875 L 9.583 9.750 10.458 8.923 C 11.271 8.154,11.410 8.000,11.285 8.000 C 11.259 8.000,10.865 8.394,10.410 8.875 M393.372 16.333 C 393.372 16.654,393.406 16.785,393.448 16.625 C 393.490 16.465,393.490 16.202,393.448 16.042 C 393.406 15.881,393.372 16.012,393.372 16.333 M375.910 21.375 L 375.083 22.250 375.958 21.423 C 376.440 20.968,376.833 20.574,376.833 20.548 C 376.833 20.424,376.679 20.562,375.910 21.375 M381.991 24.792 L 381.417 25.417 382.042 24.842 C 382.623 24.308,382.743 24.167,382.616 24.167 C 382.588 24.167,382.307 24.448,381.991 24.792 M369.915 27.375 L 366.917 30.417 369.958 27.418 C 372.784 24.633,373.075 24.333,372.957 24.333 C 372.933 24.333,371.564 25.702,369.915 27.375 M380.575 26.208 L 379.917 26.917 380.625 26.258 C 381.284 25.645,381.410 25.500,381.284 25.500 C 381.257 25.500,380.938 25.819,380.575 26.208 M365.324 31.958 L 364.750 32.583 365.375 32.009 C 365.957 31.474,366.077 31.333,365.949 31.333 C 365.922 31.333,365.640 31.615,365.324 31.958 M363.909 33.375 L 363.250 34.083 363.958 33.425 C 364.617 32.812,364.743 32.667,364.617 32.667 C 364.590 32.667,364.271 32.985,363.909 33.375 M361.746 35.542 L 360.583 36.750 361.792 35.588 C 362.914 34.508,363.076 34.333,362.954 34.333 C 362.928 34.333,362.385 34.877,361.746 35.542 M363.913 42.875 L 362.583 44.250 363.958 42.921 C 365.235 41.686,365.409 41.500,365.288 41.500 C 365.263 41.500,364.644 42.119,363.913 42.875 M390.039 51.667 C 390.039 51.987,390.073 52.119,390.115 51.958 C 390.157 51.798,390.157 51.535,390.115 51.375 C 390.073 51.215,390.039 51.346,390.039 51.667 M8.833 56.879 C 8.833 56.904,9.415 57.486,10.125 58.171 L 11.417 59.417 10.171 58.125 C 9.014 56.925,8.833 56.757,8.833 56.879 M61.042 62.083 C 61.044 62.450,61.078 62.580,61.118 62.373 C 61.158 62.166,61.156 61.866,61.115 61.706 C 61.073 61.547,61.040 61.717,61.042 62.083 M367.295 65.121 C 367.594 65.158,368.044 65.157,368.295 65.119 C 368.545 65.081,368.300 65.051,367.750 65.052 C 367.200 65.053,366.995 65.084,367.295 65.121 M376.042 66.119 C 376.294 66.158,376.706 66.158,376.958 66.119 C 377.210 66.081,377.004 66.050,376.500 66.050 C 375.996 66.050,375.790 66.081,376.042 66.119 M385.077 69.375 L 384.250 70.250 385.125 69.423 C 385.938 68.654,386.076 68.500,385.952 68.500 C 385.926 68.500,385.532 68.894,385.077 69.375 M366.955 71.787 C 367.250 71.824,367.775 71.824,368.121 71.788 C 368.467 71.752,368.225 71.722,367.583 71.721 C 366.942 71.721,366.659 71.750,366.955 71.787 M82.294 75.451 C 82.501 75.491,82.801 75.490,82.960 75.448 C 83.120 75.406,82.950 75.374,82.583 75.375 C 82.217 75.377,82.086 75.411,82.294 75.451 M67.083 76.167 C 67.441 76.533,67.772 76.833,67.818 76.833 C 67.863 76.833,67.608 76.533,67.250 76.167 C 66.892 75.800,66.562 75.500,66.516 75.500 C 66.470 75.500,66.725 75.800,67.083 76.167 M343.324 78.625 L 342.750 79.250 343.375 78.676 C 343.957 78.141,344.077 78.000,343.949 78.000 C 343.922 78.000,343.640 78.281,343.324 78.625 M351.742 80.042 L 351.083 80.750 351.792 80.091 C 352.450 79.478,352.577 79.333,352.450 79.333 C 352.423 79.333,352.105 79.652,351.742 80.042 M340.077 81.708 L 339.250 82.583 340.125 81.756 C 340.606 81.301,341.000 80.908,341.000 80.881 C 341.000 80.757,340.846 80.895,340.077 81.708 M82.875 82.282 C 83.035 82.323,83.298 82.323,83.458 82.282 C 83.619 82.240,83.487 82.205,83.167 82.205 C 82.846 82.205,82.715 82.240,82.875 82.282 M347.658 83.792 L 347.083 84.417 347.708 83.842 C 348.290 83.308,348.410 83.167,348.283 83.167 C 348.255 83.167,347.974 83.448,347.658 83.792 M337.410 84.208 L 336.583 85.083 337.458 84.256 C 337.940 83.801,338.333 83.408,338.333 83.381 C 338.333 83.257,338.179 83.395,337.410 84.208 M179.208 83.790 C 179.827 83.822,180.840 83.822,181.458 83.790 C 182.077 83.758,181.571 83.732,180.333 83.732 C 179.096 83.732,178.590 83.758,179.208 83.790 M174.794 83.951 C 175.001 83.991,175.301 83.990,175.460 83.948 C 175.620 83.906,175.450 83.874,175.083 83.875 C 174.717 83.877,174.586 83.911,174.794 83.951 M186.121 83.954 C 186.417 83.990,186.942 83.991,187.288 83.955 C 187.634 83.919,187.392 83.889,186.750 83.888 C 186.108 83.887,185.825 83.917,186.121 83.954 M189.788 84.120 C 190.084 84.157,190.609 84.158,190.955 84.122 C 191.300 84.086,191.058 84.055,190.417 84.055 C 189.775 84.054,189.492 84.083,189.788 84.120 M194.875 84.286 C 195.127 84.324,195.540 84.324,195.792 84.286 C 196.044 84.248,195.838 84.217,195.333 84.217 C 194.829 84.217,194.623 84.248,194.875 84.286 M199.795 84.454 C 200.094 84.491,200.544 84.490,200.795 84.452 C 201.045 84.414,200.800 84.384,200.250 84.385 C 199.700 84.386,199.495 84.417,199.795 84.454 M204.958 84.618 C 205.165 84.657,205.502 84.657,205.708 84.618 C 205.915 84.578,205.746 84.545,205.333 84.545 C 204.921 84.545,204.752 84.578,204.958 84.618 M210.125 84.787 C 210.423 84.824,210.910 84.824,211.208 84.787 C 211.506 84.750,211.262 84.720,210.667 84.720 C 210.071 84.720,209.827 84.750,210.125 84.787 M216.048 84.957 C 216.578 84.990,217.403 84.990,217.881 84.956 C 218.359 84.922,217.925 84.895,216.917 84.896 C 215.908 84.896,215.517 84.924,216.048 84.957 M223.296 85.122 C 223.688 85.157,224.288 85.157,224.629 85.121 C 224.971 85.085,224.650 85.057,223.917 85.057 C 223.183 85.058,222.904 85.087,223.296 85.122 M229.458 85.289 C 229.848 85.324,230.485 85.324,230.875 85.289 C 231.265 85.254,230.946 85.225,230.167 85.225 C 229.387 85.225,229.069 85.254,229.458 85.289 M56.712 86.000 C 56.712 86.412,56.745 86.581,56.784 86.375 C 56.824 86.169,56.824 85.831,56.784 85.625 C 56.745 85.419,56.712 85.587,56.712 86.000 M333.244 88.208 L 332.417 89.083 333.292 88.256 C 333.773 87.801,334.167 87.408,334.167 87.381 C 334.167 87.257,334.012 87.395,333.244 88.208 M342.000 89.083 C 341.317 89.771,340.796 90.333,340.842 90.333 C 340.888 90.333,341.484 89.771,342.167 89.083 C 342.850 88.396,343.371 87.833,343.325 87.833 C 343.279 87.833,342.683 88.396,342.000 89.083 M175.960 90.618 C 176.168 90.658,176.468 90.656,176.627 90.615 C 176.786 90.573,176.617 90.540,176.250 90.542 C 175.883 90.544,175.753 90.578,175.960 90.618 M182.208 90.619 C 182.460 90.658,182.873 90.658,183.125 90.619 C 183.377 90.581,183.171 90.550,182.667 90.550 C 182.162 90.550,181.956 90.581,182.208 90.619 M186.542 90.786 C 186.794 90.824,187.206 90.824,187.458 90.786 C 187.710 90.748,187.504 90.717,187.000 90.717 C 186.496 90.717,186.290 90.748,186.542 90.786 M191.961 90.954 C 192.261 90.991,192.711 90.990,192.961 90.952 C 193.212 90.914,192.967 90.884,192.417 90.885 C 191.867 90.886,191.662 90.917,191.961 90.954 M196.458 91.122 C 196.848 91.157,197.485 91.157,197.875 91.122 C 198.265 91.087,197.946 91.058,197.167 91.058 C 196.387 91.058,196.069 91.087,196.458 91.122 M203.544 91.286 C 203.797 91.325,204.172 91.324,204.377 91.284 C 204.582 91.244,204.375 91.213,203.917 91.214 C 203.458 91.216,203.291 91.248,203.544 91.286 M209.042 91.453 C 209.294 91.491,209.706 91.491,209.958 91.453 C 210.210 91.415,210.004 91.383,209.500 91.383 C 208.996 91.383,208.790 91.415,209.042 91.453 M214.544 91.620 C 214.797 91.658,215.172 91.657,215.377 91.617 C 215.582 91.578,215.375 91.546,214.917 91.548 C 214.458 91.549,214.291 91.581,214.544 91.620 M220.625 91.787 C 220.923 91.824,221.410 91.824,221.708 91.787 C 222.006 91.750,221.762 91.720,221.167 91.720 C 220.571 91.720,220.327 91.750,220.625 91.787 M328.495 92.792 L 327.417 93.917 328.542 92.838 C 329.160 92.245,329.667 91.739,329.667 91.713 C 329.667 91.590,329.497 91.747,328.495 92.792 M227.292 91.957 C 227.865 91.989,228.802 91.989,229.375 91.957 C 229.948 91.924,229.479 91.898,228.333 91.898 C 227.188 91.898,226.719 91.924,227.292 91.957 M233.877 92.120 C 234.131 92.158,234.506 92.157,234.711 92.117 C 234.916 92.078,234.708 92.046,234.250 92.048 C 233.792 92.049,233.624 92.081,233.877 92.120 M145.875 93.115 C 146.035 93.157,146.298 93.157,146.458 93.115 C 146.619 93.073,146.487 93.039,146.167 93.039 C 145.846 93.039,145.715 93.073,145.875 93.115 M150.044 93.286 C 150.297 93.325,150.672 93.324,150.877 93.284 C 151.082 93.244,150.875 93.213,150.417 93.214 C 149.958 93.216,149.791 93.248,150.044 93.286 M336.491 94.458 L 335.917 95.083 336.542 94.509 C 337.123 93.974,337.243 93.833,337.116 93.833 C 337.088 93.833,336.807 94.115,336.491 94.458 M323.828 97.292 L 322.917 98.250 323.875 97.339 C 324.765 96.493,324.910 96.333,324.786 96.333 C 324.760 96.333,324.329 96.765,323.828 97.292 M225.463 98.789 C 225.855 98.824,226.455 98.824,226.796 98.788 C 227.137 98.752,226.817 98.723,226.083 98.724 C 225.350 98.724,225.071 98.754,225.463 98.789 M331.406 99.375 L 330.917 99.917 331.458 99.427 C 331.963 98.971,332.077 98.833,331.948 98.833 C 331.919 98.833,331.675 99.077,331.406 99.375 M321.406 99.542 L 320.917 100.083 321.458 99.594 C 321.963 99.138,322.077 99.000,321.948 99.000 C 321.919 99.000,321.675 99.244,321.406 99.542 M247.798 101.290 C 248.375 101.323,249.275 101.323,249.798 101.290 C 250.322 101.257,249.850 101.230,248.750 101.230 C 247.650 101.231,247.222 101.258,247.798 101.290 M245.042 101.448 C 245.202 101.490,245.465 101.490,245.625 101.448 C 245.785 101.406,245.654 101.372,245.333 101.372 C 245.012 101.372,244.881 101.406,245.042 101.448 M255.542 101.456 C 256.069 101.490,256.931 101.490,257.458 101.456 C 257.985 101.423,257.554 101.396,256.500 101.396 C 255.446 101.396,255.015 101.423,255.542 101.456 M269.333 101.500 L 267.750 101.603 269.750 101.623 C 270.995 101.636,271.624 101.589,271.417 101.500 C 271.233 101.421,271.046 101.366,271.000 101.377 C 270.954 101.388,270.204 101.443,269.333 101.500 M225.458 105.451 C 225.665 105.491,226.002 105.491,226.208 105.451 C 226.415 105.411,226.246 105.379,225.833 105.379 C 225.421 105.379,225.252 105.411,225.458 105.451 M278.409 106.542 L 277.750 107.250 278.458 106.591 C 278.848 106.229,279.167 105.910,279.167 105.883 C 279.167 105.757,279.022 105.883,278.409 106.542 M146.794 107.951 C 147.001 107.991,147.301 107.990,147.460 107.948 C 147.620 107.906,147.450 107.874,147.083 107.875 C 146.717 107.877,146.586 107.911,146.794 107.951 M154.375 107.948 C 154.535 107.990,154.798 107.990,154.958 107.948 C 155.119 107.906,154.987 107.872,154.667 107.872 C 154.346 107.872,154.215 107.906,154.375 107.948 M144.375 108.115 C 144.535 108.157,144.798 108.157,144.958 108.115 C 145.119 108.073,144.987 108.039,144.667 108.039 C 144.346 108.039,144.215 108.073,144.375 108.115 M253.958 108.123 C 254.440 108.157,255.227 108.157,255.708 108.123 C 256.190 108.089,255.796 108.062,254.833 108.062 C 253.871 108.062,253.477 108.089,253.958 108.123 M263.958 108.291 C 264.806 108.321,266.194 108.321,267.042 108.291 C 267.890 108.261,267.196 108.236,265.500 108.236 C 263.804 108.236,263.110 108.261,263.958 108.291 M135.375 108.782 C 135.535 108.823,135.798 108.823,135.958 108.782 C 136.119 108.740,135.987 108.705,135.667 108.705 C 135.346 108.705,135.215 108.740,135.375 108.782 M165.958 108.791 C 166.715 108.822,167.952 108.822,168.708 108.791 C 169.465 108.760,168.846 108.735,167.333 108.735 C 165.821 108.735,165.202 108.760,165.958 108.791 M130.208 109.115 C 130.369 109.157,130.631 109.157,130.792 109.115 C 130.952 109.073,130.821 109.039,130.500 109.039 C 130.179 109.039,130.048 109.073,130.208 109.115 M120.794 109.785 C 121.001 109.824,121.301 109.823,121.460 109.781 C 121.620 109.739,121.450 109.707,121.083 109.709 C 120.717 109.711,120.586 109.745,120.794 109.785 M118.627 109.951 C 118.834 109.991,119.134 109.990,119.294 109.948 C 119.453 109.906,119.283 109.874,118.917 109.875 C 118.550 109.877,118.420 109.911,118.627 109.951 M106.627 110.785 C 106.834 110.824,107.134 110.823,107.294 110.781 C 107.453 110.739,107.283 110.707,106.917 110.709 C 106.550 110.711,106.420 110.745,106.627 110.785 M103.875 110.948 C 104.035 110.990,104.298 110.990,104.458 110.948 C 104.619 110.906,104.487 110.872,104.167 110.872 C 103.846 110.872,103.715 110.906,103.875 110.948 M92.794 111.785 C 93.001 111.824,93.301 111.823,93.460 111.781 C 93.620 111.739,93.450 111.707,93.083 111.709 C 92.717 111.711,92.586 111.745,92.794 111.785 M89.960 111.951 C 90.168 111.991,90.468 111.990,90.627 111.948 C 90.786 111.906,90.617 111.874,90.250 111.875 C 89.883 111.877,89.753 111.911,89.960 111.951 M87.875 112.115 C 88.035 112.157,88.298 112.157,88.458 112.115 C 88.619 112.073,88.487 112.039,88.167 112.039 C 87.846 112.039,87.715 112.073,87.875 112.115 M77.573 113.708 L 77.083 114.250 77.625 113.760 C 78.130 113.304,78.243 113.167,78.115 113.167 C 78.086 113.167,77.842 113.410,77.573 113.708 M143.294 114.951 C 143.501 114.991,143.801 114.990,143.960 114.948 C 144.120 114.906,143.950 114.874,143.583 114.875 C 143.217 114.877,143.086 114.911,143.294 114.951 M140.792 115.118 C 140.998 115.157,141.335 115.157,141.542 115.118 C 141.748 115.078,141.579 115.045,141.167 115.045 C 140.754 115.045,140.585 115.078,140.792 115.118 M158.708 115.115 C 158.869 115.157,159.131 115.157,159.292 115.115 C 159.452 115.073,159.321 115.039,159.000 115.039 C 158.679 115.039,158.548 115.073,158.708 115.115 M175.208 115.115 C 175.369 115.157,175.631 115.157,175.792 115.115 C 175.952 115.073,175.821 115.039,175.500 115.039 C 175.179 115.039,175.048 115.073,175.208 115.115 M138.042 115.282 C 138.202 115.323,138.465 115.323,138.625 115.282 C 138.785 115.240,138.654 115.205,138.333 115.205 C 138.012 115.205,137.881 115.240,138.042 115.282 M172.544 115.286 C 172.797 115.325,173.172 115.324,173.377 115.284 C 173.582 115.244,173.375 115.213,172.917 115.214 C 172.458 115.216,172.291 115.248,172.544 115.286 M166.042 115.453 C 166.294 115.491,166.706 115.491,166.958 115.453 C 167.210 115.415,167.004 115.383,166.500 115.383 C 165.996 115.383,165.790 115.415,166.042 115.453 M169.292 115.451 C 169.498 115.491,169.835 115.491,170.042 115.451 C 170.248 115.411,170.079 115.379,169.667 115.379 C 169.254 115.379,169.085 115.411,169.292 115.451 M114.960 116.951 C 115.168 116.991,115.468 116.990,115.627 116.948 C 115.786 116.906,115.617 116.874,115.250 116.875 C 114.883 116.877,114.753 116.911,114.960 116.951 M112.460 117.118 C 112.668 117.158,112.968 117.156,113.127 117.115 C 113.286 117.073,113.117 117.040,112.750 117.042 C 112.383 117.044,112.253 117.078,112.460 117.118 M103.127 117.785 C 103.334 117.824,103.634 117.823,103.794 117.781 C 103.953 117.739,103.783 117.707,103.417 117.709 C 103.050 117.711,102.920 117.745,103.127 117.785 M100.542 117.948 C 100.702 117.990,100.965 117.990,101.125 117.948 C 101.285 117.906,101.154 117.872,100.833 117.872 C 100.513 117.872,100.381 117.906,100.542 117.948 M98.127 118.118 C 98.334 118.158,98.634 118.156,98.794 118.115 C 98.953 118.073,98.783 118.040,98.417 118.042 C 98.050 118.044,97.920 118.078,98.127 118.118 M86.794 118.951 C 87.001 118.991,87.301 118.990,87.460 118.948 C 87.620 118.906,87.450 118.874,87.083 118.875 C 86.717 118.877,86.586 118.911,86.794 118.951 M84.042 119.115 C 84.202 119.157,84.465 119.157,84.625 119.115 C 84.785 119.073,84.654 119.039,84.333 119.039 C 84.012 119.039,83.881 119.073,84.042 119.115 M61.333 130.917 C 62.476 132.063,63.449 133.000,63.495 133.000 C 63.541 133.000,62.643 132.063,61.500 130.917 C 60.357 129.771,59.384 128.833,59.338 128.833 C 59.293 128.833,60.190 129.771,61.333 130.917 M51.833 130.885 C 51.833 130.914,52.077 131.158,52.375 131.427 L 52.917 131.917 52.427 131.375 C 51.971 130.870,51.833 130.757,51.833 130.885 M65.167 134.750 C 65.478 135.071,65.770 135.333,65.815 135.333 C 65.861 135.333,65.644 135.071,65.333 134.750 C 65.022 134.429,64.730 134.167,64.685 134.167 C 64.639 134.167,64.856 134.429,65.167 134.750 M56.667 135.750 C 56.978 136.071,57.270 136.333,57.315 136.333 C 57.361 136.333,57.144 136.071,56.833 135.750 C 56.522 135.429,56.230 135.167,56.185 135.167 C 56.139 135.167,56.356 135.429,56.667 135.750 M257.491 136.292 L 256.917 136.917 257.542 136.342 C 258.123 135.808,258.243 135.667,258.116 135.667 C 258.088 135.667,257.807 135.948,257.491 136.292 M68.250 137.833 C 69.071 138.658,69.781 139.333,69.826 139.333 C 69.872 139.333,69.238 138.658,68.417 137.833 C 67.595 137.008,66.886 136.333,66.840 136.333 C 66.794 136.333,67.429 137.008,68.250 137.833 M264.906 138.708 L 264.417 139.250 264.958 138.760 C 265.463 138.304,265.577 138.167,265.448 138.167 C 265.419 138.167,265.175 138.410,264.906 138.708 M71.830 141.375 C 72.791 142.360,73.597 143.167,73.622 143.167 C 73.742 143.167,73.539 142.953,71.875 141.330 L 70.083 139.583 71.830 141.375 M64.500 143.750 C 66.194 145.446,67.617 146.833,67.663 146.833 C 67.709 146.833,66.361 145.446,64.667 143.750 C 62.973 142.054,61.549 140.667,61.503 140.667 C 61.458 140.667,62.806 142.054,64.500 143.750 M252.324 141.458 L 251.750 142.083 252.375 141.509 C 252.957 140.974,253.077 140.833,252.949 140.833 C 252.922 140.833,252.640 141.115,252.324 141.458 M258.491 144.792 L 257.917 145.417 258.542 144.842 C 259.123 144.308,259.243 144.167,259.116 144.167 C 259.088 144.167,258.807 144.448,258.491 144.792 M77.750 147.333 C 78.294 147.883,78.777 148.333,78.823 148.333 C 78.869 148.333,78.461 147.883,77.917 147.333 C 77.372 146.783,76.890 146.333,76.844 146.333 C 76.798 146.333,77.206 146.783,77.750 147.333 M72.500 151.750 C 75.111 154.362,77.285 156.500,77.331 156.500 C 77.377 156.500,75.278 154.362,72.667 151.750 C 70.055 149.137,67.881 147.000,67.836 147.000 C 67.790 147.000,69.889 149.137,72.500 151.750 M254.495 148.958 L 253.417 150.083 254.542 149.005 C 255.160 148.412,255.667 147.905,255.667 147.880 C 255.667 147.757,255.497 147.913,254.495 148.958 M244.824 149.292 L 244.250 149.917 244.875 149.342 C 245.457 148.808,245.577 148.667,245.449 148.667 C 245.422 148.667,245.140 148.948,244.824 149.292 M159.833 152.083 C 160.424 152.679,160.945 153.167,160.990 153.167 C 161.036 153.167,160.591 152.679,160.000 152.083 C 159.409 151.487,158.889 151.000,158.843 151.000 C 158.797 151.000,159.243 151.487,159.833 152.083 M251.073 152.542 L 250.583 153.083 251.125 152.594 C 251.630 152.138,251.743 152.000,251.615 152.000 C 251.586 152.000,251.342 152.244,251.073 152.542 M240.662 153.625 L 239.583 154.750 240.708 153.671 C 241.753 152.670,241.910 152.500,241.787 152.500 C 241.761 152.500,241.255 153.006,240.662 153.625 M84.917 154.500 C 85.738 155.325,86.447 156.000,86.493 156.000 C 86.539 156.000,85.905 155.325,85.083 154.500 C 84.262 153.675,83.553 153.000,83.507 153.000 C 83.461 153.000,84.095 153.675,84.917 154.500 M247.406 156.375 L 246.917 156.917 247.458 156.427 C 247.963 155.971,248.077 155.833,247.948 155.833 C 247.919 155.833,247.675 156.077,247.406 156.375 M155.167 156.917 C 155.478 157.237,155.770 157.500,155.815 157.500 C 155.861 157.500,155.644 157.237,155.333 156.917 C 155.022 156.596,154.730 156.333,154.685 156.333 C 154.639 156.333,154.856 156.596,155.167 156.917 M235.331 159.125 L 232.750 161.750 235.375 159.169 C 237.814 156.771,238.075 156.500,237.956 156.500 C 237.932 156.500,236.751 157.681,235.331 159.125 M243.333 160.583 C 242.928 160.996,242.635 161.333,242.681 161.333 C 242.726 161.333,243.095 160.996,243.500 160.583 C 243.905 160.171,244.199 159.833,244.153 159.833 C 244.107 159.833,243.738 160.171,243.333 160.583 M163.544 163.953 C 163.797 163.991,164.172 163.990,164.377 163.951 C 164.582 163.911,164.375 163.880,163.917 163.881 C 163.458 163.882,163.291 163.915,163.544 163.953 M97.750 167.167 C 99.123 168.542,100.283 169.667,100.329 169.667 C 100.375 169.667,99.289 168.542,97.917 167.167 C 96.544 165.792,95.383 164.667,95.338 164.667 C 95.292 164.667,96.377 165.792,97.750 167.167 M227.497 166.958 L 225.583 168.917 227.542 167.003 C 228.619 165.950,229.500 165.069,229.500 165.044 C 229.500 164.924,229.275 165.139,227.497 166.958 M236.580 167.542 L 234.917 169.250 236.625 167.586 C 237.565 166.672,238.333 165.903,238.333 165.878 C 238.333 165.758,238.125 165.955,236.580 167.542 M89.583 168.667 C 90.405 169.492,91.114 170.167,91.160 170.167 C 91.206 170.167,90.571 169.492,89.750 168.667 C 88.929 167.842,88.219 167.167,88.174 167.167 C 88.128 167.167,88.762 167.842,89.583 168.667 M101.417 170.833 C 101.961 171.383,102.444 171.833,102.490 171.833 C 102.535 171.833,102.128 171.383,101.583 170.833 C 101.039 170.283,100.556 169.833,100.510 169.833 C 100.465 169.833,100.872 170.283,101.417 170.833 M92.083 171.167 C 92.535 171.625,92.942 172.000,92.987 172.000 C 93.033 172.000,92.701 171.625,92.250 171.167 C 91.799 170.708,91.392 170.333,91.346 170.333 C 91.300 170.333,91.632 170.708,92.083 171.167 M230.491 173.458 L 229.917 174.083 230.542 173.509 C 230.885 173.193,231.167 172.912,231.167 172.884 C 231.167 172.757,231.026 172.877,230.491 173.458 M106.167 175.583 C 106.665 176.088,107.109 176.500,107.155 176.500 C 107.201 176.500,106.831 176.088,106.333 175.583 C 105.835 175.079,105.391 174.667,105.345 174.667 C 105.299 174.667,105.669 175.079,106.167 175.583 M108.250 177.667 C 108.794 178.217,109.277 178.667,109.323 178.667 C 109.369 178.667,108.961 178.217,108.417 177.667 C 107.872 177.117,107.390 176.667,107.344 176.667 C 107.298 176.667,107.706 177.117,108.250 177.667 M216.240 177.542 L 215.750 178.083 216.292 177.594 C 216.797 177.138,216.910 177.000,216.781 177.000 C 216.752 177.000,216.509 177.244,216.240 177.542 M224.491 179.125 L 223.917 179.750 224.542 179.176 C 224.885 178.860,225.167 178.578,225.167 178.551 C 225.167 178.423,225.026 178.543,224.491 179.125 M110.167 179.719 C 110.167 179.748,110.410 179.991,110.708 180.260 L 111.250 180.750 110.760 180.208 C 110.304 179.703,110.167 179.590,110.167 179.719 M222.240 181.208 L 221.750 181.750 222.292 181.260 C 222.797 180.804,222.910 180.667,222.781 180.667 C 222.752 180.667,222.509 180.910,222.240 181.208 M220.406 182.875 L 219.917 183.417 220.458 182.927 C 220.963 182.471,221.077 182.333,220.948 182.333 C 220.919 182.333,220.675 182.577,220.406 182.875 M104.417 183.500 C 104.775 183.867,105.105 184.167,105.151 184.167 C 105.197 184.167,104.941 183.867,104.583 183.500 C 104.225 183.133,103.895 182.833,103.849 182.833 C 103.803 182.833,104.059 183.133,104.417 183.500 M106.167 185.385 C 106.167 185.414,106.410 185.658,106.708 185.927 L 107.250 186.417 106.760 185.875 C 106.304 185.370,106.167 185.257,106.167 185.385 M216.073 186.708 L 215.583 187.250 216.125 186.760 C 216.630 186.304,216.743 186.167,216.615 186.167 C 216.586 186.167,216.342 186.410,216.073 186.708 M107.833 187.219 C 107.833 187.248,108.077 187.491,108.375 187.760 L 108.917 188.250 108.427 187.708 C 107.971 187.203,107.833 187.090,107.833 187.219 M127.667 200.250 C 128.257 200.846,128.778 201.333,128.824 201.333 C 128.870 201.333,128.424 200.846,127.833 200.250 C 127.243 199.654,126.722 199.167,126.676 199.167 C 126.630 199.167,127.076 199.654,127.667 200.250 M156.292 212.287 C 156.590 212.324,157.077 212.324,157.375 212.287 C 157.673 212.250,157.429 212.220,156.833 212.220 C 156.237 212.220,155.994 212.250,156.292 212.287 " stroke="none" fill="#c9c8ca" fill-rule="evenodd"></path></g></svg>