<?xml version="1.0" standalone="no"?>
<!DOCTYPE svg PUBLIC "-//W3C//DTD SVG 20010904//EN"
 "http://www.w3.org/TR/2001/REC-SVG-20010904/DTD/svg10.dtd">
<svg version="1.0" xmlns="http://www.w3.org/2000/svg"
 width="1408.000000pt" height="768.000000pt" viewBox="0 0 1408.000000 768.000000"
 preserveAspectRatio="xMidYMid meet">

<g transform="translate(0.000000,768.000000) scale(0.100000,-0.100000)"
fill="#000000" stroke="none">
<path d="M7909 6952 c-54 -35 -95 -82 -123 -142 -19 -40 -21 -64 -21 -215 0
-151 3 -178 24 -243 27 -86 26 -125 -16 -442 -22 -171 -24 -214 -17 -345 8
-164 8 -205 3 -560 -3 -166 0 -269 9 -333 13 -91 13 -94 -10 -140 -20 -42 -42
-60 -183 -155 -373 -252 -477 -302 -800 -388 -262 -69 -432 -173 -531 -326
-42 -65 -45 -72 -100 -261 -24 -84 -54 -172 -65 -195 -12 -23 -90 -145 -174
-272 -84 -126 -188 -291 -230 -365 -118 -207 -163 -260 -335 -392 -164 -126
-251 -237 -390 -499 -147 -276 -221 -411 -323 -588 -84 -145 -101 -183 -105
-225 -5 -66 24 -111 92 -145 45 -23 59 -24 200 -24 162 1 194 8 239 51 58 55
56 136 -4 212 l-33 41 28 54 c35 67 80 119 315 365 103 107 222 236 265 285
110 127 171 181 336 300 194 139 348 273 568 492 l184 183 126 -89 c163 -114
331 -219 507 -316 236 -130 247 -142 359 -363 96 -189 166 -273 352 -427 l101
-84 12 -113 c6 -62 18 -188 26 -280 8 -92 21 -182 28 -200 19 -45 78 -95 124
-105 21 -4 283 -8 583 -8 505 0 548 1 573 18 40 26 60 64 60 113 0 61 -34 95
-116 118 -93 26 -204 72 -279 117 -158 93 -255 191 -478 481 l-104 136 -1 163
c-1 108 -8 191 -18 244 -19 90 -21 197 -7 330 5 50 14 148 20 219 7 91 21 167
47 265 35 126 37 146 37 271 0 117 -4 147 -27 223 -35 114 -39 273 -7 324 45
75 149 94 314 59 75 -17 100 -18 162 -9 130 19 252 93 324 199 121 175 90 471
-67 627 -103 103 -261 149 -393 113 -40 -10 -53 -9 -114 11 -38 13 -80 23 -93
23 -32 0 -70 -40 -78 -81 -6 -30 -14 -37 -73 -64 -87 -39 -148 -97 -158 -150
-6 -31 -2 -57 18 -113 l25 -72 -26 -6 c-14 -3 -32 -7 -38 -9 -14 -5 -67 47
-87 85 -8 15 -16 77 -19 160 -5 149 -16 195 -78 333 -32 72 -41 106 -49 190
-6 56 -18 156 -26 222 -14 103 -14 139 -3 256 11 124 10 160 -10 385 -35 392
-34 402 35 474 46 49 73 115 86 215 11 83 11 85 -13 111 -20 22 -30 25 -66 21
-28 -3 -43 -1 -43 7 0 53 -23 194 -35 217 -34 65 -139 80 -216 31z m121 -91
c5 -11 13 -85 18 -165 7 -120 11 -149 27 -166 22 -24 43 -25 73 -4 46 32 13
-50 -48 -121 -81 -93 -83 -114 -48 -521 19 -237 20 -273 8 -390 -10 -100 -10
-148 -1 -215 6 -47 18 -154 26 -238 14 -145 17 -158 59 -250 60 -133 76 -204
76 -344 0 -140 9 -166 81 -242 60 -64 96 -77 165 -63 77 16 79 15 115 -32 19
-25 50 -55 68 -67 58 -39 131 -24 131 27 0 23 -12 34 -64 63 -31 17 -49 39
-82 101 -23 44 -50 104 -59 133 -17 54 -17 55 5 78 12 13 52 38 88 55 76 37
112 66 112 90 0 27 7 28 78 8 63 -17 71 -17 131 -2 128 32 270 -22 337 -128
65 -102 87 -268 51 -366 -41 -108 -129 -188 -242 -217 -76 -19 -101 -19 -209
5 -105 23 -143 25 -211 6 -73 -19 -108 -40 -152 -90 -52 -59 -63 -101 -63
-237 0 -94 5 -128 26 -194 17 -53 27 -114 31 -180 5 -93 3 -111 -35 -265 -30
-121 -45 -211 -57 -340 -30 -312 -30 -390 -5 -535 26 -152 24 -292 -9 -515
-24 -162 -41 -361 -41 -480 0 -123 5 -128 183 -185 226 -73 227 -70 -5 -67
-229 3 -243 4 -258 32 -6 11 -19 117 -31 237 -11 120 -27 272 -35 338 -25 194
-29 419 -10 581 15 136 15 149 -5 310 -24 193 -28 474 -9 652 13 127 8 145
-61 212 -49 47 -100 65 -249 86 -143 20 -285 14 -427 -19 l-102 -23 -63 64
c-35 35 -107 104 -160 153 -101 92 -130 105 -162 73 -33 -33 -19 -54 130 -198
172 -165 295 -302 508 -568 86 -106 177 -219 203 -250 26 -31 73 -97 103 -147
30 -50 85 -137 122 -194 l66 -103 -10 -90 c-5 -49 -8 -157 -6 -241 l4 -151
-26 18 c-49 35 -208 206 -242 260 -20 30 -61 108 -92 173 -90 184 -147 236
-401 374 -219 118 -829 524 -930 619 -102 97 -161 212 -171 337 -16 191 90
355 290 452 88 42 120 53 386 129 173 50 378 154 615 312 204 136 265 186 298
249 25 49 27 101 8 320 -11 132 -11 196 -1 363 10 165 10 219 0 293 -16 108
-9 270 19 484 36 268 37 331 10 416 -21 65 -24 93 -24 236 l0 161 31 39 c30
37 88 83 105 83 5 0 13 -9 19 -19z m-1738 -3856 c48 -65 158 -159 257 -220 34
-21 61 -41 61 -45 0 -13 -365 -366 -477 -461 -61 -53 -171 -138 -245 -189
-152 -108 -229 -178 -372 -340 -55 -63 -187 -203 -292 -312 -290 -298 -357
-416 -289 -509 13 -19 32 -45 42 -58 16 -23 16 -24 -4 -41 -40 -32 -239 -37
-315 -8 -16 6 -28 18 -28 28 0 16 71 154 122 236 29 46 188 338 278 509 143
272 246 401 420 529 142 105 208 186 330 406 29 52 110 180 179 283 69 104
150 229 180 278 l55 90 26 -58 c15 -32 47 -85 72 -118z m1638 139 c124 -17
140 -23 183 -62 21 -20 26 -33 22 -52 -2 -14 -9 -101 -15 -193 -9 -166 0 -430
19 -532 5 -25 5 -43 1 -40 -4 2 -39 57 -78 122 -39 65 -108 161 -154 213 -46
52 -123 147 -173 210 -49 63 -125 158 -168 210 -91 108 -93 101 38 124 108 19
189 19 325 0z m773 -1794 c63 -80 144 -173 179 -207 133 -129 328 -245 495
-293 45 -13 80 -27 77 -32 -3 -4 -108 -8 -233 -8 l-228 0 -12 24 c-15 27 -49
44 -170 84 l-85 28 -11 55 c-16 78 -39 116 -118 192 l-70 67 12 117 c7 64 15
122 18 130 7 18 0 26 146 -157z m-117 -311 c15 -22 24 -42 21 -45 -3 -3 -23 0
-46 7 -41 12 -41 12 -41 62 0 49 0 50 19 33 11 -10 32 -35 47 -57z"/>
</g>
</svg>
