<?xml version="1.0" encoding="UTF-8"?>
<svg version="1.1" xmlns="http://www.w3.org/2000/svg" width="2816" height="1536">
<path d="M0 0 C929.28 0 1858.56 0 2816 0 C2816 506.88 2816 1013.76 2816 1536 C1886.72 1536 957.44 1536 0 1536 C0 1029.12 0 522.24 0 0 Z " fill="#FDFDFC" transform="translate(0,0)"/>
<path d="M0 0 C5.46283462 2.70106823 9.32751252 6.51693299 12 12 C13.08188599 19.80654987 11.7731326 27.29163526 9.75390625 34.83203125 C7.84100079 42.87019877 7.89297825 50.71812384 7.97265625 58.9375 C7.98686061 61.53132852 8.00051057 64.12516012 8.01367188 66.71899414 C8.02196047 68.0848903 8.03034383 69.45078589 8.03881836 70.81668091 C8.1557905 90.58775982 8.16729409 110.31725044 7 130.0625 C6.90788341 131.66120048 6.81600162 133.2599145 6.72436523 134.85864258 C6.68031052 135.62688858 6.6362558 136.39513458 6.59086609 137.18666077 C6.54798965 137.93717209 6.50511322 138.68768341 6.4609375 139.4609375 C6.41914871 140.19021957 6.37735992 140.91950165 6.33430481 141.67088318 C5.11360416 163.52580152 6.33758464 184.40918942 10 206 C10.1330957 206.79116211 10.26619141 207.58232422 10.40332031 208.39746094 C11.05683155 212.20150843 11.78417716 215.98826033 12.55078125 219.77099609 C13.53920217 224.67549772 14.48666013 229.58810036 15.4375 234.5 C15.65543213 235.625271 15.87336426 236.75054199 16.09790039 237.90991211 C17.46020628 245.0084029 18.71679211 252.11558852 19.875 259.25 C22.26116361 273.91891582 24.99001345 288.52429225 27.72520447 303.13137817 C28.62888029 307.96839876 29.50120083 312.8095756 30.3515625 317.65625 C33.95460643 337.89081879 40.24725874 354.68811162 51.1875 372.125 C57.36183173 382.30560312 60.11177367 393.66272835 62.625 405.1875 C65.86123341 420.05963009 65.86123341 420.05963009 70.79296875 434.42578125 C74.10955526 442.50553377 76.63666745 450.87953319 79.3125 459.1875 C79.60068604 460.07983337 79.88887207 460.97216675 80.18579102 461.89154053 C81.8879778 467.16328251 83.58223469 472.43750963 85.269104 477.71417236 C85.91292635 479.72768306 86.5586125 481.7405976 87.20458984 483.75341797 C93.45564647 503.3218137 97.84573873 522.79995046 100.75 543.125 C100.8570929 543.8739856 100.96418579 544.62297119 101.07452393 545.39465332 C102.99761402 558.98498741 104.13364529 572.34540644 104.19923019 586.08325768 C104.21126394 588.38670541 104.2307712 590.68998524 104.25234985 592.99336243 C104.31315976 599.53384624 104.36776527 606.07430483 104.40136719 612.61499023 C104.42259331 616.64257855 104.45810019 620.66984394 104.50212479 624.69724464 C104.5160538 626.20987914 104.52495338 627.72257054 104.52817917 629.23526573 C104.55389019 640.13663346 105.91263134 650.31206653 108 661 C108.48994612 664.04234059 108.91419397 667.09054724 109.32421875 670.14453125 C109.54491679 671.7232007 109.76663823 673.30172733 109.98925781 674.88012695 C110.15874939 676.0831395 110.15874939 676.0831395 110.33166504 677.31045532 C112.27269113 690.958732 114.57780889 704.39682829 117.75 717.8125 C123.03512998 740.19659905 126.59472804 762.91512152 130.28741455 785.60597229 C131.20294226 791.2308882 132.14325319 796.84746843 133.16796875 802.45361328 C135.26473382 814.05359125 136.65067503 825.25854412 136.52148438 837.05712891 C136.49977022 839.39978998 136.52163902 841.73945247 136.546875 844.08203125 C136.57455692 859.77513613 132.84378614 874.14572252 128 889 C125.64833223 896.44536111 123.42224139 903.92035496 121.3125 911.4375 C121.09795166 912.19506592 120.88340332 912.95263184 120.66235352 913.7331543 C118.90250694 920.06508931 117.9358618 926.05099807 117.76147461 932.62207031 C117.05843793 956.40930467 111.80464538 977.07177661 94.66015625 994.359375 C84.79468985 1003.64818696 73.37470853 1009.51170935 61.19311523 1015.14428711 C58.93414084 1016.1890536 56.68061487 1017.24490047 54.42773438 1018.30273438 C47.0363098 1021.75901559 39.63958964 1025.1191917 32 1028 C32.60492443 1032.95401267 33.64692752 1037.58770794 35.0625 1042.375 C46.71020667 1083.51146252 53.14008127 1124.21891384 53.1875 1167.0625 C53.18867828 1167.87367279 53.18985657 1168.68484558 53.19107056 1169.52059937 C53.18962689 1178.26844634 53.02822513 1187.00060407 52.59375 1195.73828125 C52.56101486 1196.46402847 52.52827972 1197.1897757 52.49455261 1197.93751526 C51.79352055 1210.42592794 47.70484442 1219.90810266 38.5625 1228.3125 C30.7008247 1234.65700989 21.96006199 1235.11047669 12.24682617 1235.16113281 C11.51414268 1235.16602407 10.7814592 1235.17091534 10.02657318 1235.17595482 C7.61536473 1235.19029436 5.20421153 1235.19716103 2.79296875 1235.203125 C1.08177157 1235.21000254 -0.62942533 1235.21695188 -2.34062195 1235.22396851 C-7.83124968 1235.24318001 -13.32184298 1235.24763316 -18.8125 1235.25 C-19.74115875 1235.25088371 -20.6698175 1235.25176743 -21.62661743 1235.25267792 C-53.58527792 1235.27977209 -85.15072072 1234.38422858 -116.9152832 1230.65603638 C-128.18873669 1229.26990759 -128.18873669 1229.26990759 -139.12062073 1231.49745178 C-143.82648837 1233.08995296 -148.00332317 1233.43274207 -152.94116211 1233.40405273 C-153.78472763 1233.41091599 -154.62829315 1233.41777924 -155.49742126 1233.42485046 C-158.25757165 1233.44299861 -161.01714711 1233.43929831 -163.77734375 1233.43359375 C-165.71350792 1233.43816121 -167.64967046 1233.44346846 -169.58583069 1233.44947815 C-173.63305266 1233.45838567 -177.68007706 1233.45601295 -181.72729492 1233.44604492 C-186.89301112 1233.43455674 -192.05804356 1233.45477664 -197.22367001 1233.48396206 C-201.2190427 1233.5023786 -205.21425315 1233.50202077 -209.20965767 1233.49632454 C-211.11329673 1233.496172 -213.01694726 1233.50216011 -214.92054558 1233.51461601 C-226.17639762 1233.57790222 -235.25571122 1233.44836068 -244.9375 1227.0625 C-248.90193539 1223.09806461 -250.22511862 1220.2301316 -250.5625 1214.625 C-250.39166107 1209.73637834 -249.51897208 1206.91387971 -246.0078125 1203.484375 C-234.68163313 1195.110935 -218.64890896 1192.14373283 -205.25390625 1188.24609375 C-194.66258228 1185.15625408 -184.18106683 1181.83556476 -173.84570312 1177.96704102 C-172.85280273 1177.60437134 -172.85280273 1177.60437134 -171.83984375 1177.234375 C-170.97927368 1176.91291504 -170.97927368 1176.91291504 -170.10131836 1176.58496094 C-164.00441626 1174.88771713 -157.81129141 1174.83026088 -151.53515625 1174.75390625 C-149.67642592 1174.72262592 -147.81770213 1174.69095437 -145.95898438 1174.65893555 C-144.99565186 1174.64357758 -144.03231934 1174.6282196 -143.03979492 1174.61239624 C-113.77551211 1174.12195854 -85.46921328 1171.36829231 -56.578125 1166.62890625 C-55.87603409 1166.51407394 -55.17394318 1166.39924164 -54.45057678 1166.28092957 C-51.03692884 1165.72161711 -47.62474835 1165.15522695 -44.21459961 1164.57495117 C-42.36620483 1164.26714722 -42.36620483 1164.26714722 -40.48046875 1163.953125 C-39.39660889 1163.76911133 -38.31274902 1163.58509766 -37.19604492 1163.39550781 C-33.76777335 1162.97126215 -30.45095035 1162.93357798 -27 1163 C-27.25394531 1162.2471875 -27.50789063 1161.494375 -27.76953125 1160.71875 C-31.36758667 1149.61463888 -33.42280233 1138.53011415 -34.93359375 1126.98828125 C-35.09988281 1125.72693359 -35.26617188 1124.46558594 -35.4375 1123.16601562 C-35.76270426 1120.65965622 -36.07709773 1118.15186227 -36.37890625 1115.64257812 C-38.07054827 1102.46067269 -41.66556156 1091.64073074 -48.5 1080.25 C-59 1062.46428571 -59 1062.46428571 -59 1058 C-59.50748779 1058.24645264 -60.01497559 1058.49290527 -60.5378418 1058.74682617 C-62.91850536 1059.89910713 -65.30232165 1061.04459268 -67.6875 1062.1875 C-68.55004395 1062.6009668 -69.41258789 1063.01443359 -70.30126953 1063.44042969 C-76.2199815 1066.24397214 -82.1177221 1068.6671055 -88.3359375 1070.734375 C-94.18721114 1073.51415896 -96.84369562 1078.07268226 -99.5625 1083.75 C-99.862771 1084.36834717 -100.16304199 1084.98669434 -100.47241211 1085.6237793 C-102.09219206 1088.98382594 -103.60877966 1092.37808569 -105.0625 1095.8125 C-107.85291475 1102.16187593 -111.60555624 1109.41507199 -117.6640625 1113.171875 C-129.233407 1117.27338175 -140.01481764 1113.10775412 -150.52734375 1108.23828125 C-154.45743967 1106.3460767 -158.16878546 1104.16332839 -161.86157227 1101.84448242 C-164.6297134 1100.75132108 -166.18396639 1101.16320761 -169 1102 C-169.7425 1102.37125 -170.485 1102.7425 -171.25 1103.125 C-175.32707812 1104.42225213 -178.8736803 1104.00606381 -183 1103 C-190.81318678 1098.87227868 -193.65700994 1093.01378497 -196.5 1085.0625 C-199.67806139 1076.21762137 -203.13848814 1070.21112866 -210.75 1064.5625 C-212.01132208 1063.59362548 -213.27174511 1062.62357938 -214.53125 1061.65234375 C-215.68745426 1060.76816935 -216.84369926 1059.88404822 -218 1059 C-233.38388806 1047.12876638 -242.55048712 1030.09772678 -246.5859375 1011.265625 C-248.36829369 997.20855165 -247.50221587 983.41749483 -243 970 C-242.66097656 968.97003906 -242.32195312 967.94007813 -241.97265625 966.87890625 C-237.19637122 954.07982217 -228.58562069 942.60217616 -219 933 C-217.86498047 931.84757812 -217.86498047 931.84757812 -216.70703125 930.671875 C-200.02757307 914.67265574 -179.64448473 909.31605913 -157.03515625 909.75 C-151.03494359 909.9719424 -145.66386222 911.00431673 -140 913 C-138.47439453 913.49306641 -138.47439453 913.49306641 -136.91796875 913.99609375 C-118.9564101 920.27286576 -104.99950321 931.40600961 -93 946 C-92.34 946.33 -91.68 946.66 -91 947 C-90.96132812 946.00033203 -90.96132812 946.00033203 -90.921875 944.98046875 C-89.9954468 929.92601053 -82.93626096 919.62046072 -74.5 907.5625 C-68.71269968 899.27353747 -63.78012323 890.68224249 -59.296875 881.625 C-58.58816072 880.19993908 -57.8790845 878.77505812 -57.16967773 877.3503418 C-56.80969696 876.62720795 -56.44971619 875.9040741 -56.0788269 875.1590271 C-54.38625618 871.7717311 -52.67088213 868.39609383 -50.95703125 865.01953125 C-33.22240362 830.27187352 -33.22240362 830.27187352 -19 794 C-18.60482178 792.89289673 -18.60482178 792.89289673 -18.20166016 791.76342773 C-16.01380206 785.2353916 -15.5432092 779.29429559 -15.625 772.4375 C-15.60759766 770.97280273 -15.60759766 770.97280273 -15.58984375 769.47851562 C-15.65672462 752.8140315 -24.7121048 740.59968721 -35.33447266 728.47705078 C-58.32727498 702.2287752 -69.03003452 674.12866998 -67 639 C-65.67473752 626.80621892 -61.31768185 615.93851487 -56 605 C-54.54198409 601.99455423 -53.08423177 598.98901408 -51.63110352 595.98120117 C-50.64473707 593.94691032 -49.64944736 591.91691629 -48.64428711 589.8918457 C-48.18675049 588.9555835 -47.72921387 588.01932129 -47.2578125 587.0546875 C-46.8467627 586.22437012 -46.43571289 585.39405273 -46.01220703 584.53857422 C-43.90831386 579.2620954 -43.85051885 573.93890914 -43.8671875 568.328125 C-43.86623077 567.60566589 -43.86527405 566.88320679 -43.86428833 566.13885498 C-43.86361089 564.6160066 -43.86543464 563.09315526 -43.86962891 561.5703125 C-43.87495193 559.27076521 -43.86968528 556.97141603 -43.86328125 554.671875 C-43.86394272 553.18229124 -43.86522529 551.69270761 -43.8671875 550.203125 C-43.86415115 549.19321503 -43.86415115 549.19321503 -43.86105347 548.16290283 C-43.87849867 544.50699057 -44.08858169 540.94313293 -44.49780273 537.30932617 C-45.15440617 531.15654844 -45.16211871 525.03040801 -45.16796875 518.84765625 C-45.17129715 517.59407822 -45.17462555 516.34050018 -45.17805481 515.04893494 C-45.18310015 512.39725183 -45.185899 509.74567124 -45.18530273 507.09399414 C-45.1851831 503.1335469 -45.20556542 499.17329218 -45.22460938 495.21289062 C-45.25412333 481.47510999 -44.92026628 467.86908955 -43.72392273 454.17884827 C-41.70054958 431.00126578 -41.94788072 408.43043078 -50.8984375 386.703125 C-52.56156969 382.62196373 -54.1014286 378.49452213 -55.65625 374.37109375 C-56.69142153 371.77413727 -57.79299094 369.26860084 -58.96484375 366.734375 C-75.26696607 330.2860119 -70.62299381 288.73986745 -66.81108093 250.27708435 C-64.79162444 229.87015046 -62.8348396 209.38837671 -62.4375 188.875 C-62.39850586 187.83335693 -62.35951172 186.79171387 -62.31933594 185.71850586 C-62.2866433 176.66041581 -65.46197454 168.4242357 -71.74609375 161.7734375 C-72.63425781 160.98195313 -73.52242187 160.19046875 -74.4375 159.375 C-83.39836365 150.88961075 -89.80298092 142.2249603 -90.5 129.625 C-90.05654992 116.35845181 -80.30491172 105.81068565 -72.0625 96.25 C-59.91560985 81.80807531 -53.35217189 65.27911744 -47.5625 47.5 C-41.32286524 28.44423837 -33.82123792 11.85475413 -16.15625 0.8515625 C-11.04499267 -1.16701376 -5.34818459 -0.77407935 0 0 Z " fill="#060707" transform="translate(1465,151)"/>
<path d="M0 0 C3.02442036 10.90148712 4.87611804 21.99109379 6.8125 33.125 C7.16388517 35.13002382 7.5156144 37.13498738 7.86767578 39.13989258 C8.40072137 42.17652203 8.93331103 45.21322593 9.46405029 48.2502594 C10.55047459 54.46364796 11.6576476 60.67284982 12.78515625 66.87890625 C22.50769138 120.49101577 22.50769138 120.49101577 17 142 C16.68812043 143.38236644 16.3784435 144.76523067 16.0703125 146.1484375 C13.45506428 157.52194503 9.96609373 168.51872106 6.12280273 179.53515625 C2.81779345 189.10524555 0.82543174 197.94824889 0.5625 208.0625 C-0.13886019 224.91184357 -2.30602986 242.96318162 -14 256 C-14.80824219 256.96292969 -14.80824219 256.96292969 -15.6328125 257.9453125 C-26.06463916 269.46096531 -41.8401345 275.56083612 -55.67285156 281.92675781 C-57.68126873 282.85300643 -59.6821597 283.79276628 -61.6796875 284.7421875 C-68.61864407 288 -68.61864407 288 -72 288 C-72.00410889 287.23856689 -72.00821777 286.47713379 -72.01245117 285.69262695 C-72.0454114 282.23180334 -72.11606054 278.77273429 -72.1875 275.3125 C-72.19330078 274.11431641 -72.19910156 272.91613281 -72.20507812 271.68164062 C-72.11048634 264.6278917 -72.11048634 264.6278917 -75.36328125 258.70703125 C-78.64894468 256.57986841 -80.16160622 256.20033463 -84 257 C-87.1336365 259.52926962 -88.7996501 261.03731293 -89.63110352 265.0324707 C-89.63001587 266.71215942 -89.63001587 266.71215942 -89.62890625 268.42578125 C-89.63398193 269.68519531 -89.63905762 270.94460938 -89.64428711 272.2421875 C-89.61955514 273.59900682 -89.59223251 274.95578105 -89.5625 276.3125 C-89.55413116 277.0029541 -89.54576233 277.6934082 -89.53713989 278.40478516 C-89.30201707 296.73219918 -86.28896432 313.82724999 -80.71533203 331.28710938 C-74.81942128 349.75865465 -70.72399774 368.81054432 -68 388 C-67.84901855 389.0401123 -67.69803711 390.08022461 -67.54248047 391.15185547 C-64.97274515 409.78312953 -64.71075714 428.34187012 -64.6875 447.125 C-64.68391479 448.30820831 -64.68032959 449.49141663 -64.67663574 450.71047974 C-64.6224334 483.94891078 -64.6224334 483.94891078 -70 491 C-74.61211362 494.06488386 -78.95784386 494.51870262 -84.359375 494.6640625 C-85.64313019 494.71235703 -85.64313019 494.71235703 -86.95281982 494.7616272 C-89.96835129 494.8634913 -92.98344148 494.9354034 -96 495 C-97.72947876 495.03812805 -97.72947876 495.03812805 -99.49389648 495.07702637 C-109.07921 495.26964354 -118.66298689 495.34580757 -128.25 495.375 C-128.99615444 495.37789032 -129.74230888 495.38078064 -130.51107407 495.38375854 C-156.02813463 495.47423716 -181.06653236 494.1396151 -206.45462036 491.42953491 C-224.08670051 488.91460648 -224.08670051 488.91460648 -241.3515625 491.47924805 C-246.07752559 493.15741066 -250.40684338 493.54408235 -255.39453125 493.67578125 C-256.73642265 493.72500481 -256.73642265 493.72500481 -258.10542297 493.77522278 C-268.8208078 494.12918135 -279.54353829 494.18607549 -290.26391602 494.18530273 C-293.74962727 494.18753987 -297.23504543 494.20592798 -300.72070312 494.22460938 C-302.94270727 494.22753531 -305.16471288 494.22952544 -307.38671875 494.23046875 C-308.42608078 494.23765427 -309.46544281 494.24483978 -310.53630066 494.25224304 C-311.48942642 494.24916641 -312.44255219 494.24608978 -313.42456055 494.24291992 C-314.26278854 494.24434494 -315.10101654 494.24576996 -315.96464539 494.24723816 C-318 494 -318 494 -320 492 C-314.02686954 490.09718193 -308.05355372 488.19494718 -302.08007812 486.29321289 C-300.05528963 485.64850971 -298.03054864 485.00365733 -296.00585938 484.35864258 C-295.02939453 484.04757568 -294.05292969 483.73650879 -293.046875 483.41601562 C-292.07723816 483.10683701 -291.10760132 482.79765839 -290.10858154 482.47911072 C-288.15654554 481.85874716 -286.20345068 481.24170587 -284.24932861 480.62794495 C-280.02395776 479.2988502 -275.81656952 477.95518983 -271.65136719 476.44702148 C-262.25456302 473.10916444 -253.73370963 472.36110073 -243.79037476 472.42599487 C-239.29815204 472.44633974 -234.80775699 472.36312275 -230.31640625 472.28125 C-228.91851616 472.2565287 -228.91851616 472.2565287 -227.49238586 472.23130798 C-200.0822406 471.65681251 -173.00470471 468.20633983 -146.16479492 462.73022461 C-144.4540659 462.38689711 -142.74288931 462.04579138 -141.03125 461.70703125 C-140.20776566 461.54393967 -139.38428131 461.38084808 -138.5358429 461.21281433 C-131.51661631 459.91245952 -124.55368673 459.51004497 -117.41906738 459.51264954 C-112.60179427 459.472505 -112.60179427 459.472505 -108.50195312 457.09301758 C-105.47661262 452.87711313 -105.55647082 449.04969638 -106 444 C-106.85521396 440.10362505 -108.03023112 436.31593172 -109.1875 432.5 C-112.1969563 422.04181611 -114.17067673 411.68763077 -115.6875 400.9375 C-118.44957948 381.63438683 -121.93384056 365.40816047 -132.05078125 348.5546875 C-144.44063495 327.81671878 -148.37575981 306.84056218 -148.44677734 282.8684082 C-148.44927454 277.26460807 -148.44927454 277.26460807 -150.8203125 272.34765625 C-154.09901105 270.32050392 -156.22682095 270.40423489 -160 271 C-163.22965664 273.54901925 -164.81621989 275.01881412 -165.58349609 279.11523438 C-165.56367676 280.26314453 -165.54385742 281.41105469 -165.5234375 282.59375 C-165.51183594 283.8725 -165.50023437 285.15125 -165.48828125 286.46875 C-165.45077347 287.81250708 -165.41301207 289.1562571 -165.375 290.5 C-165.36082031 291.799375 -165.34664062 293.09875 -165.33203125 294.4375 C-165.20876785 302.65506011 -164.73189602 310.81528157 -164 319 C-173.28074232 323.81318498 -182.59125834 328.26275896 -192.35083008 332.03320312 C-207.31936567 338.03668664 -213.20506411 349.53393828 -219.375 363.6875 C-219.70886719 364.47801758 -220.04273438 365.26853516 -220.38671875 366.08300781 C-220.69996094 366.82260742 -221.01320313 367.56220703 -221.3359375 368.32421875 C-221.60970215 368.98510498 -221.8834668 369.64599121 -222.16552734 370.3269043 C-223 372 -223 372 -225 374 C-232.08198342 374.84514277 -236.3763853 372.73306188 -242.4375 369.25 C-254.47690502 361.79991162 -254.47690502 361.79991162 -268 360 C-270.71126384 361.42621684 -270.71126384 361.42621684 -273 363 C-273.99 363 -274.98 363 -276 363 C-276.27972656 362.05640625 -276.55945312 361.1128125 -276.84765625 360.140625 C-281.64526084 344.49822164 -287.73573509 335.35148256 -301.28808594 326.18701172 C-307.29645501 322.02091211 -312.62767988 316.8628838 -317 311 C-317 310.67 -317 310.34 -317 310 C-316.19594727 309.89977539 -315.39189453 309.79955078 -314.56347656 309.69628906 C-300.11843965 307.87881081 -285.76236894 306.0035088 -271.51953125 302.93359375 C-268.38143977 302.26090167 -265.2472769 301.70421964 -262.07421875 301.22265625 C-261.28313721 301.09963135 -260.49205566 300.97660645 -259.67700195 300.84985352 C-258.18681514 300.62337799 -256.6944386 300.41069971 -255.19995117 300.21459961 C-251.40982648 299.65566067 -251.40982648 299.65566067 -248.53125 297.30859375 C-247.60292146 293.27446018 -248.08258028 289.29466439 -248.3203125 285.19140625 C-247.92659582 281.26864375 -246.77528687 279.74022007 -244 277 C-241.25 276.25 -241.25 276.25 -238 277 C-233.32726472 280.18313466 -229.40859366 283.83247179 -227 289 C-226.66862185 292.43586815 -226.56368703 295.76032878 -226.56054688 299.20507812 C-226.46713974 302.6353748 -226.2465368 304.65722735 -224.21875 307.4765625 C-220.63031763 309.94045092 -218.28692411 309.34023207 -214 309 C-210.88224923 308.33010624 -210.88224923 308.33010624 -209.80078125 305.9140625 C-208.47880603 301.10336243 -209.13168109 296.33811267 -209.41796875 291.3984375 C-209 288 -209 288 -206.8515625 286.2109375 C-205.44003906 285.61152344 -205.44003906 285.61152344 -204 285 C-202.59814453 284.32710937 -202.59814453 284.32710937 -201.16796875 283.640625 C-200.18441406 283.18171875 -199.20085937 282.7228125 -198.1875 282.25 C-189.26262229 277.78756114 -182.70347288 272.4644307 -179 263 C-177.18039223 256.7836929 -176.16736781 250.47549054 -175.36328125 244.0625 C-173.11192231 226.13994971 -169.37868899 211.97288265 -158.2109375 197.59863281 C-149.56075953 186.17900271 -143.48076239 172.70524953 -137 160 C-136.63406738 159.28473145 -136.26813477 158.56946289 -135.89111328 157.83251953 C-133.54931903 153.24334881 -131.26794294 148.62602821 -129 144 C-128.53513184 143.05769531 -128.07026367 142.11539063 -127.59130859 141.14453125 C-104.62658469 97.33016709 -104.62658469 97.33016709 -95.6875 49.5 C-95.67138672 48.53191406 -95.65527344 47.56382812 -95.63867188 46.56640625 C-95.63477418 40.75883575 -96.33706217 35.85791931 -98.25708008 30.36914062 C-99.123776 27.60528349 -99.57368766 24.86168281 -100 22 C-99.25242432 21.93530518 -98.50484863 21.87061035 -97.73461914 21.80395508 C-81.08540401 20.32388368 -64.95246078 18.1725694 -48.61425781 14.57128906 C-46.28588644 14.06247425 -43.95481989 13.58120369 -41.6171875 13.1171875 C-36.23856406 12.03232715 -31.23339475 10.78709194 -26.12133789 8.81152344 C-23.97327072 7.98977464 -21.81284112 7.22027102 -19.640625 6.46484375 C-18.91746094 6.21283203 -18.19429687 5.96082031 -17.44921875 5.70117188 C-15.96791816 5.18679485 -14.48613659 4.67380107 -13.00390625 4.16210938 C-10.13730008 3.16111315 -7.38163799 2.19402066 -4.671875 0.81640625 C-3 0 -3 0 0 0 Z " fill="#FBFBFA" transform="translate(1564,872)"/>
<path d="M0 0 C1.05638672 0.00451172 2.11277344 0.00902344 3.20117188 0.01367188 C5.78000908 0.02534082 8.35872294 0.04171115 10.9375 0.0625 C13.8154778 16.0832431 13.8154778 16.0832431 14.9375 23.5 C17.68613531 41.62311572 20.84815974 59.690177 24.96484375 77.55859375 C25.95303253 81.95371851 26.68926508 86.37694511 27.41064453 90.82275391 C27.9618315 94.21211955 28.53821904 97.59641373 29.12109375 100.98046875 C29.42648071 102.75454102 29.42648071 102.75454102 29.73803711 104.56445312 C30.17374479 107.08551218 30.61082121 109.60633496 31.04907227 112.12695312 C32.945256 123.03813216 32.945256 123.03813216 33.71875 127.98828125 C37.00667668 148.73066329 43.42249572 167.81477569 54.5 185.6953125 C60.74861549 195.98515215 64.37459476 206.51011326 66.53271484 218.31958008 C68.17066106 227.14976786 70.49862416 235.46641017 73.43521118 243.94839478 C74.21795827 246.21312524 74.98694286 248.48215196 75.75268555 250.75268555 C76.87483002 254.07902212 78.00001712 257.40429599 79.12841797 260.72851562 C94.49267917 306.01774006 106.81696234 349.1174894 107.16729546 397.35111237 C107.18415746 399.59048976 107.20738797 401.8297279 107.23219299 404.06903076 C107.30181403 410.4222484 107.3630774 416.77551335 107.41430664 423.12890625 C107.44636919 427.05079783 107.48767776 430.97250719 107.53450203 434.89424896 C107.55031997 436.36915543 107.56273221 437.84410314 107.57140923 439.31906891 C107.62381979 448.08724767 108.25099052 456.44636927 109.9375 465.0625 C110.20319105 466.64126801 110.46285974 468.22106619 110.71533203 469.80200195 C110.83530548 470.53929031 110.95527893 471.27657867 111.07888794 472.03620911 C111.60642611 475.29649344 112.12993965 478.5574147 112.65185547 481.81860352 C112.92711056 483.53215648 113.20447724 485.2453715 113.48388672 486.95825195 C113.89289986 489.46745449 114.29480793 491.97770834 114.6953125 494.48828125 C114.82028107 495.24571121 114.94524963 496.00314117 115.07400513 496.78352356 C115.78090183 501.27062977 116.05648494 505.51974478 115.9375 510.0625 C91.04532828 521.2277699 91.04532828 521.2277699 79.9375 524.0625 C78.69484375 524.38347656 77.4521875 524.70445312 76.171875 525.03515625 C58.86835631 529.32892441 40.69035295 533.00112422 22.859375 533.90625 C19.92956637 534.02159562 19.92956637 534.02159562 17.015625 534.46875 C12.83441814 534.88456063 10.13294162 534.94411239 6.67578125 532.39453125 C4.69066303 530.26685517 2.89878259 528.08064642 1.17675781 525.73583984 C-0.1761301 523.90906802 -1.5872364 522.13785943 -3.0078125 520.36328125 C-20.42253045 498.28855692 -28.65905584 475.14763662 -25.83984375 446.82568359 C-24.67577105 438.16276929 -21.96509133 430.80355557 -18.0625 423.0625 C-16.77966869 420.38094463 -15.50938427 417.6935959 -14.23852539 415.00634766 C-12.9207816 412.22174385 -11.59724568 409.44001851 -10.26953125 406.66015625 C-9.8928833 405.87133057 -9.51623535 405.08250488 -9.12817383 404.26977539 C-8.45985062 402.88551189 -7.76273562 401.51440175 -7.02514648 400.16577148 C-2.76038238 390.84775406 -2.62712633 380.15045251 -2.78125 370.10351562 C-2.81248296 368.06361305 -2.82225697 366.02449389 -2.828125 363.984375 C-2.86481709 357.81768829 -3.05313583 351.69542774 -3.5703125 345.546875 C-4.38115264 335.15284447 -4.21161607 324.73151749 -4.1875 314.3125 C-4.18661377 313.20679657 -4.18572754 312.10109314 -4.18481445 310.96188354 C-4.17204724 297.34134945 -4.03269906 283.73748946 -3.5625 270.125 C-3.19533195 259.30241767 -2.90153387 248.48577773 -2.83032227 237.6569519 C-2.81872191 236.17164905 -2.80190443 234.68637475 -2.77905273 233.20120239 C-2.57797156 219.52273458 -4.70593102 206.9435309 -9.1875 194 C-9.48317871 193.12424316 -9.77885742 192.24848633 -10.08349609 191.34619141 C-12.35461693 184.75982398 -14.97756305 178.35321791 -17.6875 171.9375 C-33.88553837 133.34855577 -29.50928234 92.65873004 -25.23046875 52.09375 C-24.96597089 49.58335176 -24.70164363 47.07293554 -24.4375 44.5625 C-24.31028564 43.36407471 -24.18307129 42.16564941 -24.05200195 40.9309082 C-23.0273471 30.81407149 -22.58685658 20.74226273 -22.35302734 10.578125 C-22.3267627 9.47339844 -22.30049805 8.36867188 -22.2734375 7.23046875 C-22.25587402 6.25360107 -22.23831055 5.2767334 -22.22021484 4.27026367 C-22.0625 2.0625 -22.0625 2.0625 -21.0625 1.0625 C-14.02149627 0.02981945 -7.10589307 -0.05828177 0 0 Z " fill="#FCFCFB" transform="translate(1443.0625,342.9375)"/>
<path d="M0 0 C0.82886719 0.33902344 1.65773438 0.67804688 2.51171875 1.02734375 C19.40087608 8.66961945 32.19516212 20.67196639 39 38 C40.24529553 41.73588659 40.77495824 45.13280642 40 49 C37.92795119 51.28456664 36.54864813 52.43960319 34 54 C33.26523438 54.48984375 32.53046875 54.9796875 31.7734375 55.484375 C27.32391425 58.25230585 27.32391425 58.25230585 25 59 C21.40551876 58.01305975 18.64400784 56.20414275 15.625 54.0625 C7.1142184 48.36543016 0.24115865 46.93690395 -10 48 C-15.45907037 49.55973439 -18.86325963 52.23680166 -22 57 C-22.53625 57.70125 -23.0725 58.4025 -23.625 59.125 C-25.03197144 62.06684937 -25.53605975 64.47911703 -26.0859375 67.6796875 C-26.25915527 68.67468262 -26.43237305 69.66967773 -26.61083984 70.69482422 C-26.7392627 71.45553223 -26.86768555 72.21624023 -27 73 C-67.82702359 80.16330419 -67.82702359 80.16330419 -87 79 C-92.05151858 63.05424256 -88.09826827 47.4741855 -80.625 33 C-70.74226105 15.89117236 -56.46620862 2.03503202 -37.15966797 -3.53051758 C-25.20618334 -6.12904244 -11.14948376 -4.83303802 0 0 Z " fill="#FBFBFA" transform="translate(1325,1084)"/>
<path d="M0 0 C-0.45068383 4.95752212 -1.13582832 9.76255079 -2.11450386 14.64582729 C-4.00364094 24.32274063 -4.38116461 33.60108477 -4.2578125 43.43359375 C-4.24963481 45.04768701 -4.2429869 46.66178865 -4.23776245 48.27589417 C-4.22086091 52.47917821 -4.18676837 56.68212414 -4.14770508 60.88525391 C-4.08793824 67.60356018 -4.05405661 74.32202863 -4.02193832 81.04051399 C-4.00831956 83.3476922 -3.98668549 85.65467598 -3.96365356 87.96177673 C-3.89204373 97.01241621 -4.19621387 105.98734771 -4.75701904 115.02058411 C-5.02961656 119.48504463 -5.2053299 123.94323119 -5.31640625 128.4140625 C-5.33718735 129.16545502 -5.35796844 129.91684753 -5.37937927 130.69100952 C-5.44277911 133.00228348 -5.50274 135.31362942 -5.5625 137.625 C-5.60588677 139.22917299 -5.64950581 140.83333971 -5.69335938 142.4375 C-5.79823095 146.29160025 -5.90002789 150.14576968 -6 154 C-7.30453125 154.06058594 -8.6090625 154.12117187 -9.953125 154.18359375 C-19.3198102 154.62898626 -28.66337079 155.10808623 -38 156 C-38.13535156 155.26136719 -38.27070312 154.52273438 -38.41015625 153.76171875 C-40.97600584 141.66996051 -46.33444381 134.13750309 -55.62109375 126.18359375 C-60.3840636 121.81167233 -63.47980297 117.4809397 -64.8125 111.125 C-64.13335937 103.00765242 -57.16255823 95.97321885 -51.94140625 90.19140625 C-36.86233529 73.17056357 -27.81231979 53.42453431 -21.9375 31.5625 C-19.64383594 23.19794638 -11.37682374 0 0 0 Z " fill="#F9FAF8" transform="translate(1458,170)"/>
<path d="M0 0 C2.875 0.4375 2.875 0.4375 4.875 2.4375 C3.885 3.0975 2.895 3.7575 1.875 4.4375 C1.215 4.1075 0.555 3.7775 -0.125 3.4375 C-0.785 8.3875 -1.445 13.3375 -2.125 18.4375 C-3.775 19.0975 -5.425 19.7575 -7.125 20.4375 C-7.23354617 18.04043877 -7.31253157 15.64834162 -7.375 13.25 C-7.40851563 12.57646484 -7.44203125 11.90292969 -7.4765625 11.20898438 C-7.547267 7.58537878 -7.21765674 5.58821633 -5.3046875 2.4765625 C-3.125 0.4375 -3.125 0.4375 0 0 Z " fill="#EAEBE7" transform="translate(1323.125,1148.5625)"/>
<path d="M0 0 C1.32 0.33 2.64 0.66 4 1 C4.125 3.375 4.125 3.375 4 6 C3.34 6.66 2.68 7.32 2 8 C2.33 8.99 2.66 9.98 3 11 C-0.465 12.485 -0.465 12.485 -4 14 C-4 15.32 -4 16.64 -4 18 C-4 18.66 -4 19.32 -4 20 C-4.66 20 -5.32 20 -6 20 C-6 20.99 -6 21.98 -6 23 C-6.66 23 -7.32 23 -8 23 C-8.33 23.99 -8.66 24.98 -9 26 C-9.99 26.33 -10.98 26.66 -12 27 C-10.26460179 21.07570956 -7.55448391 15.6641012 -4.875 10.125 C-4.40707031 9.15046875 -3.93914062 8.1759375 -3.45703125 7.171875 C-2.30785155 4.77970501 -1.15542757 2.38915684 0 0 Z " fill="#F6F6F1" transform="translate(1435,745)"/>
<path d="M0 0 C-0.639375 0.20625 -1.27875 0.4125 -1.9375 0.625 C-4.34925077 1.89538209 -4.34925077 1.89538209 -4.75 5.125 C-4.8325 6.07375 -4.915 7.0225 -5 8 C-4.34 8 -3.68 8 -3 8 C-3 8.66 -3 9.32 -3 10 C-3.66 10 -4.32 10 -5 10 C-5.33 10.66 -5.66 11.32 -6 12 C-7.31858428 10.73548068 -8.62967631 9.46314525 -9.9375 8.1875 C-10.66839844 7.47980469 -11.39929687 6.77210937 -12.15234375 6.04296875 C-14 4 -14 4 -15 1 C-9.92928099 0.28832014 -5.11791642 -0.10662326 0 0 Z " fill="#EBECE8" transform="translate(1262,1181)"/>
<path d="M0 0 C0.99 0.33 1.98 0.66 3 1 C1.24019257 3.34242619 -0.5317559 5.67358021 -2.3125 8 C-2.81201172 8.66773438 -3.31152344 9.33546875 -3.82617188 10.0234375 C-4.31279297 10.65507812 -4.79941406 11.28671875 -5.30078125 11.9375 C-5.74591064 12.52402344 -6.19104004 13.11054688 -6.6496582 13.71484375 C-8 15 -8 15 -11 15 C-10.73958333 12.98177083 -10.47916667 10.96354167 -10.21875 8.9453125 C-9.9627515 6.99501656 -9.9627515 6.99501656 -10 5 C-9.030625 4.87625 -8.06125 4.7525 -7.0625 4.625 C-6.051875 4.41875 -5.04125 4.2125 -4 4 C-3.67 3.34 -3.34 2.68 -3 2 C-2.01 2 -1.02 2 0 2 C0 1.34 0 0.68 0 0 Z " fill="#ECEBE3" transform="translate(1394,242)"/>
<path d="M0 0 C5.75 0.75 5.75 0.75 8 3 C7.11957031 3.32613281 6.23914062 3.65226562 5.33203125 3.98828125 C3.58986328 4.64376953 3.58986328 4.64376953 1.8125 5.3125 C0.66394531 5.74175781 -0.48460937 6.17101563 -1.66796875 6.61328125 C-4.99486884 7.89466419 -4.99486884 7.89466419 -7.80078125 9.73046875 C-8.52652344 10.14941406 -9.25226563 10.56835938 -10 11 C-10.66 10.67 -11.32 10.34 -12 10 C-12 9.34 -12 8.68 -12 8 C-11.34 8 -10.68 8 -10 8 C-10 7.01 -10 6.02 -10 5 C-5.05 3.515 -5.05 3.515 0 2 C0 1.34 0 0.68 0 0 Z " fill="#EAECE7" transform="translate(1228,1345)"/>
<path d="M0 0 C0.99 0.33 1.98 0.66 3 1 C3.94921875 3.1796875 3.94921875 3.1796875 4.6875 5.875 C4.93886719 6.75929688 5.19023438 7.64359375 5.44921875 8.5546875 C6 11 6 11 6 14 C3.69 14 1.38 14 -1 14 C-0.67 9.38 -0.34 4.76 0 0 Z " fill="#EBEAE8" transform="translate(1432,1300)"/>
<path d="M0 0 C0.33 0 0.66 0 1 0 C1.33 4.62 1.66 9.24 2 14 C1.34 14 0.68 14 0 14 C0.33 26.21 0.66 38.42 1 51 C0.67 51 0.34 51 0 51 C-1.17770304 43.79357901 -1.15207569 36.61241873 -1.13037109 29.32885742 C-1.1250386 27.2028888 -1.13032636 25.07713385 -1.13671875 22.95117188 C-1.1400851 15.25536235 -0.8929189 7.65286412 0 0 Z " fill="#3C4242" transform="translate(1396,426)"/>
<path d="M0 0 C0.33 0 0.66 0 1 0 C1.08226668 3.04386724 0.97608217 5.07175348 0 8 C-0.66 8 -1.32 8 -2 8 C-3.2981424 9.1490712 -3.2981424 9.1490712 -4 12 C-7.5625 13.6875 -7.5625 13.6875 -11 15 C-9.58446303 10.70697803 -7.48999477 7.99477764 -4.4375 4.6875 C-3.63183594 3.80449219 -2.82617188 2.92148438 -1.99609375 2.01171875 C-1.33738281 1.34785156 -0.67867187 0.68398437 0 0 Z " fill="#F0F1EE" transform="translate(1259,1098)"/>
<path d="M0 0 C0 0.33 0 0.66 0 1 C-1.35544922 1.05607422 -1.35544922 1.05607422 -2.73828125 1.11328125 C-3.91777344 1.17902344 -5.09726563 1.24476562 -6.3125 1.3125 C-7.48425781 1.37050781 -8.65601563 1.42851563 -9.86328125 1.48828125 C-13.22791339 2.03718139 -13.85458765 2.54904905 -16 5 C-18.875 4.75 -18.875 4.75 -22 4 C-22.94875 3.814375 -23.8975 3.62875 -24.875 3.4375 C-25.57625 3.293125 -26.2775 3.14875 -27 3 C-27 2.67 -27 2.34 -27 2 C-18.04395567 -0.46456257 -9.19822505 -0.1920743 0 0 Z " fill="#CACAC8" transform="translate(1450,1332)"/>
<path d="M0 0 C0.66 0.33 1.32 0.66 2 1 C1.67 4.3 1.34 7.6 1 11 C-3.38635744 8.80682128 -4.51256905 7.08649371 -7 3 C-5.5459375 2.5359375 -5.5459375 2.5359375 -4.0625 2.0625 C-1.15934208 1.30476658 -1.15934208 1.30476658 0 0 Z " fill="#E3E4E0" transform="translate(1373,1087)"/>
<path d="M0 0 C1.47919922 0.19142578 1.47919922 0.19142578 2.98828125 0.38671875 C4.47908203 0.56654297 4.47908203 0.56654297 6 0.75 C6.75925781 0.85699219 7.51851562 0.96398438 8.30078125 1.07421875 C8.30078125 2.06421875 8.30078125 3.05421875 8.30078125 4.07421875 C8.96078125 3.74421875 9.62078125 3.41421875 10.30078125 3.07421875 C10.96078125 3.40421875 11.62078125 3.73421875 12.30078125 4.07421875 C12.30078125 5.06421875 12.30078125 6.05421875 12.30078125 7.07421875 C3.30078125 5.07421875 3.30078125 5.07421875 -5.69921875 3.07421875 C-3.85219692 0.62202936 -3.13798948 0.08628336 0 0 Z " fill="#F4F3EF" transform="translate(1318.69921875,1058.92578125)"/>
<path d="M0 0 C1.13764351 4.26616316 2 7.56486311 2 12 C1.34 12 0.68 12 0 12 C0 10.35 0 8.7 0 7 C-0.66 7 -1.32 7 -2 7 C-2 6.01 -2 5.02 -2 4 C-3.98 4.66 -5.96 5.32 -8 6 C-7.1875 3.5625 -7.1875 3.5625 -6 1 C-3 0 -3 0 0 0 Z " fill="#D9D8D4" transform="translate(1564,872)"/>
<path d="M0 0 C1.47417409 3.83285264 0.38262873 6.25876932 -1 10 C-1 10.66 -1 11.32 -1 12 C-2.1875 13.625 -2.1875 13.625 -4 15 C-5.66576622 15.05477856 -7.33441268 15.05997205 -9 15 C-8.51789063 14.25234375 -8.03578125 13.5046875 -7.5390625 12.734375 C-6.90742187 11.74953125 -6.27578125 10.7646875 -5.625 9.75 C-4.99851562 8.77546875 -4.37203125 7.8009375 -3.7265625 6.796875 C-2.34865148 4.56478385 -1.11687358 2.36912578 0 0 Z " fill="#E8EBE8" transform="translate(1574,1124)"/>
<path d="M0 0 C1.07794217 3.58565485 0.70131099 4.70370995 -1 8 C-0.67 8.99 -0.34 9.98 0 11 C-0.66 11 -1.32 11 -2 11 C-2 11.99 -2 12.98 -2 14 C-2.66 14 -3.32 14 -4 14 C-4.33 14.99 -4.66 15.98 -5 17 C-5.99 17.33 -6.98 17.66 -8 18 C-6.65150163 13.64029169 -4.95092154 9.68658562 -2.875 5.625 C-2.33617187 4.56539062 -1.79734375 3.50578125 -1.2421875 2.4140625 C-0.83226562 1.61742187 -0.42234375 0.82078125 0 0 Z " fill="#E2E4DF" transform="translate(1431,754)"/>
<path d="M0 0 C2 3 2 3 1.7578125 5.48046875 C1.54898437 6.37378906 1.34015625 7.26710938 1.125 8.1875 C0.92132812 9.08855469 0.71765625 9.98960937 0.5078125 10.91796875 C0.34023437 11.60503906 0.17265625 12.29210937 0 13 C-0.66 13 -1.32 13 -2 13 C-2 12.01 -2 11.02 -2 10 C-2.66 10 -3.32 10 -4 10 C-4 9.34 -4 8.68 -4 8 C-4.66 7.67 -5.32 7.34 -6 7 C-4.02 4.69 -2.04 2.38 0 0 Z " fill="#E7E8E6" transform="translate(1415,249)"/>
<path d="M0 0 C0.66 0.33 1.32 0.66 2 1 C1.67 2.65 1.34 4.3 1 6 C-1 6 -3 6 -5 6 C-5 6.66 -5 7.32 -5 8 C-5.99 7.67 -6.98 7.34 -8 7 C-7.9375 5.1875 -7.9375 5.1875 -7 3 C-3.5625 1.1875 -3.5625 1.1875 0 0 Z " fill="#EBECE7" transform="translate(1363,1156)"/>
<path d="M0 0 C2.09715785 3.14573677 2.52004559 5.01456251 3.125 8.6875 C3.29257813 9.68136719 3.46015625 10.67523437 3.6328125 11.69921875 C3.75398438 12.45847656 3.87515625 13.21773437 4 14 C2.35 14.33 0.7 14.66 -1 15 C0 12 0 12 1 10 C0.01 9.67 -0.98 9.34 -2 9 C-1 6 -1 6 0 4 C0 2.68 0 1.36 0 0 Z " fill="#DEDEDA" transform="translate(1537,652)"/>
<path d="M0 0 C0.5625 1.9375 0.5625 1.9375 1 4 C0 5 0 5 -3.16015625 5.09765625 C-5.09181641 5.08025391 -5.09181641 5.08025391 -7.0625 5.0625 C-8.35285156 5.05347656 -9.64320312 5.04445313 -10.97265625 5.03515625 C-11.97167969 5.02355469 -12.97070312 5.01195312 -14 5 C-11.33837939 3.62741538 -8.67751392 2.4299387 -5.875 1.375 C-5.19179687 1.11460938 -4.50859375 0.85421875 -3.8046875 0.5859375 C-2 0 -2 0 0 0 Z " fill="#F1F1EF" transform="translate(1258,1360)"/>
<path d="M0 0 C-0.33 0.99 -0.66 1.98 -1 3 C-4.96 3 -8.92 3 -13 3 C-13 2.01 -13 1.02 -13 0 C-11.58456585 -0.19658808 -10.16755969 -0.38187546 -8.75 -0.5625 C-7.96109375 -0.66691406 -7.1721875 -0.77132813 -6.359375 -0.87890625 C-3.99467126 -1.00027349 -2.2488963 -0.69633257 0 0 Z " fill="#E1E0DE" transform="translate(1349,1323)"/>
<path d="M0 0 C0.99 0.33 1.98 0.66 3 1 C2.62488281 1.43570312 2.24976563 1.87140625 1.86328125 2.3203125 C-1.45859777 6.18607599 -4.74642927 10.07657648 -8 14 C-9 11 -9 11 -8.375 9.125 C-6.57166943 6.33803457 -4.46247792 4.21623013 -2 2 C-1.34 2 -0.68 2 0 2 C0 1.34 0 0.68 0 0 Z " fill="#E2E4E0" transform="translate(1246,1080)"/>
<path d="M0 0 C7.26 0 14.52 0 22 0 C21.01 0.495 21.01 0.495 20 1 C20 1.66 20 2.32 20 3 C17.41577541 2.88581333 14.83320487 2.75907638 12.25 2.625 C11.52039062 2.5940625 10.79078125 2.563125 10.0390625 2.53125 C5.99202856 2.31050269 3.70158006 1.85079003 0 0 Z " fill="#E6E6E3" transform="translate(1290,1080)"/>
<path d="M0 0 C-0.99 0.66 -1.98 1.32 -3 2 C-2.67 2.66 -2.34 3.32 -2 4 C-4.40545638 5.20272819 -5.94996953 5.10071472 -8.625 5.0625 C-9.85089844 5.04896484 -9.85089844 5.04896484 -11.1015625 5.03515625 C-12.04128906 5.01775391 -12.04128906 5.01775391 -13 5 C-9.25316241 0.83684713 -5.67827303 -2.10306409 0 0 Z " fill="#161817" transform="translate(1521,868)"/>
<path d="M0 0 C0.66 1.32 1.32 2.64 2 4 C1.67 4.99 1.34 5.98 1 7 C-1.8125 7.625 -1.8125 7.625 -5 8 C-5.99 7.34 -6.98 6.68 -8 6 C-5.36 4.02 -2.72 2.04 0 0 Z " fill="#121311" transform="translate(1258,1074)"/>
<path d="M0 0 C0.66 1.98 1.32 3.96 2 6 C1.01 6.33 0.02 6.66 -1 7 C-1 6.34 -1 5.68 -1 5 C-2.98 5.99 -2.98 5.99 -5 7 C-5.99 5.68 -6.98 4.36 -8 3 C-2.25 0 -2.25 0 0 0 Z " fill="#E6E7E2" transform="translate(1406,1209)"/>
<path d="M0 0 C0.66 0.66 1.32 1.32 2 2 C1.45730469 2.47050781 0.91460938 2.94101563 0.35546875 3.42578125 C-0.35996094 4.04839844 -1.07539062 4.67101562 -1.8125 5.3125 C-2.52019531 5.92738281 -3.22789063 6.54226562 -3.95703125 7.17578125 C-5.70136739 8.73334335 -7.36778041 10.32658875 -9 12 C-9.66 11.67 -10.32 11.34 -11 11 C-10.6875 9.0625 -10.6875 9.0625 -10 7 C-9.01 6.67 -8.02 6.34 -7 6 C-6.34 5.319375 -5.68 4.63875 -5 3.9375 C-3 2 -3 2 0 2 C0 1.34 0 0.68 0 0 Z " fill="#EAEAE7" transform="translate(1442,154)"/>
<path d="M0 0 C0.33 0.99 0.66 1.98 1 3 C1.66 3 2.32 3 3 3 C2.67 6.96 2.34 10.92 2 15 C1.67 14.34 1.34 13.68 1 13 C0.34 13 -0.32 13 -1 13 C-0.67 8.71 -0.34 4.42 0 0 Z " fill="#EBEBE9" transform="translate(1560,1088)"/>
<path d="M0 0 C0.66 1.32 1.32 2.64 2 4 C1.34 4 0.68 4 0 4 C0.33 6.31 0.66 8.62 1 11 C0.01 11.495 0.01 11.495 -1 12 C-1.99 13.485 -1.99 13.485 -3 15 C-3.66 15 -4.32 15 -5 15 C-3.33333333 10 -1.66666667 5 0 0 Z " fill="#1B1C19" transform="translate(1445,948)"/>
<path d="M0 0 C1.20628008 2.33214148 2.1654738 4.49642139 3 7 C2.01 7.33 1.02 7.66 0 8 C-1.01187895 9.65948148 -2.0126546 11.32580562 -3 13 C-3.66 13 -4.32 13 -5 13 C-3.78184562 8.31479085 -2.30440013 4.29456388 0 0 Z " fill="#DFE2DD" transform="translate(1452,980)"/>
<path d="M0 0 C0.53625 0.37125 1.0725 0.7425 1.625 1.125 C-2.04759383 3.57339588 -4.92148201 5.125 -9.375 5.125 C-9.25 3.25 -9.25 3.25 -8.375 1.125 C-5.17736297 -0.43828922 -3.40862085 -1.25580768 0 0 Z " fill="#F5F6F2" transform="translate(1258.375,1337.875)"/>
<path d="M0 0 C0.33 0.99 0.66 1.98 1 3 C-0.77065111 3.64633275 -2.54152753 4.2920483 -4.3125 4.9375 C-5.79169922 5.47697266 -5.79169922 5.47697266 -7.30078125 6.02734375 C-9.1920563 6.70885965 -11.09284329 7.3642811 -13 8 C-13 6 -13 6 -11.9375 4.5625 C-8.40715249 1.71544556 -4.5391754 0 0 0 Z " fill="#EBEBE8" transform="translate(1280,1061)"/>
<path d="M0 0 C0.66 0.66 1.32 1.32 2 2 C0.35 5.63 -1.3 9.26 -3 13 C-5 10 -5 10 -5 7 C-4.34 7 -3.68 7 -3 7 C-3 5.68 -3 4.36 -3 3 C-2.34 3 -1.68 3 -1 3 C-0.67 2.01 -0.34 1.02 0 0 Z " fill="#E7E9E4" transform="translate(1428,983)"/>
<path d="M0 0 C0.33 0 0.66 0 1 0 C1 4.29 1 8.58 1 13 C0.01 12.67 -0.98 12.34 -2 12 C-2.05395478 10.37536158 -2.09277195 8.75021459 -2.125 7.125 C-2.14820313 6.22007813 -2.17140625 5.31515625 -2.1953125 4.3828125 C-2 2 -2 2 0 0 Z " fill="#F1EFED" transform="translate(1498,1332)"/>
<path d="M0 0 C0.33 0.66 0.66 1.32 1 2 C1.99 2.33 2.98 2.66 4 3 C-0.95 5.475 -0.95 5.475 -6 8 C-6.66 6.68 -7.32 5.36 -8 4 C-6.865625 3.71125 -5.73125 3.4225 -4.5625 3.125 C-3.386875 2.75375 -2.21125 2.3825 -1 2 C-0.67 1.34 -0.34 0.68 0 0 Z " fill="#EBECE7" transform="translate(1530,1138)"/>
<path d="M0 0 C0.99 0 1.98 0 3 0 C2.85795259 1.58367747 2.71119847 3.16693318 2.5625 4.75 C2.48128906 5.63171875 2.40007812 6.5134375 2.31640625 7.421875 C2.03761535 9.69350452 1.61209423 11.79851823 1 14 C0.34 14 -0.32 14 -1 14 C-1.08333357 9.1666528 -0.95261487 4.76307437 0 0 Z " fill="#E3E6E2" transform="translate(1583,1071)"/>
<path d="M0 0 C0.66 0 1.32 0 2 0 C2 0.66 2 1.32 2 2 C1.34 2 0.68 2 0 2 C0 1.34 0 0.68 0 0 Z M-2 1 C-1.34 1.33 -0.68 1.66 0 2 C0 3.32 0 4.64 0 6 C-0.99 6 -1.98 6 -3 6 C-2.938125 6.763125 -2.87625 7.52625 -2.8125 8.3125 C-3 11 -3 11 -4.375 12.8125 C-6 14 -6 14 -8 14 C-6.31326082 9.50202887 -4.18326108 5.27113698 -2 1 Z " fill="#E4E5E3" transform="translate(1427,1035)"/>
<path d="M0 0 C2.97 0 5.94 0 9 0 C8.01 0.495 8.01 0.495 7 1 C7 1.99 7 2.98 7 4 C6.01 4.33 5.02 4.66 4 5 C3.34 4.67 2.68 4.34 2 4 C1.67 4.66 1.34 5.32 1 6 C0.67 4.02 0.34 2.04 0 0 Z " fill="#D9DBD6" transform="translate(1464,894)"/>
<path d="M0 0 C0.33 0.66 0.66 1.32 1 2 C2.32 1.67 3.64 1.34 5 1 C5.33 2.32 5.66 3.64 6 5 C1.375 8 1.375 8 -2 8 C-1.34 5.36 -0.68 2.72 0 0 Z " fill="#E1E3DE" transform="translate(1290,1227)"/>
<path d="M0 0 C0.33 0 0.66 0 1 0 C1.33 3.3 1.66 6.6 2 10 C2.33 10 2.66 10 3 10 C3.33 12.31 3.66 14.62 4 17 C3.34 17 2.68 17 2 17 C1.67 17.66 1.34 18.32 1 19 C-0.26582219 15.13276369 -0.1118765 11.26848738 -0.0625 7.25 C-0.05798828 6.55261719 -0.05347656 5.85523438 -0.04882812 5.13671875 C-0.0371002 3.42444197 -0.01916653 1.71220967 0 0 Z " fill="#CECFCD" transform="translate(1236,1141)"/>
<path d="M0 0 C0.33 0.66 0.66 1.32 1 2 C1.66 2 2.32 2 3 2 C2.56802365 6.7517398 1.67230705 8.92000054 -2 12 C-3.40907283 9.18185434 -2.50872691 7.82722796 -1.5625 4.875 C-1.27503906 3.96492187 -0.98757813 3.05484375 -0.69140625 2.1171875 C-0.46324219 1.41851562 -0.23507812 0.71984375 0 0 Z " fill="#DEDFDE" transform="translate(1436,201)"/>
<path d="M0 0 C0.98120464 3.05263664 0.98120464 4.94736336 0 8 C-0.66 8 -1.32 8 -2 8 C-2.33 8.66 -2.66 9.32 -3 10 C-3.66 10 -4.32 10 -5 10 C-4.55090939 8.51800098 -4.09043436 7.03944764 -3.625 5.5625 C-3.36976562 4.73878906 -3.11453125 3.91507813 -2.8515625 3.06640625 C-2 1 -2 1 0 0 Z " fill="#EAEEEF" transform="translate(1518,1358)"/>
<path d="M0 0 C-0.7109375 1.921875 -0.7109375 1.921875 -2 4 C-4.1640625 4.828125 -4.1640625 4.828125 -6.625 5.25 C-7.85089844 5.47429687 -7.85089844 5.47429687 -9.1015625 5.703125 C-9.72804688 5.80109375 -10.35453125 5.8990625 -11 6 C-10.67578125 4.078125 -10.67578125 4.078125 -10 2 C-6.40349908 0.40155515 -3.96602757 0 0 0 Z " fill="#1A1B1B" transform="translate(1264,1339)"/>
<path d="M0 0 C2 0.3125 2 0.3125 4 1 C4.33 1.66 4.66 2.32 5 3 C7.02463255 3.65213292 7.02463255 3.65213292 9 4 C9.33 5.65 9.66 7.3 10 9 C9.01 9.495 9.01 9.495 8 10 C7.443125 9.2575 6.88625 8.515 6.3125 7.75 C4.06972822 5.08292005 1.77925025 3.08443768 -1 1 C-0.67 0.67 -0.34 0.34 0 0 Z " fill="#E6E9E5" transform="translate(1270,1201)"/>
<path d="M0 0 C0.66 0 1.32 0 2 0 C2.33 1.32 2.66 2.64 3 4 C0.1875 5.5625 0.1875 5.5625 -3 7 C-3.99 6.67 -4.98 6.34 -6 6 C-5.01 4.35 -4.02 2.7 -3 1 C-2.01 1.33 -1.02 1.66 0 2 C0 1.34 0 0.68 0 0 Z " fill="#E8E8E3" transform="translate(1392,1190)"/>
<path d="M0 0 C0.99 0.66 1.98 1.32 3 2 C1.1875 5 1.1875 5 -1 8 C-1.99 8 -2.98 8 -4 8 C-3.67 5.69 -3.34 3.38 -3 1 C-2.01 0.67 -1.02 0.34 0 0 Z " fill="#E8E9E5" transform="translate(1395,1047)"/>
<path d="M0 0 C-0.1875 1.8125 -0.1875 1.8125 -1 4 C-3.4375 5.8125 -3.4375 5.8125 -6 7 C-6.66 6.67 -7.32 6.34 -8 6 C-8 5.34 -8 4.68 -8 4 C-7.34 4 -6.68 4 -6 4 C-6 3.01 -6 2.02 -6 1 C-3.92446352 0.4465236 -2.15634036 0 0 0 Z " fill="#F1F2EC" transform="translate(1224,1349)"/>
<path d="M0 0 C0.33 0.66 0.66 1.32 1 2 C3.31 2 5.62 2 8 2 C8 2.33 8 2.66 8 3 C1.62641289 3.96205088 -4.55929529 4.10655578 -11 4 C-11 3.01 -11 2.02 -11 1 C-9.68 1 -8.36 1 -7 1 C-7 1.66 -7 2.32 -7 3 C-4.02934491 2.65772428 -4.02934491 2.65772428 -1 2 C-0.67 1.34 -0.34 0.68 0 0 Z " fill="#323335" transform="translate(1381,1338)"/>
<path d="M0 0 C0 0.99 0 1.98 0 3 C-5.29230769 6.07692308 -5.29230769 6.07692308 -8.875 5.6875 C-9.57625 5.460625 -10.2775 5.23375 -11 5 C-7.84704833 1.84704833 -4.48812083 0 0 0 Z " fill="#111210" transform="translate(1528,1162)"/>
<path d="M0 0 C0.66 0.33 1.32 0.66 2 1 C1.34 3.97 0.68 6.94 0 10 C-1.32 9.67 -2.64 9.34 -4 9 C-3.38461538 3.46153846 -3.38461538 3.46153846 -1.4375 1.125 C-0.963125 0.75375 -0.48875 0.3825 0 0 Z " fill="#151916" transform="translate(1478,1129)"/>
<path d="M0 0 C0.66 1.32 1.32 2.64 2 4 C0.66666667 6 -0.66666667 8 -2 10 C-2.68177416 11.32567199 -3.35191436 12.65753688 -4 14 C-4 13.34 -4 12.68 -4 12 C-4.66 11.67 -5.32 11.34 -6 11 C-4.02 7.37 -2.04 3.74 0 0 Z " fill="#E3E4E1" transform="translate(1417,1051)"/>
<path d="M0 0 C1.32 0 2.64 0 4 0 C4.80967438 2.91482778 5.21845993 4.46113217 4.0625 7.3125 C3.5365625 8.1478125 3.5365625 8.1478125 3 9 C2.67 8.01 2.34 7.02 2 6 C1.67 6.99 1.34 7.98 1 9 C0.34 9 -0.32 9 -1 9 C-0.67 6.03 -0.34 3.06 0 0 Z " fill="#EEF0EC" transform="translate(1576,1009)"/>
<path d="M0 0 C0.66 0.66 1.32 1.32 2 2 C1.64700993 5.44165321 0.95418308 7.06872538 -1 10 C-1.33 9.01 -1.66 8.02 -2 7 C-2.99 6.67 -3.98 6.34 -5 6 C-4.67 5.34 -4.34 4.68 -4 4 C-3.01 4 -2.02 4 -1 4 C-0.67 2.68 -0.34 1.36 0 0 Z " fill="#EDEFE7" transform="translate(1412,207)"/>
<path d="M0 0 C0.8971875 0.5259375 0.8971875 0.5259375 1.8125 1.0625 C-2.6875 5.0625 -2.6875 5.0625 -7.1875 5.0625 C-6.375 2.625 -6.375 2.625 -5.1875 0.0625 C-2.1875 -0.9375 -2.1875 -0.9375 0 0 Z " fill="#181A1B" transform="translate(1500.1875,1378.9375)"/>
<path d="M0 0 C0.99 0 1.98 0 3 0 C3 4.62 3 9.24 3 14 C0.81005752 10.71508627 0.64722661 9.16904361 0.375 5.3125 C0.30023437 4.31863281 0.22546875 3.32476563 0.1484375 2.30078125 C0.09945313 1.54152344 0.05046875 0.78226563 0 0 Z " fill="#0E1010" transform="translate(1499,1303)"/>
<path d="M0 0 C1.32 0.99 2.64 1.98 4 3 C3.01 5.31 2.02 7.62 1 10 C-0.32 9.67 -1.64 9.34 -3 9 C-2.01 6.03 -1.02 3.06 0 0 Z " fill="#E4E6E3" transform="translate(1364,1235)"/>
<path d="M0 0 C0.66 0.33 1.32 0.66 2 1 C2 1.66 2 2.32 2 3 C1.34 3 0.68 3 0 3 C0.66 3.66 1.32 4.32 2 5 C2.375 7.4375 2.375 7.4375 2 10 C0 11.8125 0 11.8125 -2 13 C-2.66 12.67 -3.32 12.34 -4 12 C-3.34 11.01 -2.68 10.02 -2 9 C-1.58483202 6.98341096 -1.58483202 6.98341096 -1.4375 4.875 C-1 1 -1 1 0 0 Z " fill="#EBEDEA" transform="translate(1357,1166)"/>
<path d="M0 0 C0.99 0.495 0.99 0.495 2 1 C2.66 1 3.32 1 4 1 C4.30466674 6.28089024 4.317124 7.577168 1 12 C0.67 8.04 0.34 4.08 0 0 Z " fill="#EAEBE7" transform="translate(1576,835)"/>
<path d="M0 0 C2.31 1.98 4.62 3.96 7 6 C6.01 6.99 5.02 7.98 4 9 C4 8.01 4 7.02 4 6 C2.35 5.67 0.7 5.34 -1 5 C-1 2 -1 2 0 0 Z " fill="#E3E3E3" transform="translate(1216,1373)"/>
<path d="M0 0 C0.66 0 1.32 0 2 0 C3.87729813 3.1679406 4.09587672 5.35668477 4 9 C4.33 9.66 4.66 10.32 5 11 C4.0625 13.125 4.0625 13.125 3 15 C2.49564306 13.0636296 1.99666126 11.12585854 1.5 9.1875 C1.2215625 8.10855469 0.943125 7.02960938 0.65625 5.91796875 C0 3 0 3 0 0 Z " fill="#DADBDA" transform="translate(1501,1198)"/>
<path d="M0 0 C0.99 0.33 1.98 0.66 3 1 C3.33 1.99 3.66 2.98 4 4 C4.66 4 5.32 4 6 4 C6.66 5.32 7.32 6.64 8 8 C5 8 5 8 3.39453125 6.46875 C2.87246094 5.8190625 2.35039063 5.169375 1.8125 4.5 C1.28269531 3.8503125 0.75289062 3.200625 0.20703125 2.53125 C-0.19128906 2.0259375 -0.58960938 1.520625 -1 1 C-0.67 0.67 -0.34 0.34 0 0 Z " fill="#E1E2E0" transform="translate(1359,1081)"/>
<path d="M0 0 C0.66 0 1.32 0 2 0 C1.67 3.3 1.34 6.6 1 10 C0.34 10 -0.32 10 -1 10 C-1.33 10.99 -1.66 11.98 -2 13 C-1.7215625 11.824375 -1.7215625 11.824375 -1.4375 10.625 C-0.74037734 8.02910225 -0.74037734 8.02910225 -2 6 C-1.39421747 3.98072489 -0.73080266 1.97746603 0 0 Z " fill="#EBEBE9" transform="translate(1564,1061)"/>
<path d="M0 0 C0.33 0 0.66 0 1 0 C1.22151549 1.79008467 1.42682213 3.58218162 1.625 5.375 C1.74101563 6.37273438 1.85703125 7.37046875 1.9765625 8.3984375 C1.98429687 9.25695312 1.99203125 10.11546875 2 11 C1.34 11.66 0.68 12.32 0 13 C-0.33 11.68 -0.66 10.36 -1 9 C-1.99 9 -2.98 9 -4 9 C-3.2884375 7.88625 -3.2884375 7.88625 -2.5625 6.75 C-1.22130673 4.38949985 -0.487688 2.63351523 0 0 Z " fill="#EAEBE5" transform="translate(1571,911)"/>
<path d="M0 0 C-0.99 0.495 -0.99 0.495 -2 1 C-2 1.66 -2 2.32 -2 3 C-2.99 3.33 -3.98 3.66 -5 4 C-5.66 3.34 -6.32 2.68 -7 2 C-7.66 2.66 -8.32 3.32 -9 4 C-11.475 3.01 -11.475 3.01 -14 2 C-14 1.67 -14 1.34 -14 1 C-12.41913952 0.63495397 -10.83516093 0.28339494 -9.25 -0.0625 C-8.36828125 -0.25972656 -7.4865625 -0.45695313 -6.578125 -0.66015625 C-4.01320972 -0.99825872 -2.42908361 -0.81158635 0 0 Z " fill="#CFD0CE" transform="translate(1513,889)"/>
<path d="M0 0 C0.33 0 0.66 0 1 0 C1.33 3.63 1.66 7.26 2 11 C1.01 10.67 0.02 10.34 -1 10 C-1.33 7.36 -1.66 4.72 -2 2 C-1.34 2 -0.68 2 0 2 C0 1.34 0 0.68 0 0 Z " fill="#202121" transform="translate(1485,416)"/>
<path d="M0 0 C0 3.72047814 -0.97203752 4.62861872 -3.25 7.5 C-4.15492187 8.66015625 -4.15492187 8.66015625 -5.078125 9.84375 C-6.9118076 11.90105243 -8.73855842 13.43900493 -11 15 C-9.3718356 11.24269753 -6.98598083 8.383177 -4.375 5.25 C-3.55773438 4.26515625 -2.74046875 3.2803125 -1.8984375 2.265625 C-1.27195312 1.51796875 -0.64546875 0.7703125 0 0 Z " fill="#21201B" transform="translate(1398,241)"/>
<path d="M0 0 C0.66 0 1.32 0 2 0 C2.14285714 7.42857143 2.14285714 7.42857143 1 11 C0.01 11 -0.98 11 -2 11 C-1 3.57142857 -1 3.57142857 0 0 Z " fill="#D4D4D2" transform="translate(1393,1093)"/>
<path d="M0 0 C0.66 0.33 1.32 0.66 2 1 C1.01 1.66 0.02 2.32 -1 3 C-0.34 3.66 0.32 4.32 1 5 C0.01 5.33 -0.98 5.66 -2 6 C-2.66 6.66 -3.32 7.32 -4 8 C-4.99 7.67 -5.98 7.34 -7 7 C-5.55609075 3.19333016 -3.65047197 1.73397418 0 0 Z " fill="#ECEBEC" transform="translate(1274,1086)"/>
<path d="M0 0 C0.66 0.33 1.32 0.66 2 1 C1.34 1.66 0.68 2.32 0 3 C0 4.32 0 5.64 0 7 C-1.65 7 -3.3 7 -5 7 C-5 5.35 -5 3.7 -5 2 C-2.625 0.9375 -2.625 0.9375 0 0 Z " fill="#F2F2F2" transform="translate(1263,1358)"/>
<path d="M0 0 C0.625 1.875 0.625 1.875 1 4 C0.34 4.66 -0.32 5.32 -1 6 C-0.34 6 0.32 6 1 6 C1 8.31 1 10.62 1 13 C0.01 13.495 0.01 13.495 -1 14 C-2.10228696 9.59085217 -2.07654536 5.51617599 -2 1 C-1.34 0.67 -0.68 0.34 0 0 Z " fill="#DEE4E1" transform="translate(1518,1278)"/>
<path d="M0 0 C0.33 0 0.66 0 1 0 C1.63019694 10.97592998 1.63019694 10.97592998 -1 15.25 C-1.99 16.11625 -1.99 16.11625 -3 17 C-3.33 15.35 -3.66 13.7 -4 12 C-3.01 12 -2.02 12 -1 12 C-0.67 8.04 -0.34 4.08 0 0 Z " fill="#242727" transform="translate(1355,1163)"/>
<path d="M0 0 C0.66 0.33 1.32 0.66 2 1 C0.75443908 1.81928886 -0.49666635 2.63015186 -1.75 3.4375 C-2.44609375 3.88996094 -3.1421875 4.34242187 -3.859375 4.80859375 C-5.92957014 5.9608009 -7.68696324 6.54676982 -10 7 C-9.25 5.0625 -9.25 5.0625 -8 3 C-6.125 2.375 -6.125 2.375 -4 2 C-3.29875 1.62875 -2.5975 1.2575 -1.875 0.875 C-1.25625 0.58625 -0.6375 0.2975 0 0 Z " fill="#141716" transform="translate(1371,1150)"/>
<path d="M0 0 C0.97608217 2.92824652 1.08226668 4.95613276 1 8 C0.34 8 -0.32 8 -1 8 C-1 8.66 -1 9.32 -1 10 C-2.98 10.99 -2.98 10.99 -5 12 C-3.68938409 7.76570244 -2.05643741 3.92592596 0 0 Z " fill="#E1E5E2" transform="translate(1436,1014)"/>
<path d="M0 0 C1.32 0.66 2.64 1.32 4 2 C3.34 2.66 2.68 3.32 2 4 C1.3574765 6.06874034 1.3574765 6.06874034 1 8 C-0.32 8.33 -1.64 8.66 -3 9 C-2.01 6.03 -1.02 3.06 0 0 Z " fill="#1B1919" transform="translate(1407,760)"/>
<path d="M0 0 C0.66 0 1.32 0 2 0 C2.33 0.99 2.66 1.98 3 3 C3.66 3.33 4.32 3.66 5 4 C4.67 6.97 4.34 9.94 4 13 C2.4005386 9.80107719 1.57404764 7.64537424 0.875 4.25 C0.70742187 3.45078125 0.53984375 2.6515625 0.3671875 1.828125 C0.24601562 1.22484375 0.12484375 0.6215625 0 0 Z " fill="#D7DCD8" transform="translate(1530,568)"/>
<path d="M0 0 C0.66 0 1.32 0 2 0 C2 0.99 2 1.98 2 3 C2.66 3 3.32 3 4 3 C4 4.32 4 5.64 4 7 C3.34 7 2.68 7 2 7 C1.67 7.66 1.34 8.32 1 9 C-1.125 3.375 -1.125 3.375 0 0 Z " fill="#0C0D0F" transform="translate(1490,510)"/>
<path d="M0 0 C0 0.99 0 1.98 0 3 C-4.95 4.485 -4.95 4.485 -10 6 C-6.56548857 1.21621622 -6.56548857 1.21621622 -3.875 0.1875 C-2 0 -2 0 0 0 Z " fill="#161518" transform="translate(1300,1344)"/>
<path d="M0 0 C0.33 0.66 0.66 1.32 1 2 C1.66 2 2.32 2 3 2 C3.66 3.65 4.32 5.3 5 7 C3.35 7.33 1.7 7.66 0 8 C-0.38063221 5.6739143 -0.71269945 3.33944736 -1 1 C-0.67 0.67 -0.34 0.34 0 0 Z " fill="#EFEEED" transform="translate(1457,1304)"/>
<path d="M0 0 C0.66 0.33 1.32 0.66 2 1 C1.67 2.32 1.34 3.64 1 5 C-0.98 5.33 -2.96 5.66 -5 6 C-5 5.34 -5 4.68 -5 4 C-5.66 3.67 -6.32 3.34 -7 3 C-4.69631264 1.93347808 -2.35981813 0.93578995 0 0 Z " fill="#E2E4DE" transform="translate(1394,1214)"/>
<path d="M0 0 C0.33 0 0.66 0 1 0 C1.33 2.64 1.66 5.28 2 8 C2.33 8 2.66 8 3 8 C3.1875 10.375 3.1875 10.375 3 13 C2.01 13.66 1.02 14.32 0 15 C0 10.05 0 5.1 0 0 Z " fill="#DDDCDC" transform="translate(1492,1137)"/>
<path d="M0 0 C0 0.66 0 1.32 0 2 C-1.98 2 -3.96 2 -6 2 C-6.33 2.99 -6.66 3.98 -7 5 C-7.66 5 -8.32 5 -9 5 C-9.33 3.68 -9.66 2.36 -10 1 C-3.71428571 -1.42857143 -3.71428571 -1.42857143 0 0 Z " fill="#DFDFDF" transform="translate(1290,1082)"/>
<path d="M0 0 C0.99 0.33 1.98 0.66 3 1 C0.525 4.465 0.525 4.465 -2 8 C-2.99 7.67 -3.98 7.34 -5 7 C-4.34 5.68 -3.68 4.36 -3 3 C-2.67 3.33 -2.34 3.66 -2 4 C-1.34 2.68 -0.68 1.36 0 0 Z " fill="#EBECE9" transform="translate(1388,1058)"/>
<path d="M0 0 C1.4606285 2.64738916 2 3.89448334 2 7 C0 9.1875 0 9.1875 -2 11 C-3 9 -3 9 -2.44140625 6.8359375 C-2.15136719 6.02382812 -1.86132812 5.21171875 -1.5625 4.375 C-1.27503906 3.55773438 -0.98757813 2.74046875 -0.69140625 1.8984375 C-0.46324219 1.27195312 -0.23507812 0.64546875 0 0 Z " fill="#2B2E2B" transform="translate(1572,1042)"/>
<path d="M0 0 C0.99 0.33 1.98 0.66 3 1 C1.7874262 4.72433382 0.49140021 8.37802806 -1 12 C-1.66 11.01 -2.32 10.02 -3 9 C-2.5390625 6.73828125 -2.5390625 6.73828125 -1.625 4.3125 C-1.32851562 3.50425781 -1.03203125 2.69601562 -0.7265625 1.86328125 C-0.48679687 1.24839844 -0.24703125 0.63351562 0 0 Z " fill="#131714" transform="translate(1432,1015)"/>
<path d="M0 0 C-1.96466413 1.06775224 -3.96855359 2.06553465 -6 3 C-6.66 2.67 -7.32 2.34 -8 2 C-8 2.66 -8 3.32 -8 4 C-10.86724686 3.42655063 -11.8614515 3.1385485 -14 1 C-12.41913952 0.63495397 -10.83516093 0.28339494 -9.25 -0.0625 C-8.36828125 -0.25972656 -7.4865625 -0.45695313 -6.578125 -0.66015625 C-4.01320972 -0.99825872 -2.42908361 -0.81158635 0 0 Z " fill="#282A29" transform="translate(1509,871)"/>
<path d="M0 0 C0.33 0.99 0.66 1.98 1 3 C2.98 3 4.96 3 7 3 C7 3.66 7 4.32 7 5 C4.35261084 6.4606285 3.10551666 7 0 7 C0 4.69 0 2.38 0 0 Z " fill="#E2E5E0" transform="translate(1492,1153)"/>
<path d="M0 0 C3 1 3 1 5 4 C5.99 4.33 6.98 4.66 8 5 C7.34 6.65 6.68 8.3 6 10 C3.25722422 6.80009492 1.3697164 3.99500618 0 0 Z " fill="#DDE1DF" transform="translate(1510,513)"/>
<path d="M0 0 C1.32 0.66 2.64 1.32 4 2 C3.34 3.65 2.68 5.3 2 7 C1.01 6.67 0.02 6.34 -1 6 C-0.67 5.34 -0.34 4.68 0 4 C-0.66 4 -1.32 4 -2 4 C-1.34 2.68 -0.68 1.36 0 0 Z " fill="#F5F6F2" transform="translate(1380,255)"/>
<path d="M0 0 C1.32 0.33 2.64 0.66 4 1 C4 1.66 4 2.32 4 3 C1.09399739 4.25664978 -0.79604584 5 -4 5 C-4.33 4.01 -4.66 3.02 -5 2 C-3.68 2.33 -2.36 2.66 -1 3 C-0.67 2.01 -0.34 1.02 0 0 Z " fill="#DFE0DD" transform="translate(1281,1329)"/>
<path d="M0 0 C1.5 1.125 1.5 1.125 3 3 C3.1875 6.1875 3.1875 6.1875 3 9 C2.34 9 1.68 9 1 9 C0.01 7.02 -0.98 5.04 -2 3 C-1.34 3 -0.68 3 0 3 C0 2.01 0 1.02 0 0 Z " fill="#111515" transform="translate(1415,1222)"/>
<path d="M0 0 C3 4 3 4 2.875 7.125 C2 10 2 10 -1 12 C-0.67 8.04 -0.34 4.08 0 0 Z " fill="#D9DAD8" transform="translate(1390,1105)"/>
<path d="M0 0 C1.32 0.33 2.64 0.66 4 1 C2.02 3.97 2.02 3.97 0 7 C-0.66 6.67 -1.32 6.34 -2 6 C-2 4.68 -2 3.36 -2 2 C-1.34 2 -0.68 2 0 2 C0 1.34 0 0.68 0 0 Z " fill="#151515" transform="translate(1402,1069)"/>
<path d="M0 0 C0.66 0.33 1.32 0.66 2 1 C0.7508258 4.45925163 -0.67527795 7.14693203 -3 10 C-3.66 9.34 -4.32 8.68 -5 8 C-4.34 8 -3.68 8 -3 8 C-2.87625 7.236875 -2.7525 6.47375 -2.625 5.6875 C-2 3 -2 3 0 0 Z " fill="#E6E7E2" transform="translate(1401,1037)"/>
<path d="M0 0 C2.18994248 3.28491373 2.35277339 4.83095639 2.625 8.6875 C2.69976563 9.68136719 2.77453125 10.67523437 2.8515625 11.69921875 C2.92503906 12.83810547 2.92503906 12.83810547 3 14 C2.34 13.67 1.68 13.34 1 13 C0.60539977 10.67624308 0.27769908 8.3406065 0 6 C-0.20625 5.236875 -0.4125 4.47375 -0.625 3.6875 C-1 2 -1 2 0 0 Z " fill="#2C2F2F" transform="translate(1561,673)"/>
<path d="M0 0 C2 3 2 3 1.6875 5 C1.3471875 5.99 1.3471875 5.99 1 7 C0.67 7.99 0.34 8.98 0 10 C-0.66 10 -1.32 10 -2 10 C-1.125 2.25 -1.125 2.25 0 0 Z " fill="#1A1D1A" transform="translate(1434,537)"/>
<path d="M0 0 C0.33 0 0.66 0 1 0 C1.6875 3.3125 1.6875 3.3125 2 7 C0.5625 8.9375 0.5625 8.9375 -1 10 C-1.9765625 3.9453125 -1.9765625 3.9453125 -2 2 C-1.34 1.34 -0.68 0.68 0 0 Z " fill="#EBEBE7" transform="translate(1509,1219)"/>
<path d="M0 0 C2.29633824 3.44450737 2.54016485 5.93812283 3 10 C2.01 10.66 1.02 11.32 0 12 C0 8.04 0 4.08 0 0 Z " fill="#242525" transform="translate(1498,1189)"/>
<path d="M0 0 C2.64 0 5.28 0 8 0 C8 0.99 8 1.98 8 3 C5.69 3 3.38 3 1 3 C0.67 2.01 0.34 1.02 0 0 Z " fill="#EFEFEB" transform="translate(1247,1182)"/>
<path d="M0 0 C2.31 0.33 4.62 0.66 7 1 C6.67 1.99 6.34 2.98 6 4 C3.69 4 1.38 4 -1 4 C-0.67 2.68 -0.34 1.36 0 0 Z " fill="#F1F1EA" transform="translate(1239,1159)"/>
<path d="M0 0 C0.99 1.32 1.98 2.64 3 4 C0.61426621 5.89213369 -1.07175348 7.02391783 -4 8 C-2.87548273 5.0280615 -1.77706209 2.66559313 0 0 Z " fill="#E6E6E5" transform="translate(1252,1105)"/>
<path d="M0 0 C0.66 0 1.32 0 2 0 C1.71758359 1.46015291 1.42373386 2.91809793 1.125 4.375 C0.96257812 5.18710937 0.80015625 5.99921875 0.6328125 6.8359375 C0 9 0 9 -2 11 C-2.28571429 3.57142857 -2.28571429 3.57142857 0 0 Z " fill="#E4E6E1" transform="translate(1444,945)"/>
<path d="M0 0 C2.12508244 3.18762365 2.5020163 5.26512223 3 9 C2.34 9 1.68 9 1 9 C0.34 9.66 -0.32 10.32 -1 11 C-1.33 10.01 -1.66 9.02 -2 8 C-1.34 7.01 -0.68 6.02 0 5 C-0.33 4.34 -0.66 3.68 -1 3 C-0.67 2.01 -0.34 1.02 0 0 Z " fill="#DFDFDA" transform="translate(1513,579)"/>
<path d="M0 0 C0.66 0.33 1.32 0.66 2 1 C2.625 3.5625 2.625 3.5625 3 6 C0 6 0 6 -2.1875 4 C-2.785625 3.34 -3.38375 2.68 -4 2 C-2.68 2 -1.36 2 0 2 C0 1.34 0 0.68 0 0 Z " fill="#E2E5DF" transform="translate(1472,151)"/>
<path d="M0 0 C-0.33 0.99 -0.66 1.98 -1 3 C-3.31 3.33 -5.62 3.66 -8 4 C-8.33 3.34 -8.66 2.68 -9 2 C-3.375 0 -3.375 0 0 0 Z " fill="#232423" transform="translate(1250,1343)"/>
<path d="M0 0 C0 0.66 0 1.32 0 2 C-2.31 3.32 -4.62 4.64 -7 6 C-7.33 5.01 -7.66 4.02 -8 3 C-5.48696401 0.48696401 -3.51117809 0 0 0 Z " fill="#EAEAE6" transform="translate(1365,1205)"/>
<path d="M0 0 C1.10844919 3.32534757 0.84454356 5.62182575 0 9 C0.99 9 1.98 9 3 9 C3 9.66 3 10.32 3 11 C2.01 11 1.02 11 0 11 C-0.66 11.66 -1.32 12.32 -2 13 C-1.85851011 11.3954444 -1.71164314 9.79136233 -1.5625 8.1875 C-1.48128906 7.29417969 -1.40007812 6.40085937 -1.31640625 5.48046875 C-1 3 -1 3 0 0 Z " fill="#3A3B38" transform="translate(1220,1128)"/>
<path d="M0 0 C0.33 0.99 0.66 1.98 1 3 C-0.66831106 6.25320657 -2.75892504 9.11861791 -5 12 C-5.66 11.67 -6.32 11.34 -7 11 C-4.69 7.37 -2.38 3.74 0 0 Z " fill="#23221C" transform="translate(1406,228)"/>
<path d="M0 0 C0.66 0.33 1.32 0.66 2 1 C1.1875 2.9375 1.1875 2.9375 0 5 C-0.99 5.33 -1.98 5.66 -3 6 C-3.66 5.01 -4.32 4.02 -5 3 C-2.625 1.4375 -2.625 1.4375 0 0 Z " fill="#EAEBEA" transform="translate(1503,1379)"/>
<path d="M0 0 C0.33 0 0.66 0 1 0 C1.33 3.63 1.66 7.26 2 11 C1.01 11.33 0.02 11.66 -1 12 C-1 11.34 -1 10.68 -1 10 C-1.99 9.67 -2.98 9.34 -4 9 C-2.68 9 -1.36 9 0 9 C0 6.03 0 3.06 0 0 Z " fill="#C3C3C2" transform="translate(1214,1362)"/>
<path d="M0 0 C-0.99 1.485 -0.99 1.485 -2 3 C-2.99 2.67 -3.98 2.34 -5 2 C-5.66 2.66 -6.32 3.32 -7 4 C-7 3.34 -7 2.68 -7 2 C-7.66 1.67 -8.32 1.34 -9 1 C-5.64919071 -1.10976881 -3.77897651 -1.0497157 0 0 Z " fill="#D9D7D4" transform="translate(1303,1252)"/>
<path d="M0 0 C2 2 2 2 2 6 C0.68 6.33 -0.64 6.66 -2 7 C-2 5.35 -2 3.7 -2 2 C-1.34 2 -0.68 2 0 2 C0 1.34 0 0.68 0 0 Z " fill="#E6E8E6" transform="translate(1423,1243)"/>
<path d="M0 0 C1.4606285 2.64738916 2 3.89448334 2 7 C0 8.6875 0 8.6875 -2 10 C-1.85950482 8.52031676 -1.71245174 7.04125484 -1.5625 5.5625 C-1.48128906 4.73878906 -1.40007812 3.91507813 -1.31640625 3.06640625 C-1 1 -1 1 0 0 Z " fill="#E0E1DD" transform="translate(1485,1212)"/>
<path d="M0 0 C0.33 0.99 0.66 1.98 1 3 C1.66 3 2.32 3 3 3 C3 3.99 3 4.98 3 6 C0.5 8.1875 0.5 8.1875 -2 10 C-1.34 6.7 -0.68 3.4 0 0 Z " fill="#E2E4E3" transform="translate(1387,1127)"/>
<path d="M0 0 C0.66 0.33 1.32 0.66 2 1 C0.02 3.97 0.02 3.97 -2 7 C-2.66 6.67 -3.32 6.34 -4 6 C-3.6875 4.125 -3.6875 4.125 -3 2 C-2.01 1.34 -1.02 0.68 0 0 Z " fill="#DFE0DA" transform="translate(1233,1097)"/>
<path d="M0 0 C0 0.66 0 1.32 0 2 C0.99 2.33 1.98 2.66 3 3 C-4.75 4.125 -4.75 4.125 -7 3 C-7 2.34 -7 1.68 -7 1 C-4.50935112 0.31292445 -2.62113708 0 0 0 Z " fill="#E9E9E8" transform="translate(1289,1059)"/>
<path d="M0 0 C-0.33 2.64 -0.66 5.28 -1 8 C-1.433125 7.0409375 -1.433125 7.0409375 -1.875 6.0625 C-2.82823451 3.84793921 -2.82823451 3.84793921 -5 3 C-5 2.34 -5 1.68 -5 1 C-2 0 -2 0 0 0 Z " fill="#D9D9D4" transform="translate(1450,930)"/>
<path d="M0 0 C4 4.625 4 4.625 4 8 C3.34 8 2.68 8 2 8 C1.67 8.99 1.34 9.98 1 11 C0.67 7.37 0.34 3.74 0 0 Z " fill="#E0E1DC" transform="translate(1442,895)"/>
<path d="M0 0 C1.76462683 3.08809695 2 4.23312136 2 8 C1.34 8 0.68 8 0 8 C-1.4606285 5.35261084 -2 4.10551666 -2 1 C-1.34 0.67 -0.68 0.34 0 0 Z " fill="#2C2E2D" transform="translate(1580,861)"/>
<path d="M0 0 C2.45823172 3.68734758 3.01242616 6.69699971 4 11 C3.01 10.67 2.02 10.34 1 10 C-0.1577506 6.52674819 -0.06866652 3.63932552 0 0 Z " fill="#2F3534" transform="translate(1546,618)"/>
<path d="M0 0 C2.475 0.99 2.475 0.99 5 2 C4.67 3.32 4.34 4.64 4 6 C3.01 6 2.02 6 1 6 C0.67 4.02 0.34 2.04 0 0 Z " fill="#EAEBE7" transform="translate(1418,491)"/>
<path d="M0 0 C0.66 0.33 1.32 0.66 2 1 C1.1875 3.4375 1.1875 3.4375 0 6 C-0.99 6.33 -1.98 6.66 -3 7 C-3.66 6.34 -4.32 5.68 -5 5 C-3.35 3.35 -1.7 1.7 0 0 Z " fill="#DEDFDF" transform="translate(1509,1373)"/>
<path d="M0 0 C0.99 0.66 1.98 1.32 3 2 C1.68 3.65 0.36 5.3 -1 7 C-1.144375 6.38125 -1.28875 5.7625 -1.4375 5.125 C-1.93152225 2.96741678 -1.93152225 2.96741678 -3 1 C-2.01 0.67 -1.02 0.34 0 0 Z " fill="#111214" transform="translate(1354,1251)"/>
<path d="M0 0 C-1.875 4.75 -1.875 4.75 -3 7 C-3.66 7 -4.32 7 -5 7 C-4.625 4.0625 -4.625 4.0625 -4 1 C-2 0 -2 0 0 0 Z " fill="#E6E6E1" transform="translate(1303,1139)"/>
<path d="M0 0 C0.33 0 0.66 0 1 0 C1.25 2.25 1.25 2.25 1 5 C-1 7.3125 -1 7.3125 -3 9 C-3 4.73012377 -2.36301527 3.40274199 0 0 Z " fill="#E1E2E0" transform="translate(1410,1063)"/>
<path d="M0 0 C1.32 0.33 2.64 0.66 4 1 C2.515 4.465 2.515 4.465 1 8 C0.67 8 0.34 8 0 8 C0 5.36 0 2.72 0 0 Z " fill="#E4E7E3" transform="translate(1404,1028)"/>
<path d="M0 0 C0.99 0.99 1.98 1.98 3 3 C1.515 5.475 1.515 5.475 0 8 C-0.99 7.67 -1.98 7.34 -3 7 C-2.01 4.69 -1.02 2.38 0 0 Z " fill="#DADDDA" transform="translate(1446,993)"/>
<path d="M0 0 C1.32 0 2.64 0 4 0 C4 0.99 4 1.98 4 3 C2.02 3.66 0.04 4.32 -2 5 C-1.34 3.35 -0.68 1.7 0 0 Z " fill="#EAEAE6" transform="translate(1558,873)"/>
<path d="M0 0 C0.99 0.66 1.98 1.32 3 2 C2.01 3.485 2.01 3.485 1 5 C1.33 5.66 1.66 6.32 2 7 C0.35 7.66 -1.3 8.32 -3 9 C-2.01 6.03 -1.02 3.06 0 0 Z " fill="#D8DAD8" transform="translate(1435,745)"/>
<path d="M0 0 C0.99 0.33 1.98 0.66 3 1 C2.625 3.4375 2.625 3.4375 2 6 C1.01 6.495 1.01 6.495 0 7 C-0.38133299 5.0085944 -0.71325582 3.00720923 -1 1 C-0.67 0.67 -0.34 0.34 0 0 Z " fill="#F4F5F4" transform="translate(1500,486)"/>
<path d="M0 0 C2.0625 0.4375 2.0625 0.4375 4 1 C3.01 1.33 2.02 1.66 1 2 C0.67 4.97 0.34 7.94 0 11 C-0.33 11 -0.66 11 -1 11 C-1.02688151 9.35425434 -1.04634123 7.70838587 -1.0625 6.0625 C-1.07410156 5.14597656 -1.08570313 4.22945313 -1.09765625 3.28515625 C-1 1 -1 1 0 0 Z " fill="#CCCFC9" transform="translate(1422,344)"/>
<path d="M0 0 C1.65 0.99 3.3 1.98 5 3 C4.34 3.66 3.68 4.32 3 5 C0.375 4.625 0.375 4.625 -2 4 C-1.34 2.68 -0.68 1.36 0 0 Z " fill="#1B1B1C" transform="translate(1401,295)"/>
<path d="M0 0 C-1.3125 2 -1.3125 2 -3 4 C-3.99 4 -4.98 4 -6 4 C-6 3.34 -6 2.68 -6 2 C-6.99 1.67 -7.98 1.34 -9 1 C-5.92677456 0.08941469 -3.19902639 -0.08886184 0 0 Z " fill="#ECEFED" transform="translate(1415,1314)"/>
<path d="M0 0 C0.66 0 1.32 0 2 0 C2 1.98 2 3.96 2 6 C1.34 6 0.68 6 0 6 C-0.33 6.66 -0.66 7.32 -1 8 C-1.125 2.25 -1.125 2.25 0 0 Z " fill="#DFE0DD" transform="translate(1418,1172)"/>
<path d="M0 0 C-0.33 0.99 -0.66 1.98 -1 3 C-2.98 3 -4.96 3 -7 3 C-7.33 2.34 -7.66 1.68 -8 1 C-5.10765685 0.17361624 -3.11257569 0 0 0 Z " fill="#E8E9E3" transform="translate(1261,1160)"/>
<path d="M0 0 C0.99 0.33 1.98 0.66 3 1 C3 1.99 3 2.98 3 4 C-1.455 3.01 -1.455 3.01 -6 2 C-4.68 1.67 -3.36 1.34 -2 1 C-1.34 0.67 -0.68 0.34 0 0 Z " fill="#D7DAD5" transform="translate(1328,1062)"/>
<path d="M0 0 C0.33 0.99 0.66 1.98 1 3 C1.66 3.33 2.32 3.66 3 4 C0.36 4.66 -2.28 5.32 -5 6 C-3.86695008 2.60085025 -2.87481525 1.94745549 0 0 Z " fill="#DEE0DC" transform="translate(1533,859)"/>
<path d="M0 0 C0.66 0 1.32 0 2 0 C2 1.32 2 2.64 2 4 C1.01 3.67 0.02 3.34 -1 3 C-0.67 2.01 -0.34 1.02 0 0 Z M-3 1 C-1 3 -1 3 -0.875 5.625 C-0.91625 6.40875 -0.9575 7.1925 -1 8 C-3 5 -3 5 -3 1 Z " fill="#292D2C" transform="translate(1460,365)"/>
<path d="M0 0 C0.33 0 0.66 0 1 0 C1 2.97 1 5.94 1 9 C0.01 8.67 -0.98 8.34 -2 8 C-2.20086443 4.28400809 -2.1519437 3.22791555 0 0 Z " fill="#CCCDC7" transform="translate(1402,346)"/>
<path d="M0 0 C1.98 0.495 1.98 0.495 4 1 C3.67 2.98 3.34 4.96 3 7 C2.34 6.01 1.68 5.02 1 4 C0.34 4.99 -0.32 5.98 -1 7 C-0.67 4.69 -0.34 2.38 0 0 Z " fill="#D3D3CB" transform="translate(1475,181)"/>
<path d="M0 0 C0.33 1.32 0.66 2.64 1 4 C0.01 4.495 0.01 4.495 -1 5 C-4 3 -4 3 -5 1 C-2 0 -2 0 0 0 Z " fill="#DFDFE1" transform="translate(1258,1360)"/>
<path d="M0 0 C0.99 0.33 1.98 0.66 3 1 C3 1.99 3 2.98 3 4 C1.35 4.33 -0.3 4.66 -2 5 C-1.125 1.125 -1.125 1.125 0 0 Z " fill="#E5E6E5" transform="translate(1251,1338)"/>
<path d="M0 0 C0.99 0.33 1.98 0.66 3 1 C2.34 1 1.68 1 1 1 C1.2784375 1.8353125 1.2784375 1.8353125 1.5625 2.6875 C2.07551165 5.399133 1.6640724 7.34371039 1 10 C0.67 10 0.34 10 0 10 C-0.19412181 8.52168779 -0.38012131 7.04230684 -0.5625 5.5625 C-0.66691406 4.73878906 -0.77132813 3.91507813 -0.87890625 3.06640625 C-0.91886719 2.38449219 -0.95882813 1.70257812 -1 1 C-0.67 0.67 -0.34 0.34 0 0 Z " fill="#F3F4F1" transform="translate(1516,1267)"/>
<path d="M0 0 C0.99 0.33 1.98 0.66 3 1 C1.02 3.97 1.02 3.97 -1 7 C-1.625 5.1875 -1.625 5.1875 -2 3 C-1.34 2.01 -0.68 1.02 0 0 Z " fill="#E9E8E5" transform="translate(1340,1239)"/>
<path d="M0 0 C0.66 0.33 1.32 0.66 2 1 C1.67 1.66 1.34 2.32 1 3 C1.66 3.33 2.32 3.66 3 4 C2.34 4 1.68 4 1 4 C1 4.66 1 5.32 1 6 C0.01 5.67 -0.98 5.34 -2 5 C-1.125 1.125 -1.125 1.125 0 0 Z " fill="#E4E6E0" transform="translate(1357,1158)"/>
<path d="M0 0 C-0.598125 0.28875 -1.19625 0.5775 -1.8125 0.875 C-4.19327792 2.04742026 -4.19327792 2.04742026 -7 4 C-7.99 3.34 -8.98 2.68 -10 2 C-6.3558226 -0.4294516 -4.28758728 -0.16179575 0 0 Z " fill="#1F211E" transform="translate(1411,1142)"/>
<path d="M0 0 C0.99 0.33 1.98 0.66 3 1 C1.35 2.65 -0.3 4.3 -2 6 C-2 4.68 -2 3.36 -2 2 C-1.34 2 -0.68 2 0 2 C0 1.34 0 0.68 0 0 Z " fill="#D8D9D4" transform="translate(1246,1080)"/>
<path d="M0 0 C0.99 0.33 1.98 0.66 3 1 C3 1.66 3 2.32 3 3 C2.34 3 1.68 3 1 3 C1 3.99 1 4.98 1 6 C0.01 6 -0.98 6 -2 6 C-1.34 4.02 -0.68 2.04 0 0 Z " fill="#EDF0ED" transform="translate(1586,1063)"/>
<path d="M0 0 C0.99 0.33 1.98 0.66 3 1 C2.60196439 3.88575819 2.20990931 4.82189513 -0.0625 6.75 C-0.701875 7.1625 -1.34125 7.575 -2 8 C-1.34 5.36 -0.68 2.72 0 0 Z " fill="#333230" transform="translate(1403,769)"/>
<path d="M0 0 C1.32 0 2.64 0 4 0 C4.33 1.32 4.66 2.64 5 4 C4.34 4 3.68 4 3 4 C2.67 4.66 2.34 5.32 2 6 C1.34 4.02 0.68 2.04 0 0 Z " fill="#E8E8E7" transform="translate(1421,503)"/>
</svg>
