<?xml version="1.0" standalone="no"?>
<!DOCTYPE svg PUBLIC "-//W3C//DTD SVG 20010904//EN"
 "http://www.w3.org/TR/2001/REC-SVG-20010904/DTD/svg10.dtd">
<svg version="1.0" xmlns="http://www.w3.org/2000/svg"
 width="2048.000000pt" height="2048.000000pt" viewBox="0 0 2048.000000 2048.000000"
 preserveAspectRatio="xMidYMid meet">

<g transform="translate(0.000000,2048.000000) scale(0.100000,-0.100000)"
fill="#000000" stroke="none">
<path d="M8304 17056 c-77 -19 -148 -60 -254 -144 -451 -360 -857 -759 -1241
-1222 -219 -264 -239 -289 -634 -815 -381 -507 -579 -742 -917 -1091 -135
-140 -247 -264 -266 -297 -59 -98 -81 -182 -98 -376 -8 -97 -21 -243 -29 -326
-38 -388 -4 -561 133 -686 l55 -51 -46 -141 c-176 -535 -253 -974 -332 -1872
-37 -423 -91 -803 -160 -1135 -57 -277 -215 -865 -435 -1625 -44 -154 -110
-397 -146 -540 -36 -143 -85 -332 -109 -420 -122 -447 -205 -851 -225 -1090
-21 -259 -8 -701 26 -880 32 -173 129 -311 299 -425 379 -255 819 -315 2065
-280 549 15 862 37 1290 91 285 35 503 69 683 105 71 15 130 24 132 22 3 -2 0
-20 -5 -39 -25 -88 0 -184 67 -259 60 -67 105 -95 195 -120 113 -32 209 -34
438 -11 113 11 363 32 555 46 193 14 436 32 540 40 203 16 669 48 955 65 96 6
245 15 330 20 530 32 1442 58 2171 61 1292 6 2118 44 2449 114 153 32 435 132
580 205 201 101 360 243 427 380 96 195 123 467 77 770 -43 285 -168 471 -402
601 -341 189 -1218 443 -1932 558 -486 79 -1048 149 -1450 182 -80 6 -150 14
-157 18 -8 4 -3 21 18 55 43 68 181 347 225 453 111 267 262 724 319 968 128
541 173 861 182 1295 8 398 -9 595 -89 992 l-41 208 26 57 c78 176 106 431 72
657 -28 185 -119 407 -226 548 -95 127 -263 281 -404 372 -30 20 -79 51 -108
70 -77 50 -208 120 -491 262 -138 70 -287 146 -331 169 -208 110 -263 140
-305 163 -843 477 -1078 744 -1473 1677 -131 309 -524 1108 -668 1357 -119
206 -347 558 -449 693 -240 317 -427 494 -588 556 -71 27 -223 35 -298 15z
m246 -316 c71 -36 273 -250 411 -435 178 -238 414 -628 618 -1020 109 -209
350 -714 421 -880 256 -603 376 -825 594 -1095 183 -228 420 -427 754 -634
213 -132 334 -199 807 -441 585 -300 636 -329 797 -452 103 -79 203 -184 261
-275 181 -284 206 -615 71 -940 -13 -32 -24 -77 -24 -100 0 -24 18 -131 41
-238 106 -513 123 -911 59 -1430 -36 -290 -124 -720 -206 -1000 -40 -141 -158
-469 -248 -690 -192 -474 -537 -982 -930 -1370 -82 -81 -145 -152 -157 -178
-49 -99 20 -202 134 -202 46 0 50 3 155 99 183 168 422 446 597 694 26 36 47
57 60 57 73 0 794 -73 1090 -110 622 -80 1396 -234 1770 -354 549 -175 715
-246 821 -352 113 -113 152 -231 161 -489 10 -302 -51 -464 -216 -578 -84 -57
-310 -166 -423 -202 -398 -129 -781 -154 -2706 -175 -1482 -17 -1818 -32
-3807 -177 -963 -70 -974 -70 -1031 -48 -29 11 -44 23 -44 34 0 32 120 135
215 184 50 26 142 85 205 133 264 197 331 220 660 234 483 21 623 78 952 393
157 150 227 204 327 255 70 35 81 37 165 37 76 0 98 -4 136 -24 71 -37 118
-79 160 -141 81 -120 207 -200 345 -222 217 -34 921 75 1400 216 50 15 200 62
335 106 552 178 782 231 1097 252 355 24 662 -20 1005 -142 61 -22 125 -40
142 -40 71 0 136 71 136 148 0 94 -54 131 -290 202 -589 177 -1130 168 -1810
-30 -74 -22 -253 -77 -397 -124 -502 -162 -987 -266 -1383 -297 -140 -11 -161
-11 -215 5 -49 15 -68 27 -105 68 -126 141 -208 217 -265 246 -160 80 -323 97
-470 47 -171 -57 -287 -137 -537 -372 -156 -147 -218 -191 -326 -230 -108 -39
-193 -52 -417 -62 -375 -18 -460 -46 -774 -255 -126 -84 -175 -103 -408 -155
-610 -139 -1275 -222 -1988 -250 -958 -38 -1543 -18 -1853 64 -185 49 -401
177 -467 277 -39 59 -62 187 -76 422 -22 383 5 628 123 1121 153 640 295 1173
513 1920 44 152 79 279 146 531 149 564 236 1053 289 1614 64 684 107 1047
150 1255 43 211 115 478 180 675 38 113 85 261 105 330 78 269 136 428 171
467 l33 38 1 -40 c1 -61 37 -193 67 -244 26 -45 27 -53 39 -306 18 -366 31
-478 80 -670 64 -255 133 -386 339 -650 104 -133 155 -260 155 -387 0 -143
-51 -210 -263 -351 -318 -210 -362 -290 -402 -722 -41 -452 -49 -1063 -20
-1480 30 -436 45 -713 45 -855 0 -536 -106 -977 -325 -1351 -38 -63 -45 -84
-45 -127 0 -43 5 -57 31 -87 44 -50 91 -60 185 -41 145 30 366 115 710 272
233 106 451 193 674 268 188 63 295 93 720 206 444 117 591 165 739 239 84 43
129 94 175 198 176 403 485 735 840 904 179 85 313 125 609 180 298 55 559
146 713 248 337 224 494 522 495 938 0 217 -30 399 -102 610 -22 65 -50 147
-62 183 -34 104 -235 493 -327 635 -182 281 -272 387 -680 800 -383 389 -469
502 -645 855 -113 226 -209 452 -268 630 -58 174 -126 474 -156 690 -18 129
-27 219 -47 475 -32 400 -75 582 -231 975 -132 330 -172 437 -239 641 -36 112
-75 216 -85 231 -11 14 -39 34 -63 43 -36 14 -50 15 -86 5 -36 -10 -63 -33
-163 -136 -135 -140 -203 -193 -497 -384 -252 -165 -351 -235 -504 -358 -277
-225 -608 -563 -701 -717 -64 -108 -76 -152 -85 -340 -9 -201 -21 -242 -130
-442 -39 -70 -80 -153 -91 -183 -23 -60 -72 -288 -84 -388 -4 -35 -11 -60 -15
-55 -9 10 -30 209 -30 293 -1 118 -23 172 -90 218 -39 26 -89 28 -138 5 -34
-16 -136 -107 -251 -223 -91 -92 -160 -227 -202 -393 -12 -48 -25 -87 -29 -87
-9 0 -20 77 -20 142 0 43 22 283 35 378 3 19 11 111 19 203 13 152 18 173 43
218 15 27 103 124 194 216 381 386 654 714 1179 1418 227 304 499 642 658 820
180 200 544 551 752 726 74 62 153 130 175 150 106 99 155 121 250 116 47 -3
85 -11 115 -27z m-366 -1727 c26 -76 86 -235 133 -353 92 -229 175 -461 168
-468 -2 -2 -18 12 -35 32 -18 20 -66 53 -108 73 -73 36 -80 38 -177 38 -78 -1
-114 -6 -165 -24 -93 -33 -236 -89 -300 -118 -129 -59 -129 -59 -263 -16 -67
22 -151 13 -219 -23 -67 -36 -107 -96 -143 -213 -42 -135 -85 -240 -124 -297
-22 -32 -90 -99 -171 -167 -191 -160 -269 -258 -373 -462 -109 -214 -158 -415
-158 -648 1 -253 48 -458 157 -682 88 -181 161 -285 302 -425 180 -179 325
-269 557 -348 137 -46 227 -63 380 -69 170 -7 294 11 465 67 339 111 580 316
775 660 69 123 131 200 160 200 8 0 29 -28 46 -62 71 -141 220 -370 337 -518
42 -52 180 -199 307 -325 353 -351 491 -513 672 -785 130 -197 203 -335 292
-556 70 -174 125 -350 149 -478 25 -134 22 -374 -7 -481 -60 -229 -202 -396
-436 -513 -156 -77 -279 -113 -574 -167 -306 -56 -508 -125 -721 -246 -177
-101 -267 -167 -403 -299 -184 -178 -306 -345 -433 -595 -79 -156 -79 -157
-226 -215 -96 -37 -374 -119 -566 -165 -473 -114 -913 -265 -1367 -467 -266
-119 -404 -178 -415 -178 -6 0 -5 12 3 28 58 113 147 451 184 697 25 166 25
837 -1 1160 -42 544 -45 978 -11 1455 23 321 40 444 74 516 27 59 34 64 172
159 248 169 298 213 360 320 53 90 73 176 73 310 1 210 -58 351 -250 605 -231
305 -289 500 -324 1084 -6 93 -9 170 -8 171 2 1 23 12 48 24 65 33 107 78 130
138 11 29 34 138 51 241 17 103 37 210 46 237 8 28 53 124 100 214 46 91 93
192 105 225 30 89 48 217 48 339 0 126 9 150 97 255 92 109 297 316 463 469
141 129 393 313 657 479 105 66 305 211 363 263 25 22 48 40 51 41 4 0 27 -62
53 -137z m58 -989 c21 -20 72 -96 147 -222 24 -40 78 -111 120 -157 l76 -84
18 -178 c17 -180 54 -425 82 -550 45 -199 60 -258 92 -363 20 -63 64 -186 99
-273 35 -87 64 -160 64 -162 0 -2 -19 -9 -42 -16 -68 -18 -160 -120 -236 -261
-139 -260 -283 -408 -504 -519 -139 -70 -261 -100 -427 -106 -207 -8 -337 20
-518 110 -438 220 -721 735 -674 1227 19 201 99 404 226 575 74 99 129 154
253 253 143 114 232 251 297 458 20 65 41 123 46 128 5 5 39 0 85 -14 107 -31
146 -25 397 71 116 45 230 88 252 95 51 18 120 12 147 -12z"/>
</g>
</svg>
