<?xml version="1.0" encoding="UTF-8"?>
<svg version="1.1" xmlns="http://www.w3.org/2000/svg" width="2816" height="1536">
<path d="M0 0 C929.28 0 1858.56 0 2816 0 C2816 506.88 2816 1013.76 2816 1536 C1886.72 1536 957.44 1536 0 1536 C0 1029.12 0 522.24 0 0 Z " fill="#FDFDFD" transform="translate(0,0)"/>
<path d="M0 0 C5.37733379 2.84682377 7.89800573 5.96389334 9.95703125 11.63671875 C12.44955869 20.52559516 14.53384347 29.4864685 16.57519531 38.48828125 C18.45613226 46.75222338 20.4782435 54.97271115 22.5625 63.1875 C25.63980283 75.40962573 28.54788827 87.63621503 31 100 C31.22993652 101.13630859 31.45987305 102.27261719 31.69677734 103.44335938 C38.4268023 137.36232065 37.7861093 167.40795846 24.375 199.3125 C23.93768555 200.35921875 23.50037109 201.4059375 23.04980469 202.484375 C20.22406439 209.20747737 17.28049063 215.86710544 14.25 222.5 C7.72188764 236.86664832 2.78463293 251.32778737 -1.3359375 266.56201172 C-1.91391911 268.6839692 -2.5148532 270.7973019 -3.125 272.91015625 C-8.41719305 292.23906445 -11.06586867 313.167804 -11.23828125 333.2109375 C-11.25331192 334.63970467 -11.25331192 334.63970467 -11.26864624 336.09733582 C-11.73286857 391.94565662 -1.13477934 445.03147902 13.41998291 498.84753418 C18.25205482 516.77953965 22.89682261 534.67539776 26 553 C26.28854184 554.64332067 26.57760484 556.28654992 26.8671875 557.9296875 C27.14186344 559.51541098 27.41535417 561.10134034 27.6875 562.6875 C27.80714111 563.38206299 27.92678223 564.07662598 28.05004883 564.79223633 C29.89448113 575.92436834 30.27406599 586.98628205 30.3125 598.25 C30.31611542 599.06715485 30.31973083 599.88430969 30.32345581 600.72622681 C30.3544195 618.38086764 28.5804306 635.70519907 26.45605469 653.21020508 C20.64793907 701.47539715 32.23820677 744.85576695 46.27880859 790.6328125 C50.73162374 805.248417 54.86236591 819.91118118 58.45019531 834.76269531 C58.96452143 836.85562805 59.50305554 838.94006951 60.0546875 841.0234375 C72.17959006 887.36124341 72.17959006 887.36124341 61.45703125 907.96484375 C56.90667321 915.38911214 51.30433801 922.02446833 45.75 928.70703125 C45.028125 929.58746094 44.30625 930.46789063 43.5625 931.375 C42.57443359 932.56222656 42.57443359 932.56222656 41.56640625 933.7734375 C40.02314479 935.96710093 39.55584454 937.42765811 39 940 C45.72643084 939.93289582 52.45228521 939.84304806 59.17822266 939.73754883 C61.46526226 939.70433994 63.75238303 939.67629549 66.03955078 939.65356445 C69.33140578 939.6199449 72.62251972 939.56762376 75.9140625 939.51171875 C76.93303619 939.50532883 77.95200989 939.4989389 79.00186157 939.49235535 C84.33938388 939.38236363 88.48908921 939.18643638 93 936 C94.73474699 933.18512788 95.25002049 931.0684136 95.25020635 927.78472102 C95.25756101 926.52432019 95.25756101 926.52432019 95.26506424 925.23845673 C95.26027117 924.31855516 95.2554781 923.3986536 95.25053978 922.45087624 C95.25333746 921.46711333 95.25613513 920.48335042 95.25901759 919.46977651 C95.26601998 916.14723945 95.25869681 912.82488448 95.2515564 909.50234985 C95.25369339 907.10666385 95.25671765 904.7109785 95.26055682 902.31529462 C95.26693755 897.09312176 95.26712889 891.87098588 95.26195335 886.64881325 C95.25431674 878.88328199 95.25816609 871.11778659 95.26457582 863.35225572 C95.27511274 850.28871401 95.27693117 837.22518522 95.27439499 824.16164017 C95.27098117 805.50094016 95.28432921 786.84027263 95.30116946 768.17958134 C95.30785075 760.69424704 95.31398935 753.20891226 95.32012367 745.7235775 C95.32114967 744.47609784 95.32114967 744.47609784 95.32219639 743.20341656 C95.33837944 723.40156369 95.34921169 703.5997088 95.35839844 683.79785156 C95.35880447 682.93126406 95.35921051 682.06467655 95.35962884 681.17182882 C95.36905788 660.95067348 95.37592317 640.72951926 95.37835693 620.50836182 C95.3784635 619.63855683 95.37857006 618.76875184 95.37867985 617.87258913 C95.37921301 613.486634 95.37972776 609.10067888 95.38024123 604.71472375 C95.38034344 603.84790207 95.38044565 602.98108039 95.38055095 602.08799138 C95.38075651 600.33839012 95.38095907 598.58878886 95.38115862 596.83918759 C95.38453755 567.94792445 95.40143289 539.0566938 95.43326016 510.16544758 C95.43773371 506.08738367 95.44202353 502.00931958 95.44618607 497.93125534 C95.44700652 497.12863545 95.44782698 496.32601556 95.4486723 495.49907386 C95.46143399 482.56834619 95.45941948 469.63766057 95.45155162 456.7069307 C95.44387782 443.71736133 95.45024585 430.72786215 95.47119068 417.73830678 C95.48317872 410.01655969 95.48389418 402.29499896 95.46869816 394.57325654 C95.45857676 388.8146439 95.46915528 383.05622019 95.48791118 377.29763608 C95.4922344 374.96253893 95.48972955 372.62741758 95.47987001 370.29233725 C95.46747501 367.12813928 95.47948402 363.96495338 95.49777794 360.80080605 C95.48830253 359.88558682 95.47882713 358.97036759 95.46906459 358.02741444 C95.53516288 352.38963534 96.33741379 349.34317746 100 345 C103.20785018 342.64757653 106.09649252 342.5315791 110 343 C113.85869665 345.11850012 116.87443287 347.12525348 119 351 C119.44719909 354.18127984 119.39766629 357.34125954 119.3707943 360.54912376 C119.37627218 362.02476813 119.37627218 362.02476813 119.38186073 363.53022349 C119.39051801 366.85284572 119.37766573 370.17504527 119.36508179 373.49765015 C119.36693897 375.89333657 119.37012561 378.28902228 119.3745333 380.68470538 C119.38114857 385.90689893 119.37846053 391.12900364 119.36770058 396.35118675 C119.35178312 404.11672573 119.3530929 411.88219404 119.35819872 419.64774428 C119.36639905 432.71129668 119.36136279 445.77481168 119.34955978 458.83835983 C119.33370255 476.67734313 119.33937415 494.51627515 119.35117622 512.35525925 C119.35666639 520.66231328 119.36121345 528.96936783 119.36561012 537.2764225 C119.3660531 538.10807561 119.36649609 538.93972872 119.36695249 539.79658344 C119.37732234 559.59843803 119.37919809 579.40029146 119.37890625 599.20214844 C119.37889864 600.06873594 119.37889103 600.93532345 119.37888318 601.82817118 C119.37865394 622.04932815 119.37542317 642.27048256 119.36798096 662.49163818 C119.36734164 664.24839446 119.36670287 666.00515074 119.36606465 667.76190702 C119.36574815 668.63085117 119.36543165 669.49979533 119.36510556 670.39507112 C119.36382972 673.90071695 119.36255825 677.40636278 119.36129661 680.91200862 C119.36066675 682.66160988 119.3600327 684.41121114 119.35939447 686.16081241 C119.35225951 705.92387709 119.34901798 725.68692776 119.3608036 745.44999123 C119.36129868 746.28036738 119.36179376 747.11074353 119.36230384 747.9662826 C119.36736654 756.25570672 119.37329843 764.54512983 119.38043718 772.83455242 C119.38392224 776.91261634 119.38716893 780.99068041 119.39024734 785.06874466 C119.39085388 785.87136455 119.39146041 786.67398444 119.39208533 787.50092614 C119.4012682 800.43166995 119.39172506 813.36233618 119.37468079 826.2930693 C119.35783056 839.28264433 119.35843703 852.27211983 119.3772025 865.26169322 C119.38777387 872.98348556 119.3842253 880.704978 119.36076382 888.42674346 C119.34477992 894.18538499 119.35467924 899.94374611 119.37479956 905.70236392 C119.37885032 908.03746477 119.37435849 910.37259853 119.3606656 912.70766275 C119.3433143 915.87204717 119.35648882 919.03486633 119.37752342 922.19919395 C119.36513516 923.11441318 119.35274689 924.02963241 119.33998322 924.97258556 C119.40077651 929.2903825 119.65324321 932.1270236 122.4130007 935.55866492 C125.30061886 938.32491559 125.30061886 938.32491559 129 939 C129.74755554 939.05221207 130.49511108 939.10442413 131.26531982 939.15821838 C132.50442108 939.18153481 132.50442108 939.18153481 133.76855469 939.20532227 C134.70922791 939.22526749 135.64990112 939.24521271 136.61907959 939.26576233 C137.62650208 939.28247482 138.63392456 939.29918732 139.671875 939.31640625 C140.70942932 939.33718735 141.74698364 939.35796844 142.815979 939.37937927 C146.12725258 939.44471408 149.43860482 939.50368517 152.75 939.5625 C154.99610185 939.60570049 157.24219578 939.64931527 159.48828125 939.69335938 C164.99210457 939.80037903 170.49600598 939.90217522 176 940 C173.64072703 934.43448501 173.64072703 934.43448501 171 929 C170.34 929 169.68 929 169 929 C167.16008333 926.91355855 165.44403489 924.82563844 163.75 922.625 C163.25491943 921.98449707 162.75983887 921.34399414 162.24975586 920.68408203 C149.56812407 904.06791936 146.12476683 889.27998917 148.62353516 868.74487305 C150.94703188 852.59422204 155.76235688 836.73258816 160 821 C160.18921021 820.29681641 160.37842041 819.59363281 160.57336426 818.86914062 C164.9245236 802.71933555 169.54256766 786.68588464 174.625 770.75 C176.13575112 765.96302367 177.49083883 761.20684005 178.484375 756.28515625 C179.13129991 753.41810267 179.97434444 750.62963395 180.8125 747.8125 C182.58409034 741.66169757 184.15965316 735.48085283 185.625 729.25 C185.8310083 728.40671143 186.0370166 727.56342285 186.24926758 726.69458008 C189.54291712 712.38649653 190.43108205 697.70505175 190.4375 683.0625 C190.44209229 681.90137695 190.44209229 681.90137695 190.44677734 680.71679688 C190.46104874 666.57098835 188.97535102 652.79380822 187.14520264 638.7840271 C185.46332153 625.77571418 184.51077556 612.99531174 184.5625 599.875 C184.56282227 599.13548096 184.56314453 598.39596191 184.56347656 597.6340332 C184.59704677 586.97189641 185.58099828 576.5607388 187 566 C187.18018677 564.5776001 187.18018677 564.5776001 187.36401367 563.12646484 C189.0289689 550.1849256 191.76799717 537.63172699 195 525 C195.41886475 523.35112793 195.41886475 523.35112793 195.84619141 521.66894531 C201.09006809 501.0665661 201.09006809 501.0665661 203.96875 491.2734375 C206.31737537 483.11223246 208.13598452 474.8575222 209.9375 466.5625 C210.28925018 464.95250743 210.64122231 463.34256333 210.9934082 461.73266602 C211.51755802 459.33619629 212.04130639 456.93964662 212.56303406 454.54264832 C213.49299648 450.27788438 214.45093877 446.02196049 215.453125 441.7734375 C218.1214606 430.34078763 220.02863927 418.86511914 221.6875 407.25 C221.79041351 406.53149872 221.89332703 405.81299744 221.99935913 405.07272339 C222.6077495 400.78474187 223.18191921 396.49346995 223.72299194 392.19647217 C223.90782807 390.73085631 224.09649582 389.26571865 224.28897095 387.80108643 C225.96008967 374.91273133 226.34184641 362.13974456 226.31567383 349.15039062 C226.31252364 345.89939462 226.33604565 342.64932142 226.36132812 339.3984375 C226.42082298 319.9547124 224.79988265 300.58305457 220.3125 281.625 C220.05686279 280.520354 219.80122559 279.41570801 219.5378418 278.27758789 C213.21856766 251.63492539 203.88365591 227.05418783 192.00341797 202.42480469 C169.82225319 156.03772253 181.42329718 108.71312691 192.625 61 C192.81282043 60.19593719 193.00064087 59.39187439 193.19415283 58.56344604 C195.23055669 49.87472279 197.43119154 41.320144 200.13818359 32.81054688 C201.30765123 28.99669096 202.16953831 25.14859558 203 21.25 C206.21032992 7.09125603 206.21032992 7.09125603 211.3125 1.4375 C214.8736935 -0.46732443 217.00753591 -0.56034584 221 0 C224.70390021 2.02666238 226.65363011 3.48044516 229 7 C229.4617469 8.86764933 229.84171368 10.75603774 230.17333984 12.65112305 C230.48408951 14.39651619 230.48408951 14.39651619 230.80111694 16.1771698 C231.01885773 17.44257095 231.23659851 18.70797211 231.4609375 20.01171875 C231.69452886 21.3400952 231.92872172 22.668366 232.16348267 23.99653625 C232.7831486 27.51256886 233.39407118 31.03006858 234.00335693 34.5479126 C234.60858641 38.03228102 235.22281891 41.51505977 235.8359375 44.99804688 C239.124364 63.7133566 242.27546716 82.45053012 245.34375 101.203125 C247.39353422 113.72347508 249.53008319 126.2022353 252.109375 138.625 C252.68642978 141.41044586 253.22195432 144.19641591 253.703125 147 C258.58188525 175.13796608 268.51464623 202.2678393 280.62744141 228.05859375 C283.61197851 234.45448542 286.51696629 240.88719958 289.4375 247.3125 C289.76354218 248.02901733 290.08958435 248.74553467 290.42550659 249.48376465 C298.06532316 266.27587163 305.42852508 283.17394628 312.5625 300.1875 C312.99280518 301.21045166 313.42311035 302.23340332 313.86645508 303.28735352 C314.46043091 304.71325806 314.46043091 304.71325806 315.06640625 306.16796875 C315.41646729 307.00610107 315.76652832 307.8442334 316.12719727 308.70776367 C317.93191418 313.44748034 318.07225365 317.55045815 317.921875 322.59765625 C317.8906874 324.12895185 317.86137955 325.66028664 317.83374023 327.19165039 C317.81914764 327.98846222 317.80455505 328.78527405 317.78952026 329.60623169 C317.56132862 343.78882677 317.9680418 356.55394775 323 370 C324.59290271 374.77870813 325.17421344 379.45200325 323.01171875 384.14453125 C320.8621174 387.11764185 319.15918369 388.71343944 315.55078125 389.60546875 C310.96130747 389.85929615 308.70012586 389.53968035 305 386.6875 C302.17542075 382.89197164 300.61570912 380.06515566 299.52734375 375.484375 C299.26759766 374.39769531 299.00785156 373.31101562 298.74023438 372.19140625 C298.47533203 371.05574219 298.21042969 369.92007812 297.9375 368.75 C297.66873047 367.62980469 297.39996094 366.50960938 297.12304688 365.35546875 C295.23798762 357.39215108 293.8298594 349.96180946 294.078125 341.73828125 C294.10540291 340.35744574 294.13140332 338.97658452 294.15625 337.59570312 C294.19919088 335.46061415 294.2495084 333.32692071 294.32226562 331.19262695 C294.6410137 321.37860149 293.49416227 313.90414919 289 305 C288.28442604 303.35898239 287.57958632 301.71323299 286.88671875 300.0625 C286.15507237 298.37438101 285.42192585 296.68691162 284.6875 295 C284.27508057 294.05213623 283.86266113 293.10427246 283.43774414 292.12768555 C279.31156226 282.67132724 275.12766389 273.24064197 270.9375 263.8125 C270.58990631 263.03033112 270.24231262 262.24816223 269.88418579 261.44229126 C266.27560296 253.32532011 262.65392634 245.21499499 258.98193359 237.12646484 C255.59905043 229.67278094 252.37612944 222.19160079 249.3984375 214.56640625 C248.20529332 211.52355531 246.96250003 208.50643245 245.70581055 205.48950195 C242.13778152 196.83076739 239.46906858 188.02587819 237 179 C236.75749512 178.13342773 236.51499023 177.26685547 236.26513672 176.37402344 C232.73193832 163.70834842 229.94418303 151.08492475 227.859375 138.1015625 C227.19805131 134.01397428 226.36778319 129.99208787 225.44189453 125.95703125 C224.89734546 123.54537082 224.4609235 121.12736963 224.0625 118.6875 C223.8975 117.67816406 223.7325 116.66882813 223.5625 115.62890625 C223.13122317 112.84657167 222.71570426 110.06377318 222.3125 107.27734375 C222.06283795 105.55984667 221.81283013 103.84239983 221.5625 102.125 C221.37445801 100.83009644 221.37445801 100.83009644 221.18261719 99.5090332 C220.42117406 94.40206307 219.47667189 89.40510117 218.3125 84.375 C217.0497434 78.82413246 216.64686867 73.67625914 217 68 C216.34 68 215.68 68 215 68 C214.74605469 69.29292969 214.49210937 70.58585938 214.23046875 71.91796875 C211.10831663 87.71929038 211.10831663 87.71929038 209.5 94.3125 C208.05506742 100.41773712 206.95562536 106.57200242 205.875 112.75 C205.70419922 113.72106689 205.53339844 114.69213379 205.35742188 115.69262695 C199.02363747 152.56925717 206.75061065 179.52722344 222.42578125 212.66796875 C235.09858951 239.49155546 242.52150514 267.76457819 247 297 C247.15243164 297.92796387 247.30486328 298.85592773 247.46191406 299.81201172 C253.02135415 334.35138412 251.24974055 370.53167191 246 405 C245.88120483 405.78552246 245.76240967 406.57104492 245.64001465 407.38037109 C242.0823544 430.71151399 237.23527619 453.64555199 231.57807922 476.55093384 C229.88159068 483.43115584 228.31019424 490.33770142 226.75 497.25 C224.97496295 505.0434469 223.02773553 512.75274525 220.82983398 520.43701172 C217.38040488 532.56794612 214.28253585 544.88947958 212.3984375 557.3671875 C211.84753035 561.00749551 211.15289171 564.61785847 210.46484375 568.234375 C209.29504873 575.19416387 208.84093871 581.90237304 208.83203125 588.94921875 C208.82870285 589.88369339 208.82537445 590.81816803 208.82194519 591.78096008 C208.8169068 593.7500459 208.8145359 595.71914017 208.81469727 597.68823242 C208.81251909 600.66144306 208.79435295 603.63427709 208.77539062 606.60742188 C208.74872192 615.49593242 208.85700911 624.0726094 210.45874023 632.84399414 C217.13346968 671.76335702 216.1507113 713.04315645 205 751 C204.48016342 752.81241245 203.96066058 754.62492065 203.44140625 756.4375 C201.96229625 761.56782198 200.45500876 766.68947956 198.94091797 771.80957031 C197.36282792 777.16049941 195.80794513 782.51817821 194.25 787.875 C191.70547814 796.62238577 189.10544138 805.35148444 186.46484375 814.0703125 C186.21283203 814.90433594 185.96082031 815.73835938 185.70117188 816.59765625 C185.18956715 818.29079313 184.67653224 819.98349847 184.16210938 821.67578125 C182.6310962 826.75292007 181.24712481 831.84557661 180 837 C179.43625517 839.26954547 178.87244646 841.53907508 178.30859375 843.80859375 C177.68442676 846.35144741 177.06074111 848.89441926 176.4375 851.4375 C176.12103516 852.70916016 175.80457031 853.98082031 175.47851562 855.29101562 C173.87581172 861.85495582 172.44318203 868.25097085 172 875 C171.90976563 876.24523438 171.81953125 877.49046875 171.7265625 878.7734375 C171.27877492 894.65267395 178.75369822 905.20394477 189.28515625 916.4375 C189.97480469 917.159375 190.66445312 917.88125 191.375 918.625 C197.2129187 925.08925411 199.80521784 932.9649944 199.37890625 941.65625 C198.20222353 948.93469983 193.79317059 954.63004252 188 959 C180.62316462 962.62685614 173.72152407 963.58921371 165.59375 963.49609375 C164.02481995 963.4982766 164.02481995 963.4982766 162.42419434 963.50050354 C160.22921949 963.49885545 158.03423176 963.48741781 155.83935547 963.46655273 C152.50828197 963.43757205 149.1788022 963.445974 145.84765625 963.45898438 C143.70051322 963.45274594 141.55337513 963.44435418 139.40625 963.43359375 C138.42571655 963.43652939 137.44518311 963.43946503 136.43493652 963.44248962 C127.79211857 963.32644309 118.92974653 962.06292777 111.8125 956.8125 C110.70841797 956.01779297 110.70841797 956.01779297 109.58203125 955.20703125 C109.05996094 954.80871094 108.53789063 954.41039062 108 954 C106.96875 954.7425 105.9375 955.485 104.875 956.25 C92.56773595 963.74373868 79.35418861 963.60646757 65.41259766 963.46655273 C62.24198541 963.43742638 59.07303458 963.44601581 55.90234375 963.45898438 C53.85676283 963.45274968 51.81118709 963.44436085 49.765625 963.43359375 C48.83308899 963.43652939 47.90055298 963.43946503 46.9397583 963.44248962 C38.6222522 963.32461602 30.31269241 962.08851965 24.0625 956.1875 C23.35222656 955.54167969 22.64195312 954.89585937 21.91015625 954.23046875 C16.65527588 948.0944019 16.15720365 941.92172159 16.46875 934.10546875 C17.40970659 923.93137566 24.93413843 916.67300348 31.6328125 909.59765625 C38.97107425 901.54494327 43.57987621 893.28350537 43.4375 882.3125 C43.43137695 881.49305908 43.42525391 880.67361816 43.41894531 879.8293457 C43.0965011 866.76663463 39.84174899 853.97308682 36.02734375 841.53125 C35.15678935 838.53892615 34.3881157 835.55352975 33.6484375 832.52734375 C32.02916136 825.98236839 30.1709902 819.51731613 28.27096558 813.04898071 C27.46704646 810.31193865 26.66838357 807.57337078 25.86940002 804.83488464 C25.46879764 803.4619389 25.0679516 802.08906422 24.66685486 800.71626282 C22.83197245 794.43421994 21.02382649 788.144829 19.23901367 781.84838867 C17.87432356 777.03803159 16.48283774 772.23681145 15.06640625 767.44140625 C3.04837727 726.52580508 -2.4727504 687.64139028 3.38916016 645.18115234 C9.12517195 602.75643879 5.82255599 563.6873541 -5.11279297 522.38916016 C-6.25100806 518.04114091 -7.3369758 513.68068404 -8.42134094 509.31903076 C-9.50035355 504.98452854 -10.59661007 500.65483324 -11.70610046 496.32803345 C-20.10375072 463.5690204 -28.21167817 430.66181516 -32 397 C-32.07305359 396.35498535 -32.14610718 395.7099707 -32.22137451 395.04541016 C-34.62324214 373.64331881 -35.46753267 352.52817648 -35 331 C-34.98984863 330.07687012 -34.97969727 329.15374023 -34.96923828 328.20263672 C-34.68162545 302.49408623 -29.65793722 276.46031097 -22 252 C-21.62133789 250.78054688 -21.24267578 249.56109375 -20.85253906 248.3046875 C-15.47775393 231.16658211 -8.99788242 214.74371201 -1.30273438 198.51342773 C6.99888267 180.97628587 12.4255752 165.43181362 12.375 145.875 C12.37478851 145.12222778 12.37457703 144.36945557 12.37435913 143.59387207 C12.33740252 130.37146113 10.94735779 117.90811924 8 105 C7.57450625 103.04318909 7.15004713 101.08615295 6.7265625 99.12890625 C4.81416154 90.42610659 2.76311592 81.7580562 0.48046875 73.14453125 C0 71 0 71 0 68 C-0.66 68 -1.32 68 -2 68 C-1.96535645 69.2777832 -1.93071289 70.55556641 -1.89501953 71.87207031 C-1.89920488 77.0722969 -2.69769203 81.95278451 -3.6796875 87.046875 C-3.85251251 87.97993469 -4.02533752 88.91299438 -4.20339966 89.87432861 C-4.75305337 92.83435433 -5.31352039 95.792197 -5.875 98.75 C-6.60470307 102.6400413 -7.33017653 106.5308637 -8.0546875 110.421875 C-8.22995972 111.3599147 -8.40523193 112.29795441 -8.58581543 113.26441956 C-9.674182 119.12494264 -10.65747254 124.99022023 -11.52978516 130.88720703 C-14.39899667 149.88120846 -17.64225194 168.82867828 -24 187 C-24.2479834 187.72590332 -24.4959668 188.45180664 -24.75146484 189.19970703 C-34.1150796 216.42455224 -46.28946884 242.72538669 -58 269 C-58.56349807 270.26480162 -59.12697525 271.52961254 -59.69042969 272.79443359 C-60.74811166 275.16861929 -61.80667313 277.54241342 -62.86621094 279.91577148 C-63.86442962 282.1630557 -64.85479983 284.41384413 -65.83691406 286.66821289 C-67.98696389 291.59153146 -70.177866 296.41813804 -72.7421875 301.140625 C-79.27395065 313.64859881 -79.58089204 324.81735566 -79.18969727 338.60107422 C-78.88143388 349.61085205 -79.76969168 359.44134564 -83 370 C-83.20850586 370.71752441 -83.41701172 371.43504883 -83.63183594 372.17431641 C-87.49716341 385.36173122 -87.49716341 385.36173122 -91 388 C-94.71487155 389.23829052 -98.13978512 389.5503822 -102 389 C-105.43952148 386.90637823 -107.78028175 384.88092169 -109 381 C-109.24850515 376.00565263 -108.63688193 372.06334065 -107.125 367.3125 C-103.09283252 354.60370546 -102.79191764 342.31332583 -103.11645508 329.11889648 C-103.30264254 320.91655908 -103.43319731 313.61587851 -100 306 C-99.34608276 304.43125122 -99.34608276 304.43125122 -98.67895508 302.83081055 C-97.11199515 299.10057326 -95.49950268 295.39288661 -93.875 291.6875 C-93.28342504 290.33097258 -92.6920372 288.97436355 -92.10083008 287.61767578 C-88.32005488 278.95480041 -84.47343146 270.32285523 -80.578125 261.7109375 C-66.60820688 231.14185535 -66.60820688 231.14185535 -54 200 C-53.57098389 198.87706543 -53.57098389 198.87706543 -53.13330078 197.73144531 C-44.73220162 175.59284641 -38.39742598 152.09022985 -35.25 128.625 C-33.68528263 117.31563402 -31.88451775 106.06190205 -29.9375 94.8125 C-29.81370972 94.09676819 -29.68991943 93.38103638 -29.56237793 92.64361572 C-28.83421148 88.44210738 -28.09861327 84.24193897 -27.35906982 80.04241943 C-27.01249514 78.07107344 -26.66855176 76.0992654 -26.32470703 74.12744141 C-24.18046257 61.85403289 -21.94294948 49.59757852 -19.66601562 37.34814453 C-19.21815963 34.92860579 -18.77421361 32.50834037 -18.33398438 30.08740234 C-17.69044184 26.55124053 -17.03409234 23.01766718 -16.375 19.484375 C-16.18115723 18.40420105 -15.98731445 17.3240271 -15.78759766 16.21112061 C-15.5972998 15.20526917 -15.40700195 14.19941772 -15.2109375 13.16308594 C-15.04899902 12.28392517 -14.88706055 11.4047644 -14.72021484 10.4989624 C-13.57664661 6.53107136 -11.93978741 3.73659013 -8.6875 1.1875 C-5.42414686 -0.25444674 -3.53748596 -0.50535514 0 0 Z " fill="#060706" transform="translate(1301,470)"/>
<path d="M0 0 C1.0401123 -0.00539795 2.08022461 -0.0107959 3.15185547 -0.01635742 C23.42636991 0.16714401 42.23808608 6.12308561 56.7578125 20.57421875 C57.64210938 21.47785156 58.52640625 22.38148438 59.4375 23.3125 C60.54738281 24.37404297 60.54738281 24.37404297 61.6796875 25.45703125 C78.94628363 43.02596077 83.07530017 70.80572019 82.9375 94.375 C82.93573761 95.18476288 82.93397522 95.99452576 82.93215942 96.8288269 C82.86737667 110.22204339 81.54713656 122.50161175 77.4375 135.3125 C77.18049316 136.16537598 76.92348633 137.01825195 76.65869141 137.89697266 C71.53565622 154.78820775 64.07157457 170.67842543 51.4375 183.3125 C51.20764416 186.14838371 51.10544142 188.85121867 51.125 191.6875 C51.12918945 192.49807861 51.13337891 193.30865723 51.13769531 194.14379883 C51.26276768 200.85180268 52.16001802 206.9695129 54.4375 213.3125 C54.66953125 213.99699219 54.9015625 214.68148437 55.140625 215.38671875 C57.83632783 221.47847858 63.69158976 223.64104173 69.4375 226.3125 C70.11748047 226.63395996 70.79746094 226.95541992 71.49804688 227.28662109 C79.94589382 231.26174836 88.33963353 234.89266101 97.34765625 237.42578125 C100.59190754 238.35681164 103.77451497 239.41656582 106.97241211 240.49389648 C110.43201348 241.64275688 113.91193023 242.72351872 117.39135742 243.81054688 C142.48032647 251.67919062 162.62531514 261.11599426 175.4375 285.3125 C186.47300067 307.68208091 188.36174912 333.02099643 189.70361328 357.53173828 C189.77177246 358.72782715 189.83993164 359.92391602 189.91015625 361.15625 C189.96437744 362.19974609 190.01859863 363.24324219 190.07446289 364.31835938 C190.33497862 367.84475376 190.86807479 371.31594323 191.39208984 374.81201172 C192.49433126 382.34973605 193.1361439 389.88141783 193.69140625 397.4765625 C193.79783331 398.88515346 193.90468992 400.29371203 194.01194763 401.70223999 C194.29015833 405.36982019 194.56292357 409.03778392 194.83435059 412.70587158 C195.1097557 416.41612841 195.38991537 420.12602555 195.66992188 423.8359375 C195.98603655 428.02442283 196.30143926 432.21294973 196.61317444 436.40176392 C198.15869549 457.13451753 201.2302312 473.98731267 209.29296875 493.21875 C212.99364892 502.07855534 216.1614177 510.94269112 218.81542969 520.16650391 C219.41874043 522.24778389 220.05377904 524.31695024 220.6953125 526.38671875 C224.78286482 539.92283624 227.16609095 553.84265892 229.75732422 567.72265625 C230.49224622 571.60144057 231.27512432 575.46804543 232.07543945 579.33374023 C233.71049883 587.23529786 235.07686271 595.15134671 236.3125 603.125 C240.93045512 636.61626309 240.93045512 636.61626309 250.8984375 668.69140625 C253.8008648 675.52021363 255.66730471 682.70313894 257.70751953 689.82763672 C258.33567373 691.96588201 259.01090128 694.07733877 259.71484375 696.19140625 C266.43914969 718.37443687 264.12610405 744.78160365 253.4375 765.3125 C253.00824219 766.24964844 252.57898437 767.18679688 252.13671875 768.15234375 C247.97680796 777.06978632 239.70859311 793.67695345 230.4375 798.3125 C226.19946287 798.98326847 222.14110637 799.43821636 218.4453125 796.99609375 C215.61124878 793.96540839 214.52863965 791.88971775 213.875 787.75 C214.90725343 781.44178457 218.28804358 777.03071959 222.25 772.1875 C235.15942012 755.83150386 241.16416462 735.16884969 239.04296875 714.4609375 C237.58375742 703.2676244 234.16671044 692.94784871 230.48828125 682.3125 C220.72698893 654.04401407 215.64121856 624.67054905 210.64216614 595.27285767 C209.53208261 588.77940731 208.32542283 582.30706424 207.09643555 575.83520508 C206.5391982 572.85618409 206.01324069 569.87612857 205.515625 566.88671875 C201.05151264 540.23334202 193.26125262 515.00989215 182.88354492 490.078125 C177.25974248 476.27196593 174.80335355 463.38025813 173.8125 448.625 C173.69374652 447.01680755 173.57336865 445.40873427 173.45141602 443.80078125 C173.27155284 441.42810465 173.09247038 439.0554184 172.91877747 436.68228149 C172.50536254 431.04691385 171.98471021 425.43015634 171.375 419.8125 C170.58476114 412.32244475 170.01885942 404.82596324 169.5 397.3125 C168.36842645 380.98938221 167.08331804 364.68213832 165.62243652 348.38513184 C165.44744991 346.4240112 165.27681622 344.46250358 165.10644531 342.50097656 C163.39661294 323.34559299 160.80310197 304.37032297 149.4375 288.3125 C148.97859375 287.6421875 148.5196875 286.971875 148.046875 286.28125 C137.61523122 272.61219953 118.00916871 268.75987212 102.4375 264 C44.91119475 246.37779247 44.91119475 246.37779247 35.46582031 229.58496094 C31.69547491 222.08797276 29.27335137 214.93683619 29.375 206.5 C29.38402344 205.52417969 29.39304687 204.54835938 29.40234375 203.54296875 C29.41974609 202.43888672 29.41974609 202.43888672 29.4375 201.3125 C28.72464844 201.66183594 28.01179688 202.01117188 27.27734375 202.37109375 C26.31957031 202.82613281 25.36179687 203.28117188 24.375 203.75 C23.43527344 204.20246094 22.49554687 204.65492188 21.52734375 205.12109375 C8.29686933 210.22260412 -9.41286166 208.82757003 -22.2734375 203.40625 C-23.02882813 203.0453125 -23.78421875 202.684375 -24.5625 202.3125 C-24.58828125 203.03953125 -24.6140625 203.7665625 -24.640625 204.515625 C-25.36833312 217.41590523 -28.64000179 226.84473801 -37.5625 236.3125 C-38.13484375 236.93769531 -38.7071875 237.56289063 -39.296875 238.20703125 C-55.23837245 253.8311095 -84.34485014 260.67499034 -105.453125 266.21484375 C-117.06283679 269.26899591 -128.34987968 272.26430009 -137.5625 280.3125 C-138.27664063 280.91835938 -138.99078125 281.52421875 -139.7265625 282.1484375 C-155.77269949 296.87242088 -159.16522773 322.10512682 -161.0625 342.6875 C-161.19190973 344.05518204 -161.32138684 345.42285772 -161.45092773 346.79052734 C-162.40528866 357.00243525 -163.17048093 367.22402985 -163.86328125 377.45703125 C-164.32451086 384.21404508 -164.8791089 390.94951518 -165.5625 397.6875 C-166.42786736 406.23901803 -167.01628557 414.79756828 -167.5625 423.375 C-169.29999509 450.25991918 -172.56480592 474.24479947 -182.37283325 499.45062256 C-194.39478191 530.46772644 -201.99999645 562.13842947 -206.88671875 595.01953125 C-209.31804285 611.35535159 -212.03981848 627.56115738 -215.625 643.6875 C-215.86444839 644.77788071 -215.86444839 644.77788071 -216.10873413 645.89028931 C-218.39265769 656.2209521 -221.27990233 666.25742011 -224.5625 676.3125 C-225.20082399 678.2967775 -225.83887659 680.28114235 -226.4765625 682.265625 C-227.33237094 684.91786018 -228.18977499 687.56946844 -229.0546875 690.21875 C-232.57613896 701.16726272 -235.09511585 711.18045959 -234.9375 722.75 C-234.92589844 723.84820068 -234.91429687 724.94640137 -234.90234375 726.07788086 C-234.50478981 745.76995545 -227.16116171 760.85211716 -214.77978516 775.84643555 C-211.01760387 780.65379053 -209.92676411 784.01626512 -210.18066406 790.13525391 C-210.75780508 793.42613855 -212.09645411 795.12045921 -214.5625 797.3125 C-217.84582344 799.61082641 -220.61928232 799.60750382 -224.5625 799.3125 C-241.87055077 789.70714559 -251.8324445 762.12111119 -257.04760742 744.26928711 C-261.34974903 727.91951707 -259.88168732 708.19007417 -254.5625 692.3125 C-253.78838909 689.91598021 -253.01637755 687.51884143 -252.24609375 685.12109375 C-250.9297717 681.03456523 -249.60949823 676.94938559 -248.27905273 672.86743164 C-238.43379084 642.61853923 -233.46051718 611.39990471 -228.3828125 580.05078125 C-225.57571163 562.91949841 -221.98338511 546.10161208 -217.5625 529.3125 C-217.20551025 527.95535889 -217.20551025 527.95535889 -216.84130859 526.57080078 C-213.55081721 514.33227266 -209.12749357 502.54015239 -204.52050781 490.74804688 C-196.14111359 469.21807311 -193.06092936 449.2687147 -191.81201172 426.30419922 C-191.5625 423.3125 -191.5625 423.3125 -191.07177734 420.95214844 C-190.35732002 417.2490264 -190.19462673 413.53141098 -189.984375 409.7734375 C-189.87759869 408.0024073 -189.77022912 406.2314128 -189.66235352 404.46044922 C-189.60588654 403.52166931 -189.54941956 402.5828894 -189.49124146 401.61566162 C-188.42900128 384.2139295 -187.09840797 366.84334505 -185.43981934 349.48809814 C-185.23284577 347.31816608 -185.02953147 345.14788131 -184.8302002 342.97723389 C-181.9575957 311.89280122 -176.41984147 281.5228184 -151.5625 260.3125 C-140.25673373 251.60465449 -126.93793475 248.07006636 -113.49169922 244.03466797 C-99.83993293 239.92125367 -86.50047278 235.26692881 -73.375 229.6875 C-72.52599121 229.32736816 -71.67698242 228.96723633 -70.80224609 228.59619141 C-57.78945468 223.28718607 -57.78945468 223.28718607 -49.78051758 212.37792969 C-46.50296518 203.14568392 -44.49474616 191.19273138 -48.62451172 181.93066406 C-51.34478482 177.39390259 -54.68365219 173.36044858 -58.03222656 169.27832031 C-79.07985521 142.24010942 -81.04842683 101.94033316 -77.68286133 69.4140625 C-75.3311055 50.94317455 -66.53373554 34.49754711 -53.5625 21.3125 C-53.02367187 20.68988281 -52.48484375 20.06726563 -51.9296875 19.42578125 C-38.97645561 4.94289635 -18.59285897 0.05900317 0 0 Z " fill="#060606" transform="translate(1406.5625,110.6875)"/>
<path d="M0 0 C1.01650635 0.00161133 2.0330127 0.00322266 3.08032227 0.00488281 C11.00326736 0.13382424 17.4903599 1.20355634 24.8125 4.375 C25.51632812 4.62894531 26.22015625 4.88289062 26.9453125 5.14453125 C37.23603055 9.3733081 46.25345038 19.45146866 50.8125 29.375 C51.94489259 32.17200969 52.99007907 34.97246067 53.953125 37.83203125 C54.77879182 40.3841903 54.77879182 40.3841903 55.859375 42.82421875 C57.84617968 48.14136406 57.98987903 53.58251736 58.05078125 59.203125 C58.0605751 59.94533798 58.07036896 60.68755096 58.08045959 61.45225525 C58.39654772 91.58448201 58.39654772 91.58448201 53.8125 105.375 C53.37216053 106.82414727 52.93206412 108.27336842 52.4921875 109.72265625 C46.08229857 129.95358883 33.86736087 149.16655939 15.125 160 C7.23493095 163.61628165 -1.55373611 163.82161555 -9.92578125 161.671875 C-12.18898501 160.74939471 -14.13601039 159.69974734 -16.1875 158.375 C-16.82429688 157.97410156 -17.46109375 157.57320312 -18.1171875 157.16015625 C-34.58753573 145.74997524 -44.05642467 129.64597137 -51.1875 111.375 C-51.6 110.323125 -52.0125 109.27125 -52.4375 108.1875 C-56.88966348 95.87857745 -57.51722619 83.23208179 -57.4375 70.25 C-57.44523437 68.98285156 -57.45296875 67.71570313 -57.4609375 66.41015625 C-57.42319182 48.08462773 -53.25571104 29.98958291 -40.78515625 15.875 C-28.93630254 4.75040385 -16.04185692 -0.02641722 0 0 Z " fill="#FCFCFB" transform="translate(1408.1875,133.625)"/>
<path d="M0 0 C0.33 0 0.66 0 1 0 C1.33 8.91 1.66 17.82 2 27 C1.34 27.33 0.68 27.66 0 28 C-0.33 26.68 -0.66 25.36 -1 24 C-1.99 24.33 -2.98 24.66 -4 25 C-4.10920422 17.25863399 -3.97159933 9.68604474 -3 2 C-2.67 2 -2.34 2 -2 2 C-1.67 3.65 -1.34 5.3 -1 7 C-0.67 4.69 -0.34 2.38 0 0 Z " fill="#F1F1ED" transform="translate(1241,537)"/>
<path d="M0 0 C0.66 0 1.32 0 2 0 C2.22523024 3.62415933 2.42731308 7.24924219 2.625 10.875 C2.68945312 11.90753906 2.75390625 12.94007813 2.8203125 14.00390625 C2.871875 14.99003906 2.9234375 15.97617187 2.9765625 16.9921875 C3.02893066 17.90339355 3.08129883 18.81459961 3.13525391 19.75341797 C3 22 3 22 1 24 C0.13441614 20.71122636 -0.71550842 17.4186065 -1.5625 14.125 C-1.80935547 13.18785156 -2.05621094 12.25070312 -2.31054688 11.28515625 C-2.53935547 10.38925781 -2.76816406 9.49335938 -3.00390625 8.5703125 C-3.21861572 7.74289551 -3.4333252 6.91547852 -3.65454102 6.06298828 C-4 4 -4 4 -3 2 C-2.34 2 -1.68 2 -1 2 C-0.67 1.34 -0.34 0.68 0 0 Z " fill="#EDECEC" transform="translate(1320,502)"/>
<path d="M0 0 C0 4.95 0 9.9 0 15 C-0.99 15.495 -0.99 15.495 -2 16 C-2.67305018 14.39850114 -3.33822227 12.79368971 -4 11.1875 C-4.37125 10.29417969 -4.7425 9.40085937 -5.125 8.48046875 C-6 6 -6 6 -6 3 C-1.66666667 0 -1.66666667 0 0 0 Z " fill="#ECEDEB" transform="translate(1614,581)"/>
<path d="M0 0 C0.99 0.33 1.98 0.66 3 1 C1.86963623 4.12586629 0.69300427 7.13325156 -1 10 C-3.75 11.0625 -3.75 11.0625 -6 11 C-6 8.36 -6 5.72 -6 3 C-4.02 3 -2.04 3 0 3 C0 2.01 0 1.02 0 0 Z " fill="#F5F6EE" transform="translate(1298,667)"/>
<path d="M0 0 C0.66 0.99 1.32 1.98 2 3 C1.34 3 0.68 3 0 3 C-0.33 4.65 -0.66 6.3 -1 8 C-1.99 8.33 -2.98 8.66 -4 9 C-5.20882096 11.00016466 -5.20882096 11.00016466 -6 13 C-8.31 12.67 -10.62 12.34 -13 12 C-10.88536223 10.35528173 -8.87780336 8.93584677 -6.5 7.6875 C-3.39829092 5.59384637 -1.90906175 3.18176959 0 0 Z " fill="#1F2021" transform="translate(1356,325)"/>
<path d="M0 0 C1.4606285 2.64738916 2 3.89448334 2 7 C1.01 7 0.02 7 -1 7 C-0.979375 8.216875 -0.95875 9.43375 -0.9375 10.6875 C-0.93175884 13.91977322 -1.21233685 16.84934741 -2 20 C-2.33 20 -2.66 20 -3 20 C-3.08139142 17.60347472 -3.14067009 15.20974564 -3.1875 12.8125 C-3.22520508 11.80219727 -3.22520508 11.80219727 -3.26367188 10.77148438 C-3.32923478 6.29135252 -2.66743649 3.60559001 0 0 Z " fill="#EEF0ED" transform="translate(1514,724)"/>
<path d="M0 0 C0 1.32 0 2.64 0 4 C-2.31 4 -4.62 4 -7 4 C-7 3.34 -7 2.68 -7 2 C-12.61 2 -18.22 2 -24 2 C-24 1.67 -24 1.34 -24 1 C-21.125109 0.8312433 -18.25011104 0.66492885 -15.375 0.5 C-14.56675781 0.45230469 -13.75851562 0.40460938 -12.92578125 0.35546875 C-8.61012369 0.10986222 -4.32496331 -0.05598658 0 0 Z " fill="#C5C8C2" transform="translate(1424,317)"/>
<path d="M0 0 C0.33 0.99 0.66 1.98 1 3 C-0.28062485 4.7074998 -1.61767557 6.37373596 -3 8 C-3.33 8.99 -3.66 9.98 -4 11 C-4.99 11 -5.98 11 -7 11 C-7 11.66 -7 12.32 -7 13 C-8.32267727 14.01405257 -9.65724831 15.01268258 -11 16 C-11.66 16.99 -12.32 17.98 -13 19 C-13.99 18.34 -14.98 17.68 -16 17 C-15.34773438 16.443125 -14.69546875 15.88625 -14.0234375 15.3125 C-8.63038449 10.60352156 -3.99126642 5.95445031 0 0 Z " fill="#1E1E1B" transform="translate(1447,270)"/>
<path d="M0 0 C0.99 0.33 1.98 0.66 3 1 C2.67 2.32 2.34 3.64 2 5 C3.98 5 5.96 5 8 5 C8.33 5.99 8.66 6.98 9 8 C9.33 8.66 9.66 9.32 10 10 C9.01 11.485 9.01 11.485 8 13 C6.948125 11.63875 6.948125 11.63875 5.875 10.25 C3.25361695 7.08030474 0.50747509 5.12079889 -3 3 C-2.01 2.01 -1.02 1.02 0 0 Z " fill="#101116" transform="translate(1547,385)"/>
<path d="M0 0 C0.33 0 0.66 0 1 0 C1 3.63 1 7.26 1 11 C0.34 10.34 -0.32 9.68 -1 9 C-3.10820797 9.3185177 -3.10820797 9.3185177 -5 10 C-5 8.35 -5 6.7 -5 5 C-4.01 4.67 -3.02 4.34 -2 4 C-0.79117904 1.99983534 -0.79117904 1.99983534 0 0 Z " fill="#EEEFEC" transform="translate(1641,672)"/>
<path d="M0 0 C2.94721162 2.74395564 5.19168608 5.38337216 7 9 C6.67 9.66 6.34 10.32 6 11 C5.34 11 4.68 11 4 11 C4 10.34 4 9.68 4 9 C3.34 9 2.68 9 2 9 C2 8.01 2 7.02 2 6 C1.01 6 0.02 6 -1 6 C-0.67 4.02 -0.34 2.04 0 0 Z " fill="#171918" transform="translate(1366,265)"/>
<path d="M0 0 C0 0.33 0 0.66 0 1 C-1.98 1 -3.96 1 -6 1 C-6.2475 1.639375 -6.495 2.27875 -6.75 2.9375 C-8 5 -8 5 -10.125 5.75 C-11.053125 5.87375 -11.053125 5.87375 -12 6 C-11.67 7.32 -11.34 8.64 -11 10 C-11.99 10 -12.98 10 -14 10 C-13.78466133 6.23157335 -13.00263823 5.00282667 -10.375 2.1875 C-7.01429352 -0.42275746 -4.21547257 -0.42154726 0 0 Z " fill="#242527" transform="translate(1522,470)"/>
<path d="M0 0 C0.66 0 1.32 0 2 0 C2.22151549 1.79008467 2.42682213 3.58218162 2.625 5.375 C2.74101563 6.37273438 2.85703125 7.37046875 2.9765625 8.3984375 C2.98429687 9.25695312 2.99203125 10.11546875 3 11 C2.34 11.66 1.68 12.32 1 13 C0.01 10.03 -0.98 7.06 -2 4 C-1.34 4 -0.68 4 0 4 C0 2.68 0 1.36 0 0 Z " fill="#E9EBE8" transform="translate(1616,768)"/>
<path d="M0 0 C0.99 0.33 1.98 0.66 3 1 C3 1.99 3 2.98 3 4 C1.68 4.33 0.36 4.66 -1 5 C-1 5.99 -1 6.98 -1 8 C-2.65 8 -4.3 8 -6 8 C-4.26440562 4.942048 -2.61527381 2.36620011 0 0 Z " fill="#1B1A19" transform="translate(1248,378)"/>
<path d="M0 0 C1.51953125 1.26953125 1.51953125 1.26953125 3 3 C2.6875 6.6875 2.6875 6.6875 2 10 C1.34 10 0.68 10 0 10 C-0.33 11.65 -0.66 13.3 -1 15 C-2.20220203 11.46905698 -1.79532349 8.87101018 -1.0625 5.25 C-0.86785156 4.26515625 -0.67320313 3.2803125 -0.47265625 2.265625 C-0.31667969 1.51796875 -0.16070313 0.7703125 0 0 Z " fill="#E1DFE0" transform="translate(1295,752)"/>
<path d="M0 0 C0.99 0.66 1.98 1.32 3 2 C3.33 1.67 3.66 1.34 4 1 C4.66 1 5.32 1 6 1 C6.66 2.65 7.32 4.3 8 6 C3.71 5.01 -0.58 4.02 -5 3 C-3.68 2.34 -2.36 1.68 -1 1 C-0.67 0.67 -0.34 0.34 0 0 Z " fill="#242327" transform="translate(1511,371)"/>
<path d="M0 0 C0.99 0 1.98 0 3 0 C3 0.66 3 1.32 3 2 C3.66 2.33 4.32 2.66 5 3 C4.6875 4.9375 4.6875 4.9375 4 7 C1 8 1 8 -2 8 C-1.34 5.36 -0.68 2.72 0 0 Z " fill="#E8E9E5" transform="translate(1380,325)"/>
<path d="M0 0 C1.43410153 3.78819273 0.51009497 6.06521279 -0.9375 9.75 C-1.31777344 10.73484375 -1.69804688 11.7196875 -2.08984375 12.734375 C-2.39019531 13.48203125 -2.69054688 14.2296875 -3 15 C-3.99 14.34 -4.98 13.68 -6 13 C-5.34 13 -4.68 13 -4 13 C-4.020625 12.05125 -4.04125 11.1025 -4.0625 10.125 C-4 7 -4 7 -3 5 C-2.34 5 -1.68 5 -1 5 C-0.67 3.35 -0.34 1.7 0 0 Z " fill="#D6D6D3" transform="translate(1359,312)"/>
<path d="M0 0 C0.66 0 1.32 0 2 0 C2 0.66 2 1.32 2 2 C2.66 2 3.32 2 4 2 C5.03038433 5.9414002 4.87693282 8.83615152 4.0625 12.8125 C3.77052734 14.27623047 3.77052734 14.27623047 3.47265625 15.76953125 C3.31667969 16.50558594 3.16070313 17.24164063 3 18 C2.67 18 2.34 18 2 18 C1.93941406 16.95199219 1.87882812 15.90398437 1.81640625 14.82421875 C1.73198262 13.44529952 1.64733553 12.06639395 1.5625 10.6875 C1.52318359 9.99720703 1.48386719 9.30691406 1.44335938 8.59570312 C1.25072585 5.52838465 0.97677283 2.93031848 0 0 Z " fill="#383A3C" transform="translate(1358,292)"/>
<path d="M0 0 C1.98 0.495 1.98 0.495 4 1 C3.25 6.75 3.25 6.75 1 9 C-0.61949011 6.42786866 -1.04408751 5.32330841 -0.625 2.25 C-0.41875 1.5075 -0.2125 0.765 0 0 Z " fill="#EDEDEA" transform="translate(1250,650)"/>
<path d="M0 0 C-0.99 0.33 -1.98 0.66 -3 1 C-3.66 1.66 -4.32 2.32 -5 3 C-6.64991582 3.70710678 -8.31562256 4.37943989 -10 5 C-10 4.34 -10 3.68 -10 3 C-11.32 2.67 -12.64 2.34 -14 2 C-12.42085985 1.46658816 -10.83645613 0.94874237 -9.25 0.4375 C-8.36828125 0.14746094 -7.4865625 -0.14257812 -6.578125 -0.44140625 C-3.92165684 -1.01697435 -2.52968894 -0.89248371 0 0 Z " fill="#2A2A2A" transform="translate(1299,355)"/>
<path d="M0 0 C0.99 0 1.98 0 3 0 C3.28875 0.78375 3.5775 1.5675 3.875 2.375 C4.84912254 5.09671632 4.84912254 5.09671632 7 7 C6.67 7.66 6.34 8.32 6 9 C6.66 9 7.32 9 8 9 C7.67 9.99 7.34 10.98 7 12 C3.6497537 8.18765077 1.83025211 4.66714289 0 0 Z " fill="#252627" transform="translate(1342,268)"/>
<path d="M0 0 C0.93065133 2.60582371 1.14917407 3.64198224 0.0625 6.25 C-0.4634375 7.11625 -0.4634375 7.11625 -1 8 C-1.99 7.67 -2.98 7.34 -4 7 C-3.6875 4.625 -3.6875 4.625 -3 2 C-2.01 1.34 -1.02 0.68 0 0 Z " fill="#0E100E" transform="translate(1645,733)"/>
<path d="M0 0 C0.103125 0.639375 0.20625 1.27875 0.3125 1.9375 C0.539375 2.618125 0.76625 3.29875 1 4 C1.99 4.33 2.98 4.66 4 5 C3.67 6.98 3.34 8.96 3 11 C0.35534962 7.8745041 -0.84414715 4.91211733 -2 1 C-1.34 0.67 -0.68 0.34 0 0 Z " fill="#E7E8E5" transform="translate(1591,714)"/>
<path d="M0 0 C1.35384615 6.4 1.35384615 6.4 -0.4375 9.4375 C-0.953125 9.953125 -1.46875 10.46875 -2 11 C-2.66 8.03 -3.32 5.06 -4 2 C-1 0 -1 0 0 0 Z " fill="#E3E2E0" transform="translate(1657,765)"/>
<path d="M0 0 C0 2.64 0 5.28 0 8 C-1.32 8.33 -2.64 8.66 -4 9 C-3.4140625 2.84765625 -3.4140625 2.84765625 -3 1 C-1 0 -1 0 0 0 Z " fill="#E7E8E3" transform="translate(1307,1092)"/>
<path d="M0 0 C2.78637633 4.1795645 1.79562512 6.14668677 1 11 C0.01 11 -0.98 11 -2 11 C-1.125 3.375 -1.125 3.375 0 0 Z " fill="#171817" transform="translate(1530,700)"/>
<path d="M0 0 C1.33333333 2.66666667 2.66666667 5.33333333 4 8 C3.01 7.67 2.02 7.34 1 7 C0.34 8.65 -0.32 10.3 -1 12 C-2.09898702 8.70303895 -1.87124444 7.59505097 -1.0625 4.3125 C-0.86785156 3.50425781 -0.67320313 2.69601562 -0.47265625 1.86328125 C-0.31667969 1.24839844 -0.16070313 0.63351562 0 0 Z " fill="#DADBD8" transform="translate(1508,1207)"/>
<path d="M0 0 C1.32 0.33 2.64 0.66 4 1 C3.6875 2.875 3.6875 2.875 3 5 C2.01 5.66 1.02 6.32 0 7 C-0.66 7.99 -1.32 8.98 -2 10 C-1.125 2.25 -1.125 2.25 0 0 Z " fill="#DBDCDD" transform="translate(1524,979)"/>
<path d="M0 0 C0 0.99 0 1.98 0 3 C0.66 3.33 1.32 3.66 2 4 C-0.31 4.33 -2.62 4.66 -5 5 C-5 4.34 -5 3.68 -5 3 C-5.99 2.67 -6.98 2.34 -8 2 C-2.25 0 -2.25 0 0 0 Z " fill="#EBEBE7" transform="translate(1287,381)"/>
<path d="M0 0 C0.33 0.66 0.66 1.32 1 2 C1.99 1.67 2.98 1.34 4 1 C4 2.65 4 4.3 4 6 C2.35 6.33 0.7 6.66 -1 7 C-0.67 4.69 -0.34 2.38 0 0 Z " fill="#E4E4E5" transform="translate(1201,694)"/>
<path d="M0 0 C1.98 0 3.96 0 6 0 C5.34 1.98 4.68 3.96 4 6 C2.68 5.67 1.36 5.34 0 5 C0 3.33333333 0 1.66666667 0 0 Z " fill="#F0F0ED" transform="translate(1230,394)"/>
<path d="M0 0 C0.33 1.32 0.66 2.64 1 4 C0.01 5.485 0.01 5.485 -1 7 C-3.625 7.1875 -3.625 7.1875 -6 7 C-4.02 4.69 -2.04 2.38 0 0 Z " fill="#1C1C1B" transform="translate(1255,371)"/>
<path d="M0 0 C0.66 0.33 1.32 0.66 2 1 C-0.97 4.96 -0.97 4.96 -4 9 C-4.66 8.67 -5.32 8.34 -6 8 C-6 7.34 -6 6.68 -6 6 C-5.34 6 -4.68 6 -4 6 C-3.71125 5.38125 -3.4225 4.7625 -3.125 4.125 C-2 2 -2 2 0 0 Z " fill="#141618" transform="translate(1374,337)"/>
<path d="M0 0 C0.86625 0.2784375 0.86625 0.2784375 1.75 0.5625 C4.20692525 1.04023546 5.64397534 0.75729364 8 0 C8.33 0.99 8.66 1.98 9 3 C5.7 3 2.4 3 -1 3 C-0.67 2.01 -0.34 1.02 0 0 Z " fill="#191C1C" transform="translate(1397,315)"/>
<path d="M0 0 C1.32 0.66 2.64 1.32 4 2 C4 2.66 4 3.32 4 4 C3.34 4 2.68 4 2 4 C1.71125 4.639375 1.4225 5.27875 1.125 5.9375 C0 8 0 8 -2 9 C-1.34 6.03 -0.68 3.06 0 0 Z " fill="#272723" transform="translate(1461,239)"/>
<path d="M0 0 C1.9451 2.91765 2.45276317 4.62537285 3 8 C1.35 7.67 -0.3 7.34 -2 7 C-1.34 4.69 -0.68 2.38 0 0 Z " fill="#252526" transform="translate(1480,156)"/>
<path d="M0 0 C0.99 0.33 1.98 0.66 3 1 C2.01 3.31 1.02 5.62 0 8 C-0.99 7.67 -1.98 7.34 -3 7 C-2.67 5.68 -2.34 4.36 -2 3 C-1.34 3 -0.68 3 0 3 C0 2.01 0 1.02 0 0 Z " fill="#EFEDEA" transform="translate(1298,667)"/>
<path d="M0 0 C0.99 0.33 1.98 0.66 3 1 C3 3.31 3 5.62 3 8 C2.34 8 1.68 8 1 8 C0.34 5.69 -0.32 3.38 -1 1 C-0.67 0.67 -0.34 0.34 0 0 Z " fill="#EAEBE7" transform="translate(1512,654)"/>
<path d="M0 0 C0.33 1.32 0.66 2.64 1 4 C0.34 4 -0.32 4 -1 4 C-1 4.66 -1 5.32 -1 6 C-2.32 6.33 -3.64 6.66 -5 7 C-5 5.68 -5 4.36 -5 3 C-2.5 1.25 -2.5 1.25 0 0 Z " fill="#151514" transform="translate(1430,288)"/>
<path d="M0 0 C0.33 1.32 0.66 2.64 1 4 C-0.98 5.32 -2.96 6.64 -5 8 C-4.1875 4.5625 -4.1875 4.5625 -3 1 C-2.01 0.67 -1.02 0.34 0 0 Z " fill="#E4E4E3" transform="translate(1482,257)"/>
<path d="M0 0 C0.66 0.33 1.32 0.66 2 1 C1.01 2.98 0.02 4.96 -1 7 C-1.99 7 -2.98 7 -4 7 C-4.33 6.34 -4.66 5.68 -5 5 C-3.35 3.35 -1.7 1.7 0 0 Z " fill="#232726" transform="translate(1403,814)"/>
<path d="M0 0 C2.15550181 3.23325272 2 4.31199218 2 8 C1.01 8 0.02 8 -1 8 C-1.33 8.99 -1.66 9.98 -2 11 C-3 9 -3 9 -2.44140625 6.8359375 C-2.15136719 6.02382813 -1.86132812 5.21171875 -1.5625 4.375 C-1.27503906 3.55773437 -0.98757813 2.74046875 -0.69140625 1.8984375 C-0.46324219 1.27195312 -0.23507812 0.64546875 0 0 Z " fill="#2B2A29" transform="translate(1288,695)"/>
<path d="M0 0 C0.99 0 1.98 0 3 0 C5 3 5 3 4.625 5.1875 C4.41875 5.785625 4.2125 6.38375 4 7 C4 6.34 4 5.68 4 5 C3.01 5.33 2.02 5.66 1 6 C0.34 4.35 -0.32 2.7 -1 1 C-0.67 0.67 -0.34 0.34 0 0 Z " fill="#EDEEEC" transform="translate(1582,394)"/>
<path d="M0 0 C2.64 0.99 5.28 1.98 8 3 C8 3.66 8 4.32 8 5 C5.36 4.67 2.72 4.34 0 4 C0 2.68 0 1.36 0 0 Z " fill="#161817" transform="translate(1472,336)"/>
<path d="M0 0 C0.99 0 1.98 0 3 0 C3.33 0.99 3.66 1.98 4 3 C1.525 4.485 1.525 4.485 -1 6 C-1.66 5.34 -2.32 4.68 -3 4 C-1.6875 2 -1.6875 2 0 0 Z " fill="#151616" transform="translate(1269,385)"/>
<path d="M0 0 C1.12758089 3.38274266 0.81750262 4.76778223 0.0625 8.1875 C-0.13214844 9.08855469 -0.32679687 9.98960937 -0.52734375 10.91796875 C-0.68332031 11.60503906 -0.83929687 12.29210937 -1 13 C-1.33 13 -1.66 13 -2 13 C-3.46845421 7.52667068 -2.44038726 4.88077452 0 0 Z " fill="#2E2E2D" transform="translate(1486,230)"/>
<path d="M0 0 C0.99 0 1.98 0 3 0 C2.67 1.65 2.34 3.3 2 5 C1.01 5.33 0.02 5.66 -1 6 C-1.042721 4.33388095 -1.04063832 2.66617115 -1 1 C-0.67 0.67 -0.34 0.34 0 0 Z " fill="#E4E7E6" transform="translate(1484,1200)"/>
<path d="M0 0 C0.99 1.32 1.98 2.64 3 4 C1.625 5.5 1.625 5.5 0 7 C-0.66 7 -1.32 7 -2 7 C-2 5.68 -2 4.36 -2 3 C-1.34 3 -0.68 3 0 3 C0 2.01 0 1.02 0 0 Z " fill="#E9E9E8" transform="translate(1496,679)"/>
<path d="M0 0 C0.33 1.32 0.66 2.64 1 4 C1.99 4.33 2.98 4.66 4 5 C2.625 7 2.625 7 1 9 C0.34 9 -0.32 9 -1 9 C-0.67 6.03 -0.34 3.06 0 0 Z " fill="#D5D5D5" transform="translate(1293,573)"/>
<path d="M0 0 C0.99 0 1.98 0 3 0 C3 0.66 3 1.32 3 2 C4.32 1.34 5.64 0.68 7 0 C7 1.32 7 2.64 7 4 C1.25 3.25 1.25 3.25 -1 1 C-0.67 0.67 -0.34 0.34 0 0 Z " fill="#2A2D2E" transform="translate(1487,365)"/>
<path d="M0 0 C2.00720923 0.28674418 4.0085944 0.61866701 6 1 C6.33 1.99 6.66 2.98 7 4 C1.25 3.25 1.25 3.25 -1 1 C-0.67 0.67 -0.34 0.34 0 0 Z " fill="#282829" transform="translate(1389,313)"/>
<path d="M0 0 C0.99 0.33 1.98 0.66 3 1 C3.6875 3.0625 3.6875 3.0625 4 5 C3.01 5.33 2.02 5.66 1 6 C0.34 4.35 -0.32 2.7 -1 1 C-0.67 0.67 -0.34 0.34 0 0 Z " fill="#E2E3DE" transform="translate(1454,158)"/>
<path d="M0 0 C2.40914637 3.61371956 2 5.77800155 2 10 C1.34 10 0.68 10 0 10 C-1.125 2.25 -1.125 2.25 0 0 Z " fill="#E4E4E3" transform="translate(1301,729)"/>
<path d="M0 0 C0.99 0.33 1.98 0.66 3 1 C3 2.65 3 4.3 3 6 C1.68 6 0.36 6 -1 6 C-0.67 4.02 -0.34 2.04 0 0 Z " fill="#E3E1E1" transform="translate(1217,626)"/>
<path d="M0 0 C0.99 0.33 1.98 0.66 3 1 C2.67 2.65 2.34 4.3 2 6 C0.35 4.68 -1.3 3.36 -3 2 C-2.01 1.34 -1.02 0.68 0 0 Z " fill="#212124" transform="translate(1547,385)"/>
<path d="M0 0 C0.99 0.33 1.98 0.66 3 1 C2.67 3.31 2.34 5.62 2 8 C0.4375 6.8125 0.4375 6.8125 -1 5 C-0.6875 2.3125 -0.6875 2.3125 0 0 Z " fill="#131518" transform="translate(1350,276)"/>
<path d="M0 0 C2.475 0.495 2.475 0.495 5 1 C4.67 2.98 4.34 4.96 4 7 C1 5 1 5 0.3125 2.375 C0.209375 1.59125 0.10625 0.8075 0 0 Z " fill="#EBEAE8" transform="translate(1270,738)"/>
<path d="M0 0 C0 0.33 0 0.66 0 1 C-1.98 1 -3.96 1 -6 1 C-6.66 2.32 -7.32 3.64 -8 5 C-8.66 4.67 -9.32 4.34 -10 4 C-9.67 3.01 -9.34 2.02 -9 1 C-6.04335481 -0.4783226 -3.25770263 -0.06032783 0 0 Z " fill="#474847" transform="translate(1522,470)"/>
<path d="M0 0 C0.66 0 1.32 0 2 0 C2 0.66 2 1.32 2 2 C2.66 2.33 3.32 2.66 4 3 C1.36 3.66 -1.28 4.32 -4 5 C-3.67 4.01 -3.34 3.02 -3 2 C-2.34 2 -1.68 2 -1 2 C-0.67 1.34 -0.34 0.68 0 0 Z " fill="#181A1C" transform="translate(1341,359)"/>
<path d="M0 0 C0.99 0 1.98 0 3 0 C4.0625 1.8125 4.0625 1.8125 5 4 C4.67 4.99 4.34 5.98 4 7 C0 2.25 0 2.25 0 0 Z " fill="#212325" transform="translate(1442,338)"/>
</svg>
