<?xml version="1.0" standalone="no"?>
<!DOCTYPE svg PUBLIC "-//W3C//DTD SVG 20010904//EN"
 "http://www.w3.org/TR/2001/REC-SVG-20010904/DTD/svg10.dtd">
<svg version="1.0" xmlns="http://www.w3.org/2000/svg"
 width="2048.000000pt" height="2048.000000pt" viewBox="0 0 2048.000000 2048.000000"
 preserveAspectRatio="xMidYMid meet">

<g transform="translate(0.000000,2048.000000) scale(0.100000,-0.100000)"
fill="#000000" stroke="none">
<path d="M8055 16403 c-253 -30 -412 -76 -615 -178 -381 -190 -675 -492 -814
-838 -126 -313 -139 -655 -40 -1067 30 -125 79 -227 150 -313 127 -153 144
-215 126 -471 -18 -255 -16 -331 9 -383 45 -94 133 -137 264 -131 42 2 70 -1
72 -8 16 -49 162 -270 374 -566 75 -104 186 -158 323 -158 144 0 288 79 509
279 62 56 110 91 129 95 66 13 236 1 255 -18 4 -3 -3 -37 -15 -74 -44 -139
-57 -229 -57 -402 1 -130 6 -190 24 -280 49 -249 156 -496 328 -758 30 -46 53
-85 52 -86 -22 -19 -505 -244 -624 -291 -38 -15 -83 -33 -100 -40 -43 -18
-285 -99 -385 -129 -428 -125 -597 -178 -1040 -321 -563 -183 -1167 -338
-1500 -384 -271 -38 -538 -55 -1220 -81 -427 -16 -692 -42 -1017 -97 -266 -45
-388 -38 -838 48 -183 35 -208 33 -292 -25 -94 -65 -137 -208 -98 -327 60
-180 208 -303 433 -359 30 -8 65 -31 120 -80 134 -121 230 -158 577 -224 239
-46 493 -143 631 -241 35 -25 128 -108 206 -184 265 -255 365 -325 526 -366
97 -24 227 -22 293 6 107 44 161 94 325 302 141 177 215 239 366 305 172 75
399 117 789 143 l174 12 85 -57 c98 -65 421 -231 534 -275 106 -41 236 -76
396 -106 74 -14 168 -32 207 -40 85 -17 158 -52 213 -101 21 -19 80 -103 132
-185 110 -178 185 -270 267 -328 187 -131 394 -156 570 -69 98 47 180 137 315
341 132 200 215 290 328 354 81 46 213 93 328 117 133 27 643 97 651 89 3 -5
17 -39 29 -78 53 -164 166 -428 290 -675 167 -333 232 -482 316 -720 92 -260
214 -700 214 -772 0 -39 -39 -85 -99 -117 -71 -37 -157 -60 -358 -96 -255 -45
-458 -97 -788 -200 -77 -24 -192 -60 -255 -79 -207 -62 -273 -117 -286 -234
-14 -125 122 -235 328 -265 81 -12 60 -14 653 73 220 32 206 33 220 -23 26
-103 112 -153 260 -151 77 1 115 9 262 52 121 36 204 54 280 62 286 29 330 40
420 100 168 112 236 351 206 723 -7 84 -19 249 -28 367 -40 563 -82 953 -136
1275 -35 209 -128 666 -159 784 -34 130 -36 151 -14 151 8 0 84 23 167 50 154
52 294 117 447 209 47 28 88 51 91 51 6 0 24 -22 156 -198 89 -119 106 -161
168 -404 70 -277 112 -415 180 -592 58 -152 177 -429 243 -566 69 -144 179
-402 226 -532 132 -365 296 -1008 296 -1159 0 -28 -4 -59 -10 -69 -14 -27 -92
-53 -280 -94 -180 -39 -224 -52 -348 -103 -212 -87 -756 -352 -817 -398 -100
-77 -113 -238 -27 -328 78 -82 282 -133 578 -144 208 -8 388 11 1042 107 553
82 598 95 718 214 135 135 151 227 115 667 -47 571 -141 1276 -222 1664 -80
385 -131 592 -325 1330 -38 144 -40 156 -21 133 24 -31 243 -200 367 -283 303
-203 625 -328 943 -365 145 -17 410 -8 538 19 184 39 432 139 551 223 283 197
454 388 572 638 128 271 179 516 179 860 1 308 -42 557 -149 877 -56 167 -218
500 -346 713 -280 464 -445 706 -640 934 -303 355 -715 719 -1128 996 -102 68
-119 79 -250 161 -385 239 -899 506 -1205 626 -198 78 -588 211 -711 244 -415
108 -820 159 -1255 159 -369 0 -819 -44 -1134 -110 -128 -27 -323 -37 -396
-20 -70 16 -158 60 -228 115 -134 103 -181 171 -187 268 -28 462 -42 562 -110
764 -183 551 -540 917 -1044 1071 -136 42 -380 63 -525 45z m368 -224 c71 -12
191 -52 277 -92 185 -85 411 -279 522 -447 185 -281 288 -623 288 -963 1 -220
25 -312 113 -429 75 -100 180 -184 300 -243 208 -100 361 -108 757 -35 145 26
270 43 550 72 179 19 721 16 920 -5 365 -38 694 -109 1045 -226 284 -94 690
-269 948 -407 78 -42 171 -92 207 -112 267 -144 643 -383 850 -541 263 -201
412 -330 619 -540 291 -296 492 -554 699 -902 l22 -36 -23 -20 c-74 -69 -254
-166 -437 -238 -119 -46 -472 -155 -501 -155 -14 0 -84 27 -154 60 -119 56
-391 147 -680 229 -274 77 -322 89 -810 197 -33 7 -100 22 -150 34 -359 84
-656 118 -798 91 -76 -15 -183 -48 -219 -69 -15 -9 -29 -14 -31 -11 -21 23
-154 251 -206 354 -115 224 -173 403 -191 580 -10 110 -14 120 -55 145 -48 30
-81 26 -121 -14 -39 -39 -41 -62 -23 -206 30 -247 151 -553 323 -820 80 -124
97 -153 94 -159 -2 -5 -41 -39 -88 -76 -47 -37 -123 -102 -170 -144 -191 -171
-359 -301 -515 -396 -44 -27 -87 -55 -96 -62 -8 -7 -18 -13 -21 -13 -3 0 -29
38 -58 85 -54 87 -156 206 -244 285 -371 333 -458 424 -579 611 -81 124 -132
230 -176 360 -70 206 -96 394 -81 581 11 127 15 148 52 276 33 114 32 140 -9
178 -38 35 -113 34 -142 -2 -24 -31 -61 -142 -87 -264 -29 -131 -26 -477 4
-617 61 -284 205 -577 402 -818 72 -88 242 -255 422 -414 75 -66 140 -125 143
-131 20 -33 -438 103 -610 180 -320 143 -561 299 -788 509 -55 50 -109 94
-122 97 -38 9 -94 -21 -110 -60 -27 -65 -23 -73 102 -196 158 -155 366 -303
608 -433 262 -142 540 -238 1000 -345 l40 -9 -135 -65 c-74 -36 -175 -83 -225
-106 -49 -22 -208 -97 -353 -166 -145 -69 -265 -126 -267 -126 -3 0 -37 -16
-77 -36 -111 -54 -220 -96 -228 -87 -9 9 -120 227 -213 418 -109 220 -229 403
-386 588 -205 241 -232 276 -313 400 -131 204 -214 385 -270 595 -29 110 -31
128 -32 297 -1 169 1 186 28 281 15 56 32 107 36 113 5 10 23 8 76 -8 63 -18
159 -39 259 -56 91 -15 289 -102 320 -141 6 -7 28 -24 49 -38 53 -36 96 -34
135 5 57 57 35 134 -56 200 -140 100 -251 145 -457 185 -141 27 -243 57 -373
110 -45 19 -114 39 -155 46 -40 6 -75 13 -77 15 -2 1 29 37 68 79 243 261 331
457 319 717 -7 147 -32 187 -116 187 -33 0 -45 -6 -66 -31 -25 -29 -26 -36
-26 -148 0 -65 -4 -143 -10 -172 -24 -130 -120 -266 -386 -546 -326 -344 -484
-463 -613 -463 -74 0 -103 20 -167 113 -30 45 -92 132 -137 194 -45 62 -113
166 -150 233 -103 181 -139 204 -302 198 l-70 -3 2 85 c1 47 3 186 5 310 l3
225 -36 75 c-20 41 -67 113 -104 160 -77 96 -115 171 -144 286 -90 358 -76
680 42 962 115 272 416 569 722 713 82 39 249 96 340 118 123 29 388 34 528
10z m4807 -4909 c120 -15 328 -55 520 -100 91 -22 233 -53 315 -70 311 -64
768 -187 1005 -269 198 -69 223 -78 391 -151 315 -137 517 -252 797 -453 93
-66 133 -75 179 -41 35 26 51 81 34 121 -6 16 -42 52 -79 80 -97 74 -368 252
-445 293 -68 36 -82 50 -48 50 27 0 211 66 326 117 136 61 255 126 348 191 92
64 83 68 152 -63 27 -49 61 -112 77 -140 52 -89 155 -308 191 -405 58 -156
117 -389 142 -560 69 -471 -27 -954 -252 -1267 -144 -201 -283 -319 -514 -434
-222 -112 -423 -155 -684 -146 -286 9 -499 67 -788 215 -265 135 -624 429
-867 712 -329 381 -385 440 -527 552 -106 84 -169 118 -236 129 -109 18 -214
-22 -342 -130 -182 -154 -372 -302 -460 -359 -415 -270 -678 -346 -1445 -417
-412 -38 -980 -109 -1170 -146 -211 -40 -380 -102 -505 -185 -131 -86 -213
-175 -325 -354 -123 -195 -186 -267 -272 -311 -35 -18 -54 -21 -122 -17 -164
9 -256 83 -428 343 -200 304 -276 356 -583 406 -164 26 -347 70 -439 106 -183
71 -570 280 -653 354 -86 74 -127 154 -104 197 20 37 62 42 316 33 391 -13
400 -12 955 88 409 75 727 109 1275 136 332 17 665 79 975 181 100 34 135 46
295 109 92 36 406 177 575 258 74 35 205 97 290 137 319 150 418 199 538 264
316 172 465 278 807 572 418 360 517 407 785 374z m-3838 -537 c172 -207 234
-304 380 -594 74 -145 147 -284 162 -307 15 -24 26 -46 24 -47 -11 -12 -197
-70 -316 -100 -269 -68 -417 -87 -902 -120 -487 -32 -920 -81 -1140 -130 -89
-19 -342 -63 -437 -76 -54 -6 -177 -6 -395 2 -377 13 -385 12 -479 -80 -89
-87 -109 -177 -66 -303 l23 -67 -25 -5 c-14 -3 -69 -8 -121 -11 -133 -9 -354
-42 -469 -70 -307 -77 -486 -198 -693 -470 -103 -134 -135 -167 -191 -194 -41
-20 -59 -23 -120 -19 -142 10 -234 66 -452 278 -260 252 -344 311 -566 396
-141 53 -341 109 -499 139 -251 47 -309 70 -421 172 -83 75 -106 88 -215 122
-130 41 -188 85 -239 183 -54 103 -16 150 95 118 19 -6 82 -17 140 -26 58 -8
161 -24 230 -36 172 -28 397 -21 675 20 355 54 597 73 1180 97 654 26 1037 68
1380 150 55 13 150 36 210 50 113 27 135 33 315 86 58 17 114 33 125 36 75 20
347 103 545 166 335 107 380 121 620 193 264 79 285 86 435 133 66 22 149 48
185 59 138 42 400 156 685 297 105 51 198 94 207 94 10 1 63 -55 130 -136z
m3899 -1333 c75 -38 234 -190 413 -395 216 -246 191 -197 291 -575 31 -118 74
-280 95 -360 40 -149 195 -771 224 -895 40 -172 108 -544 136 -738 63 -444
134 -1168 135 -1367 0 -143 -1 -146 -30 -200 -32 -59 -97 -111 -163 -130 -40
-11 -145 -27 -592 -90 -744 -103 -848 -109 -1130 -66 -94 15 -190 48 -190 66
0 5 17 18 38 28 20 10 136 68 257 129 412 208 544 260 839 329 192 45 275 83
334 149 57 64 77 133 69 235 -20 242 -172 831 -315 1220 -61 164 -78 206 -148
358 -19 40 -34 75 -34 77 0 2 -28 64 -61 137 -209 453 -311 734 -385 1050 -65
281 -107 374 -267 588 -48 63 -87 118 -87 123 0 4 6 7 13 7 14 0 118 83 235
187 97 87 179 143 224 153 18 4 34 8 36 9 1 1 30 -13 63 -29z m-1674 -862 c44
-165 134 -582 173 -803 77 -445 98 -629 140 -1235 10 -157 24 -352 31 -435 25
-328 -18 -517 -130 -575 -40 -20 -83 -28 -296 -55 -66 -8 -220 -40 -343 -71
-223 -57 -254 -60 -239 -21 7 17 101 80 209 139 126 68 162 98 166 137 4 44
-14 85 -44 102 -49 26 -96 14 -211 -52 -207 -120 -189 -114 -493 -159 -151
-22 -342 -51 -425 -65 -82 -14 -175 -25 -206 -25 -60 0 -143 21 -174 44 -19
14 -19 15 10 26 17 6 82 27 145 45 63 18 169 50 235 70 66 20 199 57 295 81
96 25 204 54 240 64 36 11 152 35 257 55 232 42 330 72 409 123 71 46 109 89
143 162 36 80 33 156 -17 355 -62 246 -79 307 -142 495 -100 301 -178 486
-358 847 -61 121 -124 252 -140 289 -16 38 -48 113 -71 167 -23 53 -53 129
-66 167 l-24 69 32 5 c18 3 106 12 197 20 292 27 564 56 610 65 74 15 75 14
87 -31z"/>
</g>
</svg>
