<svg id="svg" version="1.1" xmlns="http://www.w3.org/2000/svg" xmlns:xlink="http://www.w3.org/1999/xlink" width="400" height="218.1818181818182" viewBox="0, 0, 400,218.1818181818182"><g id="svgg"><path id="path0" d="M0.000 109.083 L 0.000 218.167 200.000 218.167 L 400.000 218.167 400.000 109.083 L 400.000 0.000 200.000 0.000 L 0.000 0.000 0.000 109.083 M249.083 30.104 C 249.358 30.162,250.183 30.509,250.917 30.877 C 251.650 31.245,253.133 31.905,254.211 32.345 C 255.290 32.784,256.469 33.378,256.831 33.665 C 257.193 33.952,257.623 34.185,257.787 34.182 C 257.950 34.180,258.796 34.131,259.667 34.074 C 261.610 33.946,262.418 34.278,263.287 35.563 C 263.856 36.404,264.005 36.832,264.914 40.228 C 265.535 42.546,265.662 42.740,267.329 43.917 C 273.565 48.321,276.208 58.501,273.174 66.430 C 268.312 79.139,251.816 83.635,241.849 74.968 C 240.950 74.186,241.072 73.931,240.840 77.083 C 240.530 81.302,239.826 87.292,238.832 94.167 C 236.899 107.544,236.910 111.297,238.913 119.417 C 239.758 122.845,239.995 124.152,240.242 126.750 C 240.718 131.760,240.826 134.060,240.856 139.904 C 240.945 156.939,240.939 156.911,245.689 163.357 C 248.746 167.505,249.831 170.580,249.833 175.104 C 249.834 178.173,249.869 178.209,253.477 178.837 C 257.746 179.580,265.357 183.922,266.509 186.272 C 267.702 188.707,266.146 192.331,263.634 192.967 C 262.450 193.266,155.093 193.387,153.295 193.091 C 146.458 191.965,141.921 187.058,140.574 179.333 C 140.206 177.221,139.565 173.894,138.664 169.417 C 137.486 163.562,137.052 160.852,136.100 153.417 C 134.945 144.397,135.017 130.572,136.257 123.000 C 136.400 122.129,136.588 120.854,136.675 120.167 C 137.014 117.490,138.279 111.189,139.085 108.167 C 139.292 107.388,139.511 106.525,139.571 106.250 C 139.856 104.935,142.459 96.983,143.254 95.000 C 146.264 87.489,150.631 79.596,155.011 73.750 C 155.285 73.383,155.638 72.896,155.793 72.667 C 156.806 71.178,160.202 66.730,160.502 66.500 C 160.562 66.454,161.540 65.329,162.674 64.000 C 165.891 60.233,169.070 57.169,172.288 54.734 C 172.983 54.208,177.488 51.167,177.571 51.167 C 177.673 51.167,179.248 50.218,180.250 49.553 C 180.716 49.244,181.340 48.614,181.665 48.125 C 187.002 40.093,195.224 37.513,206.833 40.225 C 207.429 40.364,209.192 40.713,210.750 41.000 C 212.308 41.287,214.422 41.704,215.448 41.926 C 221.182 43.171,225.376 42.729,230.583 40.332 C 230.767 40.247,231.404 40.036,232.000 39.862 C 232.596 39.688,233.608 39.389,234.250 39.199 C 234.892 39.008,235.904 38.767,236.500 38.663 C 237.803 38.435,239.070 37.742,239.750 36.886 C 240.405 36.062,241.500 34.508,241.500 34.402 C 241.500 34.356,241.815 33.891,242.200 33.368 C 244.348 30.449,246.298 29.525,249.083 30.104 M247.019 35.260 C 246.357 35.816,244.293 38.800,244.424 39.012 C 244.479 39.101,244.459 39.154,244.379 39.129 C 244.298 39.104,243.975 39.383,243.661 39.750 C 241.744 41.984,240.394 42.733,236.456 43.748 C 234.876 44.155,232.871 44.756,232.000 45.084 C 228.113 46.546,227.319 46.802,225.750 47.095 C 222.111 47.776,218.406 47.484,210.667 45.909 C 198.551 43.442,195.045 43.457,190.667 45.994 C 189.240 46.821,186.590 49.369,185.634 50.833 C 184.821 52.078,183.806 53.204,183.228 53.503 C 182.965 53.639,182.150 54.116,181.417 54.564 C 180.683 55.012,179.821 55.526,179.500 55.708 C 175.206 58.136,168.933 63.822,164.667 69.153 C 164.346 69.554,163.740 70.302,163.321 70.816 C 162.224 72.160,159.588 75.686,159.361 76.112 C 159.256 76.311,159.072 76.574,158.954 76.695 C 158.648 77.012,156.109 80.766,155.401 81.949 C 155.227 82.241,154.617 83.262,154.047 84.218 C 149.934 91.115,145.391 102.189,144.155 108.333 C 144.072 108.746,143.821 109.758,143.599 110.583 C 143.075 112.522,142.287 116.277,141.762 119.333 C 141.384 121.527,141.078 123.826,140.464 129.083 C 140.173 131.580,140.173 146.167,140.465 148.833 C 141.162 155.207,141.947 160.733,142.666 164.333 C 142.931 165.662,143.382 167.987,143.668 169.500 C 143.954 171.012,144.366 173.188,144.584 174.333 C 144.802 175.479,145.027 176.754,145.086 177.167 C 145.939 183.218,148.402 186.599,153.000 188.028 C 154.215 188.406,154.418 188.416,160.250 188.406 C 163.550 188.400,187.813 188.377,214.167 188.355 L 262.083 188.315 261.614 187.949 C 259.563 186.351,254.109 183.896,251.533 183.411 C 247.284 182.611,244.700 181.110,240.550 177.030 C 235.986 172.543,233.664 172.591,230.248 177.244 C 228.233 179.989,226.294 180.379,218.648 179.579 C 215.480 179.248,206.655 177.719,206.166 177.416 C 206.067 177.355,199.467 175.592,195.167 174.478 C 185.523 171.979,175.334 172.328,167.959 175.410 C 166.556 175.996,165.118 175.545,164.495 174.323 C 164.099 173.548,164.093 173.203,164.425 170.232 C 164.668 168.052,164.943 166.335,165.939 160.750 C 167.076 154.381,167.479 149.655,167.662 140.583 C 167.854 131.047,167.905 130.844,170.667 128.533 C 173.684 126.009,175.057 124.521,176.695 122.000 C 180.254 116.522,181.164 110.181,179.481 102.586 C 178.558 98.424,178.915 95.076,180.615 91.949 C 182.220 88.997,184.361 86.542,187.083 84.533 C 187.725 84.060,188.325 83.612,188.417 83.538 C 188.900 83.149,191.271 81.811,192.583 81.187 C 193.408 80.794,194.225 80.397,194.399 80.303 C 197.416 78.683,206.469 76.803,212.458 76.554 C 215.297 76.436,215.162 76.524,214.677 75.112 C 214.244 73.855,213.542 72.871,212.317 71.806 C 210.370 70.113,210.309 68.227,212.170 67.292 C 215.285 65.727,219.095 70.685,220.333 77.917 C 221.235 83.180,221.599 87.231,222.168 98.333 C 222.265 100.212,222.379 102.013,222.422 102.333 C 222.465 102.654,222.577 105.354,222.671 108.333 C 223.003 118.872,223.628 123.614,225.612 130.667 C 225.935 131.813,226.408 133.537,226.664 134.500 C 226.919 135.462,227.409 137.188,227.752 138.333 C 228.497 140.826,228.717 141.625,229.791 145.750 C 231.107 150.799,231.516 152.746,232.281 157.583 C 232.508 159.022,232.516 159.614,232.342 161.917 C 232.122 164.819,232.162 165.199,232.939 167.583 L 233.374 168.917 235.146 168.917 C 238.134 168.917,240.212 169.923,243.232 172.833 L 245.048 174.583 244.947 173.581 C 244.660 170.716,243.468 168.261,240.498 164.417 C 236.575 159.338,236.002 156.493,236.000 142.083 C 235.999 129.798,235.644 126.387,233.400 117.038 C 232.406 112.896,232.350 105.571,233.262 99.000 C 233.396 98.037,233.616 96.275,233.752 95.083 C 233.888 93.892,234.110 92.242,234.246 91.417 C 237.660 70.698,236.469 61.700,229.868 58.349 C 228.544 57.677,228.133 56.281,228.873 54.965 C 229.869 53.193,231.919 53.522,235.154 55.975 C 237.249 57.564,238.357 59.293,239.685 63.048 C 242.763 71.749,249.326 75.846,257.526 74.184 C 269.957 71.664,273.955 55.003,263.936 47.474 C 261.526 45.664,260.798 44.373,259.907 40.333 C 259.565 38.783,259.615 38.828,258.451 39.033 C 257.159 39.260,256.348 39.039,254.589 37.984 C 253.816 37.521,252.524 36.883,251.717 36.567 C 250.910 36.252,249.752 35.732,249.142 35.413 C 247.818 34.720,247.673 34.709,247.019 35.260 M210.700 81.517 C 197.162 82.450,186.005 88.865,183.980 96.880 L 183.610 98.343 183.979 100.130 C 186.131 110.562,185.370 117.341,181.312 123.883 C 179.461 126.868,177.607 128.977,173.812 132.417 L 172.708 133.417 172.616 139.750 C 172.529 145.761,172.311 149.479,171.737 154.750 C 171.433 157.544,171.176 159.230,169.995 166.157 C 169.405 169.619,169.389 169.913,169.792 169.755 C 170.826 169.350,175.376 168.444,177.833 168.154 C 185.010 167.307,190.844 168.058,202.500 171.328 C 208.530 173.020,211.570 173.683,216.333 174.345 C 219.950 174.847,225.571 175.165,225.921 174.886 C 226.015 174.811,226.346 174.412,226.657 174.000 C 226.968 173.588,227.656 172.800,228.185 172.250 L 229.148 171.250 228.654 170.000 C 227.647 167.449,227.280 165.348,227.431 163.000 C 227.779 157.593,227.319 155.085,223.269 140.333 C 223.056 139.554,222.600 137.979,222.257 136.833 C 219.964 129.173,218.903 124.226,218.414 118.917 C 218.279 117.450,218.133 116.025,218.089 115.750 C 218.045 115.475,217.897 112.250,217.760 108.583 C 217.434 99.892,217.357 98.201,217.162 95.500 C 216.460 85.774,216.284 83.608,216.112 82.583 L 215.917 81.417 214.333 81.396 C 213.463 81.385,211.828 81.439,210.700 81.517 " stroke="none" fill="#fbfbfb" fill-rule="evenodd"></path><path id="path1" d="M246.216 30.320 C 244.499 30.811,243.534 31.708,241.541 34.667 C 239.396 37.851,238.637 38.453,236.167 38.927 C 234.227 39.300,231.804 40.044,229.224 41.060 C 225.510 42.523,224.542 42.733,221.500 42.734 C 218.707 42.736,218.790 42.748,209.898 40.987 C 200.252 39.077,197.283 38.908,192.773 40.011 C 188.636 41.023,184.599 44.015,181.873 48.092 C 181.181 49.127,180.883 49.368,178.583 50.748 C 174.393 53.262,170.583 56.080,168.000 58.575 C 164.811 61.657,158.980 68.324,157.333 70.773 C 157.196 70.978,156.334 72.181,155.418 73.448 C 150.364 80.433,147.028 86.352,143.846 93.970 C 142.994 96.011,140.734 102.638,140.148 104.813 C 134.388 126.206,133.903 145.785,138.577 168.167 C 138.798 169.221,139.250 171.508,139.582 173.250 C 141.309 182.290,141.651 183.634,142.697 185.479 C 144.884 189.336,148.180 191.750,152.758 192.848 L 154.250 193.206 208.717 193.104 L 263.184 193.002 264.007 192.648 C 265.674 191.931,266.720 190.271,266.726 188.333 C 266.733 185.865,265.524 184.493,261.417 182.312 C 256.705 179.809,256.266 179.633,252.783 178.852 C 249.619 178.142,249.900 178.434,249.762 175.715 C 249.462 169.832,248.681 167.625,245.281 163.051 C 240.825 157.057,240.915 157.492,240.670 140.750 C 240.483 128.064,240.223 125.225,238.677 119.023 C 236.900 111.891,236.799 107.552,238.180 97.750 C 239.650 87.316,240.305 82.008,240.515 78.833 C 240.614 77.321,240.746 75.611,240.806 75.034 L 240.917 73.985 242.000 74.904 C 249.478 81.247,262.460 80.378,268.778 73.112 C 276.835 63.845,276.097 51.088,267.089 43.917 C 265.379 42.556,265.224 42.301,264.670 39.941 C 263.524 35.061,262.516 33.965,259.429 34.243 C 257.581 34.409,257.541 34.404,256.945 33.950 C 256.279 33.443,255.400 32.998,253.917 32.415 C 253.275 32.163,252.083 31.629,251.268 31.228 C 248.688 29.959,247.945 29.825,246.216 30.320 M249.067 35.231 C 249.626 35.541,250.805 36.064,251.686 36.392 C 252.568 36.720,253.918 37.385,254.686 37.869 L 256.083 38.750 257.880 38.750 L 259.676 38.750 259.832 39.333 C 259.918 39.654,260.105 40.423,260.248 41.042 C 260.986 44.239,261.811 45.698,263.624 47.014 C 270.922 52.312,271.910 63.016,265.715 69.660 C 258.033 77.900,244.729 75.667,240.434 65.417 C 240.203 64.867,239.674 63.492,239.257 62.362 C 237.708 58.163,236.244 56.445,232.650 54.603 C 230.890 53.702,230.131 53.730,229.213 54.732 C 228.027 56.026,228.553 57.458,230.640 58.617 C 236.410 61.820,237.599 70.278,234.840 88.500 C 232.365 104.845,232.153 111.695,233.906 118.629 C 235.675 125.626,236.165 130.552,236.168 141.369 C 236.172 156.861,236.692 159.416,240.923 164.750 C 243.570 168.086,244.867 170.880,245.111 173.767 L 245.219 175.037 243.401 173.216 C 240.332 170.140,237.841 168.919,234.857 169.026 L 233.280 169.083 232.721 167.417 C 231.993 165.251,231.918 164.497,232.159 161.812 C 232.392 159.217,232.215 157.438,231.256 152.711 C 230.339 148.199,229.996 146.819,228.323 140.917 C 227.881 139.358,227.296 137.296,227.023 136.333 C 226.524 134.571,225.503 130.860,224.755 128.083 C 223.494 123.402,222.766 117.163,222.499 108.750 C 222.022 93.738,220.938 80.721,219.740 75.623 C 218.898 72.039,217.171 69.305,214.727 67.686 C 212.088 65.938,209.606 69.105,211.955 71.224 C 213.798 72.888,214.567 73.978,215.055 75.623 C 215.374 76.697,215.422 76.667,213.431 76.667 C 199.305 76.668,185.238 83.245,180.842 91.903 C 178.864 95.800,178.704 97.464,179.758 103.209 C 181.775 114.196,178.965 122.210,170.865 128.573 C 168.434 130.483,168.001 131.600,167.998 135.976 C 167.991 146.220,167.307 154.186,165.657 163.250 C 163.564 174.747,163.952 176.394,168.440 175.061 C 179.344 171.822,186.489 171.763,197.167 174.825 C 198.359 175.167,205.141 176.962,207.250 177.494 C 211.746 178.627,219.590 179.701,223.583 179.729 C 227.598 179.757,228.244 179.491,230.259 176.982 C 233.988 172.338,235.905 172.344,240.761 177.015 C 244.526 180.638,246.900 182.147,249.954 182.861 C 253.691 183.734,255.078 184.194,257.145 185.246 C 259.978 186.688,262.167 188.010,262.167 188.279 C 262.167 188.641,154.799 188.603,153.239 188.241 C 148.780 187.207,146.202 183.964,145.098 178.000 C 144.145 172.855,143.267 168.218,142.651 165.083 C 136.156 132.020,141.829 100.455,158.468 77.083 C 166.957 65.158,172.749 59.447,181.601 54.271 C 183.923 52.914,184.301 52.575,185.532 50.745 C 190.219 43.777,195.550 42.638,209.750 45.566 C 220.935 47.873,224.401 47.876,230.250 45.587 C 232.825 44.579,234.406 44.061,236.167 43.648 C 240.818 42.559,242.404 41.472,245.035 37.574 C 246.470 35.448,246.647 35.236,247.250 34.926 C 247.914 34.585,247.899 34.582,249.067 35.231 M216.282 82.750 C 216.878 87.241,217.649 99.488,218.004 110.083 C 218.349 120.386,219.177 125.677,221.918 135.083 C 226.631 151.255,228.102 158.057,227.655 161.607 C 227.297 164.450,227.704 167.203,228.936 170.284 L 229.350 171.319 228.709 171.898 C 228.356 172.217,227.734 172.908,227.325 173.434 C 225.904 175.266,226.098 175.167,223.946 175.167 C 218.191 175.167,210.140 173.723,200.667 170.993 C 188.570 167.507,180.232 167.111,171.017 169.586 C 170.156 169.817,169.412 169.967,169.364 169.920 C 169.255 169.811,169.603 167.422,170.480 162.250 C 171.783 154.563,172.299 148.664,172.446 139.780 L 172.553 133.310 173.985 132.030 C 183.886 123.178,186.772 114.468,184.094 101.519 C 183.401 98.171,183.553 96.698,184.866 94.036 C 188.432 86.804,201.457 81.095,214.083 81.229 L 216.083 81.250 216.282 82.750 " stroke="none" fill="#060606" fill-rule="evenodd"></path><path id="path2" d="M197.955 39.287 C 198.250 39.324,198.775 39.324,199.121 39.288 C 199.467 39.252,199.225 39.222,198.583 39.221 C 197.942 39.221,197.659 39.250,197.955 39.287 M268.667 45.250 C 268.978 45.571,269.270 45.833,269.315 45.833 C 269.361 45.833,269.144 45.571,268.833 45.250 C 268.522 44.929,268.230 44.667,268.185 44.667 C 268.139 44.667,268.356 44.929,268.667 45.250 M274.390 59.250 C 274.391 59.983,274.420 60.263,274.456 59.871 C 274.491 59.479,274.490 58.879,274.454 58.537 C 274.419 58.196,274.390 58.517,274.390 59.250 M265.242 70.042 L 264.583 70.750 265.292 70.091 C 265.681 69.729,266.000 69.410,266.000 69.383 C 266.000 69.257,265.855 69.383,265.242 70.042 M243.583 70.167 C 243.941 70.533,244.272 70.833,244.318 70.833 C 244.363 70.833,244.108 70.533,243.750 70.167 C 243.392 69.800,243.062 69.500,243.016 69.500 C 242.970 69.500,243.225 69.800,243.583 70.167 M217.712 106.000 C 217.712 106.412,217.745 106.581,217.784 106.375 C 217.824 106.169,217.824 105.831,217.784 105.625 C 217.745 105.419,217.712 105.587,217.712 106.000 M222.545 108.000 C 222.545 108.412,222.578 108.581,222.618 108.375 C 222.657 108.169,222.657 107.831,222.618 107.625 C 222.578 107.419,222.545 107.587,222.545 108.000 M185.050 108.667 C 185.050 109.171,185.081 109.377,185.119 109.125 C 185.158 108.873,185.158 108.460,185.119 108.208 C 185.081 107.956,185.050 108.162,185.050 108.667 M237.220 109.667 C 237.220 110.263,237.250 110.506,237.287 110.208 C 237.324 109.910,237.324 109.423,237.287 109.125 C 237.250 108.827,237.220 109.071,237.220 109.667 M217.879 111.000 C 217.879 111.412,217.911 111.581,217.951 111.375 C 217.991 111.169,217.991 110.831,217.951 110.625 C 217.911 110.419,217.879 110.587,217.879 111.000 M185.039 111.167 C 185.039 111.487,185.073 111.619,185.115 111.458 C 185.157 111.298,185.157 111.035,185.115 110.875 C 185.073 110.715,185.039 110.846,185.039 111.167 M172.570 137.333 C 172.570 139.121,172.594 139.852,172.624 138.958 C 172.654 138.065,172.654 136.602,172.624 135.708 C 172.594 134.815,172.570 135.546,172.570 137.333 M140.039 135.000 C 140.039 135.321,140.073 135.452,140.115 135.292 C 140.157 135.131,140.157 134.869,140.115 134.708 C 140.073 134.548,140.039 134.679,140.039 135.000 M240.712 135.500 C 240.712 135.912,240.745 136.081,240.784 135.875 C 240.824 135.669,240.824 135.331,240.784 135.125 C 240.745 134.919,240.712 135.087,240.712 135.500 M236.073 141.750 C 236.073 144.317,236.096 145.343,236.125 144.032 C 236.153 142.720,236.153 140.620,236.125 139.365 C 236.096 138.110,236.073 139.183,236.073 141.750 M140.045 142.333 C 140.045 142.746,140.078 142.915,140.118 142.708 C 140.157 142.502,140.157 142.165,140.118 141.958 C 140.078 141.752,140.045 141.921,140.045 142.333 M167.705 143.833 C 167.705 144.154,167.740 144.285,167.782 144.125 C 167.823 143.965,167.823 143.702,167.782 143.542 C 167.740 143.381,167.705 143.512,167.705 143.833 M240.879 149.667 C 240.879 150.079,240.911 150.248,240.951 150.042 C 240.991 149.835,240.991 149.498,240.951 149.292 C 240.911 149.085,240.879 149.254,240.879 149.667 M227.388 163.750 C 227.389 164.392,227.419 164.634,227.455 164.288 C 227.491 163.942,227.490 163.417,227.454 163.121 C 227.417 162.825,227.387 163.108,227.388 163.750 M228.240 172.208 L 227.750 172.750 228.292 172.260 C 228.797 171.804,228.910 171.667,228.781 171.667 C 228.752 171.667,228.509 171.910,228.240 172.208 M243.500 173.219 C 243.500 173.248,243.744 173.491,244.042 173.760 L 244.583 174.250 244.094 173.708 C 243.638 173.203,243.500 173.090,243.500 173.219 M148.500 185.583 C 148.811 185.904,149.103 186.167,149.149 186.167 C 149.195 186.167,148.978 185.904,148.667 185.583 C 148.356 185.262,148.064 185.000,148.018 185.000 C 147.972 185.000,148.189 185.262,148.500 185.583 M190.208 188.458 C 191.744 188.486,194.256 188.486,195.792 188.458 C 197.327 188.431,196.071 188.408,193.000 188.408 C 189.929 188.408,188.673 188.431,190.208 188.458 " stroke="none" fill="#989897" fill-rule="evenodd"></path><path id="path3" d="M257.294 39.118 C 257.501 39.158,257.801 39.156,257.960 39.115 C 258.120 39.073,257.950 39.040,257.583 39.042 C 257.217 39.044,257.086 39.078,257.294 39.118 M219.542 42.615 C 219.702 42.657,219.965 42.657,220.125 42.615 C 220.285 42.573,220.154 42.539,219.833 42.539 C 219.512 42.539,219.381 42.573,219.542 42.615 M222.711 42.620 C 222.964 42.658,223.339 42.657,223.544 42.617 C 223.749 42.578,223.542 42.546,223.083 42.548 C 222.625 42.549,222.457 42.581,222.711 42.620 M184.411 44.708 L 183.417 45.750 184.458 44.755 C 185.031 44.208,185.500 43.739,185.500 43.714 C 185.500 43.590,185.336 43.741,184.411 44.708 M220.875 47.456 C 221.310 47.490,222.023 47.490,222.458 47.456 C 222.894 47.422,222.537 47.393,221.667 47.393 C 220.796 47.393,220.440 47.422,220.875 47.456 M187.742 48.208 L 187.083 48.917 187.792 48.258 C 188.181 47.895,188.500 47.577,188.500 47.550 C 188.500 47.423,188.355 47.550,187.742 48.208 M233.167 54.741 C 233.167 54.787,233.392 54.941,233.667 55.083 C 233.942 55.226,234.167 55.304,234.167 55.259 C 234.167 55.213,233.942 55.059,233.667 54.917 C 233.392 54.774,233.167 54.696,233.167 54.741 M236.333 57.083 C 236.644 57.404,236.936 57.667,236.982 57.667 C 237.028 57.667,236.811 57.404,236.500 57.083 C 236.189 56.762,235.897 56.500,235.851 56.500 C 235.805 56.500,236.022 56.762,236.333 57.083 M166.663 59.625 L 165.250 61.083 166.708 59.670 C 167.510 58.893,168.167 58.237,168.167 58.212 C 168.167 58.091,167.975 58.271,166.663 59.625 M164.158 62.292 L 163.583 62.917 164.208 62.342 C 164.790 61.808,164.910 61.667,164.783 61.667 C 164.755 61.667,164.474 61.948,164.158 62.292 M169.906 63.208 L 169.417 63.750 169.958 63.260 C 170.256 62.991,170.500 62.748,170.500 62.719 C 170.500 62.590,170.362 62.703,169.906 63.208 M236.045 70.833 C 236.045 71.246,236.078 71.415,236.118 71.208 C 236.157 71.002,236.157 70.665,236.118 70.458 C 236.078 70.252,236.045 70.421,236.045 70.833 M211.167 70.719 C 211.167 70.748,211.410 70.991,211.708 71.260 L 212.250 71.750 211.760 71.208 C 211.304 70.703,211.167 70.590,211.167 70.719 M269.167 72.749 C 268.952 72.978,268.808 73.193,268.847 73.227 C 268.885 73.261,269.091 73.074,269.304 72.811 C 269.782 72.223,269.697 72.185,269.167 72.749 M240.864 75.125 L 240.895 76.083 240.957 75.196 C 241.013 74.389,241.044 74.328,241.301 74.529 C 241.555 74.728,241.560 74.721,241.355 74.458 C 240.962 73.957,240.832 74.133,240.864 75.125 M236.045 75.167 C 236.045 75.579,236.078 75.748,236.118 75.542 C 236.157 75.335,236.157 74.998,236.118 74.792 C 236.078 74.585,236.045 74.754,236.045 75.167 M253.455 74.620 C 253.750 74.657,254.275 74.658,254.621 74.622 C 254.967 74.586,254.725 74.555,254.083 74.555 C 253.442 74.554,253.159 74.583,253.455 74.620 M235.879 78.333 C 235.879 78.746,235.911 78.915,235.951 78.708 C 235.991 78.502,235.991 78.165,235.951 77.958 C 235.911 77.752,235.879 77.921,235.879 78.333 M253.708 79.456 C 254.144 79.490,254.856 79.490,255.292 79.456 C 255.727 79.422,255.371 79.393,254.500 79.393 C 253.629 79.393,253.273 79.422,253.708 79.456 M211.375 81.453 C 211.627 81.491,212.040 81.491,212.292 81.453 C 212.544 81.415,212.338 81.383,211.833 81.383 C 211.329 81.383,211.123 81.415,211.375 81.453 M184.909 86.375 L 184.250 87.083 184.958 86.425 C 185.617 85.812,185.743 85.667,185.617 85.667 C 185.590 85.667,185.271 85.985,184.909 86.375 M216.539 86.833 C 216.539 87.154,216.573 87.285,216.615 87.125 C 216.657 86.965,216.657 86.702,216.615 86.542 C 216.573 86.381,216.539 86.513,216.539 86.833 M183.406 87.875 L 182.917 88.417 183.458 87.927 C 183.963 87.471,184.077 87.333,183.948 87.333 C 183.919 87.333,183.675 87.577,183.406 87.875 M216.709 89.083 C 216.711 89.450,216.745 89.580,216.785 89.373 C 216.824 89.166,216.823 88.866,216.781 88.706 C 216.739 88.547,216.707 88.717,216.709 89.083 M221.709 90.917 C 221.711 91.283,221.745 91.414,221.785 91.206 C 221.824 90.999,221.823 90.699,221.781 90.540 C 221.739 90.380,221.707 90.550,221.709 90.917 M221.879 94.000 C 221.879 94.412,221.911 94.581,221.951 94.375 C 221.991 94.169,221.991 93.831,221.951 93.625 C 221.911 93.419,221.879 93.587,221.879 94.000 M217.039 94.000 C 217.039 94.321,217.073 94.452,217.115 94.292 C 217.157 94.131,217.157 93.869,217.115 93.708 C 217.073 93.548,217.039 93.679,217.039 94.000 M222.039 97.333 C 222.039 97.654,222.073 97.785,222.115 97.625 C 222.157 97.465,222.157 97.202,222.115 97.042 C 222.073 96.881,222.039 97.013,222.039 97.333 M178.875 98.583 C 178.877 98.950,178.911 99.080,178.951 98.873 C 178.991 98.666,178.990 98.366,178.948 98.206 C 178.906 98.047,178.874 98.217,178.875 98.583 M217.372 99.167 C 217.372 99.487,217.406 99.619,217.448 99.458 C 217.490 99.298,217.490 99.035,217.448 98.875 C 217.406 98.715,217.372 98.846,217.372 99.167 M217.556 103.167 C 217.556 103.854,217.585 104.135,217.621 103.792 C 217.657 103.448,217.657 102.885,217.621 102.542 C 217.585 102.198,217.556 102.479,217.556 103.167 M222.552 106.417 C 222.553 106.967,222.584 107.172,222.621 106.872 C 222.658 106.572,222.657 106.122,222.619 105.872 C 222.581 105.622,222.551 105.867,222.552 106.417 M217.718 107.583 C 217.719 108.133,217.750 108.338,217.787 108.039 C 217.825 107.739,217.824 107.289,217.786 107.039 C 217.748 106.788,217.717 107.033,217.718 107.583 M185.039 107.333 C 185.039 107.654,185.073 107.785,185.115 107.625 C 185.157 107.465,185.157 107.202,185.115 107.042 C 185.073 106.881,185.039 107.013,185.039 107.333 M232.553 108.667 C 232.553 109.263,232.584 109.506,232.621 109.208 C 232.658 108.910,232.658 108.423,232.621 108.125 C 232.584 107.827,232.553 108.071,232.553 108.667 M232.545 110.500 C 232.545 110.912,232.578 111.081,232.618 110.875 C 232.657 110.669,232.657 110.331,232.618 110.125 C 232.578 109.919,232.545 110.087,232.545 110.500 M222.714 111.917 C 222.716 112.375,222.748 112.543,222.786 112.289 C 222.825 112.036,222.824 111.661,222.784 111.456 C 222.744 111.251,222.713 111.458,222.714 111.917 M185.039 112.167 C 185.039 112.487,185.073 112.619,185.115 112.458 C 185.157 112.298,185.157 112.035,185.115 111.875 C 185.073 111.715,185.039 111.846,185.039 112.167 M217.879 112.333 C 217.879 112.746,217.911 112.915,217.951 112.708 C 217.991 112.502,217.991 112.165,217.951 111.958 C 217.911 111.752,217.879 111.921,217.879 112.333 M135.872 126.000 C 135.872 126.321,135.906 126.452,135.948 126.292 C 135.990 126.131,135.990 125.869,135.948 125.708 C 135.906 125.548,135.872 125.679,135.872 126.000 M177.906 128.375 L 177.417 128.917 177.958 128.427 C 178.463 127.971,178.577 127.833,178.448 127.833 C 178.419 127.833,178.175 128.077,177.906 128.375 M235.709 130.417 C 235.711 130.783,235.745 130.914,235.785 130.706 C 235.824 130.499,235.823 130.199,235.781 130.040 C 235.739 129.880,235.707 130.050,235.709 130.417 M175.406 130.875 L 174.917 131.417 175.458 130.927 C 175.963 130.471,176.077 130.333,175.948 130.333 C 175.919 130.333,175.675 130.577,175.406 130.875 M140.205 132.167 C 140.205 132.487,140.240 132.619,140.282 132.458 C 140.323 132.298,140.323 132.035,140.282 131.875 C 140.240 131.715,140.205 131.846,140.205 132.167 M235.887 133.833 C 235.887 134.429,235.917 134.673,235.954 134.375 C 235.991 134.077,235.991 133.590,235.954 133.292 C 235.917 132.994,235.887 133.237,235.887 133.833 M240.717 134.000 C 240.717 134.504,240.748 134.710,240.786 134.458 C 240.824 134.206,240.824 133.794,240.786 133.542 C 240.748 133.290,240.717 133.496,240.717 134.000 M167.739 139.417 C 167.739 141.617,167.762 142.494,167.791 141.365 C 167.820 140.237,167.820 138.437,167.791 137.365 C 167.762 136.294,167.738 137.217,167.739 139.417 M135.236 138.750 C 135.236 140.400,135.261 141.052,135.291 140.200 C 135.321 139.347,135.321 137.997,135.291 137.200 C 135.260 136.402,135.235 137.100,135.236 138.750 M140.069 138.750 C 140.069 140.400,140.094 141.052,140.124 140.200 C 140.155 139.347,140.154 137.997,140.124 137.200 C 140.093 136.402,140.069 137.100,140.069 138.750 M172.557 141.750 C 172.558 142.483,172.587 142.763,172.622 142.371 C 172.657 141.979,172.657 141.379,172.621 141.037 C 172.585 140.696,172.557 141.017,172.557 141.750 M167.552 146.083 C 167.553 146.633,167.584 146.838,167.621 146.539 C 167.658 146.239,167.657 145.789,167.619 145.539 C 167.581 145.288,167.551 145.533,167.552 146.083 M140.205 145.833 C 140.205 146.154,140.240 146.285,140.282 146.125 C 140.323 145.965,140.323 145.702,140.282 145.542 C 140.240 145.381,140.205 145.512,140.205 145.833 M172.375 146.583 C 172.377 146.950,172.411 147.080,172.451 146.873 C 172.491 146.666,172.490 146.366,172.448 146.206 C 172.406 146.047,172.374 146.217,172.375 146.583 M240.893 147.500 C 240.893 148.371,240.922 148.727,240.956 148.292 C 240.990 147.856,240.990 147.144,240.956 146.708 C 240.922 146.273,240.893 146.629,240.893 147.500 M236.058 147.667 C 236.058 148.446,236.087 148.765,236.122 148.375 C 236.157 147.985,236.157 147.348,236.122 146.958 C 236.087 146.569,236.058 146.887,236.058 147.667 M135.705 149.667 C 135.705 149.987,135.740 150.119,135.782 149.958 C 135.823 149.798,135.823 149.535,135.782 149.375 C 135.740 149.215,135.705 149.346,135.705 149.667 M241.048 152.083 C 241.049 152.542,241.081 152.709,241.120 152.456 C 241.158 152.203,241.157 151.828,241.117 151.623 C 241.078 151.418,241.046 151.625,241.048 152.083 M232.392 159.833 C 232.392 160.612,232.420 160.931,232.455 160.542 C 232.490 160.152,232.490 159.515,232.455 159.125 C 232.420 158.735,232.392 159.054,232.392 159.833 M180.127 172.785 C 180.334 172.824,180.634 172.823,180.794 172.781 C 180.953 172.739,180.783 172.707,180.417 172.709 C 180.050 172.711,179.920 172.745,180.127 172.785 M249.705 173.333 C 249.705 173.654,249.740 173.785,249.782 173.625 C 249.823 173.465,249.823 173.202,249.782 173.042 C 249.740 172.881,249.705 173.012,249.705 173.333 M244.734 174.461 C 245.114 174.907,245.167 174.918,245.167 174.556 C 245.167 174.403,245.117 174.327,245.057 174.387 C 244.997 174.448,244.828 174.405,244.682 174.293 C 244.519 174.168,244.540 174.233,244.734 174.461 M223.380 175.123 C 223.818 175.157,224.493 175.157,224.880 175.122 C 225.267 175.087,224.908 175.059,224.083 175.059 C 223.258 175.060,222.942 175.088,223.380 175.123 M231.573 175.542 L 231.083 176.083 231.625 175.594 C 232.130 175.138,232.243 175.000,232.115 175.000 C 232.086 175.000,231.842 175.244,231.573 175.542 M223.128 179.954 C 223.428 179.991,223.878 179.990,224.128 179.952 C 224.378 179.914,224.133 179.884,223.583 179.885 C 223.033 179.886,222.828 179.917,223.128 179.954 M266.881 188.250 C 266.882 188.708,266.915 188.876,266.953 188.623 C 266.991 188.369,266.990 187.994,266.951 187.789 C 266.911 187.584,266.880 187.792,266.881 188.250 M171.304 188.458 C 174.175 188.484,178.825 188.484,181.637 188.458 C 184.449 188.433,182.100 188.412,176.417 188.412 C 170.733 188.412,168.432 188.433,171.304 188.458 M160.971 193.292 C 164.667 193.317,170.667 193.317,174.304 193.292 C 177.941 193.267,174.917 193.246,167.583 193.246 C 160.250 193.246,157.274 193.267,160.971 193.292 M181.461 193.287 C 181.761 193.325,182.211 193.324,182.461 193.286 C 182.712 193.248,182.467 193.217,181.917 193.218 C 181.367 193.219,181.162 193.250,181.461 193.287 M183.455 193.287 C 183.750 193.324,184.275 193.324,184.621 193.288 C 184.967 193.252,184.725 193.222,184.083 193.221 C 183.442 193.221,183.159 193.250,183.455 193.287 " stroke="none" fill="#c9c9c7" fill-rule="evenodd"></path><path id="path4" d="M243.240 32.208 L 242.750 32.750 243.292 32.260 C 243.797 31.804,243.910 31.667,243.781 31.667 C 243.752 31.667,243.509 31.910,243.240 32.208 M259.708 34.115 C 259.869 34.157,260.131 34.157,260.292 34.115 C 260.452 34.073,260.321 34.039,260.000 34.039 C 259.679 34.039,259.548 34.073,259.708 34.115 M239.406 37.375 L 238.917 37.917 239.458 37.427 C 239.963 36.971,240.077 36.833,239.948 36.833 C 239.919 36.833,239.675 37.077,239.406 37.375 M257.125 38.954 C 257.423 38.991,257.910 38.991,258.208 38.954 C 258.506 38.917,258.262 38.887,257.667 38.887 C 257.071 38.887,256.827 38.917,257.125 38.954 M242.491 40.792 L 241.917 41.417 242.542 40.842 C 243.123 40.308,243.243 40.167,243.116 40.167 C 243.088 40.167,242.807 40.448,242.491 40.792 M220.631 42.790 C 221.115 42.824,221.865 42.823,222.297 42.789 C 222.730 42.755,222.333 42.727,221.417 42.728 C 220.500 42.728,220.146 42.756,220.631 42.790 M198.211 43.953 C 198.464 43.991,198.839 43.990,199.044 43.951 C 199.249 43.911,199.042 43.880,198.583 43.881 C 198.125 43.882,197.957 43.915,198.211 43.953 M265.333 48.583 C 265.831 49.087,266.276 49.500,266.322 49.500 C 266.368 49.500,265.998 49.087,265.500 48.583 C 265.002 48.079,264.557 47.667,264.511 47.667 C 264.466 47.667,264.835 48.079,265.333 48.583 M269.727 59.167 C 269.727 60.038,269.755 60.394,269.789 59.958 C 269.824 59.523,269.824 58.810,269.789 58.375 C 269.755 57.940,269.727 58.296,269.727 59.167 M167.658 58.792 L 167.083 59.417 167.708 58.842 C 168.290 58.308,168.410 58.167,168.283 58.167 C 168.255 58.167,167.974 58.448,167.658 58.792 M165.994 60.458 L 165.083 61.417 166.042 60.506 C 166.569 60.005,167.000 59.573,167.000 59.547 C 167.000 59.424,166.841 59.568,165.994 60.458 M171.740 61.375 L 171.250 61.917 171.792 61.427 C 172.297 60.971,172.410 60.833,172.281 60.833 C 172.252 60.833,172.009 61.077,171.740 61.375 M163.740 62.875 L 163.250 63.417 163.792 62.927 C 164.090 62.658,164.333 62.414,164.333 62.385 C 164.333 62.257,164.196 62.370,163.740 62.875 M236.039 69.167 C 236.039 69.487,236.073 69.619,236.115 69.458 C 236.157 69.298,236.157 69.035,236.115 68.875 C 236.073 68.715,236.039 68.846,236.039 69.167 M236.228 73.083 C 236.228 74.000,236.256 74.354,236.290 73.869 C 236.324 73.385,236.323 72.635,236.289 72.203 C 236.255 71.770,236.227 72.167,236.228 73.083 M240.714 76.083 C 240.716 76.542,240.748 76.709,240.786 76.456 C 240.825 76.203,240.824 75.828,240.784 75.623 C 240.744 75.418,240.713 75.625,240.714 76.083 M214.083 76.500 L 212.917 76.608 214.032 76.637 C 214.645 76.653,215.193 76.592,215.250 76.500 C 215.307 76.408,215.330 76.347,215.302 76.363 C 215.273 76.379,214.725 76.441,214.083 76.500 M236.048 77.417 C 236.049 77.875,236.081 78.043,236.120 77.789 C 236.158 77.536,236.157 77.161,236.117 76.956 C 236.078 76.751,236.046 76.958,236.048 77.417 M240.539 78.833 C 240.539 79.154,240.573 79.285,240.615 79.125 C 240.657 78.965,240.657 78.702,240.615 78.542 C 240.573 78.381,240.539 78.512,240.539 78.833 M252.708 79.282 C 252.869 79.323,253.131 79.323,253.292 79.282 C 253.452 79.240,253.321 79.205,253.000 79.205 C 252.679 79.205,252.548 79.240,252.708 79.282 M213.910 81.289 C 215.229 81.326,215.953 81.413,216.048 81.547 C 216.151 81.693,216.173 81.679,216.124 81.500 C 216.068 81.295,215.680 81.248,213.986 81.241 L 211.917 81.233 213.910 81.289 M185.406 86.042 L 184.917 86.583 185.458 86.094 C 185.963 85.638,186.077 85.500,185.948 85.500 C 185.919 85.500,185.675 85.744,185.406 86.042 M216.705 87.500 C 216.705 87.821,216.740 87.952,216.782 87.792 C 216.823 87.631,216.823 87.369,216.782 87.208 C 216.740 87.048,216.705 87.179,216.705 87.500 M216.872 89.667 C 216.872 89.987,216.906 90.119,216.948 89.958 C 216.990 89.798,216.990 89.535,216.948 89.375 C 216.906 89.215,216.872 89.346,216.872 89.667 M221.545 90.000 C 221.545 90.412,221.578 90.581,221.618 90.375 C 221.657 90.169,221.657 89.831,221.618 89.625 C 221.578 89.419,221.545 89.587,221.545 90.000 M217.042 92.417 C 217.044 92.783,217.078 92.914,217.118 92.706 C 217.158 92.499,217.156 92.199,217.115 92.040 C 217.073 91.880,217.040 92.050,217.042 92.417 M221.712 92.833 C 221.712 93.246,221.745 93.415,221.784 93.208 C 221.824 93.002,221.824 92.665,221.784 92.458 C 221.745 92.252,221.712 92.421,221.712 92.833 M217.205 95.167 C 217.205 95.487,217.240 95.619,217.282 95.458 C 217.323 95.298,217.323 95.035,217.282 94.875 C 217.240 94.715,217.205 94.846,217.205 95.167 M221.879 95.833 C 221.879 96.246,221.911 96.415,221.951 96.208 C 221.991 96.002,221.991 95.665,221.951 95.458 C 221.911 95.252,221.879 95.421,221.879 95.833 M222.039 98.833 C 222.039 99.154,222.073 99.285,222.115 99.125 C 222.157 98.965,222.157 98.702,222.115 98.542 C 222.073 98.381,222.039 98.513,222.039 98.833 M217.545 100.500 C 217.545 100.912,217.578 101.081,217.618 100.875 C 217.657 100.669,217.657 100.331,217.618 100.125 C 217.578 99.919,217.545 100.087,217.545 100.500 M222.205 101.667 C 222.205 101.987,222.240 102.119,222.282 101.958 C 222.323 101.798,222.323 101.535,222.282 101.375 C 222.240 101.215,222.205 101.346,222.205 101.667 M217.720 104.333 C 217.720 104.929,217.750 105.173,217.787 104.875 C 217.824 104.577,217.824 104.090,217.787 103.792 C 217.750 103.494,217.720 103.737,217.720 104.333 M222.388 104.750 C 222.389 105.392,222.419 105.634,222.455 105.288 C 222.491 104.942,222.490 104.417,222.454 104.121 C 222.417 103.825,222.387 104.108,222.388 104.750 M184.872 106.500 C 184.872 106.821,184.906 106.952,184.948 106.792 C 184.990 106.631,184.990 106.369,184.948 106.208 C 184.906 106.048,184.872 106.179,184.872 106.500 M237.212 108.000 C 237.212 108.412,237.245 108.581,237.284 108.375 C 237.324 108.169,237.324 107.831,237.284 107.625 C 237.245 107.419,237.212 107.587,237.212 108.000 M180.397 109.583 C 180.397 110.683,180.424 111.112,180.457 110.535 C 180.490 109.959,180.489 109.059,180.456 108.535 C 180.423 108.012,180.397 108.483,180.397 109.583 M217.892 109.000 C 217.892 109.779,217.920 110.098,217.955 109.708 C 217.990 109.319,217.990 108.681,217.955 108.292 C 217.920 107.902,217.892 108.221,217.892 109.000 M222.561 110.250 C 222.561 111.167,222.589 111.520,222.623 111.036 C 222.657 110.552,222.656 109.802,222.622 109.369 C 222.588 108.937,222.560 109.333,222.561 110.250 M185.042 110.083 C 185.044 110.450,185.078 110.580,185.118 110.373 C 185.158 110.166,185.156 109.866,185.115 109.706 C 185.073 109.547,185.040 109.717,185.042 110.083 M237.209 111.250 C 237.211 111.617,237.245 111.747,237.285 111.540 C 237.324 111.332,237.323 111.032,237.281 110.873 C 237.239 110.714,237.207 110.883,237.209 111.250 M184.872 112.667 C 184.872 112.987,184.906 113.119,184.948 112.958 C 184.990 112.798,184.990 112.535,184.948 112.375 C 184.906 112.215,184.872 112.346,184.872 112.667 M218.048 113.750 C 218.049 114.208,218.081 114.376,218.120 114.123 C 218.158 113.869,218.157 113.494,218.117 113.289 C 218.078 113.084,218.046 113.292,218.048 113.750 M222.714 113.917 C 222.716 114.375,222.748 114.543,222.786 114.289 C 222.825 114.036,222.824 113.661,222.784 113.456 C 222.744 113.251,222.713 113.458,222.714 113.917 M172.824 126.792 L 172.250 127.417 172.875 126.842 C 173.457 126.308,173.577 126.167,173.449 126.167 C 173.422 126.167,173.140 126.448,172.824 126.792 M235.872 131.500 C 235.872 131.821,235.906 131.952,235.948 131.792 C 235.990 131.631,235.990 131.369,235.948 131.208 C 235.906 131.048,235.872 131.179,235.872 131.500 M173.491 132.458 L 172.917 133.083 173.542 132.509 C 174.123 131.974,174.243 131.833,174.116 131.833 C 174.088 131.833,173.807 132.115,173.491 132.458 M240.539 132.500 C 240.539 132.821,240.573 132.952,240.615 132.792 C 240.657 132.631,240.657 132.369,240.615 132.208 C 240.573 132.048,240.539 132.179,240.539 132.500 M140.052 133.583 C 140.053 134.133,140.084 134.338,140.121 134.039 C 140.158 133.739,140.157 133.289,140.119 133.039 C 140.081 132.788,140.051 133.033,140.052 133.583 M167.904 137.083 C 167.904 139.100,167.929 139.902,167.958 138.866 C 167.987 137.829,167.987 136.179,167.958 135.199 C 167.928 134.219,167.904 135.067,167.904 137.083 M135.387 134.667 C 135.387 135.262,135.417 135.506,135.454 135.208 C 135.491 134.910,135.491 134.423,135.454 134.125 C 135.417 133.827,135.387 134.071,135.387 134.667 M236.061 135.583 C 236.061 136.500,236.089 136.854,236.123 136.369 C 236.157 135.885,236.156 135.135,236.122 134.703 C 236.088 134.270,236.060 134.667,236.061 135.583 M240.741 141.750 C 240.742 144.867,240.764 146.118,240.791 144.531 C 240.819 142.944,240.819 140.394,240.791 138.864 C 240.764 137.335,240.741 138.633,240.741 141.750 M135.385 143.083 C 135.386 143.633,135.417 143.838,135.454 143.539 C 135.491 143.239,135.490 142.789,135.452 142.539 C 135.414 142.288,135.384 142.533,135.385 143.083 M172.390 143.917 C 172.391 144.650,172.420 144.929,172.456 144.537 C 172.491 144.145,172.490 143.545,172.454 143.204 C 172.419 142.863,172.390 143.183,172.390 143.917 M140.050 144.167 C 140.050 144.671,140.081 144.877,140.119 144.625 C 140.158 144.373,140.158 143.960,140.119 143.708 C 140.081 143.456,140.050 143.662,140.050 144.167 M167.717 145.167 C 167.717 145.671,167.748 145.877,167.786 145.625 C 167.824 145.373,167.824 144.960,167.786 144.708 C 167.748 144.456,167.717 144.662,167.717 145.167 M172.205 147.500 C 172.205 147.821,172.240 147.952,172.282 147.792 C 172.323 147.631,172.323 147.369,172.282 147.208 C 172.240 147.048,172.205 147.179,172.205 147.500 M167.539 148.167 C 167.539 148.487,167.573 148.619,167.615 148.458 C 167.657 148.298,167.657 148.035,167.615 147.875 C 167.573 147.715,167.539 147.846,167.539 148.167 M236.217 149.667 C 236.217 150.171,236.248 150.377,236.286 150.125 C 236.324 149.873,236.324 149.460,236.286 149.208 C 236.248 148.956,236.217 149.162,236.217 149.667 M240.881 151.083 C 240.882 151.542,240.915 151.709,240.953 151.456 C 240.991 151.203,240.990 150.828,240.951 150.623 C 240.911 150.418,240.880 150.625,240.881 151.083 M241.039 153.833 C 241.039 154.154,241.073 154.285,241.115 154.125 C 241.157 153.965,241.157 153.702,241.115 153.542 C 241.073 153.381,241.039 153.512,241.039 153.833 M227.717 160.000 C 227.717 160.504,227.748 160.710,227.786 160.458 C 227.824 160.206,227.824 159.794,227.786 159.542 C 227.748 159.290,227.717 159.496,227.717 160.000 M232.209 161.417 C 232.211 161.783,232.245 161.914,232.285 161.706 C 232.324 161.499,232.323 161.199,232.281 161.040 C 232.239 160.880,232.207 161.050,232.209 161.417 M232.057 163.917 C 232.058 164.650,232.087 164.929,232.122 164.537 C 232.157 164.145,232.157 163.545,232.121 163.204 C 232.085 162.863,232.057 163.183,232.057 163.917 M182.298 167.957 C 182.875 167.990,183.775 167.989,184.298 167.956 C 184.822 167.923,184.350 167.897,183.250 167.897 C 182.150 167.897,181.722 167.924,182.298 167.957 M234.875 168.948 C 235.035 168.990,235.298 168.990,235.458 168.948 C 235.619 168.906,235.487 168.872,235.167 168.872 C 234.846 168.872,234.715 168.906,234.875 168.948 M181.128 172.621 C 181.428 172.658,181.878 172.657,182.128 172.619 C 182.378 172.581,182.133 172.551,181.583 172.552 C 181.033 172.553,180.828 172.584,181.128 172.621 M184.294 172.618 C 184.501 172.658,184.801 172.656,184.960 172.615 C 185.120 172.573,184.950 172.540,184.583 172.542 C 184.217 172.544,184.086 172.578,184.294 172.618 M249.712 174.833 C 249.712 175.246,249.745 175.415,249.784 175.208 C 249.824 175.002,249.824 174.665,249.784 174.458 C 249.745 174.252,249.712 174.421,249.712 174.833 M241.500 177.917 C 241.811 178.237,242.103 178.500,242.149 178.500 C 242.195 178.500,241.978 178.237,241.667 177.917 C 241.356 177.596,241.064 177.333,241.018 177.333 C 240.972 177.333,241.189 177.596,241.500 177.917 M229.324 178.125 L 228.750 178.750 229.375 178.176 C 229.719 177.860,230.000 177.578,230.000 177.551 C 230.000 177.423,229.859 177.543,229.324 178.125 M264.833 184.385 C 264.833 184.414,265.077 184.658,265.375 184.927 L 265.917 185.417 265.427 184.875 C 264.971 184.370,264.833 184.257,264.833 184.385 M145.083 188.833 C 145.441 189.200,145.772 189.500,145.818 189.500 C 145.863 189.500,145.608 189.200,145.250 188.833 C 144.892 188.467,144.562 188.167,144.516 188.167 C 144.470 188.167,144.725 188.467,145.083 188.833 M200.542 188.455 C 200.885 188.491,201.448 188.491,201.792 188.455 C 202.135 188.419,201.854 188.389,201.167 188.389 C 200.479 188.389,200.198 188.419,200.542 188.455 M217.945 188.458 C 226.027 188.482,239.302 188.482,247.445 188.458 C 255.588 188.434,248.975 188.415,232.750 188.415 C 216.525 188.415,209.863 188.434,217.945 188.458 M223.458 193.118 C 223.665 193.157,224.002 193.157,224.208 193.118 C 224.415 193.078,224.246 193.045,223.833 193.045 C 223.421 193.045,223.252 193.078,223.458 193.118 M233.554 193.125 C 238.397 193.150,246.272 193.150,251.054 193.125 C 255.837 193.100,251.875 193.080,242.250 193.080 C 232.625 193.080,228.712 193.100,233.554 193.125 " stroke="none" fill="#747c78" fill-rule="evenodd"></path></g></svg>