<svg id="svg" version="1.1" xmlns="http://www.w3.org/2000/svg" xmlns:xlink="http://www.w3.org/1999/xlink" width="400" height="218.1818181818182" viewBox="0, 0, 400,218.1818181818182"><g id="svgg"><path id="path0" d="M0.000 109.083 L 0.000 218.167 94.042 218.155 C 163.091 218.147,187.973 218.095,187.667 217.959 C 185.256 216.889,184.673 216.463,183.783 215.122 C 181.676 211.948,182.278 207.974,185.761 202.058 C 187.291 199.460,189.922 193.637,189.758 193.212 C 189.710 193.086,189.737 193.024,189.818 193.074 C 189.899 193.124,190.000 193.071,190.044 192.957 C 190.729 191.146,191.578 188.490,192.002 186.833 C 193.569 180.708,194.282 178.384,195.409 175.733 C 196.491 173.186,198.033 170.660,199.926 168.335 L 201.016 166.996 199.883 167.097 C 199.260 167.152,197.775 167.303,196.583 167.433 C 184.604 168.733,169.691 167.477,162.333 164.546 C 149.787 159.550,146.119 145.962,154.091 134.015 C 155.207 132.342,154.867 132.769,160.140 126.417 C 161.832 124.378,163.960 121.044,165.617 117.833 C 167.863 113.483,170.585 105.573,173.827 93.977 C 174.961 89.923,176.122 87.091,177.751 84.406 C 179.342 81.783,180.245 80.694,183.119 77.929 C 185.848 75.305,186.524 74.358,187.028 72.456 L 187.403 71.040 187.014 68.312 C 185.818 59.914,187.599 54.078,192.631 49.902 C 197.670 45.720,206.111 45.462,211.833 49.315 C 212.327 49.648,212.605 49.751,212.648 49.619 C 212.739 49.329,215.651 44.015,215.995 43.508 C 216.153 43.274,216.854 42.221,217.553 41.167 C 218.251 40.112,219.721 37.938,220.819 36.333 C 230.600 22.042,230.646 21.955,230.669 17.500 C 230.694 12.669,231.795 10.533,237.994 3.281 C 239.312 1.741,241.051 0.396,242.024 0.166 C 242.332 0.094,188.002 0.026,121.292 0.017 L 0.000 0.000 0.000 109.083 M245.562 0.291 C 249.420 1.576,250.577 9.524,248.093 17.689 C 247.212 20.586,246.674 21.701,245.089 23.917 C 243.690 25.873,242.801 27.282,242.266 28.395 C 241.223 30.564,238.807 35.891,238.061 37.667 C 237.656 38.629,237.143 39.829,236.921 40.333 C 236.699 40.837,236.246 41.887,235.915 42.667 C 231.732 52.489,228.332 58.812,225.026 62.917 C 223.547 64.752,217.634 71.951,216.470 73.334 C 215.891 74.021,215.192 74.856,214.917 75.188 C 213.513 76.884,207.410 83.891,206.516 84.833 L 205.488 85.917 205.585 86.917 C 205.638 87.467,205.901 88.817,206.168 89.917 C 207.266 94.427,207.496 95.521,207.812 97.750 C 208.745 104.322,208.248 107.999,205.679 113.542 C 205.307 114.345,205.003 115.040,205.005 115.087 C 205.006 115.134,204.929 115.265,204.834 115.378 C 204.739 115.491,203.515 117.308,202.113 119.417 C 200.712 121.525,198.956 124.112,198.211 125.167 C 197.466 126.221,196.700 127.308,196.508 127.583 C 194.590 130.334,193.029 132.827,191.916 134.917 C 191.575 135.558,191.082 136.462,190.821 136.926 L 190.346 137.768 193.215 138.234 C 196.627 138.788,201.354 139.709,202.750 140.092 C 203.300 140.243,204.125 140.463,204.583 140.580 C 206.574 141.090,209.901 142.022,211.750 142.588 C 212.850 142.925,214.125 143.301,214.583 143.425 C 218.436 144.465,223.390 146.669,225.636 148.340 C 230.803 152.187,232.417 158.828,229.688 165.011 C 228.585 167.512,223.293 176.160,220.417 180.161 C 219.239 181.800,218.038 183.485,217.384 184.417 C 217.126 184.783,215.678 186.733,214.165 188.750 C 212.653 190.767,211.288 192.604,211.131 192.833 C 210.975 193.063,210.451 193.819,209.966 194.514 C 206.861 198.963,205.041 201.946,205.287 202.182 C 206.593 203.438,215.550 207.438,217.768 207.756 C 220.226 208.109,222.541 209.613,223.434 211.437 C 224.471 213.557,223.852 216.778,222.196 217.870 C 221.769 218.152,225.643 218.165,310.875 218.166 L 400.000 218.167 400.000 109.083 L 400.000 0.000 322.375 0.010 C 250.523 0.020,244.810 0.041,245.562 0.291 M242.315 6.292 C 240.774 7.929,238.717 10.463,237.481 12.250 C 236.034 14.339,235.874 14.937,235.663 19.043 C 235.484 22.541,235.418 22.836,234.309 25.078 C 233.247 27.227,230.029 32.217,225.491 38.750 C 221.734 44.159,218.895 48.708,217.326 51.833 C 215.210 56.046,213.487 58.071,203.148 68.492 C 200.686 70.974,198.953 72.296,195.500 74.327 C 192.147 76.300,190.128 78.022,187.365 81.269 C 186.810 81.921,185.787 82.971,185.092 83.603 C 183.557 84.996,182.771 86.001,181.775 87.846 C 180.345 90.495,179.708 92.254,178.161 97.833 C 177.792 99.162,177.351 100.662,177.181 101.167 C 177.011 101.671,176.630 102.946,176.334 104.000 C 175.348 107.518,173.988 111.603,172.950 114.167 C 171.335 118.156,169.291 122.432,168.331 123.831 C 168.173 124.062,167.703 124.775,167.286 125.417 C 165.765 127.758,164.756 129.122,163.186 130.960 C 157.828 137.234,156.184 140.035,155.428 144.180 C 152.587 159.745,170.633 165.866,205.434 161.141 C 209.698 160.562,209.908 160.575,210.843 161.465 C 212.528 163.069,212.118 164.425,209.314 166.531 C 205.037 169.745,201.553 174.268,199.718 178.992 C 198.997 180.849,198.418 182.862,197.080 188.167 C 195.739 193.487,192.185 201.702,188.819 207.262 C 187.891 208.796,187.549 211.428,188.176 212.224 C 188.793 213.009,189.038 213.022,203.542 213.054 L 217.209 213.083 215.896 212.700 C 213.357 211.960,212.901 211.801,211.083 211.029 C 207.054 209.317,202.590 206.872,201.408 205.729 C 198.679 203.091,199.783 199.608,206.083 190.990 C 206.267 190.739,206.668 190.170,206.975 189.725 C 207.281 189.281,207.977 188.317,208.521 187.583 C 210.603 184.776,213.114 181.357,213.833 180.349 C 214.246 179.772,214.741 179.101,214.933 178.858 C 215.126 178.615,215.838 177.591,216.517 176.582 C 217.679 174.854,218.376 173.775,219.853 171.417 C 221.287 169.128,222.408 167.376,222.846 166.737 C 227.280 160.277,226.629 154.804,221.047 151.615 C 218.854 150.362,214.398 148.729,209.583 147.415 C 208.667 147.165,207.204 146.753,206.333 146.500 C 198.284 144.163,187.805 142.424,179.667 142.075 C 175.889 141.913,174.833 141.300,174.834 139.271 C 174.835 136.947,176.822 136.465,183.782 137.101 L 184.648 137.180 185.547 135.632 C 186.041 134.780,187.046 132.996,187.779 131.667 C 188.954 129.539,190.387 127.244,191.417 125.843 C 191.600 125.594,192.044 124.946,192.402 124.403 C 192.761 123.861,193.099 123.379,193.152 123.333 C 193.456 123.074,199.684 113.674,200.474 112.281 C 201.315 110.798,202.322 108.068,202.851 105.833 C 203.182 104.433,203.090 100.780,202.668 98.583 C 202.474 97.575,202.217 96.225,202.096 95.583 C 201.883 94.448,201.197 91.315,201.062 90.854 C 200.888 90.262,199.022 93.597,198.648 95.167 C 198.214 96.991,197.340 97.834,195.883 97.833 C 191.239 97.829,193.191 91.064,199.804 84.249 C 203.559 80.378,205.409 78.353,208.187 75.070 C 209.047 74.055,210.349 72.527,211.081 71.675 C 211.813 70.823,212.563 69.917,212.748 69.662 C 212.932 69.407,214.246 67.813,215.667 66.120 C 221.133 59.606,222.272 58.119,224.132 55.063 C 226.093 51.842,229.107 45.456,232.499 37.333 C 232.672 36.921,233.260 35.571,233.807 34.333 C 234.353 33.096,235.042 31.526,235.336 30.845 C 235.847 29.664,236.797 27.693,238.137 25.035 C 238.474 24.366,239.410 22.904,240.216 21.785 C 242.357 18.812,243.094 17.105,243.954 13.121 C 244.521 10.495,244.229 5.333,243.514 5.333 C 243.351 5.333,242.811 5.765,242.315 6.292 M200.250 51.934 C 193.353 53.600,190.788 59.146,192.389 68.936 L 192.583 70.122 194.505 68.853 C 195.561 68.155,196.766 67.305,197.181 66.964 C 199.403 65.144,209.619 54.494,209.433 54.193 C 208.584 52.819,202.640 51.356,200.250 51.934 " stroke="none" fill="#fbfbfb" fill-rule="evenodd"></path><path id="path1" d="M241.881 0.415 C 240.106 1.098,239.219 1.936,235.869 6.093 C 231.577 11.418,231.077 12.545,230.822 17.467 C 230.575 22.246,230.346 22.726,223.735 32.333 C 222.946 33.479,221.897 35.017,221.402 35.750 C 220.908 36.483,219.983 37.833,219.347 38.750 C 217.209 41.829,215.109 45.233,213.870 47.627 C 213.059 49.194,212.574 49.963,212.445 49.886 C 212.338 49.822,211.843 49.510,211.346 49.194 C 205.539 45.502,197.493 45.975,192.407 50.310 C 187.671 54.346,186.046 59.835,187.151 68.064 C 187.810 72.966,187.446 73.856,182.933 78.365 C 177.799 83.497,175.547 87.617,173.524 95.583 C 172.535 99.479,169.140 110.086,167.924 113.083 C 165.491 119.079,162.738 123.656,158.751 128.333 C 154.511 133.307,152.946 135.657,151.647 139.000 C 147.481 149.722,151.566 159.747,161.917 164.199 C 169.335 167.390,184.774 168.595,198.638 167.066 C 201.327 166.770,201.387 166.783,200.768 167.538 C 196.507 172.740,194.883 176.200,192.729 184.667 C 190.919 191.782,188.370 198.108,185.176 203.417 C 181.239 209.960,182.127 215.724,187.367 217.639 L 188.583 218.083 205.010 218.130 L 221.437 218.176 222.141 217.666 C 224.366 216.054,224.342 211.839,222.096 209.867 C 221.056 208.953,220.121 208.529,218.000 208.007 C 215.702 207.442,214.996 207.235,214.250 206.908 C 209.935 205.017,205.927 202.976,205.271 202.337 C 204.967 202.041,204.975 202.007,205.591 200.975 C 207.862 197.168,210.127 193.866,213.936 188.806 C 216.216 185.777,218.638 182.440,221.413 178.500 C 223.392 175.692,228.181 167.788,229.239 165.583 C 232.896 157.964,230.188 150.332,222.500 146.594 C 217.696 144.258,204.102 140.240,196.830 139.006 C 195.778 138.827,194.317 138.573,193.583 138.442 C 192.850 138.311,191.781 138.150,191.208 138.085 C 190.635 138.020,190.167 137.939,190.167 137.904 C 190.167 137.842,190.729 136.776,192.119 134.204 C 192.863 132.829,196.081 127.909,198.303 124.750 C 204.126 116.472,205.791 113.589,207.110 109.500 C 208.547 105.045,208.336 98.987,206.494 91.833 C 205.115 86.478,205.102 86.176,206.188 85.000 C 211.575 79.168,224.925 63.052,227.243 59.583 C 229.500 56.205,232.668 49.901,235.745 42.667 C 241.114 30.044,242.288 27.628,244.780 24.076 C 247.190 20.640,248.105 18.249,249.000 13.050 C 249.283 11.411,249.237 6.440,248.928 5.107 C 248.009 1.142,245.072 -0.813,241.881 0.415 M243.899 5.305 C 244.120 5.662,244.342 7.881,244.341 9.717 C 244.339 14.152,243.086 18.177,240.726 21.333 C 238.800 23.909,238.117 25.147,235.670 30.500 C 234.644 32.744,234.403 33.297,231.323 40.500 C 225.704 53.635,224.157 56.208,215.997 65.983 C 206.292 77.609,204.841 79.270,200.413 83.832 C 195.825 88.559,193.500 92.422,193.500 95.316 C 193.500 98.302,197.598 98.566,198.330 95.627 C 198.852 93.531,201.167 89.421,201.167 90.590 C 201.167 90.640,201.462 92.013,201.823 93.641 C 203.900 103.007,203.704 106.263,200.714 112.051 C 199.905 113.619,195.110 120.899,192.130 125.083 C 190.172 127.834,189.083 129.541,188.037 131.500 C 187.719 132.096,186.849 133.661,186.104 134.978 L 184.750 137.373 183.500 137.268 C 176.545 136.679,175.000 137.044,175.000 139.272 C 175.000 141.080,175.932 141.686,178.989 141.867 C 188.833 142.448,196.930 143.737,205.333 146.061 C 221.655 150.576,225.039 152.518,225.849 157.833 C 226.304 160.817,225.495 162.831,220.998 169.917 C 216.925 176.333,215.453 178.489,211.894 183.251 C 210.798 184.717,209.680 186.227,209.409 186.607 C 209.138 186.987,208.467 187.917,207.917 188.674 C 197.792 202.610,197.687 204.087,206.501 208.707 C 208.938 209.985,212.603 211.538,214.583 212.133 C 215.500 212.408,216.625 212.746,217.083 212.884 C 217.841 213.112,216.629 213.136,203.712 213.151 C 187.941 213.168,188.510 213.206,187.913 212.099 C 187.250 210.868,187.787 208.708,189.466 205.849 C 193.161 199.561,195.619 193.322,197.911 184.417 C 200.064 176.049,203.649 170.384,209.382 166.290 C 211.538 164.751,212.024 163.844,211.439 162.445 C 210.793 160.898,209.890 160.698,206.053 161.249 C 203.054 161.680,196.806 162.344,192.667 162.671 C 184.130 163.346,172.870 162.414,166.290 160.486 C 157.209 157.826,153.143 150.767,155.765 142.211 C 156.819 138.771,158.399 136.298,162.894 131.056 C 168.520 124.496,173.145 115.121,176.078 104.333 C 176.290 103.554,176.739 102.017,177.075 100.917 C 177.411 99.817,178.054 97.591,178.503 95.972 C 180.011 90.535,181.469 87.402,183.821 84.542 C 184.142 84.152,184.484 83.833,184.582 83.833 C 184.816 83.833,186.458 82.131,188.076 80.209 C 190.084 77.826,192.332 76.062,196.907 73.280 C 199.677 71.596,200.978 70.487,205.083 66.308 C 211.177 60.106,213.707 57.369,214.926 55.662 C 215.734 54.528,215.753 54.495,217.380 51.417 C 218.599 49.109,219.102 48.225,220.086 46.667 C 221.690 44.126,222.706 42.581,224.610 39.794 C 234.942 24.668,235.365 23.853,235.583 18.667 C 235.773 14.145,235.956 13.729,239.905 8.833 C 242.235 5.944,243.567 4.768,243.899 5.305 M204.799 51.921 C 206.170 52.193,208.881 53.408,209.402 53.984 C 210.111 54.767,198.618 66.364,194.457 69.062 C 192.177 70.541,192.333 70.489,192.333 69.767 C 192.333 69.455,192.183 68.322,192.000 67.250 C 190.269 57.125,196.060 50.189,204.799 51.921 " stroke="none" fill="#060606" fill-rule="evenodd"></path><path id="path2" d="M208.824 55.125 L 208.250 55.750 208.875 55.176 C 209.219 54.860,209.500 54.578,209.500 54.551 C 209.500 54.423,209.359 54.543,208.824 55.125 M191.714 63.417 C 191.716 63.875,191.748 64.043,191.786 63.789 C 191.825 63.536,191.824 63.161,191.784 62.956 C 191.744 62.751,191.713 62.958,191.714 63.417 M206.744 64.708 L 205.917 65.583 206.792 64.756 C 207.273 64.301,207.667 63.908,207.667 63.881 C 207.667 63.757,207.512 63.895,206.744 64.708 M185.494 83.125 L 184.583 84.083 185.542 83.172 C 186.069 82.671,186.500 82.240,186.500 82.214 C 186.500 82.090,186.341 82.235,185.494 83.125 M199.075 85.042 L 198.417 85.750 199.125 85.091 C 199.515 84.729,199.833 84.410,199.833 84.383 C 199.833 84.257,199.688 84.383,199.075 85.042 M179.042 136.948 C 179.202 136.990,179.465 136.990,179.625 136.948 C 179.785 136.906,179.654 136.872,179.333 136.872 C 179.012 136.872,178.881 136.906,179.042 136.948 M177.711 141.953 C 177.964 141.991,178.339 141.990,178.544 141.951 C 178.749 141.911,178.542 141.880,178.083 141.881 C 177.625 141.882,177.457 141.915,177.711 141.953 M182.292 162.784 C 182.498 162.824,182.835 162.824,183.042 162.784 C 183.248 162.745,183.079 162.712,182.667 162.712 C 182.254 162.712,182.085 162.745,182.292 162.784 M188.458 162.784 C 188.665 162.824,189.002 162.824,189.208 162.784 C 189.415 162.745,189.246 162.712,188.833 162.712 C 188.421 162.712,188.252 162.745,188.458 162.784 M180.794 167.785 C 181.001 167.824,181.301 167.823,181.460 167.781 C 181.620 167.739,181.450 167.707,181.083 167.709 C 180.717 167.711,180.586 167.745,180.794 167.785 M190.627 167.785 C 190.834 167.824,191.134 167.823,191.294 167.781 C 191.453 167.739,191.283 167.707,190.917 167.709 C 190.550 167.711,190.420 167.745,190.627 167.785 M221.833 209.552 C 221.833 209.581,222.077 209.825,222.375 210.094 L 222.917 210.583 222.427 210.042 C 221.971 209.537,221.833 209.423,221.833 209.552 " stroke="none" fill="#999997" fill-rule="evenodd"></path><path id="path3" d="M242.406 6.042 L 241.917 6.583 242.458 6.094 C 242.963 5.638,243.077 5.500,242.948 5.500 C 242.919 5.500,242.675 5.744,242.406 6.042 M201.796 46.622 C 202.188 46.657,202.788 46.657,203.129 46.621 C 203.471 46.585,203.150 46.557,202.417 46.557 C 201.683 46.558,201.404 46.587,201.796 46.622 M202.127 51.785 C 202.334 51.824,202.634 51.823,202.794 51.781 C 202.953 51.739,202.783 51.707,202.417 51.709 C 202.050 51.711,201.920 51.745,202.127 51.785 M201.911 62.375 L 200.917 63.417 201.958 62.422 C 202.531 61.875,203.000 61.406,203.000 61.380 C 203.000 61.257,202.836 61.407,201.911 62.375 M208.578 62.875 L 207.583 63.917 208.625 62.922 C 209.593 61.998,209.743 61.833,209.620 61.833 C 209.594 61.833,209.125 62.302,208.578 62.875 M202.742 68.875 L 202.083 69.583 202.792 68.925 C 203.181 68.562,203.500 68.243,203.500 68.216 C 203.500 68.090,203.355 68.216,202.742 68.875 M184.244 76.875 L 183.417 77.750 184.292 76.923 C 184.773 76.468,185.167 76.074,185.167 76.048 C 185.167 75.924,185.012 76.062,184.244 76.875 M181.073 79.875 L 180.583 80.417 181.125 79.927 C 181.630 79.471,181.743 79.333,181.615 79.333 C 181.586 79.333,181.342 79.577,181.073 79.875 M202.410 81.542 L 201.583 82.417 202.458 81.590 C 202.940 81.135,203.333 80.741,203.333 80.715 C 203.333 80.590,203.179 80.729,202.410 81.542 M207.906 83.208 L 207.417 83.750 207.958 83.260 C 208.256 82.991,208.500 82.748,208.500 82.719 C 208.500 82.590,208.362 82.703,207.906 83.208 M183.987 84.458 L 183.583 84.917 184.083 84.500 C 184.358 84.271,184.615 84.065,184.653 84.042 C 184.691 84.019,184.648 84.000,184.557 84.000 C 184.466 84.000,184.210 84.206,183.987 84.458 M203.039 101.667 C 203.039 101.987,203.073 102.119,203.115 101.958 C 203.157 101.798,203.157 101.535,203.115 101.375 C 203.073 101.215,203.039 101.346,203.039 101.667 M208.223 102.833 C 208.223 103.521,208.252 103.802,208.288 103.458 C 208.324 103.115,208.324 102.552,208.288 102.208 C 208.252 101.865,208.223 102.146,208.223 102.833 M180.042 136.948 C 180.202 136.990,180.465 136.990,180.625 136.948 C 180.785 136.906,180.654 136.872,180.333 136.872 C 180.012 136.872,179.881 136.906,180.042 136.948 M149.872 146.333 C 149.872 146.654,149.906 146.785,149.948 146.625 C 149.990 146.465,149.990 146.202,149.948 146.042 C 149.906 145.881,149.872 146.012,149.872 146.333 M155.048 147.417 C 155.049 147.875,155.081 148.043,155.120 147.789 C 155.158 147.536,155.157 147.161,155.117 146.956 C 155.078 146.751,155.046 146.958,155.048 147.417 M149.879 147.667 C 149.879 148.079,149.911 148.248,149.951 148.042 C 149.991 147.835,149.991 147.498,149.951 147.292 C 149.911 147.085,149.879 147.254,149.879 147.667 M227.083 149.667 C 227.441 150.033,227.772 150.333,227.818 150.333 C 227.863 150.333,227.608 150.033,227.250 149.667 C 226.892 149.300,226.562 149.000,226.516 149.000 C 226.470 149.000,226.725 149.300,227.083 149.667 M191.375 162.615 C 191.535 162.657,191.798 162.657,191.958 162.615 C 192.119 162.573,191.987 162.539,191.667 162.539 C 191.346 162.539,191.215 162.573,191.375 162.615 M184.549 162.791 C 185.264 162.822,186.389 162.822,187.049 162.790 C 187.710 162.759,187.125 162.733,185.750 162.733 C 184.375 162.734,183.835 162.759,184.549 162.791 M179.627 167.785 C 179.834 167.824,180.134 167.823,180.294 167.781 C 180.453 167.739,180.283 167.707,179.917 167.709 C 179.550 167.711,179.420 167.745,179.627 167.785 M191.792 167.784 C 191.998 167.824,192.335 167.824,192.542 167.784 C 192.748 167.745,192.579 167.712,192.167 167.712 C 191.754 167.712,191.585 167.745,191.792 167.784 M184.208 167.958 C 185.102 167.988,186.565 167.988,187.458 167.958 C 188.352 167.928,187.621 167.903,185.833 167.903 C 184.046 167.903,183.315 167.928,184.208 167.958 M187.709 210.917 C 187.711 211.283,187.745 211.414,187.785 211.206 C 187.824 210.999,187.823 210.699,187.781 210.540 C 187.739 210.380,187.707 210.550,187.709 210.917 M190.208 213.115 C 190.369 213.157,190.631 213.157,190.792 213.115 C 190.952 213.073,190.821 213.039,190.500 213.039 C 190.179 213.039,190.048 213.073,190.208 213.115 M192.958 213.121 C 193.256 213.158,193.744 213.158,194.042 213.121 C 194.340 213.084,194.096 213.053,193.500 213.053 C 192.904 213.053,192.660 213.084,192.958 213.121 M197.364 213.125 C 198.894 213.152,201.444 213.152,203.031 213.125 C 204.618 213.097,203.367 213.075,200.250 213.075 C 197.133 213.075,195.835 213.097,197.364 213.125 M210.032 213.124 C 211.013 213.154,212.663 213.154,213.699 213.125 C 214.735 213.095,213.933 213.071,211.917 213.071 C 209.900 213.071,209.052 213.095,210.032 213.124 M184.167 215.719 C 184.167 215.748,184.410 215.991,184.708 216.260 L 185.250 216.750 184.760 216.208 C 184.304 215.703,184.167 215.590,184.167 215.719 M187.833 217.992 C 187.971 218.085,188.227 218.163,188.403 218.164 C 188.829 218.168,188.696 218.072,188.083 217.935 C 187.718 217.853,187.651 217.869,187.833 217.992 " stroke="none" fill="#c9c9c9" fill-rule="evenodd"></path><path id="path4" d="M246.667 1.052 C 246.667 1.081,246.910 1.325,247.208 1.594 L 247.750 2.083 247.260 1.542 C 246.804 1.037,246.667 0.923,246.667 1.052 M238.740 2.542 L 238.250 3.083 238.792 2.594 C 239.297 2.138,239.410 2.000,239.281 2.000 C 239.252 2.000,239.009 2.244,238.740 2.542 M249.214 7.750 C 249.216 8.208,249.248 8.376,249.286 8.123 C 249.325 7.869,249.324 7.494,249.284 7.289 C 249.244 7.084,249.213 7.292,249.214 7.750 M249.220 10.000 C 249.220 10.596,249.250 10.840,249.287 10.542 C 249.324 10.244,249.324 9.756,249.287 9.458 C 249.250 9.160,249.220 9.404,249.220 10.000 M230.724 17.750 C 230.724 18.483,230.754 18.763,230.789 18.371 C 230.824 17.979,230.824 17.379,230.788 17.037 C 230.752 16.696,230.723 17.017,230.724 17.750 M235.545 19.000 C 235.545 19.412,235.578 19.581,235.618 19.375 C 235.657 19.169,235.657 18.831,235.618 18.625 C 235.578 18.419,235.545 18.587,235.545 19.000 M213.240 57.708 L 212.750 58.250 213.292 57.760 C 213.797 57.304,213.910 57.167,213.781 57.167 C 213.752 57.167,213.509 57.410,213.240 57.708 M204.913 59.375 L 203.583 60.750 204.958 59.421 C 205.715 58.689,206.333 58.071,206.333 58.046 C 206.333 57.924,206.147 58.098,204.913 59.375 M209.491 61.792 L 208.917 62.417 209.542 61.842 C 209.885 61.526,210.167 61.245,210.167 61.217 C 210.167 61.090,210.026 61.210,209.491 61.792 M191.705 62.167 C 191.705 62.487,191.740 62.619,191.782 62.458 C 191.823 62.298,191.823 62.035,191.782 61.875 C 191.740 61.715,191.705 61.846,191.705 62.167 M199.914 64.542 L 198.250 66.250 199.958 64.586 C 201.545 63.041,201.742 62.833,201.622 62.833 C 201.597 62.833,200.828 63.602,199.914 64.542 M191.714 64.917 C 191.716 65.375,191.748 65.543,191.786 65.289 C 191.825 65.036,191.824 64.661,191.784 64.456 C 191.744 64.251,191.713 64.458,191.714 64.917 M203.331 68.125 L 200.750 70.750 203.375 68.169 C 205.814 65.771,206.075 65.500,205.956 65.500 C 205.932 65.500,204.751 66.681,203.331 68.125 M187.381 70.750 C 187.382 71.208,187.415 71.376,187.453 71.123 C 187.491 70.869,187.490 70.494,187.451 70.289 C 187.411 70.084,187.380 70.292,187.381 70.750 M189.333 78.750 C 188.928 79.162,188.635 79.500,188.681 79.500 C 188.726 79.500,189.095 79.162,189.500 78.750 C 189.905 78.337,190.199 78.000,190.153 78.000 C 190.107 78.000,189.738 78.337,189.333 78.750 M181.495 79.625 L 180.417 80.750 181.542 79.671 C 182.160 79.078,182.667 78.572,182.667 78.546 C 182.667 78.424,182.497 78.580,181.495 79.625 M201.412 82.708 L 200.250 83.917 201.458 82.754 C 202.581 81.675,202.743 81.500,202.621 81.500 C 202.595 81.500,202.051 82.044,201.412 82.708 M208.042 101.250 C 208.044 101.617,208.078 101.747,208.118 101.540 C 208.158 101.332,208.156 101.032,208.115 100.873 C 208.073 100.714,208.040 100.883,208.042 101.250 M203.220 103.000 C 203.220 103.596,203.250 103.840,203.287 103.542 C 203.324 103.244,203.324 102.756,203.287 102.458 C 203.250 102.160,203.220 102.404,203.220 103.000 M208.042 104.083 C 208.044 104.450,208.078 104.580,208.118 104.373 C 208.158 104.166,208.156 103.866,208.115 103.706 C 208.073 103.547,208.040 103.717,208.042 104.083 M177.292 136.954 C 177.590 136.991,178.077 136.991,178.375 136.954 C 178.673 136.917,178.429 136.887,177.833 136.887 C 177.237 136.887,176.994 136.917,177.292 136.954 M181.042 137.115 C 181.202 137.157,181.465 137.157,181.625 137.115 C 181.785 137.073,181.654 137.039,181.333 137.039 C 181.012 137.039,180.881 137.073,181.042 137.115 M179.127 141.951 C 179.334 141.991,179.634 141.990,179.794 141.948 C 179.953 141.906,179.783 141.874,179.417 141.875 C 179.050 141.877,178.920 141.911,179.127 141.951 M226.917 149.667 C 227.368 150.125,227.775 150.500,227.821 150.500 C 227.867 150.500,227.535 150.125,227.083 149.667 C 226.632 149.208,226.225 148.833,226.179 148.833 C 226.133 148.833,226.465 149.208,226.917 149.667 M158.583 156.167 C 159.035 156.625,159.442 157.000,159.487 157.000 C 159.533 157.000,159.201 156.625,158.750 156.167 C 158.299 155.708,157.892 155.333,157.846 155.333 C 157.800 155.333,158.132 155.708,158.583 156.167 M225.881 158.917 C 225.882 159.375,225.915 159.543,225.953 159.289 C 225.991 159.036,225.990 158.661,225.951 158.456 C 225.911 158.251,225.880 158.458,225.881 158.917 M230.881 158.917 C 230.882 159.375,230.915 159.543,230.953 159.289 C 230.991 159.036,230.990 158.661,230.951 158.456 C 230.911 158.251,230.880 158.458,230.881 158.917 M180.958 162.784 C 181.165 162.824,181.502 162.824,181.708 162.784 C 181.915 162.745,181.746 162.712,181.333 162.712 C 180.921 162.712,180.752 162.745,180.958 162.784 M189.958 162.787 C 190.256 162.824,190.744 162.824,191.042 162.787 C 191.340 162.750,191.096 162.720,190.500 162.720 C 189.904 162.720,189.660 162.750,189.958 162.787 M178.794 167.618 C 179.001 167.658,179.301 167.656,179.460 167.615 C 179.620 167.573,179.450 167.540,179.083 167.542 C 178.717 167.544,178.586 167.578,178.794 167.618 M192.708 167.615 C 192.869 167.657,193.131 167.657,193.292 167.615 C 193.452 167.573,193.321 167.539,193.000 167.539 C 192.679 167.539,192.548 167.573,192.708 167.615 M182.296 167.789 C 182.688 167.824,183.288 167.824,183.629 167.788 C 183.971 167.752,183.650 167.723,182.917 167.724 C 182.183 167.724,181.904 167.754,182.296 167.789 M188.213 167.789 C 188.652 167.824,189.327 167.823,189.713 167.788 C 190.100 167.754,189.742 167.725,188.917 167.726 C 188.092 167.726,187.775 167.755,188.213 167.789 M201.333 205.583 C 201.644 205.904,201.936 206.167,201.982 206.167 C 202.028 206.167,201.811 205.904,201.500 205.583 C 201.189 205.262,200.897 205.000,200.851 205.000 C 200.805 205.000,201.022 205.262,201.333 205.583 " stroke="none" fill="#7c7c74" fill-rule="evenodd"></path></g></svg>