<svg id="svg" version="1.1" xmlns="http://www.w3.org/2000/svg" xmlns:xlink="http://www.w3.org/1999/xlink" width="400" height="400" viewBox="0, 0, 400,400"><g id="svgg"><path id="path0" d="M0.000 200.000 L 0.000 400.000 200.000 400.000 L 400.000 400.000 400.000 200.000 L 400.000 0.000 200.000 0.000 L 0.000 0.000 0.000 200.000 M60.254 77.040 C 61.766 77.349,67.422 78.595,70.215 79.235 C 71.960 79.635,74.521 80.522,76.270 81.334 C 77.021 81.683,79.263 82.635,81.250 83.449 C 83.237 84.264,86.138 85.453,87.695 86.091 C 112.226 96.141,116.341 98.182,126.953 105.565 C 128.105 106.366,132.614 109.147,134.961 110.503 C 146.965 117.439,154.252 123.151,161.288 131.135 C 166.445 136.988,168.788 139.271,172.580 142.138 C 177.945 146.193,182.655 150.658,188.291 157.031 C 203.720 174.475,204.238 174.935,218.555 183.942 C 227.932 189.841,230.366 192.015,234.806 198.457 C 236.543 200.977,237.370 201.860,239.355 203.313 C 249.504 210.740,254.456 215.591,269.966 233.301 C 276.311 240.546,281.356 244.815,287.793 248.387 C 288.760 248.924,291.265 250.311,293.359 251.469 C 302.995 256.797,308.572 261.815,322.446 277.638 C 328.743 284.819,331.112 287.183,333.887 289.051 C 336.939 291.106,338.480 292.737,340.011 295.527 C 341.050 297.421,341.684 298.265,343.899 300.702 C 352.867 310.564,350.604 316.015,337.402 316.352 C 328.035 316.592,325.144 314.572,325.472 308.017 L 325.605 305.371 324.410 304.199 C 323.753 303.555,322.724 302.368,322.124 301.563 C 319.113 297.520,314.795 294.586,302.148 287.993 C 290.540 281.940,288.363 280.492,282.324 274.807 C 277.395 270.166,274.509 268.244,269.434 266.220 C 263.571 263.882,259.863 261.829,251.270 256.166 C 237.637 247.183,217.424 235.554,213.273 234.306 C 209.273 233.104,208.434 233.151,204.653 234.788 C 192.524 240.039,168.795 243.060,152.441 241.435 C 151.367 241.328,149.693 241.185,148.720 241.117 L 146.953 240.992 147.030 242.225 C 147.148 244.100,146.567 252.205,145.584 262.402 C 144.476 273.896,144.452 273.324,146.224 277.052 C 148.494 281.828,148.871 283.449,148.852 288.359 C 148.830 294.312,147.141 296.481,143.670 295.014 C 143.252 294.837,143.254 294.923,143.832 300.854 C 144.244 305.072,143.613 307.139,141.606 308.154 C 139.267 309.337,137.392 308.381,135.593 305.087 C 132.245 298.960,130.924 291.211,131.719 282.363 C 131.891 280.451,132.022 278.122,132.011 277.187 L 131.992 275.488 131.535 277.637 C 129.668 286.424,129.506 295.313,131.069 303.160 C 133.030 313.002,128.657 316.929,117.773 315.101 C 114.699 314.584,109.221 314.636,106.250 315.210 C 100.631 316.296,100.669 316.292,95.508 316.300 C 88.096 316.313,86.224 315.695,84.952 312.818 C 83.324 309.137,85.293 306.634,90.815 305.366 C 98.324 303.642,108.374 297.787,110.117 294.121 C 112.008 290.142,112.406 282.742,111.530 267.871 C 111.026 259.315,110.943 250.141,111.315 244.043 C 111.440 242.002,111.620 237.895,111.716 234.915 C 112.093 223.225,115.338 218.494,124.974 215.589 C 125.443 215.448,125.869 215.224,125.921 215.093 C 126.210 214.356,124.554 206.539,123.262 202.539 C 119.857 191.997,119.943 187.522,123.749 177.051 C 126.994 168.126,126.978 167.098,123.552 164.520 C 121.976 163.335,121.808 163.286,120.005 163.500 C 111.488 164.511,98.366 158.342,93.361 150.977 C 86.619 141.053,91.778 127.107,103.413 123.807 C 114.102 120.774,129.054 130.445,133.478 143.252 L 134.082 145.001 136.523 146.249 C 140.688 148.378,141.526 147.959,139.749 144.638 C 139.172 143.559,138.165 141.452,137.511 139.956 C 135.849 136.154,135.554 135.830,129.492 131.189 C 125.111 127.834,123.453 126.393,119.235 122.273 C 114.781 117.922,113.935 117.309,109.171 114.977 C 104.105 112.497,101.182 110.671,90.527 103.330 C 81.349 97.005,81.827 97.208,76.074 97.177 L 71.777 97.153 69.141 96.260 C 62.226 93.917,59.833 91.657,61.316 88.870 L 61.678 88.190 58.427 86.594 C 52.889 83.875,51.375 82.638,51.066 80.581 C 50.537 77.051,53.922 75.747,60.254 77.040 M61.719 82.746 C 66.555 84.940,69.182 86.240,69.786 86.738 C 71.060 87.788,71.163 89.551,70.014 90.630 C 68.850 91.724,71.136 92.281,76.855 92.298 C 82.898 92.316,83.249 92.460,92.137 98.580 C 103.512 106.412,107.190 108.735,111.324 110.699 C 116.497 113.157,117.562 113.921,122.583 118.768 C 126.551 122.599,129.154 124.839,133.789 128.411 C 139.123 132.522,139.302 132.746,142.548 139.342 C 146.383 147.137,146.524 148.208,144.042 150.694 C 141.869 152.869,139.348 153.067,135.881 151.333 C 134.601 150.693,134.375 150.737,134.375 151.627 C 134.375 154.713,132.081 158.463,128.925 160.535 L 127.366 161.558 128.594 162.706 C 132.264 166.140,132.126 168.148,127.283 181.738 C 125.093 187.883,125.255 192.184,128.023 201.465 C 129.696 207.073,130.185 209.679,132.070 223.047 C 132.557 226.502,132.617 230.505,132.250 235.156 C 131.793 240.943,132.123 244.257,134.686 259.646 C 136.673 271.581,136.993 275.912,136.430 283.301 C 136.051 288.275,136.169 290.970,136.914 294.383 C 137.597 297.513,139.296 302.477,138.970 300.391 C 138.183 295.348,138.401 288.196,139.396 286.467 C 140.240 285.000,142.168 284.858,143.396 286.172 L 143.945 286.760 143.945 285.727 C 143.945 284.070,143.209 281.792,141.770 278.992 C 139.493 274.565,139.474 274.249,140.715 261.895 C 142.233 246.780,142.379 239.806,141.323 232.813 C 140.830 229.545,140.807 229.037,140.800 221.289 C 140.791 211.598,140.656 208.721,139.818 200.390 L 139.180 194.042 139.561 193.274 C 140.622 191.134,143.259 191.166,148.292 193.381 C 152.950 195.431,154.681 195.921,158.903 196.385 C 165.156 197.071,171.001 200.036,176.819 205.472 C 180.175 208.607,180.815 210.139,179.410 211.672 L 178.743 212.400 174.381 212.534 C 164.321 212.841,153.967 213.860,147.375 215.191 L 145.707 215.527 145.670 222.461 C 145.636 228.799,145.670 229.621,146.065 232.031 C 146.302 233.481,146.543 234.981,146.599 235.363 L 146.701 236.058 150.450 236.394 C 169.707 238.124,191.325 235.539,203.359 230.068 C 206.353 228.707,207.513 228.467,209.908 228.717 C 214.555 229.201,217.441 230.352,225.226 234.826 C 238.898 242.683,242.013 244.508,245.801 246.874 C 248.164 248.351,252.559 251.184,255.566 253.170 C 263.078 258.131,263.828 258.542,270.508 261.365 C 274.295 262.966,277.269 264.496,279.187 265.831 C 280.646 266.846,281.250 267.361,286.944 272.427 C 292.057 276.977,294.679 278.686,303.613 283.297 C 316.925 290.167,322.814 294.153,325.694 298.242 C 326.261 299.048,327.292 300.248,327.984 300.909 C 329.977 302.810,330.173 303.367,330.190 307.185 C 330.201 309.673,330.265 310.424,330.483 310.631 C 332.265 312.322,344.336 311.630,344.336 309.836 C 344.336 308.809,343.200 307.047,341.152 304.897 C 338.825 302.455,337.337 300.532,336.139 298.420 C 334.630 295.760,333.480 294.564,330.509 292.564 C 327.556 290.575,326.702 289.691,313.200 274.629 C 303.880 264.233,297.864 259.177,289.889 255.040 C 279.455 249.627,274.102 245.398,266.201 236.328 C 252.599 220.713,245.984 214.095,238.606 208.718 C 233.699 205.142,233.635 205.079,230.755 200.977 C 226.606 195.065,224.950 193.638,215.226 187.598 C 203.402 180.254,199.126 176.645,190.330 166.588 C 179.555 154.267,176.164 150.875,169.775 146.025 C 166.425 143.482,162.829 140.059,159.079 135.841 C 151.499 127.318,144.944 121.961,135.059 116.213 C 130.719 113.690,124.946 110.057,120.014 106.746 C 113.589 102.432,103.092 97.478,85.735 90.567 C 82.884 89.432,79.060 87.851,77.238 87.055 C 72.004 84.766,70.968 84.424,65.854 83.293 C 60.433 82.093,60.217 82.065,61.719 82.746 M104.741 128.406 C 97.757 130.098,93.265 139.199,96.086 145.941 C 100.907 157.463,123.641 163.203,128.572 154.143 C 134.308 143.604,117.396 125.339,104.741 128.406 M144.336 197.231 C 144.336 197.317,144.511 198.788,144.724 200.500 C 144.938 202.212,145.220 205.181,145.352 207.096 L 145.592 210.579 146.185 210.457 C 152.304 209.196,160.658 208.249,168.799 207.894 C 172.342 207.740,172.249 207.809,170.596 206.563 C 166.020 203.115,163.030 201.797,158.591 201.273 C 153.758 200.702,152.721 200.405,145.361 197.483 C 144.797 197.259,144.336 197.146,144.336 197.231 M124.372 220.976 C 118.178 223.506,117.006 225.704,116.604 235.547 C 116.487 238.394,116.309 242.217,116.207 244.043 C 115.967 248.327,115.968 260.499,116.207 264.648 C 117.760 291.579,116.861 296.535,109.473 301.798 C 104.124 305.607,97.166 308.943,92.469 309.948 C 87.409 311.032,88.382 311.409,96.078 311.347 C 100.427 311.312,101.109 311.259,103.793 310.747 C 109.668 309.626,113.450 309.529,118.848 310.360 C 126.209 311.494,127.580 310.175,126.188 303.302 C 124.880 296.843,124.838 289.070,126.068 280.904 C 126.625 277.208,128.746 267.888,129.909 264.029 L 130.302 262.726 129.516 258.072 C 127.070 243.584,126.792 240.190,127.462 232.968 C 127.647 230.974,127.728 228.870,127.661 227.832 C 127.534 225.866,126.715 220.116,126.563 220.119 C 126.509 220.120,125.523 220.505,124.372 220.976 " stroke="none" fill="#fbfbfb" fill-rule="evenodd"></path><path id="path1" d="M54.199 76.747 C 51.666 77.171,50.498 79.279,51.540 81.543 C 52.283 83.156,53.440 83.976,58.438 86.434 C 62.318 88.342,62.075 88.170,61.616 88.678 C 61.063 89.289,61.001 91.132,61.505 91.936 C 63.231 94.684,71.716 97.520,76.802 97.048 C 80.425 96.712,82.116 97.354,87.569 101.135 C 99.598 109.478,103.914 112.208,109.450 114.979 C 114.391 117.452,114.777 117.735,119.486 122.329 C 123.627 126.368,125.496 127.978,130.469 131.787 C 135.612 135.726,136.087 136.251,137.488 139.551 C 137.944 140.625,138.891 142.622,139.591 143.988 C 141.784 148.261,140.791 148.827,135.885 146.101 L 133.919 145.009 133.393 143.452 C 129.073 130.664,114.255 121.009,103.418 123.923 C 94.505 126.318,88.354 137.177,91.023 145.801 C 93.989 155.383,106.493 163.331,118.661 163.368 C 122.566 163.380,122.390 163.332,124.239 164.884 C 127.033 167.228,127.030 168.520,124.210 176.172 C 120.041 187.488,119.918 191.811,123.456 202.712 C 124.647 206.380,126.495 215.042,126.144 215.311 C 126.106 215.341,125.239 215.648,124.219 215.995 C 115.574 218.931,111.949 224.089,111.919 233.496 C 111.915 234.785,111.771 238.345,111.601 241.406 C 111.163 249.257,111.201 259.520,111.703 268.536 C 112.908 290.194,111.976 294.654,105.371 298.856 C 99.753 302.431,95.243 304.509,91.025 305.467 C 86.153 306.573,84.702 307.781,84.690 310.744 C 84.681 313.167,86.028 314.882,88.570 315.682 C 90.404 316.259,99.758 316.310,102.539 315.758 C 109.248 314.426,113.227 314.209,117.578 314.938 C 124.949 316.173,128.779 314.988,130.676 310.887 C 131.674 308.729,131.696 306.974,130.782 302.390 C 129.382 295.371,129.593 286.603,131.378 277.593 C 132.236 273.262,132.474 274.958,131.932 281.543 C 131.355 288.566,131.594 292.433,132.927 297.637 C 135.125 306.217,138.255 309.900,141.693 307.953 C 143.807 306.756,144.153 304.939,143.480 298.571 C 143.092 294.895,143.139 294.490,143.912 294.904 C 144.635 295.291,146.356 295.165,147.090 294.671 C 148.361 293.816,148.693 292.499,148.700 288.281 C 148.708 283.313,148.270 281.473,145.972 276.818 C 144.310 273.449,144.329 273.902,145.388 262.891 C 146.377 252.612,146.875 245.895,146.875 242.836 L 146.875 240.818 148.291 240.928 C 149.070 240.989,150.623 241.121,151.741 241.222 C 169.790 242.852,192.156 240.072,204.610 234.653 C 210.784 231.967,211.994 232.419,235.645 246.249 C 240.838 249.286,244.978 251.872,250.879 255.766 C 260.161 261.891,262.856 263.386,269.639 266.174 C 274.942 268.353,277.254 269.911,282.659 274.951 C 288.511 280.407,291.446 282.338,302.637 288.094 C 313.324 293.590,319.291 297.565,321.622 300.740 C 322.230 301.569,323.391 302.932,324.201 303.771 L 325.675 305.295 325.679 308.556 C 325.687 314.648,327.879 316.206,336.449 316.209 C 350.329 316.216,352.883 310.810,343.750 300.751 C 342.381 299.244,340.964 297.493,340.601 296.862 C 340.238 296.230,339.634 295.167,339.258 294.500 C 338.224 292.666,336.800 291.259,334.042 289.350 C 330.895 287.172,328.597 284.887,322.161 277.540 C 308.170 261.568,302.693 256.701,292.383 251.081 C 280.747 244.738,277.341 242.004,268.654 232.031 C 255.610 217.057,249.487 211.017,240.723 204.479 C 236.907 201.632,236.668 201.398,234.755 198.633 C 230.607 192.635,227.612 189.812,220.973 185.645 C 204.525 175.318,204.007 174.885,192.187 161.629 C 181.439 149.577,179.363 147.521,173.047 142.679 C 168.401 139.118,166.782 137.555,161.001 131.055 C 154.267 123.482,147.393 117.965,137.402 112.115 C 131.412 108.607,129.394 107.341,123.535 103.416 C 116.507 98.708,110.769 95.814,98.047 90.563 C 92.171 88.138,91.754 87.963,90.691 87.483 C 90.244 87.281,88.005 86.361,85.716 85.439 C 82.065 83.968,77.665 82.135,75.879 81.340 C 73.063 80.087,71.874 79.742,65.820 78.424 C 63.618 77.945,61.421 77.465,60.938 77.358 C 58.762 76.878,55.294 76.563,54.199 76.747 M65.288 83.010 C 70.798 84.226,72.238 84.690,76.915 86.761 C 78.344 87.394,82.739 89.216,86.681 90.809 C 106.105 98.661,114.298 102.570,120.703 107.042 C 123.821 109.219,129.460 112.765,134.919 115.982 C 145.464 122.196,151.793 127.357,159.273 135.840 C 162.387 139.371,166.370 143.262,168.588 144.939 C 176.121 150.635,179.287 153.757,190.443 166.492 C 198.950 176.204,204.265 180.754,214.096 186.746 C 224.846 193.297,226.334 194.564,231.047 201.175 C 233.719 204.922,233.701 204.904,238.681 208.627 C 246.594 214.541,254.031 221.994,266.806 236.810 C 273.586 244.673,279.540 249.399,288.965 254.398 C 299.683 260.083,303.553 263.525,320.023 282.018 C 325.710 288.404,328.214 290.871,330.754 292.592 C 333.618 294.533,334.826 295.771,336.129 298.098 C 337.466 300.487,338.521 301.887,340.974 304.526 C 343.670 307.426,344.824 309.308,344.470 310.228 C 344.017 311.410,334.457 312.249,331.836 311.337 C 331.460 311.206,330.911 311.008,330.615 310.897 L 330.078 310.695 330.070 307.545 C 330.058 303.454,329.692 302.431,327.646 300.781 C 327.180 300.405,326.473 299.596,326.076 298.983 C 323.281 294.666,317.511 290.682,303.516 283.401 C 294.122 278.514,292.200 277.274,287.305 272.940 C 285.532 271.370,283.291 269.386,282.324 268.530 C 278.946 265.538,276.207 263.938,269.942 261.295 C 263.845 258.723,262.715 258.078,252.344 251.248 C 247.003 247.731,242.712 245.068,237.988 242.339 C 235.840 241.098,231.797 238.764,229.004 237.151 C 213.641 228.283,210.062 227.297,203.561 230.144 C 196.603 233.192,185.955 235.528,173.438 236.754 C 169.304 237.158,155.655 237.062,150.587 236.592 L 146.584 236.222 146.430 235.152 C 146.345 234.563,146.102 233.024,145.889 231.732 C 145.518 229.471,145.272 215.969,145.593 215.450 C 145.648 215.360,146.025 215.238,146.431 215.178 C 146.836 215.118,148.499 214.843,150.126 214.566 C 156.785 213.434,165.355 212.664,174.414 212.383 C 179.284 212.233,179.945 211.940,179.918 209.945 C 179.884 207.513,171.584 200.646,165.656 198.146 C 163.395 197.192,162.258 196.926,158.561 196.481 C 154.805 196.030,152.917 195.530,149.681 194.128 C 143.249 191.342,140.726 191.125,139.703 193.270 C 139.342 194.028,139.367 194.436,140.446 205.078 C 140.788 208.447,140.863 210.709,140.918 219.336 C 140.982 229.285,141.000 229.692,141.505 233.008 C 142.544 239.829,142.416 246.612,140.987 260.449 C 139.576 274.109,139.622 274.795,142.279 279.688 C 143.650 282.213,144.994 288.572,143.807 286.914 C 142.592 285.219,140.873 284.888,139.748 286.131 C 138.596 287.403,138.353 293.693,139.176 300.928 C 139.338 302.355,138.853 301.420,137.890 298.450 C 136.187 293.199,135.774 289.512,136.251 283.809 C 136.926 275.732,136.640 272.330,133.891 255.664 C 132.019 244.312,131.675 240.670,132.030 235.911 C 132.591 228.385,132.547 227.195,131.428 219.629 C 129.775 208.445,129.356 206.268,128.043 202.051 C 125.061 192.474,124.880 188.186,127.180 181.641 C 131.990 167.953,132.100 166.461,128.558 162.897 C 127.760 162.095,127.212 161.404,127.340 161.362 C 130.647 160.259,133.702 155.890,134.276 151.443 L 134.404 150.444 135.415 150.988 C 139.598 153.239,143.374 152.503,145.032 149.113 C 146.025 147.083,145.844 146.402,142.503 139.596 C 139.136 132.736,139.144 132.746,133.301 128.215 C 128.617 124.582,126.365 122.633,122.290 118.684 C 117.799 114.333,116.788 113.614,111.111 110.737 C 106.154 108.224,105.897 108.061,90.125 97.407 C 83.170 92.709,82.072 92.296,77.051 92.488 C 73.520 92.624,70.368 92.144,69.174 91.291 C 69.138 91.266,69.429 90.951,69.821 90.593 C 71.072 89.446,70.881 87.595,69.410 86.613 C 69.075 86.389,67.317 85.523,65.504 84.687 C 60.454 82.360,59.451 81.868,59.721 81.851 C 59.858 81.843,62.363 82.364,65.288 83.010 M111.445 128.418 C 126.817 132.317,136.288 153.249,124.659 157.620 C 112.740 162.100,95.037 152.464,95.048 141.504 C 95.056 132.513,102.902 126.251,111.445 128.418 M148.181 198.422 C 152.586 200.140,154.597 200.674,158.178 201.078 C 162.272 201.540,164.387 202.305,168.052 204.654 C 169.678 205.695,172.253 207.640,172.261 207.831 C 172.264 207.895,170.538 208.009,168.427 208.084 C 161.927 208.316,154.544 209.079,149.023 210.091 C 145.146 210.802,145.419 210.834,145.366 209.668 C 145.261 207.359,144.872 203.002,144.520 200.195 C 144.071 196.609,144.079 196.808,144.385 196.935 C 144.519 196.991,146.227 197.660,148.181 198.422 M127.251 222.852 C 127.729 226.013,127.863 229.010,127.646 231.738 C 127.035 239.461,127.357 244.154,129.300 255.822 L 130.449 262.719 130.079 263.928 C 125.511 278.870,124.240 292.445,126.376 303.462 C 127.708 310.326,126.343 311.655,119.109 310.534 C 113.817 309.714,108.995 309.829,104.004 310.893 C 100.552 311.629,90.270 311.786,89.252 311.118 C 88.774 310.805,89.459 310.448,91.258 310.072 C 98.751 308.506,109.492 302.781,113.019 298.471 C 116.378 294.368,117.405 285.412,116.325 269.629 C 115.877 263.075,115.707 250.654,115.993 245.313 C 116.116 243.003,116.306 238.706,116.413 235.763 C 116.789 225.523,118.198 223.072,125.195 220.494 C 126.934 219.854,126.769 219.664,127.251 222.852 " stroke="none" fill="#070708" fill-rule="evenodd"></path><path id="path2" d="M78.469 92.326 C 78.712 92.372,79.064 92.371,79.250 92.322 C 79.437 92.273,79.238 92.235,78.809 92.237 C 78.379 92.239,78.226 92.279,78.469 92.326 M121.484 124.475 C 121.484 124.509,121.770 124.794,122.119 125.110 L 122.754 125.684 122.180 125.049 C 121.646 124.457,121.484 124.324,121.484 124.475 M99.304 131.494 L 98.730 132.129 99.365 131.555 C 99.957 131.021,100.090 130.859,99.939 130.859 C 99.905 130.859,99.620 131.145,99.304 131.494 M154.492 130.920 C 154.492 130.954,154.778 131.240,155.127 131.555 L 155.762 132.129 155.188 131.494 C 154.653 130.902,154.492 130.770,154.492 130.920 M179.875 154.932 C 180.354 155.442,180.771 155.859,180.802 155.859 C 180.949 155.859,180.794 155.684,179.932 154.875 L 179.004 154.004 179.875 154.932 M198.828 169.006 C 198.828 169.040,199.114 169.326,199.463 169.641 L 200.098 170.215 199.524 169.580 C 198.989 168.988,198.828 168.856,198.828 169.006 M177.344 206.152 C 177.708 206.528,178.050 206.836,178.104 206.836 C 178.158 206.836,177.903 206.528,177.539 206.152 C 177.175 205.776,176.833 205.469,176.779 205.469 C 176.725 205.469,176.979 205.776,177.344 206.152 M247.266 215.918 C 247.630 216.294,247.972 216.602,248.026 216.602 C 248.080 216.602,247.825 216.294,247.461 215.918 C 247.097 215.542,246.754 215.234,246.701 215.234 C 246.647 215.234,246.901 215.542,247.266 215.918 M111.775 233.887 C 111.776 234.424,111.814 234.620,111.859 234.323 C 111.904 234.027,111.903 233.587,111.856 233.347 C 111.810 233.107,111.773 233.350,111.775 233.887 M142.038 245.117 C 142.038 245.493,142.078 245.647,142.127 245.459 C 142.176 245.271,142.176 244.963,142.127 244.775 C 142.078 244.587,142.038 244.741,142.038 245.117 M111.186 248.047 C 111.186 248.530,111.224 248.728,111.271 248.486 C 111.317 248.245,111.317 247.849,111.271 247.607 C 111.224 247.366,111.186 247.563,111.186 248.047 M115.870 249.707 C 115.872 250.137,115.912 250.290,115.958 250.047 C 116.005 249.804,116.003 249.452,115.955 249.265 C 115.906 249.079,115.867 249.277,115.870 249.707 M115.870 259.082 C 115.872 259.512,115.912 259.665,115.958 259.422 C 116.005 259.179,116.003 258.827,115.955 258.640 C 115.906 258.454,115.867 258.652,115.870 259.082 M111.178 260.352 C 111.178 260.728,111.218 260.881,111.267 260.693 C 111.317 260.505,111.317 260.198,111.267 260.010 C 111.218 259.822,111.178 259.976,111.178 260.352 M312.598 266.992 C 313.235 267.637,313.801 268.164,313.855 268.164 C 313.909 268.164,313.431 267.637,312.793 266.992 C 312.155 266.348,311.589 265.820,311.536 265.820 C 311.482 265.820,311.960 266.348,312.598 266.992 M306.055 267.053 C 306.055 267.087,306.340 267.373,306.689 267.688 L 307.324 268.262 306.751 267.627 C 306.216 267.035,306.055 266.902,306.055 267.053 M132.008 275.824 C 132.098 276.366,132.125 276.394,132.187 276.003 C 132.227 275.749,132.179 275.460,132.081 275.362 C 131.972 275.254,131.944 275.436,132.008 275.824 M326.563 289.355 C 326.927 289.731,327.269 290.039,327.323 290.039 C 327.376 290.039,327.122 289.731,326.758 289.355 C 326.393 288.979,326.051 288.672,325.998 288.672 C 325.944 288.672,326.198 288.979,326.563 289.355 M138.522 291.406 C 138.522 291.782,138.562 291.936,138.611 291.748 C 138.660 291.560,138.660 291.252,138.611 291.064 C 138.562 290.876,138.522 291.030,138.522 291.406 M111.865 309.907 C 112.214 309.950,112.786 309.950,113.135 309.907 C 113.484 309.864,113.198 309.828,112.500 309.828 C 111.802 309.828,111.516 309.864,111.865 309.907 M122.021 310.880 C 122.263 310.927,122.659 310.927,122.900 310.880 C 123.142 310.833,122.944 310.795,122.461 310.795 C 121.978 310.795,121.780 310.833,122.021 310.880 M111.768 314.593 C 112.063 314.638,112.546 314.638,112.842 314.593 C 113.137 314.548,112.896 314.512,112.305 314.512 C 111.714 314.512,111.472 314.548,111.768 314.593 M94.001 316.355 C 94.623 316.394,95.590 316.394,96.150 316.355 C 96.710 316.315,96.201 316.284,95.020 316.284 C 93.838 316.284,93.380 316.317,94.001 316.355 " stroke="none" fill="#9b999d" fill-rule="evenodd"></path><path id="path3" d="M78.177 97.015 C 78.473 97.060,78.913 97.059,79.153 97.012 C 79.393 96.966,79.150 96.929,78.613 96.931 C 78.076 96.932,77.880 96.970,78.177 97.015 M118.945 121.973 C 120.285 123.315,121.425 124.414,121.479 124.414 C 121.532 124.414,120.480 123.315,119.141 121.973 C 117.801 120.630,116.661 119.531,116.607 119.531 C 116.554 119.531,117.606 120.630,118.945 121.973 M124.023 120.374 C 124.023 120.407,124.309 120.693,124.658 121.008 L 125.293 121.582 124.719 120.947 C 124.185 120.356,124.023 120.223,124.023 120.374 M107.471 123.377 C 107.659 123.426,107.966 123.426,108.154 123.377 C 108.342 123.328,108.188 123.288,107.813 123.288 C 107.437 123.288,107.283 123.328,107.471 123.377 M155.070 125.049 C 155.549 125.559,155.966 125.977,155.998 125.977 C 156.144 125.977,155.989 125.801,155.127 124.992 L 154.199 124.121 155.070 125.049 M95.888 128.271 L 95.215 129.004 95.947 128.331 C 96.629 127.704,96.769 127.539,96.620 127.539 C 96.588 127.539,96.258 127.869,95.888 128.271 M151.953 128.381 C 151.953 128.415,152.239 128.701,152.588 129.016 L 153.223 129.590 152.649 128.955 C 152.114 128.363,151.953 128.231,151.953 128.381 M160.156 130.139 C 160.156 130.173,160.442 130.458,160.791 130.774 L 161.426 131.348 160.852 130.713 C 160.317 130.121,160.156 129.988,160.156 130.139 M165.234 135.796 C 165.234 135.825,165.916 136.507,166.748 137.310 L 168.262 138.770 166.802 137.256 C 165.446 135.850,165.234 135.653,165.234 135.796 M163.574 140.625 C 164.320 141.377,164.975 141.992,165.029 141.992 C 165.082 141.992,164.516 141.377,163.770 140.625 C 163.023 139.873,162.369 139.258,162.315 139.258 C 162.261 139.258,162.828 139.873,163.574 140.625 M94.982 141.504 C 94.983 142.148,95.020 142.389,95.063 142.038 C 95.107 141.686,95.106 141.159,95.061 140.866 C 95.017 140.572,94.981 140.859,94.982 141.504 M181.632 150.049 C 182.111 150.559,182.529 150.977,182.560 150.977 C 182.707 150.977,182.552 150.801,181.689 149.992 L 180.762 149.121 181.632 150.049 M139.502 152.478 C 139.690 152.528,139.998 152.528,140.186 152.478 C 140.374 152.429,140.220 152.389,139.844 152.389 C 139.468 152.389,139.314 152.429,139.502 152.478 M181.445 156.543 C 181.810 156.919,182.152 157.227,182.206 157.227 C 182.259 157.227,182.005 156.919,181.641 156.543 C 181.276 156.167,180.934 155.859,180.880 155.859 C 180.827 155.859,181.081 156.167,181.445 156.543 M191.992 168.420 C 191.992 168.454,192.278 168.740,192.627 169.055 L 193.262 169.629 192.688 168.994 C 192.153 168.402,191.992 168.270,191.992 168.420 M194.922 171.545 C 194.922 171.579,195.208 171.865,195.557 172.180 L 196.191 172.754 195.618 172.119 C 195.083 171.527,194.922 171.395,194.922 171.545 M229.785 192.383 C 230.314 192.920,230.791 193.359,230.845 193.359 C 230.898 193.359,230.510 192.920,229.980 192.383 C 229.451 191.846,228.975 191.406,228.921 191.406 C 228.867 191.406,229.256 191.846,229.785 192.383 M225.977 194.983 C 225.977 195.017,226.262 195.302,226.611 195.618 L 227.246 196.191 226.672 195.557 C 226.138 194.965,225.977 194.832,225.977 194.983 M171.289 207.813 L 170.410 207.949 171.338 207.978 C 171.848 207.995,172.266 207.920,172.266 207.813 C 172.266 207.705,172.244 207.630,172.217 207.647 C 172.190 207.663,171.772 207.737,171.289 207.813 M166.357 208.146 C 166.599 208.192,166.995 208.192,167.236 208.146 C 167.478 208.099,167.280 208.061,166.797 208.061 C 166.313 208.061,166.116 208.099,166.357 208.146 M140.684 209.375 C 140.684 209.966,140.720 210.208,140.765 209.912 C 140.810 209.617,140.810 209.133,140.765 208.838 C 140.720 208.542,140.684 208.784,140.684 209.375 M145.390 209.666 C 145.406 210.448,145.478 210.647,145.756 210.672 C 145.978 210.691,145.999 210.670,145.815 210.612 C 145.633 210.555,145.499 210.187,145.449 209.607 L 145.370 208.691 145.390 209.666 M174.561 212.449 C 175.125 212.488,176.047 212.488,176.611 212.449 C 177.175 212.409,176.714 212.377,175.586 212.377 C 174.458 212.377,173.997 212.409,174.561 212.449 M169.485 212.638 C 169.728 212.685,170.079 212.683,170.266 212.634 C 170.453 212.585,170.254 212.547,169.824 212.549 C 169.395 212.551,169.242 212.591,169.485 212.638 M253.904 215.869 C 256.350 218.364,256.641 218.643,256.641 218.503 C 256.641 218.475,255.432 217.266,253.955 215.818 L 251.270 213.184 253.904 215.869 M140.907 219.531 C 140.907 222.700,140.934 223.997,140.966 222.412 C 140.999 220.828,140.999 218.235,140.966 216.650 C 140.934 215.066,140.907 216.362,140.907 219.531 M119.421 223.877 L 118.848 224.512 119.482 223.938 C 119.832 223.623,120.117 223.337,120.117 223.303 C 120.117 223.152,119.956 223.285,119.421 223.877 M132.478 229.199 C 132.479 229.736,132.517 229.933,132.562 229.636 C 132.607 229.339,132.606 228.900,132.559 228.659 C 132.513 228.419,132.476 228.662,132.478 229.199 M116.474 234.375 C 116.474 235.288,116.508 235.662,116.549 235.205 C 116.590 234.749,116.590 234.001,116.549 233.545 C 116.508 233.088,116.474 233.462,116.474 234.375 M111.783 236.035 C 111.784 236.787,111.819 237.071,111.861 236.666 C 111.904 236.260,111.903 235.645,111.860 235.298 C 111.817 234.952,111.782 235.283,111.783 236.035 M146.924 236.267 C 147.112 236.317,147.419 236.317,147.607 236.267 C 147.795 236.218,147.642 236.178,147.266 236.178 C 146.890 236.178,146.736 236.218,146.924 236.267 M157.080 237.049 C 157.268 237.098,157.576 237.098,157.764 237.049 C 157.952 237.000,157.798 236.959,157.422 236.959 C 157.046 236.959,156.892 237.000,157.080 237.049 M168.799 237.049 C 168.987 237.098,169.294 237.098,169.482 237.049 C 169.670 237.000,169.517 236.959,169.141 236.959 C 168.765 236.959,168.611 237.000,168.799 237.049 M127.221 239.063 C 127.221 240.190,127.253 240.652,127.292 240.088 C 127.332 239.524,127.332 238.601,127.292 238.037 C 127.253 237.473,127.221 237.935,127.221 239.063 M131.907 238.965 C 131.908 240.039,131.941 240.454,131.980 239.886 C 132.020 239.318,132.019 238.440,131.979 237.933 C 131.939 237.426,131.907 237.891,131.907 238.965 M275.293 239.258 C 276.255 240.225,277.087 241.016,277.140 241.016 C 277.194 241.016,276.451 240.225,275.488 239.258 C 274.526 238.291,273.695 237.500,273.641 237.500 C 273.587 237.500,274.331 238.291,275.293 239.258 M116.267 239.551 C 116.268 240.088,116.306 240.284,116.351 239.988 C 116.396 239.691,116.395 239.251,116.348 239.011 C 116.302 238.771,116.265 239.014,116.267 239.551 M269.043 239.453 C 269.463 239.883,269.850 240.234,269.903 240.234 C 269.957 240.234,269.658 239.883,269.238 239.453 C 268.819 239.023,268.431 238.672,268.378 238.672 C 268.324 238.672,268.623 239.023,269.043 239.453 M159.033 241.741 C 159.329 241.786,159.812 241.786,160.107 241.741 C 160.403 241.697,160.161 241.660,159.570 241.660 C 158.979 241.660,158.738 241.697,159.033 241.741 M166.553 241.745 C 167.009 241.786,167.756 241.786,168.213 241.745 C 168.669 241.703,168.296 241.670,167.383 241.670 C 166.470 241.670,166.096 241.703,166.553 241.745 M116.065 243.848 C 116.067 244.277,116.107 244.430,116.154 244.187 C 116.200 243.944,116.199 243.593,116.150 243.406 C 116.101 243.219,116.063 243.418,116.065 243.848 M111.377 244.434 C 111.380 244.863,111.420 245.016,111.466 244.773 C 111.513 244.530,111.511 244.179,111.462 243.992 C 111.413 243.805,111.375 244.004,111.377 244.434 M142.051 246.680 C 142.051 247.271,142.087 247.512,142.132 247.217 C 142.177 246.921,142.177 246.438,142.132 246.143 C 142.087 245.847,142.051 246.089,142.051 246.680 M146.725 246.680 C 146.725 247.056,146.765 247.209,146.814 247.021 C 146.863 246.833,146.863 246.526,146.814 246.338 C 146.765 246.150,146.725 246.304,146.725 246.680 M115.881 247.949 C 115.882 248.594,115.918 248.834,115.962 248.483 C 116.005 248.132,116.004 247.604,115.960 247.311 C 115.915 247.017,115.880 247.305,115.881 247.949 M111.198 250.195 C 111.198 251.001,111.233 251.331,111.275 250.928 C 111.317 250.525,111.317 249.866,111.275 249.463 C 111.233 249.060,111.198 249.390,111.198 250.195 M111.203 258.008 C 111.203 259.028,111.236 259.446,111.276 258.936 C 111.317 258.425,111.317 257.590,111.276 257.080 C 111.236 256.570,111.203 256.987,111.203 258.008 M115.879 260.742 C 115.879 261.333,115.915 261.575,115.960 261.279 C 116.005 260.984,116.005 260.500,115.960 260.205 C 115.915 259.910,115.879 260.151,115.879 260.742 M309.082 263.477 C 310.368 264.766,311.464 265.820,311.517 265.820 C 311.571 265.820,310.563 264.766,309.277 263.477 C 307.992 262.188,306.896 261.133,306.842 261.133 C 306.788 261.133,307.796 262.188,309.082 263.477 M111.377 263.770 C 111.380 264.199,111.420 264.352,111.466 264.109 C 111.513 263.866,111.511 263.515,111.462 263.328 C 111.413 263.141,111.375 263.340,111.377 263.770 M304.785 265.820 C 305.423 266.465,305.989 266.992,306.042 266.992 C 306.096 266.992,305.618 266.465,304.980 265.820 C 304.343 265.176,303.777 264.648,303.723 264.648 C 303.669 264.648,304.147 265.176,304.785 265.820 M116.061 265.430 C 116.061 265.806,116.101 265.959,116.150 265.771 C 116.199 265.583,116.199 265.276,116.150 265.088 C 116.101 264.900,116.061 265.054,116.061 265.430 M111.573 267.285 C 111.575 267.715,111.615 267.868,111.662 267.625 C 111.708 267.382,111.707 267.030,111.658 266.843 C 111.609 266.657,111.571 266.855,111.573 267.285 M116.256 268.750 C 116.256 269.126,116.296 269.280,116.346 269.092 C 116.395 268.904,116.395 268.596,116.346 268.408 C 116.296 268.220,116.256 268.374,116.256 268.750 M111.764 271.094 C 111.764 271.470,111.804 271.624,111.853 271.436 C 111.903 271.248,111.903 270.940,111.853 270.752 C 111.804 270.564,111.764 270.718,111.764 271.094 M139.911 271.973 C 139.911 272.832,139.946 273.159,139.987 272.700 C 140.028 272.241,140.028 271.537,139.986 271.137 C 139.944 270.737,139.910 271.113,139.911 271.973 M144.577 271.484 C 144.577 271.860,144.617 272.014,144.666 271.826 C 144.715 271.638,144.715 271.331,144.666 271.143 C 144.617 270.955,144.577 271.108,144.577 271.484 M116.452 272.266 C 116.452 272.642,116.492 272.795,116.541 272.607 C 116.590 272.419,116.590 272.112,116.541 271.924 C 116.492 271.736,116.452 271.890,116.452 272.266 M111.959 274.805 C 111.959 275.181,112.000 275.334,112.049 275.146 C 112.098 274.958,112.098 274.651,112.049 274.463 C 112.000 274.275,111.959 274.429,111.959 274.805 M136.579 275.879 C 136.581 276.416,136.619 276.613,136.664 276.316 C 136.708 276.019,136.707 275.579,136.661 275.339 C 136.615 275.099,136.578 275.342,136.579 275.879 M116.651 276.270 C 116.653 276.699,116.693 276.852,116.740 276.609 C 116.786 276.366,116.785 276.015,116.736 275.828 C 116.687 275.641,116.649 275.840,116.651 276.270 M132.095 277.637 C 132.096 278.389,132.132 278.672,132.174 278.267 C 132.216 277.862,132.215 277.247,132.172 276.900 C 132.129 276.553,132.094 276.885,132.095 277.637 M136.573 279.004 C 136.575 279.434,136.615 279.586,136.662 279.343 C 136.708 279.100,136.707 278.749,136.658 278.562 C 136.609 278.375,136.571 278.574,136.573 279.004 M327.148 283.264 C 327.148 283.298,327.434 283.583,327.783 283.899 L 328.418 284.473 327.844 283.838 C 327.310 283.246,327.148 283.113,327.148 283.264 M116.651 284.668 C 116.653 285.098,116.693 285.250,116.740 285.007 C 116.786 284.765,116.785 284.413,116.736 284.226 C 116.687 284.040,116.649 284.238,116.651 284.668 M131.518 287.695 C 131.518 288.823,131.550 289.285,131.589 288.721 C 131.629 288.157,131.629 287.234,131.589 286.670 C 131.550 286.106,131.518 286.567,131.518 287.695 M323.828 286.389 C 323.828 286.423,324.114 286.708,324.463 287.024 L 325.098 287.598 324.524 286.963 C 323.989 286.371,323.828 286.238,323.828 286.389 M135.998 287.598 C 135.999 288.242,136.036 288.482,136.079 288.131 C 136.123 287.780,136.122 287.253,136.077 286.959 C 136.032 286.666,135.997 286.953,135.998 287.598 M129.932 288.965 C 129.934 289.395,129.974 289.547,130.021 289.304 C 130.068 289.061,130.066 288.710,130.017 288.523 C 129.968 288.336,129.930 288.535,129.932 288.965 M125.241 289.844 C 125.241 290.220,125.281 290.374,125.330 290.186 C 125.379 289.998,125.379 289.690,125.330 289.502 C 125.281 289.314,125.241 289.468,125.241 289.844 M148.686 290.625 C 148.686 291.108,148.724 291.306,148.771 291.064 C 148.817 290.823,148.817 290.427,148.771 290.186 C 148.724 289.944,148.686 290.142,148.686 290.625 M138.541 293.262 C 138.542 294.014,138.577 294.297,138.619 293.892 C 138.661 293.487,138.661 292.872,138.618 292.525 C 138.574 292.178,138.540 292.510,138.541 293.262 M333.984 295.215 C 334.349 295.591,334.691 295.898,334.745 295.898 C 334.798 295.898,334.544 295.591,334.180 295.215 C 333.815 294.839,333.473 294.531,333.419 294.531 C 333.366 294.531,333.620 294.839,333.984 295.215 M143.220 295.801 C 143.221 296.338,143.259 296.534,143.304 296.238 C 143.349 295.941,143.348 295.501,143.302 295.261 C 143.255 295.021,143.218 295.264,143.220 295.801 M125.241 295.703 C 125.241 296.079,125.281 296.233,125.330 296.045 C 125.379 295.857,125.379 295.549,125.330 295.361 C 125.281 295.173,125.241 295.327,125.241 295.703 M145.071 295.255 C 145.314 295.302,145.665 295.300,145.852 295.251 C 146.039 295.202,145.840 295.164,145.410 295.166 C 144.980 295.169,144.828 295.209,145.071 295.255 M344.141 301.233 C 344.141 301.267,344.426 301.552,344.775 301.868 L 345.410 302.441 344.837 301.807 C 344.302 301.215,344.141 301.082,344.141 301.233 M325.635 306.152 C 325.637 306.582,325.677 306.735,325.724 306.492 C 325.771 306.249,325.769 305.897,325.720 305.711 C 325.671 305.524,325.633 305.723,325.635 306.152 M330.137 306.445 C 330.137 307.036,330.173 307.278,330.218 306.982 C 330.263 306.687,330.263 306.204,330.218 305.908 C 330.173 305.613,330.137 305.854,330.137 306.445 M126.816 307.031 C 126.816 307.622,126.853 307.864,126.898 307.568 C 126.942 307.273,126.942 306.790,126.898 306.494 C 126.853 306.199,126.816 306.440,126.816 307.031 M131.499 307.227 C 131.499 307.710,131.537 307.908,131.583 307.666 C 131.630 307.424,131.630 307.029,131.583 306.787 C 131.537 306.545,131.499 306.743,131.499 307.227 M139.502 308.533 C 139.690 308.582,139.998 308.582,140.186 308.533 C 140.374 308.484,140.220 308.444,139.844 308.444 C 139.468 308.444,139.314 308.484,139.502 308.533 M325.444 309.570 C 325.444 310.054,325.482 310.251,325.528 310.010 C 325.575 309.768,325.575 309.373,325.528 309.131 C 325.482 308.889,325.444 309.087,325.444 309.570 M129.091 313.232 L 128.418 313.965 129.150 313.292 C 129.832 312.665,129.973 312.500,129.823 312.500 C 129.791 312.500,129.461 312.830,129.091 313.232 M110.400 314.588 C 110.588 314.637,110.896 314.637,111.084 314.588 C 111.272 314.539,111.118 314.498,110.742 314.498 C 110.366 314.498,110.212 314.539,110.400 314.588 M113.525 314.588 C 113.713 314.637,114.021 314.637,114.209 314.588 C 114.397 314.539,114.243 314.498,113.867 314.498 C 113.491 314.498,113.337 314.539,113.525 314.588 M122.708 315.570 C 123.005 315.615,123.444 315.614,123.684 315.567 C 123.925 315.521,123.682 315.484,123.145 315.486 C 122.607 315.487,122.411 315.525,122.708 315.570 M335.107 316.355 C 335.671 316.394,336.594 316.394,337.158 316.355 C 337.722 316.315,337.261 316.283,336.133 316.283 C 335.005 316.283,334.543 316.315,335.107 316.355 " stroke="none" fill="#7c747d" fill-rule="evenodd"></path><path id="path4" d="M120.703 117.090 C 121.287 117.681,121.808 118.164,121.862 118.164 C 121.915 118.164,121.482 117.681,120.898 117.090 C 120.315 116.499,119.794 116.016,119.740 116.016 C 119.686 116.016,120.120 116.499,120.703 117.090 M125.195 121.350 C 125.195 121.384,125.481 121.669,125.830 121.985 L 126.465 122.559 125.891 121.924 C 125.356 121.332,125.195 121.199,125.195 121.350 M158.301 128.125 C 159.479 129.307,160.487 130.273,160.540 130.273 C 160.594 130.273,159.674 129.307,158.496 128.125 C 157.318 126.943,156.310 125.977,156.257 125.977 C 156.203 125.977,157.123 126.943,158.301 128.125 M107.278 128.070 C 107.575 128.115,108.014 128.114,108.255 128.067 C 108.495 128.021,108.252 127.984,107.715 127.986 C 107.178 127.987,106.981 128.025,107.278 128.070 M126.750 132.471 C 127.229 132.981,127.646 133.398,127.677 133.398 C 127.824 133.398,127.669 133.223,126.807 132.414 L 125.879 131.543 126.750 132.471 M164.648 135.059 C 165.013 135.435,165.355 135.742,165.409 135.742 C 165.462 135.742,165.208 135.435,164.844 135.059 C 164.479 134.683,164.137 134.375,164.084 134.375 C 164.030 134.375,164.284 134.683,164.648 135.059 M129.737 149.316 C 129.739 149.746,129.779 149.899,129.826 149.656 C 129.872 149.413,129.871 149.061,129.822 148.875 C 129.773 148.688,129.735 148.887,129.737 149.316 M177.734 152.832 C 178.426 153.530,179.037 154.102,179.090 154.102 C 179.144 154.102,178.622 153.530,177.930 152.832 C 177.238 152.134,176.627 151.563,176.574 151.563 C 176.520 151.563,177.042 152.134,177.734 152.832 M183.594 152.014 C 183.594 152.048,183.879 152.333,184.229 152.649 L 184.863 153.223 184.290 152.588 C 183.755 151.996,183.594 151.863,183.594 152.014 M118.604 158.728 C 118.792 158.778,119.099 158.778,119.287 158.728 C 119.475 158.679,119.321 158.639,118.945 158.639 C 118.569 158.639,118.416 158.679,118.604 158.728 M117.533 163.618 C 117.884 163.662,118.411 163.661,118.705 163.616 C 118.998 163.572,118.711 163.536,118.066 163.537 C 117.422 163.538,117.182 163.575,117.533 163.618 M131.104 167.871 C 131.106 168.301,131.146 168.454,131.193 168.211 C 131.240 167.968,131.238 167.616,131.189 167.429 C 131.140 167.243,131.102 167.441,131.104 167.871 M126.217 168.164 C 126.217 168.540,126.257 168.694,126.307 168.506 C 126.356 168.318,126.356 168.010,126.307 167.822 C 126.257 167.634,126.217 167.788,126.217 168.164 M193.457 170.117 C 193.877 170.547,194.264 170.898,194.318 170.898 C 194.371 170.898,194.072 170.547,193.652 170.117 C 193.233 169.688,192.846 169.336,192.792 169.336 C 192.738 169.336,193.037 169.688,193.457 170.117 M201.172 171.387 C 201.864 172.085,202.474 172.656,202.528 172.656 C 202.581 172.656,202.059 172.085,201.367 171.387 C 200.675 170.688,200.065 170.117,200.011 170.117 C 199.958 170.117,200.480 170.688,201.172 171.387 M195.898 172.717 C 195.898 172.751,196.184 173.037,196.533 173.352 L 197.168 173.926 196.594 173.291 C 196.060 172.699,195.898 172.566,195.898 172.717 M125.642 189.551 C 125.643 190.088,125.681 190.284,125.726 189.988 C 125.771 189.691,125.770 189.251,125.723 189.011 C 125.677 188.771,125.640 189.014,125.642 189.551 M141.748 191.739 C 141.990 191.786,142.385 191.786,142.627 191.739 C 142.869 191.693,142.671 191.655,142.188 191.655 C 141.704 191.655,141.506 191.693,141.748 191.739 M140.670 211.719 C 140.670 212.095,140.711 212.249,140.760 212.061 C 140.809 211.873,140.809 211.565,140.760 211.377 C 140.711 211.189,140.670 211.343,140.670 211.719 M250.000 212.012 C 250.364 212.388,250.707 212.695,250.760 212.695 C 250.814 212.695,250.560 212.388,250.195 212.012 C 249.831 211.636,249.489 211.328,249.435 211.328 C 249.381 211.328,249.636 211.636,250.000 212.012 M145.591 220.117 C 145.591 222.534,145.619 223.523,145.654 222.314 C 145.688 221.106,145.688 219.128,145.654 217.920 C 145.619 216.711,145.591 217.700,145.591 220.117 M249.512 218.164 C 250.366 219.023,251.109 219.727,251.163 219.727 C 251.216 219.727,250.561 219.023,249.707 218.164 C 248.853 217.305,248.110 216.602,248.056 216.602 C 248.002 216.602,248.657 217.305,249.512 218.164 M252.441 221.094 C 252.861 221.523,253.248 221.875,253.302 221.875 C 253.356 221.875,253.056 221.523,252.637 221.094 C 252.217 220.664,251.830 220.313,251.776 220.313 C 251.722 220.313,252.022 220.664,252.441 221.094 M255.078 223.889 C 255.078 223.923,255.364 224.208,255.713 224.524 L 256.348 225.098 255.774 224.463 C 255.239 223.871,255.078 223.738,255.078 223.889 M116.660 232.227 C 116.660 232.817,116.697 233.059,116.741 232.764 C 116.786 232.468,116.786 231.985,116.741 231.689 C 116.697 231.394,116.660 231.636,116.660 232.227 M111.772 232.227 C 111.772 232.710,111.810 232.908,111.857 232.666 C 111.903 232.424,111.903 232.029,111.857 231.787 C 111.810 231.545,111.772 231.743,111.772 232.227 M272.949 236.719 C 273.369 237.148,273.756 237.500,273.810 237.500 C 273.863 237.500,273.564 237.148,273.145 236.719 C 272.725 236.289,272.338 235.938,272.284 235.938 C 272.230 235.938,272.530 236.289,272.949 236.719 M116.456 237.402 C 116.458 237.832,116.498 237.985,116.544 237.742 C 116.591 237.499,116.589 237.147,116.540 236.961 C 116.492 236.774,116.453 236.973,116.456 237.402 M159.229 237.049 C 159.417 237.098,159.724 237.098,159.912 237.049 C 160.100 237.000,159.946 236.959,159.570 236.959 C 159.194 236.959,159.041 237.000,159.229 237.049 M166.846 237.049 C 167.034 237.098,167.341 237.098,167.529 237.049 C 167.717 237.000,167.563 236.959,167.188 236.959 C 166.812 236.959,166.658 237.000,166.846 237.049 M111.569 239.063 C 111.569 239.438,111.609 239.592,111.658 239.404 C 111.707 239.216,111.707 238.909,111.658 238.721 C 111.609 238.533,111.569 238.687,111.569 239.063 M142.067 242.285 C 142.067 243.574,142.099 244.076,142.137 243.401 C 142.175 242.725,142.175 241.670,142.136 241.057 C 142.098 240.443,142.066 240.996,142.067 242.285 M146.947 243.359 C 146.947 244.487,146.980 244.949,147.019 244.385 C 147.058 243.821,147.058 242.898,147.019 242.334 C 146.980 241.770,146.947 242.231,146.947 243.359 M157.080 241.736 C 157.268 241.785,157.576 241.785,157.764 241.736 C 157.952 241.687,157.798 241.647,157.422 241.647 C 157.046 241.647,156.892 241.687,157.080 241.736 M272.363 242.969 C 272.892 243.506,273.369 243.945,273.423 243.945 C 273.477 243.945,273.088 243.506,272.559 242.969 C 272.030 242.432,271.553 241.992,271.499 241.992 C 271.445 241.992,271.834 242.432,272.363 242.969 M111.182 246.582 C 111.184 247.012,111.224 247.165,111.271 246.922 C 111.318 246.679,111.316 246.327,111.267 246.140 C 111.218 245.954,111.180 246.152,111.182 246.582 M115.902 254.199 C 115.902 256.348,115.931 257.253,115.966 256.212 C 116.001 255.170,116.001 253.412,115.966 252.305 C 115.931 251.199,115.903 252.051,115.902 254.199 M111.013 254.102 C 111.013 255.444,111.044 255.994,111.082 255.322 C 111.120 254.651,111.120 253.552,111.082 252.881 C 111.044 252.209,111.013 252.759,111.013 254.102 M111.182 261.621 C 111.184 262.051,111.224 262.204,111.271 261.961 C 111.318 261.718,111.316 261.366,111.267 261.179 C 111.218 260.993,111.180 261.191,111.182 261.621 M116.061 263.281 C 116.061 263.657,116.101 263.811,116.150 263.623 C 116.199 263.435,116.199 263.127,116.150 262.939 C 116.101 262.751,116.061 262.905,116.061 263.281 M309.180 270.410 C 309.872 271.108,310.482 271.680,310.536 271.680 C 310.589 271.680,310.067 271.108,309.375 270.410 C 308.683 269.712,308.073 269.141,308.019 269.141 C 307.965 269.141,308.488 269.712,309.180 270.410 M116.452 270.508 C 116.452 270.884,116.492 271.038,116.541 270.850 C 116.590 270.662,116.590 270.354,116.541 270.166 C 116.492 269.978,116.452 270.132,116.452 270.508 M111.963 277.051 C 111.965 277.480,112.005 277.633,112.052 277.390 C 112.099 277.147,112.097 276.796,112.048 276.609 C 111.999 276.422,111.961 276.621,111.963 277.051 M116.873 280.371 C 116.873 281.768,116.904 282.313,116.942 281.584 C 116.980 280.854,116.979 279.712,116.941 279.045 C 116.903 278.378,116.872 278.975,116.873 280.371 M111.975 283.105 C 111.976 283.750,112.012 283.990,112.056 283.639 C 112.099 283.288,112.098 282.761,112.054 282.467 C 112.009 282.174,111.973 282.461,111.975 283.105 M329.492 285.645 C 329.857 286.021,330.199 286.328,330.252 286.328 C 330.306 286.328,330.052 286.021,329.688 285.645 C 329.323 285.269,328.981 284.961,328.927 284.961 C 328.874 284.961,329.128 285.269,329.492 285.645 M143.907 286.242 C 143.862 286.625,143.897 286.982,143.983 287.035 C 144.070 287.089,144.141 286.776,144.141 286.340 C 144.141 285.361,144.016 285.309,143.907 286.242 M148.873 287.500 C 148.873 287.876,148.914 288.030,148.963 287.842 C 149.012 287.654,149.012 287.346,148.963 287.158 C 148.914 286.970,148.873 287.124,148.873 287.500 M129.928 291.211 C 129.928 291.587,129.968 291.741,130.017 291.553 C 130.067 291.365,130.067 291.057,130.017 290.869 C 129.968 290.681,129.928 290.835,129.928 291.211 M111.914 299.707 C 111.440 300.190,111.095 300.586,111.149 300.586 C 111.203 300.586,111.635 300.190,112.109 299.707 C 112.584 299.224,112.928 298.828,112.874 298.828 C 112.821 298.828,112.388 299.224,111.914 299.707 M326.367 299.475 C 326.367 299.509,326.653 299.794,327.002 300.110 L 327.637 300.684 327.063 300.049 C 326.528 299.457,326.367 299.324,326.367 299.475 M324.707 304.492 C 325.127 304.922,325.514 305.273,325.568 305.273 C 325.621 305.273,325.322 304.922,324.902 304.492 C 324.483 304.063,324.096 303.711,324.042 303.711 C 323.988 303.711,324.287 304.063,324.707 304.492 M341.016 304.785 C 341.380 305.161,341.722 305.469,341.776 305.469 C 341.830 305.469,341.575 305.161,341.211 304.785 C 340.847 304.409,340.504 304.102,340.451 304.102 C 340.397 304.102,340.651 304.409,341.016 304.785 M110.400 309.900 C 110.588 309.949,110.896 309.949,111.084 309.900 C 111.272 309.851,111.118 309.811,110.742 309.811 C 110.366 309.811,110.212 309.851,110.400 309.900 M113.916 309.900 C 114.104 309.949,114.412 309.949,114.600 309.900 C 114.788 309.851,114.634 309.811,114.258 309.811 C 113.882 309.811,113.728 309.851,113.916 309.900 M91.650 311.463 C 91.838 311.512,92.146 311.512,92.334 311.463 C 92.522 311.414,92.368 311.373,91.992 311.373 C 91.616 311.373,91.462 311.414,91.650 311.463 M95.370 311.473 C 96.208 311.510,97.526 311.510,98.300 311.473 C 99.074 311.436,98.389 311.406,96.777 311.406 C 95.166 311.407,94.533 311.437,95.370 311.473 M91.946 316.349 C 92.189 316.396,92.540 316.394,92.727 316.345 C 92.914 316.296,92.715 316.258,92.285 316.260 C 91.855 316.262,91.703 316.302,91.946 316.349 M97.611 316.352 C 97.962 316.396,98.489 316.395,98.783 316.350 C 99.076 316.306,98.789 316.270,98.145 316.271 C 97.500 316.273,97.260 316.309,97.611 316.352 " stroke="none" fill="#cbcace" fill-rule="evenodd"></path></g></svg>