<svg viewBox="0 0 2816 1536" xmlns="http://www.w3.org/2000/svg">
<path d="M0 0 C1.84975309 0.95577442 3.33879304 2.01621219 4.94140625 3.34375 C5.52148438 3.78332031 6.1015625 4.22289062 6.69921875 4.67578125 C9.63647393 7.37395752 10.79268206 9.49814678 11.48828125 13.453125 C11.79511221 21.12389892 10.28497757 26.97181682 7.25 33.953125 C5.3136428 38.97031321 4.45512478 44.0424669 3.51953125 49.32421875 C2.94140625 52.34375 2.94140625 52.34375 1.94140625 54.34375 C1.83394155 56.28958245 1.78581495 58.23880687 1.765625 60.1875 C1.55388036 72.43937066 1.24007851 84.48227739 -0.80859375 96.59375 C-7.70809703 137.76306331 -9.11745768 176.36748368 -5.62768555 217.91625977 C-4.11731934 236.10973315 -3.28422703 254.28650728 -2.74267578 272.53295898 C-2.01872171 295.86049743 1.58745034 316.92054263 11.62890625 338.15625 C16.18444125 347.97079842 17.48046716 357.76627903 18.37890625 368.46875 C19.33083995 378.48371677 20.61743145 387.9830273 23.24023438 397.69384766 C24.87369682 403.86710719 26.36701649 410.07728256 27.87890625 416.28125 C28.05404755 416.99948944 28.22918884 417.71772888 28.40963745 418.45773315 C31.45080369 430.9695744 34.19833139 443.50282051 36.39013672 456.1953125 C36.75587462 458.28413268 37.13757755 460.37022399 37.53564453 462.453125 C43.88110645 495.82517002 41.48290579 530.03162364 38.43371582 563.64373779 C36.82036188 581.69156474 39.03794157 598.49746824 41.94140625 616.34375 C42.1633754 617.72084547 42.38521564 619.09796172 42.60693359 620.47509766 C43.93343789 628.68734363 45.30397962 636.89161747 46.70556641 645.09136963 C47.41120479 649.21992663 48.1108551 653.34933427 48.79833984 657.48095703 C51.92209218 676.25008831 55.1104107 694.80109946 60.33056641 713.12451172 C63.53520885 724.76727742 64.16267261 735.97638222 64.19140625 748.03125 C64.19441238 749.06176483 64.19441238 749.06176483 64.19747925 750.11309814 C64.20412016 759.47515358 63.62655393 768.51189793 62.07910156 777.7565918 C60.53078461 787.6120846 60.48312617 797.54281797 60.40844727 807.49951172 C60.13307147 830.07319659 52.13225004 848.23527364 40.94140625 867.34375 C40.28140625 867.34375 39.62140625 867.34375 38.94140625 867.34375 C38.72484375 868.00761719 38.50828125 868.67148437 38.28515625 869.35546875 C36.49004067 873.34751357 34.03865696 876.64962598 31.44140625 880.15625 C30.94253906 880.84912109 30.44367188 881.54199219 29.9296875 882.25585938 C29.44886719 882.91005859 28.96804688 883.56425781 28.47265625 884.23828125 C28.03501953 884.83487549 27.59738281 885.43146973 27.14648438 886.04614258 C26.74880859 886.47435303 26.35113281 886.90256348 25.94140625 887.34375 C25.28140625 887.34375 24.62140625 887.34375 23.94140625 887.34375 C23.55746704 888.21555908 23.55746704 888.21555908 23.16577148 889.10498047 C21.82267994 891.56084277 20.33469752 893.19364468 18.3515625 895.1640625 C17.64966797 895.86402344 16.94777344 896.56398438 16.22460938 897.28515625 C15.49177734 898.00574219 14.75894531 898.72632813 14.00390625 899.46875 C13.27494141 900.19707031 12.54597656 900.92539063 11.79492188 901.67578125 C8.92764841 904.51940168 6.31134817 907.09712205 2.94140625 909.34375 C3.55149342 913.88129571 4.31119485 918.33468733 5.28125 922.80859375 C5.5388208 924.01402832 5.7963916 925.21946289 6.06176758 926.46142578 C6.33142334 927.72196777 6.6010791 928.98250977 6.87890625 930.28125 C8.8671853 939.69138084 10.65185795 949.00005612 11.6171875 958.5703125 C11.85543358 961.42572629 11.85543358 961.42572629 12.94140625 964.34375 C13.04995782 966.71224985 13.09769926 969.08366682 13.11499023 971.45458984 C13.12167725 972.17541748 13.12836426 972.89624512 13.13525391 973.63891602 C13.14930239 975.20542081 13.1611971 976.77194606 13.17120171 978.3384819 C13.18766155 980.82913226 13.21090829 983.31963473 13.23609924 985.81021118 C13.30668785 992.89244127 13.36657112 999.97473598 13.41821289 1007.05712891 C13.45029836 1011.39196175 13.49165802 1015.72663065 13.53840828 1020.06132889 C13.5542695 1021.70287703 13.5666628 1023.34446294 13.57531548 1024.98606491 C13.62168038 1033.66672668 13.99693698 1041.94609096 15.48948669 1050.52505493 C16.11512004 1054.42723091 16.24648867 1058.24258995 16.2421875 1062.1875 C16.24783218 1062.95500076 16.25347687 1063.72250153 16.2592926 1064.51325989 C16.27114141 1066.95697283 16.26513259 1069.40004004 16.25390625 1071.84375 C16.25067352 1073.11428726 16.25067352 1073.11428726 16.24737549 1074.41049194 C16.19942462 1086.17328223 15.61977022 1097.46680013 13.50683594 1109.05419922 C12.31246883 1116.00277541 11.3514834 1122.9896196 10.34085083 1129.96685791 C9.94230588 1132.7125522 9.53992075 1135.45765866 9.13647461 1138.20263672 C7.81326978 1147.22044057 6.52335 1156.23869998 5.37890625 1165.28125 C5.0373678 1167.91752354 4.693915 1170.55353958 4.34960938 1173.18945312 C4.03878649 1175.5912663 3.7335724 1177.99355268 3.43164062 1180.39648438 C2.95316209 1184.18515172 2.44946075 1187.96994121 1.93362427 1191.75369263 C1.73421857 1193.2441129 1.54224694 1194.73555136 1.35861206 1196.22799683 C-0.10691116 1208.08461447 -3.10770691 1218.0857457 -11.05859375 1227.34375 C-13.43359375 1229.07421875 -13.43359375 1229.07421875 -16.05859375 1230.53125 C-17.32703125 1231.26408203 -17.32703125 1231.26408203 -18.62109375 1232.01171875 C-30.75070523 1236.7119432 -44.43821598 1235.78621754 -57.24609375 1235.96875 C-59.41243939 1236.00387453 -61.57878055 1236.03927602 -63.74511719 1236.07495117 C-67.96657159 1236.14253029 -72.18805399 1236.20358781 -76.40966797 1236.26025391 C-81.05550117 1236.32452834 -85.69898265 1236.42552309 -90.34375 1236.54296875 C-104.4278465 1236.83828371 -116.16748112 1236.31854306 -127.05859375 1226.34375 C-127.88359375 1225.60125 -128.70859375 1224.85875 -129.55859375 1224.09375 C-131.80439844 1219.97644141 -132.28320756 1215.8866722 -131.05859375 1211.34375 C-127.4721259 1205.54678494 -123.42104358 1203.08641941 -116.99609375 1201.28125 C-116.22241455 1201.0435791 -115.44873535 1200.8059082 -114.65161133 1200.56103516 C-112.12779704 1199.79472022 -109.59526779 1199.06627457 -107.05859375 1198.34375 C-105.26167142 1197.82177749 -103.46479702 1197.29963995 -101.66796875 1196.77734375 C-98.09901561 1195.7471966 -94.52588447 1194.73348442 -90.94921875 1193.73046875 C-85.78825767 1192.27832382 -80.66882521 1190.71509775 -75.5546875 1189.10546875 C-71.68317765 1187.92402208 -68.23872889 1187.20892613 -64.1796875 1187.0625 C-63.25865234 1187.02511719 -62.33761719 1186.98773437 -61.38867188 1186.94921875 C-59.45638539 1186.87876401 -57.52409369 1186.80845208 -55.59179688 1186.73828125 C-54.67205078 1186.70089844 -53.75230469 1186.66351562 -52.8046875 1186.625 C-51.96607178 1186.59470703 -51.12745605 1186.56441406 -50.26342773 1186.53320312 C-47.8833819 1186.41526231 -47.8833819 1186.41526231 -45.05859375 1185.34375 C-45.05859375 1181.38375 -45.05859375 1177.42375 -45.05859375 1173.34375 C-46.01636719 1173.488125 -46.97414063 1173.6325 -47.9609375 1173.78125 C-55.37790905 1174.84068295 -62.75086805 1175.58724039 -70.24609375 1175.71875 C-70.9517749 1175.74453125 -71.65745605 1175.7703125 -72.38452148 1175.796875 C-75.95195081 1175.81060744 -77.94002762 1175.41722316 -80.99609375 1173.5234375 C-83.53662818 1170.83855453 -83.81092603 1168.97620989 -84.05859375 1165.34375 C-84.60902344 1165.4159375 -85.15945313 1165.488125 -85.7265625 1165.5625 C-92.38650484 1166.30593542 -99.05044461 1166.54390493 -105.74609375 1166.65625 C-106.63643311 1166.68589844 -107.52677246 1166.71554687 -108.4440918 1166.74609375 C-114.49507056 1166.80009523 -119.01888781 1165.79842376 -124.05859375 1162.34375 C-128.19691938 1157.99320254 -129.46439582 1154.44993701 -129.3203125 1148.3984375 C-128.8553914 1144.7484599 -127.55596185 1143.01950154 -125.05859375 1140.34375 C-117.42060532 1135.54913576 -108.76734443 1133.20054106 -100.18359375 1130.71875 C-98.88518009 1130.33413109 -97.58700153 1129.94871759 -96.2890625 1129.5625 C-92.55443473 1128.45754963 -88.8092322 1127.39320553 -85.05859375 1126.34375 C-84.00091797 1126.04718506 -82.94324219 1125.75062012 -81.85351562 1125.44506836 C-75.01772032 1123.62452151 -68.35621684 1122.67811883 -61.30859375 1122.15625 C-60.3134375 1122.07439453 -59.31828125 1121.99253906 -58.29296875 1121.90820312 C-55.88207261 1121.71115873 -53.47085977 1121.52309225 -51.05859375 1121.34375 C-51.22464111 1120.28800781 -51.22464111 1120.28800781 -51.39404297 1119.2109375 C-52.47347565 1112.32772887 -53.53177975 1105.44159882 -54.57128906 1098.55224609 C-54.96082149 1095.987499 -55.36297044 1093.42534687 -55.76953125 1090.86328125 C-57.69791124 1077.60217538 -58.55681406 1063.19147321 -56.05859375 1049.96875 C-54.82035649 1043.3856037 -54.79481877 1036.83438914 -54.74609375 1030.15625 C-54.72869141 1029.03105957 -54.71128906 1027.90586914 -54.69335938 1026.74658203 C-54.69400391 1025.69196777 -54.69464844 1024.63735352 -54.6953125 1023.55078125 C-54.69233154 1022.5966333 -54.68935059 1021.64248535 -54.6862793 1020.65942383 C-54.80914307 1019.89525146 -54.93200684 1019.1310791 -55.05859375 1018.34375 C-58.4794557 1016.06317537 -60.13526447 1016.12914939 -64.12109375 1016.66015625 C-69.35514996 1017.87818795 -74.29963608 1019.89905614 -79.2890625 1021.87109375 C-79.93649414 1022.12294434 -80.58392578 1022.37479492 -81.25097656 1022.63427734 C-82.79635743 1023.24082472 -84.33279023 1023.87008707 -85.8671875 1024.50390625 C-99.87402322 1028.18991565 -115.41044485 1026.09609134 -128.05859375 1019.34375 C-131.95372301 1016.91284816 -135.51977975 1014.26311823 -139.05859375 1011.34375 C-140.11046875 1010.580625 -141.16234375 1009.8175 -142.24609375 1009.03125 C-154.41814605 997.40017781 -164.07847677 979.26518136 -165.05859375 962.34375 C-165.12304688 961.34988281 -165.1875 960.35601563 -165.25390625 959.33203125 C-165.84986581 941.91014691 -161.10864809 927.31063253 -149.68359375 914.03125 C-145.50132695 909.6004614 -141.04479235 905.83498421 -136.05859375 902.34375 C-135.41277344 901.88226562 -134.76695313 901.42078125 -134.1015625 900.9453125 C-125.07991366 894.88188253 -114.96023649 892.71207416 -104.43237305 890.73803711 C-103.63742432 890.58471924 -102.84247559 890.43140137 -102.0234375 890.2734375 C-101.30792725 890.14179199 -100.59241699 890.01014648 -99.85522461 889.87451172 C-97.82728543 889.43097461 -97.82728543 889.43097461 -96.05859375 887.34375 C-95.78809127 879.06122165 -97.61601361 870.81281217 -99.33984375 862.75390625 C-103.30067403 843.96148869 -102.53983765 822.51062479 -96.76953125 804.2421875 C-96.28173578 802.69296512 -95.79479687 801.14347285 -95.30859375 799.59375 C-95.054729 798.79235596 -94.80086426 797.99096191 -94.53930664 797.1652832 C-91.21169692 786.21831353 -89.24002997 774.94957415 -87.08656311 763.72673035 C-86.8812925 762.65736992 -86.8812925 762.65736992 -86.671875 761.56640625 C-86.5357933 760.85740677 -86.39971161 760.14840729 -86.25950623 759.41792297 C-85.01978528 753.02077337 -83.56072105 746.68409668 -82.05859375 740.34375 C-79.68213564 730.0200228 -77.35611097 719.68528681 -75.05859375 709.34375 C-74.82398438 708.29413086 -74.589375 707.24451172 -74.34765625 706.16308594 C-71.04562567 691.24789532 -68.81363391 677.97098215 -75.05859375 663.34375 C-76.90590165 660.55081732 -78.95927573 657.95043496 -81.05859375 655.34375 C-92.54860516 640.76498469 -101.54976005 626.18805053 -107.05859375 608.34375 C-107.37699219 607.44398438 -107.69539063 606.54421875 -108.0234375 605.6171875 C-113.26320184 588.85960016 -110.54761037 570.61601574 -105.05859375 554.34375 C-104.68605469 553.18746094 -104.31351563 552.03117188 -103.9296875 550.83984375 C-101.45084793 543.80063033 -98.00470703 537.52081669 -94.30151367 531.07788086 C-85.58857755 515.87115061 -84.81342908 500.88804613 -84.5958252 483.7121582 C-84.24496421 457.85887986 -81.90225884 432.8125615 -77.96536255 407.28146362 C-76.94354538 400.64284489 -75.99584628 393.99478816 -75.05859375 387.34375 C-74.94153076 386.53655518 -74.82446777 385.72936035 -74.70385742 384.89770508 C-72.57362 369.69354439 -74.87348322 356.33431041 -79.484375 341.83984375 C-92.48844067 300.77615788 -90.91609672 262.92941288 -80.85302734 221.40893555 C-75.66678345 199.72643597 -70.5115954 177.21999063 -70.30859375 154.84375 C-70.29320557 153.87268311 -70.27781738 152.90161621 -70.26196289 151.90112305 C-70.44100475 144.09700447 -73.15165085 139.30519808 -78.55859375 133.796875 C-79.38359375 133.06984375 -80.20859375 132.3428125 -81.05859375 131.59375 C-87.6637605 125.15617703 -91.16066622 117.98764051 -91.68359375 108.71875 C-90.9961935 96.72361571 -82.43001672 88.08847563 -73.9140625 80.41015625 C-72.60567039 79.29273261 -71.2970803 78.17554073 -69.98828125 77.05859375 C-59.00682976 67.2997735 -53.04834658 54.96921147 -47.49609375 41.65625 C-40.8647972 25.81645256 -31.68345453 12.97114141 -18.05859375 2.34375 C-16.94484375 1.415625 -16.94484375 1.415625 -15.80859375 0.46875 C-10.81252101 -1.57509794 -5.15571274 -1.64356687 0 0 Z " fill="currentColor" transform="translate(1452.05859375,150.65625)"/>
<path d="M0 0 C1.84975309 0.95577442 3.33879304 2.01621219 4.94140625 3.34375 C5.52148438 3.78332031 6.1015625 4.22289062 6.69921875 4.67578125 C9.63647393 7.37395752 10.79268206 9.49814678 11.48828125 13.453125 C11.79511221 21.12389892 10.28497757 26.97181682 7.25 33.953125 C5.3136428 38.97031321 4.45512478 44.0424669 3.51953125 49.32421875 C2.94140625 52.34375 2.94140625 52.34375 1.94140625 54.34375 C1.83394155 56.28958245 1.78581495 58.23880687 1.765625 60.1875 C1.55388036 72.43937066 1.24007851 84.48227739 -0.80859375 96.59375 C-7.70809703 137.76306331 -9.11745768 176.36748368 -5.62768555 217.91625977 C-4.11731934 236.10973315 -3.28422703 254.28650728 -2.74267578 272.53295898 C-2.01872171 295.86049743 1.58745034 316.92054263 11.62890625 338.15625 C16.18444125 347.97079842 17.48046716 357.76627903 18.37890625 368.46875 C19.33083995 378.48371677 20.61743145 387.9830273 23.24023438 397.69384766 C24.87369682 403.86710719 26.36701649 410.07728256 27.87890625 416.28125 C28.05404755 416.99948944 28.22918884 417.71772888 28.40963745 418.45773315 C31.45080369 430.9695744 34.19833139 443.50282051 36.39013672 456.1953125 C36.75587462 458.28413268 37.13757755 460.37022399 37.53564453 462.453125 C43.88110645 495.82517002 41.48290579 530.03162364 38.43371582 563.64373779 C36.82036188 581.69156474 39.03794157 598.49746824 41.94140625 616.34375 C42.1633754 617.72084547 42.38521564 619.09796172 42.60693359 620.47509766 C43.93343789 628.68734363 45.30397962 636.89161747 46.70556641 645.09136963 C47.41120479 649.21992663 48.1108551 653.34933427 48.79833984 657.48095703 C51.92209218 676.25008831 55.1104107 694.80109946 60.33056641 713.12451172 C63.53520885 724.76727742 64.16267261 735.97638222 64.19140625 748.03125 C64.19441238 749.06176483 64.19441238 749.06176483 64.19747925 750.11309814 C64.20412016 759.47515358 63.62655393 768.51189793 62.07910156 777.7565918 C60.53078461 787.6120846 60.48312617 797.54281797 60.40844727 807.49951172 C60.13307147 830.07319659 52.13225004 848.23527364 40.94140625 867.34375 C40.28140625 867.34375 39.62140625 867.34375 38.94140625 867.34375 C38.72484375 868.00761719 38.50828125 868.67148437 38.28515625 869.35546875 C36.49004067 873.34751357 34.03865696 876.64962598 31.44140625 880.15625 C30.94253906 880.84912109 30.44367188 881.54199219 29.9296875 882.25585938 C29.44886719 882.91005859 28.96804688 883.56425781 28.47265625 884.23828125 C28.03501953 884.83487549 27.59738281 885.43146973 27.14648438 886.04614258 C26.74880859 886.47435303 26.35113281 886.90256348 25.94140625 887.34375 C25.28140625 887.34375 24.62140625 887.34375 23.94140625 887.34375 C23.55746704 888.21555908 23.55746704 888.21555908 23.16577148 889.10498047 C21.82267994 891.56084277 20.33469752 893.19364468 18.3515625 895.1640625 C17.64966797 895.86402344 16.94777344 896.56398438 16.22460938 897.28515625 C15.49177734 898.00574219 14.75894531 898.72632813 14.00390625 899.46875 C13.27494141 900.19707031 12.54597656 900.92539063 11.79492188 901.67578125 C8.92764841 904.51940168 6.31134817 907.09712205 2.94140625 909.34375 C3.55149342 913.88129571 4.31119485 918.33468733 5.28125 922.80859375 C5.5388208 924.01402832 5.7963916 925.21946289 6.06176758 926.46142578 C6.33142334 927.72196777 6.6010791 928.98250977 6.87890625 930.28125 C8.8671853 939.69138084 10.65185795 949.00005612 11.6171875 958.5703125 C11.85543358 961.42572629 11.85543358 961.42572629 12.94140625 964.34375 C13.04995782 966.71224985 13.09769926 969.08366682 13.11499023 971.45458984 C13.12167725 972.17541748 13.12836426 972.89624512 13.13525391 973.63891602 C13.14930239 975.20542081 13.1611971 976.77194606 13.17120171 978.3384819 C13.18766155 980.82913226 13.21090829 983.31963473 13.23609924 985.81021118 C13.30668785 992.89244127 13.36657112 999.97473598 13.41821289 1007.05712891 C13.45029836 1011.39196175 13.49165802 1015.72663065 13.53840828 1020.06132889 C13.5542695 1021.70287703 13.5666628 1023.34446294 13.57531548 1024.98606491 C13.62168038 1033.66672668 13.99693698 1041.94609096 15.48948669 1050.52505493 C16.11512004 1054.42723091 16.24648867 1058.24258995 16.2421875 1062.1875 C16.24783218 1062.95500076 16.25347687 1063.72250153 16.2592926 1064.51325989 C16.27114141 1066.95697283 16.26513259 1069.40004004 16.25390625 1071.84375 C16.25067352 1073.11428726 16.25067352 1073.11428726 16.24737549 1074.41049194 C16.19942462 1086.17328223 15.61977022 1097.46680013 13.50683594 1109.05419922 C12.31246883 1116.00277541 11.3514834 1122.9896196 10.34085083 1129.96685791 C9.94230588 1132.7125522 9.53992075 1135.45765866 9.13647461 1138.20263672 C7.81326978 1147.22044057 6.52335 1156.23869998 5.37890625 1165.28125 C5.0373678 1167.91752354 4.693915 1170.55353958 4.34960938 1173.18945312 C4.03878649 1175.5912663 3.7335724 1177.99355268 3.43164062 1180.39648438 C2.95316209 1184.18515172 2.44946075 1187.96994121 1.93362427 1191.75369263 C1.73421857 1193.2441129 1.54224694 1194.73555136 1.35861206 1196.22799683 C-0.10691116 1208.08461447 -3.10770691 1218.0857457 -11.05859375 1227.34375 C-13.43359375 1229.07421875 -13.43359375 1229.07421875 -16.05859375 1230.53125 C-17.32703125 1231.26408203 -17.32703125 1231.26408203 -18.62109375 1232.01171875 C-30.75070523 1236.7119432 -44.43821598 1235.78621754 -57.24609375 1235.96875 C-59.41243939 1236.00387453 -61.57878055 1236.03927602 -63.74511719 1236.07495117 C-67.96657159 1236.14253029 -72.18805399 1236.20358781 -76.40966797 1236.26025391 C-81.05550117 1236.32452834 -85.69898265 1236.42552309 -90.34375 1236.54296875 C-104.4278465 1236.83828371 -116.16748112 1236.31854306 -127.05859375 1226.34375 C-127.88359375 1225.60125 -128.70859375 1224.85875 -129.55859375 1224.09375 C-131.80439844 1219.97644141 -132.28320756 1215.8866722 -131.05859375 1211.34375 C-127.4721259 1205.54678494 -123.42104358 1203.08641941 -116.99609375 1201.28125 C-116.22241455 1201.0435791 -115.44873535 1200.8059082 -114.65161133 1200.56103516 C-112.12779704 1199.79472022 -109.59526779 1199.06627457 -107.05859375 1198.34375 C-105.26167142 1197.82177749 -103.46479702 1197.29963995 -101.66796875 1196.77734375 C-98.09901561 1195.7471966 -94.52588447 1194.73348442 -90.94921875 1193.73046875 C-85.78825767 1192.27832382 -80.66882521 1190.71509775 -75.5546875 1189.10546875 C-71.68317765 1187.92402208 -68.23872889 1187.20892613 -64.1796875 1187.0625 C-63.25865234 1187.02511719 -62.33761719 1186.98773437 -61.38867188 1186.94921875 C-59.45638539 1186.87876401 -57.52409369 1186.80845208 -55.59179688 1186.73828125 C-54.67205078 1186.70089844 -53.75230469 1186.66351562 -52.8046875 1186.625 C-51.96607178 1186.59470703 -51.12745605 1186.56441406 -50.26342773 1186.53320312 C-47.8833819 1186.41526231 -47.8833819 1186.41526231 -45.05859375 1185.34375 C-45.05859375 1181.38375 -45.05859375 1177.42375 -45.05859375 1173.34375 C-46.01636719 1173.488125 -46.97414063 1173.6325 -47.9609375 1173.78125 C-55.37790905 1174.84068295 -62.75086805 1175.58724039 -70.24609375 1175.71875 C-70.9517749 1175.74453125 -71.65745605 1175.7703125 -72.38452148 1175.796875 C-75.95195081 1175.81060744 -77.94002762 1175.41722316 -80.99609375 1173.5234375 C-83.53662818 1170.83855453 -83.81092603 1168.97620989 -84.05859375 1165.34375 C-84.60902344 1165.4159375 -85.15945313 1165.488125 -85.7265625 1165.5625 C-92.38650484 1166.30593542 -99.05044461 1166.54390493 -105.74609375 1166.65625 C-106.63643311 1166.68589844 -107.52677246 1166.71554687 -108.4440918 1166.74609375 C-114.49507056 1166.80009523 -119.01888781 1165.79842376 -124.05859375 1162.34375 C-128.19691938 1157.99320254 -129.46439582 1154.44993701 -129.3203125 1148.3984375 C-128.8553914 1144.7484599 -127.55596185 1143.01950154 -125.05859375 1140.34375 C-117.42060532 1135.54913576 -108.76734443 1133.20054106 -100.18359375 1130.71875 C-98.88518009 1130.33413109 -97.58700153 1129.94871759 -96.2890625 1129.5625 C-92.55443473 1128.45754963 -88.8092322 1127.39320553 -85.05859375 1126.34375 C-84.00091797 1126.04718506 -82.94324219 1125.75062012 -81.85351562 1125.44506836 C-75.01772032 1123.62452151 -68.35621684 1122.67811883 -61.30859375 1122.15625 C-60.3134375 1122.07439453 -59.31828125 1121.99253906 -58.29296875 1121.90820312 C-55.88207261 1121.71115873 -53.47085977 1121.52309225 -51.05859375 1121.34375 C-51.22464111 1120.28800781 -51.22464111 1120.28800781 -51.39404297 1119.2109375 C-52.47347565 1112.32772887 -53.53177975 1105.44159882 -54.57128906 1098.55224609 C-54.96082149 1095.987499 -55.36297044 1093.42534687 -55.76953125 1090.86328125 C-57.69791124 1077.60217538 -58.55681406 1063.19147321 -56.05859375 1049.96875 C-54.82035649 1043.3856037 -54.79481877 1036.83438914 -54.74609375 1030.15625 C-54.72869141 1029.03105957 -54.71128906 1027.90586914 -54.69335938 1026.74658203 C-54.69400391 1025.69196777 -54.69464844 1024.63735352 -54.6953125 1023.55078125 C-54.69233154 1022.5966333 -54.68935059 1021.64248535 -54.6862793 1020.65942383 C-54.80914307 1019.89525146 -54.93200684 1019.1310791 -55.05859375 1018.34375 C-58.4794557 1016.06317537 -60.13526447 1016.12914939 -64.12109375 1016.66015625 C-69.35514996 1017.87818795 -74.29963608 1019.89905614 -79.2890625 1021.87109375 C-79.93649414 1022.12294434 -80.58392578 1022.37479492 -81.25097656 1022.63427734 C-82.79635743 1023.24082472 -84.33279023 1023.87008707 -85.8671875 1024.50390625 C-99.87402322 1028.18991565 -115.41044485 1026.09609134 -128.05859375 1019.34375 C-131.95372301 1016.91284816 -135.51977975 1014.26311823 -139.05859375 1011.34375 C-140.11046875 1010.580625 -141.16234375 1009.8175 -142.24609375 1009.03125 C-154.41814605 997.40017781 -164.07847677 979.26518136 -165.05859375 962.34375 C-165.12304688 961.34988281 -165.1875 960.35601563 -165.25390625 959.33203125 C-165.84986581 941.91014691 -161.10864809 927.31063253 -149.68359375 914.03125 C-145.50132695 909.6004614 -141.04479235 905.83498421 -136.05859375 902.34375 C-135.41277344 901.88226562 -134.76695313 901.42078125 -134.1015625 900.9453125 C-125.07991366 894.88188253 -114.96023649 892.71207416 -104.43237305 890.73803711 C-103.63742432 890.58471924 -102.84247559 890.43140137 -102.0234375 890.2734375 C-101.30792725 890.14179199 -100.59241699 890.01014648 -99.85522461 889.87451172 C-97.82728543 889.43097461 -97.82728543 889.43097461 -96.05859375 887.34375 C-95.78809127 879.06122165 -97.61601361 870.81281217 -99.33984375 862.75390625 C-103.30067403 843.96148869 -102.53983765 822.51062479 -96.76953125 804.2421875 C-96.28173578 802.69296512 -95.79479687 801.14347285 -95.30859375 799.59375 C-95.054729 798.79235596 -94.80086426 797.99096191 -94.53930664 797.1652832 C-91.21169692 786.21831353 -89.24002997 774.94957415 -87.08656311 763.72673035 C-86.8812925 762.65736992 -86.8812925 762.65736992 -86.671875 761.56640625 C-86.5357933 760.85740677 -86.39971161 760.14840729 -86.25950623 759.41792297 C-85.01978528 753.02077337 -83.56072105 746.68409668 -82.05859375 740.34375 C-79.68213564 730.0200228 -77.35611097 719.68528681 -75.05859375 709.34375 C-74.82398438 708.29413086 -74.589375 707.24451172 -74.34765625 706.16308594 C-71.04562567 691.24789532 -68.81363391 677.97098215 -75.05859375 663.34375 C-76.90590165 660.55081732 -78.95927573 657.95043496 -81.05859375 655.34375 C-92.54860516 640.76498469 -101.54976005 626.18805053 -107.05859375 608.34375 C-107.37699219 607.44398438 -107.69539063 606.54421875 -108.0234375 605.6171875 C-113.26320184 588.85960016 -110.54761037 570.61601574 -105.05859375 554.34375 C-104.68605469 553.18746094 -104.31351563 552.03117188 -103.9296875 550.83984375 C-101.45084793 543.80063033 -98.00470703 537.52081669 -94.30151367 531.07788086 C-85.58857755 515.87115061 -84.81342908 500.88804613 -84.5958252 483.7121582 C-84.24496421 457.85887986 -81.90225884 432.8125615 -77.96536255 407.28146362 C-76.94354538 400.64284489 -75.99584628 393.99478816 -75.05859375 387.34375 C-74.94153076 386.53655518 -74.82446777 385.72936035 -74.70385742 384.89770508 C-72.57362 369.69354439 -74.87348322 356.33431041 -79.484375 341.83984375 C-92.48844067 300.77615788 -90.91609672 262.92941288 -80.85302734 221.40893555 C-75.66678345 199.72643597 -70.5115954 177.21999063 -70.30859375 154.84375 C-70.29320557 153.87268311 -70.27781738 152.90161621 -70.26196289 151.90112305 C-70.44100475 144.09700447 -73.15165085 139.30519808 -78.55859375 133.796875 C-79.38359375 133.06984375 -80.20859375 132.3428125 -81.05859375 131.59375 C-87.6637605 125.15617703 -91.16066622 117.98764051 -91.68359375 108.71875 C-90.9961935 96.72361571 -82.43001672 88.08847563 -73.9140625 80.41015625 C-72.60567039 79.29273261 -71.2970803 78.17554073 -69.98828125 77.05859375 C-59.00682976 67.2997735 -53.04834658 54.96921147 -47.49609375 41.65625 C-40.8647972 25.81645256 -31.68345453 12.97114141 -18.05859375 2.34375 C-16.94484375 1.415625 -16.94484375 1.415625 -15.80859375 0.46875 C-10.81252101 -1.57509794 -5.15571274 -1.64356687 0 0 Z M-56.05859375 173.34375 C-56.55359375 176.97375 -57.04859375 180.60375 -57.55859375 184.34375 C-59.32900879 196.70054037 -61.64964544 208.92269436 -64.12109375 221.15625 C-64.29253906 222.00533936 -64.46398438 222.85442871 -64.640625 223.72924805 C-66.50809178 232.94986526 -68.42711036 242.15823504 -70.42480469 251.3515625 C-76.10625003 278.17428748 -73.24435066 305.08488973 -65.66650391 331.21777344 C-64.3536927 335.80892201 -63.12316599 340.42325042 -61.87109375 345.03125 C-61.13419112 347.7236395 -60.39717457 350.41599707 -59.65942383 353.1081543 C-59.4611499 353.84590088 -59.26287598 354.58364746 -59.05859375 355.34375 C-58.77810181 356.33677124 -58.77810181 356.33677124 -58.49194336 357.34985352 C-54.04915267 377.79169666 -60.24609007 402.1362229 -63.61230469 422.35693359 C-64.10976191 425.35025377 -64.58554047 428.34648255 -65.05859375 431.34375 C-65.23302002 432.37669189 -65.40744629 433.40963379 -65.5871582 434.47387695 C-67.56897662 447.37362959 -67.71887462 460.38188621 -68.12109375 473.40625 C-69.6153403 519.64712289 -69.6153403 519.64712289 -82.02856445 542.69848633 C-89.3133623 556.27103197 -93.42001406 568.74036411 -93.37109375 584.21875 C-93.38720703 585.23066406 -93.40332031 586.24257813 -93.41992188 587.28515625 C-93.42448759 594.4167998 -92.29050569 600.58207585 -90.05859375 607.34375 C-89.73000366 608.35405273 -89.73000366 608.35405273 -89.39477539 609.38476562 C-84.97549996 622.26468435 -77.97261922 632.8518598 -69.43359375 643.34375 C-54.87615945 661.23163013 -54.22413976 680.97004465 -56.32666016 703.17480469 C-56.99443191 707.71791942 -58.10382195 712.1231933 -59.30908203 716.55029297 C-60.79029692 722.07083395 -62.11697083 727.63168999 -63.46932983 733.18496704 C-63.82026514 734.62316949 -64.17282277 736.06097704 -64.52700806 737.49838257 C-67.17481281 748.24562343 -69.40139684 759.00621663 -71.33349609 769.90820312 C-73.67334418 783.02403237 -76.20244997 796.20562086 -81.0859375 808.64160156 C-84.56779312 818.314588 -85.58138274 827.87328592 -85.49609375 838.09375 C-85.49125977 839.91277832 -85.49125977 839.91277832 -85.48632812 841.76855469 C-85.33764337 851.39973768 -83.98887603 860.18661788 -81.05859375 869.34375 C-77.42859375 868.68375 -73.79859375 868.02375 -70.05859375 867.34375 C-68.03790314 871.38513121 -67.78990099 873.12995306 -67.71484375 877.515625 C-67.68688721 878.72951904 -67.65893066 879.94341309 -67.63012695 881.1940918 C-67.606521 882.480979 -67.58291504 883.76786621 -67.55859375 885.09375 C-66.88866726 908.82891136 -62.88263797 927.53444018 -51.97070312 948.57421875 C-46.63981368 958.91637258 -44.5680351 968.93518163 -43.05859375 980.34375 C-42.81278564 982.19782471 -42.81278564 982.19782471 -42.56201172 984.08935547 C-41.83209771 989.62649998 -41.11117951 995.16470641 -40.41577148 1000.70629883 C-40.25407471 1001.99431396 -40.09237793 1003.2823291 -39.92578125 1004.609375 C-39.78253418 1005.76211914 -39.63928711 1006.91486328 -39.49169922 1008.10253906 C-39.20715964 1010.23193447 -38.88335985 1012.35651979 -38.51708984 1014.47338867 C-36.64142244 1026.21578572 -37.71359385 1038.73508279 -39.55859375 1050.40625 C-41.63971347 1063.66460584 -40.92386849 1075.38997098 -38.91015625 1088.59765625 C-37.54860778 1097.59832147 -36.5449437 1106.64346355 -35.48974609 1115.68408203 C-35.09525412 1119.0325728 -34.69282606 1122.37996311 -34.28678894 1125.72706604 C-33.92262051 1128.73236234 -33.56181856 1131.73805861 -33.2013855 1134.74380493 C-33.02617899 1136.19950645 -32.84973525 1137.65505972 -32.67190552 1139.11044312 C-31.06026161 1152.32007454 -29.89480907 1165.52348237 -29.80859375 1178.84375 C-29.78796875 1179.67132812 -29.76734375 1180.49890625 -29.74609375 1181.3515625 C-29.7025767 1188.20549844 -30.87357926 1192.94556337 -35.62109375 1198.15625 C-41.36075131 1202.39498016 -48.28614826 1202.34546549 -55.17138672 1202.52539062 C-65.65702326 1202.8422456 -74.74917728 1205.21599503 -84.66308594 1208.54296875 C-87.6826776 1209.55237159 -90.71768515 1210.50709215 -93.75732422 1211.45410156 C-95.66760217 1212.04978452 -97.57419789 1212.65724068 -99.48046875 1213.265625 C-103.31838616 1214.42202806 -107.16353086 1215.40001229 -111.05859375 1216.34375 C-111.05859375 1217.00375 -111.05859375 1217.66375 -111.05859375 1218.34375 C-105.14648068 1220.94507975 -99.32352739 1220.60354179 -92.99609375 1220.53125 C-91.38250977 1220.5302832 -91.38250977 1220.5302832 -89.73632812 1220.52929688 C-84.24324055 1220.58014812 -84.24324055 1220.58014812 -78.82543945 1219.84643555 C-74.65035803 1219.08789918 -70.49697469 1219.16685344 -66.26171875 1219.1328125 C-64.31379377 1219.10473792 -62.36587721 1219.07607341 -60.41796875 1219.046875 C-57.36588839 1219.00571014 -54.31396441 1218.96879648 -51.26171875 1218.94238281 C-48.30306012 1218.91459748 -45.34510255 1218.86872492 -42.38671875 1218.8203125 C-41.4864093 1218.81705963 -40.58609985 1218.81380676 -39.6585083 1218.81045532 C-32.43303582 1218.67192822 -25.87080491 1217.66688096 -20.18359375 1212.96875 C-14.06573302 1204.21099047 -14.28797981 1190.76031575 -13.23583984 1180.51269531 C-12.48996104 1173.39899903 -11.4302953 1166.38791299 -10.22154236 1159.34228516 C-8.79901758 1150.97525352 -7.69719646 1142.57374519 -6.62109375 1134.15625 C-6.19195215 1130.80852345 -5.76222124 1127.46087323 -5.33203125 1124.11328125 C-5.22579941 1123.2835379 -5.11956757 1122.45379456 -5.01011658 1121.59890747 C-4.34043883 1116.40533298 -3.61479727 1111.22295094 -2.84765625 1106.04296875 C-0.05463998 1086.8025915 2.22119774 1066.66263731 -1.05810547 1047.33764648 C-2.20663783 1040.10416378 -2.37218096 1033.01205387 -2.40234375 1025.69921875 C-2.41605343 1024.31796697 -2.43084994 1022.93672561 -2.44665527 1021.55549622 C-2.49427167 1017.21414355 -2.52745844 1012.87274789 -2.55859375 1008.53125 C-2.37789815 973.73045679 -2.37789815 973.73045679 -7.30859375 939.40625 C-7.62521973 937.9668103 -7.62521973 937.9668103 -7.94824219 936.49829102 C-9.87444218 927.84786386 -11.95758166 919.22872978 -14.09082031 910.62719727 C-14.3328418 909.64549561 -14.57486328 908.66379395 -14.82421875 907.65234375 C-15.03852539 906.79439209 -15.25283203 905.93644043 -15.47363281 905.05249023 C-17.11863188 897.43510099 -17.27654779 889.98178513 -17.29882812 882.21801758 C-17.30861953 880.15080787 -17.33974989 878.08455904 -17.37109375 876.01757812 C-17.37882812 874.05401367 -17.37882812 874.05401367 -17.38671875 872.05078125 C-17.39606445 870.8594458 -17.40541016 869.66811035 -17.41503906 868.44067383 C-17.02916284 865.08804373 -16.41330306 863.71498106 -14.05859375 861.34375 C-12.12109375 860.84765625 -12.12109375 860.84765625 -10.05859375 860.90625 C-9.37796875 860.90753906 -8.69734375 860.90882813 -7.99609375 860.91015625 C-5.41679906 861.48737744 -4.65731269 862.23573161 -3.05859375 864.34375 C-2.6262207 867.1628418 -2.6262207 867.1628418 -2.546875 870.54296875 C-2.51142578 871.75146484 -2.47597656 872.95996094 -2.43945312 874.20507812 C-2.41689453 875.46771484 -2.39433594 876.73035156 -2.37109375 878.03125 C-2.33693359 879.30548828 -2.30277344 880.57972656 -2.26757812 881.89257812 C-2.18498591 885.04288103 -2.1158704 888.19290157 -2.05859375 891.34375 C1.17964055 890.26433857 1.81852932 889.61997354 3.94140625 887.09375 C4.55242187 886.37058594 5.1634375 885.64742187 5.79296875 884.90234375 C6.85644531 883.63583984 6.85644531 883.63583984 7.94140625 882.34375 C8.79476563 881.36535156 9.648125 880.38695312 10.52734375 879.37890625 C16.9076293 872.0386947 22.60340195 864.48813156 27.94140625 856.34375 C28.64265625 855.29445313 29.34390625 854.24515625 30.06640625 853.1640625 C41.00132114 836.22322845 44.07827335 820.45934492 44.37890625 800.40625 C44.5667218 791.24167066 45.02165595 782.28219134 46.50390625 773.21875 C50.0300903 750.6170821 48.38529692 729.10112115 42.03515625 707.22119141 C38.6225198 695.13307789 36.57053217 682.83692053 34.44140625 670.46875 C34.0604642 668.29156714 33.67895643 666.11448319 33.296875 663.9375 C31.20512077 651.96428443 29.20782866 639.97860227 27.33239746 627.96951294 C26.38237035 621.92530678 25.31927247 615.91128107 24.18966675 609.89810181 C20.27205234 588.83147643 21.20830994 567.70625547 23.86230469 546.55126953 C26.5729101 523.10420455 26.66655556 497.67436011 22.94140625 474.34375 C22.84150391 473.71801086 22.74160156 473.09227173 22.63867188 472.4475708 C19.28139485 451.61858732 14.91968454 431.11756071 9.59286499 410.70613098 C6.07821648 397.21703555 2.6277737 383.94047701 1.87890625 369.96875 C0.9540481 357.11140827 -1.62940959 346.94836068 -7.00097656 335.27392578 C-15.23447859 317.20659654 -17.91561048 299.090199 -18.59814835 279.38369179 C-18.72769298 275.66891388 -18.8703351 271.95462404 -19.01049805 268.24023438 C-19.03961021 267.46162457 -19.06872238 266.68301477 -19.09871674 265.88081074 C-20.25672538 234.93740937 -21.99799079 204.16728438 -25.05859375 173.34375 C-35.28859375 173.34375 -45.51859375 173.34375 -56.05859375 173.34375 Z " fill="currentColor" transform="translate(1452.05859375,150.65625)"/>
<path d="M0 0 C0.33 0 0.66 0 1 0 C1.08636719 1.29550781 1.17273437 2.59101562 1.26171875 3.92578125 C2.7978212 24.33427585 7.44162406 41.30108526 17.7421875 58.9921875 C24.95729116 71.95065726 25.36920696 87.44825711 26 102 C24.83597656 102.11214844 24.83597656 102.11214844 23.6484375 102.2265625 C15.86228667 103.17428014 9.47124048 105.20888024 2.38671875 108.5625 C-4.46824062 111.47210213 -10.71205734 112.32500448 -18.125 112.25 C-18.89714844 112.25773437 -19.66929688 112.26546875 -20.46484375 112.2734375 C-25.03218089 112.25787587 -28.70173555 111.73029176 -33 110 C-33 109.34 -33 108.68 -33 108 C-33.70125 107.9175 -34.4025 107.835 -35.125 107.75 C-38.7494221 106.80449858 -40.98699886 105.22962085 -44 103 C-44.53496094 102.63519531 -45.06992188 102.27039062 -45.62109375 101.89453125 C-54.98551975 94.86580504 -62.13966167 81.65626814 -64.57421875 70.328125 C-66.49648606 55.30269611 -65.67279985 43.42548969 -56.875 30.875 C-47.00198657 18.30787996 -35.46374736 12.80866143 -20.21777344 9.44824219 C-8.90103539 6.98069693 -8.90103539 6.98069693 0 0 Z " fill="currentColor" transform="translate(1369,1048)"/>
<path d="M0 0 C-0.60528211 5.22990948 -1.78670627 9.94661634 -3.4375 14.9375 C-6.27730922 23.62546233 -8.20712601 31.31944482 -8.375 40.5 C-8.68164014 49.90470972 -9.61005053 59.17037545 -10.8125 68.5 C-10.89947144 69.17644562 -10.98644287 69.85289124 -11.0760498 70.54983521 C-12.03797136 77.98535675 -13.05471941 85.41309894 -14.08203125 92.83984375 C-16.24517371 108.55594039 -17.88268623 124.17138822 -19 140 C-28.9 140 -38.8 140 -49 140 C-49.04125 137.586875 -49.0825 135.17375 -49.125 132.6875 C-49.7478178 120.19063543 -55.48245626 112.86043764 -64.51171875 104.60546875 C-68.04207806 100.90884448 -69.96708884 97.77720258 -70.0625 92.625 C-67.70498725 84.58172121 -61.2817472 79.16807493 -55.1875 73.75 C-41.012095 60.70572293 -32.86211321 45.80824236 -26.3125 27.8125 C-24.28833016 22.3781186 -21.82018315 18.33526403 -18 14 C-17.27167969 13.15308594 -16.54335937 12.30617187 -15.79296875 11.43359375 C-5.757369 0 -5.757369 0 0 0 Z " fill="currentColor" transform="translate(1447,167)"/>
<path d="M0 0 C0.33 6.6 0.66 13.2 1 20 C-9.17857143 22.27678571 -9.17857143 22.27678571 -13 21 C-12.34 20.01 -11.68 19.02 -11 18 C-10.92094936 15.66800612 -10.91201231 13.33167378 -11 11 C-18.26378923 7.36810538 -29.52915528 10.69128636 -37.125 12 C-44.51315163 13.26409993 -51.49482341 14.2538749 -59 14 C-59 13.34 -59 12.68 -59 12 C-55.15935554 10.89554609 -51.3181915 9.79291918 -47.4765625 8.69189453 C-45.53618874 8.13537923 -43.59621539 7.57746845 -41.65625 7.01953125 C-24.41418351 2.08039762 -24.41418351 2.08039762 -16.0625 0.875 C-14.37833984 0.62363281 -14.37833984 0.62363281 -12.66015625 0.3671875 C-8.45941509 -0.05423157 -4.22182666 0 0 0 Z " fill="currentColor" transform="translate(1404,1288)"/>
<path d="M0 0 C0.495 2.475 0.495 2.475 1 5 C2.65 5 4.3 5 6 5 C6 5.33 6 5.66 6 6 C4.95827637 6.12060791 4.95827637 6.12060791 3.89550781 6.24365234 C0.67997487 6.61771285 -2.53500592 6.99633705 -5.75 7.375 C-6.84183594 7.50132813 -7.93367188 7.62765625 -9.05859375 7.7578125 C-15.52247743 8.52276915 -21.92334458 9.44412267 -28.328125 10.60742188 C-32.25867896 11.18493748 -36.03426095 11.1321913 -40 11 C-40 10.34 -40 9.68 -40 9 C-36.15935554 7.89554609 -32.3181915 6.79291918 -28.4765625 5.69189453 C-26.53618874 5.13537923 -24.59621539 4.57746845 -22.65625 4.01953125 C-19.10696499 3.00280898 -15.55431133 1.99898655 -12 1 C-11.15824219 0.75604492 -10.31648438 0.51208984 -9.44921875 0.26074219 C-5.86685494 -0.72789717 -3.54502367 -1.07375172 0 0 Z " fill="currentColor" transform="translate(1385,1291)"/>
<path d="M0 0 C0.66 0.33 1.32 0.66 2 1 C1.67 2.65 1.34 4.3 1 6 C0.01 5.67 -0.98 5.34 -2 5 C-1.16666667 7.16666667 -1.16666667 7.16666667 1 8 C0.67 8.33 0.34 8.66 0 9 C2.97 9.495 2.97 9.495 6 10 C6 10.33 6 10.66 6 11 C2.12506384 11.05834395 -1.74975836 11.09371201 -5.625 11.125 C-6.71941406 11.14175781 -7.81382813 11.15851563 -8.94140625 11.17578125 C-18.98079979 11.23662606 -18.98079979 11.23662606 -24 9 C-24 8.34 -24 7.68 -24 7 C-23.01604248 6.73521851 -23.01604248 6.73521851 -22.01220703 6.46508789 C-19.04920594 5.66642752 -16.08709738 4.8645053 -13.125 4.0625 C-12.09246094 3.78470703 -11.05992188 3.50691406 -9.99609375 3.22070312 C-9.00996094 2.95322266 -8.02382812 2.68574219 -7.0078125 2.41015625 C-6.09660645 2.16402588 -5.18540039 1.91789551 -4.24658203 1.66430664 C-1.99185389 1.06894116 -1.99185389 1.06894116 0 0 Z " fill="currentColor" transform="translate(1365,1360)"/>
<path d="M0 0 C-0.50797009 4.3177458 -1.19682779 8.03302114 -3 12 C-4.03125 11.731875 -5.0625 11.46375 -6.125 11.1875 C-9.78976995 10.63593091 -9.78976995 10.63593091 -11.6953125 12.08203125 C-12.46488281 12.78392578 -12.46488281 12.78392578 -13.25 13.5 C-14.61125 14.7375 -14.61125 14.7375 -16 16 C-16.99 15.67 -17.98 15.34 -19 15 C-17.44221619 13.2456027 -15.87905295 11.49653989 -14.3125 9.75 C-13.44238281 8.77546875 -12.57226562 7.8009375 -11.67578125 6.796875 C-5.17318436 0 -5.17318436 0 0 0 Z " fill="currentColor" transform="translate(1447,167)"/>
<path d="M0 0 C0.33 1.65 0.66 3.3 1 5 C2.65 5 4.3 5 6 5 C6 5.33 6 5.66 6 6 C-3.405 6.99 -3.405 6.99 -13 8 C-12.67 6.68 -12.34 5.36 -12 4 C-12.66 4 -13.32 4 -14 4 C-14 3.34 -14 2.68 -14 2 C-9.53202599 -0.57767731 -4.97760384 -1.72301671 0 0 Z " fill="currentColor" transform="translate(1385,1291)"/>
<path d="M0 0 C2.5654594 2.5654594 2.54046087 4.47686668 3 8 C3.5775 7.34 4.155 6.68 4.75 6 C7 4 7 4 11 4 C11.66 4.33 12.32 4.66 13 5 C12.54109375 5.51949219 12.0821875 6.03898437 11.609375 6.57421875 C8.88819799 9.66698506 6.20354452 12.73594225 3.6875 16 C3.130625 16.66 2.57375 17.32 2 18 C1.34 18 0.68 18 0 18 C0 12.06 0 6.12 0 0 Z " fill="currentColor" transform="translate(1450,1024)"/>
<path d="M0 0 C0.33 0.99 0.66 1.98 1 3 C1.66 3.33 2.32 3.66 3 4 C3 4.99 3 5.98 3 7 C2.01 7 1.02 7 0 7 C0 7.66 0 8.32 0 9 C0.66 9 1.32 9 2 9 C1.85957123 10.64630328 1.71250671 12.29204179 1.5625 13.9375 C1.48128906 14.85402344 1.40007812 15.77054688 1.31640625 16.71484375 C1 19 1 19 0 20 C0.33 20.66 0.66 21.32 1 22 C0.01 22 -0.98 22 -2 22 C-2.33 22.99 -2.66 23.98 -3 25 C-3.66 25 -4.32 25 -5 25 C-4.731875 23.845 -4.46375 22.69 -4.1875 21.5 C-2.59723572 14.37241259 -1.32168416 7.1811506 0 0 Z " fill="currentColor" transform="translate(1380,924)"/>
<path d="M0 0 C0.33 0.99 0.66 1.98 1 3 C1.66 3 2.32 3 3 3 C3.33 2.34 3.66 1.68 4 1 C4.05807043 4.10408807 4.09361914 7.2080364 4.125 10.3125 C4.14175781 11.19357422 4.15851563 12.07464844 4.17578125 12.98242188 C4.18222656 13.82998047 4.18867187 14.67753906 4.1953125 15.55078125 C4.20578613 16.33106689 4.21625977 17.11135254 4.22705078 17.9152832 C4 20 4 20 2 23 C1.34 23 0.68 23 0 23 C0 20.36 0 17.72 0 15 C0.66 15 1.32 15 2 15 C1.67 14.01 1.34 13.02 1 12 C0.34 12 -0.32 12 -1 12 C-1.02687279 10.18757948 -1.04633715 8.37504767 -1.0625 6.5625 C-1.07410156 5.55316406 -1.08570313 4.54382813 -1.09765625 3.50390625 C-1 1 -1 1 0 0 Z " fill="currentColor" transform="translate(1347,980)"/>
<path d="M0 0 C-0.60328125 0.23074219 -1.2065625 0.46148438 -1.828125 0.69921875 C-6.90794499 2.77211304 -9.72326427 4.46298129 -13 9 C-13.99 9 -14.98 9 -16 9 C-15.67 6.36 -15.34 3.72 -15 1 C-14.34 1 -13.68 1 -13 1 C-13 1.66 -13 2.32 -13 3 C-12.34 3 -11.68 3 -11 3 C-10.67 2.01 -10.34 1.02 -10 0 C-9.34 0.33 -8.68 0.66 -8 1 C-8 0.34 -8 -0.32 -8 -1 C-4.53578294 -2.23722038 -3.15772202 -1.73807388 0 0 Z " fill="currentColor" transform="translate(1335,1353)"/>
<path d="M0 0 C0.66 0 1.32 0 2 0 C1.85831863 1.43791516 1.71148957 2.8753237 1.5625 4.3125 C1.48128906 5.11300781 1.40007812 5.91351562 1.31640625 6.73828125 C1 9 1 9 0 12 C0.33 12.33 0.66 12.66 1 13 C1 13.66 1 14.32 1 15 C0.01 15.66 -0.98 16.32 -2 17 C-2.33 17.66 -2.66 18.32 -3 19 C-4.49314068 15.04815434 -3.53513125 11.84129199 -2.625 7.8125 C-2.34914063 6.56082031 -2.07328125 5.30914063 -1.7890625 4.01953125 C-1 1 -1 1 0 0 Z " fill="currentColor" transform="translate(1398,846)"/>
<path d="M0 0 C2 3.75 2 3.75 2 6 C1.34 6 0.68 6 0 6 C0.33 6.99 0.66 7.98 1 9 C0.01 9.33 -0.98 9.66 -2 10 C-2 10.66 -2 11.32 -2 12 C-1.34 12 -0.68 12 0 12 C-0.33 13.32 -0.66 14.64 -1 16 C-2.32 16.33 -3.64 16.66 -5 17 C-4.46246904 10.81839396 -2.45417612 5.673142 0 0 Z " fill="currentColor" transform="translate(1462,175)"/>
<path d="M0 0 C3 2 3 2 3.6875 5.125 C3.790625 6.07375 3.89375 7.0225 4 8 C3.34 8 2.68 8 2 8 C1.67 8.66 1.34 9.32 1 10 C0.01 10.33 -0.98 10.66 -2 11 C-3.13643966 7.59068103 -2.86747764 6.99664544 -1.5625 3.8125 C-1.13130859 2.73935547 -1.13130859 2.73935547 -0.69140625 1.64453125 C-0.46324219 1.10183594 -0.23507812 0.55914063 0 0 Z " fill="currentColor" transform="translate(1506,990)"/>
<path d="M0 0 C0.66 0.33 1.32 0.66 2 1 C2 2.65 2 4.3 2 6 C2.33 6 2.66 6 3 6 C3 8.31 3 10.62 3 13 C2.34 13 1.68 13 1 13 C0.67 13.66 0.34 14.32 0 15 C-2.46153846 5.92307692 -2.46153846 5.92307692 -2 2 C-1.34 1.34 -0.68 0.68 0 0 Z " fill="currentColor" transform="translate(1456,1058)"/>
<path d="M0 0 C0.33 0.99 0.66 1.98 1 3 C1.66 3 2.32 3 3 3 C3 4.65 3 6.3 3 8 C2.01 8 1.02 8 0 8 C0 8.66 0 9.32 0 10 C0.99 10 1.98 10 3 10 C2.67 11.65 2.34 13.3 2 15 C0.68 15 -0.64 15 -2 15 C-1.38487182 9.99109914 -0.7282448 4.99367864 0 0 Z " fill="currentColor" transform="translate(1383,907)"/>
<path d="M0 0 C0.33 0 0.66 0 1 0 C1.09377123 7.41834582 1.17402193 14.66236293 0 22 C-0.33 22 -0.66 22 -1 22 C-1 20.02 -1 18.04 -1 16 C-1.66 16 -2.32 16 -3 16 C-3.33 14.02 -3.66 12.04 -4 10 C-3.34 10 -2.68 10 -2 10 C-1.34 6.7 -0.68 3.4 0 0 Z " fill="currentColor" transform="translate(1499,899)"/>
<path d="M0 0 C0 1.65 0 3.3 0 5 C-3.46941546 4.54177532 -6.67395049 4.10868317 -10 3 C-10 2.34 -10 1.68 -10 1 C-8.71073008 0.63720544 -7.41846728 0.28503302 -6.125 -0.0625 C-5.40570312 -0.25972656 -4.68640625 -0.45695312 -3.9453125 -0.66015625 C-2 -1 -2 -1 0 0 Z " fill="currentColor" transform="translate(1351,1366)"/>
<path d="M0 0 C0 1.65 0 3.3 0 5 C-2.66666667 6.33333333 -5.33333333 7.66666667 -8 9 C-7.39622642 3.56603774 -7.39622642 3.56603774 -5.6875 1.125 C-4 0 -4 0 0 0 Z " fill="currentColor" transform="translate(1447,167)"/>
<path d="M0 0 C1.32 0 2.64 0 4 0 C4.07427838 3.34252724 4.06546953 5.8035914 3 9 C1.02 9.33 -0.96 9.66 -3 10 C-2.690625 9.46375 -2.38125 8.9275 -2.0625 8.375 C-0.82172561 5.6015043 -0.4090325 2.99957163 0 0 Z " fill="currentColor" transform="translate(1394,1300)"/>
<path d="M0 0 C0.33 0.66 0.66 1.32 1 2 C1.99 2 2.98 2 4 2 C3.67 3.98 3.34 5.96 3 8 C2.38125 8.12375 1.7625 8.2475 1.125 8.375 C-1.19120832 8.87197356 -1.19120832 8.87197356 -3 11 C-3.33 10.34 -3.66 9.68 -4 9 C-3.22265625 6.8359375 -3.22265625 6.8359375 -2.0625 4.375 C-1.68222656 3.55773438 -1.30195312 2.74046875 -0.91015625 1.8984375 C-0.60980469 1.27195312 -0.30945312 0.64546875 0 0 Z " fill="currentColor" transform="translate(1450,1361)"/>
<path d="M0 0 C0 0.66 0 1.32 0 2 C-0.66 2 -1.32 2 -2 2 C-2.185625 3.4540625 -2.185625 3.4540625 -2.375 4.9375 C-2.58125 5.948125 -2.7875 6.95875 -3 8 C-3.99 8.495 -3.99 8.495 -5 9 C-5.66 8.67 -6.32 8.34 -7 8 C-7 8.66 -7 9.32 -7 10 C-7.66 10 -8.32 10 -9 10 C-9.33 9.01 -9.66 8.02 -10 7 C-8.71372289 5.82739389 -7.42080217 4.6620717 -6.125 3.5 C-5.04605469 2.52546875 -5.04605469 2.52546875 -3.9453125 1.53125 C-2 0 -2 0 0 0 Z " fill="currentColor" transform="translate(1424,1343)"/>
<path d="M0 0 C0.33 0 0.66 0 1 0 C1 4.29 1 8.58 1 13 C1.99 13.33 2.98 13.66 4 14 C3.67 14.99 3.34 15.98 3 17 C1.35 17.33 -0.3 17.66 -2 18 C-1.34 12.06 -0.68 6.12 0 0 Z " fill="currentColor" transform="translate(1433,252)"/>
<path d="M0 0 C0.33 0 0.66 0 1 0 C1.05807043 3.10408807 1.09361914 6.2080364 1.125 9.3125 C1.14175781 10.19357422 1.15851563 11.07464844 1.17578125 11.98242188 C1.18222656 12.82998047 1.18867187 13.67753906 1.1953125 14.55078125 C1.20578613 15.33106689 1.21625977 16.11135254 1.22705078 16.9152832 C1 19 1 19 -1 22 C-1.66 22 -2.32 22 -3 22 C-3 19.36 -3 16.72 -3 14 C-2.34 14 -1.68 14 -1 14 C-0.67 9.38 -0.34 4.76 0 0 Z " fill="currentColor" transform="translate(1350,981)"/>
<path d="M0 0 C0.33 0.66 0.66 1.32 1 2 C1.66 2.33 2.32 2.66 3 3 C0.69 5.31 -1.62 7.62 -4 10 C-4.66 9.67 -5.32 9.34 -6 9 C-6 7.68 -6 6.36 -6 5 C-3.5625 3.375 -3.5625 3.375 -1 2 C-0.67 1.34 -0.34 0.68 0 0 Z " fill="currentColor" transform="translate(1395,233)"/>
<path d="M0 0 C0 0.66 0 1.32 0 2 C1.65 2 3.3 2 5 2 C5 2.33 5 2.66 5 3 C-0.05002222 4.03590199 -4.87416389 4.10251672 -10 4 C-10 3.34 -10 2.68 -10 2 C-8.7090864 1.66376204 -7.41723903 1.33110751 -6.125 1 C-5.40570312 0.814375 -4.68640625 0.62875 -3.9453125 0.4375 C-2 0 -2 0 0 0 Z " fill="currentColor" transform="translate(1355,1298)"/>
<path d="M0 0 C1.98 0.495 1.98 0.495 4 1 C4.33 2.65 4.66 4.3 5 6 C6.65 6 8.3 6 10 6 C10 6.33 10 6.66 10 7 C6.7 7 3.4 7 0 7 C0 4 0 4 2 1 C1.34 0.67 0.68 0.34 0 0 Z " fill="currentColor" transform="translate(1381,1290)"/>
<path d="M0 0 C0 3.29657856 -0.74333269 5.16364428 -2 8.1875 C-2.37125 9.08855469 -2.7425 9.98960937 -3.125 10.91796875 C-3.41375 11.60503906 -3.7025 12.29210937 -4 13 C-5.04702186 9.2735915 -5.07442057 5.86986958 -5 2 C-3.35 1.34 -1.7 0.68 0 0 Z " fill="currentColor" transform="translate(1422,191)"/>
<path d="M0 0 C0.82638376 2.89234315 1 4.88742431 1 8 C-0.11375 8.12375 -0.11375 8.12375 -1.25 8.25 C-4.51221354 9.1396946 -5.80954878 10.48503749 -8 13 C-6.40956621 7.91061189 -3.2553049 4.12543357 0 0 Z " fill="currentColor" transform="translate(1420,166)"/>
<path d="M0 0 C-0.33 0.66 -0.66 1.32 -1 2 C-1.66 2 -2.32 2 -3 2 C-3.33 2.66 -3.66 3.32 -4 4 C-4.99 4 -5.98 4 -7 4 C-7 3.34 -7 2.68 -7 2 C-10.96 1.67 -14.92 1.34 -19 1 C-19 0.67 -19 0.34 -19 0 C-16.58373582 -0.19534474 -14.16734771 -0.38153404 -11.75 -0.5625 C-11.06808594 -0.61857422 -10.38617187 -0.67464844 -9.68359375 -0.73242188 C-6.2579419 -0.98186254 -3.27298823 -1.13879745 0 0 Z " fill="currentColor" transform="translate(1395,1326)"/>
<path d="M0 0 C5.61 0 11.22 0 17 0 C16.67 0.99 16.34 1.98 16 3 C15.01 3 14.02 3 13 3 C12.01 3.495 12.01 3.495 11 4 C10.01 3.34 9.02 2.68 8 2 C5.9507906 1.54860541 5.9507906 1.54860541 3.8125 1.375 C1.9253125 1.189375 1.9253125 1.189375 0 1 C0 0.67 0 0.34 0 0 Z " fill="currentColor" transform="translate(1340,1317)"/>
<path d="M0 0 C0 4.80592371 -0.15637215 9.25459333 -1 14 C-1.99 13.67 -2.98 13.34 -4 13 C-3.88652381 11.02013918 -3.7589065 9.04108402 -3.625 7.0625 C-3.55539062 5.96035156 -3.48578125 4.85820313 -3.4140625 3.72265625 C-3.27742188 2.82417969 -3.14078125 1.92570312 -3 1 C-1 0 -1 0 0 0 Z " fill="currentColor" transform="translate(1467,1262)"/>
<path d="M0 0 C-0.66 1.98 -1.32 3.96 -2 6 C-3.65 6 -5.3 6 -7 6 C-7.33 5.34 -7.66 4.68 -8 4 C-7.34 4 -6.68 4 -6 4 C-6 3.01 -6 2.02 -6 1 C-4 0 -4 0 0 0 Z " fill="currentColor" transform="translate(1383,1291)"/>
<path d="M0 0 C1.32 0.33 2.64 0.66 4 1 C4.05395478 2.62463842 4.09277195 4.24978541 4.125 5.875 C4.14820313 6.77992188 4.17140625 7.68484375 4.1953125 8.6171875 C4 11 4 11 2 13 C1.66127487 11.58461283 1.32925376 10.16762037 1 8.75 C0.814375 7.96109375 0.62875 7.1721875 0.4375 6.359375 C0 4 0 4 0 0 Z " fill="currentColor" transform="translate(1382,461)"/>
<path d="M0 0 C0.33 0 0.66 0 1 0 C1.28875 1.134375 1.5775 2.26875 1.875 3.4375 C2.24625 4.613125 2.6175 5.78875 3 7 C3.66 7.33 4.32 7.66 5 8 C4.67 8.66 4.34 9.32 4 10 C3.31744011 12.32873375 2.64949225 14.66182791 2 17 C1.67 17 1.34 17 1 17 C0.00749455 11.29309366 -0.10477512 5.78591511 0 0 Z " fill="currentColor" transform="translate(1448,401)"/>
<path d="M0 0 C1.65 0.33 3.3 0.66 5 1 C4.04578192 2.14926266 3.08647955 3.29430541 2.125 4.4375 C1.59132813 5.07558594 1.05765625 5.71367187 0.5078125 6.37109375 C-1 8 -1 8 -3 9 C-2.67 7.02 -2.34 5.04 -2 3 C-1.01 3 -0.02 3 1 3 C0.67 2.01 0.34 1.02 0 0 Z " fill="currentColor" transform="translate(1425,155)"/>
<path d="M0 0 C0.33 0.99 0.66 1.98 1 3 C-0.9375 5.6875 -0.9375 5.6875 -3 8 C-3.66 7.67 -4.32 7.34 -5 7 C-5.1875 4.625 -5.1875 4.625 -5 2 C-2 0 -2 0 0 0 Z " fill="currentColor" transform="translate(1310,1079)"/>
<path d="M0 0 C2.18975773 3.28463659 2.99806563 6.20696275 4 10 C2.125 9.75 2.125 9.75 0 9 C-1.72101535 6.41847698 -2 5.15081975 -2 2 C-1.34 2 -0.68 2 0 2 C0 1.34 0 0.68 0 0 Z " fill="currentColor" transform="translate(1346,762)"/>
<path d="M0 0 C0.66 0 1.32 0 2 0 C0.7508258 3.45925163 -0.67527795 6.14693203 -3 9 C-3.66 8.67 -4.32 8.34 -5 8 C-5 6.68 -5 5.36 -5 4 C-3.35 3.34 -1.7 2.68 0 2 C0 1.34 0 0.68 0 0 Z " fill="currentColor" transform="translate(1485,994)"/>
<path d="M0 0 C-0.33 1.65 -0.66 3.3 -1 5 C-1.99 4.67 -2.98 4.34 -4 4 C-4.99 4 -5.98 4 -7 4 C-7.33 3.01 -7.66 2.02 -8 1 C-2.25 -1.125 -2.25 -1.125 0 0 Z " fill="currentColor" transform="translate(1367,1361)"/>
<path d="M0 0 C0.66 0.33 1.32 0.66 2 1 C1.67 3.97 1.34 6.94 1 10 C0.34 10 -0.32 10 -1 10 C-1.02689216 8.52093108 -1.04634621 7.04172517 -1.0625 5.5625 C-1.07410156 4.73878906 -1.08570313 3.91507813 -1.09765625 3.06640625 C-1 1 -1 1 0 0 Z " fill="currentColor" transform="translate(1416,1171)"/>
<path d="M0 0 C1.98 0 3.96 0 6 0 C6 0.66 6 1.32 6 2 C6.66 2.66 7.32 3.32 8 4 C4.625 4.625 4.625 4.625 1 5 C0.34 4.34 -0.32 3.68 -1 3 C-0.67 2.01 -0.34 1.02 0 0 Z " fill="currentColor" transform="translate(1379,1147)"/>
<path d="M0 0 C0.33 0 0.66 0 1 0 C1.33 3.63 1.66 7.26 2 11 C0.35 11 -1.3 11 -3 11 C-3 10.34 -3 9.68 -3 9 C-2.34 9 -1.68 9 -1 9 C-0.67 6.03 -0.34 3.06 0 0 Z " fill="currentColor" transform="translate(1483,805)"/>
<path d="M0 0 C0.99 0.33 1.98 0.66 3 1 C3 1.66 3 2.32 3 3 C3.99 3 4.98 3 6 3 C4.25 6.875 4.25 6.875 2 8 C0.23537317 4.91190305 0 3.76687864 0 0 Z " fill="currentColor" transform="translate(1377,259)"/>
<path d="M0 0 C0.33 0.99 0.66 1.98 1 3 C-1.78248679 5.93706939 -4.87938211 8.43415863 -8 11 C-8.66 10.34 -9.32 9.68 -10 9 C-9.44570312 8.51789063 -8.89140625 8.03578125 -8.3203125 7.5390625 C-7.59585937 6.90742188 -6.87140625 6.27578125 -6.125 5.625 C-5.40570312 4.99851563 -4.68640625 4.37203125 -3.9453125 3.7265625 C-2.5923402 2.52573166 -1.2791655 1.2791655 0 0 Z " fill="currentColor" transform="translate(1386,224)"/>
<path d="M0 0 C0.33 0.99 0.66 1.98 1 3 C-0.29009643 3.50403768 -1.58213789 4.00309926 -2.875 4.5 C-3.95394531 4.91765625 -3.95394531 4.91765625 -5.0546875 5.34375 C-7 6 -7 6 -9 6 C-8.34 4.35 -7.68 2.7 -7 1 C-6.34 1 -5.68 1 -5 1 C-4.67 1.66 -4.34 2.32 -4 3 C-2.68 2.67 -1.36 2.34 0 2 C0 1.34 0 0.68 0 0 Z " fill="currentColor" transform="translate(1345,1346)"/>
<path d="M0 0 C0.33 0 0.66 0 1 0 C0.67 2.64 0.34 5.28 0 8 C-2.475 7.01 -2.475 7.01 -5 6 C-5 4.68 -5 3.36 -5 2 C-3.68 2 -2.36 2 -1 2 C-0.67 1.34 -0.34 0.68 0 0 Z " fill="currentColor" transform="translate(1436,1342)"/>
<path d="M0 0 C2 2 2 2 2.1953125 4.1640625 C2.16050781 5.38222656 2.16050781 5.38222656 2.125 6.625 C2.10695313 7.44226562 2.08890625 8.25953125 2.0703125 9.1015625 C2.04710937 9.72804688 2.02390625 10.35453125 2 11 C1.01 11 0.02 11 -1 11 C-0.67 7.37 -0.34 3.74 0 0 Z " fill="currentColor" transform="translate(1461,1285)"/>
<path d="M0 0 C0.66 0 1.32 0 2 0 C2 0.99 2 1.98 2 3 C2.66 3.33 3.32 3.66 4 4 C-3.75 5.125 -3.75 5.125 -6 4 C-6 3.34 -6 2.68 -6 2 C-4.35 1.67 -2.7 1.34 -1 1 C-1 1.66 -1 2.32 -1 3 C-0.34 3 0.32 3 1 3 C0.67 2.01 0.34 1.02 0 0 Z " fill="currentColor" transform="translate(1364,1154)"/>
<path d="M0 0 C0.33 0.99 0.66 1.98 1 3 C1.66 3.33 2.32 3.66 3 4 C3 4.99 3 5.98 3 7 C2.01 7 1.02 7 0 7 C0 7.66 0 8.32 0 9 C0.66 9.33 1.32 9.66 2 10 C1.01 10 0.02 10 -1 10 C-1.33 10.99 -1.66 11.98 -2 13 C-1.39174965 8.65535464 -0.73832608 4.32448133 0 0 Z " fill="currentColor" transform="translate(1380,924)"/>
<path d="M0 0 C-0.33 0.66 -0.66 1.32 -1 2 C-0.67 2.33 -0.34 2.66 0 3 C0 3.66 0 4.32 0 5 C-1.98 5.99 -1.98 5.99 -4 7 C-5 6 -5 6 -5.0625 3.4375 C-5.041875 2.633125 -5.02125 1.82875 -5 1 C-3 0 -3 0 0 0 Z " fill="currentColor" transform="translate(1326,1366)"/>
<path d="M0 0 C0.99 0.33 1.98 0.66 3 1 C3 2.32 3 3.64 3 5 C1.02 5.33 -0.96 5.66 -3 6 C-2.42655063 3.13275314 -2.1385485 2.1385485 0 0 Z " fill="currentColor" transform="translate(1402,1303)"/>
<path d="M0 0 C0.66 0 1.32 0 2 0 C2 4.95 2 9.9 2 15 C1.67 15 1.34 15 1 15 C0.93941406 14.32453125 0.87882812 13.6490625 0.81640625 12.953125 C0.73261719 12.06109375 0.64882812 11.1690625 0.5625 10.25 C0.48128906 9.36828125 0.40007812 8.4865625 0.31640625 7.578125 C0.06285099 5.0309789 0.06285099 5.0309789 -0.59765625 2.734375 C-0.73042969 2.16203125 -0.86320312 1.5896875 -1 1 C-0.67 0.67 -0.34 0.34 0 0 Z " fill="currentColor" transform="translate(1432,1022)"/>
<path d="M0 0 C0.66 0.99 1.32 1.98 2 3 C1.125 5.6875 1.125 5.6875 0 8 C-0.66 8 -1.32 8 -2 8 C-2 8.66 -2 9.32 -2 10 C-2.99 9.67 -3.98 9.34 -5 9 C-3.35 6.03 -1.7 3.06 0 0 Z " fill="currentColor" transform="translate(1413,213)"/>
<path d="M0 0 C-1.26839526 0.50615298 -2.53983102 1.00469099 -3.8125 1.5 C-4.87404297 1.91765625 -4.87404297 1.91765625 -5.95703125 2.34375 C-8 3 -8 3 -11 3 C-10.67 2.01 -10.34 1.02 -10 0 C-9.34 0.33 -8.68 0.66 -8 1 C-8 0.34 -8 -0.32 -8 -1 C-4.59745511 -2.2151946 -3.06748874 -1.86240388 0 0 Z " fill="currentColor" transform="translate(1335,1353)"/>
<path d="M0 0 C2.64 0.66 5.28 1.32 8 2 C7.34 3.65 6.68 5.3 6 7 C5.01 5.68 4.02 4.36 3 3 C2.01 3.33 1.02 3.66 0 4 C0 2.68 0 1.36 0 0 Z " fill="currentColor" transform="translate(1329,1172)"/>
<path d="M0 0 C0.66 0 1.32 0 2 0 C2.36923077 5.53846154 2.36923077 5.53846154 0.5 7.875 C-0.2425 8.431875 -0.2425 8.431875 -1 9 C-1.33 6.69 -1.66 4.38 -2 2 C-1.34 2 -0.68 2 0 2 C0 1.34 0 0.68 0 0 Z " fill="currentColor" transform="translate(1497,860)"/>
<path d="M0 0 C0.66 0 1.32 0 2 0 C2.66 2.31 3.32 4.62 4 7 C2.68 7 1.36 7 0 7 C-0.38133299 5.0085944 -0.71325582 3.00720923 -1 1 C-0.67 0.67 -0.34 0.34 0 0 Z " fill="currentColor" transform="translate(1481,568)"/>
<path d="M0 0 C0.66 1.32 1.32 2.64 2 4 C1.01 4.99 0.02 5.98 -1 7 C-1.66 6.67 -2.32 6.34 -3 6 C-3 6.66 -3 7.32 -3 8 C-3.66 7.67 -4.32 7.34 -5 7 C-3.35 4.69 -1.7 2.38 0 0 Z " fill="currentColor" transform="translate(1407,224)"/>
<path d="M0 0 C2.5 1.3125 2.5 1.3125 5 3 C5 3.99 5 4.98 5 6 C3.68 6.33 2.36 6.66 1 7 C0.67 4.69 0.34 2.38 0 0 Z " fill="currentColor" transform="translate(1453,152)"/>
<path d="M0 0 C0.99 0 1.98 0 3 0 C3.36923077 7.50769231 3.36923077 7.50769231 1.5 10 C1.005 10.33 0.51 10.66 0 11 C0 7.33333333 0 3.66666667 0 0 Z " fill="currentColor" transform="translate(1320,1297)"/>
<path d="M0 0 C6.75 0.75 6.75 0.75 9 3 C9.125 5.625 9.125 5.625 9 8 C8.67 6.68 8.34 5.36 8 4 C6.68 4 5.36 4 4 4 C4 3.01 4 2.02 4 1 C2.68 0.67 1.36 0.34 0 0 Z " fill="currentColor" transform="translate(1389,1166)"/>
<path d="M0 0 C3 0 3 0 5 1 C3.35 2.98 1.7 4.96 0 7 C-0.66 6.67 -1.32 6.34 -2 6 C-2 5.34 -2 4.68 -2 4 C-1.34 4 -0.68 4 0 4 C0 2.68 0 1.36 0 0 Z " fill="currentColor" transform="translate(1458,1028)"/>
<path d="M0 0 C0.99 0 1.98 0 3 0 C3.33 1.32 3.66 2.64 4 4 C4.66 4 5.32 4 6 4 C5.625 5.9375 5.625 5.9375 5 8 C4.01 8.495 4.01 8.495 3 9 C2.01 6.03 1.02 3.06 0 0 Z " fill="currentColor" transform="translate(1463,488)"/>
<path d="M0 0 C0.33 0.66 0.66 1.32 1 2 C0.01 3.32 -0.98 4.64 -2 6 C-1.67 6.66 -1.34 7.32 -1 8 C-2.65 8.66 -4.3 9.32 -6 10 C-4.6302836 6.00499382 -2.74277578 3.19990508 0 0 Z " fill="currentColor" transform="translate(1384,248)"/>
<path d="M0 0 C0 1.32 0 2.64 0 4 C-1.98 4 -3.96 4 -6 4 C-6 3.01 -6 2.02 -6 1 C-3.92446352 0.4465236 -2.15634036 0 0 0 Z " fill="currentColor" transform="translate(1361,1296)"/>
<path d="M0 0 C0.33 0 0.66 0 1 0 C1 2.31 1 4.62 1 7 C-0.32 7 -1.64 7 -3 7 C-3.33 5.35 -3.66 3.7 -4 2 C-2.68 2.33 -1.36 2.66 0 3 C0 2.01 0 1.02 0 0 Z " fill="currentColor" transform="translate(1461,1096)"/>
<path d="M0 0 C0.99 0.33 1.98 0.66 3 1 C1.84826645 3.46800047 0.95216435 5.04783565 -1 7 C-1.66 6.67 -2.32 6.34 -3 6 C-2 4 -1 2 0 0 Z " fill="currentColor" transform="translate(1484,1023)"/>
<path d="M0 0 C0.99 0 1.98 0 3 0 C2.67 2.64 2.34 5.28 2 8 C1.01 7.67 0.02 7.34 -1 7 C-0.67 4.69 -0.34 2.38 0 0 Z " fill="currentColor" transform="translate(1364,907)"/>
<path d="M0 0 C0.66 1.32 1.32 2.64 2 4 C2.66 4 3.32 4 4 4 C4 4.66 4 5.32 4 6 C3.01 6.66 2.02 7.32 1 8 C0.67 8.66 0.34 9.32 0 10 C-1.2380014 6.42355152 -0.74926071 3.66305234 0 0 Z " fill="currentColor" transform="translate(1395,855)"/>
<path d="M0 0 C2 1 2 1 3 3 C2.39421747 5.01927511 1.73080266 7.02253397 1 9 C-0.61949011 6.42786866 -1.04408751 5.32330841 -0.625 2.25 C-0.41875 1.5075 -0.2125 0.765 0 0 Z " fill="currentColor" transform="translate(1503,816)"/>
<path d="M0 0 C0.99 0.33 1.98 0.66 3 1 C2.67 2.32 2.34 3.64 2 5 C0.68 5.33 -0.64 5.66 -2 6 C-1.34 4.02 -0.68 2.04 0 0 Z " fill="currentColor" transform="translate(1419,161)"/>
<path d="M0 0 C0.99 0.33 1.98 0.66 3 1 C3.33 2.65 3.66 4.3 4 6 C2.68 6 1.36 6 0 6 C-0.38218767 4.34385343 -0.71395102 2.67542976 -1 1 C-0.67 0.67 -0.34 0.34 0 0 Z " fill="currentColor" transform="translate(1354,1365)"/>
<path d="M0 0 C0.99 0.66 1.98 1.32 3 2 C3 2.66 3 3.32 3 4 C2.01 4 1.02 4 0 4 C-0.33 4.99 -0.66 5.98 -1 7 C-1.66 7 -2.32 7 -3 7 C-2.625 4.0625 -2.625 4.0625 -2 1 C-1.34 0.67 -0.68 0.34 0 0 Z " fill="currentColor" transform="translate(1378,942)"/>
<path d="M0 0 C0.66 0.66 1.32 1.32 2 2 C-0.64 2.99 -3.28 3.98 -6 5 C-6.66 4.01 -7.32 3.02 -8 2 C-7.05125 1.855625 -6.1025 1.71125 -5.125 1.5625 C-2.1065506 1.17064601 -2.1065506 1.17064601 0 0 Z " fill="currentColor" transform="translate(1363,1051)"/>
<path d="M0 0 C1.32 1.32 2.64 2.64 4 4 C3.67 4.99 3.34 5.98 3 7 C1.68 7 0.36 7 -1 7 C-0.67 4.69 -0.34 2.38 0 0 Z " fill="currentColor" transform="translate(1360,791)"/>
<path d="M0 0 C0.99 0.33 1.98 0.66 3 1 C2.34 2.65 1.68 4.3 1 6 C-0.32 6 -1.64 6 -3 6 C-2 3 -2 3 0 1 C0 0.67 0 0.34 0 0 Z " fill="currentColor" transform="translate(1355,681)"/>
<path d="M0 0 C1.32 0 2.64 0 4 0 C3.67 1.32 3.34 2.64 3 4 C1.68 4.33 0.36 4.66 -1 5 C-0.67 3.35 -0.34 1.7 0 0 Z " fill="currentColor" transform="translate(1458,187)"/>
<path d="M0 0 C0.33 0.66 0.66 1.32 1 2 C1.66 2.33 2.32 2.66 3 3 C-0.465 4.485 -0.465 4.485 -4 6 C-4.33 5.01 -4.66 4.02 -5 3 C-3.35 2.01 -1.7 1.02 0 0 Z " fill="currentColor" transform="translate(1324,1045)"/>
<path d="M0 0 C0.33 0.66 0.66 1.32 1 2 C1.66 2.33 2.32 2.66 3 3 C1.625 5.5 1.625 5.5 0 8 C-0.66 8 -1.32 8 -2 8 C-1.34 5.36 -0.68 2.72 0 0 Z " fill="currentColor" transform="translate(1509,981)"/>
<path d="M0 0 C0.99 0.99 1.98 1.98 3 3 C2.01 3.495 2.01 3.495 1 4 C0.67 4.66 0.34 5.32 0 6 C-0.66 5.34 -1.32 4.68 -2 4 C-2 3.01 -2 2.02 -2 1 C-1.34 0.67 -0.68 0.34 0 0 Z " fill="currentColor" transform="translate(1391,280)"/>
<path d="M0 0 C2.18975773 3.28463659 2.99806563 6.20696275 4 10 C3.01 10 2.02 10 1 10 C0.67 6.7 0.34 3.4 0 0 Z " fill="currentColor" transform="translate(1361,265)"/>
</svg>