<!DOCTYPE svg PUBLIC "-//W3C//DTD SVG 20010904//EN"
 "http://www.w3.org/TR/2001/REC-SVG-20010904/DTD/svg10.dtd">
<svg xmlns="http://www.w3.org/2000/svg" viewBox="0 0 2816.000000 1536.000000"
 preserveAspectRatio="xMidYMid meet">
<g transform="translate(0.000000,1536.000000) scale(0.100000,-0.100000)"
fill="currentColor" stroke="none">
<path d="M23570 15326 c-281 -74 -471 -154 -665 -281 -314 -205 -561 -503
-694 -837 -173 -437 -155 -1011 47 -1488 35 -83 46 -106 120 -240 96 -176 226
-343 423 -545 195 -200 225 -235 261 -311 71 -152 34 -387 -94 -585 -58 -88
-173 -204 -395 -394 -484 -416 -797 -764 -1034 -1150 -188 -305 -283 -518
-499 -1115 -330 -913 -702 -1591 -1095 -1999 -299 -310 -587 -471 -935 -522
-135 -19 -420 -7 -565 26 -222 49 -399 83 -510 96 -141 17 -556 17 -700 1
-509 -60 -963 -231 -1345 -506 -157 -114 -244 -187 -412 -348 -234 -223 -288
-263 -460 -339 -146 -64 -344 -114 -935 -233 -622 -126 -903 -189 -1393 -314
-624 -160 -867 -220 -985 -245 -430 -92 -886 -135 -1250 -117 -218 10 -336 24
-740 85 -531 80 -809 101 -1230 92 -293 -7 -492 -24 -710 -62 -380 -67 -586
-123 -1450 -396 -902 -284 -1663 -454 -2127 -475 -250 -12 -323 13 -478 158
-139 131 -303 235 -444 282 -27 9 -91 24 -143 33 -171 28 -330 -11 -514 -126
-168 -106 -268 -220 -520 -595 -244 -365 -381 -492 -809 -751 -156 -94 -276
-177 -465 -319 -209 -158 -297 -217 -420 -284 -208 -113 -292 -188 -358 -321
-41 -83 -42 -86 -42 -190 0 -100 2 -110 34 -179 61 -130 179 -217 335 -247
155 -30 295 -10 536 75 354 125 571 180 990 250 254 42 322 55 525 96 220 45
514 128 870 244 762 249 1226 321 2600 405 363 22 1001 50 1375 60 958 27
1483 31 1910 15 422 -17 665 -49 995 -131 560 -140 723 -159 1465 -169 454 -6
660 -14 1050 -38 1130 -72 1786 -85 2610 -51 749 30 1453 115 2235 269 510
100 877 157 1300 200 487 50 843 122 1281 259 559 176 1223 489 1759 829 39
25 99 63 135 86 130 82 318 212 433 299 65 49 119 88 120 86 6 -8 109 -185
119 -204 202 -368 637 -1030 1174 -1786 49 -69 123 -174 164 -234 41 -59 129
-185 196 -279 67 -94 152 -225 189 -291 164 -289 334 -445 587 -539 l97 -36
1434 0 1434 0 39 28 c56 41 103 98 133 162 23 48 26 68 26 160 0 92 -3 112
-26 160 -54 116 -141 184 -294 232 -117 36 -333 109 -494 167 -109 40 -115 41
-133 24 -47 -43 -148 -224 -148 -266 0 -8 8 -17 18 -20 9 -3 76 -27 147 -52
72 -26 225 -80 341 -120 232 -80 249 -87 258 -110 7 -20 -10 -55 -27 -55 -7 0
-579 -1 -1272 -2 l-1260 -2 -79 23 c-207 58 -353 177 -460 376 -59 109 -150
245 -336 505 -92 128 -165 232 -382 540 -52 74 -135 191 -183 260 -168 237
-395 584 -677 1035 -67 107 -238 400 -343 590 -22 39 -47 84 -57 100 -46 77
-144 278 -173 355 -61 157 -76 273 -99 765 -31 640 -38 859 -38 1190 1 318 8
491 48 1140 18 291 21 776 5 875 -12 71 -31 103 -82 138 -29 20 -44 23 -94 20
-71 -4 -114 -30 -139 -82 -15 -31 -16 -66 -10 -293 5 -201 1 -344 -15 -648
-51 -926 -57 -1141 -42 -1585 24 -715 53 -1237 77 -1380 21 -129 73 -279 150
-434 35 -72 60 -132 56 -135 -4 -3 -52 -37 -106 -76 -251 -179 -342 -241 -601
-407 -287 -183 -827 -464 -1160 -603 -400 -167 -896 -310 -1317 -379 -84 -14
-290 -39 -458 -56 -421 -42 -651 -77 -1190 -181 -879 -168 -1334 -225 -2250
-281 -266 -16 -1349 -16 -1695 1 -331 15 -683 35 -1100 62 -215 13 -527 24
-895 29 -708 11 -801 21 -1311 145 -539 131 -770 153 -1634 159 -869 6 -1851
-23 -2845 -84 -1340 -83 -1819 -156 -2530 -385 -625 -201 -918 -274 -1483
-370 -401 -67 -677 -136 -972 -242 -226 -81 -359 -101 -445 -67 -46 19 -60 38
-60 87 0 56 66 120 206 199 150 84 238 143 461 309 98 73 264 188 368 255 105
68 230 149 279 180 326 210 482 369 741 754 153 227 246 351 302 400 110 97
242 159 336 160 87 0 252 -67 352 -143 22 -17 78 -65 125 -107 152 -137 222
-179 352 -210 229 -55 563 -29 1148 90 378 77 760 175 1120 287 80 25 195 60
255 78 61 18 188 58 282 89 1002 326 1598 416 2363 355 133 -11 449 -51 770
-99 405 -60 471 -65 835 -64 286 0 370 3 530 22 345 40 674 104 1067 208 390
102 1036 263 1186 294 81 17 228 49 327 70 99 22 320 67 490 100 563 110 804
175 981 265 172 88 259 153 480 361 115 108 242 223 283 256 274 221 635 392
991 472 252 56 298 61 590 61 279 0 378 -9 575 -51 39 -8 144 -31 235 -50 144
-31 189 -36 352 -41 292 -9 483 20 714 107 407 154 805 507 1141 1010 284 425
531 953 823 1755 28 77 69 190 92 250 214 578 591 1123 1076 1556 81 73 167
148 192 168 334 267 539 513 613 738 47 144 60 231 55 386 -4 129 -8 150 -37
228 -50 134 -114 222 -317 430 -205 212 -291 320 -390 494 -174 304 -255 590
-255 904 1 586 293 1052 829 1320 127 64 351 140 511 174 89 18 137 22 301 22
211 0 248 -6 440 -67 332 -106 607 -332 799 -656 172 -289 393 -842 494 -1238
94 -363 170 -933 152 -1134 -12 -124 -56 -190 -163 -244 -26 -13 -119 -42
-207 -65 -228 -60 -340 -116 -450 -224 -120 -119 -178 -246 -245 -537 -22 -97
-51 -177 -134 -377 -62 -147 -93 -275 -112 -458 -30 -288 -10 -413 200 -1245
147 -584 204 -883 258 -1345 20 -169 16 -603 -6 -745 -56 -365 -171 -627 -401
-920 -46 -58 -125 -151 -176 -207 -102 -110 -489 -489 -489 -478 0 3 11 77 25
163 127 787 127 784 175 1467 28 391 51 544 139 910 101 422 134 658 134 940
-1 553 -138 948 -430 1240 -124 124 -355 265 -433 265 -50 -1 -113 -32 -140
-70 -32 -45 -38 -125 -15 -171 22 -42 31 -49 130 -101 176 -93 313 -235 405
-417 101 -203 140 -373 147 -658 8 -278 -16 -477 -102 -848 -129 -558 -140
-631 -175 -1140 -33 -495 -66 -766 -156 -1295 -37 -217 -47 -296 -51 -437 -6
-180 0 -247 38 -421 37 -166 58 -215 237 -562 60 -118 138 -278 172 -355 34
-77 79 -178 100 -225 46 -103 113 -272 219 -560 216 -580 313 -817 476 -1155
43 -88 102 -212 132 -275 84 -179 141 -269 214 -341 78 -78 177 -131 284 -154
110 -23 348 -44 620 -55 297 -11 345 -20 635 -118 113 -39 206 -69 208 -67 2
1 -9 31 -23 66 -34 84 -111 187 -181 243 -61 47 -166 103 -215 113 -36 7 -42
43 -7 43 13 0 18 4 12 9 -22 21 -205 42 -449 51 -410 16 -537 32 -611 75 -59
35 -91 88 -264 450 -234 490 -287 618 -600 1460 -120 320 -263 641 -467 1045
-70 140 -138 289 -150 330 l-22 75 394 395 c414 415 519 531 630 701 86 129
202 354 249 481 152 411 183 901 95 1528 -56 404 -111 652 -329 1497 -98 382
-123 559 -108 766 12 165 42 268 148 506 24 54 58 163 81 255 55 222 84 302
138 382 41 60 56 74 119 105 39 20 100 42 134 49 163 33 312 85 414 145 132
78 237 229 270 390 41 196 -16 759 -127 1270 -78 357 -362 1092 -534 1380
-269 451 -649 744 -1110 856 -72 17 -117 19 -445 18 l-365 0 -125 -33z"/>
</g>
</svg>