<!DOCTYPE svg PUBLIC "-//W3C//DTD SVG 20010904//EN"
 "http://www.w3.org/TR/2001/REC-SVG-20010904/DTD/svg10.dtd">
<svg xmlns="http://www.w3.org/2000/svg" viewBox="0 0 2816.000000 1536.000000"
 preserveAspectRatio="xMidYMid meet">
<g transform="translate(0.000000,1536.000000) scale(0.100000,-0.100000)"
fill="currentColor" stroke="none">
<path d="M18470 15321 c-363 -121 -616 -270 -851 -504 -220 -217 -392 -531
-453 -826 -40 -194 -45 -463 -11 -664 50 -305 195 -641 384 -895 128 -170 332
-361 538 -500 87 -59 114 -97 120 -172 13 -136 -90 -301 -237 -379 -30 -16
-111 -46 -180 -66 -447 -129 -860 -330 -1193 -579 -248 -186 -469 -397 -740
-706 -324 -369 -396 -443 -554 -570 -288 -232 -592 -396 -943 -508 -213 -68
-466 -104 -740 -105 -315 -2 -557 41 -949 168 -383 124 -563 166 -855 200
-424 50 -797 11 -1156 -121 -296 -109 -539 -265 -773 -493 -326 -318 -537
-687 -652 -1141 -52 -203 -81 -511 -71 -745 6 -135 30 -378 41 -430 13 -54 55
-428 66 -575 13 -177 8 -655 -12 -1250 -22 -653 22 -1525 110 -2180 10 -74 17
-137 15 -139 -1 -1 -83 22 -181 52 -326 102 -537 148 -874 188 -251 31 -777
34 -1029 6 -315 -35 -545 -81 -955 -193 -750 -204 -1659 -336 -2221 -322 -218
5 -220 6 -433 247 -208 236 -476 346 -764 313 -250 -27 -436 -147 -644 -414
-244 -314 -364 -430 -573 -555 -97 -58 -378 -200 -655 -331 -104 -49 -237
-112 -295 -139 -153 -73 -290 -135 -415 -188 -185 -78 -238 -124 -303 -261
-24 -52 -27 -71 -27 -159 0 -89 3 -106 28 -157 42 -85 107 -151 189 -193 67
-33 76 -35 172 -35 95 0 368 26 731 70 88 10 232 26 320 34 902 88 1011 101
1530 181 704 108 1114 116 2015 40 96 -8 195 -17 220 -20 25 -3 248 -21 495
-40 902 -69 1231 -95 1275 -100 131 -16 1286 -97 1830 -130 146 -8 334 -20
419 -25 85 -6 464 -10 842 -10 l688 0 79 29 c381 141 665 427 826 833 35 89
206 693 301 1063 193 749 305 1308 374 1860 29 227 87 822 106 1070 9 116 22
293 30 393 8 101 15 213 15 249 l0 65 28 -6 c148 -29 610 -81 849 -96 316 -19
761 -10 1058 20 998 103 1973 426 2815 933 47 28 127 80 178 115 62 42 94 59
96 50 3 -7 12 -67 21 -133 48 -354 140 -822 251 -1285 77 -320 80 -337 89
-558 32 -817 122 -1406 314 -2072 148 -515 199 -687 268 -905 149 -474 219
-723 267 -962 30 -145 48 -200 93 -283 85 -157 200 -266 359 -342 l82 -38
1524 0 1523 0 54 53 c33 32 66 77 85 117 28 59 31 74 31 165 0 87 -3 107 -27
157 -33 71 -93 137 -156 171 -26 14 -138 50 -247 80 -110 30 -258 71 -330 92
-489 137 -700 196 -770 214 -87 22 -242 47 -345 55 -581 49 -584 50 -648 88
-78 48 -97 112 -131 448 -37 360 -42 509 -51 1305 -9 831 -15 945 -66 1272
-50 328 -105 561 -195 825 -81 240 -83 256 -78 613 5 394 5 1091 -1 1580 l-5
380 28 120 c72 312 109 517 127 720 15 164 12 454 -5 569 -17 115 -19 280 -5
451 38 447 121 719 333 1092 259 456 466 710 718 881 86 58 183 99 324 137
168 45 221 68 301 128 131 99 204 249 204 414 -1 102 -9 142 -119 558 l-83
310 24 14 c44 28 143 137 168 187 35 70 39 169 10 247 -26 69 -101 154 -186
212 -173 117 -345 243 -387 284 -66 63 -88 104 -142 266 -183 550 -570 967
-1049 1131 l-70 24 -515 0 -516 -1 -115 -38z m915 -250 c417 -81 742 -347 957
-781 20 -41 57 -134 82 -207 90 -259 177 -373 408 -535 186 -129 297 -214 298
-225 0 -6 -19 -22 -42 -36 -67 -39 -136 -115 -158 -175 -34 -91 -34 -93 90
-562 28 -107 63 -238 76 -290 28 -105 27 -156 -5 -218 -42 -82 -108 -110 -398
-167 -311 -62 -435 -77 -603 -78 -244 0 -362 43 -491 181 -99 106 -116 116
-185 110 -88 -7 -143 -61 -152 -146 -6 -68 24 -126 113 -218 158 -162 358
-244 638 -261 53 -3 97 -8 97 -10 0 -2 -35 -45 -78 -96 -282 -334 -562 -826
-675 -1187 -19 -63 -38 -130 -42 -147 -4 -18 -11 -35 -15 -38 -5 -3 -26 22
-47 56 -107 175 -259 343 -412 452 -163 118 -223 137 -299 98 -77 -40 -112
-143 -76 -222 13 -31 36 -53 93 -92 185 -124 281 -221 390 -396 184 -293 284
-628 306 -1021 13 -228 -24 -596 -85 -858 -74 -313 -82 -373 -84 -587 0 -110
5 -373 12 -585 11 -310 11 -478 1 -870 -6 -267 -9 -530 -6 -585 7 -121 34
-249 87 -410 115 -353 194 -734 225 -1085 8 -96 17 -195 20 -220 3 -25 10
-394 15 -820 5 -426 14 -842 20 -925 15 -210 47 -524 64 -626 19 -118 72 -225
151 -305 116 -118 242 -160 560 -184 482 -37 537 -47 925 -158 96 -28 238 -67
315 -87 77 -20 190 -52 250 -70 61 -19 173 -50 250 -71 77 -20 148 -43 158
-52 21 -18 22 -45 3 -62 -21 -16 -1988 -25 -2397 -10 -376 13 -407 21 -528
135 -93 87 -114 132 -165 357 -61 265 -174 656 -341 1178 -111 346 -314 1110
-360 1350 -63 337 -111 770 -125 1150 -15 385 -22 433 -99 747 -71 288 -111
468 -155 703 -115 612 -144 888 -156 1490 -5 234 -14 453 -20 488 -49 303
-116 502 -229 674 -119 182 -216 246 -318 207 -45 -17 -90 -67 -103 -115 -18
-63 -2 -107 68 -191 113 -135 153 -218 207 -428 44 -173 54 -285 59 -702 l5
-353 -27 -20 c-56 -45 -465 -301 -592 -372 -875 -488 -1827 -755 -2843 -798
-465 -20 -920 13 -1458 106 -212 36 -223 38 -262 25 -39 -13 -82 -51 -103 -93
-9 -17 -18 -84 -24 -170 -37 -572 -107 -1344 -160 -1767 -69 -546 -129 -868
-280 -1511 -47 -201 -207 -828 -215 -840 -2 -3 -24 -77 -50 -165 -121 -420
-171 -539 -292 -699 -150 -198 -397 -341 -653 -377 -95 -13 -361 -8 -775 16
-137 8 -380 22 -540 30 -392 21 -1201 76 -1555 105 -262 21 -621 50 -755 60
-162 12 -1049 82 -1400 110 -132 11 -352 28 -490 39 -641 52 -940 61 -1301 41
-253 -15 -540 -45 -766 -80 -450 -72 -622 -93 -1283 -156 -147 -14 -497 -53
-935 -104 -361 -42 -357 -42 -379 -1 -33 61 -3 85 232 185 386 165 1064 492
1259 606 236 140 410 289 569 488 273 343 300 370 416 424 146 66 320 52 465
-38 77 -48 129 -95 220 -203 141 -166 222 -223 370 -262 109 -28 217 -32 493
-20 300 14 482 31 766 71 546 77 762 122 1509 315 409 106 713 145 1131 145
616 0 1135 -100 1636 -314 71 -31 143 -59 161 -62 46 -9 117 20 148 62 38 49
43 90 28 191 -29 189 -74 558 -94 758 -11 116 -22 235 -25 265 -44 450 -55
1092 -30 1856 23 702 14 934 -55 1409 -40 280 -54 477 -47 690 9 260 39 421
119 640 96 260 184 422 335 610 400 500 943 745 1598 721 323 -11 504 -47 985
-193 118 -36 262 -78 320 -94 399 -110 858 -129 1295 -54 339 58 751 227 1072
437 340 224 456 334 1004 953 157 178 411 408 589 535 341 241 653 392 1050
506 252 73 382 151 503 301 114 142 167 286 167 458 0 222 -72 338 -315 507
-202 140 -325 263 -452 453 -120 179 -195 346 -242 535 -42 172 -55 298 -48
460 13 268 74 455 225 685 192 292 519 511 952 639 259 76 506 92 735 47z"/>
</g>
</svg>