<svg viewBox="0 0 2816 1536" xmlns="http://www.w3.org/2000/svg">
<g fill="#4FD1C5"><path id="path0" d="M60.750 0.088 C 60.658 0.121,59.121 0.307,57.333 0.501 C 53.531 0.912,45.869 1.901,43.833 2.243 C 42.577 2.455,40.415 2.762,36.083 3.344 C 35.350 3.443,32.837 3.585,30.500 3.661 C 25.054 3.838,22.971 4.330,19.362 6.291 C 17.181 7.477,16.281 8.120,10.898 12.339 C 9.900 13.122,7.883 14.634,6.417 15.700 C 0.974 19.657,-0.754 22.495,0.311 25.725 C 1.701 29.939,5.271 30.514,13.497 27.848 C 15.149 27.313,16.500 26.911,16.500 26.956 C 16.500 27.001,16.237 27.738,15.917 28.595 C 14.559 32.219,16.298 35.004,19.492 34.320 C 21.503 33.888,28.107 28.176,32.053 23.455 C 33.836 21.321,34.150 21.093,35.806 20.739 C 38.813 20.094,44.002 20.268,53.674 21.336 C 64.986 22.585,67.223 22.593,75.961 21.412 C 81.018 20.728,82.072 20.822,87.083 22.407 C 92.000 23.962,96.120 24.716,103.014 25.324 C 110.794 26.009,112.781 26.502,116.176 28.588 C 117.042 29.120,118.200 29.830,118.750 30.165 C 119.624 30.698,123.229 32.440,124.042 32.722 C 124.626 32.924,124.300 33.121,122.625 33.578 C 118.839 34.610,116.559 34.310,114.976 32.569 C 112.020 29.317,111.371 28.871,108.941 28.416 C 106.399 27.940,105.087 28.253,99.333 30.703 C 96.723 31.814,96.286 31.970,94.962 32.259 C 91.050 33.113,89.002 34.364,87.119 37.049 C 86.715 37.625,85.415 38.918,83.982 40.171 C 76.089 47.072,73.546 54.962,76.302 64.000 C 81.444 80.866,98.599 87.845,112.583 78.760 C 116.883 75.967,119.212 73.373,122.994 67.167 C 125.531 63.003,126.937 61.438,129.079 60.398 C 131.334 59.302,132.289 59.577,133.314 61.617 L 133.666 62.318 132.590 64.740 C 129.066 72.680,128.797 81.719,131.742 93.249 C 133.454 99.956,133.419 99.697,133.402 105.333 C 133.393 108.226,133.238 112.755,133.024 116.333 C 132.320 128.121,132.151 129.194,129.719 137.333 C 127.092 146.126,126.993 147.461,127.137 172.121 C 127.166 177.183,127.144 182.395,127.088 183.704 C 126.942 187.064,126.497 192.194,126.323 192.520 C 126.017 193.091,123.657 193.533,120.139 193.678 C 114.422 193.915,113.465 194.180,103.083 198.412 C 92.567 202.699,91.930 203.185,91.924 206.917 C 91.916 212.235,97.078 213.903,107.348 211.901 C 108.577 211.661,109.917 211.454,110.325 211.441 L 111.067 211.417 111.191 212.122 C 111.912 216.224,115.836 217.448,122.083 215.518 C 123.642 215.037,126.923 214.127,129.374 213.496 C 139.334 210.935,141.426 208.423,143.417 196.640 C 144.534 190.028,145.162 187.020,146.576 181.500 C 147.269 178.796,148.245 174.896,148.745 172.833 C 149.245 170.771,149.950 167.921,150.311 166.500 C 152.569 157.621,153.496 150.289,153.499 141.271 C 153.500 136.049,153.605 135.208,155.167 127.833 C 156.443 121.813,157.604 115.415,158.162 111.333 C 159.026 105.010,159.697 96.337,159.994 87.667 C 160.330 77.817,162.565 74.826,174.532 68.200 C 195.172 56.774,209.161 54.765,218.575 61.875 C 222.243 64.645,223.057 65.618,223.944 68.298 C 227.144 77.962,230.589 83.539,236.378 88.428 C 239.920 91.419,242.842 93.011,248.583 95.078 C 256.291 97.852,257.206 98.471,265.330 106.409 C 273.339 114.235,275.017 115.723,282.934 122.020 C 286.587 124.926,290.395 128.315,291.323 129.486 L 291.870 130.177 291.160 131.630 C 289.422 135.193,287.621 140.269,285.914 146.417 C 283.522 155.034,281.578 160.224,280.392 161.156 C 280.108 161.380,279.577 161.496,278.458 161.579 C 267.734 162.373,264.315 168.571,268.600 179.453 C 270.458 184.172,270.589 185.965,269.421 190.667 C 267.296 199.220,270.551 206.187,277.167 207.248 C 287.277 208.869,291.750 207.311,291.750 202.167 C 291.750 199.405,290.759 197.939,287.757 196.260 C 286.990 195.831,286.667 195.553,286.667 195.322 C 286.667 194.966,288.191 191.952,290.242 188.250 C 291.931 185.204,293.706 181.655,295.441 177.859 C 297.357 173.666,297.978 172.606,303.500 164.101 C 304.004 163.325,305.017 161.747,305.750 160.595 C 306.483 159.443,307.130 158.519,307.187 158.542 C 307.244 158.565,307.880 159.365,308.601 160.320 C 310.297 162.567,312.150 164.634,314.516 166.918 C 316.647 168.974,321.816 173.356,323.265 174.333 C 323.468 174.471,324.486 175.224,325.526 176.007 C 326.566 176.790,328.154 177.953,329.056 178.590 C 329.958 179.228,331.120 180.051,331.639 180.419 C 339.812 186.209,345.955 191.288,347.960 193.912 C 349.295 195.660,349.596 196.600,349.510 198.750 C 349.257 205.071,349.436 206.248,350.990 208.445 C 352.949 211.217,355.972 212.471,361.583 212.839 C 365.621 213.105,366.934 213.453,372.250 215.670 C 373.625 216.243,375.744 217.039,376.959 217.439 L 379.169 218.167 385.383 218.167 C 392.388 218.167,392.941 218.089,395.807 216.699 C 400.070 214.631,401.337 209.709,398.369 206.747 C 397.296 205.677,391.156 202.425,390.511 202.586 C 389.133 202.928,385.833 205.221,385.833 205.836 C 385.833 206.069,388.449 207.655,391.091 209.025 C 392.503 209.757,393.824 210.491,394.027 210.655 L 394.395 210.953 393.320 211.466 C 387.456 214.265,382.295 213.810,372.520 209.633 C 369.221 208.223,366.707 207.555,363.844 207.326 C 355.986 206.698,354.772 205.926,355.103 201.764 C 355.586 195.688,354.834 193.139,351.342 189.024 C 349.063 186.338,339.294 178.611,331.671 173.466 C 329.896 172.267,325.746 169.071,323.179 166.926 C 313.870 159.145,309.321 152.788,304.748 141.167 C 301.744 133.531,299.288 129.524,294.752 124.856 C 292.016 122.040,290.221 120.490,284.167 115.713 C 279.901 112.347,276.276 109.091,270.769 103.678 C 260.691 93.774,259.194 92.742,250.419 89.648 C 240.110 86.014,234.546 80.482,230.658 70.000 C 230.131 68.579,229.441 66.732,229.125 65.896 L 228.550 64.376 230.150 62.912 C 241.350 52.666,250.992 39.317,254.164 29.667 C 254.420 28.887,254.714 28.038,254.816 27.779 L 255.002 27.307 255.626 27.684 C 259.732 30.159,263.255 32.492,267.564 35.587 C 268.837 36.502,270.375 37.593,270.981 38.012 C 272.093 38.782,275.020 40.876,279.917 44.405 C 285.100 48.141,289.274 51.509,294.073 55.825 C 304.866 65.531,316.905 79.182,324.917 90.796 C 325.375 91.460,326.829 93.522,328.148 95.377 C 331.783 100.488,332.604 102.540,332.464 106.155 C 332.324 109.781,331.344 111.905,326.651 118.750 C 325.771 120.034,324.845 121.440,324.593 121.875 C 324.078 122.765,323.943 122.765,323.660 121.873 C 323.054 119.964,319.518 113.013,317.409 109.585 C 313.728 103.601,313.180 102.767,308.333 95.758 C 304.075 89.600,298.532 82.438,291.765 74.349 C 282.374 63.123,280.628 60.423,279.670 55.646 C 278.701 50.812,273.397 51.737,274.169 56.606 C 275.048 62.150,277.141 65.724,284.975 75.060 C 290.615 81.782,298.828 92.161,300.667 94.891 C 300.804 95.095,301.604 96.205,302.444 97.357 C 310.820 108.851,317.216 119.986,319.469 127.000 C 321.792 134.229,324.067 138.417,329.738 145.905 C 338.408 157.352,340.560 160.215,344.087 165.000 C 354.141 178.638,356.691 181.619,362.441 186.458 C 364.395 188.102,368.742 191.675,370.086 192.742 C 370.543 193.104,372.223 194.567,373.819 195.992 C 380.193 201.682,379.562 201.246,380.451 200.568 C 382.133 199.286,383.652 197.068,383.165 196.606 C 381.489 195.014,371.244 186.297,367.583 183.349 C 362.361 179.143,358.671 175.070,352.471 166.667 C 347.545 159.991,346.657 158.804,336.331 145.109 C 330.610 137.521,328.905 134.917,327.242 131.222 L 326.528 129.638 328.539 126.444 C 329.645 124.687,331.207 122.313,332.010 121.167 C 339.924 109.876,340.150 102.408,332.888 92.200 C 331.864 90.761,330.402 88.695,329.638 87.610 C 315.725 67.829,299.134 50.969,280.963 38.146 C 279.379 37.029,275.026 33.946,271.289 31.297 C 259.532 22.960,257.579 21.860,247.250 17.758 C 238.722 14.372,237.271 13.757,231.583 11.124 C 224.617 7.899,222.897 7.144,220.750 6.367 C 214.481 4.101,209.817 3.088,202.917 2.495 C 198.522 2.118,192.832 1.452,190.902 1.088 C 180.531 -0.864,171.381 -0.273,162.417 2.928 C 160.950 3.452,158.813 4.213,157.667 4.619 C 148.408 7.902,138.399 7.836,126.333 4.414 C 120.528 2.767,115.117 1.919,104.500 0.993 C 103.446 0.901,99.771 0.789,96.333 0.745 C 86.166 0.614,83.670 0.530,82.000 0.261 C 80.546 0.027,61.342 -0.130,60.750 0.088 M79.000 5.405 C 82.987 6.020,85.277 6.159,91.859 6.188 C 101.845 6.231,107.070 6.575,114.667 7.687 C 117.595 8.116,123.177 9.217,123.530 9.435 C 124.013 9.734,133.257 11.876,135.417 12.190 C 143.134 13.313,152.673 12.335,160.198 9.650 C 169.343 6.387,172.243 5.732,178.333 5.552 C 181.858 5.447,185.116 5.718,189.750 6.502 C 194.389 7.286,197.218 7.645,200.917 7.921 C 210.264 8.619,216.699 10.351,225.667 14.582 C 231.991 17.566,234.879 18.841,239.750 20.800 C 247.615 23.963,249.704 24.815,249.777 24.888 C 249.891 25.002,248.844 28.140,248.128 29.833 C 244.426 38.591,236.892 48.715,227.455 57.615 L 225.123 59.814 223.770 58.676 C 212.105 48.869,196.967 49.902,173.917 62.076 C 171.998 63.090,171.373 63.447,168.500 65.175 C 157.611 71.725,154.333 76.849,154.333 87.324 C 154.333 96.599,152.728 111.564,150.666 121.500 C 148.063 134.045,147.988 134.585,147.905 141.333 C 147.797 150.094,147.128 155.524,145.155 163.662 C 144.876 164.811,144.459 166.537,144.228 167.500 C 143.997 168.462,143.627 169.925,143.406 170.750 C 140.946 179.916,139.035 188.508,137.665 196.563 C 136.215 205.080,135.244 206.194,127.708 207.987 C 125.806 208.439,123.350 209.108,122.250 209.474 C 120.475 210.063,119.353 210.381,117.778 210.739 C 116.918 210.935,118.858 209.346,121.792 207.453 C 123.926 206.076,124.411 204.274,123.074 202.686 C 121.904 201.296,120.654 201.402,118.119 203.109 C 115.561 204.830,115.711 204.773,112.559 205.244 C 111.014 205.475,108.250 205.931,106.417 206.257 C 104.033 206.680,102.359 206.877,100.542 206.947 C 97.092 207.080,97.141 206.879,100.917 205.430 C 101.742 205.113,103.242 204.509,104.250 204.087 C 114.039 199.993,115.460 199.595,121.250 199.328 C 123.175 199.239,125.087 199.097,125.500 199.012 C 132.560 197.552,132.901 196.060,132.807 167.083 C 132.744 147.361,132.719 147.623,135.555 137.667 C 137.622 130.407,138.099 127.308,138.578 118.018 C 138.718 115.304,138.908 111.921,139.000 110.500 C 139.244 106.733,139.206 102.062,138.911 99.662 C 138.668 97.681,138.263 95.813,136.943 90.583 C 134.394 80.481,134.869 72.845,138.527 65.124 C 139.802 62.432,139.803 62.065,138.537 59.539 C 136.490 55.456,134.294 53.722,131.615 54.075 C 131.323 54.114,130.708 54.193,130.250 54.251 C 125.389 54.866,121.833 57.889,117.704 64.917 C 112.420 73.910,104.935 78.223,96.880 76.916 C 85.423 75.058,77.520 60.454,82.539 50.417 C 83.603 48.289,84.645 47.124,89.224 42.944 C 90.111 42.134,91.072 41.121,91.360 40.694 C 92.622 38.815,93.421 38.294,95.755 37.824 C 97.531 37.467,99.362 36.843,101.831 35.755 C 107.319 33.336,108.340 33.275,109.923 35.273 C 113.847 40.228,118.673 41.127,126.167 38.302 C 129.447 37.066,134.884 33.973,136.054 32.677 C 138.230 30.268,135.480 27.160,132.414 28.563 L 131.464 28.998 130.119 28.655 C 126.288 27.676,123.395 26.422,119.583 24.087 C 114.835 21.177,112.423 20.488,104.704 19.834 C 97.304 19.208,93.919 18.632,89.333 17.222 C 82.594 15.148,80.991 14.984,75.583 15.817 C 68.046 16.978,64.388 16.964,54.250 15.738 C 45.376 14.664,37.502 14.537,34.000 15.411 C 31.331 16.077,30.198 16.835,28.257 19.254 C 27.523 20.169,26.043 21.817,24.967 22.917 L 23.010 24.917 23.005 23.761 C 22.987 19.694,21.013 19.412,12.555 22.265 C 9.360 23.342,6.902 24.000,6.069 24.000 C 5.274 24.000,6.419 22.688,8.666 21.024 C 9.721 20.243,12.571 18.091,15.000 16.241 C 23.572 9.716,24.266 9.420,31.583 9.164 C 36.174 9.004,36.347 8.985,47.083 7.432 C 51.208 6.836,55.371 6.266,56.333 6.167 C 57.296 6.067,59.096 5.869,60.333 5.727 C 67.067 4.951,75.156 4.812,79.000 5.405 M296.751 137.169 C 297.257 138.178,298.389 140.747,299.266 142.877 C 301.379 148.006,301.699 148.737,302.852 151.053 C 303.697 152.751,303.806 153.073,303.640 153.387 C 303.534 153.586,302.760 154.800,301.920 156.083 C 301.080 157.367,299.978 159.054,299.472 159.833 C 298.965 160.612,297.965 162.150,297.248 163.250 C 293.381 169.190,292.278 171.134,290.163 175.741 C 288.195 180.029,287.349 181.705,285.202 185.578 C 279.752 195.407,279.653 198.048,284.628 200.992 C 286.437 202.062,286.431 202.066,283.068 201.953 C 278.121 201.787,277.066 201.554,275.990 200.386 C 274.229 198.476,273.914 196.134,274.883 192.156 C 276.457 185.696,276.342 183.627,274.091 177.930 C 272.458 173.796,272.442 173.740,272.429 172.079 C 272.403 168.803,273.755 167.753,278.535 167.337 C 284.698 166.801,286.626 164.312,290.089 152.417 C 290.570 150.767,291.388 147.954,291.908 146.167 C 293.430 140.936,295.421 135.333,295.758 135.333 C 295.798 135.333,296.245 136.159,296.751 137.169 M387.417 200.258 C 387.783 200.591,388.308 200.979,388.583 201.120 C 389.246 201.459,389.124 201.346,387.833 200.425 C 386.888 199.751,386.835 199.730,387.417 200.258 " stroke="none" fill-rule="evenodd"></path><path id="path1" d="M0.011 11.375 C 0.020 20.795,0.058 22.635,0.233 22.078 C 0.746 20.439,2.694 18.184,5.052 16.500 C 6.769 15.273,11.092 12.008,13.988 9.750 C 20.172 4.928,23.260 3.754,30.417 3.502 C 34.381 3.363,36.833 3.154,39.417 2.737 C 40.242 2.604,42.192 2.312,43.750 2.088 C 45.308 1.864,47.371 1.568,48.333 1.430 C 50.130 1.172,58.057 0.216,59.250 0.113 C 59.617 0.082,46.435 0.043,29.958 0.028 L 0.000 0.000 0.011 11.375 M82.667 0.192 C 83.171 0.271,87.746 0.404,92.833 0.487 C 101.649 0.631,107.064 0.920,111.667 1.493 C 118.812 2.383,122.203 3.034,126.917 4.420 C 137.964 7.670,149.520 7.630,158.167 4.311 C 161.785 2.922,163.570 2.299,165.667 1.692 C 167.644 1.119,171.211 0.362,172.833 0.171 C 173.429 0.100,153.179 0.044,127.833 0.046 C 101.408 0.047,82.141 0.110,82.667 0.192 M186.312 0.186 C 186.988 0.264,188.338 0.477,189.312 0.660 C 191.722 1.110,198.373 1.967,200.417 2.090 C 204.164 2.315,209.418 3.022,212.245 3.680 C 217.973 5.014,223.395 6.970,228.767 9.641 C 229.910 10.209,232.879 11.581,234.417 12.251 C 234.692 12.371,235.667 12.806,236.583 13.218 C 238.502 14.079,240.781 15.034,243.021 15.914 C 243.880 16.251,245.821 17.013,247.333 17.607 C 248.846 18.201,250.496 18.860,251.000 19.072 C 251.504 19.284,252.592 19.742,253.417 20.089 C 257.325 21.734,262.427 24.782,268.333 29.000 C 269.571 29.883,272.158 31.718,274.083 33.078 C 276.008 34.437,277.958 35.824,278.417 36.161 C 278.875 36.498,280.150 37.399,281.250 38.163 C 283.198 39.517,288.728 43.732,290.763 45.413 C 291.320 45.873,292.331 46.700,293.010 47.250 C 293.688 47.800,294.921 48.850,295.750 49.583 C 296.579 50.317,297.818 51.402,298.504 51.995 C 301.938 54.968,310.483 63.507,313.363 66.844 C 314.434 68.084,315.584 69.396,315.918 69.758 C 317.381 71.342,324.157 79.803,326.167 82.555 C 326.487 82.995,326.905 83.556,327.094 83.802 C 328.056 85.056,334.190 93.744,334.877 94.826 C 340.153 103.134,339.338 111.024,332.147 121.250 C 330.057 124.221,326.743 129.543,326.807 129.823 C 326.901 130.230,328.820 134.208,329.225 134.833 C 331.749 138.736,332.916 140.369,337.579 146.527 C 339.685 149.308,342.699 153.308,344.275 155.417 C 345.852 157.525,347.432 159.625,347.787 160.083 C 348.141 160.542,349.328 162.141,350.424 163.637 C 351.520 165.133,352.792 166.868,353.250 167.493 C 354.462 169.144,356.531 171.849,357.972 173.667 C 359.766 175.928,364.679 180.752,367.772 183.288 C 371.605 186.432,373.639 188.125,374.850 189.180 C 375.437 189.691,377.379 191.375,379.167 192.923 C 380.954 194.471,382.492 195.820,382.583 195.921 C 382.930 196.303,385.293 198.312,386.333 199.109 C 389.191 201.296,390.820 202.289,395.471 204.682 C 398.287 206.132,399.158 206.934,399.770 208.647 C 399.947 209.141,399.987 190.379,399.993 104.625 L 400.000 0.000 292.542 0.022 C 232.036 0.034,185.620 0.106,186.312 0.186 M69.750 5.100 C 69.292 5.134,67.342 5.281,65.417 5.426 C 63.492 5.570,60.754 5.830,59.333 6.002 C 57.913 6.174,55.925 6.398,54.917 6.499 C 53.908 6.601,51.958 6.861,50.583 7.077 C 49.208 7.293,47.633 7.518,47.083 7.577 C 46.533 7.636,45.221 7.830,44.167 8.008 C 39.906 8.728,34.424 9.320,31.750 9.349 C 27.974 9.390,26.687 9.555,24.670 10.257 C 21.815 11.251,21.742 11.298,13.750 17.388 C 12.925 18.017,11.473 19.105,10.522 19.807 C 4.228 24.457,4.545 24.743,12.917 21.970 C 21.056 19.274,23.127 19.616,23.159 23.662 L 23.167 24.575 24.426 23.329 C 25.118 22.644,26.299 21.337,27.051 20.425 C 29.209 17.805,30.277 16.743,31.300 16.199 C 35.039 14.211,44.069 14.151,57.917 16.021 C 62.994 16.707,69.378 16.639,74.167 15.848 C 80.120 14.866,82.697 15.001,87.709 16.562 C 93.739 18.440,97.025 19.073,103.000 19.508 C 111.793 20.149,115.348 21.130,120.129 24.234 C 122.752 25.938,126.164 27.415,129.789 28.417 L 131.495 28.889 132.312 28.444 C 135.087 26.934,137.927 29.408,136.562 32.147 C 135.566 34.145,127.804 38.333,122.972 39.478 C 117.044 40.883,113.092 39.698,109.985 35.583 C 108.325 33.384,107.453 33.444,101.178 36.192 C 99.060 37.120,97.096 37.744,94.979 38.163 C 93.574 38.441,92.666 39.107,91.582 40.655 C 90.894 41.636,90.004 42.553,88.275 44.058 C 86.975 45.192,85.530 46.535,85.065 47.044 C 79.932 52.660,79.815 61.015,84.765 68.424 C 92.578 80.118,107.003 79.766,115.855 67.667 C 116.089 67.346,116.938 65.958,117.742 64.583 C 122.108 57.109,125.797 54.273,131.457 54.043 C 134.697 53.911,136.307 54.979,138.183 58.506 C 139.865 61.669,139.968 62.428,138.989 64.458 C 134.952 72.826,134.466 80.029,137.204 90.917 C 139.429 99.768,139.639 102.102,139.100 112.000 C 138.335 126.050,137.847 130.253,136.405 135.250 C 135.982 136.717,135.454 138.581,135.232 139.394 C 135.011 140.206,134.799 140.920,134.762 140.981 C 134.521 141.371,133.578 146.025,133.290 148.250 C 132.959 150.804,132.946 151.568,132.985 166.339 C 133.056 193.246,132.644 196.203,128.539 198.249 C 127.388 198.823,123.975 199.491,122.167 199.497 C 116.731 199.513,114.426 200.064,107.000 203.121 C 105.671 203.668,103.233 204.662,101.583 205.329 C 99.933 205.996,98.512 206.607,98.425 206.687 C 98.175 206.918,101.573 206.853,103.333 206.593 C 105.054 206.339,110.409 205.433,111.750 205.168 C 112.208 205.078,113.240 204.931,114.042 204.843 L 115.501 204.682 117.515 203.316 C 120.640 201.198,121.882 201.052,123.260 202.640 C 124.649 204.241,124.044 206.178,121.676 207.710 C 119.557 209.082,117.756 210.500,118.134 210.500 C 118.329 210.500,119.913 210.054,121.652 209.509 C 123.392 208.964,125.663 208.317,126.699 208.071 C 132.878 206.608,133.640 206.273,134.973 204.439 C 136.414 202.456,136.620 201.707,138.178 192.750 C 138.465 191.100,138.872 189.000,139.082 188.083 C 139.293 187.167,139.516 186.079,139.579 185.667 C 139.698 184.878,140.291 182.394,140.836 180.402 C 141.014 179.753,141.527 177.690,141.977 175.819 C 142.427 173.948,143.131 171.104,143.542 169.500 C 146.853 156.567,147.597 151.622,147.743 141.542 C 147.803 137.461,147.898 135.697,148.159 133.833 C 148.534 131.163,148.855 129.484,150.661 120.750 C 152.651 111.124,153.772 100.709,154.086 88.917 C 154.412 76.699,156.537 72.796,166.417 66.273 C 169.522 64.222,181.380 57.833,182.081 57.833 C 182.128 57.833,183.221 57.384,184.511 56.834 C 201.065 49.783,214.327 50.369,223.867 58.574 L 225.151 59.678 229.382 55.464 C 234.410 50.456,236.287 48.310,239.847 43.500 C 241.129 41.769,242.988 39.097,243.417 38.371 C 243.508 38.216,243.779 37.788,244.019 37.419 C 246.035 34.319,248.424 29.177,249.383 25.871 L 249.638 24.993 249.028 24.726 C 248.349 24.430,246.391 23.636,239.250 20.761 C 236.592 19.690,233.779 18.511,233.000 18.140 C 232.221 17.769,231.321 17.369,231.000 17.252 C 230.679 17.134,229.817 16.738,229.083 16.371 C 227.583 15.621,221.939 13.038,220.917 12.634 C 220.550 12.489,219.762 12.178,219.167 11.943 C 213.993 9.901,209.066 8.831,201.750 8.161 C 195.584 7.595,194.260 7.442,191.750 7.003 C 178.518 4.689,172.961 5.154,160.917 9.580 C 150.086 13.560,139.287 13.825,126.583 10.422 C 115.131 7.354,107.161 6.444,90.968 6.357 C 85.557 6.327,84.870 6.289,80.247 5.751 C 75.567 5.207,71.599 4.960,69.750 5.100 M36.835 20.759 C 34.330 21.117,34.024 21.307,31.963 23.792 C 30.258 25.848,27.800 28.350,26.083 29.776 C 25.625 30.157,24.762 30.874,24.167 31.370 C 19.826 34.982,18.102 35.438,16.217 33.473 C 14.872 32.071,14.877 30.498,16.235 27.319 C 16.321 27.117,15.837 27.229,14.216 27.785 C 5.998 30.600,2.164 30.224,0.396 26.428 L 0.003 25.583 0.002 121.875 L 0.000 218.167 189.208 218.165 L 378.417 218.162 376.333 217.426 C 375.188 217.021,373.688 216.452,373.000 216.162 C 370.572 215.136,368.179 214.185,367.551 213.998 C 367.202 213.894,366.542 213.701,366.083 213.569 C 365.625 213.436,363.825 213.217,362.083 213.082 C 352.489 212.335,348.889 209.143,349.252 201.705 C 349.489 196.862,349.424 196.374,348.314 194.657 C 346.417 191.722,341.884 187.990,328.417 178.274 C 322.193 173.785,321.535 173.276,317.583 169.901 C 313.886 166.743,309.598 162.148,307.554 159.154 L 307.191 158.622 306.572 159.603 C 305.861 160.729,305.177 161.786,302.971 165.167 C 298.353 172.244,297.198 174.256,295.086 178.917 C 293.436 182.557,291.188 186.934,288.667 191.417 C 287.673 193.185,286.833 195.016,286.833 195.417 C 286.833 195.524,287.371 195.904,288.027 196.264 C 293.971 199.516,293.176 207.097,286.812 207.839 C 284.498 208.109,277.177 207.610,275.560 207.072 C 270.478 205.382,267.418 198.583,268.888 192.250 C 269.888 187.941,270.000 187.282,270.000 185.706 C 270.000 183.809,269.692 182.579,268.427 179.417 C 266.078 173.550,266.041 168.767,268.320 165.749 C 270.132 163.349,273.381 161.886,277.727 161.515 C 280.203 161.303,280.459 161.178,281.153 159.833 C 282.268 157.675,284.152 152.343,285.245 148.250 C 286.248 144.498,287.648 139.956,288.559 137.500 C 289.838 134.053,290.041 133.560,290.840 131.972 C 291.294 131.066,291.667 130.264,291.667 130.189 C 291.667 129.649,284.792 123.537,280.497 120.259 C 278.620 118.827,274.833 115.618,272.500 113.483 C 270.435 111.594,269.313 110.513,263.167 104.495 C 257.552 98.998,255.572 97.731,248.833 95.329 C 244.141 93.656,242.103 92.690,239.253 90.786 C 233.357 86.849,228.674 80.994,226.027 74.250 C 225.847 73.792,225.460 72.817,225.167 72.083 C 224.874 71.350,224.270 69.700,223.826 68.417 L 223.018 66.083 221.208 64.333 C 213.035 56.429,202.895 55.802,187.083 62.222 C 178.186 65.835,167.648 71.986,164.182 75.590 C 160.902 79.000,160.441 80.407,160.167 87.833 C 160.075 90.354,159.924 93.429,159.834 94.667 C 159.743 95.904,159.590 98.267,159.495 99.917 C 159.399 101.567,159.136 104.529,158.909 106.500 C 158.683 108.471,158.456 110.458,158.403 110.917 C 158.165 113.001,156.786 120.829,155.996 124.583 C 155.822 125.408,155.559 126.683,155.411 127.417 C 155.262 128.150,154.838 130.212,154.468 132.000 L 153.794 135.250 153.662 142.083 C 153.590 145.842,153.446 149.704,153.342 150.667 C 152.734 156.343,151.729 161.615,149.768 169.417 C 145.374 186.905,144.667 189.936,144.005 194.106 C 142.650 202.642,142.149 204.411,140.255 207.333 C 138.070 210.705,135.750 212.107,130.083 213.486 C 127.146 214.200,125.370 214.682,122.667 215.500 C 116.969 217.223,114.736 217.094,112.555 214.917 C 111.666 214.030,111.478 213.730,111.164 212.696 C 110.742 211.307,110.840 211.340,108.606 211.834 C 97.467 214.297,91.261 212.342,91.711 206.512 C 91.923 203.763,93.228 202.363,97.083 200.754 C 97.908 200.409,99.071 199.915,99.667 199.655 C 100.263 199.394,101.500 198.885,102.417 198.523 C 103.333 198.161,105.380 197.336,106.964 196.690 C 113.060 194.204,114.979 193.742,120.250 193.498 C 124.437 193.303,126.085 192.943,126.239 192.187 C 126.839 189.235,126.997 184.014,126.998 167.059 C 127.000 148.976,127.007 148.834,128.073 143.000 C 128.330 141.595,128.913 139.433,130.072 135.583 C 131.668 130.284,132.282 126.512,132.661 119.667 C 132.755 117.971,132.911 115.196,133.008 113.500 C 133.583 103.383,133.431 100.474,132.053 95.167 C 130.501 89.194,130.148 87.396,129.823 83.833 C 129.174 76.720,130.275 68.637,132.433 64.667 C 132.558 64.438,132.847 63.813,133.076 63.279 L 133.492 62.309 133.010 61.353 C 132.397 60.139,132.147 59.940,131.284 59.973 C 128.991 60.063,126.473 61.956,124.486 65.083 C 124.253 65.450,123.797 66.162,123.472 66.667 C 123.148 67.171,122.709 67.883,122.498 68.250 C 115.257 80.803,102.003 86.120,90.583 81.053 C 89.256 80.464,88.640 80.116,86.417 78.701 C 85.233 77.947,81.704 74.549,80.975 73.461 C 80.760 73.139,80.270 72.429,79.888 71.882 C 77.155 67.981,75.389 62.892,75.215 58.417 C 74.923 50.929,77.520 45.458,83.970 39.970 C 85.914 38.316,86.542 37.670,87.417 36.424 C 89.050 34.099,90.958 33.024,95.256 32.004 C 96.418 31.728,97.799 31.200,102.000 29.425 C 107.531 27.088,110.847 27.664,114.247 31.552 C 115.778 33.304,116.631 33.842,118.060 33.957 C 120.110 34.121,124.622 33.178,123.667 32.784 C 122.367 32.249,118.572 30.276,117.500 29.578 C 113.156 26.749,111.257 26.190,103.917 25.577 C 102.175 25.432,100.000 25.210,99.083 25.085 C 98.167 24.960,96.967 24.808,96.417 24.747 C 94.179 24.501,88.955 23.256,86.667 22.423 C 83.150 21.143,79.651 20.862,75.893 21.560 C 70.006 22.652,62.375 22.630,53.750 21.494 C 47.533 20.676,39.778 20.339,36.835 20.759 M254.948 27.785 C 254.903 27.857,254.777 28.254,254.667 28.667 C 252.224 37.818,241.410 52.953,229.818 63.445 L 228.719 64.440 229.365 66.095 C 229.721 67.005,230.377 68.762,230.823 70.000 C 232.040 73.371,233.513 76.348,234.865 78.167 C 237.207 81.317,239.335 83.526,241.333 84.882 C 244.774 87.216,246.756 88.245,249.750 89.251 C 258.490 92.188,260.784 93.682,269.082 101.845 C 276.730 109.369,279.562 111.941,283.750 115.165 C 284.758 115.941,286.308 117.178,287.194 117.913 C 288.079 118.649,289.535 119.850,290.429 120.583 C 293.453 123.066,296.675 126.486,299.298 130.000 C 300.794 132.004,302.985 136.287,304.499 140.167 C 307.171 147.013,308.770 150.227,311.431 154.097 C 316.410 161.339,321.368 165.901,334.298 175.142 C 339.108 178.579,341.859 180.595,342.964 181.494 C 343.305 181.771,344.258 182.534,345.083 183.190 C 353.923 190.216,356.307 194.464,355.274 201.350 C 355.003 203.157,355.042 203.623,355.547 204.593 C 356.349 206.135,357.865 206.686,362.167 206.997 C 366.467 207.308,368.946 207.910,372.833 209.590 C 379.057 212.279,381.626 213.000,384.980 213.000 C 389.264 213.000,395.279 211.216,393.542 210.460 C 388.052 208.073,382.387 203.975,373.963 196.300 C 372.447 194.919,370.455 193.237,366.992 190.417 C 365.867 189.500,364.864 188.675,364.764 188.583 C 364.665 188.492,364.208 188.120,363.750 187.758 C 359.767 184.612,355.045 179.768,351.583 175.279 C 348.989 171.916,348.612 171.417,347.417 169.764 C 344.810 166.160,335.848 154.164,331.971 149.088 C 325.872 141.104,324.631 139.267,322.607 135.216 C 322.020 134.043,321.276 132.408,320.954 131.583 C 319.898 128.880,319.548 127.924,319.429 127.417 C 319.029 125.712,317.020 121.002,315.424 118.027 C 314.916 117.080,314.500 116.277,314.500 116.244 C 314.500 116.176,312.670 113.087,312.085 112.167 C 311.514 111.269,308.938 107.125,308.750 106.802 C 308.568 106.490,306.064 102.786,304.152 100.000 C 302.880 98.147,302.642 97.821,298.747 92.583 C 294.871 87.371,291.264 82.850,284.838 75.147 C 279.861 69.181,279.139 68.239,277.573 65.667 C 273.722 59.342,272.887 54.188,275.484 52.775 C 277.555 51.648,279.285 52.684,279.750 55.329 C 280.505 59.631,283.215 64.125,289.251 71.083 C 289.807 71.725,290.761 72.870,291.371 73.629 C 291.981 74.387,292.816 75.400,293.228 75.879 C 294.980 77.917,300.481 84.697,300.750 85.150 C 300.889 85.384,305.336 91.376,306.823 93.333 C 307.067 93.654,307.620 94.442,308.052 95.083 C 308.484 95.725,309.441 97.112,310.178 98.167 C 312.854 101.994,315.035 105.373,318.035 110.333 C 320.106 113.758,323.547 120.647,323.904 122.083 L 324.029 122.583 324.291 122.083 C 324.435 121.808,325.418 120.308,326.476 118.750 C 329.854 113.775,330.381 112.899,331.298 110.730 C 333.079 106.519,332.480 101.643,329.720 97.882 C 329.370 97.404,328.783 96.582,328.417 96.055 C 327.875 95.276,324.149 89.961,323.165 88.564 C 323.028 88.370,322.321 87.432,321.594 86.481 C 320.866 85.529,319.597 83.850,318.775 82.750 C 316.608 79.854,312.493 74.856,309.992 72.083 C 303.774 65.188,296.465 57.944,291.417 53.674 C 290.958 53.286,290.327 52.732,290.014 52.443 C 289.701 52.153,289.240 51.767,288.988 51.583 C 288.737 51.400,287.456 50.382,286.141 49.322 C 283.745 47.390,281.020 45.335,278.237 43.362 C 277.419 42.782,275.550 41.446,274.083 40.393 C 272.617 39.341,271.229 38.354,271.000 38.201 C 270.771 38.047,269.582 37.208,268.359 36.336 C 264.147 33.334,261.743 31.699,259.167 30.084 C 257.746 29.194,256.394 28.333,256.163 28.173 C 255.627 27.799,255.051 27.615,254.948 27.785 M295.431 136.291 C 294.727 137.767,293.318 141.873,292.242 145.583 C 291.817 147.050,291.289 148.850,291.068 149.583 C 290.848 150.317,290.444 151.704,290.172 152.667 C 287.126 163.423,284.729 166.824,279.833 167.336 C 275.500 167.789,274.504 168.046,273.598 168.943 C 272.100 170.428,272.174 172.817,273.844 176.876 C 276.233 182.682,276.645 186.587,275.332 191.002 C 273.706 196.473,274.714 200.649,277.822 201.315 C 279.343 201.641,285.834 202.116,285.833 201.901 C 285.833 201.892,285.205 201.501,284.438 201.032 C 279.693 198.132,279.698 195.044,284.463 186.583 C 284.721 186.125,285.359 184.991,285.880 184.064 C 286.856 182.326,289.007 177.960,290.074 175.547 C 291.338 172.691,293.317 169.052,295.084 166.333 C 295.471 165.737,296.297 164.462,296.919 163.500 C 299.184 159.993,299.588 159.371,301.244 156.833 C 302.171 155.412,303.098 153.975,303.304 153.638 L 303.677 153.027 302.516 150.710 C 301.877 149.436,301.209 148.024,301.031 147.572 C 300.689 146.704,299.881 144.749,299.004 142.667 C 298.714 141.979,298.397 141.192,298.299 140.917 C 298.057 140.240,295.874 135.667,295.793 135.667 C 295.757 135.667,295.594 135.948,295.431 136.291 M399.446 213.568 C 398.424 215.525,396.655 216.764,393.333 217.849 L 392.417 218.149 396.208 218.158 L 400.000 218.167 400.000 215.417 C 400.000 213.904,399.981 212.667,399.958 212.667 C 399.935 212.667,399.705 213.073,399.446 213.568 " stroke="none" fill-rule="evenodd"></path><path id="path2" d="M86.377 0.620 C 86.631 0.658,87.006 0.657,87.211 0.617 C 87.416 0.578,87.208 0.546,86.750 0.548 C 86.292 0.549,86.124 0.581,86.377 0.620 M94.631 0.623 C 95.115 0.657,95.865 0.656,96.297 0.622 C 96.730 0.588,96.333 0.560,95.417 0.561 C 94.500 0.561,94.146 0.589,94.631 0.623 M30.458 3.621 C 30.756 3.658,31.244 3.658,31.542 3.621 C 31.840 3.584,31.596 3.553,31.000 3.553 C 30.404 3.553,30.160 3.584,30.458 3.621 M177.708 5.615 C 177.869 5.657,178.131 5.657,178.292 5.615 C 178.452 5.573,178.321 5.539,178.000 5.539 C 177.679 5.539,177.548 5.573,177.708 5.615 M180.627 5.618 C 180.834 5.658,181.134 5.656,181.294 5.615 C 181.453 5.573,181.283 5.540,180.917 5.542 C 180.550 5.544,180.420 5.578,180.627 5.618 M100.627 6.451 C 100.834 6.491,101.134 6.490,101.294 6.448 C 101.453 6.406,101.283 6.374,100.917 6.375 C 100.550 6.377,100.420 6.411,100.627 6.451 M33.042 9.282 C 33.202 9.323,33.465 9.323,33.625 9.282 C 33.785 9.240,33.654 9.205,33.333 9.205 C 33.012 9.205,32.881 9.240,33.042 9.282 M141.375 12.788 C 141.719 12.824,142.281 12.824,142.625 12.788 C 142.969 12.752,142.688 12.723,142.000 12.723 C 141.313 12.723,141.031 12.752,141.375 12.788 M39.955 20.454 C 40.250 20.490,40.775 20.491,41.121 20.455 C 41.467 20.419,41.225 20.389,40.583 20.388 C 39.942 20.387,39.659 20.417,39.955 20.454 M81.410 42.375 L 80.583 43.250 81.458 42.423 C 81.940 41.968,82.333 41.574,82.333 41.548 C 82.333 41.424,82.179 41.562,81.410 42.375 M85.500 46.417 C 85.095 46.829,84.801 47.167,84.847 47.167 C 84.893 47.167,85.262 46.829,85.667 46.417 C 86.072 46.004,86.365 45.667,86.319 45.667 C 86.274 45.667,85.905 46.004,85.500 46.417 M231.911 53.042 L 230.917 54.083 231.958 53.089 C 232.926 52.164,233.076 52.000,232.953 52.000 C 232.927 52.000,232.459 52.469,231.911 53.042 M300.833 54.219 C 300.833 54.248,301.077 54.491,301.375 54.760 L 301.917 55.250 301.427 54.708 C 300.971 54.203,300.833 54.090,300.833 54.219 M236.491 56.625 L 235.917 57.250 236.542 56.676 C 236.885 56.360,237.167 56.078,237.167 56.051 C 237.167 55.923,237.026 56.043,236.491 56.625 M75.223 57.500 C 75.223 58.188,75.252 58.469,75.288 58.125 C 75.324 57.781,75.324 57.219,75.288 56.875 C 75.252 56.531,75.223 56.813,75.223 57.500 M304.750 58.000 C 305.108 58.367,305.438 58.667,305.484 58.667 C 305.530 58.667,305.275 58.367,304.917 58.000 C 304.559 57.633,304.228 57.333,304.182 57.333 C 304.137 57.333,304.392 57.633,304.750 58.000 M299.000 60.583 C 299.311 60.904,299.603 61.167,299.649 61.167 C 299.695 61.167,299.478 60.904,299.167 60.583 C 298.856 60.262,298.564 60.000,298.518 60.000 C 298.472 60.000,298.689 60.262,299.000 60.583 M302.917 64.500 C 303.368 64.958,303.775 65.333,303.821 65.333 C 303.867 65.333,303.535 64.958,303.083 64.500 C 302.632 64.042,302.225 63.667,302.179 63.667 C 302.133 63.667,302.465 64.042,302.917 64.500 M117.991 74.292 L 117.417 74.917 118.042 74.342 C 118.623 73.808,118.743 73.667,118.616 73.667 C 118.588 73.667,118.307 73.948,117.991 74.292 M99.044 77.120 C 99.297 77.158,99.672 77.157,99.877 77.117 C 100.082 77.078,99.875 77.046,99.417 77.048 C 98.958 77.049,98.791 77.081,99.044 77.120 M99.625 82.951 C 99.831 82.991,100.169 82.991,100.375 82.951 C 100.581 82.911,100.412 82.879,100.000 82.879 C 99.587 82.879,99.419 82.911,99.625 82.951 M154.220 86.833 C 154.220 87.429,154.250 87.673,154.287 87.375 C 154.324 87.077,154.324 86.590,154.287 86.292 C 154.250 85.994,154.220 86.237,154.220 86.833 M160.048 87.083 C 160.049 87.542,160.081 87.709,160.120 87.456 C 160.158 87.203,160.157 86.828,160.117 86.623 C 160.078 86.418,160.046 86.625,160.048 87.083 M267.250 100.167 C 267.701 100.625,268.108 101.000,268.154 101.000 C 268.200 101.000,267.868 100.625,267.417 100.167 C 266.965 99.708,266.558 99.333,266.513 99.333 C 266.467 99.333,266.799 99.708,267.250 100.167 M268.993 101.875 C 269.684 102.611,269.833 102.743,269.833 102.618 C 269.833 102.591,269.477 102.235,269.042 101.826 L 268.250 101.083 268.993 101.875 M270.167 103.052 C 270.167 103.081,270.410 103.325,270.708 103.594 L 271.250 104.083 270.760 103.542 C 270.304 103.037,270.167 102.923,270.167 103.052 M133.372 106.667 C 133.372 106.987,133.406 107.119,133.448 106.958 C 133.490 106.798,133.490 106.535,133.448 106.375 C 133.406 106.215,133.372 106.346,133.372 106.667 M266.167 107.417 C 266.665 107.921,267.109 108.333,267.155 108.333 C 267.201 108.333,266.831 107.921,266.333 107.417 C 265.835 106.912,265.391 106.500,265.345 106.500 C 265.299 106.500,265.669 106.912,266.167 107.417 M275.333 108.052 C 275.333 108.081,275.577 108.325,275.875 108.594 L 276.417 109.083 275.927 108.542 C 275.471 108.037,275.333 107.923,275.333 108.052 M138.875 113.417 C 138.877 113.783,138.911 113.914,138.951 113.706 C 138.991 113.499,138.990 113.199,138.948 113.040 C 138.906 112.880,138.874 113.050,138.875 113.417 M153.548 144.250 C 153.549 144.708,153.581 144.876,153.620 144.623 C 153.658 144.369,153.657 143.994,153.617 143.789 C 153.578 143.584,153.546 143.792,153.548 144.250 M317.750 162.000 C 318.201 162.458,318.608 162.833,318.654 162.833 C 318.700 162.833,318.368 162.458,317.917 162.000 C 317.465 161.542,317.058 161.167,317.013 161.167 C 316.967 161.167,317.299 161.542,317.750 162.000 M127.053 167.000 C 127.053 167.596,127.084 167.840,127.121 167.542 C 127.158 167.244,127.158 166.756,127.121 166.458 C 127.084 166.160,127.053 166.404,127.053 167.000 M132.887 170.167 C 132.887 170.762,132.917 171.006,132.954 170.708 C 132.991 170.410,132.991 169.923,132.954 169.625 C 132.917 169.327,132.887 169.571,132.887 170.167 M132.894 180.583 C 132.895 181.500,132.923 181.854,132.956 181.369 C 132.990 180.885,132.990 180.135,132.956 179.703 C 132.921 179.270,132.894 179.667,132.894 180.583 M356.583 181.167 C 356.941 181.533,357.272 181.833,357.318 181.833 C 357.363 181.833,357.108 181.533,356.750 181.167 C 356.392 180.800,356.062 180.500,356.016 180.500 C 355.970 180.500,356.225 180.800,356.583 181.167 M127.039 181.333 C 127.039 181.654,127.073 181.785,127.115 181.625 C 127.157 181.465,127.157 181.202,127.115 181.042 C 127.073 180.881,127.039 181.012,127.039 181.333 M345.500 191.417 C 345.811 191.737,346.103 192.000,346.149 192.000 C 346.195 192.000,345.978 191.737,345.667 191.417 C 345.356 191.096,345.064 190.833,345.018 190.833 C 344.972 190.833,345.189 191.096,345.500 191.417 M120.127 193.618 C 120.334 193.658,120.634 193.656,120.794 193.615 C 120.953 193.573,120.783 193.540,120.417 193.542 C 120.050 193.544,119.920 193.578,120.127 193.618 M385.249 198.474 C 385.431 198.689,385.730 198.941,385.915 199.036 C 386.269 199.217,386.217 199.161,385.418 198.498 C 384.937 198.098,384.931 198.097,385.249 198.474 M380.203 201.633 C 381.934 203.107,382.667 203.698,382.667 203.622 C 382.667 203.511,379.885 201.167,379.754 201.167 C 379.700 201.167,379.901 201.376,380.203 201.633 " stroke="none" fill-rule="evenodd"></path><path id="path3" d="M84.542 0.448 C 84.702 0.490,84.965 0.490,85.125 0.448 C 85.285 0.406,85.154 0.372,84.833 0.372 C 84.512 0.372,84.381 0.406,84.542 0.448 M88.958 0.624 C 89.806 0.654,91.194 0.654,92.042 0.624 C 92.890 0.594,92.196 0.569,90.500 0.569 C 88.804 0.569,88.110 0.594,88.958 0.624 M97.713 0.623 C 98.152 0.657,98.827 0.657,99.213 0.622 C 99.600 0.587,99.242 0.559,98.417 0.559 C 97.592 0.560,97.275 0.588,97.713 0.623 M102.127 0.785 C 102.334 0.824,102.634 0.823,102.794 0.781 C 102.953 0.739,102.783 0.707,102.417 0.709 C 102.050 0.711,101.920 0.745,102.127 0.785 M201.875 2.282 C 202.035 2.323,202.298 2.323,202.458 2.282 C 202.619 2.240,202.487 2.205,202.167 2.205 C 201.846 2.205,201.715 2.240,201.875 2.282 M69.377 5.120 C 69.631 5.158,70.006 5.157,70.211 5.117 C 70.416 5.078,70.208 5.046,69.750 5.048 C 69.292 5.049,69.124 5.081,69.377 5.120 M73.794 5.118 C 74.001 5.158,74.301 5.156,74.460 5.115 C 74.620 5.073,74.450 5.040,74.083 5.042 C 73.717 5.044,73.586 5.078,73.794 5.118 M178.961 5.621 C 179.261 5.658,179.711 5.657,179.961 5.619 C 180.212 5.581,179.967 5.551,179.417 5.552 C 178.867 5.553,178.662 5.584,178.961 5.621 M97.792 6.456 C 98.273 6.490,99.060 6.490,99.542 6.456 C 100.023 6.423,99.629 6.395,98.667 6.395 C 97.704 6.395,97.310 6.423,97.792 6.456 M102.875 6.615 C 103.035 6.657,103.298 6.657,103.458 6.615 C 103.619 6.573,103.487 6.539,103.167 6.539 C 102.846 6.539,102.715 6.573,102.875 6.615 M141.133 6.957 C 141.894 6.988,143.094 6.988,143.800 6.957 C 144.506 6.926,143.883 6.901,142.417 6.901 C 140.950 6.901,140.372 6.927,141.133 6.957 M34.042 9.282 C 34.202 9.323,34.465 9.323,34.625 9.282 C 34.785 9.240,34.654 9.205,34.333 9.205 C 34.012 9.205,33.881 9.240,34.042 9.282 M27.960 9.451 C 28.168 9.491,28.468 9.490,28.627 9.448 C 28.786 9.406,28.617 9.374,28.250 9.375 C 27.883 9.377,27.753 9.411,27.960 9.451 M140.042 12.782 C 140.202 12.823,140.465 12.823,140.625 12.782 C 140.785 12.740,140.654 12.705,140.333 12.705 C 140.012 12.705,139.881 12.740,140.042 12.782 M143.542 12.786 C 143.794 12.824,144.206 12.824,144.458 12.786 C 144.710 12.748,144.504 12.717,144.000 12.717 C 143.496 12.717,143.290 12.748,143.542 12.786 M44.542 14.786 C 44.794 14.824,45.206 14.824,45.458 14.786 C 45.710 14.748,45.504 14.717,45.000 14.717 C 44.496 14.717,44.290 14.748,44.542 14.786 M79.042 15.282 C 79.202 15.323,79.465 15.323,79.625 15.282 C 79.785 15.240,79.654 15.205,79.333 15.205 C 79.012 15.205,78.881 15.240,79.042 15.282 M64.875 16.623 C 65.402 16.656,66.265 16.656,66.792 16.623 C 67.319 16.590,66.887 16.563,65.833 16.563 C 64.779 16.563,64.348 16.590,64.875 16.623 M103.294 19.618 C 103.501 19.658,103.801 19.656,103.960 19.615 C 104.120 19.573,103.950 19.540,103.583 19.542 C 103.217 19.544,103.086 19.578,103.294 19.618 M43.460 20.618 C 43.668 20.658,43.968 20.656,44.127 20.615 C 44.286 20.573,44.117 20.540,43.750 20.542 C 43.383 20.544,43.253 20.578,43.460 20.618 M46.042 20.782 C 46.202 20.823,46.465 20.823,46.625 20.782 C 46.785 20.740,46.654 20.705,46.333 20.705 C 46.012 20.705,45.881 20.740,46.042 20.782 M48.208 20.948 C 48.369 20.990,48.631 20.990,48.792 20.948 C 48.952 20.906,48.821 20.872,48.500 20.872 C 48.179 20.872,48.048 20.906,48.208 20.948 M79.788 21.120 C 80.084 21.157,80.609 21.158,80.955 21.122 C 81.300 21.086,81.058 21.055,80.417 21.055 C 79.775 21.054,79.492 21.083,79.788 21.120 M64.875 22.456 C 65.310 22.490,66.023 22.490,66.458 22.456 C 66.894 22.422,66.537 22.393,65.667 22.393 C 64.796 22.393,64.440 22.422,64.875 22.456 M24.333 23.417 C 23.928 23.829,23.635 24.167,23.681 24.167 C 23.726 24.167,24.095 23.829,24.500 23.417 C 24.905 23.004,25.199 22.667,25.153 22.667 C 25.107 22.667,24.738 23.004,24.333 23.417 M29.744 26.208 L 28.917 27.083 29.792 26.256 C 30.605 25.488,30.743 25.333,30.619 25.333 C 30.592 25.333,30.199 25.727,29.744 26.208 M105.875 25.782 C 106.035 25.823,106.298 25.823,106.458 25.782 C 106.619 25.740,106.487 25.705,106.167 25.705 C 105.846 25.705,105.715 25.740,105.875 25.782 M106.795 28.121 C 107.094 28.158,107.544 28.157,107.795 28.119 C 108.045 28.081,107.800 28.051,107.250 28.052 C 106.700 28.053,106.495 28.084,106.795 28.121 M136.872 30.833 C 136.872 31.154,136.906 31.285,136.948 31.125 C 136.990 30.965,136.990 30.702,136.948 30.542 C 136.906 30.381,136.872 30.512,136.872 30.833 M107.208 33.948 C 107.369 33.990,107.631 33.990,107.792 33.948 C 107.952 33.906,107.821 33.872,107.500 33.872 C 107.179 33.872,107.048 33.906,107.208 33.948 M88.240 35.375 L 87.750 35.917 88.292 35.427 C 88.590 35.158,88.833 34.914,88.833 34.885 C 88.833 34.757,88.696 34.870,88.240 35.375 M118.460 40.118 C 118.668 40.158,118.968 40.156,119.127 40.115 C 119.286 40.073,119.117 40.040,118.750 40.042 C 118.383 40.044,118.253 40.078,118.460 40.118 M82.740 41.042 L 82.250 41.583 82.792 41.094 C 83.297 40.638,83.410 40.500,83.281 40.500 C 83.252 40.500,83.009 40.744,82.740 41.042 M90.167 42.250 C 89.762 42.662,89.468 43.000,89.514 43.000 C 89.560 43.000,89.928 42.662,90.333 42.250 C 90.738 41.837,91.032 41.500,90.986 41.500 C 90.940 41.500,90.572 41.837,90.167 42.250 M233.406 51.375 L 232.917 51.917 233.458 51.427 C 233.756 51.158,234.000 50.914,234.000 50.885 C 234.000 50.757,233.862 50.870,233.406 51.375 M202.042 52.115 C 202.202 52.157,202.465 52.157,202.625 52.115 C 202.785 52.073,202.654 52.039,202.333 52.039 C 202.012 52.039,201.881 52.073,202.042 52.115 M229.413 55.542 L 227.917 57.083 229.458 55.587 C 230.890 54.197,231.076 54.000,230.955 54.000 C 230.930 54.000,230.236 54.694,229.413 55.542 M237.573 55.542 L 237.083 56.083 237.625 55.594 C 237.923 55.325,238.167 55.081,238.167 55.052 C 238.167 54.923,238.029 55.037,237.573 55.542 M75.209 55.750 C 75.211 56.117,75.245 56.247,75.285 56.040 C 75.324 55.832,75.323 55.532,75.281 55.373 C 75.239 55.214,75.207 55.383,75.209 55.750 M136.250 55.833 C 136.608 56.200,136.938 56.500,136.984 56.500 C 137.030 56.500,136.775 56.200,136.417 55.833 C 136.059 55.467,135.728 55.167,135.682 55.167 C 135.637 55.167,135.892 55.467,136.250 55.833 M303.000 56.250 C 303.591 56.846,304.111 57.333,304.157 57.333 C 304.203 57.333,303.757 56.846,303.167 56.250 C 302.576 55.654,302.055 55.167,302.010 55.167 C 301.964 55.167,302.409 55.654,303.000 56.250 M81.055 57.417 C 81.055 58.058,81.086 58.300,81.122 57.955 C 81.158 57.609,81.157 57.084,81.120 56.788 C 81.083 56.492,81.054 56.775,81.055 57.417 M294.667 56.552 C 294.667 56.581,294.910 56.825,295.208 57.094 L 295.750 57.583 295.260 57.042 C 294.804 56.537,294.667 56.423,294.667 56.552 M226.000 58.750 C 225.595 59.163,225.301 59.500,225.347 59.500 C 225.393 59.500,225.762 59.163,226.167 58.750 C 226.572 58.337,226.865 58.000,226.819 58.000 C 226.774 58.000,226.405 58.337,226.000 58.750 M297.000 58.750 C 297.311 59.071,297.603 59.333,297.649 59.333 C 297.695 59.333,297.478 59.071,297.167 58.750 C 296.856 58.429,296.564 58.167,296.518 58.167 C 296.472 58.167,296.689 58.429,297.000 58.750 M75.209 59.250 C 75.211 59.617,75.245 59.747,75.285 59.540 C 75.324 59.332,75.323 59.032,75.281 58.873 C 75.239 58.714,75.207 58.883,75.209 59.250 M306.167 59.385 C 306.167 59.414,306.410 59.658,306.708 59.927 L 307.250 60.417 306.760 59.875 C 306.304 59.370,306.167 59.257,306.167 59.385 M232.246 61.042 L 230.917 62.417 232.292 61.087 C 233.048 60.356,233.667 59.737,233.667 59.712 C 233.667 59.591,233.481 59.765,232.246 61.042 M308.667 61.917 C 309.442 62.696,310.113 63.333,310.159 63.333 C 310.205 63.333,309.608 62.696,308.833 61.917 C 308.058 61.137,307.387 60.500,307.341 60.500 C 307.295 60.500,307.892 61.137,308.667 61.917 M221.917 65.000 C 222.461 65.550,222.944 66.000,222.990 66.000 C 223.035 66.000,222.628 65.550,222.083 65.000 C 221.539 64.450,221.056 64.000,221.010 64.000 C 220.965 64.000,221.372 64.450,221.917 65.000 M311.583 65.000 C 311.941 65.367,312.272 65.667,312.318 65.667 C 312.363 65.667,312.108 65.367,311.750 65.000 C 311.392 64.633,311.062 64.333,311.016 64.333 C 310.970 64.333,311.225 64.633,311.583 65.000 M159.746 71.542 L 158.583 72.750 159.792 71.588 C 160.456 70.949,161.000 70.405,161.000 70.379 C 161.000 70.257,160.825 70.419,159.746 71.542 M164.244 75.375 L 163.417 76.250 164.292 75.423 C 165.105 74.654,165.243 74.500,165.119 74.500 C 165.092 74.500,164.699 74.894,164.244 75.375 M84.000 76.719 C 84.000 76.748,84.244 76.991,84.542 77.260 L 85.083 77.750 84.594 77.208 C 84.138 76.703,84.000 76.590,84.000 76.719 M129.539 79.333 C 129.539 79.654,129.573 79.785,129.615 79.625 C 129.657 79.465,129.657 79.202,129.615 79.042 C 129.573 78.881,129.539 79.012,129.539 79.333 M160.214 84.417 C 160.216 84.875,160.248 85.043,160.286 84.789 C 160.325 84.536,160.324 84.161,160.284 83.956 C 160.244 83.751,160.213 83.958,160.214 84.417 M154.214 85.083 C 154.216 85.542,154.248 85.709,154.286 85.456 C 154.325 85.203,154.324 84.828,154.284 84.623 C 154.244 84.418,154.213 84.625,154.214 85.083 M160.056 89.000 C 160.056 89.688,160.085 89.969,160.121 89.625 C 160.157 89.281,160.157 88.719,160.121 88.375 C 160.085 88.031,160.056 88.313,160.056 89.000 M154.050 90.667 C 154.050 91.171,154.081 91.377,154.119 91.125 C 154.158 90.873,154.158 90.460,154.119 90.208 C 154.081 89.956,154.050 90.162,154.050 90.667 M159.875 92.917 C 159.877 93.283,159.911 93.414,159.951 93.206 C 159.991 92.999,159.990 92.699,159.948 92.540 C 159.906 92.380,159.874 92.550,159.875 92.917 M265.500 98.385 C 265.500 98.414,265.744 98.658,266.042 98.927 L 266.583 99.417 266.094 98.875 C 265.638 98.370,265.500 98.257,265.500 98.385 M159.379 100.667 C 159.379 101.079,159.411 101.248,159.451 101.042 C 159.491 100.835,159.491 100.498,159.451 100.292 C 159.411 100.085,159.379 100.254,159.379 100.667 M153.372 101.500 C 153.372 101.821,153.406 101.952,153.448 101.792 C 153.490 101.631,153.490 101.369,153.448 101.208 C 153.406 101.048,153.372 101.179,153.372 101.500 M261.667 103.083 C 261.978 103.404,262.270 103.667,262.315 103.667 C 262.361 103.667,262.144 103.404,261.833 103.083 C 261.522 102.763,261.230 102.500,261.185 102.500 C 261.139 102.500,261.356 102.763,261.667 103.083 M133.394 104.583 C 133.395 105.500,133.423 105.854,133.456 105.369 C 133.490 104.885,133.490 104.135,133.456 103.703 C 133.421 103.270,133.394 103.667,133.394 104.583 M338.221 105.583 C 338.222 106.225,338.252 106.467,338.288 106.121 C 338.324 105.775,338.324 105.250,338.287 104.955 C 338.250 104.659,338.221 104.942,338.221 105.583 M332.383 105.833 C 332.383 106.337,332.415 106.544,332.453 106.292 C 332.491 106.040,332.491 105.627,332.453 105.375 C 332.415 105.123,332.383 105.329,332.383 105.833 M139.212 108.333 C 139.212 108.746,139.245 108.915,139.284 108.708 C 139.324 108.502,139.324 108.165,139.284 107.958 C 139.245 107.752,139.212 107.921,139.212 108.333 M133.214 109.083 C 133.216 109.542,133.248 109.709,133.286 109.456 C 133.325 109.203,133.324 108.828,133.284 108.623 C 133.244 108.418,133.213 108.625,133.214 109.083 M268.667 109.917 C 268.978 110.237,269.270 110.500,269.315 110.500 C 269.361 110.500,269.144 110.237,268.833 109.917 C 268.522 109.596,268.230 109.333,268.185 109.333 C 268.139 109.333,268.356 109.596,268.667 109.917 M139.048 111.417 C 139.049 111.875,139.081 112.043,139.120 111.789 C 139.158 111.536,139.157 111.161,139.117 110.956 C 139.078 110.751,139.046 110.958,139.048 111.417 M133.045 112.333 C 133.045 112.746,133.078 112.915,133.118 112.708 C 133.157 112.502,133.157 112.165,133.118 111.958 C 133.078 111.752,133.045 111.921,133.045 112.333 M271.667 112.750 C 271.978 113.071,272.270 113.333,272.315 113.333 C 272.361 113.333,272.144 113.071,271.833 112.750 C 271.522 112.429,271.230 112.167,271.185 112.167 C 271.139 112.167,271.356 112.429,271.667 112.750 M138.872 114.500 C 138.872 114.821,138.906 114.952,138.948 114.792 C 138.990 114.631,138.990 114.369,138.948 114.208 C 138.906 114.048,138.872 114.179,138.872 114.500 M132.881 115.250 C 132.882 115.708,132.915 115.876,132.953 115.623 C 132.991 115.369,132.990 114.994,132.951 114.789 C 132.911 114.584,132.880 114.792,132.881 115.250 M138.709 117.750 C 138.711 118.117,138.745 118.247,138.785 118.040 C 138.824 117.832,138.823 117.532,138.781 117.373 C 138.739 117.214,138.707 117.383,138.709 117.750 M132.705 119.167 C 132.705 119.487,132.740 119.619,132.782 119.458 C 132.823 119.298,132.823 119.035,132.782 118.875 C 132.740 118.715,132.705 118.846,132.705 119.167 M291.333 121.385 C 291.333 121.414,291.577 121.658,291.875 121.927 L 292.417 122.417 291.927 121.875 C 291.471 121.370,291.333 121.257,291.333 121.385 M288.667 127.083 C 288.978 127.404,289.270 127.667,289.315 127.667 C 289.361 127.667,289.144 127.404,288.833 127.083 C 288.522 126.763,288.230 126.500,288.185 126.500 C 288.139 126.500,288.356 126.763,288.667 127.083 M291.000 129.417 C 291.311 129.737,291.603 130.000,291.649 130.000 C 291.695 130.000,291.478 129.737,291.167 129.417 C 290.856 129.096,290.564 128.833,290.518 128.833 C 290.472 128.833,290.689 129.096,291.000 129.417 M147.720 140.167 C 147.720 140.762,147.750 141.006,147.787 140.708 C 147.824 140.410,147.824 139.923,147.787 139.625 C 147.750 139.327,147.720 139.571,147.720 140.167 M147.724 144.583 C 147.724 145.317,147.754 145.596,147.789 145.204 C 147.824 144.812,147.824 144.212,147.788 143.871 C 147.752 143.529,147.723 143.850,147.724 144.583 M153.553 146.000 C 153.553 146.596,153.584 146.840,153.621 146.542 C 153.658 146.244,153.658 145.756,153.621 145.458 C 153.584 145.160,153.553 145.404,153.553 146.000 M147.539 148.167 C 147.539 148.487,147.573 148.619,147.615 148.458 C 147.657 148.298,147.657 148.035,147.615 147.875 C 147.573 147.715,147.539 147.846,147.539 148.167 M153.372 149.167 C 153.372 149.487,153.406 149.619,153.448 149.458 C 153.490 149.298,153.490 149.035,153.448 148.875 C 153.406 148.715,153.372 148.846,153.372 149.167 M147.372 150.000 C 147.372 150.321,147.406 150.452,147.448 150.292 C 147.490 150.131,147.490 149.869,147.448 149.708 C 147.406 149.548,147.372 149.679,147.372 150.000 M132.875 152.583 C 132.877 152.950,132.911 153.080,132.951 152.873 C 132.991 152.666,132.990 152.366,132.948 152.206 C 132.906 152.047,132.874 152.217,132.875 152.583 M310.833 163.385 C 310.833 163.414,311.077 163.658,311.375 163.927 L 311.917 164.417 311.427 163.875 C 310.971 163.370,310.833 163.257,310.833 163.385 M132.902 166.333 C 132.902 167.938,132.927 168.594,132.957 167.792 C 132.988 166.990,132.988 165.677,132.957 164.875 C 132.927 164.073,132.902 164.729,132.902 166.333 M268.906 165.042 L 268.417 165.583 268.958 165.094 C 269.463 164.638,269.577 164.500,269.448 164.500 C 269.419 164.500,269.175 164.744,268.906 165.042 M315.833 168.417 C 316.144 168.737,316.436 169.000,316.482 169.000 C 316.528 169.000,316.311 168.737,316.000 168.417 C 315.689 168.096,315.397 167.833,315.351 167.833 C 315.305 167.833,315.522 168.096,315.833 168.417 M127.076 174.583 C 127.076 178.067,127.098 179.515,127.125 177.803 C 127.152 176.090,127.152 173.240,127.125 171.469 C 127.098 169.699,127.076 171.100,127.076 174.583 M361.583 177.833 C 362.128 178.383,362.610 178.833,362.656 178.833 C 362.702 178.833,362.294 178.383,361.750 177.833 C 361.206 177.283,360.723 176.833,360.677 176.833 C 360.631 176.833,361.039 177.283,361.583 177.833 M364.333 180.417 C 364.644 180.737,364.936 181.000,364.982 181.000 C 365.028 181.000,364.811 180.737,364.500 180.417 C 364.189 180.096,363.897 179.833,363.851 179.833 C 363.805 179.833,364.022 180.096,364.333 180.417 M132.879 182.833 C 132.879 183.246,132.911 183.415,132.951 183.208 C 132.991 183.002,132.991 182.665,132.951 182.458 C 132.911 182.252,132.879 182.421,132.879 182.833 M359.333 183.917 C 359.644 184.237,359.936 184.500,359.982 184.500 C 360.028 184.500,359.811 184.237,359.500 183.917 C 359.189 183.596,358.897 183.333,358.851 183.333 C 358.805 183.333,359.022 183.596,359.333 183.917 M126.875 184.917 C 126.877 185.283,126.911 185.414,126.951 185.206 C 126.991 184.999,126.990 184.699,126.948 184.540 C 126.906 184.380,126.874 184.550,126.875 184.917 M270.052 185.750 C 270.053 186.300,270.084 186.505,270.121 186.205 C 270.158 185.906,270.157 185.456,270.119 185.205 C 270.081 184.955,270.051 185.200,270.052 185.750 M349.500 187.083 C 349.811 187.404,350.103 187.667,350.149 187.667 C 350.195 187.667,349.978 187.404,349.667 187.083 C 349.356 186.762,349.064 186.500,349.018 186.500 C 348.972 186.500,349.189 186.762,349.500 187.083 M122.460 193.451 C 122.668 193.491,122.968 193.490,123.127 193.448 C 123.286 193.406,123.117 193.374,122.750 193.375 C 122.383 193.377,122.253 193.411,122.460 193.451 M118.211 193.620 C 118.464 193.658,118.839 193.657,119.044 193.617 C 119.249 193.578,119.042 193.546,118.583 193.548 C 118.125 193.549,117.957 193.581,118.211 193.620 M355.375 197.583 C 355.377 197.950,355.411 198.080,355.451 197.873 C 355.491 197.666,355.490 197.366,355.448 197.206 C 355.406 197.047,355.374 197.217,355.375 197.583 M290.160 197.875 C 290.850 198.611,291.000 198.743,291.000 198.618 C 291.000 198.591,290.644 198.235,290.208 197.826 L 289.417 197.083 290.160 197.875 M355.379 199.667 C 355.379 200.079,355.411 200.248,355.451 200.042 C 355.491 199.835,355.491 199.498,355.451 199.292 C 355.411 199.085,355.379 199.254,355.379 199.667 M118.711 199.620 C 118.964 199.658,119.339 199.657,119.544 199.617 C 119.749 199.578,119.542 199.546,119.083 199.548 C 118.625 199.549,118.457 199.581,118.711 199.620 M377.667 199.552 C 377.667 199.581,377.910 199.825,378.208 200.094 L 378.750 200.583 378.260 200.042 C 377.804 199.537,377.667 199.423,377.667 199.552 M349.205 201.000 C 349.205 201.321,349.240 201.452,349.282 201.292 C 349.323 201.131,349.323 200.869,349.282 200.708 C 349.240 200.548,349.205 200.679,349.205 201.000 M284.125 201.951 C 284.331 201.991,284.669 201.991,284.875 201.951 C 285.081 201.911,284.912 201.879,284.500 201.879 C 284.087 201.879,283.919 201.911,284.125 201.951 M99.792 206.951 C 99.998 206.991,100.335 206.991,100.542 206.951 C 100.748 206.911,100.579 206.879,100.167 206.879 C 99.754 206.879,99.585 206.911,99.792 206.951 M362.627 207.118 C 362.834 207.158,363.134 207.156,363.294 207.115 C 363.453 207.073,363.283 207.040,362.917 207.042 C 362.550 207.044,362.420 207.078,362.627 207.118 M280.708 207.782 C 280.869 207.823,281.131 207.823,281.292 207.782 C 281.452 207.740,281.321 207.705,281.000 207.705 C 280.679 207.705,280.548 207.740,280.708 207.782 M284.458 207.954 C 284.756 207.991,285.244 207.991,285.542 207.954 C 285.840 207.917,285.596 207.887,285.000 207.887 C 284.404 207.887,284.160 207.917,284.458 207.954 M138.333 209.583 C 137.928 209.996,137.635 210.333,137.681 210.333 C 137.726 210.333,138.095 209.996,138.500 209.583 C 138.905 209.171,139.199 208.833,139.153 208.833 C 139.107 208.833,138.738 209.171,138.333 209.583 M351.750 209.667 C 352.108 210.033,352.438 210.333,352.484 210.333 C 352.530 210.333,352.275 210.033,351.917 209.667 C 351.559 209.300,351.228 209.000,351.182 209.000 C 351.137 209.000,351.392 209.300,351.750 209.667 M99.875 212.948 C 100.035 212.990,100.298 212.990,100.458 212.948 C 100.619 212.906,100.487 212.872,100.167 212.872 C 99.846 212.872,99.715 212.906,99.875 212.948 M362.458 213.118 C 362.665 213.157,363.002 213.157,363.208 213.118 C 363.415 213.078,363.246 213.045,362.833 213.045 C 362.421 213.045,362.252 213.078,362.458 213.118 M384.461 213.121 C 384.761 213.158,385.211 213.157,385.461 213.119 C 385.712 213.081,385.467 213.051,384.917 213.052 C 384.367 213.053,384.162 213.084,384.461 213.121 " stroke="none" fill-rule="evenodd"></path><path id="path4" d="M85.208 0.615 C 85.369 0.657,85.631 0.657,85.792 0.615 C 85.952 0.573,85.821 0.539,85.500 0.539 C 85.179 0.539,85.048 0.573,85.208 0.615 M100.294 0.785 C 100.501 0.824,100.801 0.823,100.960 0.781 C 101.120 0.739,100.950 0.707,100.583 0.709 C 100.217 0.711,100.086 0.745,100.294 0.785 M110.875 1.615 C 111.035 1.657,111.298 1.657,111.458 1.615 C 111.619 1.573,111.487 1.539,111.167 1.539 C 110.846 1.539,110.715 1.573,110.875 1.615 M200.208 2.282 C 200.369 2.323,200.631 2.323,200.792 2.282 C 200.952 2.240,200.821 2.205,200.500 2.205 C 200.179 2.205,200.048 2.240,200.208 2.282 M202.375 2.448 C 202.535 2.490,202.798 2.490,202.958 2.448 C 203.119 2.406,202.987 2.372,202.667 2.372 C 202.346 2.372,202.215 2.406,202.375 2.448 M28.877 3.620 C 29.131 3.658,29.506 3.657,29.711 3.617 C 29.916 3.578,29.708 3.546,29.250 3.548 C 28.792 3.549,28.624 3.581,28.877 3.620 M32.377 3.620 C 32.631 3.658,33.006 3.657,33.211 3.617 C 33.416 3.578,33.208 3.546,32.750 3.548 C 32.292 3.549,32.124 3.581,32.377 3.620 M67.708 5.115 C 67.869 5.157,68.131 5.157,68.292 5.115 C 68.452 5.073,68.321 5.039,68.000 5.039 C 67.679 5.039,67.548 5.073,67.708 5.115 M176.627 5.618 C 176.834 5.658,177.134 5.656,177.294 5.615 C 177.453 5.573,177.283 5.540,176.917 5.542 C 176.550 5.544,176.420 5.578,176.627 5.618 M181.708 5.615 C 181.869 5.657,182.131 5.657,182.292 5.615 C 182.452 5.573,182.321 5.539,182.000 5.539 C 181.679 5.539,181.548 5.573,181.708 5.615 M89.219 6.291 C 90.944 6.319,93.719 6.319,95.386 6.291 C 97.053 6.264,95.642 6.242,92.250 6.242 C 88.858 6.242,87.494 6.264,89.219 6.291 M101.794 6.451 C 102.001 6.491,102.301 6.490,102.460 6.448 C 102.620 6.406,102.450 6.374,102.083 6.375 C 101.717 6.377,101.586 6.411,101.794 6.451 M104.208 6.615 C 104.369 6.657,104.631 6.657,104.792 6.615 C 104.952 6.573,104.821 6.539,104.500 6.539 C 104.179 6.539,104.048 6.573,104.208 6.615 M145.708 6.948 C 145.869 6.990,146.131 6.990,146.292 6.948 C 146.452 6.906,146.321 6.872,146.000 6.872 C 145.679 6.872,145.548 6.906,145.708 6.948 M202.294 8.118 C 202.501 8.158,202.801 8.156,202.960 8.115 C 203.120 8.073,202.950 8.040,202.583 8.042 C 202.217 8.044,202.086 8.078,202.294 8.118 M29.715 9.290 C 30.338 9.323,31.313 9.322,31.882 9.290 C 32.451 9.257,31.942 9.231,30.750 9.231 C 29.558 9.232,29.093 9.258,29.715 9.290 M138.542 12.615 C 138.702 12.657,138.965 12.657,139.125 12.615 C 139.285 12.573,139.154 12.539,138.833 12.539 C 138.512 12.539,138.381 12.573,138.542 12.615 M145.460 12.618 C 145.668 12.658,145.968 12.656,146.127 12.615 C 146.286 12.573,146.117 12.540,145.750 12.542 C 145.383 12.544,145.253 12.578,145.460 12.618 M39.882 14.790 C 40.504 14.823,41.479 14.822,42.049 14.790 C 42.618 14.757,42.108 14.731,40.917 14.731 C 39.725 14.732,39.259 14.758,39.882 14.790 M45.460 14.951 C 45.668 14.991,45.968 14.990,46.127 14.948 C 46.286 14.906,46.117 14.874,45.750 14.875 C 45.383 14.877,45.253 14.911,45.460 14.951 M47.875 15.115 C 48.035 15.157,48.298 15.157,48.458 15.115 C 48.619 15.073,48.487 15.039,48.167 15.039 C 47.846 15.039,47.715 15.073,47.875 15.115 M68.627 16.618 C 68.834 16.658,69.134 16.656,69.294 16.615 C 69.453 16.573,69.283 16.540,68.917 16.542 C 68.550 16.544,68.420 16.578,68.627 16.618 M2.744 18.542 L 1.917 19.417 2.792 18.590 C 3.273 18.135,3.667 17.741,3.667 17.715 C 3.667 17.590,3.512 17.729,2.744 18.542 M103.958 19.784 C 104.165 19.824,104.502 19.824,104.708 19.784 C 104.915 19.745,104.746 19.712,104.333 19.712 C 103.921 19.712,103.752 19.745,103.958 19.784 M19.460 20.285 C 19.668 20.324,19.968 20.323,20.127 20.281 C 20.286 20.239,20.117 20.207,19.750 20.209 C 19.383 20.211,19.253 20.245,19.460 20.285 M38.627 20.451 C 38.834 20.491,39.134 20.490,39.294 20.448 C 39.453 20.406,39.283 20.374,38.917 20.375 C 38.550 20.377,38.420 20.411,38.627 20.451 M42.042 20.453 C 42.294 20.491,42.706 20.491,42.958 20.453 C 43.210 20.415,43.004 20.383,42.500 20.383 C 41.996 20.383,41.790 20.415,42.042 20.453 M45.294 20.618 C 45.501 20.658,45.801 20.656,45.960 20.615 C 46.120 20.573,45.950 20.540,45.583 20.542 C 45.217 20.544,45.086 20.578,45.294 20.618 M6.740 22.542 L 6.250 23.083 6.792 22.594 C 7.297 22.138,7.410 22.000,7.281 22.000 C 7.252 22.000,7.009 22.244,6.740 22.542 M62.794 22.285 C 63.001 22.324,63.301 22.323,63.460 22.281 C 63.620 22.239,63.450 22.207,63.083 22.209 C 62.717 22.211,62.586 22.245,62.794 22.285 M67.960 22.285 C 68.168 22.324,68.468 22.323,68.627 22.281 C 68.786 22.239,68.617 22.207,68.250 22.209 C 67.883 22.211,67.753 22.245,67.960 22.285 M23.042 23.750 C 23.044 24.117,23.078 24.247,23.118 24.040 C 23.158 23.832,23.156 23.532,23.115 23.373 C 23.073 23.214,23.040 23.383,23.042 23.750 M103.375 25.448 C 103.535 25.490,103.798 25.490,103.958 25.448 C 104.119 25.406,103.987 25.372,103.667 25.372 C 103.346 25.372,103.215 25.406,103.375 25.448 M5.544 29.620 C 5.797 29.658,6.172 29.657,6.377 29.617 C 6.582 29.578,6.375 29.546,5.917 29.548 C 5.458 29.549,5.291 29.581,5.544 29.620 M113.167 30.583 C 113.478 30.904,113.770 31.167,113.815 31.167 C 113.861 31.167,113.644 30.904,113.333 30.583 C 113.022 30.262,112.730 30.000,112.685 30.000 C 112.639 30.000,112.856 30.262,113.167 30.583 M109.333 34.750 C 109.644 35.071,109.936 35.333,109.982 35.333 C 110.028 35.333,109.811 35.071,109.500 34.750 C 109.189 34.429,108.897 34.167,108.851 34.167 C 108.805 34.167,109.022 34.429,109.333 34.750 M85.909 38.375 L 85.250 39.083 85.958 38.425 C 86.617 37.812,86.743 37.667,86.617 37.667 C 86.590 37.667,86.271 37.985,85.909 38.375 M118.042 39.955 C 118.385 39.991,118.948 39.991,119.292 39.955 C 119.635 39.919,119.354 39.889,118.667 39.889 C 117.979 39.889,117.698 39.919,118.042 39.955 M83.240 40.708 L 82.750 41.250 83.292 40.760 C 83.590 40.491,83.833 40.248,83.833 40.219 C 83.833 40.090,83.696 40.203,83.240 40.708 M89.910 42.375 L 89.083 43.250 89.958 42.423 C 90.771 41.654,90.910 41.500,90.785 41.500 C 90.759 41.500,90.365 41.894,89.910 42.375 M86.824 45.125 L 86.250 45.750 86.875 45.176 C 87.457 44.641,87.577 44.500,87.449 44.500 C 87.422 44.500,87.140 44.781,86.824 45.125 M203.542 52.115 C 203.702 52.157,203.965 52.157,204.125 52.115 C 204.285 52.073,204.154 52.039,203.833 52.039 C 203.512 52.039,203.381 52.073,203.542 52.115 M207.042 52.115 C 207.202 52.157,207.465 52.157,207.625 52.115 C 207.785 52.073,207.654 52.039,207.333 52.039 C 207.012 52.039,206.881 52.073,207.042 52.115 M229.667 55.417 C 229.262 55.829,228.968 56.167,229.014 56.167 C 229.060 56.167,229.428 55.829,229.833 55.417 C 230.238 55.004,230.532 54.667,230.486 54.667 C 230.440 54.667,230.072 55.004,229.667 55.417 M293.333 55.219 C 293.333 55.248,293.577 55.491,293.875 55.760 L 294.417 56.250 293.927 55.708 C 293.471 55.203,293.333 55.090,293.333 55.219 M302.333 55.750 C 302.644 56.071,302.936 56.333,302.982 56.333 C 303.028 56.333,302.811 56.071,302.500 55.750 C 302.189 55.429,301.897 55.167,301.851 55.167 C 301.805 55.167,302.022 55.429,302.333 55.750 M234.829 58.292 L 233.750 59.417 234.875 58.338 C 235.494 57.745,236.000 57.239,236.000 57.213 C 236.000 57.090,235.830 57.247,234.829 58.292 M122.333 58.250 C 121.928 58.663,121.635 59.000,121.681 59.000 C 121.726 59.000,122.095 58.663,122.500 58.250 C 122.905 57.837,123.199 57.500,123.153 57.500 C 123.107 57.500,122.738 57.837,122.333 58.250 M204.880 57.789 C 205.318 57.824,205.993 57.823,206.380 57.788 C 206.767 57.754,206.408 57.725,205.583 57.726 C 204.758 57.726,204.442 57.755,204.880 57.789 M226.406 58.542 L 225.917 59.083 226.458 58.594 C 226.963 58.138,227.077 58.000,226.948 58.000 C 226.919 58.000,226.675 58.244,226.406 58.542 M297.750 59.333 C 298.108 59.700,298.438 60.000,298.484 60.000 C 298.530 60.000,298.275 59.700,297.917 59.333 C 297.559 58.967,297.228 58.667,297.182 58.667 C 297.137 58.667,297.392 58.967,297.750 59.333 M230.742 62.375 L 230.083 63.083 230.792 62.425 C 231.181 62.062,231.500 61.743,231.500 61.716 C 231.500 61.590,231.355 61.716,230.742 62.375 M309.583 63.000 C 310.035 63.458,310.442 63.833,310.487 63.833 C 310.533 63.833,310.201 63.458,309.750 63.000 C 309.299 62.542,308.892 62.167,308.846 62.167 C 308.800 62.167,309.132 62.542,309.583 63.000 M311.667 65.250 C 311.978 65.571,312.270 65.833,312.315 65.833 C 312.361 65.833,312.144 65.571,311.833 65.250 C 311.522 64.929,311.230 64.667,311.185 64.667 C 311.139 64.667,311.356 64.929,311.667 65.250 M304.917 66.500 C 305.368 66.958,305.775 67.333,305.821 67.333 C 305.867 67.333,305.535 66.958,305.083 66.500 C 304.632 66.042,304.225 65.667,304.179 65.667 C 304.133 65.667,304.465 66.042,304.917 66.500 M307.500 69.250 C 307.811 69.571,308.103 69.833,308.149 69.833 C 308.195 69.833,307.978 69.571,307.667 69.250 C 307.356 68.929,307.064 68.667,307.018 68.667 C 306.972 68.667,307.189 68.929,307.500 69.250 M113.500 70.583 C 113.095 70.996,112.801 71.333,112.847 71.333 C 112.893 71.333,113.262 70.996,113.667 70.583 C 114.072 70.171,114.365 69.833,114.319 69.833 C 114.274 69.833,113.905 70.171,113.500 70.583 M129.705 77.167 C 129.705 77.487,129.740 77.619,129.782 77.458 C 129.823 77.298,129.823 77.035,129.782 76.875 C 129.740 76.715,129.705 76.846,129.705 77.167 M135.385 77.750 C 135.386 78.300,135.417 78.505,135.454 78.205 C 135.491 77.906,135.490 77.456,135.452 77.205 C 135.414 76.955,135.384 77.200,135.385 77.750 M100.375 77.115 C 100.535 77.157,100.798 77.157,100.958 77.115 C 101.119 77.073,100.987 77.039,100.667 77.039 C 100.346 77.039,100.215 77.073,100.375 77.115 M135.383 80.500 C 135.383 81.004,135.415 81.210,135.453 80.958 C 135.491 80.706,135.491 80.294,135.453 80.042 C 135.415 79.790,135.383 79.996,135.383 80.500 M129.705 81.333 C 129.705 81.654,129.740 81.785,129.782 81.625 C 129.823 81.465,129.823 81.202,129.782 81.042 C 129.740 80.881,129.705 81.012,129.705 81.333 M238.167 82.417 C 238.665 82.921,239.109 83.333,239.155 83.333 C 239.201 83.333,238.831 82.921,238.333 82.417 C 237.835 81.912,237.391 81.500,237.345 81.500 C 237.299 81.500,237.669 81.912,238.167 82.417 M154.372 84.167 C 154.372 84.487,154.406 84.619,154.448 84.458 C 154.490 84.298,154.490 84.035,154.448 83.875 C 154.406 83.715,154.372 83.846,154.372 84.167 M160.052 85.417 C 160.053 85.967,160.084 86.172,160.121 85.872 C 160.158 85.572,160.157 85.122,160.119 84.872 C 160.081 84.622,160.051 84.867,160.052 85.417 M234.000 86.417 C 234.498 86.921,234.943 87.333,234.989 87.333 C 235.034 87.333,234.665 86.921,234.167 86.417 C 233.669 85.912,233.224 85.500,233.178 85.500 C 233.132 85.500,233.502 85.912,234.000 86.417 M154.224 89.083 C 154.224 89.817,154.254 90.096,154.289 89.704 C 154.324 89.312,154.324 88.712,154.288 88.371 C 154.252 88.029,154.223 88.350,154.224 89.083 M159.883 90.667 C 159.883 91.171,159.915 91.377,159.953 91.125 C 159.991 90.873,159.991 90.460,159.953 90.208 C 159.915 89.956,159.883 90.162,159.883 90.667 M154.039 92.667 C 154.039 92.987,154.073 93.119,154.115 92.958 C 154.157 92.798,154.157 92.535,154.115 92.375 C 154.073 92.215,154.039 92.346,154.039 92.667 M159.705 94.167 C 159.705 94.487,159.740 94.619,159.782 94.458 C 159.823 94.298,159.823 94.035,159.782 93.875 C 159.740 93.715,159.705 93.846,159.705 94.167 M153.872 95.333 C 153.872 95.654,153.906 95.785,153.948 95.625 C 153.990 95.465,153.990 95.202,153.948 95.042 C 153.906 94.881,153.872 95.013,153.872 95.333 M153.539 100.667 C 153.539 100.987,153.573 101.119,153.615 100.958 C 153.657 100.798,153.657 100.535,153.615 100.375 C 153.573 100.215,153.539 100.346,153.539 100.667 M159.205 101.667 C 159.205 101.987,159.240 102.119,159.282 101.958 C 159.323 101.798,159.323 101.535,159.282 101.375 C 159.240 101.215,159.205 101.346,159.205 101.667 M139.232 104.667 C 139.232 105.904,139.258 106.410,139.290 105.792 C 139.322 105.173,139.322 104.160,139.290 103.542 C 139.258 102.923,139.232 103.429,139.232 104.667 M153.372 103.000 C 153.372 103.321,153.406 103.452,153.448 103.292 C 153.490 103.131,153.490 102.869,153.448 102.708 C 153.406 102.548,153.372 102.679,153.372 103.000 M263.497 104.708 C 264.458 105.694,265.264 106.500,265.289 106.500 C 265.409 106.500,265.206 106.286,263.542 104.664 L 261.750 102.917 263.497 104.708 M338.042 104.417 C 338.044 104.783,338.078 104.914,338.118 104.706 C 338.158 104.499,338.156 104.199,338.115 104.040 C 338.073 103.880,338.040 104.050,338.042 104.417 M272.333 105.213 C 272.333 105.238,272.915 105.819,273.625 106.504 L 274.917 107.750 273.671 106.458 C 272.514 105.259,272.333 105.091,272.333 105.213 M338.042 106.917 C 338.044 107.283,338.078 107.414,338.118 107.206 C 338.158 106.999,338.156 106.699,338.115 106.540 C 338.073 106.380,338.040 106.550,338.042 106.917 M133.375 107.750 C 133.377 108.117,133.411 108.247,133.451 108.040 C 133.491 107.832,133.490 107.532,133.448 107.373 C 133.406 107.214,133.374 107.383,133.375 107.750 M139.039 109.500 C 139.039 109.821,139.073 109.952,139.115 109.792 C 139.157 109.631,139.157 109.369,139.115 109.208 C 139.073 109.048,139.039 109.179,139.039 109.500 M276.333 109.052 C 276.333 109.081,276.577 109.325,276.875 109.594 L 277.417 110.083 276.927 109.542 C 276.471 109.037,276.333 108.923,276.333 109.052 M269.750 110.833 C 270.294 111.383,270.777 111.833,270.823 111.833 C 270.869 111.833,270.461 111.383,269.917 110.833 C 269.372 110.283,268.890 109.833,268.844 109.833 C 268.798 109.833,269.206 110.283,269.750 110.833 M133.214 111.250 C 133.216 111.708,133.248 111.876,133.286 111.623 C 133.325 111.369,133.324 110.994,133.284 110.789 C 133.244 110.584,133.213 110.792,133.214 111.250 M138.879 112.167 C 138.879 112.579,138.911 112.748,138.951 112.542 C 138.991 112.335,138.991 111.998,138.951 111.792 C 138.911 111.585,138.879 111.754,138.879 112.167 M133.042 114.250 C 133.044 114.617,133.078 114.747,133.118 114.540 C 133.158 114.332,133.156 114.032,133.115 113.873 C 133.073 113.714,133.040 113.883,133.042 114.250 M138.712 115.667 C 138.712 116.079,138.745 116.248,138.784 116.042 C 138.824 115.835,138.824 115.498,138.784 115.292 C 138.745 115.085,138.712 115.254,138.712 115.667 M132.875 117.417 C 132.877 117.783,132.911 117.914,132.951 117.706 C 132.991 117.499,132.990 117.199,132.948 117.040 C 132.906 116.880,132.874 117.050,132.875 117.417 M138.542 118.917 C 138.544 119.283,138.578 119.414,138.618 119.206 C 138.658 118.999,138.656 118.699,138.615 118.540 C 138.573 118.380,138.540 118.550,138.542 118.917 M294.083 124.167 C 294.997 125.083,295.781 125.833,295.827 125.833 C 295.873 125.833,295.163 125.083,294.250 124.167 C 293.337 123.250,292.552 122.500,292.506 122.500 C 292.460 122.500,293.170 123.250,294.083 124.167 M288.833 127.046 C 288.833 127.071,289.415 127.652,290.125 128.338 L 291.417 129.583 290.171 128.292 C 289.014 127.092,288.833 126.924,288.833 127.046 M153.571 140.000 C 153.571 141.971,153.595 142.777,153.624 141.792 C 153.654 140.806,153.654 139.194,153.624 138.208 C 153.595 137.223,153.571 138.029,153.571 140.000 M147.875 137.250 C 147.877 137.617,147.911 137.747,147.951 137.540 C 147.991 137.332,147.990 137.032,147.948 136.873 C 147.906 136.714,147.874 136.883,147.875 137.250 M147.872 142.500 C 147.872 142.821,147.906 142.952,147.948 142.792 C 147.990 142.631,147.990 142.369,147.948 142.208 C 147.906 142.048,147.872 142.179,147.872 142.500 M147.714 147.250 C 147.716 147.708,147.748 147.876,147.786 147.623 C 147.825 147.369,147.824 146.994,147.784 146.789 C 147.744 146.584,147.713 146.792,147.714 147.250 M153.379 147.167 C 153.379 147.579,153.411 147.748,153.451 147.542 C 153.491 147.335,153.491 146.998,153.451 146.792 C 153.411 146.585,153.379 146.754,153.379 147.167 M147.539 149.500 C 147.539 149.821,147.573 149.952,147.615 149.792 C 147.657 149.631,147.657 149.369,147.615 149.208 C 147.573 149.048,147.539 149.179,147.539 149.500 M153.209 149.750 C 153.211 150.117,153.245 150.247,153.285 150.040 C 153.324 149.832,153.323 149.532,153.281 149.373 C 153.239 149.214,153.207 149.383,153.209 149.750 M132.739 158.167 C 132.739 160.504,132.763 161.460,132.791 160.292 C 132.820 159.123,132.820 157.210,132.791 156.042 C 132.763 154.873,132.739 155.829,132.739 158.167 M316.160 160.375 C 316.850 161.111,317.000 161.243,317.000 161.118 C 317.000 161.091,316.644 160.735,316.208 160.326 L 315.417 159.583 316.160 160.375 M127.061 164.417 C 127.061 165.333,127.089 165.687,127.123 165.203 C 127.157 164.718,127.156 163.968,127.122 163.536 C 127.088 163.104,127.060 163.500,127.061 164.417 M319.250 163.500 C 319.608 163.867,319.938 164.167,319.984 164.167 C 320.030 164.167,319.775 163.867,319.417 163.500 C 319.059 163.133,318.728 162.833,318.682 162.833 C 318.637 162.833,318.892 163.133,319.250 163.500 M269.075 165.042 L 268.417 165.750 269.125 165.091 C 269.784 164.478,269.910 164.333,269.784 164.333 C 269.757 164.333,269.438 164.652,269.075 165.042 M313.250 165.833 C 313.887 166.475,314.445 167.000,314.491 167.000 C 314.537 167.000,314.053 166.475,313.417 165.833 C 312.780 165.192,312.221 164.667,312.176 164.667 C 312.130 164.667,312.613 165.192,313.250 165.833 M316.000 168.385 C 316.000 168.414,316.244 168.658,316.542 168.927 L 317.083 169.417 316.594 168.875 C 316.138 168.370,316.000 168.257,316.000 168.385 M266.723 171.833 C 266.723 172.521,266.752 172.802,266.788 172.458 C 266.824 172.115,266.824 171.552,266.788 171.208 C 266.752 170.865,266.723 171.146,266.723 171.833 M132.905 175.083 C 132.905 177.283,132.929 178.160,132.958 177.032 C 132.987 175.904,132.987 174.104,132.958 173.032 C 132.929 171.960,132.905 172.883,132.905 175.083 M272.385 172.083 C 272.386 172.633,272.417 172.838,272.454 172.539 C 272.491 172.239,272.490 171.789,272.452 171.539 C 272.414 171.288,272.384 171.533,272.385 172.083 M127.205 174.500 C 127.205 174.821,127.240 174.952,127.282 174.792 C 127.323 174.631,127.323 174.369,127.282 174.208 C 127.240 174.048,127.205 174.179,127.205 174.500 M127.048 182.583 C 127.049 183.042,127.081 183.209,127.120 182.956 C 127.158 182.703,127.157 182.328,127.117 182.123 C 127.078 181.918,127.046 182.125,127.048 182.583 M359.917 184.333 C 360.275 184.700,360.605 185.000,360.651 185.000 C 360.697 185.000,360.441 184.700,360.083 184.333 C 359.725 183.967,359.395 183.667,359.349 183.667 C 359.303 183.667,359.559 183.967,359.917 184.333 M132.709 184.917 C 132.711 185.283,132.745 185.414,132.785 185.206 C 132.824 184.999,132.823 184.699,132.781 184.540 C 132.739 184.380,132.707 184.550,132.709 184.917 M348.750 186.500 C 349.108 186.867,349.438 187.167,349.484 187.167 C 349.530 187.167,349.275 186.867,348.917 186.500 C 348.559 186.133,348.228 185.833,348.182 185.833 C 348.137 185.833,348.392 186.133,348.750 186.500 M126.875 186.583 C 126.877 186.950,126.911 187.080,126.951 186.873 C 126.991 186.666,126.990 186.366,126.948 186.206 C 126.906 186.047,126.874 186.217,126.875 186.583 M121.375 193.619 C 121.627 193.658,122.040 193.658,122.292 193.619 C 122.544 193.581,122.337 193.550,121.833 193.550 C 121.329 193.550,121.123 193.581,121.375 193.619 M117.375 193.782 C 117.535 193.823,117.798 193.823,117.958 193.782 C 118.119 193.740,117.987 193.705,117.667 193.705 C 117.346 193.705,117.215 193.740,117.375 193.782 M268.539 195.667 C 268.539 195.987,268.573 196.119,268.615 195.958 C 268.657 195.798,268.657 195.535,268.615 195.375 C 268.573 195.215,268.539 195.346,268.539 195.667 M280.875 195.750 C 280.877 196.117,280.911 196.247,280.951 196.040 C 280.991 195.832,280.990 195.532,280.948 195.373 C 280.906 195.214,280.874 195.383,280.875 195.750 M374.167 196.417 C 374.478 196.737,374.770 197.000,374.815 197.000 C 374.861 197.000,374.644 196.737,374.333 196.417 C 374.022 196.096,373.730 195.833,373.685 195.833 C 373.639 195.833,373.856 196.096,374.167 196.417 M382.940 197.749 C 382.415 198.751,380.752 200.501,379.947 200.898 C 379.655 201.041,379.514 201.161,379.634 201.163 C 379.753 201.165,380.548 201.748,381.399 202.458 C 382.250 203.169,383.238 203.975,383.594 204.250 C 383.949 204.525,384.646 205.078,385.143 205.478 C 385.639 205.879,385.988 206.116,385.919 206.004 C 385.609 205.502,388.062 203.533,389.882 202.826 C 390.843 202.451,390.968 202.361,390.641 202.276 C 390.426 202.221,390.006 201.964,389.707 201.706 C 389.149 201.225,388.500 201.045,388.500 201.371 C 388.500 201.473,388.452 201.507,388.393 201.448 C 388.334 201.390,388.374 201.235,388.482 201.105 C 388.639 200.915,388.620 200.873,388.385 200.893 C 388.223 200.906,388.088 200.804,388.084 200.667 C 388.079 200.529,387.956 200.436,387.810 200.461 C 387.664 200.485,387.441 200.377,387.314 200.220 C 387.117 199.977,387.117 199.957,387.317 200.077 C 387.478 200.174,387.513 200.156,387.431 200.023 C 387.365 199.916,387.240 199.871,387.154 199.925 C 387.068 199.978,386.952 199.901,386.895 199.754 C 386.839 199.608,386.558 199.367,386.271 199.219 C 385.985 199.072,385.223 198.480,384.578 197.904 L 383.406 196.858 382.940 197.749 M349.552 198.250 C 349.553 198.800,349.584 199.005,349.621 198.705 C 349.658 198.406,349.657 197.956,349.619 197.705 C 349.581 197.455,349.551 197.700,349.552 198.250 M120.048 199.457 C 120.578 199.490,121.403 199.490,121.881 199.456 C 122.359 199.422,121.925 199.395,120.917 199.396 C 119.908 199.396,119.517 199.424,120.048 199.457 M291.879 202.167 C 291.879 202.579,291.911 202.748,291.951 202.542 C 291.991 202.335,291.991 201.998,291.951 201.792 C 291.911 201.585,291.879 201.754,291.879 202.167 M282.042 201.953 C 282.294 201.991,282.706 201.991,282.958 201.953 C 283.210 201.915,283.004 201.883,282.500 201.883 C 281.996 201.883,281.790 201.915,282.042 201.953 M349.218 202.750 C 349.219 203.300,349.250 203.505,349.287 203.205 C 349.325 202.906,349.324 202.456,349.286 202.205 C 349.248 201.955,349.217 202.200,349.218 202.750 M98.111 206.611 C 97.875 206.847,98.019 206.999,98.458 206.977 C 98.855 206.958,98.866 206.945,98.539 206.882 C 98.332 206.842,98.205 206.740,98.257 206.655 C 98.368 206.476,98.274 206.448,98.111 206.611 M282.542 207.782 C 282.702 207.823,282.965 207.823,283.125 207.782 C 283.285 207.740,283.154 207.705,282.833 207.705 C 282.512 207.705,282.381 207.740,282.542 207.782 M99.292 212.790 C 99.773 212.823,100.560 212.823,101.042 212.790 C 101.523 212.756,101.129 212.728,100.167 212.728 C 99.204 212.728,98.810 212.756,99.292 212.790 M361.711 212.953 C 361.964 212.991,362.339 212.990,362.544 212.951 C 362.749 212.911,362.542 212.880,362.083 212.881 C 361.625 212.882,361.457 212.915,361.711 212.953 M116.708 216.619 C 116.960 216.658,117.373 216.658,117.625 216.619 C 117.877 216.581,117.671 216.550,117.167 216.550 C 116.662 216.550,116.456 216.581,116.708 216.619 " stroke="none" fill-rule="evenodd"></path></g>
</svg>