<svg viewBox="0 0 2816 1536" xmlns="http://www.w3.org/2000/svg">
<g fill="#4FD1C5"><path id="path0" d="M271.570 0.489 C 266.366 3.473,263.600 14.897,265.513 25.500 C 266.225 29.447,266.130 34.354,265.252 38.921 C 264.521 42.731,264.583 42.609,262.798 43.742 C 261.946 44.283,260.917 44.944,260.510 45.211 C 257.721 47.046,251.279 49.438,245.000 50.972 C 237.140 52.892,235.689 53.210,225.083 55.337 C 221.875 55.980,218.500 56.687,217.583 56.907 C 215.512 57.405,212.442 58.104,211.667 58.254 C 204.641 59.615,194.879 62.628,187.167 65.817 C 185.330 66.576,183.635 67.248,180.750 68.362 C 178.058 69.401,168.810 71.643,162.250 72.848 C 161.242 73.033,160.117 73.251,159.750 73.332 C 158.963 73.506,152.862 74.447,147.917 75.156 C 143.089 75.849,137.607 76.456,134.333 76.662 C 114.220 77.924,104.098 80.305,94.023 86.142 C 90.351 88.270,86.199 87.808,83.296 84.950 C 81.204 82.890,81.033 81.644,82.552 79.540 C 84.718 76.542,86.433 73.707,87.691 71.048 C 92.302 61.302,93.550 51.460,91.514 40.894 C 87.514 20.130,68.085 6.459,44.750 7.990 C 19.862 9.623,6.232 24.046,1.350 53.917 C -1.796 73.165,1.295 96.072,7.875 102.282 C 12.801 106.930,17.886 107.325,32.248 104.178 C 35.024 103.569,34.996 103.570,36.196 104.064 C 40.400 105.793,46.178 112.199,49.493 118.806 C 50.612 121.036,50.821 121.791,51.327 125.417 C 51.518 126.792,51.856 128.854,52.078 130.000 C 52.300 131.146,52.754 133.546,53.088 135.333 C 53.421 137.121,53.918 139.596,54.191 140.833 C 54.776 143.482,55.229 145.573,56.177 150.000 C 61.044 172.724,70.285 183.065,90.302 188.190 C 93.727 189.067,94.625 189.516,99.715 192.895 C 107.470 198.042,115.279 202.432,121.751 205.283 C 124.379 206.441,126.359 207.246,129.250 208.332 C 129.708 208.505,130.608 208.845,131.250 209.089 C 133.532 209.957,137.938 211.372,140.833 212.167 C 141.887 212.456,143.425 212.882,144.250 213.112 C 150.592 214.881,158.987 216.543,166.083 217.433 C 172.101 218.188,171.049 218.160,193.917 218.164 C 216.775 218.168,216.625 218.171,224.750 217.404 C 233.196 216.606,237.371 216.089,245.583 214.822 C 252.738 213.719,265.831 210.753,272.000 208.838 C 281.519 205.883,291.057 202.483,295.417 200.491 C 295.783 200.323,297.358 199.627,298.917 198.945 C 309.455 194.328,319.777 188.798,333.083 180.639 C 334.092 180.021,335.517 179.158,336.250 178.722 C 353.017 168.747,356.450 148.479,344.715 128.744 C 343.351 126.449,343.041 125.894,341.749 123.417 C 341.127 122.225,339.966 120.050,339.169 118.583 C 338.372 117.117,337.060 114.642,336.254 113.083 C 335.447 111.525,334.433 109.612,334.000 108.833 C 333.567 108.054,332.838 106.704,332.381 105.833 C 331.923 104.962,331.228 103.650,330.836 102.917 C 330.444 102.183,329.599 100.571,328.958 99.333 C 328.317 98.096,327.662 96.858,327.502 96.583 C 327.343 96.308,326.478 94.658,325.582 92.917 C 324.685 91.175,323.748 89.375,323.498 88.917 C 322.547 87.170,321.839 85.830,320.501 83.250 C 319.740 81.783,318.858 80.096,318.541 79.500 C 317.017 76.636,316.377 75.423,315.375 73.500 C 314.779 72.354,313.521 69.954,312.580 68.167 C 311.639 66.379,310.481 64.150,310.007 63.212 L 309.144 61.508 309.647 60.879 C 311.805 58.181,311.999 54.564,310.233 49.973 C 307.391 42.585,301.830 36.313,296.011 33.931 L 294.628 33.365 293.879 31.724 C 293.467 30.822,292.696 29.071,292.166 27.833 C 291.635 26.596,290.962 25.058,290.669 24.417 C 288.051 18.675,287.209 15.956,286.411 10.667 C 285.622 5.433,284.857 3.468,282.865 1.559 C 281.232 -0.005,281.252 -0.000,276.554 0.002 L 272.417 0.003 271.570 0.489 M277.270 7.923 C 277.675 8.542,277.944 9.856,278.413 13.500 C 278.918 17.430,279.709 20.238,281.418 24.167 C 281.757 24.946,282.171 25.921,282.338 26.333 C 282.506 26.746,283.256 28.433,284.005 30.083 C 285.718 33.856,285.705 33.638,284.250 34.030 C 281.290 34.827,277.614 36.067,275.921 36.839 C 273.644 37.878,273.761 37.925,274.027 36.061 C 274.409 33.384,274.297 27.854,273.793 24.583 C 272.905 18.813,273.247 13.003,274.655 9.917 C 274.739 9.733,274.937 9.223,275.096 8.783 C 275.541 7.550,276.720 7.084,277.270 7.923 M53.869 16.738 C 71.896 19.000,83.358 31.385,84.114 49.417 C 84.321 54.338,83.034 61.121,81.080 65.417 C 80.954 65.692,80.549 66.580,80.179 67.391 C 79.187 69.567,78.036 71.495,76.334 73.833 C 73.420 77.837,72.657 80.590,73.490 84.099 C 74.591 88.745,79.196 93.579,83.568 94.680 C 84.606 94.942,84.607 94.905,83.507 96.506 C 79.716 102.027,77.362 110.468,78.822 113.307 C 80.810 117.170,86.345 115.738,86.737 111.259 C 87.203 105.941,90.313 100.032,94.656 96.217 C 102.299 89.502,113.129 86.399,133.500 85.087 C 141.182 84.592,152.795 83.084,161.750 81.417 C 162.942 81.195,165.379 80.743,167.167 80.413 C 176.562 78.679,182.031 76.994,192.750 72.533 C 194.935 71.623,199.733 69.928,201.583 69.413 C 208.325 67.533,211.885 66.680,220.000 65.003 C 222.612 64.463,225.650 63.823,226.750 63.581 C 227.850 63.339,229.500 63.000,230.417 62.828 C 232.638 62.410,236.170 61.653,239.333 60.917 C 240.754 60.587,242.592 60.172,243.417 59.995 C 245.220 59.609,247.041 59.137,250.333 58.200 C 257.773 56.084,262.194 54.112,268.167 50.248 C 274.266 46.302,279.950 43.756,286.000 42.261 C 289.816 41.318,291.069 41.200,292.439 41.656 C 296.764 43.096,301.385 48.786,302.840 54.462 C 303.346 56.438,301.275 57.374,293.366 58.747 C 289.168 59.475,288.381 59.848,287.648 61.457 C 286.224 64.584,287.991 66.971,292.168 67.559 C 295.417 68.017,298.120 69.089,299.323 70.396 C 299.900 71.024,299.644 71.126,297.833 70.986 C 296.962 70.919,294.825 70.857,293.083 70.848 C 284.288 70.800,280.366 70.145,275.833 67.966 C 267.639 64.026,261.354 64.552,249.399 70.178 C 248.656 70.528,247.390 71.122,246.585 71.499 C 244.595 72.432,239.440 75.005,238.325 75.623 C 236.253 76.771,226.579 81.668,222.750 83.507 C 216.080 86.711,208.202 89.750,202.333 91.384 C 199.979 92.039,197.187 92.708,193.167 93.579 C 188.748 94.537,187.747 94.795,184.667 95.772 C 181.877 96.657,178.036 98.107,175.000 99.421 C 164.507 103.963,157.043 106.456,145.167 109.385 C 134.478 112.022,132.160 112.627,129.917 113.368 C 118.429 117.160,111.254 123.809,110.194 131.644 C 109.385 137.621,117.090 138.778,118.496 132.890 C 119.363 129.260,121.761 126.385,125.847 124.076 C 127.714 123.020,127.349 122.718,129.171 126.833 C 136.888 144.266,148.850 157.530,159.669 160.650 C 166.318 162.568,170.864 161.890,176.810 158.095 C 195.077 146.438,212.691 146.670,230.997 158.810 C 234.688 161.258,235.930 161.501,239.295 160.432 C 254.888 155.476,271.234 152.837,286.369 152.832 C 300.183 152.827,310.836 150.250,312.886 146.417 C 313.921 144.481,313.424 143.013,310.725 140.048 C 306.395 135.289,303.115 129.996,300.781 124.000 C 299.670 121.145,298.746 118.164,298.019 115.083 C 297.219 111.697,296.651 108.321,296.253 104.583 C 295.083 93.583,293.343 84.421,291.507 79.602 C 291.255 78.938,290.958 78.966,296.104 79.169 C 302.966 79.438,304.349 79.113,306.174 76.804 C 307.058 75.686,307.018 75.677,307.790 77.167 C 310.793 82.959,313.107 87.374,313.469 88.000 C 313.708 88.412,314.363 89.650,314.925 90.750 C 315.487 91.850,316.624 94.025,317.451 95.583 C 318.278 97.142,319.166 98.829,319.423 99.333 C 319.680 99.837,320.692 101.750,321.671 103.583 C 322.650 105.417,323.922 107.817,324.497 108.917 C 325.823 111.452,327.715 114.999,330.010 119.250 C 331.000 121.083,332.246 123.419,332.780 124.441 C 333.866 126.519,335.708 129.902,338.258 134.500 C 345.007 146.670,344.945 158.339,338.086 166.417 C 335.941 168.943,334.626 169.944,328.900 173.406 C 326.526 174.841,323.721 176.542,322.667 177.185 C 320.600 178.447,315.146 181.573,313.250 182.583 C 312.608 182.925,311.708 183.413,311.250 183.667 C 302.319 188.620,288.605 194.578,278.083 198.075 C 271.855 200.145,269.807 200.781,266.750 201.591 C 266.292 201.713,264.792 202.113,263.417 202.480 C 253.101 205.236,241.790 207.240,228.083 208.739 C 201.997 211.591,180.911 211.515,162.583 208.502 C 156.846 207.558,155.128 207.210,149.333 205.814 C 144.000 204.530,133.851 201.326,130.917 200.000 C 130.235 199.692,127.274 198.474,125.333 197.703 C 123.768 197.081,115.237 192.738,113.083 191.467 C 108.794 188.935,105.994 187.159,101.611 184.191 C 98.322 181.965,96.672 181.249,91.750 179.917 C 76.526 175.796,69.536 168.527,65.424 152.539 C 63.814 146.281,60.724 131.132,59.586 123.917 C 58.780 118.811,57.910 116.307,55.558 112.332 C 53.271 108.467,48.908 103.072,46.374 100.975 L 45.143 99.957 46.363 99.296 C 52.116 96.179,56.135 91.885,55.973 89.027 C 55.731 84.735,50.940 83.701,48.170 87.344 C 44.640 91.988,37.577 94.975,25.116 97.096 C 14.351 98.928,12.749 97.975,10.521 88.417 C 7.093 73.712,7.808 58.016,12.611 42.500 C 17.706 26.041,28.104 17.586,44.667 16.434 C 46.417 16.312,51.927 16.494,53.869 16.738 M269.131 74.152 C 269.708 74.348,271.318 75.036,272.709 75.681 C 276.115 77.260,280.029 78.500,281.609 78.500 C 282.145 78.500,282.354 78.898,283.317 81.750 C 285.340 87.744,286.661 93.713,287.245 99.500 C 288.006 107.046,288.888 112.944,289.861 117.000 C 292.224 126.847,295.937 134.960,301.237 141.860 C 302.044 142.910,302.052 142.899,300.208 143.306 C 296.766 144.067,294.006 144.290,286.500 144.415 C 275.584 144.596,265.000 145.641,256.750 147.352 C 250.611 148.625,247.402 149.396,241.917 150.914 C 240.083 151.422,238.118 151.965,237.549 152.122 C 236.537 152.401,236.505 152.400,236.049 152.063 C 229.607 147.308,218.957 142.887,211.631 141.926 C 197.476 140.071,185.612 142.725,173.042 150.560 C 168.749 153.235,167.697 153.576,164.888 153.199 C 157.157 152.162,149.161 145.075,141.628 132.583 C 139.406 128.899,135.485 120.781,135.784 120.484 C 135.980 120.289,138.167 119.712,145.500 117.922 C 152.193 116.287,152.761 116.142,156.583 115.078 C 160.744 113.919,165.510 112.308,169.917 110.569 C 172.495 109.551,173.307 109.216,176.333 107.920 C 179.523 106.554,185.490 104.229,187.177 103.695 C 188.986 103.123,193.395 102.052,196.583 101.411 C 204.014 99.917,213.786 96.740,221.167 93.418 C 222.037 93.026,223.537 92.350,224.500 91.915 C 226.429 91.045,235.484 86.553,235.750 86.335 C 236.198 85.966,249.646 79.279,252.417 78.046 C 261.778 73.883,265.673 72.976,269.131 74.152 " stroke="none" fill-rule="evenodd"></path><path id="path1" d="M0.024 32.042 C 0.038 50.670,0.106 63.184,0.185 61.934 C 0.261 60.752,0.399 59.252,0.492 58.601 C 1.816 49.339,2.865 44.628,5.024 38.250 C 11.180 20.059,23.063 10.346,42.039 7.994 C 46.528 7.438,55.922 8.032,60.167 9.142 C 66.278 10.739,70.439 12.449,74.061 14.852 C 74.598 15.208,75.073 15.500,75.115 15.500 C 75.240 15.500,77.166 16.987,78.333 17.986 C 80.830 20.122,83.133 22.590,84.500 24.595 C 86.871 28.072,87.343 28.891,88.738 31.951 C 91.593 38.214,93.173 47.258,92.517 53.583 C 92.413 54.592,92.252 56.129,92.161 57.000 C 91.652 61.839,88.690 70.354,86.115 74.378 C 85.777 74.907,85.500 75.374,85.500 75.416 C 85.500 75.458,84.953 76.301,84.284 77.288 C 82.301 80.215,81.990 80.653,81.824 80.755 C 80.780 81.401,82.817 84.884,84.931 86.065 C 88.029 87.797,91.028 87.724,94.253 85.839 C 103.412 80.486,113.444 78.009,131.083 76.744 C 138.980 76.178,142.761 75.769,149.750 74.723 C 151.308 74.490,153.108 74.234,153.750 74.153 C 156.253 73.839,164.131 72.378,168.917 71.340 C 175.970 69.810,181.731 68.046,186.083 66.083 C 186.891 65.719,191.676 63.819,192.583 63.503 C 193.042 63.343,194.167 62.949,195.083 62.629 C 197.930 61.632,200.015 60.969,201.579 60.561 C 205.157 59.629,210.755 58.268,212.833 57.824 C 214.071 57.560,216.358 57.051,217.917 56.693 C 219.475 56.336,222.175 55.768,223.917 55.431 C 225.658 55.095,227.571 54.712,228.167 54.580 C 228.762 54.448,230.900 54.000,232.917 53.586 C 237.041 52.737,237.568 52.616,244.083 51.007 C 251.365 49.210,256.768 47.273,259.932 45.328 C 260.565 44.938,261.233 44.535,261.417 44.432 C 261.600 44.328,262.323 43.875,263.023 43.425 L 264.295 42.606 264.829 40.261 C 266.060 34.862,266.132 29.462,265.051 23.653 C 264.365 19.971,264.815 13.103,266.005 9.083 C 266.195 8.442,266.409 7.692,266.482 7.417 C 267.190 4.738,269.306 1.656,271.205 0.534 C 271.459 0.384,271.667 0.203,271.667 0.131 C 271.667 0.059,210.542 0.000,135.833 0.000 L 0.000 0.000 0.024 32.042 M282.199 0.805 C 284.581 2.628,285.849 5.307,286.423 9.728 C 286.999 14.159,287.769 17.194,289.137 20.417 C 291.389 25.722,293.761 31.117,294.366 32.313 C 294.878 33.324,294.976 33.421,295.750 33.677 C 300.043 35.096,305.928 40.688,308.453 45.750 C 308.636 46.117,309.033 46.904,309.335 47.500 C 310.841 50.470,311.774 53.999,311.567 55.941 C 311.333 58.131,310.542 60.294,309.695 61.058 C 309.227 61.481,309.282 61.610,312.662 68.000 C 313.463 69.512,314.700 71.875,315.413 73.250 C 316.126 74.625,316.764 75.825,316.830 75.917 C 316.897 76.008,317.610 77.358,318.416 78.917 C 321.025 83.967,322.039 85.907,322.335 86.417 C 322.495 86.692,323.096 87.817,323.669 88.917 C 324.243 90.017,325.050 91.554,325.463 92.333 C 327.096 95.418,328.272 97.663,329.131 99.333 C 329.626 100.296,330.254 101.496,330.527 102.000 C 330.799 102.504,331.496 103.817,332.074 104.917 C 333.383 107.405,334.237 109.005,334.831 110.083 C 335.083 110.542,335.818 111.929,336.463 113.167 C 338.282 116.658,338.678 117.396,338.828 117.580 C 338.905 117.673,339.375 118.537,339.873 119.500 C 342.337 124.265,343.152 125.774,344.466 128.000 C 356.571 148.501,353.328 169.093,336.472 178.750 C 336.312 178.842,335.747 179.186,335.216 179.514 C 331.752 181.657,327.796 184.053,326.083 185.044 C 324.983 185.681,324.008 186.261,323.917 186.333 C 323.773 186.445,321.404 187.776,318.583 189.330 C 311.957 192.979,304.993 196.456,299.333 198.942 C 298.188 199.446,296.912 200.012,296.500 200.202 C 295.615 200.608,291.679 202.209,290.250 202.744 C 286.398 204.187,284.990 204.720,284.333 204.985 C 282.886 205.569,270.014 209.658,268.083 210.146 C 259.060 212.431,249.305 214.520,245.083 215.070 C 244.717 215.118,243.179 215.346,241.667 215.576 C 236.838 216.312,234.007 216.670,230.333 217.009 C 228.362 217.191,226.075 217.423,225.250 217.523 C 224.425 217.624,222.512 217.800,221.000 217.915 C 218.755 218.085,234.922 218.127,309.125 218.145 L 400.000 218.167 400.000 109.083 L 400.000 0.000 340.574 -0.000 L 281.148 -0.000 282.199 0.805 M275.796 7.958 C 273.769 10.270,272.932 17.658,273.912 24.583 C 274.478 28.582,274.578 32.623,274.185 35.633 C 273.957 37.375,273.990 37.682,274.371 37.379 C 274.581 37.212,277.327 36.107,279.583 35.281 C 281.187 34.694,283.940 33.883,284.773 33.752 L 285.462 33.644 284.380 31.280 C 279.893 21.480,278.614 17.690,278.155 12.833 C 277.744 8.485,276.887 6.714,275.796 7.958 M44.583 16.599 C 25.334 18.515,15.887 27.685,10.942 49.250 C 7.969 62.215,7.727 73.736,10.169 86.000 C 12.563 98.022,14.262 99.121,26.667 96.677 C 27.537 96.505,28.550 96.316,28.917 96.256 C 36.257 95.060,44.702 91.331,47.319 88.130 C 47.789 87.554,48.410 86.792,48.698 86.437 C 51.772 82.643,57.862 86.604,55.780 91.042 C 54.543 93.681,50.496 97.317,46.459 99.418 C 45.301 100.021,45.277 99.870,46.723 101.092 C 48.484 102.580,50.870 105.391,54.125 109.812 C 55.798 112.084,57.928 116.317,58.737 118.976 C 59.219 120.558,59.281 120.877,60.095 125.917 C 60.421 127.933,61.019 131.233,61.424 133.250 C 61.829 135.267,62.270 137.517,62.405 138.250 C 62.540 138.983,62.880 140.633,63.161 141.917 C 63.443 143.200,63.854 145.075,64.074 146.083 C 65.461 152.419,65.762 153.569,67.031 157.395 C 70.172 166.868,75.091 172.786,83.000 176.607 C 85.280 177.709,85.829 177.936,87.500 178.473 C 90.459 179.423,91.248 179.661,92.833 180.077 C 95.681 180.826,96.127 180.968,97.249 181.487 C 97.858 181.769,98.380 182.000,98.408 182.000 C 98.515 182.000,100.314 183.138,101.974 184.256 C 107.412 187.917,112.112 190.815,115.750 192.748 C 121.803 195.965,126.694 198.230,131.583 200.081 C 135.513 201.568,137.810 202.360,140.917 203.299 C 141.833 203.575,143.333 204.028,144.250 204.305 C 151.682 206.548,164.755 209.000,173.250 209.743 C 174.900 209.887,176.925 210.077,177.750 210.165 C 180.831 210.494,190.294 210.707,197.083 210.601 C 205.045 210.477,215.195 209.920,221.779 209.245 C 223.138 209.106,225.338 208.884,226.667 208.753 C 230.023 208.421,237.032 207.547,239.333 207.173 C 240.387 207.002,241.625 206.814,242.083 206.756 C 244.360 206.468,252.615 204.921,255.417 204.258 C 256.333 204.041,258.096 203.630,259.333 203.344 C 260.571 203.058,262.258 202.640,263.083 202.414 C 263.908 202.189,265.446 201.772,266.500 201.489 C 270.608 200.385,278.394 197.920,282.000 196.582 C 282.596 196.360,283.815 195.913,284.709 195.587 C 285.603 195.261,286.578 194.886,286.875 194.754 C 287.173 194.622,288.354 194.142,289.500 193.688 C 291.620 192.848,295.109 191.351,296.917 190.505 C 297.467 190.248,299.304 189.396,301.000 188.613 C 305.272 186.640,310.810 183.806,314.833 181.535 C 319.256 179.038,320.203 178.490,322.583 177.052 C 334.439 169.890,334.324 169.965,336.214 168.183 C 338.641 165.893,340.754 162.668,341.839 159.595 C 344.162 153.011,343.066 143.456,339.187 136.481 C 338.657 135.529,338.014 134.375,337.757 133.917 C 337.499 133.458,337.064 132.671,336.789 132.167 C 336.513 131.662,336.083 130.875,335.832 130.417 C 335.581 129.958,335.132 129.133,334.834 128.583 C 334.536 128.033,334.182 127.407,334.048 127.191 C 333.913 126.975,333.371 125.963,332.842 124.941 C 331.458 122.264,330.329 120.140,328.558 116.882 C 327.701 115.305,327.000 113.971,327.000 113.918 C 327.000 113.865,326.673 113.243,326.274 112.536 C 325.874 111.829,325.038 110.275,324.415 109.083 C 323.793 107.892,322.394 105.253,321.308 103.219 C 320.222 101.185,319.333 99.490,319.333 99.452 C 319.333 99.414,318.971 98.716,318.529 97.900 C 317.237 95.516,315.954 93.083,314.676 90.590 C 314.019 89.310,313.422 88.185,313.349 88.090 C 313.275 87.995,312.370 86.267,311.336 84.250 C 310.303 82.233,309.055 79.860,308.562 78.975 C 308.070 78.090,307.667 77.326,307.667 77.276 C 307.667 77.226,307.507 76.915,307.312 76.584 L 306.957 75.983 306.663 76.466 C 304.938 79.303,302.679 79.768,293.283 79.223 L 291.483 79.118 291.729 79.767 C 291.988 80.454,292.779 83.244,293.426 85.750 C 294.373 89.423,295.513 96.198,295.998 101.039 C 296.155 102.606,296.338 104.077,296.996 109.083 C 298.261 118.707,302.291 128.944,307.660 136.167 C 308.887 137.817,308.989 137.935,311.207 140.289 C 314.611 143.901,314.215 147.068,310.117 148.992 C 303.935 151.894,298.929 152.723,285.883 153.007 C 281.777 153.097,278.079 153.206,277.667 153.251 C 277.254 153.295,275.467 153.448,273.695 153.590 C 270.132 153.877,265.855 154.433,262.167 155.090 C 252.780 156.762,247.873 157.936,240.083 160.373 C 235.937 161.671,234.817 161.533,231.500 159.317 C 229.443 157.943,227.170 156.500,227.062 156.500 C 227.010 156.500,226.769 156.359,226.526 156.186 C 226.282 156.013,225.241 155.449,224.211 154.931 C 208.738 147.153,192.765 148.146,177.500 157.836 C 174.431 159.785,173.509 160.276,171.917 160.813 C 165.027 163.135,158.444 161.605,150.000 155.721 C 144.808 152.102,137.471 143.020,132.858 134.500 C 130.847 130.788,129.365 127.795,128.419 125.540 C 127.461 123.257,127.625 123.355,126.100 124.158 C 122.189 126.218,119.653 129.127,118.733 132.612 C 117.432 137.536,112.471 138.601,110.286 134.424 C 108.594 131.190,112.869 122.783,118.096 119.063 C 118.596 118.708,119.389 118.134,119.857 117.788 C 123.163 115.350,129.462 113.046,139.333 110.665 C 149.633 108.180,154.491 106.851,160.688 104.821 C 164.537 103.561,168.050 102.181,176.667 98.547 C 179.906 97.181,186.504 94.929,188.825 94.398 C 189.792 94.177,192.271 93.622,194.333 93.165 C 202.765 91.296,210.904 88.714,216.917 86.000 C 217.558 85.711,218.383 85.339,218.750 85.174 C 219.117 85.009,220.054 84.586,220.833 84.233 C 222.750 83.365,235.064 77.211,237.017 76.144 C 243.220 72.758,252.438 68.519,257.000 66.955 C 264.432 64.407,269.229 64.553,275.221 67.512 C 280.281 70.010,282.189 70.348,293.000 70.665 C 296.162 70.757,298.920 70.880,299.127 70.937 C 299.672 71.086,299.466 70.661,298.698 70.050 C 297.123 68.796,295.055 68.106,291.333 67.594 C 288.554 67.211,287.155 65.789,287.142 63.333 C 287.129 60.659,288.691 59.253,292.231 58.756 C 297.004 58.087,301.736 56.788,302.617 55.907 C 303.510 55.014,301.228 49.898,298.354 46.348 C 294.315 41.359,291.817 40.702,284.692 42.752 C 279.550 44.231,272.975 47.190,269.500 49.588 C 261.889 54.840,255.125 57.478,240.917 60.732 C 239.908 60.963,238.108 61.376,236.917 61.649 C 235.725 61.923,233.737 62.345,232.500 62.587 C 229.384 63.196,220.610 65.034,216.500 65.938 C 214.621 66.351,212.408 66.828,211.583 66.997 C 210.758 67.166,209.071 67.574,207.833 67.902 C 206.596 68.231,204.589 68.763,203.374 69.084 C 200.645 69.805,195.335 71.611,192.833 72.667 C 183.299 76.694,180.955 77.462,171.250 79.741 C 169.967 80.042,168.617 80.339,168.250 80.400 C 167.418 80.540,162.796 81.381,159.917 81.916 C 157.544 82.358,151.836 83.245,150.250 83.419 C 149.700 83.480,148.275 83.672,147.083 83.847 C 142.282 84.552,137.083 85.083,132.583 85.330 C 127.240 85.622,120.989 86.273,118.316 86.815 C 117.455 86.990,116.337 87.185,115.833 87.249 C 110.963 87.868,102.199 91.055,98.167 93.674 C 91.859 97.771,86.833 105.800,86.833 111.782 C 86.833 115.996,80.424 117.004,78.565 113.083 C 77.255 110.320,79.641 101.969,83.289 96.552 L 84.295 95.059 83.568 94.864 C 76.050 92.854,71.142 83.982,73.936 77.454 C 74.545 76.031,74.652 75.859,76.340 73.583 C 88.704 56.915,85.589 32.791,69.740 22.466 C 63.365 18.313,52.595 15.801,44.583 16.599 M264.000 73.939 C 263.352 74.065,260.850 74.818,259.833 75.191 C 259.329 75.377,258.617 75.627,258.250 75.748 C 257.513 75.991,253.594 77.675,250.750 78.971 C 248.968 79.782,238.009 85.297,236.167 86.309 C 234.301 87.334,225.025 91.891,223.333 92.614 C 222.371 93.026,221.508 93.424,221.417 93.499 C 220.904 93.918,213.213 96.871,209.417 98.105 C 204.272 99.777,197.189 101.667,196.063 101.667 C 195.766 101.667,193.577 102.178,189.917 103.103 C 188.337 103.502,185.137 104.508,184.417 104.832 C 184.233 104.915,183.708 105.128,183.250 105.307 C 181.549 105.971,176.543 107.993,175.375 108.488 C 172.452 109.727,171.625 110.065,169.583 110.859 C 163.080 113.388,155.123 115.863,149.619 117.068 C 149.050 117.192,147.121 117.667,145.333 118.123 C 143.546 118.579,141.071 119.193,139.833 119.489 C 138.596 119.784,137.192 120.137,136.714 120.273 L 135.846 120.520 136.192 121.468 C 139.423 130.309,148.205 143.084,154.494 148.093 C 159.341 151.954,163.674 153.566,167.675 152.999 C 169.037 152.806,169.766 152.461,172.544 150.697 C 175.282 148.959,176.638 148.176,178.706 147.140 C 197.100 137.920,217.023 139.330,234.846 151.112 C 236.694 152.334,236.537 152.309,238.540 151.686 C 239.389 151.422,240.533 151.094,241.083 150.956 C 241.633 150.819,242.796 150.513,243.667 150.275 C 247.510 149.229,248.360 149.011,250.167 148.608 C 251.221 148.373,252.908 147.995,253.917 147.766 C 258.220 146.792,265.526 145.674,271.917 145.010 C 273.750 144.820,275.587 144.622,276.000 144.570 C 276.412 144.517,280.387 144.411,284.833 144.334 C 293.742 144.178,298.194 143.802,301.042 142.964 C 301.804 142.740,301.830 142.900,300.807 141.550 C 296.132 135.383,293.084 128.947,290.253 119.261 C 289.479 116.614,288.152 109.324,287.748 105.500 C 286.532 93.994,285.781 89.968,283.552 83.000 C 282.215 78.821,282.142 78.667,281.505 78.667 C 279.957 78.667,275.471 77.188,271.999 75.532 C 268.932 74.070,266.156 73.517,264.000 73.939 M0.029 146.458 L 0.000 218.167 85.042 218.139 C 131.815 218.123,169.783 218.082,169.417 218.048 C 169.050 218.013,167.737 217.835,166.500 217.652 C 165.262 217.469,163.387 217.207,162.333 217.069 C 154.012 215.981,140.067 212.503,132.000 209.504 C 131.221 209.214,129.983 208.762,129.250 208.500 C 123.803 206.551,114.466 202.168,110.025 199.475 C 109.442 199.122,108.930 198.833,108.887 198.833 C 108.812 198.833,106.103 197.218,104.833 196.416 C 101.868 194.543,99.683 193.108,97.581 191.655 C 95.150 189.975,93.821 189.333,91.417 188.677 C 90.317 188.378,88.609 187.912,87.622 187.641 C 85.794 187.141,83.741 186.424,81.500 185.504 C 80.352 185.032,79.833 184.783,77.417 183.541 C 76.710 183.178,74.495 181.763,73.000 180.720 C 67.711 177.030,62.268 169.741,59.611 162.789 C 57.885 158.273,57.240 155.818,54.897 144.833 C 54.575 143.321,54.134 141.258,53.919 140.250 C 53.703 139.242,53.404 137.779,53.255 137.000 C 53.106 136.221,52.835 134.833,52.653 133.917 C 51.910 130.169,51.473 127.615,51.154 125.167 C 50.700 121.680,50.298 120.495,48.388 117.000 C 45.540 111.789,40.014 105.959,36.359 104.310 C 35.112 103.748,34.724 103.729,33.028 104.152 C 30.261 104.841,25.009 105.804,21.022 106.352 C 15.014 107.179,8.981 104.768,6.063 100.375 C 3.032 95.811,0.935 87.044,0.112 75.500 C 0.082 75.087,0.045 107.019,0.029 146.458 " stroke="none" fill-rule="evenodd"></path><path id="path2" d="M265.881 30.083 C 265.882 30.542,265.915 30.709,265.953 30.456 C 265.991 30.203,265.990 29.828,265.951 29.623 C 265.911 29.418,265.880 29.625,265.881 30.083 M274.385 30.750 C 274.386 31.300,274.417 31.505,274.454 31.205 C 274.491 30.906,274.490 30.456,274.452 30.205 C 274.414 29.955,274.384 30.200,274.385 30.750 M265.879 32.167 C 265.879 32.579,265.911 32.748,265.951 32.542 C 265.991 32.335,265.991 31.998,265.951 31.792 C 265.911 31.585,265.879 31.754,265.879 32.167 M296.660 44.375 C 297.350 45.111,297.500 45.243,297.500 45.118 C 297.500 45.091,297.144 44.735,296.708 44.326 L 295.917 43.583 296.660 44.375 M84.050 50.667 C 84.050 51.171,84.081 51.377,84.119 51.125 C 84.158 50.873,84.158 50.460,84.119 50.208 C 84.081 49.956,84.050 50.163,84.050 50.667 M8.399 69.250 C 8.399 70.533,8.426 71.036,8.457 70.368 C 8.489 69.699,8.489 68.649,8.457 68.034 C 8.425 67.420,8.399 67.967,8.399 69.250 M286.875 70.615 C 287.035 70.657,287.298 70.657,287.458 70.615 C 287.619 70.573,287.487 70.539,287.167 70.539 C 286.846 70.539,286.715 70.573,286.875 70.615 M294.542 70.786 C 294.794 70.824,295.206 70.824,295.458 70.786 C 295.710 70.748,295.504 70.717,295.000 70.717 C 294.496 70.717,294.290 70.748,294.542 70.786 M297.875 70.948 C 298.035 70.990,298.298 70.990,298.458 70.948 C 298.619 70.906,298.487 70.872,298.167 70.872 C 297.846 70.872,297.715 70.906,297.875 70.948 M47.750 102.167 C 48.108 102.533,48.438 102.833,48.484 102.833 C 48.530 102.833,48.275 102.533,47.917 102.167 C 47.559 101.800,47.228 101.500,47.182 101.500 C 47.137 101.500,47.392 101.800,47.750 102.167 M281.458 144.451 C 281.665 144.491,282.002 144.491,282.208 144.451 C 282.415 144.411,282.246 144.379,281.833 144.379 C 281.421 144.379,281.252 144.411,281.458 144.451 M151.667 145.750 C 151.978 146.071,152.270 146.333,152.315 146.333 C 152.361 146.333,152.144 146.071,151.833 145.750 C 151.522 145.429,151.230 145.167,151.185 145.167 C 151.139 145.167,151.356 145.429,151.667 145.750 M142.667 148.719 C 142.667 148.748,142.910 148.991,143.208 149.260 L 143.750 149.750 143.260 149.208 C 142.804 148.703,142.667 148.590,142.667 148.719 M165.208 161.788 C 165.552 161.824,166.115 161.824,166.458 161.788 C 166.802 161.752,166.521 161.723,165.833 161.723 C 165.146 161.723,164.865 161.752,165.208 161.788 M69.167 177.385 C 69.167 177.414,69.410 177.658,69.708 177.927 L 70.250 178.417 69.760 177.875 C 69.304 177.370,69.167 177.257,69.167 177.385 M201.625 210.618 C 201.831 210.657,202.169 210.657,202.375 210.618 C 202.581 210.578,202.412 210.545,202.000 210.545 C 201.588 210.545,201.419 210.578,201.625 210.618 M189.292 210.787 C 189.590 210.824,190.077 210.824,190.375 210.787 C 190.673 210.750,190.429 210.720,189.833 210.720 C 189.237 210.720,188.994 210.750,189.292 210.787 M195.875 210.782 C 196.035 210.823,196.298 210.823,196.458 210.782 C 196.619 210.740,196.487 210.705,196.167 210.705 C 195.846 210.705,195.715 210.740,195.875 210.782 " stroke="none" fill-rule="evenodd"></path><path id="path3" d="M269.500 1.917 C 269.095 2.329,268.801 2.667,268.847 2.667 C 268.893 2.667,269.262 2.329,269.667 1.917 C 270.072 1.504,270.365 1.167,270.319 1.167 C 270.274 1.167,269.905 1.504,269.500 1.917 M42.875 7.948 C 43.035 7.990,43.298 7.990,43.458 7.948 C 43.619 7.906,43.487 7.872,43.167 7.872 C 42.846 7.872,42.715 7.906,42.875 7.948 M51.708 7.948 C 51.869 7.990,52.131 7.990,52.292 7.948 C 52.452 7.906,52.321 7.872,52.000 7.872 C 51.679 7.872,51.548 7.906,51.708 7.948 M264.717 17.500 C 264.717 18.004,264.748 18.210,264.786 17.958 C 264.824 17.706,264.824 17.294,264.786 17.042 C 264.748 16.790,264.717 16.996,264.717 17.500 M264.723 19.833 C 264.723 20.521,264.752 20.802,264.788 20.458 C 264.824 20.115,264.824 19.552,264.788 19.208 C 264.752 18.865,264.723 19.146,264.723 19.833 M15.500 20.083 C 15.095 20.496,14.801 20.833,14.847 20.833 C 14.893 20.833,15.262 20.496,15.667 20.083 C 16.072 19.671,16.365 19.333,16.319 19.333 C 16.274 19.333,15.905 19.671,15.500 20.083 M274.372 29.333 C 274.372 29.654,274.406 29.785,274.448 29.625 C 274.490 29.465,274.490 29.202,274.448 29.042 C 274.406 28.881,274.372 29.012,274.372 29.333 M274.379 32.333 C 274.379 32.746,274.411 32.915,274.451 32.708 C 274.491 32.502,274.491 32.165,274.451 31.958 C 274.411 31.752,274.379 31.921,274.379 32.333 M83.872 48.000 C 83.872 48.321,83.906 48.452,83.948 48.292 C 83.990 48.131,83.990 47.869,83.948 47.708 C 83.906 47.548,83.872 47.679,83.872 48.000 M92.566 50.583 C 92.566 51.867,92.592 52.370,92.624 51.701 C 92.656 51.032,92.655 49.982,92.623 49.368 C 92.591 48.753,92.565 49.300,92.566 50.583 M0.209 61.583 C 0.211 61.950,0.245 62.080,0.285 61.873 C 0.324 61.666,0.323 61.366,0.281 61.206 C 0.239 61.047,0.207 61.217,0.209 61.583 M287.667 65.719 C 287.667 65.748,287.910 65.991,288.208 66.260 L 288.750 66.750 288.260 66.208 C 287.804 65.703,287.667 65.590,287.667 65.719 M285.125 70.451 C 285.331 70.491,285.669 70.491,285.875 70.451 C 286.081 70.411,285.912 70.379,285.500 70.379 C 285.087 70.379,284.919 70.411,285.125 70.451 M288.292 70.622 C 288.681 70.657,289.319 70.657,289.708 70.622 C 290.098 70.587,289.779 70.558,289.000 70.558 C 288.221 70.558,287.902 70.587,288.292 70.622 M265.458 73.784 C 265.665 73.824,266.002 73.824,266.208 73.784 C 266.415 73.745,266.246 73.712,265.833 73.712 C 265.421 73.712,265.252 73.745,265.458 73.784 M0.205 76.833 C 0.205 77.154,0.240 77.285,0.282 77.125 C 0.323 76.965,0.323 76.702,0.282 76.542 C 0.240 76.381,0.205 76.512,0.205 76.833 M133.625 76.618 C 133.831 76.657,134.169 76.657,134.375 76.618 C 134.581 76.578,134.412 76.545,134.000 76.545 C 133.587 76.545,133.419 76.578,133.625 76.618 M293.960 79.285 C 294.168 79.324,294.468 79.323,294.627 79.281 C 294.786 79.239,294.617 79.207,294.250 79.209 C 293.883 79.211,293.753 79.245,293.960 79.285 M298.121 79.454 C 298.417 79.490,298.942 79.491,299.288 79.455 C 299.634 79.419,299.392 79.389,298.750 79.388 C 298.108 79.387,297.825 79.417,298.121 79.454 M300.794 79.451 C 301.001 79.491,301.301 79.490,301.460 79.448 C 301.620 79.406,301.450 79.374,301.083 79.375 C 300.717 79.377,300.586 79.411,300.794 79.451 M73.039 82.167 C 73.039 82.487,73.073 82.619,73.115 82.458 C 73.157 82.298,73.157 82.035,73.115 81.875 C 73.073 81.715,73.039 81.846,73.039 82.167 M51.458 84.951 C 51.665 84.991,52.002 84.991,52.208 84.951 C 52.415 84.911,52.246 84.879,51.833 84.879 C 51.421 84.879,51.252 84.911,51.458 84.951 M135.708 85.115 C 135.869 85.157,136.131 85.157,136.292 85.115 C 136.452 85.073,136.321 85.039,136.000 85.039 C 135.679 85.039,135.548 85.073,135.708 85.115 M133.125 85.284 C 133.331 85.324,133.669 85.324,133.875 85.284 C 134.081 85.245,133.912 85.212,133.500 85.212 C 133.087 85.212,132.919 85.245,133.125 85.284 M130.208 85.448 C 130.369 85.490,130.631 85.490,130.792 85.448 C 130.952 85.406,130.821 85.372,130.500 85.372 C 130.179 85.372,130.048 85.406,130.208 85.448 M52.833 94.750 C 52.428 95.162,52.135 95.500,52.181 95.500 C 52.226 95.500,52.595 95.162,53.000 94.750 C 53.405 94.337,53.699 94.000,53.653 94.000 C 53.607 94.000,53.238 94.337,52.833 94.750 M93.909 97.042 L 93.250 97.750 93.958 97.091 C 94.617 96.478,94.743 96.333,94.617 96.333 C 94.590 96.333,94.271 96.652,93.909 97.042 M17.458 106.457 C 18.031 106.489,18.969 106.489,19.542 106.457 C 20.115 106.424,19.646 106.398,18.500 106.398 C 17.354 106.398,16.885 106.424,17.458 106.457 M41.417 108.000 C 42.053 108.642,42.612 109.167,42.658 109.167 C 42.704 109.167,42.220 108.642,41.583 108.000 C 40.947 107.358,40.388 106.833,40.342 106.833 C 40.296 106.833,40.780 107.358,41.417 108.000 M109.875 132.583 C 109.877 132.950,109.911 133.080,109.951 132.873 C 109.991 132.666,109.990 132.366,109.948 132.206 C 109.906 132.047,109.874 132.217,109.875 132.583 M113.875 136.948 C 114.035 136.990,114.298 136.990,114.458 136.948 C 114.619 136.906,114.487 136.872,114.167 136.872 C 113.846 136.872,113.715 136.906,113.875 136.948 M311.167 140.417 C 311.757 141.012,312.278 141.500,312.324 141.500 C 312.370 141.500,311.924 141.012,311.333 140.417 C 310.743 139.821,310.222 139.333,310.176 139.333 C 310.130 139.333,310.576 139.821,311.167 140.417 M202.125 141.291 C 202.881 141.322,204.119 141.322,204.875 141.291 C 205.631 141.260,205.012 141.235,203.500 141.235 C 201.987 141.235,201.369 141.260,202.125 141.291 M150.000 143.917 C 150.311 144.237,150.603 144.500,150.649 144.500 C 150.695 144.500,150.478 144.237,150.167 143.917 C 149.856 143.596,149.564 143.333,149.518 143.333 C 149.472 143.333,149.689 143.596,150.000 143.917 M313.379 144.500 C 313.379 144.912,313.411 145.081,313.451 144.875 C 313.491 144.669,313.491 144.331,313.451 144.125 C 313.411 143.919,313.379 144.087,313.379 144.500 M291.460 144.285 C 291.668 144.324,291.968 144.323,292.127 144.281 C 292.286 144.239,292.117 144.207,291.750 144.209 C 291.383 144.211,291.253 144.245,291.460 144.285 M279.625 144.454 C 279.923 144.491,280.410 144.491,280.708 144.454 C 281.006 144.417,280.762 144.387,280.167 144.387 C 279.571 144.387,279.327 144.417,279.625 144.454 M276.458 144.618 C 276.665 144.657,277.002 144.657,277.208 144.618 C 277.415 144.578,277.246 144.545,276.833 144.545 C 276.421 144.545,276.252 144.578,276.458 144.618 M343.053 150.500 C 343.053 151.096,343.084 151.340,343.121 151.042 C 343.158 150.744,343.158 150.256,343.121 149.958 C 343.084 149.660,343.053 149.904,343.053 150.500 M201.292 149.784 C 201.498 149.824,201.835 149.824,202.042 149.784 C 202.248 149.745,202.079 149.712,201.667 149.712 C 201.254 149.712,201.085 149.745,201.292 149.784 M204.877 149.786 C 205.131 149.825,205.506 149.824,205.711 149.784 C 205.916 149.744,205.708 149.713,205.250 149.714 C 204.792 149.716,204.624 149.748,204.877 149.786 M351.730 151.583 C 351.731 152.683,351.758 153.112,351.790 152.535 C 351.823 151.959,351.823 151.059,351.790 150.535 C 351.757 150.012,351.730 150.483,351.730 151.583 M145.497 151.708 C 147.120 153.372,147.333 153.576,147.333 153.455 C 147.333 153.431,146.527 152.625,145.542 151.664 L 143.750 149.917 145.497 151.708 M285.217 152.958 C 286.208 152.987,287.783 152.987,288.717 152.958 C 289.652 152.928,288.842 152.904,286.917 152.904 C 284.992 152.904,284.227 152.928,285.217 152.958 M164.960 153.118 C 165.168 153.158,165.468 153.156,165.627 153.115 C 165.786 153.073,165.617 153.040,165.250 153.042 C 164.883 153.044,164.753 153.078,164.960 153.118 M280.042 153.115 C 280.202 153.157,280.465 153.157,280.625 153.115 C 280.785 153.073,280.654 153.039,280.333 153.039 C 280.012 153.039,279.881 153.073,280.042 153.115 M277.127 153.285 C 277.334 153.324,277.634 153.323,277.794 153.281 C 277.953 153.239,277.783 153.207,277.417 153.209 C 277.050 153.211,276.920 153.245,277.127 153.285 M272.875 153.615 C 273.035 153.657,273.298 153.657,273.458 153.615 C 273.619 153.573,273.487 153.539,273.167 153.539 C 272.846 153.539,272.715 153.573,272.875 153.615 M336.573 167.875 L 336.083 168.417 336.625 167.927 C 337.130 167.471,337.243 167.333,337.115 167.333 C 337.086 167.333,336.842 167.577,336.573 167.875 M342.829 173.792 L 341.750 174.917 342.875 173.838 C 343.920 172.836,344.076 172.667,343.954 172.667 C 343.928 172.667,343.422 173.173,342.829 173.792 M215.960 209.785 C 216.168 209.824,216.468 209.823,216.627 209.781 C 216.786 209.739,216.617 209.707,216.250 209.709 C 215.883 209.711,215.753 209.745,215.960 209.785 M213.292 209.951 C 213.498 209.991,213.835 209.991,214.042 209.951 C 214.248 209.911,214.079 209.879,213.667 209.879 C 213.254 209.879,213.085 209.911,213.292 209.951 M208.375 210.282 C 208.535 210.323,208.798 210.323,208.958 210.282 C 209.119 210.240,208.987 210.205,208.667 210.205 C 208.346 210.205,208.215 210.240,208.375 210.282 M185.625 210.621 C 185.923 210.658,186.410 210.658,186.708 210.621 C 187.006 210.584,186.762 210.553,186.167 210.553 C 185.571 210.553,185.327 210.584,185.625 210.621 M199.621 210.620 C 199.917 210.657,200.442 210.658,200.788 210.622 C 201.134 210.586,200.892 210.555,200.250 210.555 C 199.608 210.554,199.325 210.583,199.621 210.620 M191.798 210.790 C 192.375 210.823,193.275 210.823,193.798 210.790 C 194.322 210.757,193.850 210.730,192.750 210.730 C 191.650 210.731,191.222 210.758,191.798 210.790 M220.042 217.948 C 220.202 217.990,220.465 217.990,220.625 217.948 C 220.785 217.906,220.654 217.872,220.333 217.872 C 220.012 217.872,219.881 217.906,220.042 217.948 " stroke="none" fill-rule="evenodd"></path><path id="path4" d="M269.577 2.042 L 268.750 2.917 269.625 2.090 C 270.106 1.635,270.500 1.241,270.500 1.215 C 270.500 1.090,270.346 1.229,269.577 2.042 M44.708 7.953 C 44.960 7.991,45.373 7.991,45.625 7.953 C 45.877 7.915,45.671 7.883,45.167 7.883 C 44.663 7.883,44.456 7.915,44.708 7.953 M49.628 7.954 C 49.928 7.991,50.378 7.990,50.628 7.952 C 50.878 7.914,50.633 7.884,50.083 7.885 C 49.533 7.886,49.328 7.917,49.628 7.954 M42.375 8.115 C 42.535 8.157,42.798 8.157,42.958 8.115 C 43.119 8.073,42.987 8.039,42.667 8.039 C 42.346 8.039,42.215 8.073,42.375 8.115 M52.375 8.115 C 52.535 8.157,52.798 8.157,52.958 8.115 C 53.119 8.073,52.987 8.039,52.667 8.039 C 52.346 8.039,52.215 8.073,52.375 8.115 M264.875 16.417 C 264.877 16.783,264.911 16.914,264.951 16.706 C 264.991 16.499,264.990 16.199,264.948 16.040 C 264.906 15.880,264.874 16.050,264.875 16.417 M46.534 16.457 C 47.149 16.489,48.199 16.489,48.868 16.457 C 49.536 16.426,49.033 16.399,47.750 16.399 C 46.467 16.399,45.920 16.425,46.534 16.457 M43.042 16.615 C 43.202 16.657,43.465 16.657,43.625 16.615 C 43.785 16.573,43.654 16.539,43.333 16.539 C 43.012 16.539,42.881 16.573,43.042 16.615 M51.708 16.615 C 51.869 16.657,52.131 16.657,52.292 16.615 C 52.452 16.573,52.321 16.539,52.000 16.539 C 51.679 16.539,51.548 16.573,51.708 16.615 M273.227 18.833 C 273.227 19.704,273.255 20.060,273.289 19.625 C 273.324 19.190,273.324 18.477,273.289 18.042 C 273.255 17.606,273.227 17.962,273.227 18.833 M15.912 19.875 L 14.750 21.083 15.958 19.921 C 16.623 19.282,17.167 18.738,17.167 18.713 C 17.167 18.591,16.992 18.753,15.912 19.875 M264.875 21.083 C 264.877 21.450,264.911 21.580,264.951 21.373 C 264.991 21.166,264.990 20.866,264.948 20.706 C 264.906 20.547,264.874 20.717,264.875 21.083 M265.881 33.583 C 265.882 34.042,265.915 34.209,265.953 33.956 C 265.991 33.703,265.990 33.328,265.951 33.123 C 265.911 32.918,265.880 33.125,265.881 33.583 M302.583 38.333 C 303.035 38.792,303.442 39.167,303.487 39.167 C 303.533 39.167,303.201 38.792,302.750 38.333 C 302.299 37.875,301.892 37.500,301.846 37.500 C 301.800 37.500,302.132 37.875,302.583 38.333 M92.372 47.500 C 92.372 47.821,92.406 47.952,92.448 47.792 C 92.490 47.631,92.490 47.369,92.448 47.208 C 92.406 47.048,92.372 47.179,92.372 47.500 M84.050 49.000 C 84.050 49.504,84.081 49.710,84.119 49.458 C 84.158 49.206,84.158 48.794,84.119 48.542 C 84.081 48.290,84.050 48.496,84.050 49.000 M0.372 61.000 C 0.372 61.321,0.406 61.452,0.448 61.292 C 0.490 61.131,0.490 60.869,0.448 60.708 C 0.406 60.548,0.372 60.679,0.372 61.000 M287.209 63.750 C 287.211 64.117,287.245 64.247,287.285 64.040 C 287.324 63.832,287.323 63.532,287.281 63.373 C 287.239 63.214,287.207 63.383,287.209 63.750 M0.042 65.583 C 0.044 65.950,0.078 66.080,0.118 65.873 C 0.158 65.666,0.156 65.366,0.115 65.206 C 0.073 65.047,0.040 65.217,0.042 65.583 M8.385 66.083 C 8.386 66.633,8.417 66.838,8.454 66.539 C 8.491 66.239,8.490 65.789,8.452 65.539 C 8.414 65.288,8.384 65.533,8.385 66.083 M265.296 65.289 C 265.688 65.324,266.288 65.324,266.629 65.288 C 266.971 65.252,266.650 65.223,265.917 65.224 C 265.183 65.224,264.904 65.254,265.296 65.289 M299.000 70.250 C 299.311 70.571,299.603 70.833,299.649 70.833 C 299.695 70.833,299.478 70.571,299.167 70.250 C 298.856 69.929,298.564 69.667,298.518 69.667 C 298.472 69.667,298.689 69.929,299.000 70.250 M285.875 70.615 C 286.035 70.657,286.298 70.657,286.458 70.615 C 286.619 70.573,286.487 70.539,286.167 70.539 C 285.846 70.539,285.715 70.573,285.875 70.615 M290.125 70.791 C 290.881 70.822,292.119 70.822,292.875 70.791 C 293.631 70.760,293.012 70.735,291.500 70.735 C 289.987 70.735,289.369 70.760,290.125 70.791 M296.875 70.948 C 297.035 70.990,297.298 70.990,297.458 70.948 C 297.619 70.906,297.487 70.872,297.167 70.872 C 296.846 70.872,296.715 70.906,296.875 70.948 M8.383 72.333 C 8.383 72.837,8.415 73.044,8.453 72.792 C 8.491 72.540,8.491 72.127,8.453 71.875 C 8.415 71.623,8.383 71.829,8.383 72.333 M0.372 77.500 C 0.372 77.821,0.406 77.952,0.448 77.792 C 0.490 77.631,0.490 77.369,0.448 77.208 C 0.406 77.048,0.372 77.179,0.372 77.500 M0.539 79.333 C 0.539 79.654,0.573 79.785,0.615 79.625 C 0.657 79.465,0.657 79.202,0.615 79.042 C 0.573 78.881,0.539 79.012,0.539 79.333 M292.625 79.118 C 292.831 79.157,293.169 79.157,293.375 79.118 C 293.581 79.078,293.412 79.045,293.000 79.045 C 292.587 79.045,292.419 79.078,292.625 79.118 M296.380 79.289 C 296.818 79.324,297.493 79.323,297.880 79.288 C 298.267 79.254,297.908 79.225,297.083 79.226 C 296.258 79.226,295.942 79.255,296.380 79.289 M136.375 84.948 C 136.535 84.990,136.798 84.990,136.958 84.948 C 137.119 84.906,136.987 84.872,136.667 84.872 C 136.346 84.872,136.215 84.906,136.375 84.948 M133.960 85.118 C 134.168 85.158,134.468 85.156,134.627 85.115 C 134.786 85.073,134.617 85.040,134.250 85.042 C 133.883 85.044,133.753 85.078,133.960 85.118 M131.125 85.284 C 131.331 85.324,131.669 85.324,131.875 85.284 C 132.081 85.245,131.912 85.212,131.500 85.212 C 131.087 85.212,130.919 85.245,131.125 85.284 M89.295 87.454 C 89.594 87.491,90.044 87.490,90.295 87.452 C 90.545 87.414,90.300 87.384,89.750 87.385 C 89.200 87.386,88.995 87.417,89.295 87.454 M46.744 88.875 L 45.917 89.750 46.792 88.923 C 47.273 88.468,47.667 88.074,47.667 88.048 C 47.667 87.924,47.512 88.062,46.744 88.875 M56.048 89.250 C 56.049 89.708,56.081 89.876,56.120 89.623 C 56.158 89.369,56.157 88.994,56.117 88.789 C 56.078 88.584,56.046 88.792,56.048 89.250 M77.333 90.917 C 77.831 91.421,78.276 91.833,78.322 91.833 C 78.368 91.833,77.998 91.421,77.500 90.917 C 77.002 90.412,76.557 90.000,76.511 90.000 C 76.466 90.000,76.835 90.412,77.333 90.917 M52.745 94.708 L 51.750 95.750 52.792 94.755 C 53.759 93.831,53.910 93.667,53.786 93.667 C 53.761 93.667,53.292 94.135,52.745 94.708 M93.410 97.375 L 92.583 98.250 93.458 97.423 C 94.271 96.654,94.410 96.500,94.285 96.500 C 94.259 96.500,93.865 96.894,93.410 97.375 M18.044 97.953 C 18.297 97.991,18.672 97.990,18.877 97.951 C 19.082 97.911,18.875 97.880,18.417 97.881 C 17.958 97.882,17.791 97.915,18.044 97.953 M115.824 121.125 L 115.250 121.750 115.875 121.176 C 116.457 120.641,116.577 120.500,116.449 120.500 C 116.422 120.500,116.140 120.781,115.824 121.125 M311.583 141.000 C 312.035 141.458,312.442 141.833,312.487 141.833 C 312.533 141.833,312.201 141.458,311.750 141.000 C 311.299 140.542,310.892 140.167,310.846 140.167 C 310.800 140.167,311.132 140.542,311.583 141.000 M200.125 141.451 C 200.331 141.491,200.669 141.491,200.875 141.451 C 201.081 141.411,200.912 141.379,200.500 141.379 C 200.088 141.379,199.919 141.411,200.125 141.451 M206.627 141.451 C 206.834 141.491,207.134 141.490,207.294 141.448 C 207.453 141.406,207.283 141.374,206.917 141.375 C 206.550 141.377,206.420 141.411,206.627 141.451 M150.167 144.219 C 150.167 144.248,150.410 144.491,150.708 144.760 L 151.250 145.250 150.760 144.708 C 150.304 144.203,150.167 144.090,150.167 144.219 M283.129 144.456 C 283.521 144.491,284.121 144.490,284.463 144.454 C 284.804 144.419,284.483 144.390,283.750 144.390 C 283.017 144.391,282.737 144.420,283.129 144.456 M278.542 144.619 C 278.794 144.658,279.206 144.658,279.458 144.619 C 279.710 144.581,279.504 144.550,279.000 144.550 C 278.496 144.550,278.290 144.581,278.542 144.619 M275.960 144.785 C 276.168 144.824,276.468 144.823,276.627 144.781 C 276.786 144.739,276.617 144.707,276.250 144.709 C 275.883 144.711,275.753 144.745,275.960 144.785 M351.539 149.167 C 351.539 149.487,351.573 149.619,351.615 149.458 C 351.657 149.298,351.657 149.035,351.615 148.875 C 351.573 148.715,351.539 148.846,351.539 149.167 M202.963 149.622 C 203.355 149.657,203.955 149.657,204.296 149.621 C 204.637 149.585,204.317 149.557,203.583 149.557 C 202.850 149.558,202.571 149.587,202.963 149.622 M292.125 152.784 C 292.331 152.824,292.669 152.824,292.875 152.784 C 293.081 152.745,292.912 152.712,292.500 152.712 C 292.087 152.712,291.919 152.745,292.125 152.784 M281.125 152.954 C 281.423 152.991,281.910 152.991,282.208 152.954 C 282.506 152.917,282.262 152.887,281.667 152.887 C 281.071 152.887,280.827 152.917,281.125 152.954 M277.958 153.118 C 278.165 153.157,278.502 153.157,278.708 153.118 C 278.915 153.078,278.746 153.045,278.333 153.045 C 277.921 153.045,277.752 153.078,277.958 153.118 M165.621 153.287 C 165.917 153.324,166.442 153.324,166.788 153.288 C 167.134 153.252,166.892 153.222,166.250 153.221 C 165.608 153.221,165.325 153.250,165.621 153.287 M275.375 153.282 C 275.535 153.323,275.798 153.323,275.958 153.282 C 276.119 153.240,275.987 153.205,275.667 153.205 C 275.346 153.205,275.215 153.240,275.375 153.282 M351.539 154.000 C 351.539 154.321,351.573 154.452,351.615 154.292 C 351.657 154.131,351.657 153.869,351.615 153.708 C 351.573 153.548,351.539 153.679,351.539 154.000 M148.167 154.052 C 148.167 154.081,148.410 154.325,148.708 154.594 L 149.250 155.083 148.760 154.542 C 148.304 154.037,148.167 153.923,148.167 154.052 M235.875 161.119 C 236.127 161.158,236.540 161.158,236.792 161.119 C 237.044 161.081,236.838 161.050,236.333 161.050 C 235.829 161.050,235.623 161.081,235.875 161.119 M341.740 174.708 L 341.250 175.250 341.792 174.760 C 342.297 174.304,342.410 174.167,342.281 174.167 C 342.252 174.167,342.009 174.410,341.740 174.708 M215.127 209.951 C 215.334 209.991,215.634 209.990,215.794 209.948 C 215.953 209.906,215.783 209.874,215.417 209.875 C 215.050 209.877,214.920 209.911,215.127 209.951 M175.042 210.115 C 175.202 210.157,175.465 210.157,175.625 210.115 C 175.785 210.073,175.654 210.039,175.333 210.039 C 175.012 210.039,174.881 210.073,175.042 210.115 M212.458 210.118 C 212.665 210.157,213.002 210.157,213.208 210.118 C 213.415 210.078,213.246 210.045,212.833 210.045 C 212.421 210.045,212.252 210.078,212.458 210.118 M209.792 210.284 C 209.998 210.324,210.335 210.324,210.542 210.284 C 210.748 210.245,210.579 210.212,210.167 210.212 C 209.754 210.212,209.585 210.245,209.792 210.284 M179.544 210.453 C 179.797 210.491,180.172 210.490,180.377 210.451 C 180.582 210.411,180.375 210.380,179.917 210.381 C 179.458 210.382,179.291 210.415,179.544 210.453 M206.794 210.451 C 207.001 210.491,207.301 210.490,207.460 210.448 C 207.620 210.406,207.450 210.374,207.083 210.375 C 206.717 210.377,206.586 210.411,206.794 210.451 M182.960 210.618 C 183.168 210.658,183.468 210.656,183.627 210.615 C 183.786 210.573,183.617 210.540,183.250 210.542 C 182.883 210.544,182.753 210.578,182.960 210.618 M203.044 210.620 C 203.297 210.658,203.672 210.657,203.877 210.617 C 204.082 210.578,203.875 210.546,203.417 210.548 C 202.958 210.549,202.791 210.581,203.044 210.620 M187.542 210.786 C 187.794 210.824,188.206 210.824,188.458 210.786 C 188.710 210.748,188.504 210.717,188.000 210.717 C 187.496 210.717,187.290 210.748,187.542 210.786 M197.128 210.787 C 197.428 210.825,197.878 210.824,198.128 210.786 C 198.378 210.748,198.133 210.717,197.583 210.718 C 197.033 210.719,196.828 210.750,197.128 210.787 M223.208 217.615 C 223.369 217.657,223.631 217.657,223.792 217.615 C 223.952 217.573,223.821 217.539,223.500 217.539 C 223.179 217.539,223.048 217.573,223.208 217.615 M220.875 217.782 C 221.035 217.823,221.298 217.823,221.458 217.782 C 221.619 217.740,221.487 217.705,221.167 217.705 C 220.846 217.705,220.715 217.740,220.875 217.782 " stroke="none" fill-rule="evenodd"></path></g>
</svg>