<svg viewBox="0 0 2816 1536" xmlns="http://www.w3.org/2000/svg">
<g fill="#4FD1C5"><path id="path0" d="M224.539 0.428 C 215.984 1.730,209.470 4.474,201.614 10.083 C 197.502 13.020,192.196 18.505,187.668 24.500 C 182.876 30.843,182.062 31.800,179.233 34.417 C 177.043 36.442,169.890 42.902,168.181 44.398 C 159.604 51.908,149.462 62.713,142.417 71.848 C 132.842 84.262,127.755 87.959,115.385 91.493 C 104.329 94.651,95.510 98.972,87.675 105.070 C 84.072 107.874,78.843 112.888,73.321 118.833 C 72.172 120.071,70.223 122.169,68.991 123.496 C 67.758 124.822,65.690 126.997,64.394 128.329 C 63.098 129.661,61.448 131.380,60.727 132.150 C 58.604 134.419,51.527 141.152,49.477 142.855 C 46.430 145.386,45.983 145.735,44.667 146.617 C 41.633 148.648,39.762 149.148,36.383 148.830 C 29.203 148.156,26.467 148.535,22.963 150.689 C 17.466 154.069,15.275 158.842,14.675 168.750 C 14.211 176.405,12.840 181.167,9.445 186.917 C 9.174 187.375,8.391 188.725,7.705 189.917 C 7.018 191.108,5.930 192.946,5.286 194.000 C 1.055 200.929,0.500 202.113,0.155 204.964 C -0.677 211.826,5.659 217.228,12.700 215.659 C 15.162 215.111,16.220 214.455,20.610 210.750 C 21.697 209.833,23.110 208.658,23.751 208.137 C 25.369 206.824,29.758 203.066,31.892 201.167 C 32.870 200.296,35.865 197.333,38.548 194.583 C 43.672 189.331,44.607 188.352,49.787 182.814 C 58.630 173.361,62.902 170.021,73.417 164.337 C 74.150 163.940,75.162 163.375,75.667 163.081 C 77.429 162.052,89.537 155.131,95.917 151.507 C 98.193 150.213,100.578 148.832,102.667 147.597 C 105.339 146.016,109.291 143.695,110.500 142.995 C 111.096 142.650,112.521 141.813,113.667 141.134 C 114.813 140.455,116.425 139.506,117.250 139.024 C 118.075 138.542,119.226 137.852,119.808 137.490 C 120.391 137.129,120.904 136.833,120.949 136.833 C 120.995 136.833,121.237 136.687,121.488 136.509 C 121.739 136.330,122.613 135.793,123.430 135.316 C 130.001 131.478,132.809 130.412,140.929 128.671 C 144.857 127.829,148.043 126.857,151.750 125.371 C 152.208 125.187,153.371 124.628,154.333 124.129 C 156.014 123.257,157.134 122.581,162.833 118.998 C 166.020 116.995,167.515 116.154,170.083 114.922 C 172.610 113.710,177.113 111.667,177.257 111.667 C 177.317 111.667,177.603 111.558,177.891 111.426 C 178.180 111.293,180.029 110.498,182.000 109.658 C 193.981 104.552,202.209 100.137,213.119 92.960 C 217.499 90.079,217.356 90.131,217.671 91.287 C 218.378 93.890,219.808 97.172,221.316 99.654 C 222.299 101.273,222.389 100.925,220.417 103.114 C 216.951 106.962,215.371 109.237,213.498 113.084 C 212.355 115.430,211.490 117.827,209.899 123.059 C 209.368 124.805,208.903 125.427,207.946 125.672 C 198.025 128.218,191.150 133.504,187.166 141.648 C 184.534 147.031,183.579 151.484,183.180 160.250 C 182.916 166.053,181.640 167.602,176.944 167.824 C 174.606 167.934,174.834 168.084,174.832 166.431 C 174.822 157.168,172.595 153.131,165.866 150.181 C 162.506 148.707,155.566 146.689,150.671 145.761 C 149.895 145.613,148.995 145.424,148.671 145.339 C 144.788 144.321,132.903 143.776,128.417 144.410 C 112.498 146.660,100.873 156.945,97.515 171.750 C 92.949 191.881,104.419 211.252,123.754 216.065 C 134.839 218.824,145.597 216.577,156.333 209.260 C 162.483 205.069,164.798 204.192,170.083 204.051 C 176.139 203.889,179.961 205.107,187.167 209.495 C 195.343 214.474,202.034 216.415,213.083 217.015 C 217.175 217.237,236.288 217.125,242.083 216.845 C 243.917 216.756,246.392 216.639,247.583 216.584 C 251.967 216.383,255.654 216.159,258.417 215.925 C 259.975 215.793,261.850 215.642,262.583 215.588 C 263.317 215.535,266.354 215.308,269.333 215.084 C 281.086 214.201,283.516 214.192,288.506 215.009 C 297.310 216.451,309.481 216.477,322.417 215.082 C 324.433 214.865,326.608 214.640,327.250 214.582 C 329.292 214.399,334.832 213.667,337.333 213.250 C 348.397 211.406,350.936 211.518,356.083 214.076 C 363.177 217.602,367.157 218.155,385.515 218.163 C 395.818 218.168,397.407 217.618,399.437 213.341 L 400.028 212.095 399.963 209.506 C 399.910 207.373,399.841 206.798,399.574 206.245 C 398.502 204.022,397.038 202.616,394.590 201.457 C 393.769 201.068,391.257 199.838,389.007 198.724 C 386.757 197.610,384.894 196.761,384.865 196.837 C 384.515 197.779,387.751 200.921,389.867 201.692 C 391.080 202.135,391.082 202.359,389.875 202.820 C 388.433 203.371,385.993 205.139,386.345 205.377 C 386.384 205.404,387.692 206.039,389.250 206.788 C 393.126 208.652,393.650 209.225,392.598 210.449 L 392.196 210.917 383.973 210.968 C 368.400 211.064,365.388 210.644,359.083 207.491 C 352.677 204.288,350.778 204.162,336.667 206.009 C 333.871 206.374,331.096 206.749,330.500 206.842 C 315.145 209.220,300.218 209.535,288.583 207.728 C 283.838 206.991,279.636 206.998,270.750 207.760 C 264.177 208.324,254.664 208.955,243.333 209.581 C 236.002 209.985,217.801 210.129,212.954 209.820 C 203.809 209.238,198.439 207.692,191.710 203.702 C 182.543 198.266,178.951 197.022,171.988 196.872 C 164.261 196.705,160.539 197.865,153.167 202.735 C 142.084 210.057,133.154 211.763,123.382 208.425 C 111.377 204.324,103.745 193.418,103.782 180.417 C 103.825 165.047,113.934 153.770,129.708 151.491 C 131.304 151.260,138.494 151.264,140.500 151.496 C 151.526 152.772,163.432 156.066,165.956 158.539 C 167.204 159.763,167.553 161.842,167.572 168.167 C 167.589 174.337,168.135 174.925,174.027 175.124 C 184.465 175.477,189.833 171.050,190.343 161.667 C 190.825 152.791,191.522 149.296,193.677 144.947 C 196.848 138.549,202.227 134.412,209.503 132.777 C 213.327 131.917,215.466 129.555,216.997 124.500 C 219.559 116.046,221.508 112.449,226.373 107.196 C 230.028 103.250,230.378 100.276,227.676 96.149 C 225.983 93.563,224.515 89.734,223.753 85.917 C 223.703 85.668,223.927 85.406,224.635 84.883 C 228.109 82.319,236.669 75.518,237.888 74.352 C 239.735 72.587,239.799 70.378,238.048 68.837 C 236.075 67.100,234.982 67.404,230.833 70.842 C 229.596 71.868,227.946 73.202,227.167 73.807 C 226.387 74.412,225.713 74.947,225.667 74.995 C 225.550 75.119,223.982 76.310,219.833 79.425 C 212.844 84.675,205.449 89.561,199.083 93.136 C 191.187 97.571,186.599 99.826,178.500 103.252 C 176.402 104.139,173.338 105.471,171.333 106.366 C 170.737 106.632,169.875 107.009,169.417 107.204 C 166.212 108.564,161.445 111.243,155.333 115.119 C 149.425 118.865,145.987 120.202,137.833 121.923 C 134.669 122.591,130.866 123.733,128.040 124.862 C 124.566 126.250,122.523 127.374,113.333 132.956 C 111.018 134.362,107.846 136.219,105.577 137.496 C 104.657 138.014,103.682 138.593,103.411 138.782 C 102.994 139.074,93.844 144.342,91.500 145.641 C 91.087 145.869,89.925 146.544,88.917 147.141 C 87.908 147.737,86.333 148.651,85.417 149.171 C 84.500 149.691,82.737 150.702,81.500 151.418 C 79.250 152.720,77.822 153.528,72.667 156.420 C 69.910 157.966,66.122 160.115,64.250 161.196 C 57.053 165.350,52.393 169.465,40.220 182.417 C 33.578 189.484,29.096 193.966,25.794 196.843 C 24.303 198.142,22.512 199.702,21.814 200.311 C 21.116 200.919,20.029 201.844,19.398 202.367 C 18.766 202.890,17.050 204.333,15.583 205.575 C 11.841 208.743,10.434 209.310,8.714 208.341 C 6.924 207.332,6.916 205.594,8.688 202.580 C 9.387 201.390,10.616 199.292,11.420 197.917 C 12.223 196.542,13.201 194.892,13.592 194.250 C 19.028 185.346,21.200 179.158,21.666 171.250 C 22.428 158.335,25.214 154.909,34.215 155.823 C 43.444 156.760,46.763 155.216,58.242 144.648 C 60.970 142.137,69.196 133.922,71.250 131.657 C 91.397 109.446,98.519 104.200,115.583 98.996 C 124.706 96.215,127.390 95.143,131.649 92.583 C 136.293 89.793,142.013 84.301,146.667 78.167 C 147.261 77.384,149.473 74.639,152.161 71.348 C 155.869 66.811,161.856 60.422,166.935 55.585 C 173.346 49.478,175.305 47.687,182.076 41.738 C 183.527 40.463,187.117 36.944,187.930 36.000 C 188.908 34.863,191.795 31.198,192.344 30.397 C 192.837 29.677,194.287 27.838,196.907 24.611 C 207.029 12.144,222.424 5.423,235.712 7.672 C 250.315 10.142,264.126 26.516,269.752 48.029 C 278.055 79.775,275.613 120.723,263.557 151.917 C 262.341 155.063,262.097 155.666,260.864 158.583 C 259.422 161.995,256.320 168.296,254.381 171.750 C 253.272 173.726,249.904 179.449,249.734 179.646 C 249.671 179.719,246.003 179.065,235.417 177.095 C 233.675 176.771,231.162 176.311,229.833 176.072 C 228.504 175.833,226.629 175.491,225.667 175.311 C 219.843 174.223,219.396 174.155,218.753 174.262 C 215.220 174.848,214.642 179.899,217.974 181.074 C 218.646 181.311,221.616 181.900,230.250 183.507 C 235.306 184.448,235.959 184.568,241.167 185.517 C 273.568 191.424,274.146 191.514,279.667 191.523 C 282.869 191.529,284.974 191.380,288.250 190.919 C 293.756 190.142,301.758 190.038,308.250 190.659 C 313.178 191.130,322.254 192.324,329.167 193.412 C 343.499 195.666,344.758 195.822,349.667 195.948 C 352.920 196.032,353.596 195.998,357.000 195.576 C 364.599 194.634,365.203 194.760,373.945 199.114 L 378.807 201.535 379.653 201.075 C 381.214 200.225,384.196 196.507,383.642 196.102 C 382.755 195.454,372.412 190.293,370.463 189.526 C 367.482 188.352,366.444 188.140,363.232 188.044 C 360.450 187.961,359.520 188.023,354.753 188.609 C 350.865 189.087,345.787 188.769,338.333 187.581 C 326.728 185.732,324.063 185.318,322.750 185.162 C 321.925 185.064,320.575 184.878,319.750 184.748 C 318.077 184.485,313.838 183.963,310.167 183.567 C 304.056 182.908,293.602 183.069,286.093 183.938 C 282.124 184.397,276.382 184.430,273.750 184.008 C 273.108 183.905,271.646 183.672,270.500 183.489 C 268.254 183.130,265.222 182.587,261.250 181.833 C 259.875 181.572,258.469 181.312,258.125 181.255 C 257.332 181.124,257.301 181.256,258.654 179.004 C 259.288 177.948,260.191 176.408,260.659 175.583 C 261.804 173.566,266.139 164.789,266.915 162.917 C 267.256 162.092,267.741 160.967,267.992 160.417 C 268.242 159.867,268.679 158.817,268.963 158.083 C 269.247 157.350,269.740 156.075,270.059 155.250 C 270.378 154.425,271.063 152.512,271.581 151.000 C 272.099 149.487,272.625 147.981,272.749 147.651 C 273.321 146.143,275.607 138.145,276.246 135.417 C 276.461 134.500,276.863 132.850,277.140 131.750 C 280.091 120.029,282.153 100.950,281.886 87.833 C 281.512 69.458,278.794 50.723,274.994 40.333 C 274.642 39.371,274.047 37.732,273.670 36.691 C 268.705 22.951,258.004 9.694,247.323 4.048 C 240.759 0.580,232.335 -0.759,224.539 0.428 " stroke="none" fill-rule="evenodd"></path><path id="path1" d="M0.021 102.208 C 0.032 158.423,0.099 204.042,0.170 203.583 C 0.290 202.810,1.097 200.713,1.578 199.925 C 1.959 199.302,7.100 190.618,8.342 188.500 C 11.321 183.421,13.165 178.986,13.832 175.295 C 14.151 173.530,14.326 171.718,14.666 166.667 C 15.206 158.657,17.860 153.531,23.071 150.433 C 26.419 148.443,29.407 147.994,35.396 148.580 C 42.108 149.238,44.605 147.700,58.020 134.644 C 59.422 133.279,66.373 126.061,68.516 123.745 C 77.745 113.768,79.971 111.520,85.257 106.833 C 86.857 105.415,89.298 103.567,91.454 102.140 C 92.534 101.426,93.567 100.741,93.750 100.618 C 94.612 100.038,97.814 98.167,97.944 98.167 C 98.024 98.167,98.350 97.995,98.670 97.785 C 98.989 97.575,99.888 97.117,100.667 96.767 C 101.446 96.416,102.421 95.977,102.833 95.790 C 103.664 95.413,104.008 95.276,107.500 93.927 C 109.900 93.000,112.901 92.015,116.417 91.000 C 123.380 88.992,127.239 87.056,131.833 83.267 C 133.525 81.872,136.601 78.781,137.837 77.234 C 137.976 77.059,138.839 76.020,139.753 74.924 C 140.668 73.828,141.942 72.243,142.583 71.401 C 144.883 68.384,147.821 64.812,149.986 62.398 C 150.406 61.930,151.237 60.994,151.833 60.317 C 154.595 57.182,160.201 51.545,164.708 47.371 C 166.335 45.864,167.667 44.570,167.667 44.495 C 167.667 44.419,167.771 44.334,167.898 44.304 C 168.025 44.274,168.790 43.650,169.599 42.917 C 170.407 42.183,171.935 40.796,172.993 39.833 C 174.052 38.871,175.591 37.483,176.415 36.750 C 179.010 34.439,182.174 31.351,182.813 30.505 C 183.053 30.188,183.362 29.799,183.500 29.642 C 183.858 29.234,183.986 29.068,185.090 27.583 C 185.635 26.850,186.138 26.208,186.206 26.158 C 186.275 26.107,186.688 25.573,187.124 24.972 C 188.418 23.188,189.356 21.955,189.903 21.320 C 190.185 20.992,190.717 20.361,191.083 19.916 C 193.966 16.424,199.167 11.501,201.914 9.667 C 202.120 9.529,202.767 9.079,203.352 8.667 C 203.938 8.255,204.540 7.842,204.690 7.750 C 207.698 5.912,207.858 5.819,209.500 4.969 C 213.703 2.794,220.426 0.703,224.895 0.182 C 225.549 0.106,175.215 0.034,113.042 0.022 L 0.000 0.000 0.021 102.208 M236.083 0.250 C 242.169 1.120,247.689 3.500,253.090 7.582 C 253.453 7.857,253.787 8.119,253.833 8.166 C 253.879 8.212,254.329 8.586,254.833 8.996 C 257.956 11.538,261.460 15.293,264.169 19.002 C 264.672 19.690,265.251 20.477,265.457 20.752 C 266.110 21.624,267.762 24.166,268.325 25.167 C 268.454 25.396,268.835 26.071,269.171 26.667 C 272.327 32.259,274.704 38.205,277.066 46.417 C 278.257 50.558,280.057 60.891,280.666 67.083 C 280.765 68.092,280.951 69.779,281.079 70.833 C 281.207 71.887,281.395 74.175,281.496 75.917 C 281.598 77.658,281.758 79.946,281.853 81.000 C 282.074 83.472,282.171 93.917,282.001 96.833 C 280.650 119.936,277.179 136.933,269.918 156.000 C 269.586 156.871,269.176 157.958,269.006 158.417 C 267.809 161.639,263.403 170.994,261.508 174.333 C 261.170 174.929,260.809 175.567,260.707 175.750 C 259.755 177.454,258.060 180.309,257.861 180.543 C 257.528 180.936,257.462 180.909,259.917 181.394 C 270.919 183.566,274.573 184.069,279.417 184.077 C 282.714 184.083,284.621 183.953,289.167 183.411 C 296.606 182.525,308.735 182.907,318.000 184.319 C 319.146 184.494,320.796 184.725,321.667 184.832 C 323.488 185.055,328.894 185.871,331.583 186.328 C 345.313 188.662,350.639 189.046,357.083 188.169 C 365.075 187.080,367.373 187.598,377.667 192.808 C 384.134 196.081,391.216 199.627,394.333 201.151 C 397.219 202.563,398.810 204.055,399.769 206.250 C 399.949 206.663,399.988 188.754,399.993 103.375 L 400.000 0.000 317.292 0.018 C 249.146 0.032,234.847 0.073,236.083 0.250 M227.284 7.526 C 222.174 7.942,213.968 10.649,210.643 13.017 C 210.399 13.191,210.156 13.333,210.104 13.333 C 209.669 13.333,205.460 16.468,205.597 16.689 C 205.649 16.773,205.630 16.831,205.554 16.818 C 205.070 16.734,204.197 17.443,201.290 20.280 C 198.106 23.389,194.416 27.681,192.219 30.833 C 190.661 33.069,188.065 36.112,185.573 38.624 C 184.096 40.113,182.913 41.369,182.944 41.416 C 182.975 41.462,182.952 41.464,182.893 41.420 C 182.787 41.342,182.227 41.786,180.917 42.989 C 180.550 43.326,179.612 44.159,178.833 44.840 C 176.285 47.070,176.344 47.017,173.849 49.310 C 164.318 58.066,155.382 67.336,151.083 72.925 C 150.385 73.833,147.024 78.035,145.623 79.750 C 145.174 80.300,144.385 81.275,143.870 81.917 C 142.450 83.686,136.900 89.158,135.618 90.052 C 134.995 90.486,134.523 90.902,134.569 90.976 C 134.615 91.051,134.555 91.111,134.436 91.111 C 134.316 91.111,133.551 91.552,132.735 92.092 C 130.174 93.783,124.577 96.514,122.692 96.994 C 122.357 97.079,120.846 97.529,119.333 97.993 C 117.821 98.458,115.833 99.067,114.917 99.347 C 114.000 99.627,112.688 100.071,112.000 100.332 C 111.313 100.594,110.037 101.073,109.167 101.396 C 100.740 104.525,93.359 109.203,86.917 115.499 C 83.352 118.982,76.409 126.196,74.403 128.500 C 74.044 128.912,73.635 129.362,73.495 129.500 C 73.354 129.637,72.686 130.350,72.010 131.083 C 65.459 138.190,53.664 149.351,50.081 151.833 C 44.521 155.686,40.977 156.771,35.917 156.168 C 25.769 154.959,22.714 157.830,21.996 169.250 C 21.578 175.892,21.274 177.686,19.878 181.750 C 18.975 184.379,16.963 188.725,15.309 191.619 C 14.358 193.283,12.290 196.794,11.746 197.667 C 11.398 198.224,11.009 198.893,10.293 200.167 C 10.113 200.487,9.434 201.647,8.785 202.743 C 7.043 205.684,7.105 207.299,9.000 208.297 C 10.792 209.242,11.588 208.776,19.002 202.441 C 19.232 202.244,19.832 201.747,20.335 201.336 C 20.838 200.924,21.287 200.547,21.333 200.497 C 21.379 200.447,22.804 199.210,24.500 197.748 C 27.979 194.750,35.120 187.690,40.091 182.334 C 53.269 168.138,56.611 165.327,67.917 158.925 C 69.658 157.939,71.571 156.848,72.167 156.501 C 72.762 156.154,74.600 155.124,76.250 154.212 C 78.995 152.695,81.909 151.025,91.135 145.683 C 94.540 143.711,97.433 142.054,98.583 141.416 C 98.950 141.213,100.300 140.424,101.583 139.662 C 103.673 138.422,105.115 137.586,106.465 136.831 C 107.104 136.474,109.983 134.771,111.722 133.721 C 112.531 133.233,113.230 132.833,113.275 132.833 C 113.320 132.833,113.670 132.620,114.053 132.360 C 115.138 131.622,119.523 129.003,121.889 127.680 C 126.916 124.868,131.061 123.271,136.381 122.097 C 142.744 120.693,145.281 119.979,148.515 118.684 C 150.511 117.884,151.585 117.284,156.000 114.501 C 163.692 109.652,166.575 108.157,175.783 104.242 C 187.361 99.320,191.192 97.449,200.135 92.350 C 206.568 88.682,214.448 83.367,221.667 77.827 C 222.996 76.807,224.758 75.459,225.583 74.831 C 226.408 74.203,227.656 73.216,228.355 72.636 C 229.054 72.057,230.277 71.058,231.073 70.417 C 231.868 69.775,232.721 69.074,232.968 68.859 C 236.074 66.150,240.304 68.660,239.307 72.620 C 239.049 73.644,238.254 74.418,233.917 77.872 C 231.992 79.405,229.892 81.077,229.250 81.588 C 228.608 82.099,227.657 82.832,227.135 83.217 C 223.506 85.895,223.719 85.494,224.485 88.225 C 225.344 91.281,226.381 93.706,227.807 95.991 C 230.636 100.523,230.298 103.295,226.413 107.417 C 221.998 112.101,219.859 115.940,217.591 123.250 C 215.433 130.205,213.936 131.870,208.673 133.172 C 203.597 134.427,198.309 137.870,195.899 141.488 C 192.355 146.808,191.120 150.984,190.668 159.167 C 190.348 164.966,190.270 165.496,189.459 167.405 C 187.185 172.764,182.647 175.239,175.083 175.247 C 170.928 175.251,169.660 174.985,168.443 173.856 C 167.443 172.927,167.424 172.821,167.406 168.000 C 167.373 159.043,166.953 158.271,160.972 156.186 C 145.030 150.628,129.700 149.958,120.089 154.398 C 99.879 163.736,98.232 192.978,117.217 205.397 C 122.617 208.929,132.398 210.784,138.167 209.369 C 138.946 209.177,139.953 208.932,140.406 208.824 C 143.785 208.013,150.022 204.885,153.750 202.129 C 154.208 201.791,154.846 201.380,155.167 201.217 C 155.487 201.053,155.862 200.835,156.000 200.731 C 156.936 200.027,159.419 198.829,161.417 198.118 C 169.076 195.392,178.411 196.272,186.391 200.473 C 188.126 201.386,188.885 201.822,192.729 204.113 C 197.819 207.147,202.758 208.646,210.250 209.431 C 212.921 209.711,235.511 209.841,239.333 209.599 C 240.112 209.549,241.800 209.466,243.083 209.413 C 244.367 209.361,246.992 209.211,248.917 209.081 C 250.842 208.951,253.317 208.803,254.417 208.753 C 256.462 208.659,257.040 208.621,260.667 208.336 C 261.813 208.246,264.925 208.020,267.583 207.833 C 270.242 207.646,273.579 207.382,275.000 207.247 C 277.825 206.978,283.782 206.926,285.500 207.156 C 286.096 207.235,287.408 207.417,288.417 207.559 C 295.919 208.618,301.476 208.926,308.497 208.670 C 313.980 208.471,322.762 207.773,325.333 207.333 C 325.837 207.247,327.262 207.058,328.500 206.914 C 329.737 206.770,332.100 206.469,333.750 206.245 C 335.400 206.021,338.137 205.651,339.833 205.422 C 349.193 204.158,353.430 204.425,357.583 206.541 C 358.317 206.915,359.681 207.609,360.616 208.084 C 365.001 210.313,367.765 210.652,382.027 210.709 L 392.137 210.750 392.485 210.349 C 393.427 209.266,392.916 208.773,388.686 206.681 C 386.704 205.702,381.550 203.126,377.231 200.957 C 365.384 195.009,364.585 194.762,359.500 195.472 C 355.222 196.070,352.789 196.222,349.167 196.116 C 346.248 196.030,341.138 195.605,340.843 195.423 C 340.792 195.391,339.887 195.243,338.833 195.094 C 337.779 194.945,335.792 194.640,334.417 194.415 C 322.459 192.461,310.382 190.901,304.161 190.505 C 300.090 190.246,293.844 190.452,289.333 190.993 C 288.554 191.086,286.829 191.292,285.500 191.451 C 280.616 192.035,274.619 191.732,268.333 190.583 C 267.096 190.357,264.546 189.909,262.667 189.586 C 260.787 189.264,258.237 188.815,257.000 188.590 C 255.762 188.364,253.662 187.983,252.333 187.743 C 251.004 187.503,248.567 187.052,246.917 186.740 C 242.465 185.899,239.802 185.412,236.000 184.743 C 234.121 184.412,231.908 184.001,231.083 183.829 C 230.258 183.657,228.046 183.248,226.167 182.920 C 221.426 182.091,218.068 181.379,217.535 181.089 C 215.316 179.883,214.892 177.207,216.597 175.181 C 217.662 173.915,218.827 173.772,222.353 174.477 C 225.984 175.202,230.054 175.964,231.393 176.170 C 232.022 176.266,233.072 176.458,233.726 176.596 C 234.381 176.734,235.367 176.915,235.917 176.999 C 236.467 177.083,237.817 177.332,238.917 177.553 C 240.017 177.773,241.404 178.038,242.000 178.140 C 243.390 178.379,245.436 178.745,247.750 179.169 L 249.583 179.505 249.833 179.145 C 249.971 178.948,250.959 177.278,252.029 175.435 C 253.099 173.591,254.141 171.821,254.345 171.500 C 255.479 169.717,259.239 161.991,261.240 157.333 C 262.406 154.619,263.949 150.475,265.227 146.625 C 268.462 136.881,270.363 129.436,271.750 121.083 C 272.070 119.158,272.450 116.946,272.594 116.167 C 274.907 103.652,274.948 77.552,272.675 63.667 C 272.503 62.612,272.314 61.375,272.255 60.917 C 271.883 58.003,270.703 52.174,269.826 48.917 C 269.653 48.275,269.283 46.887,269.004 45.833 C 268.373 43.450,267.389 40.699,266.081 37.667 C 265.785 36.979,265.268 35.766,264.933 34.972 C 263.476 31.513,258.821 24.014,256.726 21.749 C 256.556 21.565,255.992 20.890,255.473 20.249 C 248.082 11.116,238.168 6.641,227.284 7.526 M213.643 92.798 C 209.268 95.704,209.539 95.526,208.887 95.917 C 208.581 96.100,207.337 96.857,206.123 97.599 C 197.923 102.612,189.773 106.672,179.000 111.113 C 175.290 112.642,173.305 113.543,169.000 115.653 C 166.609 116.825,167.037 116.571,159.096 121.527 C 154.613 124.325,152.492 125.371,148.583 126.712 C 145.086 127.911,144.100 128.178,139.833 129.081 C 137.862 129.498,135.804 129.988,135.259 130.170 C 134.714 130.351,134.169 130.500,134.047 130.500 C 133.475 130.500,127.755 133.007,125.917 134.063 C 124.344 134.967,118.583 138.383,118.000 138.757 C 117.679 138.963,116.592 139.616,115.583 140.208 C 114.575 140.800,112.721 141.896,111.464 142.643 C 110.207 143.389,109.146 144.000,109.107 144.000 C 109.069 144.000,108.035 144.609,106.810 145.354 C 105.585 146.098,104.358 146.813,104.083 146.943 C 103.808 147.072,103.171 147.439,102.667 147.757 C 102.162 148.075,101.075 148.714,100.250 149.177 C 99.425 149.640,98.037 150.435,97.167 150.944 C 91.983 153.971,84.030 158.500,83.898 158.500 C 83.845 158.500,83.569 158.666,83.285 158.868 C 83.000 159.070,82.539 159.359,82.259 159.509 C 81.979 159.659,81.000 160.219,80.083 160.753 C 79.167 161.287,78.042 161.928,77.583 162.178 C 76.613 162.706,71.533 165.552,70.643 166.066 C 70.309 166.259,69.458 166.736,68.751 167.127 C 66.625 168.303,63.155 170.601,61.417 171.984 C 57.226 175.318,53.614 178.831,46.922 186.083 C 41.983 191.435,33.639 199.925,31.750 201.520 C 31.383 201.830,30.407 202.683,29.581 203.416 C 28.188 204.653,26.767 205.853,21.355 210.365 C 20.222 211.310,18.909 212.409,18.439 212.806 C 11.620 218.569,2.122 216.372,0.233 208.594 C 0.057 207.867,0.026 208.471,0.014 212.958 L 0.000 218.167 185.542 218.139 C 287.590 218.123,370.783 218.086,370.417 218.056 C 363.846 217.515,360.254 216.542,355.667 214.061 C 351.396 211.750,346.145 211.646,335.833 213.668 C 334.703 213.889,327.799 214.741,325.083 214.994 C 323.983 215.096,322.108 215.287,320.917 215.418 C 315.223 216.042,311.104 216.250,304.417 216.250 C 297.272 216.250,294.581 216.084,289.583 215.337 C 284.421 214.565,281.225 214.418,276.750 214.747 C 275.192 214.862,273.129 215.005,272.167 215.065 C 270.293 215.181,268.642 215.299,267.167 215.422 C 249.943 216.854,241.219 217.239,224.485 217.308 C 209.253 217.372,204.000 216.811,196.667 214.338 C 194.054 213.456,188.662 210.832,187.417 209.836 C 187.325 209.762,186.987 209.554,186.667 209.374 C 186.346 209.193,185.351 208.615,184.455 208.088 C 175.312 202.714,165.674 202.833,157.833 208.417 C 146.483 216.501,135.809 219.053,124.417 216.407 C 89.185 208.225,86.373 157.738,120.500 146.087 C 131.208 142.432,146.835 143.450,162.861 148.848 C 166.589 150.103,170.290 152.130,171.422 153.536 C 174.023 156.767,175.000 160.333,175.000 166.596 L 175.000 167.712 176.960 167.632 C 181.426 167.448,182.898 165.745,182.983 160.667 C 183.251 144.711,189.009 133.912,200.250 128.288 C 201.944 127.441,205.579 126.000,206.023 126.000 C 207.582 126.000,209.197 124.904,209.585 123.583 C 210.449 120.635,211.064 118.640,211.330 117.917 C 212.596 114.470,213.619 112.229,214.853 110.198 C 215.209 109.612,215.500 109.101,215.500 109.062 C 215.500 109.023,215.994 108.305,216.598 107.468 C 217.690 105.953,218.489 104.997,220.788 102.459 L 221.992 101.129 221.541 100.356 C 221.292 99.931,220.840 99.171,220.536 98.667 C 219.411 96.803,218.360 94.292,217.624 91.708 C 217.205 90.235,217.712 90.096,213.643 92.798 M399.426 213.774 C 398.454 215.634,397.138 216.855,395.227 217.670 L 394.083 218.158 397.042 218.162 L 400.000 218.167 400.000 215.500 C 400.000 214.033,399.981 212.834,399.958 212.834 C 399.935 212.834,399.696 213.257,399.426 213.774 " stroke="none" fill-rule="evenodd"></path><path id="path2" d="M197.240 13.542 L 196.750 14.083 197.292 13.594 C 197.797 13.138,197.910 13.000,197.781 13.000 C 197.752 13.000,197.509 13.244,197.240 13.542 M253.833 18.385 C 253.833 18.414,254.077 18.658,254.375 18.927 L 254.917 19.417 254.427 18.875 C 253.971 18.370,253.833 18.257,253.833 18.385 M166.573 45.708 L 166.083 46.250 166.625 45.760 C 166.923 45.491,167.167 45.248,167.167 45.219 C 167.167 45.090,167.029 45.203,166.573 45.708 M149.906 62.542 L 149.417 63.083 149.958 62.594 C 150.256 62.325,150.500 62.081,150.500 62.052 C 150.500 61.923,150.362 62.037,149.906 62.542 M159.824 62.792 L 159.250 63.417 159.875 62.842 C 160.457 62.308,160.577 62.167,160.449 62.167 C 160.422 62.167,160.140 62.448,159.824 62.792 M274.214 79.750 C 274.216 80.208,274.248 80.376,274.286 80.123 C 274.325 79.869,274.324 79.494,274.284 79.289 C 274.244 79.084,274.213 79.292,274.214 79.750 M134.658 80.792 L 134.083 81.417 134.708 80.842 C 135.290 80.308,135.410 80.167,135.283 80.167 C 135.255 80.167,134.974 80.448,134.658 80.792 M274.381 83.750 C 274.382 84.208,274.415 84.376,274.453 84.123 C 274.491 83.869,274.490 83.494,274.451 83.289 C 274.411 83.084,274.380 83.292,274.381 83.750 M281.872 84.333 C 281.872 84.654,281.906 84.785,281.948 84.625 C 281.990 84.465,281.990 84.202,281.948 84.042 C 281.906 83.881,281.872 84.012,281.872 84.333 M274.556 90.000 C 274.556 90.688,274.585 90.969,274.621 90.625 C 274.657 90.281,274.657 89.719,274.621 89.375 C 274.585 89.031,274.556 89.313,274.556 90.000 M281.883 96.333 C 281.883 96.837,281.915 97.044,281.953 96.792 C 281.991 96.540,281.991 96.127,281.953 95.875 C 281.915 95.623,281.883 95.829,281.883 96.333 M274.381 97.083 C 274.382 97.542,274.415 97.709,274.453 97.456 C 274.491 97.203,274.490 96.828,274.451 96.623 C 274.411 96.418,274.380 96.625,274.381 97.083 M274.205 100.667 C 274.205 100.987,274.240 101.119,274.282 100.958 C 274.323 100.798,274.323 100.535,274.282 100.375 C 274.240 100.215,274.205 100.346,274.205 100.667 M87.740 114.542 L 87.250 115.083 87.792 114.594 C 88.090 114.325,88.333 114.081,88.333 114.052 C 88.333 113.923,88.196 114.037,87.740 114.542 M78.073 124.375 L 77.583 124.917 78.125 124.427 C 78.630 123.971,78.743 123.833,78.615 123.833 C 78.586 123.833,78.342 124.077,78.073 124.375 M67.833 135.250 C 67.150 135.938,66.629 136.500,66.675 136.500 C 66.721 136.500,67.317 135.938,68.000 135.250 C 68.683 134.563,69.204 134.000,69.158 134.000 C 69.112 134.000,68.516 134.563,67.833 135.250 M198.406 138.542 L 197.917 139.083 198.458 138.594 C 198.963 138.138,199.077 138.000,198.948 138.000 C 198.919 138.000,198.675 138.244,198.406 138.542 M60.833 142.250 C 60.428 142.662,60.135 143.000,60.181 143.000 C 60.226 143.000,60.595 142.662,61.000 142.250 C 61.405 141.837,61.699 141.500,61.653 141.500 C 61.607 141.500,61.238 141.837,60.833 142.250 M131.542 151.448 C 131.702 151.490,131.965 151.490,132.125 151.448 C 132.285 151.406,132.154 151.372,131.833 151.372 C 131.512 151.372,131.381 151.406,131.542 151.448 M19.906 152.875 L 19.417 153.417 19.958 152.927 C 20.463 152.471,20.577 152.333,20.448 152.333 C 20.419 152.333,20.175 152.577,19.906 152.875 M183.045 160.167 C 183.045 160.579,183.078 160.748,183.118 160.542 C 183.157 160.335,183.157 159.998,183.118 159.792 C 183.078 159.585,183.045 159.754,183.045 160.167 M174.883 166.333 C 174.883 166.837,174.915 167.044,174.953 166.792 C 174.991 166.540,174.991 166.127,174.953 165.875 C 174.915 165.623,174.883 165.829,174.883 166.333 M173.797 175.290 C 174.282 175.324,175.032 175.323,175.464 175.289 C 175.896 175.255,175.500 175.227,174.583 175.228 C 173.667 175.228,173.313 175.256,173.797 175.290 M53.578 178.875 L 52.583 179.917 53.625 178.922 C 54.593 177.998,54.743 177.833,54.620 177.833 C 54.594 177.833,54.125 178.302,53.578 178.875 M43.073 179.208 L 42.583 179.750 43.125 179.260 C 43.630 178.804,43.743 178.667,43.615 178.667 C 43.586 178.667,43.342 178.910,43.073 179.208 M50.240 182.375 L 49.750 182.917 50.292 182.427 C 50.797 181.971,50.910 181.833,50.781 181.833 C 50.752 181.833,50.509 182.077,50.240 182.375 M295.211 183.120 C 295.464 183.158,295.839 183.157,296.044 183.117 C 296.249 183.078,296.042 183.046,295.583 183.048 C 295.125 183.049,294.957 183.081,295.211 183.120 M303.628 183.121 C 303.928 183.158,304.378 183.157,304.628 183.119 C 304.878 183.081,304.633 183.051,304.083 183.052 C 303.533 183.053,303.328 183.084,303.628 183.121 M278.544 184.286 C 278.797 184.325,279.172 184.324,279.377 184.284 C 279.582 184.244,279.375 184.213,278.917 184.214 C 278.458 184.216,278.291 184.248,278.544 184.286 M280.708 184.282 C 280.869 184.323,281.131 184.323,281.292 184.282 C 281.452 184.240,281.321 184.205,281.000 184.205 C 280.679 184.205,280.548 184.240,280.708 184.282 M45.409 187.542 L 44.750 188.250 45.458 187.591 C 46.117 186.978,46.243 186.833,46.117 186.833 C 46.090 186.833,45.771 187.152,45.409 187.542 M34.000 188.750 C 33.317 189.438,32.796 190.000,32.842 190.000 C 32.888 190.000,33.484 189.438,34.167 188.750 C 34.850 188.063,35.371 187.500,35.325 187.500 C 35.279 187.500,34.683 188.063,34.000 188.750 M349.958 188.784 C 350.165 188.824,350.502 188.824,350.708 188.784 C 350.915 188.745,350.746 188.712,350.333 188.712 C 349.921 188.712,349.752 188.745,349.958 188.784 M383.639 196.050 C 383.749 196.182,383.792 196.413,383.735 196.562 C 383.612 196.884,383.842 196.918,384.158 196.625 C 384.337 196.458,384.359 196.458,384.265 196.625 C 384.192 196.753,384.247 196.833,384.407 196.833 C 384.847 196.833,384.696 196.550,384.052 196.171 C 383.715 195.971,383.528 195.917,383.639 196.050 M35.824 197.458 L 35.250 198.083 35.875 197.509 C 36.457 196.974,36.577 196.833,36.449 196.833 C 36.422 196.833,36.140 197.115,35.824 197.458 M380.250 202.303 C 381.977 203.220,382.394 203.399,382.249 203.165 C 382.193 203.074,382.052 203.000,381.936 203.000 C 381.820 203.000,381.356 202.737,380.905 202.417 C 380.454 202.096,379.948 201.833,379.782 201.833 C 379.616 201.833,379.527 201.758,379.583 201.667 C 379.643 201.570,379.488 201.501,379.218 201.503 C 378.846 201.506,379.058 201.670,380.250 202.303 M382.833 203.579 C 382.833 203.624,383.283 203.889,383.833 204.167 C 384.383 204.444,384.833 204.634,384.833 204.588 C 384.833 204.542,384.383 204.278,383.833 204.000 C 383.283 203.722,382.833 203.533,382.833 203.579 M279.715 207.124 C 280.338 207.156,281.313 207.156,281.882 207.123 C 282.451 207.091,281.942 207.064,280.750 207.065 C 279.558 207.065,279.093 207.092,279.715 207.124 M309.042 208.782 C 309.202 208.823,309.465 208.823,309.625 208.782 C 309.785 208.740,309.654 208.705,309.333 208.705 C 309.012 208.705,308.881 208.740,309.042 208.782 M213.294 209.785 C 213.501 209.824,213.801 209.823,213.960 209.781 C 214.120 209.739,213.950 209.707,213.583 209.709 C 213.217 209.711,213.086 209.745,213.294 209.785 M236.708 209.786 C 236.960 209.824,237.373 209.824,237.625 209.786 C 237.877 209.748,237.671 209.717,237.167 209.717 C 236.662 209.717,236.456 209.748,236.708 209.786 M132.631 209.956 C 133.115 209.990,133.865 209.990,134.297 209.956 C 134.730 209.921,134.333 209.894,133.417 209.894 C 132.500 209.895,132.146 209.923,132.631 209.956 M222.298 209.957 C 222.875 209.990,223.775 209.989,224.298 209.956 C 224.822 209.923,224.350 209.897,223.250 209.897 C 222.150 209.897,221.722 209.924,222.298 209.957 M372.208 210.782 C 372.369 210.823,372.631 210.823,372.792 210.782 C 372.952 210.740,372.821 210.705,372.500 210.705 C 372.179 210.705,372.048 210.740,372.208 210.782 M347.788 212.120 C 348.084 212.157,348.609 212.158,348.955 212.122 C 349.300 212.086,349.058 212.055,348.417 212.055 C 347.775 212.054,347.492 212.083,347.788 212.120 M10.042 216.115 C 10.202 216.157,10.465 216.157,10.625 216.115 C 10.785 216.073,10.654 216.039,10.333 216.039 C 10.012 216.039,9.881 216.073,10.042 216.115 M301.708 216.282 C 301.869 216.323,302.131 216.323,302.292 216.282 C 302.452 216.240,302.321 216.205,302.000 216.205 C 301.679 216.205,301.548 216.240,301.708 216.282 M306.875 216.282 C 307.035 216.323,307.298 216.323,307.458 216.282 C 307.619 216.240,307.487 216.205,307.167 216.205 C 306.846 216.205,306.715 216.240,306.875 216.282 M245.875 216.782 C 246.035 216.823,246.298 216.823,246.458 216.782 C 246.619 216.740,246.487 216.705,246.167 216.705 C 245.846 216.705,245.715 216.740,245.875 216.782 M241.960 216.951 C 242.168 216.991,242.468 216.990,242.627 216.948 C 242.786 216.906,242.617 216.874,242.250 216.875 C 241.883 216.877,241.753 216.911,241.960 216.951 M212.960 217.118 C 213.168 217.158,213.468 217.156,213.627 217.115 C 213.786 217.073,213.617 217.040,213.250 217.042 C 212.883 217.044,212.753 217.078,212.960 217.118 M237.042 217.115 C 237.202 217.157,237.465 217.157,237.625 217.115 C 237.785 217.073,237.654 217.039,237.333 217.039 C 237.012 217.039,236.881 217.073,237.042 217.115 M131.208 217.282 C 131.369 217.323,131.631 217.323,131.792 217.282 C 131.952 217.240,131.821 217.205,131.500 217.205 C 131.179 217.205,131.048 217.240,131.208 217.282 M222.050 217.291 C 222.856 217.321,224.131 217.321,224.883 217.291 C 225.635 217.260,224.975 217.235,223.417 217.235 C 221.858 217.235,221.243 217.260,222.050 217.291 M372.794 218.118 C 373.001 218.158,373.301 218.156,373.460 218.115 C 373.620 218.073,373.450 218.040,373.083 218.042 C 372.717 218.044,372.586 218.078,372.794 218.118 " stroke="none" fill-rule="evenodd"></path><path id="path3" d="M228.127 7.451 C 228.334 7.491,228.634 7.490,228.794 7.448 C 228.953 7.406,228.783 7.374,228.417 7.375 C 228.050 7.377,227.920 7.411,228.127 7.451 M231.958 7.451 C 232.165 7.491,232.502 7.491,232.708 7.451 C 232.915 7.411,232.746 7.379,232.333 7.379 C 231.921 7.379,231.752 7.411,231.958 7.451 M195.000 15.583 C 194.595 15.996,194.301 16.333,194.347 16.333 C 194.393 16.333,194.762 15.996,195.167 15.583 C 195.572 15.171,195.865 14.833,195.819 14.833 C 195.774 14.833,195.405 15.171,195.000 15.583 M261.167 15.277 C 261.167 15.367,261.373 15.624,261.625 15.846 L 262.083 16.250 261.667 15.750 C 261.438 15.475,261.231 15.219,261.208 15.181 C 261.185 15.142,261.167 15.186,261.167 15.277 M205.526 16.389 C 205.246 16.687,205.220 16.778,205.414 16.778 C 205.553 16.778,205.629 16.740,205.583 16.694 C 205.537 16.648,205.624 16.473,205.775 16.305 C 206.181 15.857,205.955 15.933,205.526 16.389 M201.833 19.583 C 201.428 19.996,201.135 20.333,201.181 20.333 C 201.226 20.333,201.595 19.996,202.000 19.583 C 202.405 19.171,202.699 18.833,202.653 18.833 C 202.607 18.833,202.238 19.171,201.833 19.583 M197.406 24.208 L 196.917 24.750 197.458 24.260 C 197.963 23.804,198.077 23.667,197.948 23.667 C 197.919 23.667,197.675 23.910,197.406 24.208 M179.578 33.875 L 178.583 34.917 179.625 33.922 C 180.198 33.375,180.667 32.906,180.667 32.880 C 180.667 32.757,180.502 32.907,179.578 33.875 M177.240 36.042 L 176.750 36.583 177.292 36.094 C 177.797 35.638,177.910 35.500,177.781 35.500 C 177.752 35.500,177.509 35.744,177.240 36.042 M185.833 38.250 C 185.428 38.662,185.135 39.000,185.181 39.000 C 185.226 39.000,185.595 38.662,186.000 38.250 C 186.405 37.837,186.699 37.500,186.653 37.500 C 186.607 37.500,186.238 37.837,185.833 38.250 M174.324 38.625 L 173.750 39.250 174.375 38.676 C 174.957 38.141,175.077 38.000,174.949 38.000 C 174.922 38.000,174.640 38.281,174.324 38.625 M167.430 44.797 L 167.110 45.250 167.555 44.846 C 168.023 44.421,168.080 44.330,167.875 44.339 C 167.806 44.341,167.606 44.548,167.430 44.797 M174.573 48.542 L 174.083 49.083 174.625 48.594 C 175.130 48.138,175.243 48.000,175.115 48.000 C 175.086 48.000,174.842 48.244,174.573 48.542 M162.500 49.417 C 161.817 50.104,161.296 50.667,161.342 50.667 C 161.388 50.667,161.984 50.104,162.667 49.417 C 163.350 48.729,163.871 48.167,163.825 48.167 C 163.779 48.167,163.183 48.729,162.500 49.417 M169.742 53.042 L 169.083 53.750 169.792 53.091 C 170.181 52.729,170.500 52.410,170.500 52.383 C 170.500 52.257,170.355 52.383,169.742 53.042 M158.000 53.750 C 157.595 54.163,157.301 54.500,157.347 54.500 C 157.393 54.500,157.762 54.163,158.167 53.750 C 158.572 53.337,158.865 53.000,158.819 53.000 C 158.774 53.000,158.405 53.337,158.000 53.750 M165.497 57.125 L 163.583 59.083 165.542 57.169 C 167.361 55.392,167.576 55.167,167.456 55.167 C 167.431 55.167,166.550 56.048,165.497 57.125 M153.491 58.458 L 152.917 59.083 153.542 58.509 C 154.123 57.974,154.243 57.833,154.116 57.833 C 154.088 57.833,153.807 58.115,153.491 58.458 M152.240 59.875 L 151.750 60.417 152.292 59.927 C 152.590 59.658,152.833 59.414,152.833 59.385 C 152.833 59.257,152.696 59.370,152.240 59.875 M161.579 61.042 L 160.417 62.250 161.625 61.088 C 162.290 60.449,162.833 59.905,162.833 59.879 C 162.833 59.757,162.658 59.919,161.579 61.042 M158.742 64.042 L 158.083 64.750 158.792 64.091 C 159.181 63.729,159.500 63.410,159.500 63.383 C 159.500 63.257,159.355 63.383,158.742 64.042 M156.573 66.375 L 156.083 66.917 156.625 66.427 C 156.923 66.158,157.167 65.914,157.167 65.885 C 157.167 65.757,157.029 65.870,156.573 66.375 M273.539 71.000 C 273.539 71.321,273.573 71.452,273.615 71.292 C 273.657 71.131,273.657 70.869,273.615 70.708 C 273.573 70.548,273.539 70.679,273.539 71.000 M281.205 72.833 C 281.205 73.154,281.240 73.285,281.282 73.125 C 281.323 72.965,281.323 72.702,281.282 72.542 C 281.240 72.381,281.205 72.512,281.205 72.833 M281.372 74.833 C 281.372 75.154,281.406 75.285,281.448 75.125 C 281.490 74.965,281.490 74.702,281.448 74.542 C 281.406 74.381,281.372 74.512,281.372 74.833 M281.539 77.500 C 281.539 77.821,281.573 77.952,281.615 77.792 C 281.657 77.631,281.657 77.369,281.615 77.208 C 281.573 77.048,281.539 77.179,281.539 77.500 M274.042 77.750 C 274.044 78.117,274.078 78.247,274.118 78.040 C 274.158 77.832,274.156 77.532,274.115 77.373 C 274.073 77.214,274.040 77.383,274.042 77.750 M136.075 79.208 L 135.417 79.917 136.125 79.258 C 136.784 78.645,136.910 78.500,136.784 78.500 C 136.757 78.500,136.438 78.819,136.075 79.208 M281.705 80.667 C 281.705 80.987,281.740 81.119,281.782 80.958 C 281.823 80.798,281.823 80.535,281.782 80.375 C 281.740 80.215,281.705 80.346,281.705 80.667 M274.218 81.417 C 274.219 81.967,274.250 82.172,274.287 81.872 C 274.325 81.572,274.324 81.122,274.286 80.872 C 274.248 80.622,274.217 80.867,274.218 81.417 M228.333 82.192 C 228.012 82.473,227.901 82.627,228.085 82.534 C 228.390 82.380,229.145 81.657,228.984 81.673 C 228.947 81.677,228.654 81.910,228.333 82.192 M132.906 82.375 L 132.417 82.917 132.958 82.427 C 133.256 82.158,133.500 81.914,133.500 81.885 C 133.500 81.757,133.362 81.870,132.906 82.375 M281.883 83.000 C 281.883 83.504,281.915 83.710,281.953 83.458 C 281.991 83.206,281.991 82.794,281.953 82.542 C 281.915 82.290,281.883 82.496,281.883 83.000 M141.573 84.375 L 141.083 84.917 141.625 84.427 C 141.923 84.158,142.167 83.914,142.167 83.885 C 142.167 83.757,142.029 83.870,141.573 84.375 M274.396 86.667 C 274.396 87.721,274.423 88.152,274.456 87.625 C 274.490 87.098,274.490 86.235,274.456 85.708 C 274.423 85.181,274.396 85.612,274.396 86.667 M282.073 90.000 C 282.073 92.521,282.096 93.552,282.125 92.292 C 282.153 91.031,282.153 88.969,282.125 87.708 C 282.096 86.448,282.073 87.479,282.073 90.000 M138.167 87.750 C 137.762 88.162,137.468 88.500,137.514 88.500 C 137.560 88.500,137.928 88.162,138.333 87.750 C 138.738 87.337,139.032 87.000,138.986 87.000 C 138.940 87.000,138.572 87.337,138.167 87.750 M136.750 89.098 L 136.250 89.528 136.792 89.169 C 137.090 88.972,137.333 88.778,137.333 88.739 C 137.333 88.614,137.263 88.657,136.750 89.098 M274.389 95.167 C 274.389 95.854,274.419 96.135,274.455 95.792 C 274.491 95.448,274.491 94.885,274.455 94.542 C 274.419 94.198,274.389 94.479,274.389 95.167 M281.881 97.917 C 281.882 98.375,281.915 98.543,281.953 98.289 C 281.991 98.036,281.990 97.661,281.951 97.456 C 281.911 97.251,281.880 97.458,281.881 97.917 M274.212 99.500 C 274.212 99.912,274.245 100.081,274.284 99.875 C 274.324 99.669,274.324 99.331,274.284 99.125 C 274.245 98.919,274.212 99.087,274.212 99.500 M229.539 100.333 C 229.539 100.654,229.573 100.785,229.615 100.625 C 229.657 100.465,229.657 100.202,229.615 100.042 C 229.573 99.881,229.539 100.013,229.539 100.333 M229.539 101.667 C 229.539 101.987,229.573 102.119,229.615 101.958 C 229.657 101.798,229.657 101.535,229.615 101.375 C 229.573 101.215,229.539 101.346,229.539 101.667 M220.073 103.208 L 219.583 103.750 220.125 103.260 C 220.630 102.804,220.743 102.667,220.615 102.667 C 220.586 102.667,220.342 102.910,220.073 103.208 M281.381 104.917 C 281.382 105.375,281.415 105.543,281.453 105.289 C 281.491 105.036,281.490 104.661,281.451 104.456 C 281.411 104.251,281.380 104.458,281.381 104.917 M281.205 107.000 C 281.205 107.321,281.240 107.452,281.282 107.292 C 281.323 107.131,281.323 106.869,281.282 106.708 C 281.240 106.548,281.205 106.679,281.205 107.000 M79.500 112.083 C 78.817 112.771,78.296 113.333,78.342 113.333 C 78.388 113.333,78.984 112.771,79.667 112.083 C 80.350 111.396,80.871 110.833,80.825 110.833 C 80.779 110.833,80.183 111.396,79.500 112.083 M86.242 116.042 L 85.583 116.750 86.292 116.091 C 86.681 115.729,87.000 115.410,87.000 115.383 C 87.000 115.257,86.855 115.383,86.242 116.042 M74.833 116.917 C 74.428 117.329,74.135 117.667,74.181 117.667 C 74.226 117.667,74.595 117.329,75.000 116.917 C 75.405 116.504,75.699 116.167,75.653 116.167 C 75.607 116.167,75.238 116.504,74.833 116.917 M82.664 119.625 L 80.583 121.750 82.708 119.669 C 83.877 118.525,84.833 117.568,84.833 117.544 C 84.833 117.424,84.597 117.651,82.664 119.625 M72.494 119.458 L 71.583 120.417 72.542 119.506 C 73.432 118.659,73.576 118.500,73.453 118.500 C 73.427 118.500,72.995 118.931,72.494 119.458 M70.573 121.542 L 70.083 122.083 70.625 121.594 C 71.130 121.138,71.243 121.000,71.115 121.000 C 71.086 121.000,70.842 121.244,70.573 121.542 M79.158 123.292 L 78.583 123.917 79.208 123.342 C 79.790 122.808,79.910 122.667,79.783 122.667 C 79.755 122.667,79.474 122.948,79.158 123.292 M68.740 123.542 L 68.250 124.083 68.792 123.594 C 69.297 123.138,69.410 123.000,69.281 123.000 C 69.252 123.000,69.009 123.244,68.740 123.542 M65.330 127.125 L 63.750 128.750 65.375 127.170 C 66.884 125.702,67.076 125.500,66.955 125.500 C 66.930 125.500,66.199 126.231,65.330 127.125 M74.240 128.542 L 73.750 129.083 74.292 128.594 C 74.797 128.138,74.910 128.000,74.781 128.000 C 74.752 128.000,74.509 128.244,74.240 128.542 M72.167 130.750 C 71.762 131.162,71.468 131.500,71.514 131.500 C 71.560 131.500,71.928 131.162,72.333 130.750 C 72.738 130.337,73.032 130.000,72.986 130.000 C 72.940 130.000,72.572 130.337,72.167 130.750 M61.079 131.542 L 59.917 132.750 61.125 131.588 C 62.247 130.508,62.409 130.333,62.287 130.333 C 62.262 130.333,61.718 130.877,61.079 131.542 M70.167 132.917 C 69.762 133.329,69.468 133.667,69.514 133.667 C 69.560 133.667,69.928 133.329,70.333 132.917 C 70.738 132.504,71.032 132.167,70.986 132.167 C 70.940 132.167,70.572 132.504,70.167 132.917 M56.000 136.583 C 55.317 137.271,54.796 137.833,54.842 137.833 C 54.888 137.833,55.484 137.271,56.167 136.583 C 56.850 135.896,57.371 135.333,57.325 135.333 C 57.279 135.333,56.683 135.896,56.000 136.583 M52.242 140.208 L 51.583 140.917 52.292 140.258 C 52.950 139.645,53.077 139.500,52.950 139.500 C 52.923 139.500,52.605 139.819,52.242 140.208 M143.375 144.448 C 143.535 144.490,143.798 144.490,143.958 144.448 C 144.119 144.406,143.987 144.372,143.667 144.372 C 143.346 144.372,143.215 144.406,143.375 144.448 M55.406 147.375 L 54.917 147.917 55.458 147.427 C 55.963 146.971,56.077 146.833,55.948 146.833 C 55.919 146.833,55.675 147.077,55.406 147.375 M133.708 151.457 C 134.510 151.488,135.823 151.488,136.625 151.457 C 137.427 151.427,136.771 151.402,135.167 151.402 C 133.563 151.402,132.906 151.427,133.708 151.457 M130.042 151.615 C 130.202 151.657,130.465 151.657,130.625 151.615 C 130.785 151.573,130.654 151.539,130.333 151.539 C 130.012 151.539,129.881 151.573,130.042 151.615 M139.542 151.615 C 139.702 151.657,139.965 151.657,140.125 151.615 C 140.285 151.573,140.154 151.539,139.833 151.539 C 139.512 151.539,139.381 151.573,139.542 151.615 M31.211 155.786 C 31.464 155.825,31.839 155.824,32.044 155.784 C 32.249 155.744,32.042 155.713,31.583 155.714 C 31.125 155.716,30.957 155.748,31.211 155.786 M37.464 156.290 C 37.948 156.324,38.698 156.323,39.131 156.289 C 39.563 156.255,39.167 156.227,38.250 156.228 C 37.333 156.228,36.980 156.256,37.464 156.290 M183.045 158.833 C 183.045 159.246,183.078 159.415,183.118 159.208 C 183.157 159.002,183.157 158.665,183.118 158.458 C 183.078 158.252,183.045 158.421,183.045 158.833 M190.548 159.750 C 190.549 160.208,190.581 160.376,190.620 160.123 C 190.658 159.869,190.657 159.494,190.617 159.289 C 190.578 159.084,190.546 159.292,190.548 159.750 M111.500 160.417 C 111.095 160.829,110.801 161.167,110.847 161.167 C 110.893 161.167,111.262 160.829,111.667 160.417 C 112.072 160.004,112.365 159.667,112.319 159.667 C 112.274 159.667,111.905 160.004,111.500 160.417 M174.872 165.000 C 174.872 165.321,174.906 165.452,174.948 165.292 C 174.990 165.131,174.990 164.869,174.948 164.708 C 174.906 164.548,174.872 164.679,174.872 165.000 M14.545 167.833 C 14.545 168.246,14.578 168.415,14.618 168.208 C 14.657 168.002,14.657 167.665,14.618 167.458 C 14.578 167.252,14.545 167.421,14.545 167.833 M174.886 167.417 C 174.916 167.712,175.047 167.751,176.044 167.762 L 177.168 167.775 176.095 167.713 C 175.262 167.666,175.003 167.588,174.937 167.368 C 174.875 167.158,174.861 167.171,174.886 167.417 M167.372 169.167 C 167.372 169.487,167.406 169.619,167.448 169.458 C 167.490 169.298,167.490 169.035,167.448 168.875 C 167.406 168.715,167.372 168.846,167.372 169.167 M21.872 169.500 C 21.872 169.821,21.906 169.952,21.948 169.792 C 21.990 169.631,21.990 169.369,21.948 169.208 C 21.906 169.048,21.872 169.179,21.872 169.500 M21.712 172.500 C 21.712 172.912,21.745 173.081,21.784 172.875 C 21.824 172.669,21.824 172.331,21.784 172.125 C 21.745 171.919,21.712 172.088,21.712 172.500 M219.042 174.119 C 219.294 174.158,219.706 174.158,219.958 174.119 C 220.210 174.081,220.004 174.050,219.500 174.050 C 218.996 174.050,218.790 174.081,219.042 174.119 M216.740 175.042 L 216.250 175.583 216.792 175.094 C 217.297 174.638,217.410 174.500,217.281 174.500 C 217.252 174.500,217.009 174.744,216.740 175.042 M176.458 175.284 C 176.665 175.324,177.002 175.324,177.208 175.284 C 177.415 175.245,177.246 175.212,176.833 175.212 C 176.421 175.212,176.252 175.245,176.458 175.284 M44.830 177.292 L 43.417 178.750 44.875 177.337 C 46.229 176.025,46.409 175.833,46.288 175.833 C 46.263 175.833,45.607 176.490,44.830 177.292 M215.542 177.917 C 215.544 178.283,215.578 178.414,215.618 178.206 C 215.658 177.999,215.656 177.699,215.615 177.540 C 215.573 177.380,215.540 177.550,215.542 177.917 M96.385 179.083 C 96.386 179.633,96.417 179.838,96.454 179.539 C 96.491 179.239,96.490 178.789,96.452 178.539 C 96.414 178.288,96.384 178.533,96.385 179.083 M103.875 178.917 C 103.877 179.283,103.911 179.414,103.951 179.206 C 103.991 178.999,103.990 178.699,103.948 178.540 C 103.906 178.380,103.874 178.550,103.875 178.917 M41.991 180.292 L 41.417 180.917 42.042 180.342 C 42.623 179.808,42.743 179.667,42.616 179.667 C 42.588 179.667,42.307 179.948,41.991 180.292 M96.394 181.750 C 96.395 182.667,96.423 183.020,96.456 182.536 C 96.490 182.052,96.490 181.302,96.456 180.869 C 96.421 180.437,96.394 180.833,96.394 181.750 M51.240 181.375 L 50.750 181.917 51.292 181.427 C 51.797 180.971,51.910 180.833,51.781 180.833 C 51.752 180.833,51.509 181.077,51.240 181.375 M103.881 181.917 C 103.882 182.375,103.915 182.543,103.953 182.289 C 103.991 182.036,103.990 181.661,103.951 181.456 C 103.911 181.251,103.880 181.458,103.881 181.917 M39.578 182.875 L 38.583 183.917 39.625 182.922 C 40.198 182.375,40.667 181.906,40.667 181.880 C 40.667 181.757,40.502 181.907,39.578 182.875 M299.877 182.953 C 300.131 182.991,300.506 182.990,300.711 182.951 C 300.916 182.911,300.708 182.880,300.250 182.881 C 299.792 182.882,299.624 182.915,299.877 182.953 M293.460 183.118 C 293.668 183.158,293.968 183.156,294.127 183.115 C 294.286 183.073,294.117 183.040,293.750 183.042 C 293.383 183.044,293.253 183.078,293.460 183.118 M305.292 183.118 C 305.498 183.157,305.835 183.157,306.042 183.118 C 306.248 183.078,306.079 183.045,305.667 183.045 C 305.254 183.045,305.085 183.078,305.292 183.118 M290.708 183.282 C 290.869 183.323,291.131 183.323,291.292 183.282 C 291.452 183.240,291.321 183.205,291.000 183.205 C 290.679 183.205,290.548 183.240,290.708 183.282 M286.042 183.782 C 286.202 183.823,286.465 183.823,286.625 183.782 C 286.785 183.740,286.654 183.705,286.333 183.705 C 286.012 183.705,285.881 183.740,286.042 183.782 M48.242 184.542 L 47.583 185.250 48.292 184.591 C 48.950 183.978,49.077 183.833,48.950 183.833 C 48.923 183.833,48.605 184.152,48.242 184.542 M275.958 184.118 C 276.165 184.157,276.502 184.157,276.708 184.118 C 276.915 184.078,276.746 184.045,276.333 184.045 C 275.921 184.045,275.752 184.078,275.958 184.118 M282.627 184.118 C 282.834 184.158,283.134 184.156,283.294 184.115 C 283.453 184.073,283.283 184.040,282.917 184.042 C 282.550 184.044,282.420 184.078,282.627 184.118 M37.242 185.375 L 36.583 186.083 37.292 185.425 C 37.950 184.812,38.077 184.667,37.950 184.667 C 37.923 184.667,37.605 184.985,37.242 185.375 M361.792 187.787 C 362.090 187.824,362.577 187.824,362.875 187.787 C 363.173 187.750,362.929 187.720,362.333 187.720 C 361.738 187.720,361.494 187.750,361.792 187.787 M44.158 188.958 L 43.583 189.583 44.208 189.009 C 44.790 188.474,44.910 188.333,44.783 188.333 C 44.755 188.333,44.474 188.615,44.158 188.958 M347.627 188.618 C 347.834 188.658,348.134 188.656,348.294 188.615 C 348.453 188.573,348.283 188.540,347.917 188.542 C 347.550 188.544,347.420 188.578,347.627 188.618 M352.794 188.618 C 353.001 188.658,353.301 188.656,353.460 188.615 C 353.620 188.573,353.450 188.540,353.083 188.542 C 352.717 188.544,352.586 188.578,352.794 188.618 M295.794 190.451 C 296.001 190.491,296.301 190.490,296.460 190.448 C 296.620 190.406,296.450 190.374,296.083 190.375 C 295.717 190.377,295.586 190.411,295.794 190.451 M302.460 190.451 C 302.668 190.491,302.968 190.490,303.127 190.448 C 303.286 190.406,303.117 190.374,302.750 190.375 C 302.383 190.377,302.253 190.411,302.460 190.451 M292.875 190.615 C 293.035 190.657,293.298 190.657,293.458 190.615 C 293.619 190.573,293.487 190.539,293.167 190.539 C 292.846 190.539,292.715 190.573,292.875 190.615 M31.078 191.708 L 30.083 192.750 31.125 191.755 C 31.698 191.208,32.167 190.739,32.167 190.714 C 32.167 190.590,32.002 190.741,31.078 191.708 M288.042 191.115 C 288.202 191.157,288.465 191.157,288.625 191.115 C 288.785 191.073,288.654 191.039,288.333 191.039 C 288.012 191.039,287.881 191.073,288.042 191.115 M41.406 191.875 L 40.917 192.417 41.458 191.927 C 41.756 191.658,42.000 191.414,42.000 191.385 C 42.000 191.257,41.862 191.370,41.406 191.875 M279.208 191.790 C 279.735 191.823,280.598 191.823,281.125 191.790 C 281.652 191.757,281.221 191.730,280.167 191.730 C 279.112 191.730,278.681 191.757,279.208 191.790 M39.078 194.208 L 38.083 195.250 39.125 194.255 C 39.698 193.708,40.167 193.239,40.167 193.214 C 40.167 193.090,40.002 193.241,39.078 194.208 M27.742 194.875 L 27.083 195.583 27.792 194.925 C 28.450 194.312,28.577 194.167,28.450 194.167 C 28.423 194.167,28.105 194.485,27.742 194.875 M345.292 195.951 C 345.498 195.991,345.835 195.991,346.042 195.951 C 346.248 195.911,346.079 195.879,345.667 195.879 C 345.254 195.879,345.085 195.911,345.292 195.951 M170.544 196.620 C 170.797 196.658,171.172 196.657,171.377 196.617 C 171.582 196.578,171.375 196.546,170.917 196.548 C 170.458 196.549,170.291 196.581,170.544 196.620 M24.573 197.708 L 24.083 198.250 24.625 197.760 C 24.923 197.491,25.167 197.248,25.167 197.219 C 25.167 197.090,25.029 197.203,24.573 197.708 M32.910 200.375 L 32.083 201.250 32.958 200.423 C 33.771 199.654,33.910 199.500,33.785 199.500 C 33.759 199.500,33.365 199.894,32.910 200.375 M381.847 203.229 C 382.019 203.382,383.000 203.833,383.000 203.759 C 383.000 203.663,382.076 203.167,381.897 203.167 C 381.832 203.167,381.809 203.195,381.847 203.229 M28.573 204.208 L 28.083 204.750 28.625 204.260 C 28.923 203.991,29.167 203.748,29.167 203.719 C 29.167 203.590,29.029 203.703,28.573 204.208 M170.129 204.122 C 170.521 204.157,171.121 204.157,171.463 204.121 C 171.804 204.085,171.483 204.057,170.750 204.057 C 170.017 204.058,169.737 204.087,170.129 204.122 M385.167 204.908 C 385.167 204.954,385.392 205.108,385.667 205.250 C 385.942 205.392,386.167 205.471,386.167 205.425 C 386.167 205.379,385.942 205.226,385.667 205.083 C 385.392 204.941,385.167 204.862,385.167 204.908 M277.295 207.121 C 277.594 207.158,278.044 207.157,278.295 207.119 C 278.545 207.081,278.300 207.051,277.750 207.052 C 277.200 207.053,276.995 207.084,277.295 207.121 M283.292 207.121 C 283.590 207.158,284.077 207.158,284.375 207.121 C 284.673 207.084,284.429 207.053,283.833 207.053 C 283.237 207.053,282.994 207.084,283.292 207.121 M266.708 207.948 C 266.869 207.990,267.131 207.990,267.292 207.948 C 267.452 207.906,267.321 207.872,267.000 207.872 C 266.679 207.872,266.548 207.906,266.708 207.948 M264.208 208.115 C 264.369 208.157,264.631 208.157,264.792 208.115 C 264.952 208.073,264.821 208.039,264.500 208.039 C 264.179 208.039,264.048 208.073,264.208 208.115 M262.042 208.282 C 262.202 208.323,262.465 208.323,262.625 208.282 C 262.785 208.240,262.654 208.205,262.333 208.205 C 262.012 208.205,261.881 208.240,262.042 208.282 M259.875 208.448 C 260.035 208.490,260.298 208.490,260.458 208.448 C 260.619 208.406,260.487 208.372,260.167 208.372 C 259.846 208.372,259.715 208.406,259.875 208.448 M314.042 208.448 C 314.202 208.490,314.465 208.490,314.625 208.448 C 314.785 208.406,314.654 208.372,314.333 208.372 C 314.012 208.372,313.881 208.406,314.042 208.448 M311.627 208.618 C 311.834 208.658,312.134 208.656,312.294 208.615 C 312.453 208.573,312.283 208.540,311.917 208.542 C 311.550 208.544,311.420 208.578,311.627 208.618 M255.042 208.782 C 255.202 208.823,255.465 208.823,255.625 208.782 C 255.785 208.740,255.654 208.705,255.333 208.705 C 255.012 208.705,254.881 208.740,255.042 208.782 M300.463 208.789 C 300.855 208.824,301.455 208.824,301.796 208.788 C 302.137 208.752,301.817 208.723,301.083 208.724 C 300.350 208.724,300.071 208.754,300.463 208.789 M306.713 208.789 C 307.152 208.824,307.827 208.823,308.213 208.788 C 308.600 208.754,308.242 208.725,307.417 208.726 C 306.592 208.726,306.275 208.755,306.713 208.789 M251.708 208.953 C 251.960 208.991,252.373 208.991,252.625 208.953 C 252.877 208.915,252.671 208.883,252.167 208.883 C 251.662 208.883,251.456 208.915,251.708 208.953 M249.208 209.115 C 249.369 209.157,249.631 209.157,249.792 209.115 C 249.952 209.073,249.821 209.039,249.500 209.039 C 249.179 209.039,249.048 209.073,249.208 209.115 M246.708 209.282 C 246.869 209.323,247.131 209.323,247.292 209.282 C 247.452 209.240,247.321 209.205,247.000 209.205 C 246.679 209.205,246.548 209.240,246.708 209.282 M243.542 209.448 C 243.702 209.490,243.965 209.490,244.125 209.448 C 244.285 209.406,244.154 209.372,243.833 209.372 C 243.512 209.372,243.381 209.406,243.542 209.448 M239.794 209.618 C 240.001 209.658,240.301 209.656,240.460 209.615 C 240.620 209.573,240.450 209.540,240.083 209.542 C 239.717 209.544,239.586 209.578,239.794 209.618 M129.875 209.782 C 130.035 209.823,130.298 209.823,130.458 209.782 C 130.619 209.740,130.487 209.705,130.167 209.705 C 129.846 209.705,129.715 209.740,129.875 209.782 M215.375 209.791 C 216.085 209.822,217.248 209.822,217.958 209.791 C 218.669 209.759,218.088 209.734,216.667 209.734 C 215.246 209.734,214.665 209.759,215.375 209.791 M226.875 209.790 C 227.402 209.823,228.265 209.823,228.792 209.790 C 229.319 209.757,228.887 209.730,227.833 209.730 C 226.779 209.730,226.348 209.757,226.875 209.790 M231.467 209.791 C 232.412 209.821,233.912 209.821,234.801 209.791 C 235.689 209.761,234.917 209.737,233.083 209.737 C 231.250 209.737,230.523 209.761,231.467 209.791 M374.367 210.791 C 375.164 210.821,376.514 210.821,377.367 210.791 C 378.219 210.761,377.567 210.736,375.917 210.736 C 374.267 210.735,373.569 210.760,374.367 210.791 M379.461 210.787 C 379.761 210.825,380.211 210.824,380.461 210.786 C 380.712 210.748,380.467 210.717,379.917 210.718 C 379.367 210.719,379.162 210.750,379.461 210.787 M345.794 212.285 C 346.001 212.324,346.301 212.323,346.460 212.281 C 346.620 212.239,346.450 212.207,346.083 212.209 C 345.717 212.211,345.586 212.245,345.794 212.285 M278.377 214.620 C 278.631 214.658,279.006 214.657,279.211 214.617 C 279.416 214.578,279.208 214.546,278.750 214.548 C 278.292 214.549,278.124 214.581,278.377 214.620 M282.958 214.618 C 283.165 214.657,283.502 214.657,283.708 214.618 C 283.915 214.578,283.746 214.545,283.333 214.545 C 282.921 214.545,282.752 214.578,282.958 214.618 M275.960 214.785 C 276.168 214.824,276.468 214.823,276.627 214.781 C 276.786 214.739,276.617 214.707,276.250 214.709 C 275.883 214.711,275.753 214.745,275.960 214.785 M273.627 214.951 C 273.834 214.991,274.134 214.990,274.294 214.948 C 274.453 214.906,274.283 214.874,273.917 214.875 C 273.550 214.877,273.420 214.911,273.627 214.951 M271.208 215.115 C 271.369 215.157,271.631 215.157,271.792 215.115 C 271.952 215.073,271.821 215.039,271.500 215.039 C 271.179 215.039,271.048 215.073,271.208 215.115 M262.375 215.782 C 262.535 215.823,262.798 215.823,262.958 215.782 C 263.119 215.740,262.987 215.705,262.667 215.705 C 262.346 215.705,262.215 215.740,262.375 215.782 M260.208 215.948 C 260.369 215.990,260.631 215.990,260.792 215.948 C 260.952 215.906,260.821 215.872,260.500 215.872 C 260.179 215.872,260.048 215.906,260.208 215.948 M294.294 215.951 C 294.501 215.991,294.801 215.990,294.960 215.948 C 295.120 215.906,294.950 215.874,294.583 215.875 C 294.217 215.877,294.086 215.911,294.294 215.951 M314.708 215.948 C 314.869 215.990,315.131 215.990,315.292 215.948 C 315.452 215.906,315.321 215.872,315.000 215.872 C 314.679 215.872,314.548 215.906,314.708 215.948 M9.042 216.115 C 9.202 216.157,9.465 216.157,9.625 216.115 C 9.785 216.073,9.654 216.039,9.333 216.039 C 9.012 216.039,8.881 216.073,9.042 216.115 M257.958 216.118 C 258.165 216.157,258.502 216.157,258.708 216.118 C 258.915 216.078,258.746 216.045,258.333 216.045 C 257.921 216.045,257.752 216.078,257.958 216.118 M296.708 216.115 C 296.869 216.157,297.131 216.157,297.292 216.115 C 297.452 216.073,297.321 216.039,297.000 216.039 C 296.679 216.039,296.548 216.073,296.708 216.115 M300.458 216.284 C 300.665 216.324,301.002 216.324,301.208 216.284 C 301.415 216.245,301.246 216.212,300.833 216.212 C 300.421 216.212,300.252 216.245,300.458 216.284 M307.958 216.284 C 308.165 216.324,308.502 216.324,308.708 216.284 C 308.915 216.245,308.746 216.212,308.333 216.212 C 307.921 216.212,307.752 216.245,307.958 216.284 M252.875 216.448 C 253.035 216.490,253.298 216.490,253.458 216.448 C 253.619 216.406,253.487 216.372,253.167 216.372 C 252.846 216.372,252.715 216.406,252.875 216.448 M250.042 216.619 C 250.294 216.658,250.706 216.658,250.958 216.619 C 251.210 216.581,251.004 216.550,250.500 216.550 C 249.996 216.550,249.790 216.581,250.042 216.619 M247.128 216.787 C 247.428 216.825,247.878 216.824,248.128 216.786 C 248.378 216.748,248.133 216.717,247.583 216.718 C 247.033 216.719,246.828 216.750,247.128 216.787 M208.627 216.951 C 208.834 216.991,209.134 216.990,209.294 216.948 C 209.453 216.906,209.283 216.874,208.917 216.875 C 208.550 216.877,208.420 216.911,208.627 216.951 M243.288 216.954 C 243.584 216.990,244.109 216.991,244.455 216.955 C 244.800 216.919,244.558 216.889,243.917 216.888 C 243.275 216.887,242.992 216.917,243.288 216.954 M211.625 217.118 C 211.831 217.157,212.169 217.157,212.375 217.118 C 212.581 217.078,212.412 217.045,212.000 217.045 C 211.588 217.045,211.419 217.078,211.625 217.118 M238.547 217.123 C 238.985 217.157,239.660 217.157,240.047 217.122 C 240.434 217.087,240.075 217.059,239.250 217.059 C 238.425 217.060,238.109 217.088,238.547 217.123 M135.042 217.282 C 135.202 217.323,135.465 217.323,135.625 217.282 C 135.785 217.240,135.654 217.205,135.333 217.205 C 135.012 217.205,134.881 217.240,135.042 217.282 M216.200 217.291 C 216.997 217.321,218.347 217.321,219.200 217.291 C 220.052 217.261,219.400 217.236,217.750 217.236 C 216.100 217.235,215.402 217.260,216.200 217.291 M228.042 217.291 C 228.844 217.321,230.156 217.321,230.958 217.291 C 231.760 217.260,231.104 217.235,229.500 217.235 C 227.896 217.235,227.240 217.260,228.042 217.291 M369.042 217.948 C 369.202 217.990,369.465 217.990,369.625 217.948 C 369.785 217.906,369.654 217.872,369.333 217.872 C 369.012 217.872,368.881 217.906,369.042 217.948 M371.377 218.120 C 371.631 218.158,372.006 218.157,372.211 218.117 C 372.416 218.078,372.208 218.046,371.750 218.048 C 371.292 218.049,371.124 218.081,371.377 218.120 " stroke="none" fill-rule="evenodd"></path><path id="path4" d="M229.465 7.290 C 230.041 7.323,230.941 7.323,231.465 7.290 C 231.988 7.257,231.517 7.230,230.417 7.230 C 229.317 7.231,228.888 7.258,229.465 7.290 M258.333 12.417 C 258.644 12.737,258.936 13.000,258.982 13.000 C 259.028 13.000,258.811 12.737,258.500 12.417 C 258.189 12.096,257.897 11.833,257.851 11.833 C 257.805 11.833,258.022 12.096,258.333 12.417 M259.833 14.052 C 259.833 14.081,260.077 14.325,260.375 14.594 L 260.917 15.083 260.427 14.542 C 259.971 14.037,259.833 13.923,259.833 14.052 M195.079 15.708 L 193.750 17.083 195.125 15.754 C 195.881 15.023,196.500 14.404,196.500 14.379 C 196.500 14.257,196.314 14.431,195.079 15.708 M251.333 15.917 C 251.644 16.237,251.936 16.500,251.982 16.500 C 252.028 16.500,251.811 16.237,251.500 15.917 C 251.189 15.596,250.897 15.333,250.851 15.333 C 250.805 15.333,251.022 15.596,251.333 15.917 M200.583 20.667 C 199.486 21.767,198.626 22.667,198.672 22.667 C 198.718 22.667,199.653 21.767,200.750 20.667 C 201.847 19.567,202.707 18.667,202.661 18.667 C 202.616 18.667,201.680 19.567,200.583 20.667 M197.406 24.042 L 196.917 24.583 197.458 24.094 C 197.963 23.638,198.077 23.500,197.948 23.500 C 197.919 23.500,197.675 23.744,197.406 24.042 M180.663 32.958 L 179.083 34.583 180.708 33.003 C 182.218 31.536,182.409 31.333,182.288 31.333 C 182.264 31.333,181.532 32.065,180.663 32.958 M177.573 35.875 L 177.083 36.417 177.625 35.927 C 178.130 35.471,178.243 35.333,178.115 35.333 C 178.086 35.333,177.842 35.577,177.573 35.875 M174.573 38.542 L 174.083 39.083 174.625 38.594 C 175.130 38.138,175.243 38.000,175.115 38.000 C 175.086 38.000,174.842 38.244,174.573 38.542 M183.575 40.375 L 182.917 41.083 183.625 40.425 C 184.015 40.062,184.333 39.743,184.333 39.716 C 184.333 39.590,184.188 39.716,183.575 40.375 M169.324 43.292 L 168.750 43.917 169.375 43.342 C 169.957 42.808,170.077 42.667,169.949 42.667 C 169.922 42.667,169.640 42.948,169.324 43.292 M163.075 49.042 L 162.417 49.750 163.125 49.091 C 163.515 48.729,163.833 48.410,163.833 48.383 C 163.833 48.257,163.688 48.383,163.075 49.042 M173.909 49.042 L 173.250 49.750 173.958 49.091 C 174.617 48.478,174.743 48.333,174.617 48.333 C 174.590 48.333,174.271 48.652,173.909 49.042 M171.991 50.792 L 171.417 51.417 172.042 50.842 C 172.385 50.526,172.667 50.245,172.667 50.217 C 172.667 50.090,172.526 50.210,171.991 50.792 M158.333 53.583 C 157.650 54.271,157.129 54.833,157.175 54.833 C 157.221 54.833,157.817 54.271,158.500 53.583 C 159.183 52.896,159.704 52.333,159.658 52.333 C 159.612 52.333,159.016 52.896,158.333 53.583 M169.244 53.375 L 168.417 54.250 169.292 53.423 C 170.105 52.654,170.243 52.500,170.119 52.500 C 170.092 52.500,169.699 52.894,169.244 53.375 M163.665 58.792 L 160.750 61.750 163.708 58.835 C 165.335 57.232,166.667 55.901,166.667 55.877 C 166.667 55.758,166.373 56.043,163.665 58.792 M153.573 58.542 L 153.083 59.083 153.625 58.594 C 153.923 58.325,154.167 58.081,154.167 58.052 C 154.167 57.923,154.029 58.037,153.573 58.542 M151.991 60.292 L 151.417 60.917 152.042 60.342 C 152.623 59.808,152.743 59.667,152.616 59.667 C 152.588 59.667,152.307 59.948,151.991 60.292 M158.500 64.083 C 158.095 64.496,157.801 64.833,157.847 64.833 C 157.893 64.833,158.262 64.496,158.667 64.083 C 159.072 63.671,159.365 63.333,159.319 63.333 C 159.274 63.333,158.905 63.671,158.500 64.083 M273.872 73.667 C 273.872 73.987,273.906 74.119,273.948 73.958 C 273.990 73.798,273.990 73.535,273.948 73.375 C 273.906 73.215,273.872 73.346,273.872 73.667 M238.075 74.208 L 237.417 74.917 238.125 74.258 C 238.515 73.895,238.833 73.577,238.833 73.550 C 238.833 73.423,238.688 73.550,238.075 74.208 M281.205 74.333 C 281.205 74.654,281.240 74.785,281.282 74.625 C 281.323 74.465,281.323 74.202,281.282 74.042 C 281.240 73.881,281.205 74.012,281.205 74.333 M274.039 76.167 C 274.039 76.487,274.073 76.619,274.115 76.458 C 274.157 76.298,274.157 76.035,274.115 75.875 C 274.073 75.715,274.039 75.846,274.039 76.167 M281.372 76.500 C 281.372 76.821,281.406 76.952,281.448 76.792 C 281.490 76.631,281.490 76.369,281.448 76.208 C 281.406 76.048,281.372 76.179,281.372 76.500 M281.548 79.417 C 281.549 79.875,281.581 80.043,281.620 79.789 C 281.658 79.536,281.657 79.161,281.617 78.956 C 281.578 78.751,281.546 78.958,281.548 79.417 M135.740 79.708 L 135.250 80.250 135.792 79.760 C 136.090 79.491,136.333 79.248,136.333 79.219 C 136.333 79.090,136.196 79.203,135.740 79.708 M133.491 81.958 L 132.917 82.583 133.542 82.009 C 134.123 81.474,134.243 81.333,134.116 81.333 C 134.088 81.333,133.807 81.615,133.491 81.958 M274.381 82.250 C 274.382 82.708,274.415 82.876,274.453 82.623 C 274.491 82.369,274.490 81.994,274.451 81.789 C 274.411 81.584,274.380 81.792,274.381 82.250 M281.714 82.417 C 281.716 82.875,281.748 83.043,281.786 82.789 C 281.825 82.536,281.824 82.161,281.784 81.956 C 281.744 81.751,281.713 81.958,281.714 82.417 M281.895 86.500 C 281.895 87.462,281.923 87.856,281.956 87.375 C 281.990 86.894,281.990 86.106,281.956 85.625 C 281.923 85.144,281.895 85.537,281.895 86.500 M274.561 87.250 C 274.561 88.167,274.589 88.520,274.623 88.036 C 274.657 87.552,274.656 86.802,274.622 86.369 C 274.588 85.937,274.560 86.333,274.561 87.250 M274.565 93.333 C 274.565 94.571,274.592 95.077,274.624 94.458 C 274.656 93.840,274.656 92.827,274.624 92.208 C 274.592 91.590,274.565 92.096,274.565 93.333 M281.897 93.250 C 281.897 94.350,281.924 94.778,281.957 94.202 C 281.990 93.625,281.989 92.725,281.956 92.202 C 281.923 91.678,281.897 92.150,281.897 93.250 M281.717 97.833 C 281.717 98.337,281.748 98.544,281.786 98.292 C 281.824 98.040,281.824 97.627,281.786 97.375 C 281.748 97.123,281.717 97.329,281.717 97.833 M274.381 98.583 C 274.382 99.042,274.415 99.209,274.453 98.956 C 274.491 98.703,274.490 98.328,274.451 98.123 C 274.411 97.918,274.380 98.125,274.381 98.583 M281.542 100.750 C 281.544 101.117,281.578 101.247,281.618 101.040 C 281.658 100.832,281.656 100.532,281.615 100.373 C 281.573 100.214,281.540 100.383,281.542 100.750 M274.209 101.750 C 274.211 102.117,274.245 102.247,274.285 102.040 C 274.324 101.832,274.323 101.532,274.281 101.373 C 274.239 101.214,274.207 101.383,274.209 101.750 M281.375 103.250 C 281.377 103.617,281.411 103.747,281.451 103.540 C 281.491 103.332,281.490 103.032,281.448 102.873 C 281.406 102.714,281.374 102.883,281.375 103.250 M225.833 107.750 C 225.428 108.162,225.135 108.500,225.181 108.500 C 225.226 108.500,225.595 108.162,226.000 107.750 C 226.405 107.337,226.699 107.000,226.653 107.000 C 226.607 107.000,226.238 107.337,225.833 107.750 M82.744 109.208 L 81.917 110.083 82.792 109.256 C 83.273 108.801,83.667 108.408,83.667 108.381 C 83.667 108.257,83.512 108.395,82.744 109.208 M79.580 112.208 L 78.083 113.750 79.625 112.253 C 81.057 110.864,81.243 110.667,81.122 110.667 C 81.097 110.667,80.403 111.360,79.580 112.208 M88.740 113.542 L 88.250 114.083 88.792 113.594 C 89.090 113.325,89.333 113.081,89.333 113.052 C 89.333 112.923,89.196 113.037,88.740 113.542 M76.828 114.958 L 75.917 115.917 76.875 115.006 C 77.765 114.159,77.910 114.000,77.786 114.000 C 77.760 114.000,77.329 114.431,76.828 114.958 M84.664 117.458 L 82.750 119.417 84.708 117.503 C 86.527 115.725,86.742 115.500,86.622 115.500 C 86.598 115.500,85.717 116.381,84.664 117.458 M74.577 117.375 L 73.750 118.250 74.625 117.423 C 75.106 116.968,75.500 116.574,75.500 116.548 C 75.500 116.424,75.346 116.562,74.577 117.375 M72.158 119.958 L 71.583 120.583 72.208 120.009 C 72.790 119.474,72.910 119.333,72.783 119.333 C 72.755 119.333,72.474 119.615,72.158 119.958 M70.242 122.042 L 69.583 122.750 70.292 122.091 C 70.950 121.478,71.077 121.333,70.950 121.333 C 70.923 121.333,70.605 121.652,70.242 122.042 M79.406 122.875 L 78.917 123.417 79.458 122.927 C 79.963 122.471,80.077 122.333,79.948 122.333 C 79.919 122.333,79.675 122.577,79.406 122.875 M68.167 124.250 C 67.762 124.662,67.468 125.000,67.514 125.000 C 67.560 125.000,67.928 124.662,68.333 124.250 C 68.738 123.837,69.032 123.500,68.986 123.500 C 68.940 123.500,68.572 123.837,68.167 124.250 M76.744 125.708 L 75.917 126.583 76.792 125.756 C 77.273 125.301,77.667 124.908,77.667 124.881 C 77.667 124.757,77.512 124.895,76.744 125.708 M64.662 127.958 L 63.583 129.083 64.708 128.005 C 65.327 127.412,65.833 126.905,65.833 126.880 C 65.833 126.757,65.664 126.913,64.662 127.958 M72.909 129.875 L 72.250 130.583 72.958 129.925 C 73.617 129.312,73.743 129.167,73.617 129.167 C 73.590 129.167,73.271 129.485,72.909 129.875 M58.248 134.542 L 55.583 137.250 58.292 134.585 C 59.781 133.120,61.000 131.901,61.000 131.877 C 61.000 131.758,60.724 132.026,58.248 134.542 M192.500 133.917 C 192.095 134.329,191.801 134.667,191.847 134.667 C 191.893 134.667,192.262 134.329,192.667 133.917 C 193.072 133.504,193.365 133.167,193.319 133.167 C 193.274 133.167,192.905 133.504,192.500 133.917 M65.573 137.542 L 65.083 138.083 65.625 137.594 C 66.130 137.138,66.243 137.000,66.115 137.000 C 66.086 137.000,65.842 137.244,65.573 137.542 M64.077 139.042 L 63.250 139.917 64.125 139.090 C 64.606 138.635,65.000 138.241,65.000 138.215 C 65.000 138.090,64.846 138.229,64.077 139.042 M52.828 139.792 L 51.917 140.750 52.875 139.839 C 53.402 139.338,53.833 138.907,53.833 138.881 C 53.833 138.757,53.674 138.901,52.828 139.792 M131.713 144.123 C 132.152 144.157,132.827 144.157,133.213 144.122 C 133.600 144.087,133.242 144.059,132.417 144.059 C 131.592 144.060,131.275 144.088,131.713 144.123 M135.964 144.123 C 136.448 144.157,137.198 144.156,137.631 144.122 C 138.063 144.088,137.667 144.060,136.750 144.061 C 135.833 144.061,135.480 144.089,135.964 144.123 M140.208 144.282 C 140.369 144.323,140.631 144.323,140.792 144.282 C 140.952 144.240,140.821 144.205,140.500 144.205 C 140.179 144.205,140.048 144.240,140.208 144.282 M30.458 148.455 C 30.848 148.490,31.485 148.490,31.875 148.455 C 32.265 148.420,31.946 148.392,31.167 148.392 C 30.387 148.392,30.069 148.420,30.458 148.455 M33.708 148.615 C 33.869 148.657,34.131 148.657,34.292 148.615 C 34.452 148.573,34.321 148.539,34.000 148.539 C 33.679 148.539,33.548 148.573,33.708 148.615 M37.711 148.953 C 37.964 148.991,38.339 148.990,38.544 148.951 C 38.749 148.911,38.542 148.880,38.083 148.881 C 37.625 148.882,37.457 148.915,37.711 148.953 M130.542 151.448 C 130.702 151.490,130.965 151.490,131.125 151.448 C 131.285 151.406,131.154 151.372,130.833 151.372 C 130.512 151.372,130.381 151.406,130.542 151.448 M138.875 151.448 C 139.035 151.490,139.298 151.490,139.458 151.448 C 139.619 151.406,139.487 151.372,139.167 151.372 C 138.846 151.372,138.715 151.406,138.875 151.448 M171.000 153.417 C 171.311 153.737,171.603 154.000,171.649 154.000 C 171.695 154.000,171.478 153.737,171.167 153.417 C 170.856 153.096,170.564 152.833,170.518 152.833 C 170.472 152.833,170.689 153.096,171.000 153.417 M107.324 154.125 L 106.750 154.750 107.375 154.176 C 107.957 153.641,108.077 153.500,107.949 153.500 C 107.922 153.500,107.640 153.781,107.324 154.125 M36.377 156.120 C 36.631 156.158,37.006 156.157,37.211 156.117 C 37.416 156.078,37.208 156.046,36.750 156.048 C 36.292 156.049,36.124 156.081,36.377 156.120 M39.460 156.118 C 39.668 156.158,39.968 156.156,40.127 156.115 C 40.286 156.073,40.117 156.040,39.750 156.042 C 39.383 156.044,39.253 156.078,39.460 156.118 M183.218 158.083 C 183.219 158.633,183.250 158.838,183.287 158.539 C 183.325 158.239,183.324 157.789,183.286 157.539 C 183.248 157.288,183.217 157.533,183.218 158.083 M190.542 157.750 C 190.544 158.117,190.578 158.247,190.618 158.040 C 190.658 157.832,190.656 157.532,190.615 157.373 C 190.573 157.214,190.540 157.383,190.542 157.750 M112.167 159.583 C 111.762 159.996,111.468 160.333,111.514 160.333 C 111.560 160.333,111.928 159.996,112.333 159.583 C 112.738 159.171,113.032 158.833,112.986 158.833 C 112.940 158.833,112.572 159.171,112.167 159.583 M183.053 161.833 C 183.053 162.429,183.084 162.673,183.121 162.375 C 183.158 162.077,183.158 161.590,183.121 161.292 C 183.084 160.994,183.053 161.237,183.053 161.833 M190.381 161.750 C 190.382 162.208,190.415 162.376,190.453 162.123 C 190.491 161.869,190.490 161.494,190.451 161.289 C 190.411 161.084,190.380 161.292,190.381 161.750 M167.557 166.583 C 167.558 167.317,167.587 167.596,167.622 167.204 C 167.657 166.812,167.657 166.212,167.621 165.871 C 167.585 165.529,167.557 165.850,167.557 166.583 M181.409 166.208 L 180.750 166.917 181.458 166.258 C 182.117 165.645,182.243 165.500,182.117 165.500 C 182.090 165.500,181.771 165.819,181.409 166.208 M14.545 169.833 C 14.545 170.246,14.578 170.415,14.618 170.208 C 14.657 170.002,14.657 169.665,14.618 169.458 C 14.578 169.252,14.545 169.421,14.545 169.833 M21.712 170.500 C 21.712 170.912,21.745 171.081,21.784 170.875 C 21.824 170.669,21.824 170.331,21.784 170.125 C 21.745 169.919,21.712 170.087,21.712 170.500 M49.417 172.667 C 48.044 174.042,46.958 175.167,47.004 175.167 C 47.050 175.167,48.211 174.042,49.583 172.667 C 50.956 171.292,52.042 170.167,51.996 170.167 C 51.950 170.167,50.789 171.292,49.417 172.667 M167.379 170.833 C 167.379 171.246,167.411 171.415,167.451 171.208 C 167.491 171.002,167.491 170.665,167.451 170.458 C 167.411 170.252,167.379 170.421,167.379 170.833 M21.545 173.333 C 21.545 173.746,21.578 173.915,21.618 173.708 C 21.657 173.502,21.657 173.165,21.618 172.958 C 21.578 172.752,21.545 172.921,21.545 173.333 M216.740 175.208 L 216.250 175.750 216.792 175.260 C 217.297 174.804,217.410 174.667,217.281 174.667 C 217.252 174.667,217.009 174.910,216.740 175.208 M55.578 176.875 L 54.583 177.917 55.625 176.922 C 56.593 175.998,56.743 175.833,56.620 175.833 C 56.594 175.833,56.125 176.302,55.578 176.875 M44.662 177.625 L 43.583 178.750 44.708 177.671 C 45.753 176.670,45.910 176.500,45.787 176.500 C 45.761 176.500,45.255 177.006,44.662 177.625 M96.539 178.167 C 96.539 178.487,96.573 178.619,96.615 178.458 C 96.657 178.298,96.657 178.035,96.615 177.875 C 96.573 177.715,96.539 177.846,96.539 178.167 M103.721 180.583 C 103.722 181.225,103.752 181.467,103.788 181.121 C 103.824 180.775,103.824 180.250,103.787 179.955 C 103.750 179.659,103.721 179.942,103.721 180.583 M41.991 180.458 L 41.417 181.083 42.042 180.509 C 42.623 179.974,42.743 179.833,42.616 179.833 C 42.588 179.833,42.307 180.115,41.991 180.458 M51.833 180.583 C 51.428 180.996,51.135 181.333,51.181 181.333 C 51.226 181.333,51.595 180.996,52.000 180.583 C 52.405 180.171,52.699 179.833,52.653 179.833 C 52.607 179.833,52.238 180.171,51.833 180.583 M39.333 183.250 C 38.928 183.662,38.635 184.000,38.681 184.000 C 38.726 184.000,39.095 183.662,39.500 183.250 C 39.905 182.838,40.199 182.500,40.153 182.500 C 40.107 182.500,39.738 182.838,39.333 183.250 M48.910 183.708 L 48.083 184.583 48.958 183.756 C 49.771 182.988,49.910 182.833,49.785 182.833 C 49.759 182.833,49.365 183.227,48.910 183.708 M96.539 183.333 C 96.539 183.654,96.573 183.785,96.615 183.625 C 96.657 183.465,96.657 183.202,96.615 183.042 C 96.573 182.881,96.539 183.012,96.539 183.333 M298.051 183.124 C 299.041 183.154,300.616 183.154,301.551 183.124 C 302.485 183.095,301.675 183.070,299.750 183.071 C 297.825 183.071,297.060 183.095,298.051 183.124 M292.627 183.285 C 292.834 183.324,293.134 183.323,293.294 183.281 C 293.453 183.239,293.283 183.207,292.917 183.209 C 292.550 183.211,292.420 183.245,292.627 183.285 M305.958 183.284 C 306.165 183.324,306.502 183.324,306.708 183.284 C 306.915 183.245,306.746 183.212,306.333 183.212 C 305.921 183.212,305.752 183.245,305.958 183.284 M290.208 183.448 C 290.369 183.490,290.631 183.490,290.792 183.448 C 290.952 183.406,290.821 183.372,290.500 183.372 C 290.179 183.372,290.048 183.406,290.208 183.448 M284.042 184.115 C 284.202 184.157,284.465 184.157,284.625 184.115 C 284.785 184.073,284.654 184.039,284.333 184.039 C 284.012 184.039,283.881 184.073,284.042 184.115 M276.625 184.287 C 276.923 184.324,277.410 184.324,277.708 184.287 C 278.006 184.250,277.762 184.220,277.167 184.220 C 276.571 184.220,276.327 184.250,276.625 184.287 M281.875 184.286 C 282.127 184.324,282.540 184.324,282.792 184.286 C 283.044 184.248,282.837 184.217,282.333 184.217 C 281.829 184.217,281.623 184.248,281.875 184.286 M36.744 186.042 L 35.917 186.917 36.792 186.090 C 37.605 185.321,37.743 185.167,37.619 185.167 C 37.592 185.167,37.199 185.560,36.744 186.042 M361.292 187.957 C 361.865 187.989,362.802 187.989,363.375 187.957 C 363.948 187.924,363.479 187.898,362.333 187.898 C 361.188 187.898,360.719 187.924,361.292 187.957 M44.158 188.792 L 43.583 189.417 44.208 188.842 C 44.790 188.308,44.910 188.167,44.783 188.167 C 44.755 188.167,44.474 188.448,44.158 188.792 M347.955 188.787 C 348.250 188.824,348.775 188.824,349.121 188.788 C 349.467 188.752,349.225 188.722,348.583 188.721 C 347.942 188.721,347.659 188.750,347.955 188.787 M352.208 188.786 C 352.460 188.824,352.873 188.824,353.125 188.786 C 353.377 188.748,353.171 188.717,352.667 188.717 C 352.162 188.717,351.956 188.748,352.208 188.786 M297.792 190.290 C 298.365 190.323,299.302 190.323,299.875 190.290 C 300.448 190.258,299.979 190.231,298.833 190.231 C 297.688 190.231,297.219 190.258,297.792 190.290 M293.875 190.448 C 294.035 190.490,294.298 190.490,294.458 190.448 C 294.619 190.406,294.487 190.372,294.167 190.372 C 293.846 190.372,293.715 190.406,293.875 190.448 M304.208 190.448 C 304.369 190.490,304.631 190.490,304.792 190.448 C 304.952 190.406,304.821 190.372,304.500 190.372 C 304.179 190.372,304.048 190.406,304.208 190.448 M308.708 190.782 C 308.869 190.823,309.131 190.823,309.292 190.782 C 309.452 190.740,309.321 190.705,309.000 190.705 C 308.679 190.705,308.548 190.740,308.708 190.782 M40.663 192.458 L 39.250 193.917 40.708 192.504 C 42.063 191.191,42.243 191.000,42.121 191.000 C 42.096 191.000,41.440 191.656,40.663 192.458 M277.629 191.622 C 278.021 191.657,278.621 191.657,278.963 191.621 C 279.304 191.585,278.983 191.557,278.250 191.557 C 277.517 191.558,277.237 191.587,277.629 191.622 M281.121 191.620 C 281.417 191.657,281.942 191.658,282.288 191.622 C 282.634 191.586,282.392 191.555,281.750 191.555 C 281.108 191.554,280.825 191.583,281.121 191.620 M27.994 194.792 L 27.083 195.750 28.042 194.839 C 28.932 193.993,29.076 193.833,28.953 193.833 C 28.927 193.833,28.495 194.265,27.994 194.792 M361.961 195.121 C 362.261 195.158,362.711 195.157,362.961 195.119 C 363.212 195.081,362.967 195.051,362.417 195.052 C 361.867 195.053,361.662 195.084,361.961 195.121 M344.708 195.782 C 344.869 195.823,345.131 195.823,345.292 195.782 C 345.452 195.740,345.321 195.705,345.000 195.705 C 344.679 195.705,344.548 195.740,344.708 195.782 M36.906 196.375 L 36.417 196.917 36.958 196.427 C 37.256 196.158,37.500 195.914,37.500 195.885 C 37.500 195.757,37.362 195.870,36.906 196.375 M349.792 196.123 C 350.273 196.157,351.060 196.157,351.542 196.123 C 352.023 196.089,351.629 196.062,350.667 196.062 C 349.704 196.062,349.310 196.089,349.792 196.123 M383.108 197.375 C 382.441 198.760,381.044 200.276,379.750 201.019 C 379.103 201.390,379.003 201.497,379.302 201.498 C 379.515 201.499,379.641 201.574,379.583 201.667 C 379.527 201.758,379.620 201.833,379.791 201.833 C 379.962 201.833,380.360 202.025,380.676 202.259 C 380.992 202.492,381.850 202.990,382.583 203.364 C 383.317 203.739,384.451 204.330,385.104 204.678 L 386.291 205.310 386.854 204.729 C 387.593 203.966,388.690 203.273,389.875 202.820 C 390.988 202.395,391.084 202.107,390.208 201.824 C 387.964 201.097,385.587 198.957,384.907 197.050 C 384.783 196.702,384.678 196.510,384.674 196.625 C 384.670 196.740,384.550 196.833,384.407 196.833 C 384.247 196.833,384.192 196.753,384.265 196.625 C 384.359 196.458,384.337 196.458,384.158 196.625 C 383.823 196.936,383.630 196.877,383.750 196.500 C 383.973 195.798,383.666 196.216,383.108 197.375 M170.049 196.790 C 170.671 196.823,171.646 196.822,172.215 196.790 C 172.784 196.757,172.275 196.731,171.083 196.731 C 169.892 196.732,169.426 196.758,170.049 196.790 M32.409 200.708 L 31.750 201.417 32.458 200.758 C 33.117 200.145,33.243 200.000,33.117 200.000 C 33.090 200.000,32.771 200.319,32.409 200.708 M28.240 204.375 L 27.750 204.917 28.292 204.427 C 28.590 204.158,28.833 203.914,28.833 203.885 C 28.833 203.757,28.696 203.870,28.240 204.375 M172.875 204.115 C 173.035 204.157,173.298 204.157,173.458 204.115 C 173.619 204.073,173.487 204.039,173.167 204.039 C 172.846 204.039,172.715 204.073,172.875 204.115 M347.875 204.790 C 348.402 204.823,349.265 204.823,349.792 204.790 C 350.319 204.757,349.887 204.730,348.833 204.730 C 347.779 204.730,347.348 204.757,347.875 204.790 M107.083 206.833 C 107.628 207.383,108.110 207.833,108.156 207.833 C 108.202 207.833,107.794 207.383,107.250 206.833 C 106.706 206.283,106.223 205.833,106.177 205.833 C 106.131 205.833,106.539 206.283,107.083 206.833 M276.460 207.285 C 276.668 207.324,276.968 207.323,277.127 207.281 C 277.286 207.239,277.117 207.207,276.750 207.209 C 276.383 207.211,276.253 207.245,276.460 207.285 M284.708 207.282 C 284.869 207.323,285.131 207.323,285.292 207.282 C 285.452 207.240,285.321 207.205,285.000 207.205 C 284.679 207.205,284.548 207.240,284.708 207.282 M268.042 207.948 C 268.202 207.990,268.465 207.990,268.625 207.948 C 268.785 207.906,268.654 207.872,268.333 207.872 C 268.012 207.872,267.881 207.906,268.042 207.948 M266.042 208.115 C 266.202 208.157,266.465 208.157,266.625 208.115 C 266.785 208.073,266.654 208.039,266.333 208.039 C 266.012 208.039,265.881 208.073,266.042 208.115 M319.708 208.115 C 319.869 208.157,320.131 208.157,320.292 208.115 C 320.452 208.073,320.321 208.039,320.000 208.039 C 319.679 208.039,319.548 208.073,319.708 208.115 M263.542 208.282 C 263.702 208.323,263.965 208.323,264.125 208.282 C 264.285 208.240,264.154 208.205,263.833 208.205 C 263.512 208.205,263.381 208.240,263.542 208.282 M315.708 208.448 C 315.869 208.490,316.131 208.490,316.292 208.448 C 316.452 208.406,316.321 208.372,316.000 208.372 C 315.679 208.372,315.548 208.406,315.708 208.448 M256.542 208.782 C 256.702 208.823,256.965 208.823,257.125 208.782 C 257.285 208.740,257.154 208.705,256.833 208.705 C 256.512 208.705,256.381 208.740,256.542 208.782 M297.958 208.784 C 298.165 208.824,298.502 208.824,298.708 208.784 C 298.915 208.745,298.746 208.712,298.333 208.712 C 297.921 208.712,297.752 208.745,297.958 208.784 M310.211 208.786 C 310.464 208.825,310.839 208.824,311.044 208.784 C 311.249 208.744,311.042 208.713,310.583 208.714 C 310.125 208.716,309.957 208.748,310.211 208.786 M253.961 208.954 C 254.261 208.991,254.711 208.990,254.961 208.952 C 255.212 208.914,254.967 208.884,254.417 208.885 C 253.867 208.886,253.662 208.917,253.961 208.954 M302.875 208.958 C 303.769 208.988,305.231 208.988,306.125 208.958 C 307.019 208.928,306.287 208.903,304.500 208.903 C 302.712 208.903,301.981 208.928,302.875 208.958 M251.042 209.119 C 251.294 209.158,251.706 209.158,251.958 209.119 C 252.210 209.081,252.004 209.050,251.500 209.050 C 250.996 209.050,250.790 209.081,251.042 209.119 M248.460 209.285 C 248.668 209.324,248.968 209.323,249.127 209.281 C 249.286 209.239,249.117 209.207,248.750 209.209 C 248.383 209.211,248.253 209.245,248.460 209.285 M245.458 209.451 C 245.665 209.491,246.002 209.491,246.208 209.451 C 246.415 209.411,246.246 209.379,245.833 209.379 C 245.421 209.379,245.252 209.411,245.458 209.451 M241.958 209.618 C 242.165 209.657,242.502 209.657,242.708 209.618 C 242.915 209.578,242.746 209.545,242.333 209.545 C 241.921 209.545,241.752 209.578,241.958 209.618 M212.127 209.785 C 212.334 209.824,212.634 209.823,212.794 209.781 C 212.953 209.739,212.783 209.707,212.417 209.709 C 212.050 209.711,211.920 209.745,212.127 209.785 M238.627 209.785 C 238.834 209.824,239.134 209.823,239.294 209.781 C 239.453 209.739,239.283 209.707,238.917 209.709 C 238.550 209.711,238.420 209.745,238.627 209.785 M130.711 209.953 C 130.964 209.991,131.339 209.990,131.544 209.951 C 131.749 209.911,131.542 209.880,131.083 209.881 C 130.625 209.882,130.457 209.915,130.711 209.953 M216.466 209.957 C 217.227 209.988,218.427 209.988,219.133 209.957 C 219.839 209.926,219.217 209.901,217.750 209.901 C 216.283 209.901,215.706 209.927,216.466 209.957 M227.292 209.958 C 228.506 209.986,230.494 209.986,231.708 209.958 C 232.923 209.929,231.929 209.906,229.500 209.906 C 227.071 209.906,226.077 209.929,227.292 209.958 M371.208 210.782 C 371.369 210.823,371.631 210.823,371.792 210.782 C 371.952 210.740,371.821 210.705,371.500 210.705 C 371.179 210.705,371.048 210.740,371.208 210.782 M378.363 210.958 C 380.809 210.984,384.859 210.984,387.363 210.958 C 389.868 210.932,387.867 210.911,382.917 210.911 C 377.967 210.911,375.918 210.932,378.363 210.958 M346.542 212.115 C 346.702 212.157,346.965 212.157,347.125 212.115 C 347.285 212.073,347.154 212.039,346.833 212.039 C 346.512 212.039,346.381 212.073,346.542 212.115 M349.794 212.118 C 350.001 212.158,350.301 212.156,350.460 212.115 C 350.620 212.073,350.450 212.040,350.083 212.042 C 349.717 212.044,349.586 212.078,349.794 212.118 M280.125 214.456 C 280.606 214.490,281.394 214.490,281.875 214.456 C 282.356 214.423,281.962 214.395,281.000 214.395 C 280.037 214.395,279.644 214.423,280.125 214.456 M276.627 214.618 C 276.834 214.658,277.134 214.656,277.294 214.615 C 277.453 214.573,277.283 214.540,276.917 214.542 C 276.550 214.544,276.420 214.578,276.627 214.618 M274.127 214.785 C 274.334 214.824,274.634 214.823,274.794 214.781 C 274.953 214.739,274.783 214.707,274.417 214.709 C 274.050 214.711,273.920 214.745,274.127 214.785 M271.708 214.948 C 271.869 214.990,272.131 214.990,272.292 214.948 C 272.452 214.906,272.321 214.872,272.000 214.872 C 271.679 214.872,271.548 214.906,271.708 214.948 M269.542 215.115 C 269.702 215.157,269.965 215.157,270.125 215.115 C 270.285 215.073,270.154 215.039,269.833 215.039 C 269.512 215.039,269.381 215.073,269.542 215.115 M265.208 215.448 C 265.369 215.490,265.631 215.490,265.792 215.448 C 265.952 215.406,265.821 215.372,265.500 215.372 C 265.179 215.372,265.048 215.406,265.208 215.448 M262.875 215.615 C 263.035 215.657,263.298 215.657,263.458 215.615 C 263.619 215.573,263.487 215.539,263.167 215.539 C 262.846 215.539,262.715 215.573,262.875 215.615 M317.460 215.618 C 317.668 215.658,317.968 215.656,318.127 215.615 C 318.286 215.573,318.117 215.540,317.750 215.542 C 317.383 215.544,317.253 215.578,317.460 215.618 M260.627 215.785 C 260.834 215.824,261.134 215.823,261.294 215.781 C 261.453 215.739,261.283 215.707,260.917 215.709 C 260.550 215.711,260.420 215.745,260.627 215.785 M293.875 215.782 C 294.035 215.823,294.298 215.823,294.458 215.782 C 294.619 215.740,294.487 215.705,294.167 215.705 C 293.846 215.705,293.715 215.740,293.875 215.782 M315.125 215.784 C 315.331 215.824,315.669 215.824,315.875 215.784 C 316.081 215.745,315.912 215.712,315.500 215.712 C 315.087 215.712,314.919 215.745,315.125 215.784 M258.708 215.948 C 258.869 215.990,259.131 215.990,259.292 215.948 C 259.452 215.906,259.321 215.872,259.000 215.872 C 258.679 215.872,258.548 215.906,258.708 215.948 M312.792 215.951 C 312.998 215.991,313.335 215.991,313.542 215.951 C 313.748 215.911,313.579 215.879,313.167 215.879 C 312.754 215.879,312.585 215.911,312.792 215.951 M298.627 216.118 C 298.834 216.158,299.134 216.156,299.294 216.115 C 299.453 216.073,299.283 216.040,298.917 216.042 C 298.550 216.044,298.420 216.078,298.627 216.118 M309.792 216.118 C 309.998 216.157,310.335 216.157,310.542 216.118 C 310.748 216.078,310.579 216.045,310.167 216.045 C 309.754 216.045,309.585 216.078,309.792 216.118 M303.875 216.290 C 304.402 216.323,305.265 216.323,305.792 216.290 C 306.319 216.257,305.887 216.230,304.833 216.230 C 303.779 216.230,303.348 216.257,303.875 216.290 M251.294 216.451 C 251.501 216.491,251.801 216.490,251.960 216.448 C 252.120 216.406,251.950 216.374,251.583 216.375 C 251.217 216.377,251.086 216.411,251.294 216.451 M248.127 216.618 C 248.334 216.658,248.634 216.656,248.794 216.615 C 248.953 216.573,248.783 216.540,248.417 216.542 C 248.050 216.544,247.920 216.578,248.127 216.618 M244.295 216.787 C 244.594 216.825,245.044 216.824,245.295 216.786 C 245.545 216.748,245.300 216.717,244.750 216.718 C 244.200 216.719,243.995 216.750,244.295 216.787 M210.292 216.951 C 210.498 216.991,210.835 216.991,211.042 216.951 C 211.248 216.911,211.079 216.879,210.667 216.879 C 210.254 216.879,210.085 216.911,210.292 216.951 M240.295 216.954 C 240.594 216.991,241.044 216.990,241.295 216.952 C 241.545 216.914,241.300 216.884,240.750 216.885 C 240.200 216.886,239.995 216.917,240.295 216.954 M234.214 217.123 C 234.745 217.157,235.570 217.156,236.048 217.123 C 236.526 217.089,236.092 217.062,235.083 217.062 C 234.075 217.063,233.684 217.090,234.214 217.123 M132.455 217.287 C 132.750 217.324,133.275 217.324,133.621 217.288 C 133.967 217.252,133.725 217.222,133.083 217.221 C 132.442 217.221,132.159 217.250,132.455 217.287 M374.375 218.123 C 374.810 218.157,375.523 218.157,375.958 218.123 C 376.394 218.088,376.037 218.060,375.167 218.060 C 374.296 218.060,373.940 218.088,374.375 218.123 " stroke="none" fill-rule="evenodd"></path></g>
</svg>