<!DOCTYPE svg PUBLIC "-//W3C//DTD SVG 20010904//EN"
 "http://www.w3.org/TR/2001/REC-SVG-20010904/DTD/svg10.dtd">
<svg xmlns="http://www.w3.org/2000/svg" viewBox="0 0 2048.000000 2048.000000"
 preserveAspectRatio="xMidYMid meet">
<g transform="translate(0.000000,2048.000000) scale(0.100000,-0.100000)"
fill="currentColor" stroke="none">
<path d="M15385 14639 c-170 -30 -350 -92 -469 -161 -256 -149 -483 -399 -601
-663 -58 -130 -80 -157 -167 -200 -183 -89 -371 -59 -636 102 -16 10 -53 33
-83 51 -30 18 -61 37 -69 42 -39 25 -249 140 -255 140 -4 0 -19 8 -33 18 -15
10 -56 31 -92 47 -36 15 -87 38 -115 51 -121 55 -391 149 -610 212 -108 31
-295 70 -450 92 -77 11 -169 24 -205 30 -36 5 -153 15 -260 21 -194 12 -440 4
-670 -21 -47 -5 -130 -14 -185 -20 -55 -6 -253 -31 -440 -55 -743 -97 -734
-96 -1050 -121 -135 -11 -359 -17 -690 -19 -500 -4 -565 -6 -740 -31 -541 -75
-1014 -319 -1310 -674 -247 -298 -404 -661 -430 -998 -4 -42 -8 -97 -10 -122
-14 -150 43 -441 116 -601 42 -92 124 -229 164 -278 87 -105 152 -175 197
-212 29 -24 59 -50 66 -56 27 -26 140 -102 242 -163 103 -62 372 -196 419
-209 37 -10 35 -24 -7 -47 -20 -12 -98 -56 -172 -98 -74 -43 -184 -104 -245
-136 -251 -133 -608 -266 -741 -277 -70 -6 -74 -5 -180 44 -217 100 -337 121
-502 87 -88 -18 -174 -53 -247 -100 -57 -38 -177 -156 -231 -229 -95 -128
-147 -176 -280 -263 -73 -48 -184 -115 -246 -150 -131 -73 -334 -215 -430
-301 -85 -78 -156 -173 -212 -286 -53 -106 -80 -200 -101 -345 -36 -255 0
-427 116 -553 58 -64 157 -127 199 -127 14 0 18 -13 23 -75 11 -145 98 -275
226 -338 64 -31 69 -32 191 -31 113 1 133 4 210 31 373 133 487 168 1000 303
636 168 995 252 1176 274 282 36 386 38 1552 31 l1142 -8 0 -261 c0 -144 4
-323 10 -397 5 -73 12 -170 15 -214 14 -200 38 -446 60 -620 13 -104 31 -260
40 -345 18 -185 40 -263 96 -348 43 -66 133 -149 197 -181 108 -55 69 -53
1082 -51 1049 1 971 -4 1059 76 59 53 83 105 89 191 4 64 1 79 -22 127 -41 84
-79 110 -436 290 -172 87 -307 146 -375 165 -56 15 -292 48 -475 66 -85 8
-170 18 -189 21 l-34 5 6 102 c9 157 50 456 128 942 54 333 87 524 94 535 4 6
17 10 30 10 53 0 316 54 400 82 319 107 587 315 705 547 68 136 117 355 105
475 -22 215 -83 399 -179 539 -14 21 -26 39 -26 41 0 10 375 372 440 426 95
78 165 117 315 175 206 80 343 157 520 290 170 128 324 293 422 450 39 61 143
278 143 296 0 29 19 39 125 68 249 67 456 87 605 57 88 -18 180 -54 214 -84
23 -21 52 -66 107 -168 60 -112 88 -151 156 -215 156 -149 338 -176 593 -90
149 51 488 218 650 320 107 68 309 207 320 221 3 3 34 28 70 55 100 75 389
370 457 465 113 159 211 358 249 506 70 277 51 591 -51 856 -200 516 -633 878
-1153 963 -96 16 -356 18 -437 4z m426 -298 c246 -51 438 -159 622 -350 181
-189 275 -365 324 -611 22 -114 22 -325 -1 -444 -56 -289 -273 -589 -636 -882
-150 -121 -457 -312 -690 -429 -101 -51 -324 -136 -372 -142 -133 -16 -243 98
-356 367 -100 239 -141 386 -149 537 -7 117 3 165 54 261 38 74 40 91 13 147
-38 78 -134 107 -201 62 -45 -30 -106 -138 -130 -229 -26 -103 -26 -278 2
-426 12 -62 19 -115 16 -118 -3 -3 -30 -1 -61 5 -125 23 -227 24 -391 2 -88
-11 -186 -27 -218 -36 -32 -8 -61 -15 -65 -15 -4 0 -7 71 -7 157 0 177 -9 209
-73 246 -44 26 -115 26 -149 0 -59 -44 -67 -64 -69 -190 -5 -222 -21 -338 -66
-473 -71 -216 -249 -455 -450 -603 -165 -122 -289 -190 -553 -302 -230 -97
-225 -93 -710 -564 -230 -223 -452 -424 -575 -519 -168 -130 -330 -273 -373
-330 -98 -129 -123 -224 -177 -667 -32 -268 -50 -390 -91 -630 -136 -793 -148
-875 -178 -1180 -10 -104 -16 -215 -14 -245 9 -103 66 -184 161 -228 42 -19
92 -28 230 -43 477 -52 490 -54 619 -109 129 -56 492 -232 493 -240 0 -10
-1715 -1 -1750 10 -43 12 -115 71 -136 111 -8 16 -19 77 -24 136 -6 60 -17
155 -25 213 -8 58 -21 161 -30 230 -8 69 -20 159 -25 200 -11 89 -36 458 -50
760 -12 239 -11 847 0 1040 4 69 11 186 14 260 10 205 25 371 38 410 20 65 80
175 154 281 40 58 79 110 86 116 7 6 117 36 243 67 127 31 259 66 295 78 405
133 688 411 770 756 32 132 25 308 -18 472 -16 63 -33 122 -36 130 -5 11 41
56 155 155 202 175 280 251 347 340 76 100 145 249 178 381 l27 112 -23 47
c-13 26 -36 55 -54 66 -63 38 -157 14 -190 -49 -8 -15 -22 -57 -31 -92 -9 -36
-34 -103 -56 -149 -60 -129 -125 -208 -276 -340 -46 -39 -118 -102 -162 -141
l-78 -69 -154 152 c-85 84 -190 180 -234 214 -184 144 -335 250 -499 353 -142
88 -463 267 -606 336 -402 196 -501 239 -990 429 -158 62 -341 115 -393 115
-44 0 -54 -4 -88 -39 -35 -35 -39 -44 -39 -91 0 -54 19 -98 51 -118 10 -7 114
-46 231 -88 634 -226 1214 -499 1682 -792 400 -250 729 -526 857 -722 93 -142
125 -229 136 -371 15 -199 -92 -413 -279 -556 -117 -91 -287 -162 -543 -226
-287 -73 -776 -175 -1185 -247 -129 -23 -302 -54 -385 -70 -82 -15 -242 -45
-355 -65 -263 -48 -979 -190 -1090 -216 -459 -110 -624 -155 -920 -252 -196
-65 -276 -98 -535 -222 -77 -37 -167 -80 -200 -95 -243 -113 -686 -329 -1011
-494 -212 -107 -414 -207 -449 -221 -164 -65 -231 -1 -229 215 3 203 61 386
160 503 92 109 282 248 539 394 164 93 206 119 260 162 74 59 186 175 232 241
91 129 167 193 278 235 121 46 189 35 430 -70 93 -41 122 -49 189 -53 166 -10
469 87 841 268 229 111 341 174 785 440 535 321 675 394 927 481 207 71 286
83 553 83 248 0 294 -7 515 -70 76 -22 108 -14 156 36 41 43 50 75 38 128 -17
78 -99 117 -364 172 -145 30 -431 38 -584 16 -245 -35 -482 -105 -691 -203
-103 -49 -388 -205 -517 -284 -36 -21 -70 -39 -77 -39 -42 0 -428 159 -497
205 -21 14 -41 25 -43 25 -14 0 -200 118 -266 168 -189 145 -335 336 -404 529
-103 290 -71 654 88 998 188 405 550 708 1016 850 120 36 148 43 275 66 110
20 169 22 685 29 671 9 912 26 1551 110 167 22 358 46 424 55 66 8 145 20 175
25 213 36 666 65 895 56 550 -21 1121 -163 1635 -408 104 -50 203 -106 395
-225 229 -142 382 -201 590 -228 64 -8 212 10 287 36 87 29 195 96 264 164 52
51 72 82 136 215 175 359 441 577 799 655 98 21 318 19 430 -4z m-4364 -4533
c36 -61 81 -183 97 -260 40 -194 1 -353 -127 -523 -116 -155 -331 -278 -590
-340 -109 -26 -176 -34 -178 -22 -3 11 9 106 37 307 41 291 44 295 384 572
113 92 237 196 275 232 39 36 73 65 77 66 3 0 15 -15 25 -32z m-2027 -3 c0 -3
-15 -36 -34 -73 -45 -89 -74 -196 -86 -317 -12 -120 -30 -454 -39 -699 l-6
-179 -674 2 c-371 1 -678 4 -682 7 -4 2 -221 4 -482 4 -737 0 -939 -23 -1537
-177 -118 -31 -325 -84 -460 -119 -386 -99 -828 -229 -988 -290 -120 -45 -162
-56 -229 -61 l-82 -6 -36 36 c-32 32 -35 40 -35 90 0 49 3 58 30 80 33 28
1035 529 1370 685 36 16 135 62 220 102 437 204 614 266 1150 404 404 104 942
213 1830 371 290 51 618 113 715 134 54 12 55 12 55 6z"/>
</g>
</svg>