<svg viewBox="0 0 2816 1536" xmlns="http://www.w3.org/2000/svg">
<g fill="#4FD1C5">
<path d="M0 0 C842.82 0 1685.64 0 2554 0 C2554 389.07 2554 778.14 2554 1179 C2553.67 1179 2553.34 1179 2553 1179 C2552.77957031 1177.52853516 2552.77957031 1177.52853516 2552.5546875 1176.02734375 C2550.11392318 1160.89498309 2545.30112514 1148.38924574 2536 1136 C2535.49210937 1135.29617188 2534.98421875 1134.59234375 2534.4609375 1133.8671875 C2520.96524388 1116.77264225 2497.07175203 1106.95838971 2476.5625 1101.875 C2475.51118896 1101.61348145 2474.45987793 1101.35196289 2473.37670898 1101.08251953 C2466.35111318 1099.40268258 2459.47227945 1098.29905511 2452.28417969 1097.67822266 C2403.09959754 1093.42325147 2358.70114078 1074.68045349 2315 1053 C2312.87524791 1051.9565263 2310.75025587 1050.91354102 2308.625 1049.87109375 C2276.19345261 1033.89194286 2245.02005534 1015.53498929 2214 997 C2213.06655762 996.44296387 2212.13311523 995.88592773 2211.17138672 995.31201172 C2182.94658965 978.46161726 2155.14650098 961.02232069 2127.74690247 942.85806274 C2098.66160817 923.22542564 2098.66160817 923.22542564 2067.90625 906.42578125 C2065.11383367 905.05584582 2062.41179503 903.5620202 2059.6965332 902.04663086 C2047.64663725 895.39422142 2034.87685605 890.34165368 2022.15597534 885.13809204 C2018.8821659 883.79483022 2015.64502291 882.39970464 2012.43359375 880.9140625 C2006.47323177 878.23405362 2000.26026517 876.23938702 1994.0625 874.1875 C1993.4112616 873.97067566 1992.76002319 873.75385132 1992.08905029 873.53045654 C1979.74754283 869.43389786 1967.29271784 865.8978811 1954.68994141 862.68896484 C1952.42690025 862.1093404 1950.17147645 861.50985685 1947.91796875 860.89453125 C1915.08002314 852.17806681 1881.04531816 848.0368211 1847.29421997 844.82910156 C1827.7613827 842.97069031 1808.30765101 840.51985284 1788.84983826 838.00437927 C1784.73324872 837.47239343 1780.61683338 836.94907502 1776.4934082 836.47265625 C1768.26401306 835.51556419 1760.24817645 834.17328445 1752.1875 832.25 C1751.07439453 831.98832031 1749.96128906 831.72664062 1748.81445312 831.45703125 C1739.81310479 829.29339491 1731.0090092 826.7124589 1722.24121094 823.75 C1719.93072852 822.97681895 1717.61176231 822.23560142 1715.2890625 821.5 C1706.90182213 818.82128853 1698.8842629 815.84622119 1690.96972656 811.95166016 C1688.63735628 810.82479112 1686.28458092 809.74697107 1683.9296875 808.66796875 C1670.4606176 802.4432892 1657.67063049 795.39566652 1644.95214844 787.76416016 C1642.04365587 786.0260881 1639.12246335 784.31189956 1636.1953125 782.60546875 C1626.97931791 777.22484938 1617.88435653 771.72189481 1608.95898438 765.87109375 C1604.13751017 762.71488609 1599.25157792 759.70330293 1594.29516602 756.76464844 C1588.400526 753.26191455 1582.56404867 749.66699456 1576.72872925 746.06646729 C1552.87302956 731.34969003 1528.78094607 717.09869627 1504.11328125 703.77734375 C1500.80127978 701.98705584 1497.5075411 700.16984917 1494.23046875 698.31640625 C1486.31623463 693.84146086 1478.38643882 689.60248003 1470.09448242 685.86230469 C1466.23046533 684.10854911 1462.50735733 682.20174349 1458.796875 680.140625 C1452.72530942 676.7934598 1446.49009824 673.8826431 1440.1875 671 C1438.34858831 670.15385832 1436.51028932 669.30639455 1434.67199707 668.45890808 C1433.39803391 667.87171815 1432.12386201 667.28498091 1430.8494873 666.69868469 C1426.27049243 664.5909604 1421.70113717 662.46331105 1417.13671875 660.32421875 C1416.49162354 660.0219487 1415.84652832 659.71967865 1415.18188477 659.4082489 C1413.88824069 658.80205104 1412.59460054 658.19584483 1411.30096436 657.58963013 C1401.88285465 653.17814635 1392.44891797 648.81313261 1382.92944336 644.6237793 C1376.54579227 641.8130843 1370.22546035 638.87689056 1363.91699219 635.90185547 C1361.89746173 634.95176053 1359.87478673 634.0086078 1357.8515625 633.06640625 C1329.17432286 619.68828383 1305.93907462 606.56999948 1288.44088745 579.20477295 C1281.45368418 568.30758715 1274.33738365 557.89660882 1265.39990234 548.48242188 C1264.02734273 547.02895449 1262.69472779 545.53809512 1261.36328125 544.046875 C1250.16603607 531.52738412 1238.3996559 519.16905393 1225 509 C1223.77843838 508.04974579 1222.55710017 507.09920434 1221.3359375 506.1484375 C1206.76554448 494.90965092 1191.1910463 485.69681761 1175 477 C1173.86433594 476.38382812 1172.72867187 475.76765625 1171.55859375 475.1328125 C1148.20867419 462.938029 1122.55954367 455.37587857 1096.9375 449.6875 C1095.92469971 449.45716064 1094.91189941 449.22682129 1093.8684082 448.98950195 C1074.41482977 444.88553035 1054.69765606 443.54594616 1034.85935974 443.80507088 C1031.40557861 443.8492643 1027.95218312 443.8716605 1024.49816895 443.88926697 C1015.93123642 443.93654712 1007.36465676 444.01349492 998.79803467 444.09979248 C991.51278134 444.17307944 984.22779622 444.22943651 976.94224548 444.26269341 C973.59362941 444.28434866 970.24593038 444.32976308 966.89758301 444.37623596 C947.29607657 444.53256284 927.9648699 442.00914868 909 437 C907.52361437 436.62560392 906.0470354 436.25196982 904.5703125 435.87890625 C844.7517835 420.62415063 791.02811411 390.48556302 739.35449219 357.50097656 C736.82549061 355.88875117 734.29198591 354.28377027 731.7578125 352.6796875 C721.12849686 345.94446742 710.55198781 339.13331584 700.02636719 332.23706055 C694.57104228 328.66460376 689.0889793 325.13875831 683.58276367 321.64526367 C680.6259248 319.76170784 677.68848079 317.8499712 674.75366211 315.93237305 C666.28851791 310.40893608 657.71494494 305.11848241 649 300 C648.1352002 299.49098145 647.27040039 298.98196289 646.37939453 298.45751953 C583.15738265 261.2840619 516.2684309 227.5079191 444 212 C442.94554687 211.74863281 441.89109375 211.49726563 440.8046875 211.23828125 C428.36836104 208.35073125 415.64859497 206.67115569 403 205 C402.38145142 204.91117554 401.76290283 204.82235107 401.12561035 204.73083496 C393.83514598 203.78249224 386.53613962 203.81693994 379.1953125 203.796875 C378.48705196 203.79404762 377.77879143 203.79122025 377.04906845 203.78830719 C373.28319693 203.77337113 369.517363 203.7641127 365.75146484 203.75976562 C362.69925691 203.75542554 359.64733878 203.74170202 356.59521484 203.71875 C332.12293295 203.53863542 308.05326367 204.50347859 284.0625 209.875 C282.8664917 210.1318457 281.6704834 210.38869141 280.43823242 210.65332031 C271.68892907 212.55628646 262.99392353 214.65584567 254.33203125 216.921875 C230.65506215 222.91665911 208.09698925 221.27117955 186.75537109 209.06884766 C182.46658797 206.45740225 178.70662161 203.36840101 175 200 C174.37996094 199.4946875 173.75992188 198.989375 173.12109375 198.46875 C163.44822764 189.98605757 159.15883877 176.58845806 155.74853516 164.60986328 C147.24539334 134.96257497 137.26650284 105.38586992 118.26220703 80.65185547 C117.00349522 79.00457421 115.77992314 77.33527562 114.55859375 75.66015625 C103.69498289 61.02229361 90.39767367 47.96174694 75.67675781 37.22363281 C73.96673487 35.9757244 72.27634851 34.70399734 70.5859375 33.4296875 C55.97418265 22.56072312 40.0359966 14.33803665 23 8 C22.05640625 7.63648438 21.1128125 7.27296875 20.140625 6.8984375 C13.53828 4.39870572 6.87692115 2.5842122 0 1 C0 0.67 0 0.34 0 0 Z " transform="translate(262,0)"/>
<path d="M0 0 C0.55042969 0.15855469 1.10085938 0.31710937 1.66796875 0.48046875 C8.18275896 2.30865019 14.73911678 3.96043388 21.3125 5.5625 C22.15256592 5.77221436 22.99263184 5.98192871 23.8581543 6.19799805 C36.61442688 9.27032271 49.02675553 10.30834482 62.09521484 10.20581055 C64.49717894 10.18752148 66.89875452 10.18530212 69.30078125 10.18554688 C77.51703044 10.16650617 85.64671783 9.89277484 93.84130859 9.23803711 C98.58265103 8.88073236 103.30912268 8.74012041 108.0625 8.6875 C109.37831055 8.64399414 109.37831055 8.64399414 110.72070312 8.59960938 C123.53491217 8.47863282 134.30007262 13.82075755 145.31402588 19.74026489 C148.71981844 21.56756419 152.1479634 23.35207806 155.57421875 25.140625 C156.23474243 25.4863002 156.89526611 25.8319754 157.57580566 26.18812561 C171.23366443 33.31780927 185.29930841 38.45537763 200 43 C200.97646484 43.30470215 201.95292969 43.6094043 202.95898438 43.92333984 C217.87262902 48.51826361 232.63742768 51.49024054 248.0925293 53.57763672 C251.88975473 54.12925314 255.65196173 54.83105346 259.42285156 55.5378418 C261.7873534 55.96186624 264.14695486 56.31978311 266.52734375 56.640625 C275.16659676 57.81663884 283.45527253 59.48703618 291.8125 62 C292.64193115 62.24911133 293.4713623 62.49822266 294.32592773 62.75488281 C298.79284611 64.1527127 302.83829562 65.83097611 307 68 C308.80299238 68.71206107 310.61636776 69.39820349 312.4375 70.0625 C317.68428495 72.03748028 322.79224984 74.22386744 327.90795898 76.51611328 C353.07085976 87.74709614 379.87105415 96.09868297 407 101 C409.47953138 101.51909424 411.95869079 102.03996805 414.4375 102.5625 C420.98804678 103.88223241 427.51142794 104.75124217 434.1484375 105.47265625 C436.87741639 105.8462994 439.4030871 106.28876132 442.06860352 106.91088867 C447.27052121 108.08539677 452.50308893 109.02618441 457.75390625 109.953125 C459.8483758 110.3290456 461.94277446 110.70536129 464.03710938 111.08203125 C467.27367036 111.66256073 470.51055347 112.24083741 473.7487793 112.81201172 C493.4294854 116.29034906 513.17866143 120.12916717 532 127 C534.0375414 127.70506033 536.07531013 128.40946398 538.11328125 129.11328125 C558.8845237 136.43808604 577.84436074 145.90410006 597.13916016 156.44018555 C602.91158467 159.58748203 608.69659317 162.71162824 614.48095703 165.83691406 C619.41792492 168.50703621 624.34898076 171.18545742 629.25390625 173.9140625 C652.52829305 186.82967676 676.50204446 198.50181367 700.57324219 209.85058594 C702.88025008 210.94328142 705.17941275 212.05082051 707.4765625 213.1640625 C716.52068817 217.52454911 725.70010744 221.38679605 735.05078125 225.04296875 C738.56465546 226.42028574 742.05385216 227.84701761 745.53515625 229.3046875 C753.37113023 232.58345518 761.24295146 235.77138944 769.125 238.9375 C769.8980246 239.24814392 770.67104919 239.55878784 771.46749878 239.87884521 C781.32406034 243.83106893 791.16749815 247.64195052 801.31640625 250.7890625 C804.0475706 251.6869002 806.60071553 252.65068074 809.2421875 253.7578125 C817.4956727 257.10861647 826.06756171 259.59229624 834.5625 262.25 C837.32939615 263.11951718 840.09594589 263.99012987 842.86245728 264.86087036 C844.6897679 265.43593022 846.5172206 266.01053884 848.34481812 266.58468628 C853.50241705 268.20653003 858.65192025 269.8498636 863.79296875 271.5234375 C864.90663818 271.8853418 866.02030762 272.24724609 867.16772461 272.62011719 C869.12957387 273.25971889 871.09017319 273.90317684 873.04907227 274.55175781 C878.84357494 276.43439818 884.6580299 277.88575738 890.60302734 279.21386719 C896.50836664 280.5804902 902.34052589 282.21766012 908.1875 283.8125 C925.80173801 288.57386039 943.53124978 292.86016311 961.45410156 296.30297852 C964.82204733 296.96501963 968.17402043 297.67803172 971.52734375 298.41015625 C993.45681483 303.1208568 1015.55419048 306.63341432 1037.75 309.8125 C1038.8092569 309.96529419 1039.86851379 310.11808838 1040.95986938 310.2755127 C1051.96697447 311.8566332 1062.8974552 313.31122701 1074 314 C1079.35750968 314.51342801 1084.67566863 315.22166954 1090 316 C1091.05880371 316.15452637 1092.11760742 316.30905273 1093.20849609 316.46826172 C1112.36823455 319.33969902 1130.70743149 323.00039065 1148 332 C1155.09649216 335.48937623 1162.33809455 338.26184435 1169.80371094 340.83496094 C1173.64995079 342.16166482 1177.4354082 343.54614949 1181.1875 345.125 C1187.3143795 347.60420166 1193.60676208 349.35303319 1200 351 C1200.90282715 351.23509277 1201.8056543 351.47018555 1202.73583984 351.71240234 C1205.88100659 352.5190789 1209.03285335 353.29378042 1212.1875 354.0625 C1213.14591797 354.30790527 1214.10433594 354.55331055 1215.09179688 354.80615234 C1237.00966247 360.00033859 1259.83833197 360.5220088 1282.25 361.125 C1287.17200452 361.2692557 1292.09383702 361.41886035 1297.015625 361.5703125 C1298.17458786 361.6057869 1299.33355072 361.64126129 1300.52763367 361.67781067 C1312.15904169 362.04625399 1323.71551371 362.47243951 1335.1875 364.5625 C1336.11747803 364.72814453 1337.04745605 364.89378906 1338.00561523 365.06445312 C1347.56966651 366.8259513 1357.06719515 368.90450376 1366.5625 371 C1367.32436615 371.16726593 1368.0862323 371.33453186 1368.8711853 371.50686646 C1381.20073769 374.22529372 1393.36877878 377.30368511 1405.3125 381.4375 C1410.466448 383.1930256 1415.64329595 384.80521886 1420.875 386.3125 C1427.95607984 388.35962514 1434.98202507 390.55886789 1442 392.8125 C1443.06210693 393.15313477 1444.12421387 393.49376953 1445.21850586 393.84472656 C1450.56613012 395.56347683 1455.9088743 397.29608556 1461.24609375 399.046875 C1473.06460748 402.90442298 1484.91434391 406.40011867 1496.93945312 409.55786133 C1503.91912674 411.40137775 1510.75737863 413.44192182 1517.55859375 415.859375 C1525.7165473 418.56325972 1534.10638961 420.56012128 1542.41308594 422.75219727 C1554.05544513 425.82996712 1565.65239282 429.0177221 1577.20043945 432.43579102 C1584.06566848 434.45925686 1590.95712666 436.35280489 1597.875 438.1875 C1614.05585157 442.48728911 1630.13549461 447.1441892 1646.2260437 451.76800537 C1653.39479273 453.82798778 1660.56654028 455.87738368 1667.73982239 457.92152405 C1682.75312573 462.20478417 1697.60536877 466.82057236 1712.39916992 471.81469727 C1718.21533849 473.7700794 1724.01728585 475.63718419 1729.9375 477.25 C1735.17883845 478.68063829 1740.02766147 480.61364271 1745.00390625 482.78125 C1749.05652184 484.42977159 1753.1957415 485.63536859 1757.40625 486.8125 C1771.9995143 491.63462212 1786.00452809 498.69232871 1800 505 C1800.91894043 505.41330566 1801.83788086 505.82661133 1802.78466797 506.25244141 C1819.99985184 514.04240369 1836.46954642 522.81830467 1851 535 C1851.87914063 535.72703125 1852.75828125 536.4540625 1853.6640625 537.203125 C1881.01203229 560.74100612 1887.42834836 596.28148559 1896.13769531 629.7109375 C1896.86597471 632.48879142 1897.60936369 635.26135237 1898.3671875 638.03125 C1902.08869347 651.69659614 1905.10903055 665.52149516 1908.17944336 679.34423828 C1909.22220507 683.98997282 1910.30402381 688.62617799 1911.39526367 693.26074219 C1912.28683822 697.29928332 1912.78135864 699.880109 1912 704 C1907.2414849 709.46633547 1901.17722357 712.76406161 1894.75 715.875 C1880.15419124 723.25644655 1867.61571503 732.18556875 1860 747 C1859.58363281 747.79792969 1859.16726563 748.59585938 1858.73828125 749.41796875 C1854.00463238 760.13096355 1854.42067115 773.42298743 1857.9375 784.4375 C1863.91225822 798.84424096 1873.78280378 808.12544853 1887.91015625 814.15234375 C1888.59980469 814.43207031 1889.28945312 814.71179687 1890 815 C1890 815.33 1890 815.66 1890 816 C1213.5 816 537 816 -160 816 C-156.81462671 813.87641781 -154.50742676 813.28491292 -150.8125 812.375 C-124.31086358 804.9906431 -102.10024307 786.35210893 -88 763 C-86.10996921 759.33595743 -84.44413589 755.59758981 -82.8125 751.8125 C-82.17538086 750.40387695 -82.17538086 750.40387695 -81.52539062 748.96679688 C-76.48562592 737.39023005 -74.74171866 725.44845685 -73.46542358 712.96505737 C-71.03431974 689.37828742 -67.69988917 665.90155873 -64.46862793 642.41442871 C-63.99780009 638.98397141 -63.53014282 635.55309606 -63.06347656 632.12207031 C-62.29927341 626.50469552 -61.52906285 620.88817562 -60.75430298 615.27224731 C-60.46563576 613.17504819 -60.17859804 611.07762395 -59.8934021 608.97994995 C-58.37865345 597.85839566 -56.66122324 586.82634957 -54.49639893 575.81207275 C-52.58225935 566.02053916 -51.06908075 556.17354145 -49.5625 546.3125 C-49.26112115 544.35950438 -48.95952276 542.40654264 -48.65771484 540.45361328 C-47.22926811 531.18360111 -45.82976824 521.90963399 -44.47265625 512.62890625 C-44.35610184 511.83198868 -44.23954742 511.03507111 -44.11946106 510.21400452 C-43.57738238 506.49932684 -43.04002392 502.78404528 -42.51000977 499.06762695 C-42.32365967 497.77429443 -42.13730957 496.48096191 -41.9453125 495.1484375 C-41.78562988 494.02614746 -41.62594727 492.90385742 -41.46142578 491.74755859 C-41 489 -41 489 -40 486 C-39.65364985 483.1040471 -39.34345963 480.21479872 -39.0625 477.3125 C-38.46014568 471.34453286 -37.82373458 465.38781695 -37.0625 459.4375 C-34.98146727 443.06562535 -33.12995398 426.66647795 -31.4375 410.25 C-31.322854 409.17218262 -31.20820801 408.09436523 -31.09008789 406.98388672 C-28.67776236 383.10032306 -27.56702766 359.23148283 -27.56314087 335.23169708 C-27.56248596 333.0788309 -27.55786853 330.92599322 -27.55322266 328.77313232 C-27.52717292 307.43221289 -28.66465687 286.42590244 -30.85479736 265.18383789 C-32.52441044 248.96009117 -33.48885845 232.93907859 -33.4375 216.625 C-33.4370166 215.21435272 -33.4370166 215.21435272 -33.43652344 213.77520752 C-33.4138286 204.64762937 -33.32389718 195.87972302 -31 187 C-30.62340477 185.29156801 -30.25256206 183.58186039 -29.88671875 181.87109375 C-29.48719636 180.05984791 -29.08744747 178.24865202 -28.6875 176.4375 C-26.61075029 166.97158333 -24.68026238 157.48215362 -22.80322266 147.97485352 C-21.63525692 142.08792209 -20.40214615 136.22501954 -19.0625 130.375 C-9.34104676 87.39278843 -3.91172465 43.85249218 0 0 Z " transform="translate(696,720)"/>
<path d="M0 0 C0.33 0 0.66 0 1 0 C1.10022461 0.66829834 1.20044922 1.33659668 1.30371094 2.02514648 C6.89302499 38.96088001 16.77923914 70.9524034 40.78515625 100.29296875 C42 102 42 102 42 104 C42.99 104.33 43.98 104.66 45 105 C46.4375 106.49609375 46.4375 106.49609375 48 108.4375 C53.69554252 115.1565544 60.42242759 120.81418508 67.125 126.5 C80.97554996 138.71109711 87.846247 153.03080976 93.27481079 170.32015991 C94.51908577 174.27478969 95.81682759 178.21199786 97.10546875 182.15234375 C97.35580368 182.92195938 97.60613861 183.69157501 97.86405945 184.48451233 C104.82152477 208.36769689 104.82152477 208.36769689 121.484375 225.78125 C132.18277065 230.96432367 143.73241019 231.32191891 155 228 C155.886875 227.62875 156.77375 227.2575 157.6875 226.875 C160.73284529 225.72270719 162.73829905 225.69649661 166 226 C168.61616051 227.25493027 170.93277502 228.53010621 173.375 230.0625 C174.0976001 230.50150635 174.8202002 230.9405127 175.56469727 231.39282227 C178.05337467 232.91253995 180.5273178 234.45440143 183 236 C184.40789795 236.87543457 184.40789795 236.87543457 185.84423828 237.76855469 C190.93700768 240.93616187 196.02181108 244.11625118 201.1015625 247.3046875 C234.46635556 270.03364718 234.46635556 270.03364718 273.28515625 273.50341797 C298.51066539 266.68642416 313.90711848 249.66375706 327.72265625 228.45703125 C332.52743043 221.10278505 337.91557784 213.04221108 346 209 C352.92193519 209.43818383 359.20033047 210.96227318 365.8125 213 C366.81297363 213.30760254 367.81344727 213.61520508 368.84423828 213.93212891 C385.0823588 219.09332068 400.0973805 226.83444553 415 235 C414.93941406 235.58974609 414.87882812 236.17949219 414.81640625 236.78710938 C410.83067656 276.92034144 414.43997114 312.97933308 424 352 C424.18949219 352.7748877 424.37898438 353.54977539 424.57421875 354.34814453 C426.97503476 364.02135717 429.93973171 373.5196795 433 383 C433.24008789 383.7528125 433.48017578 384.505625 433.72753906 385.28125 C436.33479306 393.43954152 439.02015284 401.35401841 442.70703125 409.09765625 C447.12884023 419.0233483 450.52021933 429.22796223 452 440 C452.16496475 441.01390808 452.3299295 442.02781616 452.49989319 443.07244873 C454.29217488 455.17494967 454.29563242 467.21378193 454.30496025 479.42975616 C454.30867725 483.353779 454.32521203 487.27763855 454.34571838 491.20159912 C454.39439228 500.95283355 454.42555386 510.70411299 454.44702148 520.45544434 C454.46373758 528.03511995 454.487088 535.61464862 454.53004223 543.19422698 C454.5478806 546.44111094 454.55861548 549.68776138 454.55874443 552.93470001 C454.56005 577.07165316 456.9747423 600.70222315 460.625 624.54296875 C461.00894905 627.05863493 461.3798588 629.5760187 461.75 632.09375 C462.92513844 639.95402065 464.2550552 647.65294577 466.29931641 655.34326172 C473.9093932 684.19791528 471.28394482 711.32950177 465 740 C464.76023437 741.09957031 464.52046875 742.19914063 464.2734375 743.33203125 C463.41747258 747.24290544 462.55498746 751.15232485 461.69140625 755.06152344 C451.62961958 801.11228236 451.77678831 851.53376191 459 898 C459.15742676 899.01594238 459.31485352 900.03188477 459.47705078 901.07861328 C461.52669567 914.25656713 463.65343947 927.42161174 465.8125 940.58203125 C467.48483135 950.77856792 469.12052245 960.97871604 470.63381958 971.20016479 C470.92032043 973.13403833 471.21183187 975.06716765 471.50366211 977.00024414 C473.95456514 993.74522495 475.26881452 1010.4646117 475.89138794 1027.3687439 C476.08028577 1032.48851727 476.2895196 1037.60747714 476.49609375 1042.7265625 C476.55777992 1044.27336952 476.55777992 1044.27336952 476.62071228 1045.85142517 C477.02842596 1055.96735697 477.53342788 1066.07729743 478.0625 1076.1875 C478.14706684 1077.82771325 478.23154102 1079.46793127 478.31591797 1081.1081543 C478.63419919 1087.25994341 478.9535101 1093.41109036 479.34765625 1099.55859375 C479.99673257 1109.95457894 480.1578213 1120.3551699 480.23016357 1130.76922607 C480.24326126 1132.44851078 480.26111119 1134.12776596 480.28399658 1135.8069458 C480.31407376 1138.1800763 480.32367065 1140.55248048 480.328125 1142.92578125 C480.34042145 1143.63542526 480.3527179 1144.34506927 480.36538696 1145.07621765 C480.33733162 1151.50831124 478.85871166 1156.05277826 474.375 1160.75 C463.76362856 1168.6631254 447.89759953 1168.20387801 435.29043579 1168.7746582 C401.29427949 1170.39678829 371.98334844 1179.94142602 340.40136719 1192.07958984 C338.18525576 1192.92899408 335.96520928 1193.76653602 333.7421875 1194.59765625 C330.3206055 1195.8798566 326.90861849 1197.18380078 323.5 1198.5 C316.5359222 1201.18909935 309.56860625 1203.82349466 302.5065918 1206.24438477 C290.18119295 1210.47835827 278.0294256 1215.13653333 265.89160156 1219.87792969 C263.39988248 1220.84482777 260.90229841 1221.7917124 258.3984375 1222.7265625 C243.46973662 1228.35823823 232.16209699 1235.71389251 225.0078125 1250.34765625 C220.91068906 1261.13039584 219.95005679 1274.5886808 223.875 1285.58984375 C225.77669732 1289.66396614 228.02937732 1293.5059527 230.37890625 1297.3359375 C232 1300 232 1300 232.96484375 1302.2265625 C234.30927766 1304.52985682 235.57497378 1304.94886454 238 1306 C239.59813064 1306.99750869 241.18132597 1308.0192805 242.75 1309.0625 C243.54921875 1309.58972656 244.3484375 1310.11695313 245.171875 1310.66015625 C246.07679688 1311.32337891 246.07679688 1311.32337891 247 1312 C247 1312.33 247 1312.66 247 1313 C165.49 1313 83.98 1313 0 1313 C0 879.71 0 446.42 0 0 Z " transform="translate(0,223)"/>
<path d="M0 0 C0.33 0 0.66 0 1 0 C1 109.23 1 218.46 1 331 C-54.11 331 -109.22 331 -166 331 C-162.7766519 329.38832595 -159.65364252 328.04402059 -156.30078125 326.75 C-137.69562927 319.46203301 -121.67023647 311.9819619 -106.85546875 298.46875 C-104 296 -104 296 -101.73828125 294.90625 C-99.41160059 293.69323896 -99.13124752 292.345675 -98 290 C-96.3664852 288.21901511 -94.69433998 286.47322077 -93 284.75 C-65.93375289 255.99852123 -56.4165846 213.8938768 -52.03872681 175.89889526 C-47.40498366 136.39624722 -36.1163406 100.29004168 -19.90463257 64.08969116 C-14.72584224 52.52143138 -10.06471755 40.88792773 -6.375 28.75 C-5.9272522 27.28324829 -5.9272522 27.28324829 -5.47045898 25.78686523 C-2.94735773 17.28431216 -1.23665272 8.77434551 0 0 Z " transform="translate(2815,1205)"/>
<path d="M0 0 C53.13 0 106.26 0 161 0 C161 0.33 161 0.66 161 1 C160.22140625 1.20753906 159.4428125 1.41507812 158.640625 1.62890625 C132.10267281 8.93601521 107.84440094 19.42765501 86.41015625 37.0234375 C84.85255864 38.30081901 83.27785511 39.55774428 81.68359375 40.7890625 C70.18064254 49.69579572 59.31545582 59.81809004 50 71 C49.58331055 71.49902832 49.16662109 71.99805664 48.73730469 72.51220703 C29.25653427 96.03548596 14.41220549 123.27850937 7 153 C6.60554687 154.48886719 6.60554687 154.48886719 6.203125 156.0078125 C3.64984984 166.19485932 2.37585035 176.60222848 1 187 C0.67 187 0.34 187 0 187 C0 125.29 0 63.58 0 0 Z " transform="translate(0,0)"/>
<path d="M0 0 C0.639375 0.66 1.27875 1.32 1.9375 2 C2.95505118 3.00333957 3.97640058 4.00283155 5 5 C5.94746094 5.94166016 5.94746094 5.94166016 6.9140625 6.90234375 C12.70251289 12.38558494 18.75116609 15.75911923 26 19 C26.91265625 19.41507813 27.8253125 19.83015625 28.765625 20.2578125 C30.83684121 21.18920847 32.91321868 22.10415953 35 23 C34.505 24.485 34.505 24.485 34 26 C31.70906191 27.01387469 29.4844754 27.8694149 27.125 28.6875 C12.45380677 34.16649204 1.34004575 44.20000991 -6 58 C-7.36759771 61.4549837 -8.61798212 64.91012657 -9.76171875 68.4453125 C-11 71 -11 71 -13.14453125 71.8671875 C-13.75683594 71.91101562 -14.36914062 71.95484375 -15 72 C-15.83719383 69.70967689 -16.6698929 67.41789043 -17.5 65.125 C-17.73847656 64.47402344 -17.97695312 63.82304688 -18.22265625 63.15234375 C-20 58.2265625 -20 58.2265625 -20 56 C-20.66 55.67 -21.32 55.34 -22 55 C-21.63648437 54.48953125 -21.27296875 53.9790625 -20.8984375 53.453125 C-10.01974315 37.72085933 -2.74726392 18.95914 0 0 Z " transform="translate(2717,1400)"/>
<path d="M0 0 C13.53 0 27.06 0 41 0 C41 0.33 41 0.66 41 1 C39.02 1.33 37.04 1.66 35 2 C34.67 2.99 34.34 3.98 34 5 C24.1 5.33 14.2 5.66 4 6 C4 5.34 4 4.68 4 4 C4.66 4 5.32 4 6 4 C6 3.34 6 2.68 6 2 C3.03 1.505 3.03 1.505 0 1 C0 0.67 0 0.34 0 0 Z " transform="translate(1221,444)"/>
<path d="M0 0 C7.47834967 0.48827713 14.68925318 1.33405548 22 3 C22 3.33 22 3.66 22 4 C20.02 4 18.04 4 16 4 C16 4.66 16 5.32 16 6 C10.06 6 4.12 6 -2 6 C-1.67 5.34 -1.34 4.68 -1 4 C-0.34 4 0.32 4 1 4 C0.67 2.68 0.34 1.36 0 0 Z " transform="translate(2161,851)"/>
<path d="M0 0 C13.53 0 27.06 0 41 0 C41 0.33 41 0.66 41 1 C39.02 1.33 37.04 1.66 35 2 C34.67 2.99 34.34 3.98 34 5 C31.36 5 28.72 5 26 5 C26 4.01 26 3.02 26 2 C13.13 1.505 13.13 1.505 0 1 C0 0.67 0 0.34 0 0 Z " transform="translate(1221,444)"/>
<path d="M0 0 C5.94 0.99 5.94 0.99 12 2 C12.33 3.65 12.66 5.3 13 7 C9.39006828 8.13480527 6.0157673 8.10015767 2.25 8.0625 C1.07953125 8.05347656 -0.0909375 8.04445313 -1.296875 8.03515625 C-2.18890625 8.02355469 -3.0809375 8.01195312 -4 8 C-4 7.34 -4 6.68 -4 6 C-2.68 5.67 -1.36 5.34 0 5 C0 3.68 0 2.36 0 1 C0 0.67 0 0.34 0 0 Z " transform="translate(1361,450)"/>
<path d="M0 0 C0 3 0 3 -2.0625 5.25 C-3.03716559 6.17145109 -4.01694185 7.08750791 -5 8 C-6.27758248 9.22215018 -7.54827367 10.4515389 -8.8125 11.6875 C-9.41707031 12.26886719 -10.02164062 12.85023438 -10.64453125 13.44921875 C-12.21936724 14.90769892 -12.21936724 14.90769892 -12 17 C-12.66 17.33 -13.32 17.66 -14 18 C-14.309375 18.825 -14.61875 19.65 -14.9375 20.5 C-15.288125 21.325 -15.63875 22.15 -16 23 C-16.99 23.33 -17.98 23.66 -19 24 C-19.33 24.99 -19.66 25.98 -20 27 C-22.5625 28.1875 -22.5625 28.1875 -25 29 C-18.68489309 17.903455 -9.00816777 8.9230244 0 0 Z " transform="translate(474,347)"/>
<path d="M0 0 C0.33 0.66 0.66 1.32 1 2 C4.02934491 2.65772428 4.02934491 2.65772428 7 3 C7.33 5.31 7.66 7.62 8 10 C8.99 9.67 9.98 9.34 11 9 C11 10.65 11 12.3 11 14 C10.34 14 9.68 14 9 14 C8.67 14.99 8.34 15.98 8 17 C6.65869239 14.73354942 5.32683766 12.46239903 4 10.1875 C3.42765625 9.22360352 3.42765625 9.22360352 2.84375 8.24023438 C0 3.33984375 0 3.33984375 0 0 Z " transform="translate(223,1506)"/>
<path d="M0 0 C0.66 0.33 1.32 0.66 2 1 C0.68 2.65 -0.64 4.3 -2 6 C-0.35 6 1.3 6 3 6 C3 6.33 3 6.66 3 7 C-3.93 7 -10.86 7 -18 7 C-14.63753639 4.75835759 -11.7681514 3.98873082 -7.875 2.9375 C-3.62050202 2.09574308 -3.62050202 2.09574308 0 0 Z " transform="translate(554,1529)"/>
<path d="M0 0 C0.66 0.33 1.32 0.66 2 1 C-1.465 3.97 -1.465 3.97 -5 7 C-4.34 7 -3.68 7 -3 7 C-3 7.66 -3 8.32 -3 9 C-3.804375 9.474375 -4.60875 9.94875 -5.4375 10.4375 C-8.2918076 11.79983672 -8.2918076 11.79983672 -9 15 C-9.66 15 -10.32 15 -11 15 C-11.33 14.34 -11.66 13.68 -12 13 C-13.98 13.99 -13.98 13.99 -16 15 C-11.30217584 9.06590633 -6.01350104 4.57548992 0 0 Z " transform="translate(2578,1442)"/>
<path d="M0 0 C0 0.66 0 1.32 0 2 C-0.66 2 -1.32 2 -2 2 C-2.33 2.99 -2.66 3.98 -3 5 C-4.5625 6.6875 -4.5625 6.6875 -6 8 C-6 7.34 -6 6.68 -6 6 C-9.33803163 6.61234585 -11.39130166 7.80597932 -14.0625 9.875 C-14.73410156 10.38804688 -15.40570313 10.90109375 -16.09765625 11.4296875 C-17.84295007 12.87036125 -19.43295224 14.36948924 -21 16 C-21.66 15.67 -22.32 15.34 -23 15 C-18.70396619 10.09024708 -14.31627402 6.75592661 -8.6875 3.5625 C-8.06472168 3.20865234 -7.44194336 2.85480469 -6.80029297 2.49023438 C-2.28458578 0 -2.28458578 0 0 0 Z " transform="translate(254,1447)"/>
<path d="M0 0 C1.45702971 0.00502424 2.9140611 0.00958551 4.37109375 0.01367188 C7.9140977 0.02460612 11.45703797 0.04182 15 0.0625 C15 0.3925 15 0.7225 15 1.0625 C14.01604248 1.10008423 14.01604248 1.10008423 13.01220703 1.13842773 C10.04959817 1.2542326 7.08731969 1.37702886 4.125 1.5 C3.09246094 1.53931641 2.05992187 1.57863281 0.99609375 1.61914062 C0.00996094 1.66103516 -0.97617187 1.70292969 -1.9921875 1.74609375 C-2.90339355 1.78275146 -3.81459961 1.81940918 -4.75341797 1.85717773 C-7.03483481 1.92827065 -7.03483481 1.92827065 -9 3.0625 C-11.55807762 2.97339842 -14.0762601 2.82955754 -16.625 2.625 C-17.33140625 2.57279297 -18.0378125 2.52058594 -18.765625 2.46679688 C-20.51079987 2.33708793 -22.25545725 2.20045046 -24 2.0625 C-24 1.7325 -24 1.4025 -24 1.0625 C-16.03350151 -0.2548767 -8.04805625 -0.04839426 0 0 Z " transform="translate(806,686.9375)"/>
<path d="M0 0 C2.64 0 5.28 0 8 0 C8 0.66 8 1.32 8 2 C8.99 2.66 9.98 3.32 11 4 C1.76 4 -7.48 4 -17 4 C-17 3.67 -17 3.34 -17 3 C-15.85660156 2.95101562 -14.71320313 2.90203125 -13.53515625 2.8515625 C-12.04424527 2.77654811 -10.55336108 2.70099972 -9.0625 2.625 C-8.30775391 2.5940625 -7.55300781 2.563125 -6.77539062 2.53125 C-4.84492605 2.4273685 -2.92057919 2.22104386 -1 2 C-0.67 1.34 -0.34 0.68 0 0 Z " transform="translate(216,32)"/>
<path d="M0 0 C0 0.66 0 1.32 0 2 C1.98 2 3.96 2 6 2 C6 2.66 6 3.32 6 4 C5.34 4 4.68 4 4 4 C5.25541557 6.51083114 6.50063488 6.87125446 9 8 C7 9 7 9 3.9609375 8.00390625 C2.77757813 7.52824219 1.59421875 7.05257812 0.375 6.5625 C-0.81351563 6.08941406 -2.00203125 5.61632812 -3.2265625 5.12890625 C-4.14179688 4.75636719 -5.05703125 4.38382813 -6 4 C-2.25 0 -2.25 0 0 0 Z " transform="translate(2267,872)"/>
<path d="M0 0 C0.33 0.66 0.66 1.32 1 2 C3.8159849 2.46898963 3.8159849 2.46898963 7.0625 2.625 C8.71958984 2.73714844 8.71958984 2.73714844 10.41015625 2.8515625 C11.26480469 2.90054687 12.11945313 2.94953125 13 3 C13 3.33 13 3.66 13 4 C11.98679687 4.06058594 10.97359375 4.12117188 9.9296875 4.18359375 C8.57811486 4.26806704 7.22655291 4.35271157 5.875 4.4375 C4.87726563 4.49647461 4.87726563 4.49647461 3.859375 4.55664062 C-0.15018817 4.812152 -4.04994196 5.26782413 -8 6 C-8 5.01 -8 4.02 -8 3 C-8.66 2.67 -9.32 2.34 -10 2 C-9.278125 2.04125 -8.55625 2.0825 -7.8125 2.125 C-4.79270631 1.99078695 -2.73064271 1.24829381 0 0 Z " transform="translate(340,386)"/>
<path d="M0 0 C0.33 0 0.66 0 1 0 C1.71511973 12.34858538 2.14420386 24.63051353 2 37 C1.67 37 1.34 37 1 37 C1 31.72 1 26.44 1 21 C0.01 21 -0.98 21 -2 21 C-1.505 19.515 -1.505 19.515 -1 18 C-0.85507877 16.59335074 -0.75371069 15.1818867 -0.68359375 13.76953125 C-0.64169922 12.96708984 -0.59980469 12.16464844 -0.55664062 11.33789062 C-0.51732422 10.50451172 -0.47800781 9.67113281 -0.4375 8.8125 C-0.39431641 7.96751953 -0.35113281 7.12253906 -0.30664062 6.25195312 C-0.20068482 4.16815567 -0.0998498 2.08409897 0 0 Z " transform="translate(478,1317)"/>
<path d="M0 0 C2.97 0 5.94 0 9 0 C9 1.32 9 2.64 9 4 C7.375 5.1875 7.375 5.1875 5 6 C1.75 4.625 1.75 4.625 -1 3 C-0.67 2.01 -0.34 1.02 0 0 Z " transform="translate(1749,691)"/>
<path d="M0 0 C0 1.65 0 3.3 0 5 C-3.3 4.01 -6.6 3.02 -10 2 C-6.82020798 -2.76968803 -4.78499148 -2.1985096 0 0 Z " transform="translate(706,718)"/>
<path d="M0 0 C2.97 0.33 5.94 0.66 9 1 C8.01 2.485 8.01 2.485 7 4 C7 4.66 7 5.32 7 6 C-0.42857143 6.28571429 -0.42857143 6.28571429 -4 4 C-2.35 3.67 -0.7 3.34 1 3 C0.67 2.01 0.34 1.02 0 0 Z " transform="translate(1185,477)"/>
<path d="M0 0 C3.3 1.98 6.6 3.96 10 6 C8.68 6.33 7.36 6.66 6 7 C3.99617991 7.65509503 1.99541868 8.31974363 0 9 C0.33 8.01 0.66 7.02 1 6 C0.34 5.67 -0.32 5.34 -1 5 C-0.67 3.35 -0.34 1.7 0 0 Z " transform="translate(970,337)"/>
<path d="M0 0 C3.72433382 1.2125738 7.37802806 2.50859979 11 4 C11 4.33 11 4.66 11 5 C5.72 5 0.44 5 -5 5 C-2 3 -2 3 0 3 C0 2.01 0 1.02 0 0 Z " transform="translate(2575,1531)"/>
<path d="M0 0 C2.31 0.33 4.62 0.66 7 1 C4.0098979 4.33511388 1.10501426 6.21521119 -3 8 C-3.66 8 -4.32 8 -5 8 C-5 7.34 -5 6.68 -5 6 C-4.360625 5.7525 -3.72125 5.505 -3.0625 5.25 C-0.81258459 4.18437567 -0.81258459 4.18437567 -0.25 1.875 C-0.1675 1.25625 -0.085 0.6375 0 0 Z " transform="translate(2597,1426)"/>
<path d="M0 0 C5.2688172 7.90322581 5.2688172 7.90322581 4.6875 12.4375 C4.460625 12.953125 4.23375 13.46875 4 14 C1.2160817 12.60804085 1.02101003 10.84424221 0 8 C-0.66 8 -1.32 8 -2 8 C-1.125 2.25 -1.125 2.25 0 0 Z " transform="translate(443,635)"/>
<path d="M0 0 C0.66 0 1.32 0 2 0 C2.12375 0.639375 2.2475 1.27875 2.375 1.9375 C2.684375 2.9584375 2.684375 2.9584375 3 4 C3.66 4.33 4.32 4.66 5 5 C3.35 7.64 1.7 10.28 0 13 C-0.66 12.34 -1.32 11.68 -2 11 C-1.6875 9.3125 -1.6875 9.3125 -1 7 C-0.6503582 4.66905466 -0.31445513 2.33595238 0 0 Z " transform="translate(2733,1464)"/>
<path d="M0 0 C7.42857143 -0.28571429 7.42857143 -0.28571429 11 2 C10.34 3.32 9.68 4.64 9 6 C6.83125748 5.49396008 5.00032373 5.00016187 3 4 C3 3.34 3 2.68 3 2 C2.01 1.34 1.02 0.68 0 0 Z " transform="translate(680,498)"/>
<path d="M0 0 C2.97 0.33 5.94 0.66 9 1 C7.68 1.99 6.36 2.98 5 4 C5.99 4.66 6.98 5.32 8 6 C3.97007218 5.44687265 -0.02022924 4.8441938 -4 4 C-3.01 3.67 -2.02 3.34 -1 3 C-0.67 2.01 -0.34 1.02 0 0 Z " transform="translate(1356,487)"/>
<path d="M0 0 C0.66 0 1.32 0 2 0 C2 0.66 2 1.32 2 2 C3.98 2 5.96 2 8 2 C7.67 3.65 7.34 5.3 7 7 C3.17902761 6.46930939 0.93828597 5.50298434 -2 3 C-1.34 2.01 -0.68 1.02 0 0 Z " transform="translate(236,487)"/>
<path d="M0 0 C-1.6875 3 -1.6875 3 -4 6 C-6.75 6.375 -6.75 6.375 -9 6 C-9.33 4.68 -9.66 3.36 -10 2 C-8.71211992 1.46987262 -7.41953322 0.9511671 -6.125 0.4375 C-5.40570313 0.14746094 -4.68640625 -0.14257812 -3.9453125 -0.44140625 C-2 -1 -2 -1 0 0 Z " transform="translate(265,1444)"/>
<path d="M0 0 C-0.96355353 9.41002278 -0.96355353 9.41002278 -2 14 C-2.33 14 -2.66 14 -3 14 C-2.95875 12.9275 -2.9175 11.855 -2.875 10.75 C-2.9885825 7.34252515 -3.21273364 5.79260369 -5 3 C-2.25 0 -2.25 0 0 0 Z " transform="translate(621,1446)"/>
<path d="M0 0 C0.33 0 0.66 0 1 0 C1.33 7.92 1.66 15.84 2 24 C1.01 24 0.02 24 -1 24 C-0.67 16.08 -0.34 8.16 0 0 Z " transform="translate(513,914)"/>
<path d="M0 0 C0.33 0 0.66 0 1 0 C1.33 4.29 1.66 8.58 2 13 C0.68 13 -0.64 13 -2 13 C-2.16682272 8.07872966 -2.24828052 4.49656104 0 0 Z " transform="translate(457,829)"/>
<path d="M0 0 C0.66 0 1.32 0 2 0 C2 0.99 2 1.98 2 3 C2.66 3 3.32 3 4 3 C4.33 2.34 4.66 1.68 5 1 C5.433125 1.45375 5.86625 1.9075 6.3125 2.375 C8.10798342 4.20024334 8.10798342 4.20024334 11 6 C11 6.66 11 7.32 11 8 C6.50202887 6.31326082 2.27113698 4.18326108 -2 2 C-1.34 1.34 -0.68 0.68 0 0 Z " transform="translate(1414,509)"/>
<path d="M0 0 C0.33 0.66 0.66 1.32 1 2 C1.66 2.33 2.32 2.66 3 3 C1.02 5.31 -0.96 7.62 -3 10 C-4.06546953 6.8035914 -4.07427838 4.34252724 -4 1 C-2.68 0.67 -1.36 0.34 0 0 Z " transform="translate(491,385)"/>
<path d="M0 0 C4.8333472 -0.08333357 9.23692563 0.04738513 14 1 C10.91190305 2.76462683 9.76687864 3 6 3 C6 2.34 6 1.68 6 1 C5.566875 1.495 5.13375 1.99 4.6875 2.5 C3 4 3 4 0 4 C0 2.68 0 1.36 0 0 Z " transform="translate(1111,781)"/>
<path d="M0 0 C-0.66 1.32 -1.32 2.64 -2 4 C-2.66 4 -3.32 4 -4 4 C-4 3.34 -4 2.68 -4 2 C-5.32 2.33 -6.64 2.66 -8 3 C-8 3.66 -8 4.32 -8 5 C-10.31 5 -12.62 5 -15 5 C-12.30932731 3.20621821 -9.91421743 2.02686042 -6.9375 0.8125 C-5.62072266 0.26529297 -5.62072266 0.26529297 -4.27734375 -0.29296875 C-2 -1 -2 -1 0 0 Z " transform="translate(367,1406)"/>
<path d="M0 0 C0.33 0 0.66 0 1 0 C1 6.93 1 13.86 1 21 C0.01 21 -0.98 21 -2 21 C-1.01 10.605 -1.01 10.605 0 0 Z " transform="translate(650,759)"/>
<path d="M0 0 C0.99 0 1.98 0 3 0 C3.375 2.1875 3.375 2.1875 3 5 C1.16038352 6.99022836 -0.79186148 8.38989899 -3 10 C-2.01 6.7 -1.02 3.4 0 0 Z " transform="translate(662,518)"/>
<path d="M0 0 C-0.33 0.33 -0.66 0.66 -1 1 C0.32 1.66 1.64 2.32 3 3 C-1.95 3 -6.9 3 -12 3 C-8.52582963 0.68388642 -4.04642977 -2.02321489 0 0 Z " transform="translate(548,1533)"/>
<path d="M0 0 C0.66 0.66 1.32 1.32 2 2 C2.66 2.33 3.32 2.66 4 3 C3.67 4.65 3.34 6.3 3 8 C-0.465 6.02 -0.465 6.02 -4 4 C-3.34 3.67 -2.68 3.34 -2 3 C-2 2.34 -2 1.68 -2 1 C-1.34 0.67 -0.68 0.34 0 0 Z " transform="translate(2539,1243)"/>
<path d="M0 0 C0.33 0 0.66 0 1 0 C1.0810206 2.10353495 1.13919907 4.20795952 1.1875 6.3125 C1.22230469 7.48425781 1.25710937 8.65601563 1.29296875 9.86328125 C1 13 1 13 -0.51171875 14.91796875 C-1.00285156 15.27503906 -1.49398437 15.63210938 -2 16 C-1.85764543 14.27054347 -1.71095618 12.54144346 -1.5625 10.8125 C-1.48128906 9.84957031 -1.40007813 8.88664062 -1.31640625 7.89453125 C-1.02333849 5.21350398 -0.57296246 2.6337014 0 0 Z " transform="translate(2815,1205)"/>
<path d="M0 0 C3.96 1.98 3.96 1.98 8 4 C7.34 5.32 6.68 6.64 6 8 C5.67 7.34 5.34 6.68 5 6 C2.97536745 5.34786708 2.97536745 5.34786708 1 5 C0.67 3.35 0.34 1.7 0 0 Z " transform="translate(1288,826)"/>
<path d="M0 0 C0.33 0 0.66 0 1 0 C0.88658363 2.31309705 0.75896193 4.62550185 0.625 6.9375 C0.52058594 8.86916016 0.52058594 8.86916016 0.4140625 10.83984375 C0.27742188 11.88269531 0.14078125 12.92554688 0 14 C-0.99 14.495 -0.99 14.495 -2 15 C-2 11.37 -2 7.74 -2 4 C-1.34 4 -0.68 4 0 4 C0 2.68 0 1.36 0 0 Z " transform="translate(452,730)"/>
<path d="M0 0 C3 4.22222222 3 4.22222222 3 7 C-0.0831351 5.80100302 -3.06279492 4.52299523 -6 3 C-3.375 0 -3.375 0 0 0 Z M-1 2 C0 4 0 4 0 4 Z " transform="translate(850,307)"/>
<path d="M0 0 C2.38202314 0.69717751 4.39796142 1.54747857 6.5625 2.75 C5.9025 3.41 5.2425 4.07 4.5625 4.75 C0.97661676 4.36233695 -2.13737921 3.16433748 -5.4375 1.75 C-2.4375 -0.25 -2.4375 -0.25 0 0 Z " transform="translate(1055.4375,761.25)"/>
<path d="M0 0 C2.97 0.495 2.97 0.495 6 1 C6 2.65 6 4.3 6 6 C3.69 5.34 1.38 4.68 -1 4 C-0.67 2.68 -0.34 1.36 0 0 Z " transform="translate(1616,964)"/>
<path d="M0 0 C1.42944945 2.35438733 2.08661261 3.48032433 1.625 6.25 C1.41875 6.8275 1.2125 7.405 1 8 C1.66 8 2.32 8 3 8 C2.67 8.99 2.34 9.98 2 11 C0.68 10.67 -0.64 10.34 -2 10 C-1.46274105 6.62294375 -0.88935377 3.303314 0 0 Z " transform="translate(2742,1286)"/>
<path d="M0 0 C0.66 0.33 1.32 0.66 2 1 C2 1.99 2 2.98 2 4 C6.455 4.99 6.455 4.99 11 6 C6.53672476 7.11581881 5.39238394 6.68986512 1.25 5.0625 C0.26515625 4.68222656 -0.7196875 4.30195312 -1.734375 3.91015625 C-2.48203125 3.60980469 -3.2296875 3.30945312 -4 3 C-2.68 2.01 -1.36 1.02 0 0 Z " transform="translate(2405,1187)"/>
<path d="M0 0 C0 0.66 0 1.32 0 2 C1.65 2 3.3 2 5 2 C5 2.66 5 3.32 5 4 C5.99 4.33 6.98 4.66 8 5 C2.86496656 4.35812082 -1.9943454 3.31727753 -7 2 C-7 1.67 -7 1.34 -7 1 C-2.25 0 -2.25 0 0 0 Z " transform="translate(1148,471)"/>
<path d="M0 0 C0.33 1.32 0.66 2.64 1 4 C-2.63 3.01 -6.26 2.02 -10 1 C-6.1496895 -1.56687367 -4.41430237 -0.83288724 0 0 Z " transform="translate(372,435)"/>
<path d="M0 0 C0.66 0.33 1.32 0.66 2 1 C2 3 2 5 2 7 C-0.64 6.34 -3.28 5.68 -6 5 C-5.67 4.34 -5.34 3.68 -5 3 C-3.68 3 -2.36 3 -1 3 C-0.67 2.01 -0.34 1.02 0 0 Z " transform="translate(754,263)"/>
<path d="M0 0 C-0.66 2.97 -1.32 5.94 -2 9 C-2.33 8.01 -2.66 7.02 -3 6 C-3.66 6 -4.32 6 -5 6 C-4.625 3.5625 -4.625 3.5625 -4 1 C-2 0 -2 0 0 0 Z " transform="translate(2776,1318)"/>
<path d="M0 0 C0.66 0 1.32 0 2 0 C2 2.97 2 5.94 2 9 C1.01 8.67 0.02 8.34 -1 8 C-1.04241723 5.66705225 -1.04092937 3.33297433 -1 1 C-0.67 0.67 -0.34 0.34 0 0 Z " transform="translate(495,1017)"/>
<path d="M0 0 C1.65 0.33 3.3 0.66 5 1 C5 2.65 5 4.3 5 6 C2.69 5.01 0.38 4.02 -2 3 C-1.34 2.67 -0.68 2.34 0 2 C0 1.34 0 0.68 0 0 Z " transform="translate(1914,788)"/>
<path d="M0 0 C2.05078125 0.03255208 4.1015625 0.06510417 6.15234375 0.09765625 C4.17234375 1.08765625 4.17234375 1.08765625 2.15234375 2.09765625 C2.81234375 2.42765625 3.47234375 2.75765625 4.15234375 3.09765625 C3.82234375 3.75765625 3.49234375 4.41765625 3.15234375 5.09765625 C1.50234375 4.76765625 -0.14765625 4.43765625 -1.84765625 4.09765625 C-2.17765625 3.10765625 -2.50765625 2.11765625 -2.84765625 1.09765625 C-1.84765625 0.09765625 -1.84765625 0.09765625 0 0 Z " transform="translate(948.84765625,732.90234375)"/>
<path d="M0 0 C3.465 1.485 3.465 1.485 7 3 C3.5647952 5.29013653 2.014669 5.17842973 -2 5 C-1.34 3.35 -0.68 1.7 0 0 Z " transform="translate(1773,707)"/>
<path d="M0 0 C0.66 0.66 1.32 1.32 2 2 C-0.64 5.3 -3.28 8.6 -6 12 C-6.66 11.67 -7.32 11.34 -8 11 C-5.36 7.37 -2.72 3.74 0 0 Z " transform="translate(329,450)"/>
<path d="M0 0 C1.32 0.33 2.64 0.66 4 1 C3.67 2.32 3.34 3.64 3 5 C2.01 5 1.02 5 0 5 C-0.33 5.99 -0.66 6.98 -1 8 C-1.66 7.34 -2.32 6.68 -3 6 C-2.34 5.34 -1.68 4.68 -1 4 C-0.3574765 1.93125966 -0.3574765 1.93125966 0 0 Z " transform="translate(243,1525)"/>
<path d="M0 0 C2.64 0.33 5.28 0.66 8 1 C7.01 1.495 7.01 1.495 6 2 C6 2.66 6 3.32 6 4 C3.69 4 1.38 4 -1 4 C-0.67 2.68 -0.34 1.36 0 0 Z " transform="translate(2072,1094)"/>
<path d="M0 0 C7.625 1.75 7.625 1.75 11 4 C10.67 4.99 10.34 5.98 10 7 C8.68 6.67 7.36 6.34 6 6 C6.33 5.34 6.66 4.68 7 4 C4.69 3.01 2.38 2.02 0 1 C0 0.67 0 0.34 0 0 Z " transform="translate(2083,1053)"/>
<path d="M0 0 C-0.33 1.98 -0.66 3.96 -1 6 C-3.475 5.01 -3.475 5.01 -6 4 C-6 3.34 -6 2.68 -6 2 C-3 0 -3 0 0 0 Z " transform="translate(1395,923)"/>
<path d="M0 0 C5.45454545 0.45454545 5.45454545 0.45454545 8 3 C7.67 3.66 7.34 4.32 7 5 C4.03 4.01 1.06 3.02 -2 2 C-1.34 1.34 -0.68 0.68 0 0 Z " transform="translate(1461,910)"/>
<path d="M0 0 C3.465 1.485 3.465 1.485 7 3 C6.67 3.99 6.34 4.98 6 6 C4.35 6 2.7 6 1 6 C0.67 4.02 0.34 2.04 0 0 Z " transform="translate(2300,891)"/>
<path d="M0 0 C0.33 0.99 0.66 1.98 1 3 C-2.63 2.01 -6.26 1.02 -10 0 C-10 -0.33 -10 -0.66 -10 -1 C-5.99143855 -2.14530327 -3.67509185 -2.04171769 0 0 Z " transform="translate(1017,746)"/>
<path d="M0 0 C2.61580479 0.3269756 4.64078137 0.82039068 7 2 C7.625 4.0625 7.625 4.0625 8 6 C3 4 3 4 -2 2 C-1.34 1.34 -0.68 0.68 0 0 Z " transform="translate(1740,687)"/>
<path d="M0 0 C4.455 0.99 4.455 0.99 9 2 C9 3.32 9 4.64 9 6 C5.06326356 4.68775452 2.77280706 3.08089673 0 0 Z " transform="translate(115,444)"/>
<path d="M0 0 C0.33 0.99 0.66 1.98 1 3 C1.66 3 2.32 3 3 3 C3 3.66 3 4.32 3 5 C2.01 5 1.02 5 0 5 C0.33 5.99 0.66 6.98 1 8 C-0.32 9.32 -1.64 10.64 -3 12 C-3.66 11.67 -4.32 11.34 -5 11 C-4.54625 10.484375 -4.0925 9.96875 -3.625 9.4375 C-1.61799617 6.42699426 -0.87268191 3.49072763 0 0 Z " transform="translate(507,367)"/>
<path d="M0 0 C0.66 0.33 1.32 0.66 2 1 C2 1.99 2 2.98 2 4 C-1.63 4 -5.26 4 -9 4 C-6.00084818 2.50042409 -3.16379181 1.08234983 0 0 Z " transform="translate(2658,1532)"/>
<path d="M0 0 C1.65 0.33 3.3 0.66 5 1 C2.31158141 3.25245881 0.35358125 4.88213958 -3 6 C-2 3 -2 3 0 0 Z " transform="translate(2682,1518)"/>
<path d="M0 0 C1.66611905 -0.042721 3.33382885 -0.04063832 5 0 C6 1 7 2 8 3 C5.69 3.66 3.38 4.32 1 5 C0.67 3.35 0.34 1.7 0 0 Z " transform="translate(357,1448)"/>
<path d="M0 0 C1.98 0.66 3.96 1.32 6 2 C6 3.32 6 4.64 6 6 C0.25 4.25 0.25 4.25 -2 2 C-1.34 2 -0.68 2 0 2 C0 1.34 0 0.68 0 0 Z " transform="translate(1944,804)"/>
<path d="M0 0 C0.33 0 0.66 0 1 0 C1 4.29 1 8.58 1 13 C0.01 12.67 -0.98 12.34 -2 12 C-1.34 8.04 -0.68 4.08 0 0 Z " transform="translate(452,674)"/>
<path d="M0 0 C0.66 0.66 1.32 1.32 2 2 C4.06874034 2.6425235 4.06874034 2.6425235 6 3 C5.67 3.99 5.34 4.98 5 6 C2.08482708 4.92598892 0.22189824 4.22189824 -2 2 C-1.34 1.34 -0.68 0.68 0 0 Z " transform="translate(1435,520)"/>
<path d="M0 0 C0.99 0.33 1.98 0.66 3 1 C0.525 4.465 0.525 4.465 -2 8 C-2.66 7.34 -3.32 6.68 -4 6 C-2.68 4.02 -1.36 2.04 0 0 Z " transform="translate(290,428)"/>
<path d="M0 0 C0.33 0.99 0.66 1.98 1 3 C1.66 3 2.32 3 3 3 C2.67 4.65 2.34 6.3 2 8 C-0.52588702 5.63707344 -1.88820837 4.33537489 -3 1 C-2.01 0.67 -1.02 0.34 0 0 Z " transform="translate(352,107)"/>
<path d="M0 0 C-0.66 2.31 -1.32 4.62 -2 7 C-3.32 6.67 -4.64 6.34 -6 6 C-5.34 5.01 -4.68 4.02 -4 3 C-4 2.34 -4 1.68 -4 1 C-2 0 -2 0 0 0 Z " transform="translate(2801,1256)"/>
<path d="M0 0 C0 0.66 0 1.32 0 2 C0.66 2 1.32 2 2 2 C1.67 3.32 1.34 4.64 1 6 C-1.31 5.34 -3.62 4.68 -6 4 C-2.25 0 -2.25 0 0 0 Z " transform="translate(2267,872)"/>
<path d="M0 0 C2.97 0 5.94 0 9 0 C9 0.66 9 1.32 9 2 C5.7 2.33 2.4 2.66 -1 3 C-0.67 2.01 -0.34 1.02 0 0 Z " transform="translate(238,487)"/>
<path d="M0 0 C-0.56371414 3.26954202 -1.49962266 4.82575883 -4 7 C-4.66 6.34 -5.32 5.68 -6 5 C-3.74193548 0 -3.74193548 0 0 0 Z " transform="translate(286,436)"/>
<path d="M0 0 C2.97 0.495 2.97 0.495 6 1 C6 1.66 6 2.32 6 3 C5.34 3.66 4.68 4.32 4 5 C3.01 5 2.02 5 1 5 C0.34 4.34 -0.32 3.68 -1 3 C-0.67 2.01 -0.34 1.02 0 0 Z " transform="translate(1007,406)"/>
<path d="M0 0 C1.98 0.66 3.96 1.32 6 2 C2.55549263 4.29633824 0.06187717 4.54016485 -4 5 C-2.93453047 2.86906094 -1.70840281 1.63412443 0 0 Z " transform="translate(162,39)"/>
<path d="M0 0 C0.66 0 1.32 0 2 0 C1.67 1.65 1.34 3.3 1 5 C-0.65 5.33 -2.3 5.66 -4 6 C-4 5.01 -4 4.02 -4 3 C-2.68 2.67 -1.36 2.34 0 2 C0 1.34 0 0.68 0 0 Z " transform="translate(2667,1524)"/>
<path d="M0 0 C0.66 0 1.32 0 2 0 C2.25 3.3125 2.25 3.3125 2 7 C0.68 7.99 -0.64 8.98 -2 10 C-1.34 6.7 -0.68 3.4 0 0 Z " transform="translate(2584,1307)"/>
<path d="M0 0 C0.99 0.33 1.98 0.66 3 1 C3.33 2.65 3.66 4.3 4 6 C3.01 6 2.02 6 1 6 C0.34 5.01 -0.32 4.02 -1 3 C-0.67 2.01 -0.34 1.02 0 0 Z " transform="translate(2557,1260)"/>
<path d="M0 0 C4.75 0.75 4.75 0.75 7 3 C5.02 3.99 5.02 3.99 3 5 C2.01 4.34 1.02 3.68 0 3 C0 2.01 0 1.02 0 0 Z " transform="translate(2315,899)"/>
<path d="M0 0 C-0.66 1.32 -1.32 2.64 -2 4 C-3.65 3.67 -5.3 3.34 -7 3 C-6.67 2.01 -6.34 1.02 -6 0 C-3 -1 -3 -1 0 0 Z " transform="translate(1447,901)"/>
<path d="M0 0 C1.32 0.66 2.64 1.32 4 2 C3.67 3.32 3.34 4.64 3 6 C2.34 6 1.68 6 1 6 C0.67 6.66 0.34 7.32 0 8 C-0.38063221 5.6739143 -0.71269945 3.33944736 -1 1 C-0.67 0.67 -0.34 0.34 0 0 Z " transform="translate(487,626)"/>
<path d="M0 0 C2.475 0.99 2.475 0.99 5 2 C4.67 2.99 4.34 3.98 4 5 C3.01 5.33 2.02 5.66 1 6 C1 5.34 1 4.68 1 4 C0.34 3.67 -0.32 3.34 -1 3 C-0.67 2.01 -0.34 1.02 0 0 Z " transform="translate(171,453)"/>
<path d="M0 0 C3.3 0.33 6.6 0.66 10 1 C9.01 1.33 8.02 1.66 7 2 C7 2.66 7 3.32 7 4 C5.35 3.67 3.7 3.34 2 3 C2 2.34 2 1.68 2 1 C1.34 0.67 0.68 0.34 0 0 Z " transform="translate(1172,437)"/>
<path d="M0 0 C1.65 1.65 3.3 3.3 5 5 C4.01 5 3.02 5 2 5 C1.67 5.99 1.34 6.98 1 8 C0.67 7.01 0.34 6.02 0 5 C0.33 4.34 0.66 3.68 1 3 C0.34 3 -0.32 3 -1 3 C-0.67 2.01 -0.34 1.02 0 0 Z " transform="translate(103,327)"/>
<path d="M0 0 C2.64 0.33 5.28 0.66 8 1 C8 1.33 8 1.66 8 2 C2.375 4 2.375 4 -1 4 C-0.67 2.68 -0.34 1.36 0 0 Z " transform="translate(703,211)"/>
<path d="M0 0 C1.32 0.33 2.64 0.66 4 1 C3.67 2.32 3.34 3.64 3 5 C1.35 5.33 -0.3 5.66 -2 6 C-1.34 4.02 -0.68 2.04 0 0 Z " transform="translate(23,109)"/>
<path d="M0 0 C2.7839183 1.39195915 2.97898997 3.15575779 4 6 C3.01 6 2.02 6 1 6 C-1.1875 3.5 -1.1875 3.5 -3 1 C-2.01 0.67 -1.02 0.34 0 0 Z " transform="translate(361,53)"/>
<path d="M0 0 C3.63 0 7.26 0 11 0 C11 0.99 11 1.98 11 3 C7.37 2.34 3.74 1.68 0 1 C0 0.67 0 0.34 0 0 Z " transform="translate(262,0)"/>
<path d="M0 0 C0.66 0 1.32 0 2 0 C2.33 1.32 2.66 2.64 3 4 C2.4225 4.12375 1.845 4.2475 1.25 4.375 C-1.02335767 5.00648824 -2.9253529 5.88858191 -5 7 C-4.21654285 5.82780457 -3.42297164 4.66236332 -2.625 3.5 C-2.18414063 2.8503125 -1.74328125 2.200625 -1.2890625 1.53125 C-0.65097656 0.77328125 -0.65097656 0.77328125 0 0 Z " transform="translate(2695,1456)"/>
<path d="M0 0 C1.32 0.33 2.64 0.66 4 1 C3.625 2.9375 3.625 2.9375 3 5 C2.01 5.495 2.01 5.495 1 6 C0.01 5.34 -0.98 4.68 -2 4 C-1.34 2.68 -0.68 1.36 0 0 Z " transform="translate(1591,957)"/>
<path d="M0 0 C2.97 0.33 5.94 0.66 9 1 C9 1.33 9 1.66 9 2 C7.02 2 5.04 2 3 2 C3 2.66 3 3.32 3 4 C1.68 3.67 0.36 3.34 -1 3 C-0.67 2.01 -0.34 1.02 0 0 Z " transform="translate(2174,853)"/>
<path d="M0 0 C3.465 1.98 3.465 1.98 7 4 C6.67 4.66 6.34 5.32 6 6 C3.83125748 5.49396008 2.00032373 5.00016187 0 4 C0 2.68 0 1.36 0 0 Z " transform="translate(1577,610)"/>
<path d="M0 0 C0 1.32 0 2.64 0 4 C-2.96175123 3.38722388 -4.38058783 2.74627478 -7 1 C-4.53721199 -0.231394 -2.7204945 -0.07159196 0 0 Z " transform="translate(1073,441)"/>
<path d="M0 0 C0.33 0.66 0.66 1.32 1 2 C1.66 2 2.32 2 3 2 C3 1.34 3 0.68 3 0 C3.66 0 4.32 0 5 0 C5.33 1.32 5.66 2.64 6 4 C2.37673261 5.2077558 1.35853631 4.54311128 -2 3 C-1.34 2.67 -0.68 2.34 0 2 C0 1.34 0 0.68 0 0 Z " transform="translate(842,258)"/>
<path d="M0 0 C1.9451 2.91765 2.45276317 4.62537285 3 8 C1.35 7.67 -0.3 7.34 -2 7 C-1.34 4.69 -0.68 2.38 0 0 Z " transform="translate(2552,1500)"/>
<path d="M0 0 C1.32 0.33 2.64 0.66 4 1 C2.35 2.65 0.7 4.3 -1 6 C-1 2 -1 2 0 0 Z " transform="translate(2727,1479)"/>
<path d="M0 0 C2.125 0.375 2.125 0.375 4 1 C2.35 2.65 0.7 4.3 -1 6 C-1.625 4.125 -1.625 4.125 -2 2 C-1.34 1.34 -0.68 0.68 0 0 Z " transform="translate(229,1460)"/>
<path d="M0 0 C2.375 -0.1875 2.375 -0.1875 5 0 C5.66 0.99 6.32 1.98 7 3 C6.34 3.66 5.68 4.32 5 5 C3.35 3.35 1.7 1.7 0 0 Z " transform="translate(2558,1211)"/>
<path d="M0 0 C0.99 0.66 1.98 1.32 3 2 C2.34 3.32 1.68 4.64 1 6 C-0.32 6 -1.64 6 -3 6 C-3 5.34 -3 4.68 -3 4 C-2.34 4 -1.68 4 -1 4 C-0.67 2.68 -0.34 1.36 0 0 Z " transform="translate(1854,1011)"/>
<path d="M0 0 C2.64 0 5.28 0 8 0 C8.66 1.32 9.32 2.64 10 4 C6.7 3.01 3.4 2.02 0 1 C0 0.67 0 0.34 0 0 Z " transform="translate(1979,821)"/>
<path d="M0 0 C0.33 0.66 0.66 1.32 1 2 C1.66 2 2.32 2 3 2 C3.33 3.32 3.66 4.64 4 6 C1.08482708 4.92598892 -0.77810176 4.22189824 -3 2 C-2.01 1.34 -1.02 0.68 0 0 Z " transform="translate(1885,819)"/>
<path d="M0 0 C0.66 0.33 1.32 0.66 2 1 C1.34 2.32 0.68 3.64 0 5 C-2.31 4.34 -4.62 3.68 -7 3 C-4.66785852 1.79371992 -2.50357861 0.8345262 0 0 Z " transform="translate(1284,819)"/>
<path d="M0 0 C0.66 0 1.32 0 2 0 C2 1.65 2 3.3 2 5 C-0.64 4.34 -3.28 3.68 -6 3 C-4.68 2.67 -3.36 2.34 -2 2 C-1.34 1.34 -0.68 0.68 0 0 Z " transform="translate(704,718)"/>
<path d="M0 0 C2 3 2 3 2 6 C1.34 6 0.68 6 0 6 C0 6.66 0 7.32 0 8 C-0.66 8 -1.32 8 -2 8 C-1.125 2.25 -1.125 2.25 0 0 Z " transform="translate(443,635)"/>
<path d="M0 0 C0.66 0.66 1.32 1.32 2 2 C1.8125 4 1.8125 4 1 6 C0.01 6.66 -0.98 7.32 -2 8 C-2.125 5.125 -2.125 5.125 -2 2 C-1.34 1.34 -0.68 0.68 0 0 Z " transform="translate(488,637)"/>
<path d="M0 0 C0.66 0 1.32 0 2 0 C2.66 1.65 3.32 3.3 4 5 C3.01 5.33 2.02 5.66 1 6 C0.34 4.35 -0.32 2.7 -1 1 C-0.67 0.67 -0.34 0.34 0 0 Z " transform="translate(1521,606)"/>
<path d="M0 0 C0.33 0.99 0.66 1.98 1 3 C-0.9375 5.6875 -0.9375 5.6875 -3 8 C-3.33 6.02 -3.66 4.04 -4 2 C-2.68 1.34 -1.36 0.68 0 0 Z " transform="translate(466,555)"/>
<path d="M0 0 C1.65 0.33 3.3 0.66 5 1 C4.67 2.32 4.34 3.64 4 5 C2.02 4.34 0.04 3.68 -2 3 C-1.34 2.01 -0.68 1.02 0 0 Z " transform="translate(1079,445)"/>
<path d="M0 0 C3 3.75 3 3.75 3 6 C2.01 6.33 1.02 6.66 0 7 C0 6.34 0 5.68 0 5 C-0.66 5 -1.32 5 -2 5 C-1.34 3.35 -0.68 1.7 0 0 Z " transform="translate(424,182)"/>
<path d="M0 0 C0 1.32 0 2.64 0 4 C-1.32 4.33 -2.64 4.66 -4 5 C-4.33 3.68 -4.66 2.36 -5 1 C-3 0 -3 0 0 0 Z " transform="translate(410,123)"/>
<path d="M0 0 C1.65 1.65 3.3 3.3 5 5 C3.02 5.33 1.04 5.66 -1 6 C-0.67 4.02 -0.34 2.04 0 0 Z " transform="translate(333,89)"/>
<path d="M0 0 C2.31 0.33 4.62 0.66 7 1 C4.53721199 3.46278801 2.29323018 3.99771255 -1 5 C-0.67 3.35 -0.34 1.7 0 0 Z " transform="translate(2671,1523)"/>
<path d="M0 0 C1.98 0 3.96 0 6 0 C3.82575883 2.50037734 2.26954202 3.43628586 -1 4 C-0.67 2.68 -0.34 1.36 0 0 Z " transform="translate(561,1523)"/>
<path d="M0 0 C0.99 0 1.98 0 3 0 C3 0.66 3 1.32 3 2 C3.66 2.33 4.32 2.66 5 3 C1.7 3 -1.6 3 -5 3 C-3.68 2.34 -2.36 1.68 -1 1 C-0.67 0.67 -0.34 0.34 0 0 Z " transform="translate(2022,1039)"/>
<path d="M0 0 C2.64 0.33 5.28 0.66 8 1 C8 1.33 8 1.66 8 2 C5.36 2.33 2.72 2.66 0 3 C0 2.01 0 1.02 0 0 Z M-2 3 C-1.34 3 -0.68 3 0 3 C0 3.66 0 4.32 0 5 C-0.66 5 -1.32 5 -2 5 C-2 4.34 -2 3.68 -2 3 Z " transform="translate(1925,1035)"/>
<path d="M0 0 C0.99 0.33 1.98 0.66 3 1 C2.01 1.495 2.01 1.495 1 2 C1 2.66 1 3.32 1 4 C1.66 4.33 2.32 4.66 3 5 C0.03 4.505 0.03 4.505 -3 4 C-2.01 2.68 -1.02 1.36 0 0 Z " transform="translate(2002,824)"/>
<path d="M0 0 C0 0.99 0 1.98 0 3 C0.99 3.33 1.98 3.66 3 4 C2.01 4.495 2.01 4.495 1 5 C-1.35981813 4.06421005 -3.69631264 3.06652192 -6 2 C-2.25 0 -2.25 0 0 0 Z " transform="translate(1961,811)"/>
<path d="M0 0 C1.32 0.33 2.64 0.66 4 1 C3.34 2.32 2.68 3.64 2 5 C0.68 4.67 -0.64 4.34 -2 4 C-1.34 2.68 -0.68 1.36 0 0 Z " transform="translate(1108,780)"/>
<path d="M0 0 C0.763125 0.20625 1.52625 0.4125 2.3125 0.625 C1.3225 2.11 1.3225 2.11 0.3125 3.625 C-1.6675 2.965 -3.6475 2.305 -5.6875 1.625 C-2.6875 -0.375 -2.6875 -0.375 0 0 Z " transform="translate(894.6875,715.375)"/>
<path d="M0 0 C5.75 1.75 5.75 1.75 8 4 C5.36 3.67 2.72 3.34 0 3 C0 2.01 0 1.02 0 0 Z " transform="translate(863,705)"/>
<path d="M0 0 C0 3 0 3 -1.3125 4.38671875 C-2.875 5.59114583 -4.4375 6.79557292 -6 8 C-4.73058503 4.08597051 -3.48832306 2.20927127 0 0 Z " transform="translate(672,502)"/>
<path d="M0 0 C1.32 0.33 2.64 0.66 4 1 C3.67 2.65 3.34 4.3 3 6 C1.35 4.68 -0.3 3.36 -2 2 C-1.34 2 -0.68 2 0 2 C0 1.34 0 0.68 0 0 Z " transform="translate(697,499)"/>
<path d="M0 0 C1.32 0.33 2.64 0.66 4 1 C2.35 2.98 0.7 4.96 -1 7 C-1.33 5.68 -1.66 4.36 -2 3 C-1.34 3 -0.68 3 0 3 C0 2.01 0 1.02 0 0 Z " transform="translate(317,462)"/>
<path d="M0 0 C2.64 0.66 5.28 1.32 8 2 C7.01 2.495 7.01 2.495 6 3 C5.67 3.66 5.34 4.32 5 5 C5 4.34 5 3.68 5 3 C3.35 3 1.7 3 0 3 C0 2.01 0 1.02 0 0 Z " transform="translate(1110,417)"/>
<path d="M0 0 C1.98 0.99 3.96 1.98 6 3 C2.25 5 2.25 5 0 5 C0 3.35 0 1.7 0 0 Z " transform="translate(893,338)"/>
<path d="M0 0 C1.98 0.495 1.98 0.495 4 1 C4.33 2.32 4.66 3.64 5 5 C3.02 4.34 1.04 3.68 -1 3 C-0.67 2.01 -0.34 1.02 0 0 Z " transform="translate(800,285)"/>
<path d="M0 0 C0.99 0 1.98 0 3 0 C3 0.66 3 1.32 3 2 C3.66 2.66 4.32 3.32 5 4 C1.7 3.67 -1.6 3.34 -5 3 C-5 2.67 -5 2.34 -5 2 C-3.35 2 -1.7 2 0 2 C0 1.34 0 0.68 0 0 Z " transform="translate(681,246)"/>
<path d="M0 0 C6.625 -0.25 6.625 -0.25 10 2 C8.375 3.1875 8.375 3.1875 6 4 C2.75 2.625 2.75 2.625 0 1 C0 0.67 0 0.34 0 0 Z " transform="translate(298,12)"/>
</g>
</svg>