<svg viewBox="0 0 2816 1536" xmlns="http://www.w3.org/2000/svg">
<path d="M0 0 C0.67160156 0.4640625 1.34320312 0.928125 2.03515625 1.40625 C4.14972426 2.83229179 4.14972426 2.83229179 7.9375 2.5 C9.96542359 1.41254793 9.96542359 1.41254793 12 0 C18.99091096 -4.02749698 25.76312716 -3.20725396 33.375 -1.3125 C50.18283117 3.82983928 71.18678002 12.99026707 79.92016602 29.33959961 C83.61397333 37.18373231 84.48545598 44.85013907 84.4375 53.4375 C84.43540527 54.58049561 84.43331055 55.72349121 84.43115234 56.90112305 C84.13660695 73.79701122 81.08888504 90.4991383 78.3359375 107.13525391 C77.01587537 115.54947134 76.62383329 123.73825117 76.6875 132.25 C76.69093414 132.91541809 76.69436829 133.58083618 76.69790649 134.26641846 C76.86892239 162.86044628 81.37118984 189.30730179 88.19506836 216.99710083 C95.27558232 245.75264895 101.47142885 274.78600118 106.3515625 303.99902344 C106.71505687 306.1709023 107.0882145 308.34121628 107.4765625 310.50878906 C111.88290021 335.3993515 111.77279825 362.90022824 108.9375 388 C105.83376424 415.75981265 106.3846526 445.12693526 111.9375 472.5 C112.22633057 473.95986328 112.22633057 473.95986328 112.52099609 475.44921875 C115.4406275 489.90834569 119.49704103 504.05687054 123.74169922 518.17480469 C128.0892989 532.67026854 131.53469478 547.2685927 134.6875 562.0625 C134.8780899 562.95633392 135.06867981 563.85016785 135.26504517 564.77108765 C137.3893267 574.77466037 139.38439659 584.79119187 141.22753906 594.85009766 C141.89639957 598.2887031 142.6734677 601.6783898 143.5 605.08203125 C145.14898222 612.06121967 146.07652386 619.07361698 146.9375 626.1875 C147.10563269 627.56357769 147.27393022 628.93963526 147.44238281 630.31567383 C147.69783134 632.40493009 147.9524353 634.49426318 148.20367432 636.58403015 C148.69576481 640.64978371 149.24955536 644.70037518 149.859375 648.75 C156.76080596 696.587046 151.42924998 748.00009803 138.9375 794.5 C138.47079198 796.42197059 138.00416124 798.34396408 137.54223633 800.26708984 C135.96435055 806.78901771 134.15474838 813.210258 132.1875 819.625 C129.4910876 828.42747609 127.05721068 837.29281726 124.6875 846.1875 C124.51496704 846.83261536 124.34243408 847.47773071 124.16467285 848.14239502 C123.06611616 852.25588534 121.99328436 856.37533929 120.9375 860.5 C120.71892334 861.32854492 120.50034668 862.15708984 120.27514648 863.01074219 C115.85340245 880.90384174 119.5503807 899.7231944 123.27929688 917.37841797 C124.21707227 921.82589432 125.0849367 926.28551607 125.9375 930.75 C126.09573242 931.5747583 126.25396484 932.3995166 126.41699219 933.24926758 C129.63495069 950.26237653 132.35978237 967.36679699 134.45556641 984.5534668 C136.94474582 1004.93724861 140.81122442 1023.74986785 147.53869629 1043.16543579 C152.10994345 1056.39138919 155.18605738 1069.78792954 157.9375 1083.5 C161.03497849 1098.75734099 165.05680778 1111.50881596 173.9375 1124.5 C174.31084473 1125.05042969 174.68418945 1125.60085938 175.06884766 1126.16796875 C179.57760344 1132.81283698 184.16353847 1139.40314026 188.78125 1145.97265625 C197.18424543 1157.94558474 205.30968417 1170.01788369 212.9375 1182.5 C213.67129883 1183.69955322 213.67129883 1183.69955322 214.41992188 1184.92333984 C282.59588346 1296.73989583 282.59588346 1296.73989583 275.359375 1341.0390625 C272.89214394 1348.82205503 267.55812988 1355.534761 260.69140625 1359.94140625 C253.31282615 1363.31340491 244.93454658 1363.84415756 236.9375 1364.5 C235.91543457 1364.58612549 234.89336914 1364.67225098 233.84033203 1364.76098633 C222.62712716 1365.61154257 211.42923192 1365.78451638 200.1875 1365.8125 C199.1694931 1365.81511841 198.15148621 1365.81773682 197.10263062 1365.82043457 C176.04493046 1365.82615972 155.3336522 1364.14038682 134.4251709 1361.77856445 C131.20775906 1361.41828506 127.98868165 1361.07468836 124.7693634 1360.73193359 C115.15253853 1359.70754655 105.54384142 1358.61803644 95.9375 1357.5 C95.14684143 1357.40807373 94.35618286 1357.31614746 93.54156494 1357.22143555 C83.00514706 1355.99549766 72.47054204 1354.75460593 61.9375 1353.5 C61.64633301 1354.1194751 61.35516602 1354.7389502 61.05517578 1355.37719727 C54.73779704 1367.37580106 38.88684285 1372.43799188 26.9375 1376.5 C25.885625 1376.87898438 24.83375 1377.25796875 23.75 1377.6484375 C8.49976079 1381.05474093 -8.78312375 1379.76120301 -23.0625 1373.5 C-24.25617188 1373.0153125 -25.44984375 1372.530625 -26.6796875 1372.03125 C-34.31161886 1368.624436 -39.82240452 1364.55356708 -45.44995117 1358.41186523 C-48.29361272 1355.46592382 -49.64739269 1354.52188634 -53.79467773 1354.30322266 C-57.71483311 1354.42443026 -61.58599338 1354.8031255 -65.48046875 1355.26953125 C-66.16662766 1355.35011276 -66.85278656 1355.43069427 -67.55973816 1355.51371765 C-69.02750062 1355.6864168 -70.49503182 1355.86109131 -71.96234131 1356.03759766 C-75.89688943 1356.51040267 -79.8332903 1356.96732083 -83.76953125 1357.42578125 C-84.96008118 1357.56495468 -84.96008118 1357.56495468 -86.17468262 1357.7069397 C-94.43320765 1358.66829393 -102.70079134 1359.53384772 -110.97509766 1360.34814453 C-116.71119703 1360.91888137 -122.43333789 1361.5319911 -128.14710999 1362.29296875 C-160.72989327 1366.62658731 -193.83437467 1366.99875532 -226.625 1364.75 C-227.57270264 1364.6886084 -228.52040527 1364.6272168 -229.49682617 1364.56396484 C-239.88144778 1363.63348117 -249.00780091 1360.3742655 -256.0625 1352.5 C-263.86881326 1342.51281071 -265.06717117 1331.80423169 -264.0625 1319.5 C-263.42304011 1314.70937964 -262.35775025 1310.15386426 -261.0625 1305.5 C-260.72992187 1304.27410156 -260.39734375 1303.04820313 -260.0546875 1301.78515625 C-250.28191254 1268.49740569 -231.7075804 1235.68848058 -214.43896484 1205.88574219 C-213.24129772 1203.80989913 -212.06155218 1201.72597856 -210.89453125 1199.6328125 C-201.77807559 1183.35477003 -191.41349665 1167.96592252 -180.703125 1152.703125 C-177.32049373 1147.88210119 -174.0163863 1143.02037109 -170.77734375 1138.1015625 C-169.5737083 1136.27554608 -168.35631693 1134.4585583 -167.12890625 1132.6484375 C-165.07744928 1129.61723987 -163.06317434 1126.56494283 -161.0625 1123.5 C-160.49499023 1122.64365967 -160.49499023 1122.64365967 -159.91601562 1121.77001953 C-151.73140498 1109.32061797 -147.72498546 1097.3684504 -145.35253906 1082.67553711 C-142.30931432 1064.46664 -137.05830142 1046.6445539 -131.17138672 1029.17651367 C-127.67425213 1018.72806264 -124.9798388 1008.29793339 -123.9375 997.3125 C-123.18051752 989.73603505 -123.18051752 989.73603505 -122.0625 987.5 C-121.84321688 986.13581477 -121.66954973 984.76415363 -121.51953125 983.390625 C-121.41825928 982.50882568 -121.3169873 981.62702637 -121.21264648 980.71850586 C-121.10122314 979.73889893 -120.9897998 978.75929199 -120.875 977.75 C-119.50493653 966.27087047 -117.79311832 954.85689701 -116 943.4375 C-115.87025787 942.60085815 -115.74051575 941.76421631 -115.60684204 940.90222168 C-115.23111484 938.48478748 -114.84903848 936.06844513 -114.46484375 933.65234375 C-114.35343048 932.93334396 -114.24201721 932.21434418 -114.12722778 931.47355652 C-113.41040628 927.03454078 -112.35041072 922.80512098 -111.0625 918.5 C-110.71522471 916.71474776 -110.4017468 914.92253634 -110.125 913.125 C-109.57089739 909.56987765 -108.98140257 906.03431352 -108.26953125 902.5078125 C-102.35753003 872.72666783 -111.92355346 845.52498962 -120.27978516 817.15966797 C-122.85991772 808.39236785 -125.34564777 799.62657618 -127.44921875 790.73046875 C-127.85237014 788.54535066 -127.85237014 788.54535066 -129.0625 787.5 C-129.45651526 785.81300996 -129.79625561 784.11329399 -130.11328125 782.41015625 C-130.31526123 781.32887451 -130.51724121 780.24759277 -130.7253418 779.13354492 C-130.939729 777.9551001 -131.15411621 776.77665527 -131.375 775.5625 C-131.59647705 774.34989502 -131.8179541 773.13729004 -132.04614258 771.88793945 C-134.28883618 759.45937733 -136.36103765 747.01483775 -138.0625 734.5 C-138.18254395 733.62230957 -138.30258789 732.74461914 -138.42626953 731.84033203 C-145.60383742 676.54845663 -136.2994256 618.45287591 -122.640625 564.83984375 C-121.19833234 559.17145235 -119.97364272 553.47004195 -118.76806641 547.74731445 C-117.84584372 543.50285632 -116.76536649 539.31516227 -115.625 535.125 C-115.18668901 533.48719599 -114.74920086 531.84917157 -114.3125 530.2109375 C-113.99345703 529.01549316 -113.99345703 529.01549316 -113.66796875 527.79589844 C-112.78695048 524.45513401 -111.95482631 521.10388132 -111.125 517.75 C-109.23349794 510.12247951 -107.25323436 502.5194472 -105.25610352 494.91894531 C-104.76726637 493.05530489 -104.2811326 491.19095342 -103.79760742 489.32592773 C-103.30850494 487.44570149 -102.81129463 485.56756524 -102.3059082 483.69165039 C-93.67298515 450.81212583 -93.6798392 417.62781776 -96.77151489 384.04190063 C-100.47135946 343.63563169 -94.6724396 305.75888438 -86.62536621 266.25994873 C-85.25165104 259.5023755 -83.96791816 252.73222319 -82.73974609 245.94677734 C-81.76173558 240.96928907 -80.50186116 236.06919872 -79.23046875 231.16015625 C-77.48039362 224.27795894 -75.92915761 217.34797558 -74.34448242 210.42626953 C-73.98833862 208.87141846 -73.98833862 208.87141846 -73.625 207.28515625 C-73.25713379 205.6594873 -73.25713379 205.6594873 -72.88183594 204.00097656 C-72.30530313 201.53748415 -71.69614962 199.08151137 -71.06347656 196.63183594 C-68.40759143 186.25232832 -66.99372135 175.98279032 -66.05175781 165.31689453 C-65.81318639 162.63272257 -65.55249623 159.951365 -65.2890625 157.26953125 C-63.09530786 135.97586055 -63.09530786 135.97586055 -65.56640625 114.890625 C-66.15431644 112.05754597 -66.29438217 109.32778198 -66.4375 106.4375 C-66.91803677 98.35736314 -68.26276059 90.447286 -69.60302734 82.47045898 C-71.20475395 72.91179208 -72.24294099 63.69908448 -72.25 54 C-72.26224609 53.11441406 -72.27449219 52.22882813 -72.28710938 51.31640625 C-72.31349324 39.33813302 -69.19966706 29.29414553 -61.0234375 20.30859375 C-47.46883845 7.80704124 -18.15895915 -10.44884371 0 0 Z " fill="currentColor" transform="translate(1402.0625,80.5)"/>
<path d="M0 0 C0.67160156 0.4640625 1.34320312 0.928125 2.03515625 1.40625 C4.14972426 2.83229179 4.14972426 2.83229179 7.9375 2.5 C9.96542359 1.41254793 9.96542359 1.41254793 12 0 C18.99091096 -4.02749698 25.76312716 -3.20725396 33.375 -1.3125 C50.18283117 3.82983928 71.18678002 12.99026707 79.92016602 29.33959961 C83.61397333 37.18373231 84.48545598 44.85013907 84.4375 53.4375 C84.43540527 54.58049561 84.43331055 55.72349121 84.43115234 56.90112305 C84.13660695 73.79701122 81.08888504 90.4991383 78.3359375 107.13525391 C77.01587537 115.54947134 76.62383329 123.73825117 76.6875 132.25 C76.69093414 132.91541809 76.69436829 133.58083618 76.69790649 134.26641846 C76.86892239 162.86044628 81.37118984 189.30730179 88.19506836 216.99710083 C95.27558232 245.75264895 101.47142885 274.78600118 106.3515625 303.99902344 C106.71505687 306.1709023 107.0882145 308.34121628 107.4765625 310.50878906 C111.88290021 335.3993515 111.77279825 362.90022824 108.9375 388 C105.83376424 415.75981265 106.3846526 445.12693526 111.9375 472.5 C112.22633057 473.95986328 112.22633057 473.95986328 112.52099609 475.44921875 C115.4406275 489.90834569 119.49704103 504.05687054 123.74169922 518.17480469 C128.0892989 532.67026854 131.53469478 547.2685927 134.6875 562.0625 C134.8780899 562.95633392 135.06867981 563.85016785 135.26504517 564.77108765 C137.3893267 574.77466037 139.38439659 584.79119187 141.22753906 594.85009766 C141.89639957 598.2887031 142.6734677 601.6783898 143.5 605.08203125 C145.14898222 612.06121967 146.07652386 619.07361698 146.9375 626.1875 C147.10563269 627.56357769 147.27393022 628.93963526 147.44238281 630.31567383 C147.69783134 632.40493009 147.9524353 634.49426318 148.20367432 636.58403015 C148.69576481 640.64978371 149.24955536 644.70037518 149.859375 648.75 C156.76080596 696.587046 151.42924998 748.00009803 138.9375 794.5 C138.47079198 796.42197059 138.00416124 798.34396408 137.54223633 800.26708984 C135.96435055 806.78901771 134.15474838 813.210258 132.1875 819.625 C129.4910876 828.42747609 127.05721068 837.29281726 124.6875 846.1875 C124.51496704 846.83261536 124.34243408 847.47773071 124.16467285 848.14239502 C123.06611616 852.25588534 121.99328436 856.37533929 120.9375 860.5 C120.71892334 861.32854492 120.50034668 862.15708984 120.27514648 863.01074219 C115.85340245 880.90384174 119.5503807 899.7231944 123.27929688 917.37841797 C124.21707227 921.82589432 125.0849367 926.28551607 125.9375 930.75 C126.09573242 931.5747583 126.25396484 932.3995166 126.41699219 933.24926758 C129.63495069 950.26237653 132.35978237 967.36679699 134.45556641 984.5534668 C136.94474582 1004.93724861 140.81122442 1023.74986785 147.53869629 1043.16543579 C152.10994345 1056.39138919 155.18605738 1069.78792954 157.9375 1083.5 C161.03497849 1098.75734099 165.05680778 1111.50881596 173.9375 1124.5 C174.31084473 1125.05042969 174.68418945 1125.60085938 175.06884766 1126.16796875 C179.57760344 1132.81283698 184.16353847 1139.40314026 188.78125 1145.97265625 C197.18424543 1157.94558474 205.30968417 1170.01788369 212.9375 1182.5 C213.67129883 1183.69955322 213.67129883 1183.69955322 214.41992188 1184.92333984 C282.59588346 1296.73989583 282.59588346 1296.73989583 275.359375 1341.0390625 C272.89214394 1348.82205503 267.55812988 1355.534761 260.69140625 1359.94140625 C253.31282615 1363.31340491 244.93454658 1363.84415756 236.9375 1364.5 C235.91543457 1364.58612549 234.89336914 1364.67225098 233.84033203 1364.76098633 C222.62712716 1365.61154257 211.42923192 1365.78451638 200.1875 1365.8125 C199.1694931 1365.81511841 198.15148621 1365.81773682 197.10263062 1365.82043457 C176.04493046 1365.82615972 155.3336522 1364.14038682 134.4251709 1361.77856445 C131.20775906 1361.41828506 127.98868165 1361.07468836 124.7693634 1360.73193359 C115.15253853 1359.70754655 105.54384142 1358.61803644 95.9375 1357.5 C95.14684143 1357.40807373 94.35618286 1357.31614746 93.54156494 1357.22143555 C83.00514706 1355.99549766 72.47054204 1354.75460593 61.9375 1353.5 C61.64633301 1354.1194751 61.35516602 1354.7389502 61.05517578 1355.37719727 C54.73779704 1367.37580106 38.88684285 1372.43799188 26.9375 1376.5 C25.885625 1376.87898438 24.83375 1377.25796875 23.75 1377.6484375 C8.49976079 1381.05474093 -8.78312375 1379.76120301 -23.0625 1373.5 C-24.25617188 1373.0153125 -25.44984375 1372.530625 -26.6796875 1372.03125 C-34.31161886 1368.624436 -39.82240452 1364.55356708 -45.44995117 1358.41186523 C-48.29361272 1355.46592382 -49.64739269 1354.52188634 -53.79467773 1354.30322266 C-57.71483311 1354.42443026 -61.58599338 1354.8031255 -65.48046875 1355.26953125 C-66.16662766 1355.35011276 -66.85278656 1355.43069427 -67.55973816 1355.51371765 C-69.02750062 1355.6864168 -70.49503182 1355.86109131 -71.96234131 1356.03759766 C-75.89688943 1356.51040267 -79.8332903 1356.96732083 -83.76953125 1357.42578125 C-84.96008118 1357.56495468 -84.96008118 1357.56495468 -86.17468262 1357.7069397 C-94.43320765 1358.66829393 -102.70079134 1359.53384772 -110.97509766 1360.34814453 C-116.71119703 1360.91888137 -122.43333789 1361.5319911 -128.14710999 1362.29296875 C-160.72989327 1366.62658731 -193.83437467 1366.99875532 -226.625 1364.75 C-227.57270264 1364.6886084 -228.52040527 1364.6272168 -229.49682617 1364.56396484 C-239.88144778 1363.63348117 -249.00780091 1360.3742655 -256.0625 1352.5 C-263.86881326 1342.51281071 -265.06717117 1331.80423169 -264.0625 1319.5 C-263.42304011 1314.70937964 -262.35775025 1310.15386426 -261.0625 1305.5 C-260.72992187 1304.27410156 -260.39734375 1303.04820313 -260.0546875 1301.78515625 C-250.28191254 1268.49740569 -231.7075804 1235.68848058 -214.43896484 1205.88574219 C-213.24129772 1203.80989913 -212.06155218 1201.72597856 -210.89453125 1199.6328125 C-201.77807559 1183.35477003 -191.41349665 1167.96592252 -180.703125 1152.703125 C-177.32049373 1147.88210119 -174.0163863 1143.02037109 -170.77734375 1138.1015625 C-169.5737083 1136.27554608 -168.35631693 1134.4585583 -167.12890625 1132.6484375 C-165.07744928 1129.61723987 -163.06317434 1126.56494283 -161.0625 1123.5 C-160.49499023 1122.64365967 -160.49499023 1122.64365967 -159.91601562 1121.77001953 C-151.73140498 1109.32061797 -147.72498546 1097.3684504 -145.35253906 1082.67553711 C-142.30931432 1064.46664 -137.05830142 1046.6445539 -131.17138672 1029.17651367 C-127.67425213 1018.72806264 -124.9798388 1008.29793339 -123.9375 997.3125 C-123.18051752 989.73603505 -123.18051752 989.73603505 -122.0625 987.5 C-121.84321688 986.13581477 -121.66954973 984.76415363 -121.51953125 983.390625 C-121.41825928 982.50882568 -121.3169873 981.62702637 -121.21264648 980.71850586 C-121.10122314 979.73889893 -120.9897998 978.75929199 -120.875 977.75 C-119.50493653 966.27087047 -117.79311832 954.85689701 -116 943.4375 C-115.87025787 942.60085815 -115.74051575 941.76421631 -115.60684204 940.90222168 C-115.23111484 938.48478748 -114.84903848 936.06844513 -114.46484375 933.65234375 C-114.35343048 932.93334396 -114.24201721 932.21434418 -114.12722778 931.47355652 C-113.41040628 927.03454078 -112.35041072 922.80512098 -111.0625 918.5 C-110.71522471 916.71474776 -110.4017468 914.92253634 -110.125 913.125 C-109.57089739 909.56987765 -108.98140257 906.03431352 -108.26953125 902.5078125 C-102.35753003 872.72666783 -111.92355346 845.52498962 -120.27978516 817.15966797 C-122.85991772 808.39236785 -125.34564777 799.62657618 -127.44921875 790.73046875 C-127.85237014 788.54535066 -127.85237014 788.54535066 -129.0625 787.5 C-129.45651526 785.81300996 -129.79625561 784.11329399 -130.11328125 782.41015625 C-130.31526123 781.32887451 -130.51724121 780.24759277 -130.7253418 779.13354492 C-130.939729 777.9551001 -131.15411621 776.77665527 -131.375 775.5625 C-131.59647705 774.34989502 -131.8179541 773.13729004 -132.04614258 771.88793945 C-134.28883618 759.45937733 -136.36103765 747.01483775 -138.0625 734.5 C-138.18254395 733.62230957 -138.30258789 732.74461914 -138.42626953 731.84033203 C-145.60383742 676.54845663 -136.2994256 618.45287591 -122.640625 564.83984375 C-121.19833234 559.17145235 -119.97364272 553.47004195 -118.76806641 547.74731445 C-117.84584372 543.50285632 -116.76536649 539.31516227 -115.625 535.125 C-115.18668901 533.48719599 -114.74920086 531.84917157 -114.3125 530.2109375 C-113.99345703 529.01549316 -113.99345703 529.01549316 -113.66796875 527.79589844 C-112.78695048 524.45513401 -111.95482631 521.10388132 -111.125 517.75 C-109.23349794 510.12247951 -107.25323436 502.5194472 -105.25610352 494.91894531 C-104.76726637 493.05530489 -104.2811326 491.19095342 -103.79760742 489.32592773 C-103.30850494 487.44570149 -102.81129463 485.56756524 -102.3059082 483.69165039 C-93.67298515 450.81212583 -93.6798392 417.62781776 -96.77151489 384.04190063 C-100.47135946 343.63563169 -94.6724396 305.75888438 -86.62536621 266.25994873 C-85.25165104 259.5023755 -83.96791816 252.73222319 -82.73974609 245.94677734 C-81.76173558 240.96928907 -80.50186116 236.06919872 -79.23046875 231.16015625 C-77.48039362 224.27795894 -75.92915761 217.34797558 -74.34448242 210.42626953 C-73.98833862 208.87141846 -73.98833862 208.87141846 -73.625 207.28515625 C-73.25713379 205.6594873 -73.25713379 205.6594873 -72.88183594 204.00097656 C-72.30530313 201.53748415 -71.69614962 199.08151137 -71.06347656 196.63183594 C-68.40759143 186.25232832 -66.99372135 175.98279032 -66.05175781 165.31689453 C-65.81318639 162.63272257 -65.55249623 159.951365 -65.2890625 157.26953125 C-63.09530786 135.97586055 -63.09530786 135.97586055 -65.56640625 114.890625 C-66.15431644 112.05754597 -66.29438217 109.32778198 -66.4375 106.4375 C-66.91803677 98.35736314 -68.26276059 90.447286 -69.60302734 82.47045898 C-71.20475395 72.91179208 -72.24294099 63.69908448 -72.25 54 C-72.26224609 53.11441406 -72.27449219 52.22882813 -72.28710938 51.31640625 C-72.31349324 39.33813302 -69.19966706 29.29414553 -61.0234375 20.30859375 C-47.46883845 7.80704124 -18.15895915 -10.44884371 0 0 Z M-49.0625 35.5 C-56.12748929 47.27498215 -53.98238508 63.79677164 -51.34521484 76.73608398 C-49.78795022 84.44535966 -48.95011737 92.22552148 -48.06518555 100.03613281 C-47.94828369 101.06061523 -47.83138184 102.08509766 -47.7109375 103.140625 C-47.60958496 104.05360352 -47.50823242 104.96658203 -47.40380859 105.90722656 C-47.11294068 108.45368905 -47.11294068 108.45368905 -46.53686523 110.72558594 C-45.82462454 114.89125927 -45.85934818 119.0306642 -45.82421875 123.25 C-45.80952797 124.68656197 -45.80952797 124.68656197 -45.79454041 126.15214539 C-45.62066057 147.61207647 -45.91566507 168.36775428 -50.0625 189.5 C-50.28212402 190.64307617 -50.50174805 191.78615234 -50.72802734 192.96386719 C-53.50442455 207.16220136 -56.94253819 221.17936195 -60.52001953 235.19360352 C-63.24281184 245.96293572 -65.43988647 256.80417308 -67.52148438 267.71289062 C-68.00720854 270.21515914 -68.51821285 272.70963754 -69.046875 275.203125 C-71.25392874 285.66523534 -73.09034773 296.18738791 -74.84158325 306.73400879 C-75.10881962 308.33938392 -75.37879172 309.94430665 -75.65182495 311.54870605 C-78.24797271 326.86381993 -79.24029868 341.95849326 -79.25 357.5 C-79.26224609 358.50160156 -79.27449219 359.50320313 -79.28710938 360.53515625 C-79.30099561 368.15407292 -78.7351808 375.63764583 -78.06640625 383.22265625 C-77.01943645 395.3658022 -76.75504487 407.43002085 -76.80175781 419.61401367 C-76.81257581 422.96095546 -76.80172457 426.30737007 -76.7890625 429.65429688 C-76.78106768 442.0794507 -77.32451663 454.19544754 -79.0625 466.5 C-79.16744781 467.25673004 -79.27239563 468.01346008 -79.38052368 468.79312134 C-81.01521422 480.50822446 -83.93128464 491.58143985 -87.30712891 502.90820312 C-88.49395763 506.98039889 -89.56298372 511.08129113 -90.625 515.1875 C-92.42408655 522.124668 -94.29884248 529.03573894 -96.27563477 535.92456055 C-99.86642381 548.62094521 -102.38157531 561.60421902 -105.08569336 574.51147461 C-105.53634166 576.66025961 -105.98881382 578.80865503 -106.44140625 580.95703125 C-106.7051001 582.21491455 -106.96879395 583.47279785 -107.24047852 584.76879883 C-107.81106949 587.35874296 -108.41526205 589.91297324 -109.07617188 592.47875977 C-110.07250075 596.41393296 -110.80529497 600.37883932 -111.46484375 604.3828125 C-111.58721405 605.11130402 -111.70958435 605.83979553 -111.83566284 606.59036255 C-112.22781562 608.93459103 -112.61450732 611.27966769 -113 613.625 C-113.13256195 614.42723999 -113.2651239 615.22947998 -113.40170288 616.05603027 C-114.97764232 625.60768378 -116.53271454 635.16224671 -117.875 644.75 C-118.04213501 645.91233154 -118.04213501 645.91233154 -118.21264648 647.09814453 C-123.12030824 683.75919772 -121.49254831 722.17407431 -115.0625 758.5 C-114.85963379 759.6657959 -114.65676758 760.8315918 -114.44775391 762.03271484 C-111.86508893 776.43910918 -108.02325729 790.47599766 -103.93115234 804.51757812 C-102.58127713 809.15222557 -101.26119391 813.79532223 -99.9375 818.4375 C-99.44798386 820.14975879 -98.95840185 821.86199876 -98.46875 823.57421875 C-97.99991122 825.21612049 -97.53115926 826.85804701 -97.0625 828.5 C-96.72605469 829.6768335 -96.72605469 829.6768335 -96.3828125 830.87744141 C-94.03576184 839.11110222 -91.79204985 847.35697042 -89.8125 855.6875 C-89.64927246 856.37038086 -89.48604492 857.05326172 -89.31787109 857.75683594 C-84.79400695 877.23016808 -86.7597326 895.88174033 -91.49462891 915.05859375 C-92.48203098 919.30365856 -92.99355262 923.59184818 -93.54296875 927.91015625 C-94.1826289 932.3300636 -95.0627418 936.6841723 -95.9375 941.0625 C-98.33468717 953.23059972 -99.91382614 965.49579749 -101.55810547 977.78369141 C-107.85219839 1024.15769065 -107.85219839 1024.15769065 -115.55078125 1044.4609375 C-119.64068307 1055.28914156 -122.68560251 1066.31957372 -124.984375 1077.66015625 C-125.15101151 1078.47840881 -125.31764801 1079.29666138 -125.48933411 1080.13970947 C-126.32257291 1084.25717212 -127.1310763 1088.37770675 -127.90698242 1092.50634766 C-130.5807841 1106.29488374 -134.8617792 1119.73173817 -142.75 1131.5 C-143.16515869 1132.14259766 -143.58031738 1132.78519531 -144.00805664 1133.44726562 C-148.18278874 1139.84023432 -152.61086858 1146.06310343 -157.05078125 1152.2734375 C-167.54568955 1166.95753242 -177.76130803 1181.90675629 -187.13671875 1197.33203125 C-188.41878151 1199.4410635 -189.71306229 1201.54271761 -191.01953125 1203.63671875 C-198.3616266 1215.41013792 -205.19032289 1227.31986357 -210.97485352 1239.93920898 C-213.46480402 1245.33685409 -216.18718858 1250.57693184 -219 1255.8125 C-224.17190675 1265.50351975 -228.74431152 1275.40217213 -233.0625 1285.5 C-233.42649902 1286.34771973 -233.79049805 1287.19543945 -234.16552734 1288.06884766 C-244.73145483 1311.09268903 -244.73145483 1311.09268903 -243.8125 1335.375 C-241.03326393 1340.40661174 -241.03326393 1340.40661174 -236.15625 1343.1484375 C-226.60507791 1345.46896875 -216.77366915 1345.66308979 -206.99609375 1345.703125 C-205.28547508 1345.71337456 -205.28547508 1345.71337456 -203.54029846 1345.72383118 C-199.86016869 1345.74086354 -196.18016689 1345.74715981 -192.5 1345.75 C-191.24695068 1345.75200409 -189.99390137 1345.75400818 -188.70288086 1345.756073 C-170.13481893 1345.76335261 -151.94736946 1345.03671847 -133.51269531 1342.85620117 C-129.73646963 1342.46634034 -125.96130655 1342.23083353 -122.171875 1342.0234375 C-114.84124936 1341.61280766 -107.59701421 1340.79637828 -100.31738281 1339.82873535 C-96.86414134 1339.37016742 -93.4086689 1338.92911174 -89.953125 1338.48828125 C-88.93732361 1338.35835281 -88.93732361 1338.35835281 -87.90100098 1338.22579956 C-79.30612203 1337.13622509 -70.6894947 1336.28804279 -62.0625 1335.5 C-64.35106245 1327.8194457 -66.69803669 1320.15750046 -69.0625 1312.5 C-70.3 1312.479375 -71.5375 1312.45875 -72.8125 1312.4375 C-73.50859375 1312.42589844 -74.2046875 1312.41429687 -74.921875 1312.40234375 C-77.02205065 1312.41664189 -77.02205065 1312.41664189 -78.81494141 1312.99560547 C-83.95923493 1314.15008194 -89.44053089 1313.68483386 -94.6875 1313.6875 C-95.90179687 1313.69974609 -97.11609375 1313.71199219 -98.3671875 1313.72460938 C-107.62566015 1313.73913627 -116.61617834 1312.92628562 -125.79284668 1311.78244019 C-129.46525998 1311.32543775 -133.14088668 1310.89602678 -136.81640625 1310.46484375 C-137.53446945 1310.38044037 -138.25253265 1310.29603699 -138.99235535 1310.20907593 C-141.20303581 1309.95011724 -143.41394554 1309.69324519 -145.625 1309.4375 C-146.39377472 1309.34840363 -147.16254944 1309.25930725 -147.95462036 1309.16751099 C-159.1644086 1307.8834857 -170.26819258 1306.99590023 -181.56274414 1306.91577148 C-190.30784854 1306.77664655 -190.30784854 1306.77664655 -194.0625 1303.5 C-195.27718687 1299.85593938 -195.98384277 1296.25412801 -195.0625 1292.5 C-193.45045392 1290.69075217 -191.84764215 1289.12428438 -190.0625 1287.5 C-188.77296409 1286.25451868 -187.48818584 1285.00410108 -186.20703125 1283.75 C-185.50763428 1283.06671631 -184.8082373 1282.38343262 -184.08764648 1281.67944336 C-176.34170304 1274.04973607 -169.25594749 1266.46160068 -163.0625 1257.5 C-162.48177734 1256.66645996 -161.90105469 1255.83291992 -161.30273438 1254.97412109 C-152.50635588 1242.27241576 -144.44965589 1229.31032465 -137.02734375 1215.76171875 C-136.04519125 1214.00437319 -135.05676894 1212.25051885 -134.0625 1210.5 C-133.51996582 1209.54303223 -132.97743164 1208.58606445 -132.41845703 1207.60009766 C-126.71998605 1198.05431294 -119.82709411 1193.69374071 -110.1875 1188.625 C-103.20230946 1184.85171149 -97.03786038 1180.76259373 -91.0625 1175.5 C-90.00114992 1174.6652026 -88.93878786 1173.83168869 -87.875 1173 C-85.58958153 1170.96851692 -83.67653166 1168.98941304 -81.6875 1166.6875 C-80.48017685 1165.29079282 -79.271823 1163.89497599 -78.0625 1162.5 C-77.46824219 1161.81292969 -76.87398437 1161.12585937 -76.26171875 1160.41796875 C-70.24642657 1153.90451573 -63.37072516 1149.18989822 -54.42578125 1148.02734375 C-47.90846293 1147.86804692 -42.75482411 1148.28259942 -37.0625 1151.5 C-35.9178125 1151.9640625 -35.9178125 1151.9640625 -34.75 1152.4375 C-32.55600134 1153.81890656 -32.14510474 1155.15711112 -31.0625 1157.5 C-30.72089844 1158.2321875 -30.37929687 1158.964375 -30.02734375 1159.71875 C-29.68832031 1160.4715625 -29.34929687 1161.224375 -29 1162 C-28.65839844 1162.7528125 -28.31679687 1163.505625 -27.96484375 1164.28125 C-26.09736571 1168.87314404 -25.78359109 1173.33132179 -25.5 1178.25 C-25.45681641 1178.94738281 -25.41363281 1179.64476562 -25.36914062 1180.36328125 C-25.26360404 1182.07531922 -25.1626009 1183.78763561 -25.0625 1185.5 C-24.37414063 1185.22285156 -23.68578125 1184.94570312 -22.9765625 1184.66015625 C-19.80499892 1183.39748281 -16.62316174 1182.16416286 -13.4375 1180.9375 C-12.31085938 1180.50308594 -11.18421875 1180.06867188 -10.0234375 1179.62109375 C0.52895716 1175.625662 13.96389988 1175.79030896 24.5 1179.875 C27.0905158 1181.05156893 29.58840008 1182.3111946 32.08984375 1183.6640625 C34.05505188 1184.70610297 34.05505188 1184.70610297 36.9375 1184.5 C36.96328125 1183.70078125 36.9890625 1182.9015625 37.015625 1182.078125 C37.58643173 1171.02523104 39.35476005 1161.50230824 46.9609375 1153.12109375 C51.73563472 1149.20508714 55.81996574 1148.10029831 61.9375 1148.1875 C63.113125 1148.19136719 64.28875 1148.19523437 65.5 1148.19921875 C72.9809497 1148.85380185 77.99024471 1152.2472141 83.9375 1156.5 C84.80375 1157.11875 85.67 1157.7375 86.5625 1158.375 C88.57855895 1160.17884222 90.20124023 1161.94189696 91.9375 1164 C102.16122432 1175.83219819 113.58480027 1183.93572696 127.2734375 1191.29296875 C128.29695313 1191.85628906 129.32046875 1192.41960937 130.375 1193 C131.26058594 1193.4640625 132.14617187 1193.928125 133.05859375 1194.40625 C141.11042201 1200.26212509 145.74746973 1208.15103978 150.1875 1216.875 C163.89596828 1242.93630802 180.0918343 1264.99490424 201.07519531 1285.6015625 C202.00090332 1286.51421875 202.00090332 1286.51421875 202.9453125 1287.4453125 C203.49848145 1287.98687988 204.05165039 1288.52844727 204.62158203 1289.08642578 C207.08937389 1291.73735619 207.15179301 1293.91755476 207.25 1297.4375 C207.28738281 1298.31277344 207.32476563 1299.18804688 207.36328125 1300.08984375 C206.9375 1302.5 206.9375 1302.5 205.19439697 1304.11036682 C202.72184937 1305.63278199 201.27331215 1305.95229825 198.40136719 1306.14428711 C197.50273453 1306.21137375 196.60410187 1306.27846039 195.67823792 1306.34757996 C194.70676315 1306.40690201 193.73528839 1306.46622406 192.734375 1306.52734375 C191.71677597 1306.60112747 190.69917694 1306.67491119 189.65074158 1306.75093079 C187.46614807 1306.9087273 185.2811391 1307.06085425 183.09579468 1307.20788574 C177.3755497 1307.59325436 171.65836241 1308.01808158 165.94140625 1308.44921875 C164.81068192 1308.53414581 163.67995758 1308.61907288 162.51496887 1308.70657349 C153.49707506 1309.40648543 144.5772622 1310.47893637 135.625 1311.75 C117.82303569 1314.21381962 99.8072989 1314.65094751 81.9375 1312.5 C80.76319926 1315.7681432 79.59938744 1319.03992515 78.4375 1322.3125 C78.10363281 1323.24126953 77.76976562 1324.17003906 77.42578125 1325.12695312 C77.10996094 1326.01962891 76.79414062 1326.91230469 76.46875 1327.83203125 C76.17548828 1328.65421143 75.88222656 1329.4763916 75.58007812 1330.32348633 C74.79592475 1332.60130654 74.79592475 1332.60130654 74.9375 1335.5 C87.79741335 1337.34138578 100.7055291 1338.72326111 113.62158203 1340.10449219 C117.27028638 1340.49547651 120.91834859 1340.89209551 124.56640625 1341.2890625 C131.68695389 1342.05829447 138.81058397 1342.79227998 145.9375 1343.5 C147.52531281 1343.65897766 147.52531281 1343.65897766 149.14520264 1343.82116699 C165.10303855 1345.37899386 180.95742377 1345.81418883 196.98730469 1345.76074219 C200.83023631 1345.74995019 204.67270672 1345.76075138 208.515625 1345.7734375 C219.34412512 1345.78143684 230.15518963 1345.72646312 240.9453125 1344.734375 C242.07415359 1344.64328461 242.07415359 1344.64328461 243.22579956 1344.550354 C247.9158308 1344.03221305 250.59571323 1342.82403183 253.9375 1339.5 C258.62003157 1332.07253613 257.95865278 1323.05263948 256.09375 1314.73828125 C252.95766723 1303.71136422 248.3552668 1293.05954016 243.9375 1282.5 C243.63553711 1281.77748047 243.33357422 1281.05496094 243.02246094 1280.31054688 C239.09691649 1270.98573403 234.78561239 1261.88980416 230.1640625 1252.89111328 C229.2852401 1251.17789939 228.41073364 1249.4624689 227.5390625 1247.74560547 C219.99480934 1232.89407861 212.00045886 1218.38795244 203.47119141 1204.07958984 C202.13825832 1201.83766514 200.82068007 1199.58799568 199.51171875 1197.33203125 C193.97985071 1187.85538787 187.81724688 1178.845693 181.55859375 1169.83691406 C179.51620833 1166.89268015 177.48996869 1163.93755213 175.46411133 1160.98193359 C172.12739792 1156.11490031 168.77711081 1151.25913957 165.375 1146.4375 C164.22719148 1144.79304356 163.08156685 1143.14706176 161.9375 1141.5 C161.55207031 1140.95021484 161.16664063 1140.40042969 160.76953125 1139.83398438 C148.88220214 1122.80767144 142.83926999 1105.47387332 138.5597229 1085.27523804 C135.33970316 1070.13602659 131.65042381 1055.33009083 126.6328125 1040.67578125 C120.05318673 1021.44774444 116.84721601 1002.51245889 114.60678101 982.37817383 C113.05864605 968.53661013 110.91485664 954.79623525 108.40722656 941.09912109 C107.83992858 937.96011158 107.29102523 934.81807049 106.7421875 931.67578125 C106.30732363 929.20051522 105.87242766 926.72525483 105.4375 924.25 C105.23592285 923.08976318 105.0343457 921.92952637 104.82666016 920.73413086 C103.82649124 915.07895889 102.71166149 909.51497765 101.30859375 903.9453125 C99.78309643 897.45533548 99.43993133 891.27538907 99.5 884.625 C99.50467285 883.47040283 99.5093457 882.31580566 99.51416016 881.1262207 C99.73971506 867.72770942 101.51690993 854.19294427 105.9375 841.5 C107.01749314 837.84413458 108.03853588 834.17189839 109.0625 830.5 C109.36381836 829.42145752 109.66513672 828.34291504 109.97558594 827.23168945 C112.43225153 818.39762559 114.82371273 809.54676902 117.1875 800.6875 C117.68080811 798.83995117 117.68080811 798.83995117 118.18408203 796.95507812 C118.81571414 794.57815525 119.4433185 792.20015796 120.06665039 789.82104492 C120.6060351 787.76406419 121.15318057 785.70908067 121.71264648 783.6574707 C124.03752821 774.87501228 125.53751376 765.96264741 127.04467773 757.01147461 C127.49638462 754.33393059 127.95762246 751.65815488 128.41992188 748.98242188 C131.53884029 730.76801826 133.34548985 713.18612694 133.3125 694.6875 C133.31295319 693.69220276 133.31340637 692.69690552 133.31387329 691.67144775 C133.28931173 673.14464387 131.89484564 654.97874042 129.24749756 636.65109253 C129.0321665 635.1568968 128.82055968 633.66216152 128.61187744 632.16702271 C126.85226406 619.56488592 124.58791917 607.13109442 121.9375 594.6875 C121.74730286 593.78712006 121.55710571 592.88674011 121.36114502 591.95907593 C115.04385457 562.09123613 108.66482017 532.12036063 99.67089844 502.92773438 C91.9437451 477.34890188 88.54851512 452.12960191 88.6875 425.4375 C88.69015869 423.94426712 88.69015869 423.94426712 88.69287109 422.42086792 C88.71542341 411.59152663 88.83045962 400.84449069 89.9375 390.0625 C93.07303984 358.12131027 91.56774626 326.49898771 85.43475342 295.05004883 C84.91619112 292.39072237 84.40717222 289.72967531 83.89892578 287.06835938 C79.7557954 265.49771035 75.02300095 244.09982945 69.7265625 222.78515625 C68.06588877 216.08698812 66.52333434 209.36940755 65.0625 202.625 C64.87139648 201.74610107 64.68029297 200.86720215 64.48339844 199.96166992 C59.97944911 178.89896313 57.64773152 158.14983342 57.5625 136.625 C57.55482605 135.81663696 57.5471521 135.00827393 57.53924561 134.17541504 C57.45240687 122.73187086 58.59773684 111.90292271 60.57818604 100.64221191 C61.4444671 95.47748744 61.98109789 90.26538816 62.5625 85.0625 C62.80232321 82.93853379 63.044411 80.81482172 63.2890625 78.69140625 C63.39041504 77.78592041 63.49176758 76.88043457 63.59619141 75.94750977 C63.9375 73.5 63.9375 73.5 64.46533203 71.5559082 C65.61036303 66.57022771 65.16611405 61.21485684 65.1875 56.125 C65.208125 54.90554687 65.22875 53.68609375 65.25 52.4296875 C65.25515625 51.24890625 65.2603125 50.068125 65.265625 48.8515625 C65.27964355 47.24015381 65.27964355 47.24015381 65.29394531 45.59619141 C64.5546012 39.17402561 61.28000769 35.33424072 56.5078125 31.36328125 C51.27207642 27.56777044 45.63744216 24.52727343 39.9375 21.5 C39.10734375 21.03980469 38.2771875 20.57960938 37.421875 20.10546875 C31.70569619 17.19597486 26.2963853 16.80733571 19.9375 17.5 C16.10204257 21.33545743 17.69196678 32.89299786 17.68212891 37.9465332 C17.80592191 50.1275545 19.90436662 62.04023203 22.46875 73.921875 C23.26488081 78.30059443 23.74487388 82.72380881 24.24047852 87.14550781 C24.63875931 90.94426315 24.63875931 90.94426315 25.9375 94.5 C26.04062893 96.01424869 26.08337788 97.53282681 26.09521484 99.05053711 C26.11060806 100.46857887 26.11060806 100.46857887 26.12631226 101.91526794 C26.13361359 102.94225296 26.14091492 103.96923798 26.1484375 105.02734375 C26.17653208 107.20378323 26.20519667 109.38021541 26.234375 111.55664062 C26.2754432 114.98607985 26.31232889 118.41538665 26.33886719 121.8449707 C26.36670953 125.15604936 26.4126087 128.46650876 26.4609375 131.77734375 C26.4658168 133.29049416 26.4658168 133.29049416 26.47079468 134.83421326 C26.62737686 144.03767599 28.92400204 152.02145255 32.23846436 160.5425415 C37.30166572 174.72065475 37.52698386 189.76819927 37.3125 204.625 C37.29669381 206.64241084 37.28148459 208.65982644 37.2668457 210.67724609 C37.04289936 233.92099577 36.17196951 257.03252976 32.34179688 279.98974609 C27.9184867 307.45380118 27.84413151 333.83001852 31.79000854 361.26327515 C34.45020144 379.852471 35.72769633 397.92080811 31.64588642 416.42157841 C27.69805391 434.37728369 26.52086403 451.92025869 26.71484375 470.265625 C26.72557167 472.48117346 26.7346121 474.69673064 26.74208069 476.91229248 C26.76460347 482.6889916 26.80351138 488.46543746 26.8480835 494.24200439 C26.92727001 504.56228757 26.98950196 514.88260566 27.02734375 525.203125 C27.03154705 526.29461349 27.03575035 527.38610199 27.04008102 528.51066589 C27.14912219 565.63124997 27.14912219 565.63124997 23.9375 580.5 C23.6435735 584.1373404 23.4323626 587.77511102 23.21875 591.41796875 C22.9375 594.5 22.9375 594.5 21.9375 596.5 C21.65365753 599.02337444 21.41822614 601.53225097 21.21875 604.0625 C21.15594849 604.80959229 21.09314697 605.55668457 21.02844238 606.32641602 C20.82755775 608.71730523 20.63190522 611.10857573 20.4375 613.5 C20.18173368 616.64624148 19.92066677 619.79197506 19.65625 622.9375 C19.598927 623.66461182 19.541604 624.39172363 19.48254395 625.14086914 C19.05030181 630.27439638 19.05030181 630.27439638 17.9375 632.5 C17.74678401 635.20902544 17.6088445 637.90067495 17.5078125 640.61328125 C17.43414103 642.27020672 17.3599044 643.92710713 17.28515625 645.58398438 C17.17179904 648.19733418 17.06257086 650.81063259 16.96337891 653.42456055 C16.86558287 655.94650554 16.75046915 658.46719507 16.6328125 660.98828125 C16.60768585 661.76553055 16.5825592 662.54277985 16.55667114 663.34358215 C16.33187798 667.85290332 15.70174146 670.89014999 12.9375 674.5 C9.72812591 676.82402951 6.82243979 676.97570691 2.9375 676.5 C-0.40011045 674.34909549 -1.79720933 673.29587201 -3.0625 669.5 C-3.29609471 666.96324985 -3.48526788 664.44007856 -3.640625 661.8984375 C-3.74748819 660.2970763 -3.85502332 658.69575983 -3.96313477 657.09448242 C-4.01962189 656.24502045 -4.07610901 655.39555847 -4.13430786 654.52035522 C-5.35739469 636.36299348 -7.24801836 618.35260577 -9.57192993 600.30554199 C-12.71552991 575.8555283 -14.1893875 551.7337791 -14.23116493 527.07320595 C-14.23850714 523.63242145 -14.25429506 520.19176576 -14.27250671 516.75102234 C-14.32417316 506.98417899 -14.3728574 497.21741667 -14.38842773 487.45043945 C-14.39864487 481.42838447 -14.42829135 475.40667354 -14.46974754 469.38475609 C-14.48185054 467.12595435 -14.4872179 464.86710367 -14.48494911 462.60827065 C-14.47095391 444.13655584 -15.81112747 425.61933723 -20.8125 407.75 C-24.46024214 392.40921779 -21.78796244 376.6588421 -19.5625 361.3125 C-15.61005845 333.96930725 -15.36484519 306.01038824 -20.03515625 278.70703125 C-21.11683669 272.36779862 -21.90194307 266.01391572 -22.625 259.625 C-22.75068359 258.55636719 -22.87636719 257.48773438 -23.00585938 256.38671875 C-24.67782269 241.80299683 -25.27430961 227.39272755 -25.30273438 212.72436523 C-25.31244908 209.70333402 -25.34358115 206.68298233 -25.375 203.66210938 C-25.45834606 188.48582438 -23.85298732 174.45819412 -19.5 159.875 C-19.18772461 158.79025391 -19.18772461 158.79025391 -18.86914062 157.68359375 C-18.4836352 156.34701383 -18.09488134 155.01136036 -17.70092773 153.67724609 C-17.49024658 152.95875488 -17.27956543 152.24026367 -17.0625 151.5 C-16.71372803 150.47076416 -16.36495605 149.44152832 -16.00561523 148.38110352 C-14.85074613 143.62859145 -14.78282381 139.24858837 -14.7890625 134.37890625 C-14.77197446 132.38296738 -14.75395505 130.38703631 -14.73510742 128.39111328 C-14.72451797 126.83943451 -14.72451797 126.83943451 -14.7137146 125.25640869 C-14.57677112 108.57162374 -14.14556996 92.52566423 -10.62841797 76.16796875 C-7.67397562 62.23951925 -5.70744588 48.5053174 -5.6875 34.25 C-5.68588867 33.14865723 -5.68427734 32.04731445 -5.68261719 30.91259766 C-5.75332061 25.89972514 -5.97593333 22.12270781 -8.0625 17.5 C-22.1557701 16.59075677 -39.36999322 25.36692473 -49.0625 35.5 Z " fill="currentColor" transform="translate(1402.0625,80.5)"/>
<path d="M0 0 C3.54644745 2.44379409 6.96944052 5.02634561 10.3828125 7.65234375 C11.46949219 8.45865234 11.46949219 8.45865234 12.578125 9.28125 C23.17627376 17.62194555 29.03324053 31.29601737 33.42578125 43.69140625 C34.3437874 45.99065741 34.3437874 45.99065741 37.3828125 47.65234375 C38.5171875 47.89984375 39.6515625 48.14734375 40.8203125 48.40234375 C45.28125266 49.96758591 46.233681 51.51327567 48.3828125 55.65234375 C51.12217947 61.40501438 50.56423431 67.42352818 50.3828125 73.65234375 C49.62355469 73.61753906 48.86429688 73.58273437 48.08203125 73.546875 C47.08816406 73.51980469 46.09429688 73.49273438 45.0703125 73.46484375 C44.08417969 73.43003906 43.09804687 73.39523437 42.08203125 73.359375 C39.41363811 73.42446239 39.41363811 73.42446239 37.73510742 74.83862305 C35.89769673 77.30298918 36.02878258 78.90877503 36.046875 81.96484375 C36.03760986 83.0314624 36.02834473 84.09808105 36.01879883 85.19702148 C36.01517334 86.33727783 36.01154785 87.47753418 36.0078125 88.65234375 C35.55659478 109.79824602 30.92979057 127.53131029 15.3828125 142.65234375 C9.73265242 147.76439335 3.38491878 150.76358241 -3.6171875 153.65234375 C-4.42800781 154.008125 -5.23882813 154.36390625 -6.07421875 154.73046875 C-17.70208874 158.94579489 -32.20220476 157.80180946 -43.42578125 153.2109375 C-58.59455004 145.80293414 -69.7938352 135.24751714 -75.5546875 119.27734375 C-76.27294045 117.07882037 -76.96129262 114.87026942 -77.6171875 112.65234375 C-77.96910156 111.54632812 -78.32101562 110.4403125 -78.68359375 109.30078125 C-80.2129424 103.32416352 -80.63124985 97.43927554 -80.79296875 91.28515625 C-80.81681641 90.38023438 -80.84066406 89.4753125 -80.86523438 88.54296875 C-80.90874362 86.67602669 -80.93969358 84.8087556 -80.95898438 82.94140625 C-80.98669922 82.04421875 -81.01441406 81.14703125 -81.04296875 80.22265625 C-81.05755127 79.41586426 -81.07213379 78.60907227 -81.0871582 77.77783203 C-81.45542629 75.48613076 -81.45542629 75.48613076 -83.49194336 73.88500977 C-86.13649623 72.35113872 -87.83360429 72.34509704 -90.8671875 72.46484375 C-91.75921875 72.49191406 -92.65125 72.51898437 -93.5703125 72.546875 C-94.58351563 72.59908203 -94.58351563 72.59908203 -95.6171875 72.65234375 C-95.3133901 64.66247219 -94.55915517 55.59431142 -88.6171875 49.65234375 C-87.16634905 49.26862779 -85.70654175 48.91822884 -84.2421875 48.58984375 C-81.49114127 47.7065206 -80.01787395 47.20778634 -78.3125 44.84375 C-77.29195188 42.4779339 -76.44627451 40.09170196 -75.6171875 37.65234375 C-67.19580012 17.33312438 -54.47538213 4.11298465 -34.73828125 -5.47265625 C-22.60464894 -10.4780589 -10.47296553 -6.96072431 0 0 Z " fill="currentColor" transform="translate(1430.6171875,1283.34765625)"/>
<path d="M0 0 C5.96853741 5.96853741 4.6874467 15.71807798 4.80688477 23.53588867 C4.60715843 34.25785224 1.75661619 39.09430245 -5.59765625 46.41992188 C-8.01720467 49.14612616 -9.51815037 52.28465314 -11.0625 55.5625 C-11.58972656 56.67753906 -12.11695313 57.79257813 -12.66015625 58.94140625 C-14.01265961 61.92581014 -14.01265961 61.92581014 -14.98046875 64.78515625 C-16.33590885 67.72973301 -18.34743745 68.40312082 -21.1328125 69.859375 C-29.40319645 74.91157607 -33.4658091 85.25033606 -35.8125 94.1875 C-37.78594769 103.70515628 -38.86419088 113.32099952 -34 122 C-33.67 122.99 -33.34 123.98 -33 125 C-32.34 125 -31.68 125 -31 125 C-31.495 126.485 -31.495 126.485 -32 128 C-49.967589 134.61735507 -77.16591498 127.1221351 -95.58795166 124.86358643 C-102.3822319 124.04267707 -109.16786831 123.42013225 -116 123 C-114.24806481 119.27831078 -111.90517902 116.48711659 -109.1875 113.4375 C-93.83418607 95.69498327 -81.09419321 74.61279729 -70.42114258 53.77124023 C-66.10290802 45.6262387 -59.64783898 42.04426217 -51.8125 37.6875 C-37.57926433 29.56176403 -25.10336731 20.13280744 -14.80078125 7.25 C-10.96146314 2.45293443 -6.42379932 -1.31395895 0 0 Z " fill="currentColor" transform="translate(1354,1247)"/>
<path d="M0 0 C6.13914577 0.5791647 10.08747378 4.84995337 14.18359375 9.1640625 C15.08005615 10.09323486 15.97651855 11.02240723 16.90014648 11.97973633 C17.36524628 12.46358795 17.83034607 12.94743958 18.30953979 13.44595337 C26.93141406 22.37360543 35.4877857 30.13196564 46.3125 36.3125 C48.35865146 37.51617712 50.40039287 38.72689853 52.43969727 39.94213867 C53.72133643 40.70097305 55.00915819 41.44951526 56.30444336 42.18481445 C62.50264 45.77279307 66.39314387 49.92808819 69.765625 56.21484375 C70.38026611 57.34575439 70.99490723 58.47666504 71.62817383 59.6418457 C71.94412506 60.23164215 72.26007629 60.8214386 72.58560181 61.42910767 C74.23222945 64.49834422 75.91097408 67.54987552 77.58984375 70.6015625 C77.91623337 71.19566422 78.24262299 71.78976593 78.5789032 72.40187073 C85.46538321 84.88596305 93.51983639 97.0849296 102.60546875 108.08984375 C104.3125 110.3125 104.3125 110.3125 104.3125 112.3125 C104.9725 112.3125 105.6325 112.3125 106.3125 112.3125 C108.0390625 114.2109375 108.0390625 114.2109375 109.9375 116.6875 C110.56914063 117.49960938 111.20078125 118.31171875 111.8515625 119.1484375 C113.3125 121.3125 113.3125 121.3125 113.3125 123.3125 C112.4359375 123.34988281 111.559375 123.38726563 110.65625 123.42578125 C102.17574657 123.86531954 93.79895669 124.67321363 85.375 125.75 C84.3422998 125.88164551 83.30959961 126.01329102 82.24560547 126.14892578 C77.70425172 126.73317255 73.16532304 127.33177936 68.62890625 127.953125 C54.86280679 129.78420028 41.11798202 130.01537884 27.3125 128.3125 C28.3125 125.3125 28.3125 125.3125 30.75 123 C35.71952289 117.78806136 35.75061634 111.83456432 35.625 104.94921875 C34.60737683 93.10662913 30.82163562 79.95391395 21.75 71.75 C19.71229339 70.10322032 18.22756534 69.28469856 15.7109375 68.4609375 C13.3125 67.3125 13.3125 67.3125 12.23046875 65.16796875 C11.98941406 64.28753906 11.74835938 63.40710937 11.5 62.5 C9.00992102 54.86975798 5.1846285 46.98478876 -0.7121582 41.39233398 C-5.2160977 37.04247795 -7.21244834 34.09238415 -7.57421875 27.73828125 C-7.54922377 25.36638947 -7.4819482 22.99461124 -7.375 20.625 C-7.36404297 19.42810547 -7.35308594 18.23121094 -7.34179688 16.99804688 C-6.97247074 0.81075241 -6.97247074 0.81075241 0 0 Z " fill="currentColor" transform="translate(1464.6875,1246.6875)"/>
<path d="M0 0 C0.33 0 0.66 0 1 0 C2.5677292 8.33566485 3.18153199 16.43942327 3.2734375 24.90234375 C3.29014496 26.36155746 3.29014496 26.36155746 3.30718994 27.85025024 C3.34595605 31.89488923 3.37308025 35.93930884 3.38085938 39.98413086 C3.42071771 52.34918355 4.0509463 63.22657243 8 75 C8.41680093 76.42515682 8.82841419 77.85186303 9.23046875 79.28125 C9.87481554 81.44835921 10.52067808 83.61501827 11.16796875 85.78125 C12.92857281 92.59222533 13.18162993 99.26062949 13.23828125 106.25 C13.24798447 107.24403336 13.25768768 108.23806671 13.26768494 109.26222229 C13.29273168 112.50818943 13.30524791 115.75394555 13.3125 119 C13.31511841 120.11446503 13.31773682 121.22893005 13.32043457 122.37716675 C13.32626869 145.67051836 11.26186852 168.38882074 8.12934875 191.44244385 C4.25395696 219.99822384 3.84487024 246.73980028 8.20068359 275.27880859 C10.70550565 291.82281224 11.14164097 307.20478588 7.66796875 323.64657593 C1.87429434 351.21311398 2.68594064 379.04437043 2.9105835 407.05474854 C2.98173144 415.99631923 3.03660102 424.93787729 3.07293892 433.87965584 C3.08927011 436.95072092 3.11881612 440.02144359 3.14964294 443.09239197 C3.2367374 455.84738127 2.45323838 468.32856794 1 481 C0.34 481 -0.32 481 -1 481 C-2.02479734 468.32024486 -2.17383358 455.67774098 -2.22979546 442.96191978 C-2.24646612 439.30503624 -2.26970819 435.64824501 -2.29469299 431.9914093 C-2.36476725 421.60540517 -2.42539824 411.21936516 -2.47680664 400.83325195 C-2.50887144 394.4475061 -2.55020184 388.06187206 -2.59700203 381.67621803 C-2.61284445 379.26648809 -2.62524599 376.85673262 -2.63390923 374.44696617 C-2.69610497 357.399261 -3.03320603 340.64607294 -7 324 C-8.80416318 316.39092232 -9.34941019 309.19598612 -9.3125 301.375 C-9.31048584 300.20799561 -9.30847168 299.04099121 -9.30639648 297.83862305 C-9.18417115 286.99862646 -8.01787007 276.39037405 -6.38891602 265.68286133 C-5.44189894 259.1500486 -4.84255565 252.8740017 -4.83203125 246.27734375 C-4.82567909 245.05614334 -4.82567909 245.05614334 -4.81919861 243.81027222 C-4.80935483 241.18596165 -4.80927267 238.56182571 -4.8125 235.9375 C-4.81310425 235.03784515 -4.8137085 234.13819031 -4.81433105 233.21127319 C-4.84877296 214.34319953 -6.38500767 196.12118598 -9 177.4375 C-9.67275428 172.62581741 -10.34103016 167.81359082 -11 163 C-11.12439453 162.10152344 -11.24878906 161.20304688 -11.37695312 160.27734375 C-13.07196089 147.46836292 -13.24903523 134.5954904 -13.35046387 121.69241333 C-13.36655374 119.76288881 -13.38856364 117.83340259 -13.41711426 115.90402222 C-13.64639192 98.57899268 -10.79440514 83.13238931 -5.2253418 66.71655273 C-2.07179473 56.17067075 -2.46972399 45.34216084 -2.375 34.4375 C-2.33819168 31.42139737 -2.29729914 28.40541174 -2.25234985 25.38941956 C-2.22568087 23.52615793 -2.20410072 21.66281297 -2.18881226 19.79942322 C-1.97647429 1.97647429 -1.97647429 1.97647429 0 0 Z " fill="currentColor" transform="translate(1408,170)"/>
<path d="M0 0 C0.33 0 0.66 0 1 0 C3.31103418 12.1440026 3.23310344 24.06344551 3.125 36.375 C3.11494474 38.38280801 3.10582342 40.39062092 3.09765625 42.3984375 C3.07585688 47.26574844 3.04146897 52.13281853 3 57 C1.02 57.495 1.02 57.495 -1 58 C-0.67 59.98 -0.34 61.96 0 64 C-1.98 64.495 -1.98 64.495 -4 65 C-3.84080078 63.89116455 -3.68160156 62.7823291 -3.51757812 61.63989258 C-2.90024725 56.68091716 -2.79334761 51.7540863 -2.71875 46.76171875 C-2.70034058 45.80030472 -2.68193115 44.83889069 -2.66296387 43.8483429 C-2.60464552 40.79478624 -2.55167945 37.74117575 -2.5 34.6875 C-2.43166041 30.67047325 -2.3579373 26.65359381 -2.28125 22.63671875 C-2.26767456 21.73426926 -2.25409912 20.83181976 -2.2401123 19.90202332 C-1.89580735 1.89580735 -1.89580735 1.89580735 0 0 Z " fill="currentColor" transform="translate(1408,170)"/>
<path d="M0 0 C0.33 0 0.66 0 1 0 C2.11313382 4.48815556 2.1912908 8.90317802 2.1875 13.5 C2.18814453 14.31573486 2.18878906 15.13146973 2.18945312 15.97192383 C2.10839028 25.70222835 1.07679923 35.3376498 0 45 C-0.66 45 -1.32 45 -2 45 C-3.09848966 31.66119695 -3.10890351 18.37670177 -3 5 C-2.34 5 -1.68 5 -1 5 C-0.67 3.35 -0.34 1.7 0 0 Z " fill="currentColor" transform="translate(1409,606)"/>
<path d="M0 0 C0.33 0 0.66 0 1 0 C0.03644647 16.8929385 0.03644647 16.8929385 -1 24 C-1.33 24 -1.66 24 -2 24 C-2.33 22.35 -2.66 20.7 -3 19 C-3.66 19 -4.32 19 -5 19 C-5 35.5 -5 52 -5 69 C-5.33 69 -5.66 69 -6 69 C-6.20029134 60.98561368 -6.3839993 52.97109148 -6.54658794 44.95586014 C-6.622606 41.23400085 -6.70431592 37.51244873 -6.79907227 33.79101562 C-6.89031976 30.19913705 -6.96656528 26.60722357 -7.03244972 23.0147934 C-7.06020627 21.64476409 -7.0933533 20.27483297 -7.13199425 18.90506744 C-7.18521955 16.98555739 -7.21745357 15.06550012 -7.2487793 13.14550781 C-7.27320602 12.05296692 -7.29763275 10.96042603 -7.32279968 9.83477783 C-6.95669621 6.61971265 -6.31632291 5.23867738 -4 3 C-3.01 3 -2.02 3 -1 3 C-0.67 2.01 -0.34 1.02 0 0 Z " fill="currentColor" transform="translate(1412,506)"/>
<path d="M0 0 C1.95830315 3.37143765 2.52648691 6.45384085 3.0703125 10.296875 C3.24433594 11.50214844 3.41835937 12.70742188 3.59765625 13.94921875 C3.77167969 15.20347656 3.94570312 16.45773437 4.125 17.75 C4.30675781 19.01972656 4.48851562 20.28945313 4.67578125 21.59765625 C5.12339375 24.73094377 5.56454856 27.86500317 6 31 C5.01 31 4.02 31 3 31 C-2.97367907 24.98375315 -1.11185856 13.38525111 -1.1328125 5.49609375 C-1 3 -1 3 0 0 Z " fill="currentColor" transform="translate(1506,1003)"/>
<path d="M0 0 C1.16982422 0.02255859 2.33964844 0.04511719 3.54492188 0.06835938 C6.42708769 0.12717909 9.30663681 0.20932859 12.1875 0.3125 C10.1875 3.3125 10.1875 3.3125 8.14379883 3.83666992 C6.90666138 3.93878784 6.90666138 3.93878784 5.64453125 4.04296875 C4.73509766 4.12353516 3.82566406 4.20410156 2.88867188 4.28710938 C1.93541016 4.35736328 0.98214844 4.42761719 0 4.5 C-0.93392578 4.58185547 -1.86785156 4.66371094 -2.83007812 4.74804688 C-7.84020871 5.16761446 -12.78587402 5.40288193 -17.8125 5.3125 C-13.25543487 -1.33976749 -7.49200072 -0.27281795 0 0 Z " fill="currentColor" transform="translate(1249.8125,1420.6875)"/>
<path d="M0 0 C0.33 0 0.66 0 1 0 C2.54914681 5.9061222 3.14605713 11.06520929 2.9921875 17.16015625 C3.00027882 20.10135104 3.31562208 22.89681889 3.6875 25.8125 C4.1715759 30.37851322 3.63857644 33.09490688 1 37 C0.67 37 0.34 37 0 37 C0 24.79 0 12.58 0 0 Z " fill="currentColor" transform="translate(1440,268)"/>
<path d="M0 0 C-0.99 0.495 -0.99 0.495 -2 1 C-2 1.66 -2 2.32 -2 3 C-3.98 3 -5.96 3 -8 3 C-8 3.66 -8 4.32 -8 5 C-13.61 5 -19.22 5 -25 5 C-24.34 4.34 -23.68 3.68 -23 3 C-23.99 2.34 -24.98 1.68 -26 1 C-22.41770965 0.63470654 -18.83408482 0.28470822 -15.25 -0.0625 C-13.72632813 -0.2181543 -13.72632813 -0.2181543 -12.171875 -0.37695312 C-10.70234375 -0.51713867 -10.70234375 -0.51713867 -9.203125 -0.66015625 C-8.30239258 -0.74918213 -7.40166016 -0.83820801 -6.47363281 -0.92993164 C-4.08313137 -0.99764521 -2.27129331 -0.7068821 0 0 Z " fill="currentColor" transform="translate(1341,1436)"/>
<path d="M0 0 C5.80205656 5.64524422 5.80205656 5.64524422 8 9 C8 9.66 8 10.32 8 11 C2.72 11 -2.56 11 -8 11 C-7.67 9.68 -7.34 8.36 -7 7 C-5.02 7 -3.04 7 -1 7 C-0.67 4.69 -0.34 2.38 0 0 Z " fill="currentColor" transform="translate(1570,1359)"/>
<path d="M0 0 C3.48670834 1.1094072 6.77484237 2.26337666 10 4 C10 3.34 10 2.68 10 2 C14.95 2 19.9 2 25 2 C25.33 2.99 25.66 3.98 26 5 C23.66474602 7.33525398 17.30455322 6.24682935 14.02197266 6.25976562 C8.12626053 6.19870667 3.43434573 5.41526477 -2 3 C-1.34 2.67 -0.68 2.34 0 2 C0 1.34 0 0.68 0 0 Z " fill="currentColor" transform="translate(1391,1434)"/>
<path d="M0 0 C0.33 0 0.66 0 1 0 C2.29235715 4.91502758 2.11135517 9.77290102 2.0625 14.8125 C2.05798828 15.69615234 2.05347656 16.57980469 2.04882812 17.49023438 C2.03709866 19.66018559 2.01916495 21.83010172 2 24 C1.67 24 1.34 24 1 24 C0.67 20.37 0.34 16.74 0 13 C-0.33 13 -0.66 13 -1 13 C-1.33 18.28 -1.66 23.56 -2 29 C-2.33 29 -2.66 29 -3 29 C-3 21.08 -3 13.16 -3 5 C-2.34 5 -1.68 5 -1 5 C-0.67 3.35 -0.34 1.7 0 0 Z " fill="currentColor" transform="translate(1409,606)"/>
<path d="M0 0 C0.99 0.66 1.98 1.32 3 2 C-0.80304814 7.19210472 -4.76158542 12.15609762 -9 17 C-9.66 16.67 -10.32 16.34 -11 16 C-10.01 13.03 -9.02 10.06 -8 7 C-6.02 6.67 -4.04 6.34 -2 6 C-1.34 4.02 -0.68 2.04 0 0 Z " fill="currentColor" transform="translate(1234,1338)"/>
<path d="M0 0 C1.08557892 3.25995807 0.91310151 5.10542427 -0.21484375 8.328125 C-0.48876953 9.12734375 -0.76269531 9.9265625 -1.04492188 10.75 C-1.48674805 11.9875 -1.48674805 11.9875 -1.9375 13.25 C-2.22818359 14.09046875 -2.51886719 14.9309375 -2.81835938 15.796875 C-3.53621233 17.86805731 -4.26366119 19.93533262 -5 22 C-5.99 22 -6.98 22 -8 22 C-7 18 -7 18 -6.5 16.1875 C-5.93318215 13.70767193 -5.6707503 11.28243186 -5.4375 8.75 C-5.35371094 7.85796875 -5.26992187 6.9659375 -5.18359375 6.046875 C-5.12300781 5.37140625 -5.06242187 4.6959375 -5 4 C-3.35 3.67 -1.7 3.34 0 3 C0 2.01 0 1.02 0 0 Z " fill="currentColor" transform="translate(1255,1169)"/>
<path d="M0 0 C0.66 0 1.32 0 2 0 C1.67 9.24 1.34 18.48 1 28 C0.67 28 0.34 28 0 28 C0 25.36 0 22.72 0 20 C-0.66 20 -1.32 20 -2 20 C-2.12074853 13.57349465 -1.90984106 7.36888739 -1 1 C-0.67 0.67 -0.34 0.34 0 0 Z " fill="currentColor" transform="translate(1500,945)"/>
<path d="M0 0 C0.66 0 1.32 0 2 0 C2.25 7.625 2.25 7.625 0 11 C-0.59070014 12.94603274 -0.59070014 12.94603274 -1 15 C-1.64178421 18.02555412 -2.20327502 19.30491252 -4 22 C-5.05447432 18.83657705 -4.96895232 17.93218819 -4.2578125 14.8046875 C-3.98904297 13.60779297 -3.98904297 13.60779297 -3.71484375 12.38671875 C-3.52019531 11.55785156 -3.32554688 10.72898437 -3.125 9.875 C-2.93808594 9.03839844 -2.75117187 8.20179688 -2.55859375 7.33984375 C-1.14229911 1.14229911 -1.14229911 1.14229911 0 0 Z " fill="currentColor" transform="translate(1299,650)"/>
<path d="M0 0 C0.33 0 0.66 0 1 0 C1.20638953 26.17654243 1.20638953 26.17654243 0 36 C-0.33 36 -0.66 36 -1 36 C-1.86809439 30.79826905 -2.12515348 25.83021184 -2.0625 20.5625 C-2.05798828 19.83095703 -2.05347656 19.09941406 -2.04882812 18.34570312 C-2.03718148 16.56376581 -2.01925191 14.78187137 -2 13 C-1.67 13 -1.34 13 -1 13 C-0.67 8.71 -0.34 4.42 0 0 Z " fill="currentColor" transform="translate(1420,292)"/>
<path d="M0 0 C0.33 0 0.66 0 1 0 C1.82027383 5.00627439 2.1590793 9.8596836 2.125 14.9375 C2.12306641 15.63681641 2.12113281 16.33613281 2.11914062 17.05664062 C2.07944138 21.78967337 1.77739563 26.33562624 1 31 C0.67 31 0.34 31 0 31 C-0.92450589 20.61581773 -1.8350722 10.32228113 0 0 Z " fill="currentColor" transform="translate(1295,947)"/>
<path d="M0 0 C0.33 0 0.66 0 1 0 C1.19693992 2.66626359 1.38274782 5.33256639 1.5625 8 C1.61857422 8.74378906 1.67464844 9.48757813 1.73242188 10.25390625 C2.06365025 15.33274128 1.98752641 19.9922158 1 25 C-0.54467773 26.7265625 -0.54467773 26.7265625 -2 28 C-1.86132739 23.89555833 -1.71283897 19.7915296 -1.5625 15.6875 C-1.52318359 14.52025391 -1.48386719 13.35300781 -1.44335938 12.15039062 C-1.40146484 11.03212891 -1.35957031 9.91386719 -1.31640625 8.76171875 C-1.27974854 7.73006592 -1.24309082 6.69841309 -1.20532227 5.63549805 C-1 3 -1 3 0 0 Z " fill="currentColor" transform="translate(1531,721)"/>
<path d="M0 0 C0.66 0.33 1.32 0.66 2 1 C0.42005442 4.65362415 -1.1400096 6.37083733 -4.75 7.875 C-8.86382652 9.23865731 -11.81425987 8.95923211 -16 8 C-13.00833114 6.0055541 -10.20189821 4.78028422 -6.875 3.4375 C-3.16919291 2.15616662 -3.16919291 2.15616662 0 0 Z " fill="currentColor" transform="translate(1448,1448)"/>
<path d="M0 0 C4.95 0.33 9.9 0.66 15 1 C14.67 2.32 14.34 3.64 14 5 C8.87416389 5.10251672 4.05002222 5.03590199 -1 4 C-0.67 2.68 -0.34 1.36 0 0 Z " fill="currentColor" transform="translate(1483,1436)"/>
<path d="M0 0 C0.804375 0.185625 1.60875 0.37125 2.4375 0.5625 C3.283125 0.706875 4.12875 0.85125 5 1 C5.33 0.67 5.66 0.34 6 0 C8.67058851 -0.14115161 11.32432238 -0.04247107 14 0 C14 1.65 14 3.3 14 5 C7.07 4.505 7.07 4.505 0 4 C0 2.68 0 1.36 0 0 Z " fill="currentColor" transform="translate(1460,1224)"/>
<path d="M0 0 C0.99 0.66 1.98 1.32 3 2 C3 2.66 3 3.32 3 4 C3.66 4 4.32 4 5 4 C4.67 4.99 4.34 5.98 4 7 C0.92460709 8.2157821 -2.1486771 8.11584068 -5.421875 8.09765625 C-6.44667969 8.09443359 -7.47148438 8.09121094 -8.52734375 8.08789062 C-9.59082031 8.07951172 -10.65429688 8.07113281 -11.75 8.0625 C-12.82894531 8.05798828 -13.90789062 8.05347656 -15.01953125 8.04882812 C-17.67974383 8.03705727 -20.33984365 8.02061399 -23 8 C-23 7.67 -23 7.34 -23 7 C-12.605 6.505 -12.605 6.505 -2 6 C-1.34 4.02 -0.68 2.04 0 0 Z " fill="currentColor" transform="translate(1318,1368)"/>
<path d="M0 0 C0.33 0 0.66 0 1 0 C1 8.91 1 17.82 1 27 C-0.32 27.33 -1.64 27.66 -3 28 C-4 27 -4 27 -4.25 24.5625 C-4.1675 23.716875 -4.085 22.87125 -4 22 C-3.01 21.34 -2.02 20.68 -1 20 C-0.49297483 17.87893205 -0.49297483 17.87893205 -0.48828125 15.4296875 C-0.43510742 14.08583984 -0.43510742 14.08583984 -0.38085938 12.71484375 C-0.35830078 11.77769531 -0.33574219 10.84054687 -0.3125 9.875 C-0.27833984 8.93011719 -0.24417969 7.98523438 -0.20898438 7.01171875 C-0.12635888 4.67459747 -0.05726012 2.33785809 0 0 Z " fill="currentColor" transform="translate(1410,584)"/>
<path d="M0 0 C0.66 0 1.32 0 2 0 C2 5.28 2 10.56 2 16 C1.01 16.33 0.02 16.66 -1 17 C-1.02699725 14.72923158 -1.04639453 12.45837179 -1.0625 10.1875 C-1.07990234 8.29064453 -1.07990234 8.29064453 -1.09765625 6.35546875 C-1 3 -1 3 0 0 Z " fill="currentColor" transform="translate(1491,442)"/>
<path d="M0 0 C1.76462683 3.08809695 2 4.23312136 2 8 C2.66 8.33 3.32 8.66 4 9 C3.34 9 2.68 9 2 9 C1.30428121 12.4805507 1.30428121 12.4805507 1 16 C1 16.66 1 17.32 1 18 C0.01 18 -0.98 18 -2 18 C-2.33 18.99 -2.66 19.98 -3 21 C-2.29411026 13.94110263 -1.21786614 6.98795036 0 0 Z " fill="currentColor" transform="translate(1354,258)"/>
<path d="M0 0 C1.2065625 0.0309375 1.2065625 0.0309375 2.4375 0.0625 C1.4475 0.5575 1.4475 0.5575 0.4375 1.0625 C0.4375 1.7225 0.4375 2.3825 0.4375 3.0625 C-0.5525 3.0625 -1.5425 3.0625 -2.5625 3.0625 C-2.376875 3.97 -2.19125 4.8775 -2 5.8125 C-1.58329837 8.9079978 -1.78612937 10.16765262 -2.5625 13.0625 C-2.78640317 15.81567974 -2.97643662 18.55555329 -3.125 21.3125 C-3.16818359 22.05757812 -3.21136719 22.80265625 -3.25585938 23.5703125 C-3.36146725 25.400849 -3.46244201 27.23165176 -3.5625 29.0625 C-3.8925 29.0625 -4.2225 29.0625 -4.5625 29.0625 C-4.59179977 25.70835201 -4.6093989 22.35423747 -4.625 19 C-4.63337891 18.05705078 -4.64175781 17.11410156 -4.65039062 16.14257812 C-4.66828189 11.00778555 -4.54202954 6.11084453 -3.5625 1.0625 C-2.5625 0.0625 -2.5625 0.0625 0 0 Z " fill="currentColor" transform="translate(1424.5625,97.9375)"/>
<path d="M0 0 C0 1.32 0 2.64 0 4 C-5.94 4 -11.88 4 -18 4 C-17.34 3.01 -16.68 2.02 -16 1 C-12.8125 0.48828125 -12.8125 0.48828125 -9 0.3125 C-7.1128125 0.21388672 -7.1128125 0.21388672 -5.1875 0.11328125 C-3.45901232 0.05185215 -1.72957891 0 0 0 Z " fill="currentColor" transform="translate(1521,1372)"/>
<path d="M0 0 C0.33 0 0.66 0 1 0 C1.33 9.57 1.66 19.14 2 29 C1.67 29 1.34 29 1 29 C1 27.35 1 25.7 1 24 C0.34 24 -0.32 24 -1 24 C-1.33 24.99 -1.66 25.98 -2 27 C-2 24.69 -2 22.38 -2 20 C-1.67 20 -1.34 20 -1 20 C-0.67 13.4 -0.34 6.8 0 0 Z " fill="currentColor" transform="translate(1396,720)"/>
<path d="M0 0 C2.75383923 1.37691962 3.51483101 3.36720042 5 6 C5.99 5.67 6.98 5.34 8 5 C7.75 8.375 7.75 8.375 7 12 C4.953125 13.2265625 4.953125 13.2265625 3 14 C2.49307308 12.4188708 1.99473557 10.83498617 1.5 9.25 C1.2215625 8.36828125 0.943125 7.4865625 0.65625 6.578125 C0 4 0 4 0 0 Z " fill="currentColor" transform="translate(1518,571)"/>
<path d="M0 0 C1.92057292 0.42317708 3.84114583 0.84635417 5.76171875 1.26953125 C5.76171875 1.59953125 5.76171875 1.92953125 5.76171875 2.26953125 C8.07171875 2.59953125 10.38171875 2.92953125 12.76171875 3.26953125 C12.76171875 3.59953125 12.76171875 3.92953125 12.76171875 4.26953125 C6.16171875 4.59953125 -0.43828125 4.92953125 -7.23828125 5.26953125 C-2.23828125 0.26953125 -2.23828125 0.26953125 0 0 Z " fill="currentColor" transform="translate(1239.23828125,1420.73046875)"/>
<path d="M0 0 C1.58203125 1.08203125 1.58203125 1.08203125 3 3 C2.63671875 6.13671875 2.63671875 6.13671875 1.6875 9.6875 C1.22923828 11.45673828 1.22923828 11.45673828 0.76171875 13.26171875 C0.51035156 14.16535156 0.25898437 15.06898437 0 16 C-2.47682859 12.28475712 -2.43538538 9.30361706 -2 5 C-1 2 -1 2 0 0 Z " fill="currentColor" transform="translate(1141,1374)"/>
<path d="M0 0 C2.54698911 2.54698911 2.96985366 4.25139818 3.11352539 7.8190918 C3.10828857 8.93453369 3.10305176 10.04997559 3.09765625 11.19921875 C3.09443359 12.40771484 3.09121094 13.61621094 3.08789062 14.86132812 C3.07951172 16.12396484 3.07113281 17.38660156 3.0625 18.6875 C3.05798828 19.96173828 3.05347656 21.23597656 3.04882812 22.54882812 C3.03702873 25.69926564 3.02056597 28.84960949 3 32 C2.67 32 2.34 32 2 32 C2 23.42 2 14.84 2 6 C1.01 6.33 0.02 6.66 -1 7 C-0.67 4.69 -0.34 2.38 0 0 Z " fill="currentColor" transform="translate(1355,1249)"/>
<path d="M0 0 C0.66 0.33 1.32 0.66 2 1 C4.09821215 0.60061233 4.09821215 0.60061233 6 0 C5.67 0.66 5.34 1.32 5 2 C4.34 2 3.68 2 3 2 C2.67 3.32 2.34 4.64 2 6 C1.34 6 0.68 6 0 6 C-0.33 6.99 -0.66 7.98 -1 9 C-1.99 8.67 -2.98 8.34 -4 8 C-4 4.09161134 -2.49432124 2.88405893 0 0 Z " fill="currentColor" transform="translate(1251,1353)"/>
<path d="M0 0 C0.33 0.66 0.66 1.32 1 2 C1.66 2.33 2.32 2.66 3 3 C2.875 4.8125 2.875 4.8125 2 7 C0.03384339 8.0650015 -1.96726926 9.06833174 -4 10 C-4.33 10.66 -4.66 11.32 -5 12 C-5.66 12 -6.32 12 -7 12 C-5.44298069 7.32894208 -2.91552627 3.91294315 0 0 Z " fill="currentColor" transform="translate(1235,1247)"/>
<path d="M0 0 C0.66 0 1.32 0 2 0 C2 0.66 2 1.32 2 2 C2.66 2 3.32 2 4 2 C4.28571429 9.42857143 4.28571429 9.42857143 2 13 C1.34 12.67 0.68 12.34 0 12 C0 8.04 0 4.08 0 0 Z " fill="currentColor" transform="translate(1274,1078)"/>
<path d="M0 0 C2.39763185 2.39763185 2.34280586 3.33273498 2.625 6.625 C2.69976563 7.44226562 2.77453125 8.25953125 2.8515625 9.1015625 C2.92503906 10.04128906 2.92503906 10.04128906 3 11 C0 11 0 11 -1.6875 9.375 C-3.32162419 6.41801336 -3.22692276 4.32820054 -3 1 C-2.01 1.495 -2.01 1.495 -1 2 C-0.67 1.34 -0.34 0.68 0 0 Z " fill="currentColor" transform="translate(1509,1023)"/>
<path d="M0 0 C0.13921875 0.59941406 0.2784375 1.19882812 0.421875 1.81640625 C0.98876773 4.16793259 0.98876773 4.16793259 2.25 6.9375 C3 10 3 10 1.8125 12.875 C1.214375 13.57625 0.61625 14.2775 0 15 C-0.99 15 -1.98 15 -3 15 C-2.22225866 9.94468132 -1.14051606 4.98283716 0 0 Z " fill="currentColor" transform="translate(1307,612)"/>
<path d="M0 0 C0.33 0 0.66 0 1 0 C1.144375 1.216875 1.28875 2.43375 1.4375 3.6875 C1.72940637 6.12148399 2.09136876 8.36547505 2.6875 10.75 C3.06744414 13.48559781 2.44869437 14.69913247 1 17 C0.34 17 -0.32 17 -1 17 C-1.33 17.66 -1.66 18.32 -2 19 C-1.34 12.73 -0.68 6.46 0 0 Z " fill="currentColor" transform="translate(1482,169)"/>
<path d="M0 0 C1.98 0 3.96 0 6 0 C5.34 1.65 4.68 3.3 4 5 C-2.27 4.67 -8.54 4.34 -15 4 C-15 3.67 -15 3.34 -15 3 C-10.38 3 -5.76 3 -1 3 C-0.67 2.01 -0.34 1.02 0 0 Z " fill="currentColor" transform="translate(1417,1253)"/>
<path d="M0 0 C0.33 0 0.66 0 1 0 C1.53181175 2.24743045 2.05007126 4.49807102 2.5625 6.75 C2.85253906 8.00296875 3.14257812 9.2559375 3.44140625 10.546875 C3.93444283 13.59473748 4.07666879 15.17641828 3 18 C3 17.01 3 16.02 3 15 C2.34 15 1.68 15 1 15 C-1.48570024 11.27144964 -1.30344304 8.30889122 -1 4 C-0.5 1.5 -0.5 1.5 0 0 Z " fill="currentColor" transform="translate(1539,1162)"/>
<path d="M0 0 C0.33 0.66 0.66 1.32 1 2 C2.32 1.34 3.64 0.68 5 0 C4.25 7.625 4.25 7.625 2 11 C2 10.01 2 9.02 2 8 C1.01 8.33 0.02 8.66 -1 9 C-0.67 6.03 -0.34 3.06 0 0 Z " fill="currentColor" transform="translate(1282,614)"/>
<path d="M0 0 C3.5 0.3125 3.5 0.3125 7 1 C7.33 1.66 7.66 2.32 8 3 C7.67 3.66 7.34 4.32 7 5 C3.7 5 0.4 5 -3 5 C-1 1 -1 1 0 0 Z " fill="currentColor" transform="translate(1241,1365)"/>
<path d="M0 0 C0.99 0 1.98 0 3 0 C3 0.66 3 1.32 3 2 C4.65 1.34 6.3 0.68 8 0 C8.33 1.98 8.66 3.96 9 6 C8.01 6.495 8.01 6.495 7 7 C4.8359375 6.00390625 4.8359375 6.00390625 2.375 4.5625 C1.55773438 4.08941406 0.74046875 3.61632813 -0.1015625 3.12890625 C-0.72804688 2.75636719 -1.35453125 2.38382813 -2 2 C-1.34 1.34 -0.68 0.68 0 0 Z " fill="currentColor" transform="translate(1530,1269)"/>
<path d="M0 0 C1.92578125 0.35546875 1.92578125 0.35546875 4 1 C5.1875 3.3125 5.1875 3.3125 6 6 C6.226875 6.721875 6.45375 7.44375 6.6875 8.1875 C7 10 7 10 6 12 C5.01 11.67 4.02 11.34 3 11 C2.05078125 8.49609375 2.05078125 8.49609375 1.3125 5.4375 C1.06113281 4.42558594 0.80976562 3.41367187 0.55078125 2.37109375 C0.36902344 1.58863281 0.18726563 0.80617188 0 0 Z " fill="currentColor" transform="translate(1303,901)"/>
<path d="M0 0 C0.66 0 1.32 0 2 0 C3.08056059 3.97159686 2.85815614 6.42553157 1.5625 10.3125 C1.27503906 11.19550781 0.98757813 12.07851562 0.69140625 12.98828125 C0.34916016 13.98408203 0.34916016 13.98408203 0 15 C-0.66 14.34 -1.32 13.68 -2 13 C-1.63834656 8.58782801 -0.94621815 4.32556868 0 0 Z " fill="currentColor" transform="translate(1267,1110)"/>
<path d="M0 0 C2.12893285 4.25786569 2.33899053 6.33888024 2 11 C1.01 12.485 1.01 12.485 0 14 C-0.99 14 -1.98 14 -3 14 C-2.01 9.38 -1.02 4.76 0 0 Z " fill="currentColor" transform="translate(1531,907)"/>
<path d="M0 0 C0.33 0 0.66 0 1 0 C1.02719556 2.37507855 1.04693247 4.74983964 1.0625 7.125 C1.07087891 7.79015625 1.07925781 8.4553125 1.08789062 9.140625 C1.10782292 13.20681354 0.78890161 17.0120092 0 21 C-0.66 21 -1.32 21 -2 21 C-2 17.04 -2 13.08 -2 9 C-1.67 9 -1.34 9 -1 9 C-0.67 6.03 -0.34 3.06 0 0 Z " fill="currentColor" transform="translate(1409,630)"/>
<path d="M0 0 C0.33 0 0.66 0 1 0 C1 8.25 1 16.5 1 25 C0.34 25 -0.32 25 -1 25 C-1.87890625 18.84765625 -1.87890625 18.84765625 -2 17 C-1.67 16.67 -1.34 16.34 -1 16 C-0.76321284 13.30764224 -0.57801975 10.63501844 -0.4375 7.9375 C-0.39431641 7.17888672 -0.35113281 6.42027344 -0.30664062 5.63867188 C-0.20026367 3.75934562 -0.09960066 1.87969756 0 0 Z " fill="currentColor" transform="translate(1492,412)"/>
<path d="M0 0 C0.33 0.99 0.66 1.98 1 3 C1.99 3 2.98 3 4 3 C3.98839844 3.58007812 3.97679687 4.16015625 3.96484375 4.7578125 C3.92226728 8.44371811 3.96296141 11.79628774 4.625 15.4375 C4.74875 16.283125 4.8725 17.12875 5 18 C4.34 18.66 3.68 19.32 3 20 C2.49550598 17.41747107 1.99625699 14.83411297 1.5 12.25 C1.35691406 11.52039063 1.21382812 10.79078125 1.06640625 10.0390625 C0.41111121 6.60656468 0 3.50830509 0 0 Z " fill="currentColor" transform="translate(1480,251)"/>
<path d="M0 0 C1.32 0 2.64 0 4 0 C4.33 1.65 4.66 3.3 5 5 C3.68 5.33 2.36 5.66 1 6 C1.33 7.98 1.66 9.96 2 12 C0.68 12.33 -0.64 12.66 -2 13 C-1.34 8.71 -0.68 4.42 0 0 Z " fill="currentColor" transform="translate(1406,222)"/>
<path d="M0 0 C0.66 0.33 1.32 0.66 2 1 C2.08121924 2.60332791 2.13929134 4.20784026 2.1875 5.8125 C2.22230469 6.70582031 2.25710938 7.59914063 2.29296875 8.51953125 C2 11 2 11 -1 14 C-1.33 9.71 -1.66 5.42 -2 1 C-1.34 0.67 -0.68 0.34 0 0 Z " fill="currentColor" transform="translate(1434,423)"/>
<path d="M0 0 C0.33 0 0.66 0 1 0 C1 4.29 1 8.58 1 13 C0.01 13.33 -0.98 13.66 -2 14 C-2.05389087 12.04196493 -2.09274217 10.08351091 -2.125 8.125 C-2.14820313 7.03445312 -2.17140625 5.94390625 -2.1953125 4.8203125 C-2 2 -2 2 0 0 Z " fill="currentColor" transform="translate(1409,209)"/>
<path d="M0 0 C2 1.8125 2 1.8125 4 4 C4 4.99 4 5.98 4 7 C1.03 7 -1.94 7 -5 7 C-3.88820837 3.66462511 -2.52588702 2.36292656 0 0 Z " fill="currentColor" transform="translate(1497,1368)"/>
<path d="M0 0 C3.9788249 5.96823735 4.18046274 10.15331613 3 17 C2.34 17 1.68 17 1 17 C1.20625 16.05125 1.4125 15.1025 1.625 14.125 C1.74875 13.09375 1.8725 12.0625 2 11 C1.34 10.34 0.68 9.68 0 9 C0.375 6.375 0.375 6.375 1 4 C0.34 4 -0.32 4 -1 4 C-0.67 2.68 -0.34 1.36 0 0 Z " fill="currentColor" transform="translate(1286,913)"/>
<path d="M0 0 C-0.99 0.66 -1.98 1.32 -3 2 C-3.66 1.67 -4.32 1.34 -5 1 C-5.2236068 3.9254644 -5.2236068 3.9254644 -4 6 C-5.98 6.33 -7.96 6.66 -10 7 C-10 6.01 -10 5.02 -10 4 C-10.66 3.67 -11.32 3.34 -12 3 C-10.3789897 2.30314502 -8.75303934 1.61777139 -7.125 0.9375 C-6.22007813 0.55464844 -5.31515625 0.17179687 -4.3828125 -0.22265625 C-2 -1 -2 -1 0 0 Z " fill="currentColor" transform="translate(1387,99)"/>
<path d="M0 0 C1.32 0.33 2.64 0.66 4 1 C4 1.66 4 2.32 4 3 C4.99 3.33 5.98 3.66 7 4 C7.625 6.375 7.625 6.375 8 9 C7.34 9.66 6.68 10.32 6 11 C4.02 7.37 2.04 3.74 0 0 Z " fill="currentColor" transform="translate(1467,1290)"/>
<path d="M0 0 C0.99 0.33 1.98 0.66 3 1 C3.625 2.5625 3.625 2.5625 4 5 C4.11472656 5.65097656 4.22945312 6.30195312 4.34765625 6.97265625 C4.66283284 8.96877466 4.8375558 10.98569196 5 13 C4.34 13.66 3.68 14.32 3 15 C2.49363393 13.25183142 1.99515381 11.50137737 1.5 9.75 C1.2215625 8.77546875 0.943125 7.8009375 0.65625 6.796875 C0 4 0 4 0 0 Z " fill="currentColor" transform="translate(1522,585)"/>
<path d="M0 0 C2 2 2 2 2.375 4.9375 C2 8 2 8 0 9.875 C-0.99 10.431875 -0.99 10.431875 -2 11 C-2 10.01 -2 9.02 -2 8 C-2.66 8 -3.32 8 -4 8 C-2.66666667 5.33333333 -1.33333333 2.66666667 0 0 Z " fill="currentColor" transform="translate(1219,1271)"/>
<path d="M0 0 C1.98 0 3.96 0 6 0 C6.33 1.32 6.66 2.64 7 4 C4.03 4 1.06 4 -2 4 C-1.34 2.68 -0.68 1.36 0 0 Z " fill="currentColor" transform="translate(1168,1444)"/>
<path d="M0 0 C0 0.66 0 1.32 0 2 C0.66 2 1.32 2 2 2 C1.67 3.65 1.34 5.3 1 7 C0.01 7 -0.98 7 -2 7 C-2.99 5.02 -3.98 3.04 -5 1 C-2 0 -2 0 0 0 Z " fill="currentColor" transform="translate(1605,1239)"/>
<path d="M0 0 C0.33 0 0.66 0 1 0 C1.12375 0.969375 1.2475 1.93875 1.375 2.9375 C1.58125 3.948125 1.7875 4.95875 2 6 C2.66 6.33 3.32 6.66 4 7 C3.6875 10.375 3.6875 10.375 3 14 C2.01 14.66 1.02 15.32 0 16 C0 10.72 0 5.44 0 0 Z " fill="currentColor" transform="translate(1486,129)"/>
<path d="M0 0 C0.125 2.875 0.125 2.875 0 6 C-0.66 6.66 -1.32 7.32 -2 8 C-3.98 4.535 -3.98 4.535 -6 1 C-4 0 -4 0 0 0 Z " fill="currentColor" transform="translate(1574,1322)"/>
<path d="M0 0 C1.24546405 2.49092811 0.7767578 3.41080733 0 6 C-1.32 5.67 -2.64 5.34 -4 5 C-4 4.01 -4 3.02 -4 2 C-6.97 2 -9.94 2 -13 2 C-13 1.67 -13 1.34 -13 1 C-6.565 0.505 -6.565 0.505 0 0 Z " fill="currentColor" transform="translate(1605,1386)"/>
<path d="M0 0 C5.75 0.75 5.75 0.75 8 3 C6.8125 4.5625 6.8125 4.5625 5 6 C2.3125 5.6875 2.3125 5.6875 0 5 C0 3.35 0 1.7 0 0 Z " fill="currentColor" transform="translate(1412,1276)"/>
<path d="M0 0 C1.32 0.33 2.64 0.66 4 1 C1.69 4.63 -0.62 8.26 -3 12 C-3.66 11.34 -4.32 10.68 -5 10 C-4.34 8.68 -3.68 7.36 -3 6 C-2.34 6 -1.68 6 -1 6 C-0.67 4.02 -0.34 2.04 0 0 Z " fill="currentColor" transform="translate(1241,1198)"/>
<path d="M0 0 C0.66 0.33 1.32 0.66 2 1 C2 5.29 2 9.58 2 14 C1.34 14 0.68 14 0 14 C-1.00746004 10.86567988 -0.78454137 9.13816549 0 6 C-0.31478446 4.66216607 -0.64587656 3.32796291 -1 2 C-0.67 1.34 -0.34 0.68 0 0 Z " fill="currentColor" transform="translate(1328,124)"/>
<path d="M0 0 C0.99 0.33 1.98 0.66 3 1 C2.07347299 2.17539996 1.13336613 3.34010577 0.1875 4.5 C-0.33457031 5.1496875 -0.85664062 5.799375 -1.39453125 6.46875 C-3 8 -3 8 -6 8 C-6 6 -6 6 -5 5 C-5.33 4.34 -5.66 3.68 -6 3 C-4.68 3 -3.36 3 -2 3 C-2 2.34 -2 1.68 -2 1 C-1.34 0.67 -0.68 0.34 0 0 Z " fill="currentColor" transform="translate(1342,97)"/>
<path d="M0 0 C2 2 2 2 3 6 C0.69 7.65 -1.62 9.3 -4 11 C-2.7874262 7.27566618 -1.49140021 3.62197194 0 0 Z " fill="currentColor" transform="translate(1196,1310)"/>
<path d="M0 0 C0.66 0.33 1.32 0.66 2 1 C1.71617054 2.75128818 1.42260471 4.50100003 1.125 6.25 C0.96257812 7.22453125 0.80015625 8.1990625 0.6328125 9.203125 C0.05144152 11.77264117 -0.70840265 13.72071056 -2 16 C-3.13314263 11.89517207 -2.78328091 9.24049263 -1.5625 5.1875 C-1.27503906 4.21167969 -0.98757813 3.23585938 -0.69140625 2.23046875 C-0.46324219 1.49441406 -0.23507812 0.75835938 0 0 Z " fill="currentColor" transform="translate(1264,1124)"/>
<path d="M0 0 C0.33 0 0.66 0 1 0 C1 2.97 1 5.94 1 9 C-0.98 9.99 -0.98 9.99 -3 11 C-2.67 8.36 -2.34 5.72 -2 3 C-1.34 3 -0.68 3 0 3 C0 2.01 0 1.02 0 0 Z " fill="currentColor" transform="translate(1533,787)"/>
<path d="M0 0 C0.66 0.33 1.32 0.66 2 1 C2.17835515 5.54805635 1.99785435 8.8794254 0 13 C-0.66 12.67 -1.32 12.34 -2 12 C-1.34 8.04 -0.68 4.08 0 0 Z " fill="currentColor" transform="translate(1296,659)"/>
<path d="M0 0 C0.99 0.33 1.98 0.66 3 1 C2.48041715 5.37934119 1.94324258 9.68803391 1 14 C0.34 13.01 -0.32 12.02 -1 11 C-0.71202981 9.65613912 -0.36784131 8.3242287 0 7 C0.03888349 4.66699067 0.0448635 2.33290199 0 0 Z " fill="currentColor" transform="translate(1330,267)"/>
<path d="M0 0 C5.75 1.75 5.75 1.75 8 4 C8.99 4.66 9.98 5.32 11 6 C6.428721 5.45144652 2.32564205 4.58255197 -2 3 C-1.34 2.67 -0.68 2.34 0 2 C0 1.34 0 0.68 0 0 Z " fill="currentColor" transform="translate(1391,1434)"/>
<path d="M0 0 C1.32 0.33 2.64 0.66 4 1 C5.4375 3.8125 5.4375 3.8125 6 7 C5.01 8.32 4.02 9.64 3 11 C2.01 7.37 1.02 3.74 0 0 Z " fill="currentColor" transform="translate(1561,1173)"/>
<path d="M0 0 C0.33 0 0.66 0 1 0 C1.797837 6.69613196 2.12910853 13.25766581 2 20 C1.67 20 1.34 20 1 20 C0.67 17.69 0.34 15.38 0 13 C-0.66 13 -1.32 13 -2 13 C-1.34 8.71 -0.68 4.42 0 0 Z " fill="currentColor" transform="translate(1394,700)"/>
<path d="M0 0 C0.33 0 0.66 0 1 0 C0.67 5.28 0.34 10.56 0 16 C-0.33 16 -0.66 16 -1 16 C-1.33 12.37 -1.66 8.74 -2 5 C-2.66 5 -3.32 5 -4 5 C-4 4.34 -4 3.68 -4 3 C-3.01 3 -2.02 3 -1 3 C-0.67 2.01 -0.34 1.02 0 0 Z " fill="currentColor" transform="translate(1412,506)"/>
<path d="M0 0 C0.66 0 1.32 0 2 0 C1.34 4.29 0.68 8.58 0 13 C-2.215015 9.6774775 -2.19410876 9.12268409 -1.6875 5.375 C-1.58824219 4.57835937 -1.48898437 3.78171875 -1.38671875 2.9609375 C-1 1 -1 1 0 0 Z " fill="currentColor" transform="translate(1315,340)"/>
<path d="M0 0 C0.66 0 1.32 0 2 0 C0.515 6.435 0.515 6.435 -1 13 C-3.1202151 9.81967735 -3.2495865 9.45432601 -2.75 5.9375 C-2.66234375 5.24527344 -2.5746875 4.55304688 -2.484375 3.83984375 C-2 2 -2 2 0 0 Z " fill="currentColor" transform="translate(1332,111)"/>
<path d="M0 0 C0 0.99 0 1.98 0 3 C-6.625 5.875 -6.625 5.875 -10 7 C-10.99 6.34 -11.98 5.68 -13 5 C-8.71 3.35 -4.42 1.7 0 0 Z " fill="currentColor" transform="translate(1445,1450)"/>
<path d="M0 0 C1.41687119 4.25061356 0.19320039 6.71851625 -1 11 C-2.32 11 -3.64 11 -5 11 C-3.77472971 6.94718288 -2.30119506 3.55639236 0 0 Z " fill="currentColor" transform="translate(1283,1302)"/>
<path d="M0 0 C0.33 0 0.66 0 1 0 C1.98248524 4.0527516 2.08159574 7.83861737 2 12 C1.01 12.33 0.02 12.66 -1 13 C-0.67 8.71 -0.34 4.42 0 0 Z " fill="currentColor" transform="translate(1305,1027)"/>
<path d="M0 0 C0.33 0 0.66 0 1 0 C1.33 2.97 1.66 5.94 2 9 C1.01 9 0.02 9 -1 9 C-1.33 9.99 -1.66 10.98 -2 12 C-2.05422947 10.5629191 -2.09289723 9.12524538 -2.125 7.6875 C-2.14820313 6.88699219 -2.17140625 6.08648438 -2.1953125 5.26171875 C-2 3 -2 3 0 0 Z " fill="currentColor" transform="translate(1498,572)"/>
<path d="M0 0 C1.70884005 1.62339805 3.37446717 3.29319053 5 5 C5 5.66 5 6.32 5 7 C3.02 7 1.04 7 -1 7 C-1 4.37886292 -0.68707555 2.49064888 0 0 Z " fill="currentColor" transform="translate(1573,1363)"/>
<path d="M0 0 C1.23556641 0.01740234 1.23556641 0.01740234 2.49609375 0.03515625 C3.32238281 0.04417969 4.14867187 0.05320312 5 0.0625 C5.63808594 0.07410156 6.27617188 0.08570313 6.93359375 0.09765625 C6.60359375 1.08765625 6.27359375 2.07765625 5.93359375 3.09765625 C2.55859375 3.22265625 2.55859375 3.22265625 -1.06640625 3.09765625 C-1.72640625 2.43765625 -2.38640625 1.77765625 -3.06640625 1.09765625 C-2.06640625 0.09765625 -2.06640625 0.09765625 0 0 Z " fill="currentColor" transform="translate(1410.06640625,1252.90234375)"/>
<path d="M0 0 C0.99 0.66 1.98 1.32 3 2 C2.38722388 4.96175123 1.74627478 6.38058783 0 9 C-0.66 9 -1.32 9 -2 9 C-1.125 1.125 -1.125 1.125 0 0 Z " fill="currentColor" transform="translate(1227,1217)"/>
<path d="M0 0 C0.66 0 1.32 0 2 0 C2.22151549 1.79008467 2.42682213 3.58218162 2.625 5.375 C2.74101563 6.37273438 2.85703125 7.37046875 2.9765625 8.3984375 C2.98429687 9.25695312 2.99203125 10.11546875 3 11 C2.34 11.66 1.68 12.32 1 13 C0.1276588 10.00519083 -0.10829766 7.36424089 -0.0625 4.25 C-0.05347656 3.45078125 -0.04445313 2.6515625 -0.03515625 1.828125 C-0.02355469 1.22484375 -0.01195312 0.6215625 0 0 Z " fill="currentColor" transform="translate(1498,965)"/>
<path d="M0 0 C4.75 0.875 4.75 0.875 7 2 C7 2.99 7 3.98 7 5 C5.02 5 3.04 5 1 5 C0.67 3.35 0.34 1.7 0 0 Z " fill="currentColor" transform="translate(1437,101)"/>
<path d="M0 0 C0.66 0 1.32 0 2 0 C2 0.66 2 1.32 2 2 C2.66 2 3.32 2 4 2 C3.67 4.31 3.34 6.62 3 9 C0.53721199 6.53721199 0.00228745 4.29323018 -1 1 C-0.67 0.67 -0.34 0.34 0 0 Z " fill="currentColor" transform="translate(1657,1338)"/>
<path d="M0 0 C1.98 0.495 1.98 0.495 4 1 C4 4 4 4 2.5 5.6875 C2.005 6.120625 1.51 6.55375 1 7 C0.34 6.34 -0.32 5.68 -1 5 C-0.625 2.375 -0.625 2.375 0 0 Z " fill="currentColor" transform="translate(1324,1317)"/>
<path d="M0 0 C1.32 0.33 2.64 0.66 4 1 C2.68 3.64 1.36 6.28 0 9 C-0.66 8.34 -1.32 7.68 -2 7 C-1.34 4.69 -0.68 2.38 0 0 Z " fill="currentColor" transform="translate(1259,1298)"/>
<path d="M0 0 C2.09350689 3.4019487 2.17942163 6.05272412 2 10 C0.68 10.33 -0.64 10.66 -2 11 C-2.28571429 3.57142857 -2.28571429 3.57142857 0 0 Z " fill="currentColor" transform="translate(1284,1021)"/>
<path d="M0 0 C0.33 0 0.66 0 1 0 C1 3.63 1 7.26 1 11 C0.01 10.67 -0.98 10.34 -2 10 C-2.25 3.375 -2.25 3.375 0 0 Z " fill="currentColor" transform="translate(1420,266)"/>
<path d="M0 0 C0.99 0.33 1.98 0.66 3 1 C3.1953125 7.0546875 3.1953125 7.0546875 3 9 C2.34 9.66 1.68 10.32 1 11 C0.67 7.37 0.34 3.74 0 0 Z " fill="currentColor" transform="translate(1355,183)"/>
<path d="M0 0 C1.76462683 3.08809695 2 4.23312136 2 8 C1.01 8.66 0.02 9.32 -1 10 C-1.125 2.25 -1.125 2.25 0 0 Z " fill="currentColor" transform="translate(1259,783)"/>
<path d="M0 0 C0.66 0 1.32 0 2 0 C1.33333333 4 0.66666667 8 0 12 C-0.66 11.34 -1.32 10.68 -2 10 C-1.67889311 6.46782421 -1.12183498 3.36550494 0 0 Z " fill="currentColor" transform="translate(1290,594)"/>
<path d="M0 0 C0.66 0 1.32 0 2 0 C2 0.99 2 1.98 2 3 C2.99 3 3.98 3 5 3 C4.34 5.31 3.68 7.62 3 10 C2.67 10 2.34 10 2 10 C0.68373308 6.38026598 0 3.90432869 0 0 Z " fill="currentColor" transform="translate(1432,231)"/>
<path d="M0 0 C0.66 0.66 1.32 1.32 2 2 C1.34 3.32 0.68 4.64 0 6 C-1.32 6 -2.64 6 -4 6 C-3.67 4.35 -3.34 2.7 -3 1 C-2.01 0.67 -1.02 0.34 0 0 Z " fill="currentColor" transform="translate(1342,1298)"/>
<path d="M0 0 C1.32 0 2.64 0 4 0 C3.67 1.98 3.34 3.96 3 6 C1.68 6 0.36 6 -1 6 C-0.67 4.02 -0.34 2.04 0 0 Z " fill="currentColor" transform="translate(1234,1205)"/>
<path d="M0 0 C0.66 0 1.32 0 2 0 C1.67 2.64 1.34 5.28 1 8 C0.34 7.34 -0.32 6.68 -1 6 C-1.99 6.495 -1.99 6.495 -3 7 C-1.125 1.125 -1.125 1.125 0 0 Z " fill="currentColor" transform="translate(1293,979)"/>
<path d="M0 0 C0.66 0 1.32 0 2 0 C2.33 0.99 2.66 1.98 3 3 C3.66 3.33 4.32 3.66 5 4 C4.34 6.31 3.68 8.62 3 11 C0.87953208 7.46588679 0.46800711 4.05606165 0 0 Z " fill="currentColor" transform="translate(1526,600)"/>
<path d="M0 0 C0.33 0.66 0.66 1.32 1 2 C1.66 2.33 2.32 2.66 3 3 C2 5 2 5 -1.0625 6.125 C-2.031875 6.41375 -3.00125 6.7025 -4 7 C-2.92598892 4.08482708 -2.22189824 2.22189824 0 0 Z " fill="currentColor" transform="translate(1355,114)"/>
<path d="M0 0 C1.65 0 3.3 0 5 0 C5.66 1.32 6.32 2.64 7 4 C4.50907189 5.24546405 3.58919267 4.7767578 1 4 C0.67 2.68 0.34 1.36 0 0 Z " fill="currentColor" transform="translate(1521,1440)"/>
<path d="M0 0 C0.33 0.66 0.66 1.32 1 2 C-0.65 3.98 -2.3 5.96 -4 8 C-4.66 7.67 -5.32 7.34 -6 7 C-4.60667426 3.63279613 -3.0210714 2.0140476 0 0 Z " fill="currentColor" transform="translate(1229,1347)"/>
<path d="M0 0 C1.32 1.32 2.64 2.64 4 4 C3.01 4.495 3.01 4.495 2 5 C2 5.66 2 6.32 2 7 C1.34 7 0.68 7 0 7 C0 6.34 0 5.68 0 5 C-0.66 5 -1.32 5 -2 5 C-1.34 3.35 -0.68 1.7 0 0 Z " fill="currentColor" transform="translate(1578,1244)"/>
<path d="M0 0 C0.66 0.33 1.32 0.66 2 1 C1.67 1.66 1.34 2.32 1 3 C1.66 3 2.32 3 3 3 C2.67 4.32 2.34 5.64 2 7 C0.35 5.35 -1.3 3.7 -3 2 C-2.01 1.34 -1.02 0.68 0 0 Z " fill="currentColor" transform="translate(1488,1233)"/>
<path d="M0 0 C0.125 3.375 0.125 3.375 0 7 C-0.66 7.66 -1.32 8.32 -2 9 C-2.66 6.36 -3.32 3.72 -4 1 C-1 0 -1 0 0 0 Z " fill="currentColor" transform="translate(1551,1115)"/>
<path d="M0 0 C1.55136786 2.46393719 2.03039129 3.68089146 1.75 6.625 C1 9 1 9 -1 11 C-1.125 3.375 -1.125 3.375 0 0 Z " fill="currentColor" transform="translate(1506,1003)"/>
<path d="M0 0 C0 0.66 0 1.32 0 2 C-3.21451269 3.60725635 -6.43612536 3.05748185 -10 3 C-7.29536552 -0.8183075 -4.37912428 -0.24787496 0 0 Z " fill="currentColor" transform="translate(1183,1422)"/>
<path d="M0 0 C3.465 1.98 3.465 1.98 7 4 C6.01 4.66 5.02 5.32 4 6 C2.35 5.01 0.7 4.02 -1 3 C-0.67 2.01 -0.34 1.02 0 0 Z " fill="currentColor" transform="translate(1522,1290)"/>
<path d="M0 0 C0.33 1.32 0.66 2.64 1 4 C-1.4375 6.75 -1.4375 6.75 -4 9 C-4.66 8.67 -5.32 8.34 -6 8 C-4.02 5.36 -2.04 2.72 0 0 Z " fill="currentColor" transform="translate(1250,1226)"/>
<path d="M0 0 C0.33 0.66 0.66 1.32 1 2 C1.66 2 2.32 2 3 2 C3 3.98 3 5.96 3 8 C1.68 7.67 0.36 7.34 -1 7 C-0.67 4.69 -0.34 2.38 0 0 Z " fill="currentColor" transform="translate(1272,1183)"/>
<path d="M0 0 C0.33 0 0.66 0 1 0 C1.33 3.3 1.66 6.6 2 10 C1.01 10 0.02 10 -1 10 C-1.125 2.25 -1.125 2.25 0 0 Z " fill="currentColor" transform="translate(1501,978)"/>
<path d="M0 0 C0.99 0.33 1.98 0.66 3 1 C2.67 3.97 2.34 6.94 2 10 C1.67 9.01 1.34 8.02 1 7 C0.34 7 -0.32 7 -1 7 C-0.67 4.69 -0.34 2.38 0 0 Z " fill="currentColor" transform="translate(1501,935)"/>
<path d="M0 0 C1.88391785 3.26545761 2.49287967 6.28111761 3 10 C2.01 9.67 1.02 9.34 0 9 C-1.125 2.25 -1.125 2.25 0 0 Z " fill="currentColor" transform="translate(1282,898)"/>
<path d="M0 0 C0.99 0.33 1.98 0.66 3 1 C2.34 3.64 1.68 6.28 1 9 C0.34 8.67 -0.32 8.34 -1 8 C-0.67 5.36 -0.34 2.72 0 0 Z " fill="currentColor" transform="translate(1292,585)"/>
<path d="M0 0 C1.32 0 2.64 0 4 0 C3.60196439 2.88575819 3.20990931 3.82189513 0.9375 5.75 C0.298125 6.1625 -0.34125 6.575 -1 7 C-0.67 4.69 -0.34 2.38 0 0 Z " fill="currentColor" transform="translate(1497,581)"/>
<path d="M0 0 C0.99 0 1.98 0 3 0 C3.33 2.97 3.66 5.94 4 9 C3.01 8.01 2.02 7.02 1 6 C0.67 6 0.34 6 0 6 C0 4.02 0 2.04 0 0 Z " fill="currentColor" transform="translate(1481,359)"/>
<path d="M0 0 C0.66 0 1.32 0 2 0 C2.66 2.97 3.32 5.94 4 9 C3.01 9.495 3.01 9.495 2 10 C1.34 6.7 0.68 3.4 0 0 Z " fill="currentColor" transform="translate(1472,306)"/>
<path d="M0 0 C0.33 1.32 0.66 2.64 1 4 C1.66 4.33 2.32 4.66 3 5 C2.67 6.65 2.34 8.3 2 10 C1.01 10 0.02 10 -1 10 C-0.67 6.7 -0.34 3.4 0 0 Z " fill="currentColor" transform="translate(1484,157)"/>
<path d="M0 0 C1.98 1.65 3.96 3.3 6 5 C5.34 5.66 4.68 6.32 4 7 C3.01 6.67 2.02 6.34 1 6 C0.67 4.02 0.34 2.04 0 0 Z " fill="currentColor" transform="translate(1473,1251)"/>
<path d="M0 0 C1.32 0.33 2.64 0.66 4 1 C4.33 2.98 4.66 4.96 5 7 C4.67 6.34 4.34 5.68 4 5 C3.01 5.33 2.02 5.66 1 6 C0.67 4.02 0.34 2.04 0 0 Z " fill="currentColor" transform="translate(1558,1158)"/>
<path d="M0 0 C2 2 2 2 2.3125 5 C2.209375 5.99 2.10625 6.98 2 8 C1.01 8.66 0.02 9.32 -1 10 C-0.67 6.7 -0.34 3.4 0 0 Z " fill="currentColor" transform="translate(1292,677)"/>
<path d="M0 0 C3.01327566 1.50663783 3.61056618 4.03166411 5 7 C4.34 7 3.68 7 3 7 C2.67 7.99 2.34 8.98 2 10 C0.68373308 6.38026598 0 3.90432869 0 0 Z " fill="currentColor" transform="translate(1518,571)"/>
<path d="M0 0 C2 2 2 2 2.125 5.125 C2.08375 6.07375 2.0425 7.0225 2 8 C1.01 8.495 1.01 8.495 0 9 C-0.87890625 2.84765625 -0.87890625 2.84765625 -1 1 C-0.67 0.67 -0.34 0.34 0 0 Z " fill="currentColor" transform="translate(1488,284)"/>
<path d="M0 0 C2.97 0 5.94 0 9 0 C9 0.66 9 1.32 9 2 C6.36 2.33 3.72 2.66 1 3 C0.67 2.01 0.34 1.02 0 0 Z " fill="currentColor" transform="translate(1420,73)"/>
<path d="M0 0 C1.65 0.33 3.3 0.66 5 1 C5 2.32 5 3.64 5 5 C3.02 4.34 1.04 3.68 -1 3 C-0.67 2.01 -0.34 1.02 0 0 Z " fill="currentColor" transform="translate(1374,1452)"/>
<path d="M0 0 C0.7425 0.0825 1.485 0.165 2.25 0.25 C-1.07307692 4.18846154 -1.07307692 4.18846154 -4.5 4.5 C-5.2425 4.4175 -5.985 4.335 -6.75 4.25 C-3.42692308 0.31153846 -3.42692308 0.31153846 0 0 Z " fill="currentColor" transform="translate(1652.75,1419.75)"/>
<path d="M0 0 C0 0.66 0 1.32 0 2 C-1.98 2.99 -1.98 2.99 -4 4 C-4.99 2.68 -5.98 1.36 -7 0 C-2.25 -1.125 -2.25 -1.125 0 0 Z " fill="currentColor" transform="translate(1611,1366)"/>
<path d="M0 0 C1.32 0.99 2.64 1.98 4 3 C3.34 3.66 2.68 4.32 2 5 C0.68 5 -0.64 5 -2 5 C-1.34 3.35 -0.68 1.7 0 0 Z " fill="currentColor" transform="translate(1570,1365)"/>
<path d="M0 0 C0.66 0.66 1.32 1.32 2 2 C0.77065985 5.68802044 -0.93859378 6.72356973 -4 9 C-2.80100302 5.9168649 -1.52299523 2.93720508 0 0 Z " fill="currentColor" transform="translate(1188,1327)"/>
<path d="M0 0 C0 0.66 0 1.32 0 2 C0.66 2 1.32 2 2 2 C2 2.99 2 3.98 2 5 C-0.91517292 3.92598892 -2.77810176 3.22189824 -5 1 C-3 0 -3 0 0 0 Z " fill="currentColor" transform="translate(1533,1269)"/>
<path d="M0 0 C1.32 1.65 2.64 3.3 4 5 C3.67 5.66 3.34 6.32 3 7 C2.01 6.67 1.02 6.34 0 6 C-0.38218767 4.34385343 -0.71395102 2.67542976 -1 1 C-0.67 0.67 -0.34 0.34 0 0 Z " fill="currentColor" transform="translate(1588,1258)"/>
<path d="M0 0 C2 3 2 3 2 5 C0.1875 5.625 0.1875 5.625 -2 6 C-2.99 5.34 -3.98 4.68 -5 4 C-3.35 2.68 -1.7 1.36 0 0 Z " fill="currentColor" transform="translate(1345,1249)"/>
<path d="M0 0 C1.32 0 2.64 0 4 0 C4 0.99 4 1.98 4 3 C5.32 3.33 6.64 3.66 8 4 C5.36 4 2.72 4 0 4 C0 2.68 0 1.36 0 0 Z " fill="currentColor" transform="translate(1460,1224)"/>
<path d="M0 0 C0.99 0.33 1.98 0.66 3 1 C4.1875 4.0625 4.1875 4.0625 5 7 C4.01 7.495 4.01 7.495 3 8 C0 2.25 0 2.25 0 0 Z " fill="currentColor" transform="translate(1565,1186)"/>
<path d="M0 0 C0.99 0.495 0.99 0.495 2 1 C2 1.66 2 2.32 2 3 C2.66 3 3.32 3 4 3 C4.33 4.32 4.66 5.64 5 7 C4.01 7.495 4.01 7.495 3 8 C1.5 6.8125 1.5 6.8125 0 5 C-0.1875 2.3125 -0.1875 2.3125 0 0 Z " fill="currentColor" transform="translate(1538,1174)"/>
<path d="M0 0 C1.60080151 4.00200378 0.29279692 7.04556236 -1 11 C-3 8 -3 8 -2.625 5.3125 C-2.41875 4.549375 -2.2125 3.78625 -2 3 C-1.34 3 -0.68 3 0 3 C0 2.01 0 1.02 0 0 Z " fill="currentColor" transform="translate(1255,1169)"/>
<path d="M0 0 C0.66 0 1.32 0 2 0 C1.50168276 3.68754757 0.89932357 5.60490662 -2 8 C-2.125 5.125 -2.125 5.125 -2 2 C-1.34 1.34 -0.68 0.68 0 0 Z " fill="currentColor" transform="translate(1555,741)"/>
<path d="M0 0 C0.66 0 1.32 0 2 0 C1.67 2.97 1.34 5.94 1 9 C0.34 8.67 -0.32 8.34 -1 8 C-0.67 5.36 -0.34 2.72 0 0 Z " fill="currentColor" transform="translate(1274,659)"/>
<path d="M0 0 C0.33 0.99 0.66 1.98 1 3 C1.66 3 2.32 3 3 3 C2.67 4.65 2.34 6.3 2 8 C1.01 8.33 0.02 8.66 -1 9 C-0.67 6.03 -0.34 3.06 0 0 Z " fill="currentColor" transform="translate(1327,389)"/>
<path d="M0 0 C0.66 0.33 1.32 0.66 2 1 C2.125 3.875 2.125 3.875 2 7 C1.34 7.66 0.68 8.32 0 9 C-1.125 2.25 -1.125 2.25 0 0 Z " fill="currentColor" transform="translate(1499,331)"/>
<path d="M0 0 C1.485 0.99 1.485 0.99 3 2 C2.67 3.65 2.34 5.3 2 7 C1.01 7 0.02 7 -1 7 C-0.67 4.69 -0.34 2.38 0 0 Z " fill="currentColor" transform="translate(1342,315)"/>
<path d="M0 0 C0.66 0 1.32 0 2 0 C1.67 2.31 1.34 4.62 1 7 C0.01 6.01 -0.98 5.02 -2 4 C-1.34 2.68 -0.68 1.36 0 0 Z " fill="currentColor" transform="translate(1334,251)"/>
<path d="M0 0 C0.33 0 0.66 0 1 0 C1.22786458 1.98567708 1.45572917 3.97135417 1.68359375 5.95703125 C1.97170735 8.19396393 1.97170735 8.19396393 3 11 C2.34 11 1.68 11 1 11 C0.67 11.66 0.34 12.32 0 13 C0 8.71 0 4.42 0 0 Z " fill="currentColor" transform="translate(1482,169)"/>
<path d="M0 0 C2.64 0 5.28 0 8 0 C6.02 0.99 6.02 0.99 4 2 C4 2.66 4 3.32 4 4 C2.68 4 1.36 4 0 4 C0 2.68 0 1.36 0 0 Z " fill="currentColor" transform="translate(1639,1444)"/>
<path d="M0 0 C2 2 2 2 2 6 C0.68 6.33 -0.64 6.66 -2 7 C-1.34 4.69 -0.68 2.38 0 0 Z " fill="currentColor" transform="translate(1357,1316)"/>
<path d="M0 0 C2.1519437 3.22791555 2.20086443 4.28400809 2 8 C0.68 6.68 -0.64 5.36 -2 4 C-1.34 2.68 -0.68 1.36 0 0 Z " fill="currentColor" transform="translate(1596,1229)"/>
<path d="M0 0 C0.66 0 1.32 0 2 0 C1.67 2.31 1.34 4.62 1 7 C0.34 6.67 -0.32 6.34 -1 6 C-1.042721 4.33388095 -1.04063832 2.66617115 -1 1 C-0.67 0.67 -0.34 0.34 0 0 Z " fill="currentColor" transform="translate(1523,972)"/>
<path d="M0 0 C0.33 0 0.66 0 1 0 C1.33 3.3 1.66 6.6 2 10 C1.01 9.67 0.02 9.34 -1 9 C-0.67 6.03 -0.34 3.06 0 0 Z " fill="currentColor" transform="translate(1264,815)"/>
<path d="M0 0 C0.33 0 0.66 0 1 0 C1.12375 0.804375 1.2475 1.60875 1.375 2.4375 C1.58125 3.283125 1.7875 4.12875 2 5 C2.66 5.33 3.32 5.66 4 6 C3.34 7.32 2.68 8.64 2 10 C1.34 9.67 0.68 9.34 0 9 C0 6.03 0 3.06 0 0 Z " fill="currentColor" transform="translate(1423,687)"/>
<path d="M0 0 C0.33 0 0.66 0 1 0 C1 2.31 1 4.62 1 7 C0.01 7 -0.98 7 -2 7 C-1.125 1.125 -1.125 1.125 0 0 Z " fill="currentColor" transform="translate(1292,686)"/>
<path d="M0 0 C0.66 0.33 1.32 0.66 2 1 C1.67 4.3 1.34 7.6 1 11 C0.67 11 0.34 11 0 11 C-0.19406478 9.35492782 -0.38007935 7.70890406 -0.5625 6.0625 C-0.66691406 5.14597656 -0.77132813 4.22945312 -0.87890625 3.28515625 C-0.91886719 2.53105469 -0.95882813 1.77695312 -1 1 C-0.67 0.67 -0.34 0.34 0 0 Z " fill="currentColor" transform="translate(1543,668)"/>
<path d="M0 0 C0.66 0.33 1.32 0.66 2 1 C2.125 3.875 2.125 3.875 2 7 C1.34 7.66 0.68 8.32 0 9 C-0.84454356 5.62182575 -1.10844919 3.32534757 0 0 Z " fill="currentColor" transform="translate(1309,605)"/>
<path d="M0 0 C0.66 0 1.32 0 2 0 C2 2.64 2 5.28 2 8 C1.67 7.01 1.34 6.02 1 5 C0.34 5 -0.32 5 -1 5 C-0.67 3.35 -0.34 1.7 0 0 Z " fill="currentColor" transform="translate(1305,521)"/>
<path d="M0 0 C0.66 0 1.32 0 2 0 C2.36923077 5.53846154 2.36923077 5.53846154 0.5 7.875 C-0.2425 8.431875 -0.2425 8.431875 -1 9 C-1.125 2.25 -1.125 2.25 0 0 Z " fill="currentColor" transform="translate(1434,428)"/>
<path d="M0 0 C1.15941038 3.47823115 0.70820884 5.45895578 0 9 C-2 7 -2 7 -2.125 3.875 C-2.08375 2.92625 -2.0425 1.9775 -2 1 C-1.34 0.67 -0.68 0.34 0 0 Z " fill="currentColor" transform="translate(1461,184)"/>
<path d="M0 0 C0.33 0 0.66 0 1 0 C1.08159574 4.16138263 0.98248524 7.9472484 0 12 C-0.33 12 -0.66 12 -1 12 C-1.92470553 7.28400182 -2.22923777 4.32734391 0 0 Z " fill="currentColor" transform="translate(1389,160)"/>
</svg>