<svg viewBox="0 0 2816 1536" xmlns="http://www.w3.org/2000/svg">
<g fill="#4FD1C5"><path id="path0" d="M199.762 25.026 C 198.295 25.800,197.029 27.528,195.736 30.523 C 193.893 34.794,192.977 36.187,190.667 38.236 C 187.155 41.352,186.760 43.389,189.049 46.580 C 190.221 48.213,190.492 48.885,190.496 50.167 C 190.500 52.035,188.486 60.703,186.835 65.917 C 184.741 72.529,184.439 77.831,185.770 84.586 C 185.978 85.644,186.067 86.914,186.074 88.917 C 186.084 92.038,186.163 91.593,184.332 98.833 C 183.365 102.659,182.036 109.456,181.156 115.083 C 180.705 117.967,180.666 118.064,178.947 120.463 C 174.172 127.127,173.512 132.489,176.609 139.459 C 177.357 141.141,177.365 141.178,177.118 141.795 C 176.980 142.139,176.785 143.098,176.685 143.926 C 176.584 144.753,176.277 146.327,176.002 147.423 C 175.435 149.683,175.329 151.953,175.678 154.344 C 176.120 157.364,175.933 157.990,171.985 166.697 C 167.208 177.233,165.588 184.290,167.465 186.391 C 169.259 188.399,171.160 188.669,184.223 188.775 C 197.948 188.886,197.529 188.929,205.417 186.590 C 207.872 185.862,208.229 185.799,209.918 185.791 L 211.753 185.782 214.502 186.878 C 218.511 188.478,218.938 188.574,222.083 188.579 C 229.083 188.590,233.391 184.397,233.377 177.583 C 233.363 170.649,229.241 166.278,222.500 166.047 L 220.083 165.964 218.459 165.149 C 216.292 164.061,215.856 164.061,214.836 165.148 C 214.103 165.928,213.979 165.989,211.910 166.580 C 207.616 167.806,206.889 168.760,207.484 172.381 C 207.646 173.361,207.484 173.488,206.767 172.941 C 206.037 172.384,205.874 171.679,205.762 168.583 C 205.577 163.487,204.898 161.683,202.138 158.955 C 200.113 156.953,200.124 156.973,199.845 155.000 C 199.653 153.636,199.393 152.497,198.671 149.845 C 198.269 148.370,198.258 147.472,198.595 143.833 C 198.735 142.321,198.916 138.833,198.998 136.083 C 199.132 131.549,199.187 130.913,199.587 129.250 C 201.861 119.795,202.432 112.233,201.600 102.583 C 201.434 100.658,201.240 96.608,201.167 93.583 C 201.028 87.757,200.942 87.094,199.896 83.750 C 199.491 82.456,199.489 76.488,199.890 67.750 C 200.042 64.450,200.242 59.837,200.335 57.500 C 200.515 52.986,200.752 51.187,202.325 42.443 C 202.795 39.827,203.084 37.584,203.249 35.276 C 203.410 33.003,203.604 31.485,203.849 30.583 C 205.064 26.100,203.014 23.312,199.762 25.026 M201.626 27.471 C 201.788 27.574,201.744 27.906,201.427 28.965 C 201.034 30.279,200.858 31.704,200.504 36.440 C 200.352 38.479,200.078 40.229,199.087 45.500 C 198.871 46.646,198.565 48.408,198.407 49.417 C 198.058 51.643,198.170 51.520,196.750 51.241 C 196.108 51.115,195.050 51.009,194.399 51.006 L 193.215 51.000 193.122 49.792 C 192.998 48.187,192.632 47.181,191.638 45.708 C 189.812 43.001,189.863 42.749,192.818 39.833 C 195.459 37.227,196.243 36.083,197.694 32.714 C 198.871 29.981,199.633 28.697,200.539 27.922 C 201.282 27.286,201.313 27.273,201.626 27.471 M196.831 53.891 L 197.746 54.108 197.699 56.012 C 197.674 57.060,197.461 62.642,197.227 68.417 C 196.704 81.297,196.731 82.346,197.680 85.750 L 198.376 88.250 198.500 93.333 C 198.568 96.129,198.790 100.479,198.993 103.000 C 199.744 112.295,199.271 118.963,197.263 127.417 C 196.594 130.234,196.507 131.095,196.341 136.510 C 196.252 139.392,196.057 142.912,195.906 144.333 C 195.570 147.490,195.657 148.767,196.405 151.700 C 196.716 152.919,197.088 154.674,197.230 155.599 C 197.373 156.525,197.635 157.620,197.812 158.033 C 198.129 158.774,198.395 159.076,200.524 161.111 C 202.412 162.916,202.926 164.521,203.159 169.333 C 203.394 174.221,204.698 176.000,208.043 176.000 C 210.183 176.000,210.554 175.275,210.139 171.899 C 209.896 169.924,209.823 170.006,212.493 169.245 C 214.974 168.538,215.908 168.144,216.197 167.680 C 216.480 167.227,216.658 167.241,217.796 167.810 C 219.286 168.556,219.762 168.655,222.167 168.719 C 228.032 168.876,231.624 173.289,230.632 179.119 C 229.518 185.670,223.636 187.743,215.555 184.432 C 211.601 182.812,209.281 182.703,205.015 183.937 C 204.652 184.042,204.625 184.014,204.732 183.651 C 205.268 181.834,204.910 179.013,204.059 178.344 C 202.861 177.402,201.581 178.437,202.100 179.928 C 202.841 182.056,201.822 184.611,199.959 185.298 C 197.910 186.055,197.362 186.084,185.750 186.068 C 169.668 186.045,168.957 185.897,169.435 182.667 C 170.056 178.476,171.838 173.334,175.242 165.917 C 178.680 158.425,178.783 157.992,178.255 153.294 C 178.001 151.034,178.038 150.537,178.654 148.000 C 178.843 147.221,178.998 146.344,178.999 146.052 C 179.001 145.128,179.290 145.296,179.414 146.294 C 180.083 151.682,181.796 153.999,184.013 152.510 C 184.414 152.241,184.756 152.034,184.773 152.052 C 184.932 152.214,182.613 156.357,181.893 157.198 C 179.517 159.971,177.751 166.016,176.667 175.083 C 176.569 175.908,176.303 177.268,176.077 178.106 C 175.229 181.250,175.644 181.571,179.287 180.597 C 182.663 179.694,185.389 179.208,188.083 179.027 C 193.000 178.697,196.516 176.666,194.995 175.033 C 194.468 174.467,193.932 174.413,193.127 174.846 C 191.621 175.655,191.221 175.829,190.333 176.057 C 189.829 176.187,188.670 176.321,187.757 176.355 L 186.098 176.417 185.791 175.417 C 184.000 169.596,183.410 167.112,182.916 163.331 C 182.583 160.777,182.617 160.638,183.979 158.907 C 185.141 157.432,185.288 157.186,186.159 155.250 C 186.448 154.608,187.106 153.385,187.621 152.532 C 190.031 148.540,187.657 146.319,184.118 149.252 C 183.565 149.711,183.094 149.988,183.015 149.901 C 182.841 149.710,182.241 147.286,181.987 145.750 C 181.708 144.062,180.925 141.737,180.247 140.583 C 178.322 137.308,177.500 134.603,177.500 131.545 C 177.500 127.826,178.247 126.019,181.758 121.250 C 183.131 119.384,183.397 118.617,183.922 115.000 C 184.623 110.167,185.783 104.188,186.832 100.000 C 189.034 91.208,189.242 88.830,188.280 83.417 C 187.001 76.218,187.441 72.487,190.821 61.833 C 191.010 61.237,191.473 59.290,191.850 57.505 C 192.800 53.012,192.533 53.428,194.380 53.562 C 195.225 53.623,196.328 53.771,196.831 53.891 M181.185 168.749 C 181.518 170.242,182.363 173.301,183.061 175.543 C 183.283 176.254,183.408 176.870,183.339 176.913 C 183.271 176.955,182.360 177.173,181.316 177.396 C 180.271 177.620,179.277 177.858,179.106 177.927 C 178.854 178.027,178.813 177.990,178.890 177.734 C 178.943 177.559,179.104 176.554,179.248 175.500 C 179.931 170.503,180.574 167.019,180.777 167.222 C 180.825 167.269,181.008 167.957,181.185 168.749 " stroke="none" fill-rule="evenodd"></path><path id="path1" d="M0.000 109.083 L 0.000 218.167 200.000 218.167 L 400.000 218.167 400.000 109.083 L 400.000 0.000 200.000 0.000 L 0.000 0.000 0.000 109.083 M202.817 24.741 C 204.500 25.612,204.901 27.469,204.011 30.277 C 203.794 30.961,203.624 32.240,203.500 34.110 C 203.320 36.840,202.647 42.150,202.330 43.340 C 201.377 46.915,200.551 54.087,200.335 60.667 C 200.242 63.462,200.088 67.137,199.992 68.833 C 199.895 70.529,199.802 74.392,199.783 77.417 L 199.750 82.917 200.289 84.750 C 201.170 87.747,201.345 89.161,201.321 93.083 C 201.310 95.008,201.418 98.233,201.562 100.250 C 202.469 112.948,202.157 119.315,200.251 127.000 C 199.347 130.644,199.190 131.905,199.089 136.333 C 199.036 138.671,198.900 141.746,198.788 143.167 C 198.453 147.397,198.530 149.109,199.148 151.167 C 199.437 152.129,199.790 153.739,199.932 154.744 C 200.244 156.959,200.040 156.598,202.275 158.886 C 205.103 161.782,205.537 162.932,205.898 168.483 C 206.121 171.917,206.295 172.623,207.016 173.009 C 207.494 173.264,207.526 173.180,207.334 172.171 C 206.854 169.639,207.389 168.171,209.073 167.400 C 209.763 167.084,213.761 165.833,214.081 165.833 C 214.113 165.833,214.297 165.579,214.489 165.268 C 215.286 163.978,216.185 163.911,218.402 164.977 L 220.086 165.788 222.418 165.873 C 228.823 166.105,232.956 169.997,233.487 176.296 C 234.346 186.470,225.460 191.656,214.873 187.160 C 210.750 185.409,209.816 185.427,203.167 187.387 C 197.792 188.971,198.676 188.883,187.750 188.918 C 171.855 188.968,169.326 188.661,167.378 186.442 C 165.819 184.666,166.402 180.502,169.297 172.750 C 169.998 170.874,170.787 168.910,170.983 168.553 C 171.148 168.252,172.848 164.492,174.176 161.489 C 175.579 158.318,175.928 156.368,175.490 154.148 C 175.163 152.493,175.274 149.683,175.734 147.962 C 175.961 147.112,176.267 145.629,176.413 144.667 C 176.560 143.704,176.799 142.493,176.945 141.974 L 177.210 141.032 176.701 139.974 C 174.775 135.974,174.216 132.137,174.987 128.214 C 175.501 125.599,176.255 124.040,178.583 120.779 C 180.460 118.150,180.627 117.786,180.911 115.734 C 181.160 113.939,181.387 112.631,182.353 107.417 C 183.126 103.250,183.426 101.907,184.992 95.583 C 186.236 90.560,186.297 88.096,185.307 82.750 C 184.323 77.430,184.751 72.156,186.669 66.000 C 187.878 62.119,189.034 57.677,189.569 54.860 C 189.714 54.095,189.955 53.007,190.105 52.443 C 190.677 50.285,190.126 47.446,189.000 46.750 C 188.366 46.358,187.583 44.378,187.583 43.167 C 187.583 41.303,187.933 40.728,190.825 37.842 C 193.333 35.339,194.466 33.664,195.170 31.417 C 196.658 26.673,200.338 23.460,202.817 24.741 M201.067 27.669 C 200.194 28.005,199.160 29.699,197.407 33.667 C 196.219 36.355,195.530 37.324,193.057 39.785 C 190.048 42.778,189.974 43.058,191.580 45.402 C 192.770 47.141,193.435 48.973,193.305 50.151 C 193.240 50.740,193.343 50.786,194.958 50.903 C 195.852 50.967,196.899 51.079,197.285 51.153 L 197.987 51.286 198.089 50.518 C 198.210 49.612,198.624 47.278,199.436 42.917 C 199.760 41.175,200.133 38.512,200.263 37.000 C 200.812 30.651,200.959 29.607,201.488 28.265 C 201.711 27.697,201.558 27.480,201.067 27.669 M192.894 53.854 C 192.701 54.097,192.359 55.506,191.928 57.833 C 191.633 59.425,191.407 60.270,189.631 66.417 C 187.576 73.527,187.313 76.547,188.238 82.417 C 188.982 87.142,189.034 87.676,188.946 89.750 C 188.856 91.876,188.476 93.935,187.330 98.516 C 185.991 103.865,185.347 107.095,183.916 115.644 C 183.280 119.442,183.348 119.279,181.077 122.447 C 178.122 126.570,177.756 127.569,177.760 131.500 C 177.763 134.798,178.149 136.472,179.445 138.813 C 181.270 142.110,181.440 142.597,182.578 147.816 C 183.084 150.133,182.966 150.030,184.048 149.106 C 185.927 147.501,187.613 147.417,188.507 148.883 C 189.107 149.868,188.889 150.739,187.446 153.118 C 186.934 153.963,186.278 155.223,185.988 155.919 C 185.698 156.616,185.114 157.632,184.689 158.179 C 182.810 160.595,182.798 160.622,182.899 161.924 C 183.141 165.050,183.888 168.562,185.360 173.500 C 186.252 176.491,186.032 176.246,187.776 176.188 C 189.915 176.117,190.693 175.926,192.415 175.054 C 194.156 174.172,194.649 174.194,195.230 175.178 C 196.310 177.006,192.677 178.939,187.583 179.248 C 185.159 179.394,183.429 179.694,180.232 180.520 C 176.540 181.474,176.609 181.468,176.005 180.864 C 175.445 180.304,175.384 179.871,175.729 178.892 C 176.049 177.985,176.424 175.937,176.930 172.333 C 178.064 164.258,179.612 159.571,182.048 156.833 C 182.594 156.220,183.172 155.174,184.469 152.453 C 184.504 152.381,184.252 152.512,183.909 152.744 C 182.047 154.008,180.713 152.677,179.744 148.588 C 179.472 147.440,179.209 146.501,179.159 146.501 C 179.110 146.500,178.858 147.569,178.601 148.875 L 178.134 151.250 178.421 153.498 C 178.939 157.549,178.666 158.785,175.952 164.667 C 172.178 172.847,170.549 177.331,169.736 181.780 C 168.994 185.843,168.800 185.790,184.833 185.940 C 201.991 186.101,202.374 185.954,201.971 179.360 C 201.924 178.590,201.970 178.428,202.310 178.152 C 203.906 176.860,205.481 179.311,205.032 182.388 C 204.796 184.006,204.729 183.931,206.047 183.523 C 209.406 182.486,211.997 182.766,216.475 184.651 C 225.034 188.253,232.371 183.324,230.353 175.329 C 229.240 170.923,226.789 168.979,222.250 168.903 C 219.838 168.862,219.669 168.827,217.797 167.969 L 216.678 167.456 216.089 167.972 C 215.709 168.306,215.015 168.635,214.125 168.901 C 213.369 169.128,212.206 169.475,211.541 169.673 C 210.029 170.123,210.098 169.965,210.346 172.408 C 210.696 175.866,209.368 177.002,206.325 175.846 C 203.779 174.878,203.201 173.715,203.009 169.167 C 202.801 164.243,202.135 162.478,199.740 160.506 C 197.932 159.018,197.445 158.120,197.087 155.613 C 196.953 154.680,196.576 152.867,196.248 151.583 C 195.497 148.645,195.393 147.177,195.744 144.500 C 195.902 143.300,196.083 140.120,196.171 137.000 C 196.351 130.611,196.290 131.143,197.417 126.083 C 199.158 118.265,199.623 109.764,198.767 101.417 C 198.596 99.751,198.406 96.119,198.339 93.250 L 198.218 88.083 197.607 85.925 C 196.657 82.562,196.580 81.610,196.809 75.973 C 196.918 73.284,197.116 67.971,197.248 64.167 C 197.380 60.362,197.521 56.570,197.562 55.739 L 197.636 54.228 196.860 54.012 C 195.645 53.675,193.115 53.574,192.894 53.854 M180.524 168.417 C 180.105 170.423,179.826 172.118,179.659 173.667 C 179.508 175.070,179.317 176.314,179.077 177.447 L 179.000 177.810 180.041 177.513 C 180.614 177.349,181.458 177.163,181.917 177.098 C 183.515 176.873,183.457 177.264,182.405 173.833 C 181.878 172.115,181.158 169.437,180.926 168.333 L 180.733 167.417 180.524 168.417 " stroke="none" fill-rule="evenodd"></path><path id="path2" d="M201.125 24.618 C 201.331 24.657,201.669 24.657,201.875 24.618 C 202.081 24.578,201.912 24.545,201.500 24.545 C 201.088 24.545,200.919 24.578,201.125 24.618 M204.381 27.583 C 204.382 28.042,204.415 28.209,204.453 27.956 C 204.491 27.703,204.490 27.328,204.451 27.123 C 204.411 26.918,204.380 27.125,204.381 27.583 M200.158 28.292 L 199.583 28.917 200.208 28.342 C 200.790 27.808,200.910 27.667,200.783 27.667 C 200.755 27.667,200.474 27.948,200.158 28.292 M203.379 33.333 C 203.379 33.746,203.411 33.915,203.451 33.708 C 203.491 33.502,203.491 33.165,203.451 32.958 C 203.411 32.752,203.379 32.921,203.379 33.333 M200.550 35.000 C 200.550 35.504,200.581 35.710,200.619 35.458 C 200.658 35.206,200.658 34.794,200.619 34.542 C 200.581 34.290,200.550 34.496,200.550 35.000 M203.209 35.917 C 203.211 36.283,203.245 36.414,203.285 36.206 C 203.324 35.999,203.323 35.699,203.281 35.540 C 203.239 35.380,203.207 35.550,203.209 35.917 M200.372 37.333 C 200.372 37.654,200.406 37.785,200.448 37.625 C 200.490 37.465,200.490 37.202,200.448 37.042 C 200.406 36.881,200.372 37.012,200.372 37.333 M193.573 39.208 L 193.083 39.750 193.625 39.260 C 194.130 38.804,194.243 38.667,194.115 38.667 C 194.086 38.667,193.842 38.910,193.573 39.208 M191.662 40.958 L 190.583 42.083 191.708 41.005 C 192.753 40.003,192.910 39.833,192.787 39.833 C 192.761 39.833,192.255 40.340,191.662 40.958 M187.539 43.000 C 187.539 43.321,187.573 43.452,187.615 43.292 C 187.657 43.131,187.657 42.869,187.615 42.708 C 187.573 42.548,187.539 42.679,187.539 43.000 M193.544 50.953 C 193.797 50.991,194.172 50.990,194.377 50.951 C 194.582 50.911,194.375 50.880,193.917 50.881 C 193.458 50.882,193.291 50.915,193.544 50.953 M192.776 53.625 C 192.733 53.694,193.085 53.728,193.557 53.702 C 194.978 53.622,195.151 53.547,193.968 53.523 C 193.355 53.510,192.818 53.556,192.776 53.625 M200.383 55.500 C 200.383 56.004,200.415 56.210,200.453 55.958 C 200.491 55.706,200.491 55.294,200.453 55.042 C 200.415 54.790,200.383 54.996,200.383 55.500 M197.564 58.000 C 197.564 59.146,197.591 59.615,197.623 59.042 C 197.656 58.469,197.656 57.531,197.623 56.958 C 197.591 56.385,197.564 56.854,197.564 58.000 M200.226 60.250 C 200.225 61.075,200.254 61.434,200.288 61.047 C 200.323 60.660,200.324 59.985,200.289 59.547 C 200.255 59.109,200.226 59.425,200.226 60.250 M197.387 63.000 C 197.387 63.596,197.417 63.840,197.454 63.542 C 197.491 63.244,197.491 62.756,197.454 62.458 C 197.417 62.160,197.387 62.404,197.387 63.000 M200.048 65.083 C 200.049 65.542,200.081 65.709,200.120 65.456 C 200.158 65.203,200.157 64.828,200.117 64.623 C 200.078 64.418,200.046 64.625,200.048 65.083 M197.220 67.333 C 197.220 67.929,197.250 68.173,197.287 67.875 C 197.324 67.577,197.324 67.090,197.287 66.792 C 197.250 66.494,197.220 66.737,197.220 67.333 M199.881 68.583 C 199.882 69.042,199.915 69.209,199.953 68.956 C 199.991 68.703,199.990 68.328,199.951 68.123 C 199.911 67.918,199.880 68.125,199.881 68.583 M197.052 71.417 C 197.053 71.967,197.084 72.172,197.121 71.872 C 197.158 71.572,197.157 71.122,197.119 70.872 C 197.081 70.622,197.051 70.867,197.052 71.417 M199.723 72.333 C 199.723 73.021,199.752 73.302,199.788 72.958 C 199.824 72.615,199.824 72.052,199.788 71.708 C 199.752 71.365,199.723 71.646,199.723 72.333 M185.039 73.500 C 185.039 73.821,185.073 73.952,185.115 73.792 C 185.157 73.631,185.157 73.369,185.115 73.208 C 185.073 73.048,185.039 73.179,185.039 73.500 M196.885 75.583 C 196.886 76.133,196.917 76.338,196.954 76.039 C 196.991 75.739,196.990 75.289,196.952 75.039 C 196.914 74.788,196.884 75.033,196.885 75.583 M184.895 76.667 C 184.895 77.629,184.923 78.023,184.956 77.542 C 184.990 77.060,184.990 76.273,184.956 75.792 C 184.923 75.310,184.895 75.704,184.895 76.667 M199.562 77.500 C 199.562 78.462,199.589 78.856,199.623 78.375 C 199.657 77.894,199.657 77.106,199.623 76.625 C 199.589 76.144,199.562 76.537,199.562 77.500 M196.714 80.250 C 196.716 80.708,196.748 80.876,196.786 80.623 C 196.825 80.369,196.824 79.994,196.784 79.789 C 196.744 79.584,196.713 79.792,196.714 80.250 M199.542 81.583 C 199.544 81.950,199.578 82.080,199.618 81.873 C 199.658 81.666,199.656 81.366,199.615 81.206 C 199.573 81.047,199.540 81.217,199.542 81.583 M188.705 86.500 C 188.705 86.821,188.740 86.952,188.782 86.792 C 188.823 86.631,188.823 86.369,188.782 86.208 C 188.740 86.048,188.705 86.179,188.705 86.500 M186.045 87.667 C 186.045 88.079,186.078 88.248,186.118 88.042 C 186.157 87.835,186.157 87.498,186.118 87.292 C 186.078 87.085,186.045 87.254,186.045 87.667 M201.227 91.167 C 201.227 92.037,201.255 92.394,201.289 91.958 C 201.324 91.523,201.324 90.810,201.289 90.375 C 201.255 89.940,201.227 90.296,201.227 91.167 M186.048 90.583 C 186.049 91.042,186.081 91.209,186.120 90.956 C 186.158 90.703,186.157 90.328,186.117 90.123 C 186.078 89.918,186.046 90.125,186.048 90.583 M198.398 94.083 C 198.398 95.275,198.425 95.741,198.457 95.118 C 198.489 94.496,198.489 93.521,198.457 92.951 C 198.424 92.382,198.398 92.892,198.398 94.083 M201.209 97.083 C 201.211 97.450,201.245 97.580,201.285 97.373 C 201.324 97.166,201.323 96.866,201.281 96.706 C 201.239 96.547,201.207 96.717,201.209 97.083 M198.539 98.000 C 198.539 98.321,198.573 98.452,198.615 98.292 C 198.657 98.131,198.657 97.869,198.615 97.708 C 198.573 97.548,198.539 97.679,198.539 98.000 M201.379 99.500 C 201.379 99.912,201.411 100.081,201.451 99.875 C 201.491 99.669,201.491 99.331,201.451 99.125 C 201.411 98.919,201.379 99.087,201.379 99.500 M198.709 100.083 C 198.711 100.450,198.745 100.580,198.785 100.373 C 198.824 100.166,198.823 99.866,198.781 99.706 C 198.739 99.547,198.707 99.717,198.709 100.083 M201.545 101.833 C 201.545 102.246,201.578 102.415,201.618 102.208 C 201.657 102.002,201.657 101.665,201.618 101.458 C 201.578 101.252,201.545 101.421,201.545 101.833 M201.705 104.333 C 201.705 104.654,201.740 104.785,201.782 104.625 C 201.823 104.465,201.823 104.202,201.782 104.042 C 201.740 103.881,201.705 104.013,201.705 104.333 M199.212 107.000 C 199.212 107.412,199.245 107.581,199.284 107.375 C 199.324 107.169,199.324 106.831,199.284 106.625 C 199.245 106.419,199.212 106.587,199.212 107.000 M201.875 107.083 C 201.877 107.450,201.911 107.580,201.951 107.373 C 201.991 107.166,201.990 106.866,201.948 106.706 C 201.906 106.547,201.874 106.717,201.875 107.083 M199.212 114.000 C 199.212 114.412,199.245 114.581,199.284 114.375 C 199.324 114.169,199.324 113.831,199.284 113.625 C 199.245 113.419,199.212 113.587,199.212 114.000 M201.881 114.750 C 201.882 115.208,201.915 115.376,201.953 115.123 C 201.991 114.869,201.990 114.494,201.951 114.289 C 201.911 114.084,201.880 114.292,201.881 114.750 M174.728 131.583 C 174.728 132.500,174.756 132.854,174.790 132.369 C 174.824 131.885,174.823 131.135,174.789 130.703 C 174.755 130.270,174.727 130.667,174.728 131.583 M196.389 132.500 C 196.389 133.188,196.419 133.469,196.455 133.125 C 196.491 132.781,196.491 132.219,196.455 131.875 C 196.419 131.531,196.389 131.813,196.389 132.500 M199.055 133.417 C 199.055 134.058,199.086 134.300,199.122 133.955 C 199.158 133.609,199.157 133.084,199.120 132.788 C 199.083 132.492,199.054 132.775,199.055 133.417 M196.217 139.167 C 196.217 139.671,196.248 139.877,196.286 139.625 C 196.324 139.373,196.324 138.960,196.286 138.708 C 196.248 138.456,196.217 138.662,196.217 139.167 M198.872 140.000 C 198.872 140.321,198.906 140.452,198.948 140.292 C 198.990 140.131,198.990 139.869,198.948 139.708 C 198.906 139.548,198.872 139.679,198.872 140.000 M198.709 142.417 C 198.711 142.783,198.745 142.914,198.785 142.706 C 198.824 142.499,198.823 142.199,198.781 142.040 C 198.739 141.880,198.707 142.050,198.709 142.417 M198.539 144.500 C 198.539 144.821,198.573 144.952,198.615 144.792 C 198.657 144.631,198.657 144.369,198.615 144.208 C 198.573 144.048,198.539 144.179,198.539 144.500 M179.122 145.434 C 179.055 145.501,179.002 145.712,179.005 145.903 C 179.010 146.223,179.023 146.227,179.184 145.952 C 179.370 145.632,179.322 145.233,179.122 145.434 M198.375 146.417 C 198.377 146.783,198.411 146.914,198.451 146.706 C 198.491 146.499,198.490 146.199,198.448 146.040 C 198.406 145.880,198.374 146.050,198.375 146.417 M198.372 148.333 C 198.372 148.654,198.406 148.785,198.448 148.625 C 198.490 148.465,198.490 148.202,198.448 148.042 C 198.406 147.881,198.372 148.012,198.372 148.333 M175.383 150.667 C 175.383 151.171,175.415 151.377,175.453 151.125 C 175.491 150.873,175.491 150.460,175.453 150.208 C 175.415 149.956,175.383 150.162,175.383 150.667 M175.381 152.417 C 175.382 152.875,175.415 153.043,175.453 152.789 C 175.491 152.536,175.490 152.161,175.451 151.956 C 175.411 151.751,175.380 151.958,175.381 152.417 M178.372 154.333 C 178.372 154.654,178.406 154.785,178.448 154.625 C 178.490 154.465,178.490 154.202,178.448 154.042 C 178.406 153.881,178.372 154.012,178.372 154.333 M202.583 159.333 C 203.035 159.792,203.442 160.167,203.487 160.167 C 203.533 160.167,203.201 159.792,202.750 159.333 C 202.299 158.875,201.892 158.500,201.846 158.500 C 201.800 158.500,202.132 158.875,202.583 159.333 M182.709 161.417 C 182.711 161.783,182.745 161.914,182.785 161.706 C 182.824 161.499,182.823 161.199,182.781 161.040 C 182.739 160.880,182.707 161.050,182.709 161.417 M222.042 165.953 C 222.294 165.991,222.706 165.991,222.958 165.953 C 223.210 165.915,223.004 165.883,222.500 165.883 C 221.996 165.883,221.790 165.915,222.042 165.953 M203.039 168.000 C 203.039 168.321,203.073 168.452,203.115 168.292 C 203.157 168.131,203.157 167.869,203.115 167.708 C 203.073 167.548,203.039 167.679,203.039 168.000 M230.083 169.000 C 230.535 169.458,230.942 169.833,230.987 169.833 C 231.033 169.833,230.701 169.458,230.250 169.000 C 229.799 168.542,229.392 168.167,229.346 168.167 C 229.300 168.167,229.632 168.542,230.083 169.000 M220.208 168.782 C 220.369 168.823,220.631 168.823,220.792 168.782 C 220.952 168.740,220.821 168.705,220.500 168.705 C 220.179 168.705,220.048 168.740,220.208 168.782 M221.792 168.789 C 222.181 168.824,222.819 168.824,223.208 168.789 C 223.598 168.754,223.279 168.725,222.500 168.725 C 221.721 168.725,221.402 168.754,221.792 168.789 M207.217 170.500 C 207.217 171.004,207.248 171.210,207.286 170.958 C 207.324 170.706,207.324 170.294,207.286 170.042 C 207.248 169.790,207.217 169.996,207.217 170.500 M210.372 174.167 C 210.372 174.487,210.406 174.619,210.448 174.458 C 210.490 174.298,210.490 174.035,210.448 173.875 C 210.406 173.715,210.372 173.846,210.372 174.167 M209.848 175.397 L 209.445 175.917 209.922 175.463 C 210.184 175.214,210.365 174.980,210.324 174.944 C 210.284 174.907,210.069 175.111,209.848 175.397 M186.042 176.167 C 186.079 176.304,186.291 176.431,186.513 176.447 C 186.831 176.472,186.846 176.459,186.583 176.386 C 186.400 176.336,186.188 176.210,186.112 176.106 C 186.021 175.981,185.997 176.001,186.042 176.167 M207.792 176.118 C 207.998 176.157,208.335 176.157,208.542 176.118 C 208.748 176.078,208.579 176.045,208.167 176.045 C 207.754 176.045,207.585 176.078,207.792 176.118 M188.708 176.282 C 188.869 176.323,189.131 176.323,189.292 176.282 C 189.452 176.240,189.321 176.205,189.000 176.205 C 188.679 176.205,188.548 176.240,188.708 176.282 M230.718 177.583 C 230.719 178.133,230.750 178.338,230.787 178.039 C 230.825 177.739,230.824 177.289,230.786 177.039 C 230.748 176.788,230.717 177.033,230.718 177.583 M188.125 179.118 C 188.331 179.157,188.669 179.157,188.875 179.118 C 189.081 179.078,188.912 179.045,188.500 179.045 C 188.088 179.045,187.919 179.078,188.125 179.118 M185.375 179.282 C 185.535 179.323,185.798 179.323,185.958 179.282 C 186.119 179.240,185.987 179.205,185.667 179.205 C 185.346 179.205,185.215 179.240,185.375 179.282 M166.550 183.667 C 166.550 184.171,166.581 184.377,166.619 184.125 C 166.658 183.873,166.658 183.460,166.619 183.208 C 166.581 182.956,166.550 183.162,166.550 183.667 M208.625 183.118 C 208.831 183.157,209.169 183.157,209.375 183.118 C 209.581 183.078,209.412 183.045,209.000 183.045 C 208.588 183.045,208.419 183.078,208.625 183.118 M210.211 183.120 C 210.464 183.158,210.839 183.157,211.044 183.117 C 211.249 183.078,211.042 183.046,210.583 183.048 C 210.125 183.049,209.957 183.081,210.211 183.120 M230.240 185.708 L 229.750 186.250 230.292 185.760 C 230.797 185.304,230.910 185.167,230.781 185.167 C 230.752 185.167,230.509 185.410,230.240 185.708 M209.627 185.785 C 209.834 185.824,210.134 185.823,210.294 185.781 C 210.453 185.739,210.283 185.707,209.917 185.709 C 209.550 185.711,209.420 185.745,209.627 185.785 M174.295 185.954 C 174.594 185.991,175.044 185.990,175.295 185.952 C 175.545 185.914,175.300 185.884,174.750 185.885 C 174.200 185.886,173.995 185.917,174.295 185.954 M183.208 186.125 C 185.569 186.151,189.431 186.151,191.792 186.125 C 194.152 186.099,192.221 186.077,187.500 186.077 C 182.779 186.077,180.848 186.099,183.208 186.125 M175.380 188.789 C 175.818 188.824,176.493 188.823,176.880 188.788 C 177.267 188.754,176.908 188.725,176.083 188.726 C 175.258 188.726,174.942 188.755,175.380 188.789 M196.125 188.784 C 196.331 188.824,196.669 188.824,196.875 188.784 C 197.081 188.745,196.912 188.712,196.500 188.712 C 196.088 188.712,195.919 188.745,196.125 188.784 M221.464 188.790 C 221.948 188.824,222.698 188.823,223.131 188.789 C 223.563 188.755,223.167 188.727,222.250 188.728 C 221.333 188.728,220.980 188.756,221.464 188.790 " stroke="none" fill-rule="evenodd"></path><path id="path3" d="M198.324 25.958 L 197.750 26.583 198.375 26.009 C 198.957 25.474,199.077 25.333,198.949 25.333 C 198.922 25.333,198.640 25.615,198.324 25.958 M191.658 37.125 L 191.083 37.750 191.708 37.176 C 192.290 36.641,192.410 36.500,192.283 36.500 C 192.255 36.500,191.974 36.781,191.658 37.125 M200.375 57.583 C 200.377 57.950,200.411 58.080,200.451 57.873 C 200.491 57.666,200.490 57.366,200.448 57.206 C 200.406 57.047,200.374 57.217,200.375 57.583 M197.381 60.583 C 197.382 61.042,197.415 61.209,197.453 60.956 C 197.491 60.703,197.490 60.328,197.451 60.123 C 197.411 59.918,197.380 60.125,197.381 60.583 M200.212 62.833 C 200.212 63.246,200.245 63.415,200.284 63.208 C 200.324 63.002,200.324 62.665,200.284 62.458 C 200.245 62.252,200.212 62.421,200.212 62.833 M197.209 65.083 C 197.211 65.450,197.245 65.580,197.285 65.373 C 197.324 65.166,197.323 64.866,197.281 64.706 C 197.239 64.547,197.207 64.717,197.209 65.083 M196.875 73.750 C 196.877 74.117,196.911 74.247,196.951 74.040 C 196.991 73.832,196.990 73.532,196.948 73.373 C 196.906 73.214,196.874 73.383,196.875 73.750 M199.714 75.250 C 199.716 75.708,199.748 75.876,199.786 75.623 C 199.825 75.369,199.824 74.994,199.784 74.789 C 199.744 74.584,199.713 74.792,199.714 75.250 M196.714 78.083 C 196.716 78.542,196.748 78.709,196.786 78.456 C 196.825 78.203,196.824 77.828,196.784 77.623 C 196.744 77.418,196.713 77.625,196.714 78.083 M184.872 79.333 C 184.872 79.654,184.906 79.785,184.948 79.625 C 184.990 79.465,184.990 79.202,184.948 79.042 C 184.906 78.881,184.872 79.012,184.872 79.333 M201.214 93.750 C 201.216 94.208,201.248 94.376,201.286 94.123 C 201.325 93.869,201.324 93.494,201.284 93.289 C 201.244 93.084,201.213 93.292,201.214 93.750 M199.233 110.583 C 199.234 111.958,199.259 112.499,199.291 111.784 C 199.322 111.069,199.322 109.944,199.290 109.284 C 199.259 108.624,199.233 109.208,199.233 110.583 M202.062 110.750 C 202.063 111.758,202.090 112.149,202.123 111.619 C 202.157 111.088,202.156 110.263,202.123 109.786 C 202.089 109.308,202.062 109.742,202.062 110.750 M177.555 131.417 C 177.555 132.058,177.586 132.300,177.622 131.955 C 177.658 131.609,177.657 131.084,177.620 130.788 C 177.583 130.492,177.554 130.775,177.555 131.417 M196.225 135.667 C 196.225 136.446,196.254 136.765,196.289 136.375 C 196.324 135.985,196.324 135.348,196.289 134.958 C 196.254 134.569,196.225 134.887,196.225 135.667 M199.050 136.333 C 199.050 136.837,199.081 137.044,199.119 136.792 C 199.158 136.540,199.158 136.127,199.119 135.875 C 199.081 135.623,199.050 135.829,199.050 136.333 M205.881 169.417 C 205.882 169.875,205.915 170.043,205.953 169.789 C 205.991 169.536,205.990 169.161,205.951 168.956 C 205.911 168.751,205.880 168.958,205.881 169.417 M186.960 176.285 C 187.168 176.324,187.468 176.323,187.627 176.281 C 187.786 176.239,187.617 176.207,187.250 176.209 C 186.883 176.211,186.753 176.245,186.960 176.285 M202.209 181.417 C 202.211 181.783,202.245 181.914,202.285 181.706 C 202.324 181.499,202.323 181.199,202.281 181.040 C 202.239 180.880,202.207 181.050,202.209 181.417 M209.375 182.948 C 209.535 182.990,209.798 182.990,209.958 182.948 C 210.119 182.906,209.987 182.872,209.667 182.872 C 209.346 182.872,209.215 182.906,209.375 182.948 M176.955 185.954 C 177.250 185.990,177.775 185.991,178.121 185.955 C 178.467 185.919,178.225 185.889,177.583 185.888 C 176.942 185.887,176.659 185.917,176.955 185.954 M178.625 188.954 C 178.923 188.991,179.410 188.991,179.708 188.954 C 180.006 188.917,179.762 188.887,179.167 188.887 C 178.571 188.887,178.327 188.917,178.625 188.954 M181.042 188.956 C 181.477 188.990,182.190 188.990,182.625 188.956 C 183.060 188.922,182.704 188.893,181.833 188.893 C 180.963 188.893,180.606 188.922,181.042 188.956 M183.708 188.948 C 183.869 188.990,184.131 188.990,184.292 188.948 C 184.452 188.906,184.321 188.872,184.000 188.872 C 183.679 188.872,183.548 188.906,183.708 188.948 M185.296 188.956 C 185.688 188.991,186.288 188.990,186.629 188.954 C 186.971 188.919,186.650 188.890,185.917 188.890 C 185.183 188.891,184.904 188.920,185.296 188.956 M191.625 188.957 C 192.381 188.988,193.619 188.988,194.375 188.957 C 195.131 188.926,194.512 188.901,193.000 188.901 C 191.487 188.901,190.869 188.926,191.625 188.957 " stroke="none" fill-rule="evenodd"></path><path id="path4" d="M199.705 74.000 C 199.705 74.321,199.740 74.452,199.782 74.292 C 199.823 74.131,199.823 73.869,199.782 73.708 C 199.740 73.548,199.705 73.679,199.705 74.000 M199.552 80.083 C 199.553 80.633,199.584 80.838,199.621 80.539 C 199.658 80.239,199.657 79.789,199.619 79.539 C 199.581 79.288,199.551 79.533,199.552 80.083 M188.872 88.333 C 188.872 88.654,188.906 88.785,188.948 88.625 C 188.990 88.465,188.990 88.202,188.948 88.042 C 188.906 87.881,188.872 88.013,188.872 88.333 M186.048 89.083 C 186.049 89.542,186.081 89.709,186.120 89.456 C 186.158 89.203,186.157 88.828,186.117 88.623 C 186.078 88.418,186.046 88.625,186.048 89.083 M188.872 89.667 C 188.872 89.987,188.906 90.119,188.948 89.958 C 188.990 89.798,188.990 89.535,188.948 89.375 C 188.906 89.215,188.872 89.346,188.872 89.667 M198.388 90.917 C 198.389 91.558,198.419 91.800,198.455 91.455 C 198.491 91.109,198.490 90.584,198.454 90.288 C 198.417 89.992,198.387 90.275,198.388 90.917 M199.039 135.000 C 199.039 135.321,199.073 135.452,199.115 135.292 C 199.157 135.131,199.157 134.869,199.115 134.708 C 199.073 134.548,199.039 134.679,199.039 135.000 M196.212 137.667 C 196.212 138.079,196.245 138.248,196.284 138.042 C 196.324 137.835,196.324 137.498,196.284 137.292 C 196.245 137.085,196.212 137.254,196.212 137.667 M195.542 147.250 C 195.544 147.617,195.578 147.747,195.618 147.540 C 195.658 147.332,195.656 147.032,195.615 146.873 C 195.573 146.714,195.540 146.883,195.542 147.250 M178.548 156.250 C 178.549 156.708,178.581 156.876,178.620 156.623 C 178.658 156.369,178.657 155.994,178.617 155.789 C 178.578 155.584,178.546 155.792,178.548 156.250 M175.709 156.250 C 175.711 156.617,175.745 156.747,175.785 156.540 C 175.824 156.332,175.823 156.032,175.781 155.873 C 175.739 155.714,175.707 155.883,175.709 156.250 M203.048 169.250 C 203.049 169.708,203.081 169.876,203.120 169.623 C 203.158 169.369,203.157 168.994,203.117 168.789 C 203.078 168.584,203.046 168.792,203.048 169.250 " stroke="none" fill-rule="evenodd"></path></g>
</svg>