<!DOCTYPE svg PUBLIC "-//W3C//DTD SVG 20010904//EN"
 "http://www.w3.org/TR/2001/REC-SVG-20010904/DTD/svg10.dtd">
<svg xmlns="http://www.w3.org/2000/svg" viewBox="0 0 2816.000000 1536.000000"
 preserveAspectRatio="xMidYMid meet">
<g transform="translate(0.000000,1536.000000) scale(0.100000,-0.100000)"
fill="currentColor" stroke="none">
<path d="M2935 15345 c-555 -79 -957 -273 -1300 -626 -305 -314 -511 -667
-639 -1092 -159 -524 -183 -1129 -70 -1751 170 -942 568 -2394 921 -3366 41
-113 102 -279 135 -370 72 -202 166 -449 220 -584 22 -56 55 -139 73 -186 17
-47 87 -229 155 -405 184 -482 359 -981 460 -1310 105 -348 258 -957 344
-1375 47 -230 127 -694 133 -770 l6 -76 -34 -25 c-35 -26 -421 -277 -569 -369
-348 -218 -542 -334 -744 -447 -169 -94 -298 -134 -705 -218 -300 -62 -392
-97 -486 -186 -94 -89 -143 -216 -131 -341 20 -217 185 -382 461 -462 48 -14
90 -27 92 -30 5 -4 -15 -12 -202 -76 -77 -26 -185 -58 -240 -70 -438 -97 -524
-123 -623 -188 -190 -125 -251 -407 -131 -611 96 -164 240 -263 467 -322 150
-38 312 -47 532 -29 173 14 260 9 500 -31 85 -14 193 -22 340 -26 254 -6 356
4 805 77 629 103 656 105 1115 105 324 -1 426 -5 645 -25 326 -29 587 -32 730
-6 175 32 332 97 442 184 145 116 229 241 276 412 25 93 29 121 36 254 l6 128
77 27 c234 83 380 247 451 506 19 70 22 105 22 280 0 188 -2 210 -33 359 -19
87 -72 285 -119 440 -164 538 -167 554 -185 1026 -13 325 -2 1081 27 1965 33
1019 39 1834 16 2250 -23 426 -90 985 -138 1149 -4 15 17 7 102 -38 157 -84
481 -248 550 -279 33 -14 91 -40 128 -56 383 -171 796 -303 1617 -517 414
-108 786 -294 1080 -540 97 -81 371 -350 675 -664 439 -452 761 -727 1105
-945 230 -146 578 -298 835 -366 290 -77 516 -104 817 -96 260 6 362 19 708
89 250 51 259 52 430 52 188 0 247 -11 400 -71 387 -152 791 -604 1527 -1708
110 -165 228 -341 264 -392 221 -317 279 -401 279 -406 0 -3 -19 -8 -42 -12
-24 -3 -137 -19 -253 -35 -186 -26 -554 -73 -880 -112 -163 -19 -541 -15 -865
11 -151 12 -336 26 -410 31 -178 14 -750 14 -920 0 -266 -21 -530 -58 -1230
-170 -942 -151 -1443 -205 -1847 -197 -293 5 -314 10 -568 141 -245 127 -343
158 -565 175 -161 13 -226 32 -327 92 -134 81 -188 102 -240 95 -25 -3 -71
-20 -104 -37 -94 -50 -131 -115 -145 -249 -6 -61 -10 -71 -28 -75 -11 -3 -95
-21 -186 -40 -374 -80 -497 -145 -546 -290 -11 -32 -15 -65 -11 -102 5 -45 3
-55 -11 -59 -95 -30 -160 -82 -200 -158 -21 -41 -26 -65 -26 -121 0 -79 13
-112 75 -187 l39 -46 -33 -7 c-156 -34 -240 -106 -272 -233 -33 -126 23 -246
144 -311 33 -17 85 -36 115 -43 31 -6 56 -15 56 -19 0 -5 -11 -16 -25 -25 -60
-39 -100 -161 -84 -251 21 -111 111 -200 228 -227 39 -9 108 -16 154 -16 l84
0 0 -63 c-1 -105 58 -194 157 -238 43 -20 72 -24 190 -27 192 -5 452 23 901
98 255 43 385 74 553 131 245 83 355 97 627 80 350 -23 931 -98 1443 -186 108
-18 316 -54 462 -79 321 -56 822 -129 1020 -150 534 -58 1145 -61 1735 -11 94
8 265 20 382 26 323 19 676 -3 1408 -86 948 -108 1417 -153 2055 -197 253 -17
1153 -17 1320 0 69 7 204 24 300 38 476 68 707 157 1230 474 445 270 693 386
993 464 160 42 235 54 394 65 113 8 310 1 401 -14 269 -45 460 -109 837 -283
366 -167 798 -310 1095 -361 241 -41 303 -46 580 -46 243 0 291 3 410 23 308
54 648 168 817 275 l43 27 -21 53 c-23 60 -94 169 -138 211 l-30 29 -93 -46
c-339 -167 -771 -254 -1133 -227 -454 34 -879 154 -1420 400 -393 180 -655
263 -945 301 -146 19 -472 17 -610 -4 -228 -35 -504 -116 -673 -198 -33 -16
-62 -27 -64 -26 -2 2 6 30 17 62 53 154 67 428 31 614 -40 205 -148 476 -222
556 -69 75 -163 82 -239 19 -42 -36 -62 -79 -62 -134 0 -37 10 -66 50 -141
153 -283 182 -593 84 -879 -110 -319 -409 -580 -837 -729 -476 -167 -997 -223
-1770 -191 -582 24 -1128 73 -2205 196 -385 43 -839 89 -1040 105 -173 13
-666 7 -815 -10 -212 -25 -554 -43 -879 -48 -601 -9 -981 26 -1842 172 -1140
192 -1682 266 -2081 282 -270 10 -410 -14 -678 -119 -126 -50 -200 -74 -375
-122 -30 -8 -127 -26 -215 -40 -88 -14 -245 -40 -350 -57 -230 -38 -517 -52
-455 -23 68 32 217 82 324 110 125 32 165 55 184 106 20 51 8 102 -33 146
l-34 37 -93 -1 c-54 0 -209 -18 -368 -42 -273 -42 -465 -54 -499 -33 -20 13
65 54 154 74 75 18 392 77 567 107 117 20 157 40 178 90 16 39 8 110 -16 143
-40 54 -50 56 -464 67 -374 10 -525 20 -602 41 -45 12 -48 22 -10 38 75 31
196 41 607 52 289 7 428 14 445 22 89 44 91 195 3 240 -15 8 -109 29 -208 46
-306 55 -430 82 -624 138 -70 20 -54 29 75 44 104 11 119 11 479 -23 309 -28
619 -30 692 -5 58 20 88 51 103 105 18 68 -12 122 -170 304 -151 174 -229 309
-230 396 0 38 2 42 18 33 9 -5 62 -60 117 -122 220 -247 255 -277 536 -463 93
-61 139 -100 229 -197 202 -215 315 -276 595 -323 224 -37 297 -41 785 -40
600 0 960 24 1723 114 930 109 1216 115 2247 51 672 -42 751 -38 1723 84 193
25 620 79 947 120 1077 135 1372 186 1788 305 279 81 634 217 687 264 86 77
65 224 -40 283 -50 28 -106 29 -165 2 -245 -112 -609 -227 -977 -308 -176 -39
-656 -114 -993 -156 -69 -8 -135 -17 -146 -20 -18 -4 -39 19 -131 143 -266
358 -397 545 -926 1327 -530 783 -790 1142 -1015 1401 -371 429 -695 645
-1084 724 -106 22 -297 28 -434 15 l-72 -7 -8 108 c-13 165 -10 827 4 1004 38
463 123 1032 196 1310 84 321 100 380 148 530 52 160 133 380 180 485 25 55
58 129 74 165 99 222 290 564 310 556 7 -3 83 -50 170 -105 456 -290 915 -609
1434 -996 142 -106 259 -192 409 -301 259 -188 696 -513 781 -581 163 -130
347 -303 510 -478 147 -159 189 -208 430 -506 214 -264 381 -422 575 -546 109
-69 177 -102 400 -195 235 -98 359 -160 489 -245 358 -232 655 -566 855 -961
87 -173 179 -406 271 -687 40 -121 93 -274 118 -340 107 -285 240 -481 442
-649 186 -156 384 -244 655 -291 89 -16 341 -24 380 -12 17 5 27 -9 70 -96
158 -321 443 -629 702 -761 62 -31 101 -33 151 -7 67 35 102 88 102 156 0 77
-28 113 -150 193 -106 70 -265 228 -350 347 -180 254 -338 631 -405 964 -24
120 -18 279 13 342 29 60 101 130 171 168 142 75 538 196 786 241 277 51 324
85 424 310 23 52 49 100 58 107 21 17 45 6 186 -86 252 -162 395 -231 597
-287 l105 -29 400 -1 c409 -1 504 -8 677 -48 226 -53 480 -163 678 -293 453
-300 766 -818 871 -1443 26 -159 36 -437 20 -590 -32 -303 -91 -519 -206 -757
-90 -187 -207 -361 -324 -481 -22 -23 -41 -46 -41 -51 0 -24 212 -141 254
-141 9 0 16 -9 16 -20 0 -11 -7 -20 -15 -20 -33 0 -144 -53 -207 -100 -37 -27
-87 -75 -112 -106 -44 -57 -102 -162 -93 -170 7 -8 194 122 267 185 185 159
296 284 423 476 174 264 287 549 362 921 24 115 25 140 25 454 0 358 -8 449
-57 650 -78 325 -196 600 -371 868 -337 517 -897 871 -1572 994 -117 21 -152
23 -535 23 -362 0 -418 2 -475 18 -125 34 -223 81 -423 201 -111 67 -229 133
-262 148 -249 109 -435 19 -564 -272 -19 -41 -37 -78 -40 -82 -4 -4 -61 -17
-126 -28 -391 -68 -873 -240 -1029 -367 -111 -90 -189 -214 -226 -359 -45
-177 -16 -473 75 -748 14 -43 24 -80 23 -81 -2 -1 -51 2 -110 6 -134 10 -246
39 -367 95 -117 55 -199 113 -281 200 -138 147 -229 322 -340 659 -147 445
-264 738 -374 933 -215 383 -498 702 -841 948 -189 135 -348 218 -643 335
-212 85 -274 116 -377 188 -145 102 -314 267 -455 448 -227 288 -317 395 -476
563 -233 247 -490 466 -837 716 -89 64 -292 215 -452 334 -1237 922 -1744
1263 -2855 1920 -124 73 -259 153 -300 178 -41 25 -158 96 -260 157 -102 62
-311 190 -465 285 -154 95 -363 223 -465 285 -102 61 -255 155 -340 207 -241
148 -732 428 -1025 586 -654 351 -1276 655 -1885 919 -352 153 -451 194 -760
315 -807 317 -1264 472 -2165 736 -606 178 -1654 424 -2204 518 -448 76 -637
96 -966 99 -220 3 -327 0 -400 -10z m530 -336 c305 -16 535 -49 1070 -155
1102 -217 2128 -500 3255 -899 385 -136 908 -338 1105 -425 11 -5 67 -29 125
-53 664 -280 1111 -490 1727 -810 350 -183 375 -196 813 -442 194 -109 615
-355 685 -401 28 -18 133 -83 235 -145 102 -61 239 -146 305 -187 228 -143
823 -504 1085 -657 292 -171 584 -346 597 -359 10 -9 6 -22 -21 -61 -172 -258
-399 -749 -536 -1165 -200 -605 -311 -1169 -382 -1945 -13 -141 -18 -902 -8
-1135 l5 -115 -80 -17 c-180 -40 -314 -52 -550 -52 -191 0 -252 4 -359 22
-402 69 -750 212 -1131 466 -300 199 -521 402 -1205 1102 -392 401 -609 573
-940 745 -234 122 -470 207 -860 309 -438 115 -602 163 -945 276 -206 68 -603
237 -843 359 -570 288 -1113 637 -1821 1173 -375 284 -437 339 -493 442 -269
492 -526 840 -870 1176 -176 172 -222 210 -270 223 -110 31 -220 -53 -221
-168 -1 -59 19 -96 85 -156 126 -116 367 -366 452 -469 312 -377 602 -900 799
-1441 95 -262 214 -673 273 -945 8 -41 24 -115 35 -165 98 -455 178 -980 243
-1590 28 -259 93 -1138 151 -2045 70 -1088 111 -1617 161 -2115 69 -691 78
-734 274 -1310 122 -359 190 -657 190 -829 0 -158 -55 -310 -143 -398 -148
-148 -381 -181 -982 -139 -810 57 -1197 37 -1950 -103 -405 -75 -589 -79 -970
-22 -268 41 -260 41 -647 20 -299 -17 -558 97 -558 244 0 78 104 128 379 182
496 97 904 276 1646 723 353 212 784 508 969 665 213 181 325 379 377 667 19
108 21 143 16 360 -7 312 -26 447 -142 1030 -157 788 -339 1451 -608 2215 -78
223 -210 578 -265 715 -94 233 -329 841 -388 1005 -25 69 -70 190 -99 270 -58
156 -206 583 -223 640 -5 19 -33 107 -62 195 -219 675 -447 1535 -608 2295
-112 527 -132 684 -132 1040 0 698 195 1267 591 1725 266 307 555 487 929 578
111 27 295 55 395 59 133 6 167 6 340 -3z m1342 -5032 c194 -141 482 -341 698
-483 l150 -99 23 -100 c106 -471 137 -692 174 -1245 19 -276 16 -1531 -5
-2190 -33 -1046 -40 -1427 -34 -1870 9 -649 28 -796 152 -1180 147 -452 189
-646 190 -860 0 -197 -31 -295 -121 -385 -44 -45 -133 -91 -139 -73 -2 7 -16
56 -30 108 -15 52 -67 217 -115 366 -110 335 -156 486 -180 589 -50 216 -132
1072 -190 1970 -11 176 -27 419 -35 540 -8 121 -21 342 -30 490 -16 266 -65
965 -85 1200 -49 577 -75 843 -100 1030 -5 39 -19 140 -31 225 -93 698 -252
1433 -419 1943 -26 81 -46 147 -44 147 2 0 79 -55 171 -123z m-1432 -7014
c-12 -86 -35 -164 -72 -242 -30 -62 -55 -94 -138 -176 -190 -188 -567 -454
-1035 -730 -256 -151 -242 -145 -367 -145 -289 0 -515 42 -638 118 -75 46 -92
88 -55 134 32 41 104 65 346 113 254 51 351 74 463 111 91 31 327 143 466 222
160 91 799 489 945 588 41 29 79 52 84 53 4 0 5 -20 1 -46z m13483 -149 c26
-37 94 -129 151 -206 57 -76 102 -140 100 -142 -2 -1 -101 -15 -219 -30 -118
-15 -406 -51 -640 -81 -847 -108 -891 -109 -1695 -55 -732 50 -1254 37 -2025
-50 -1001 -114 -1490 -147 -2008 -137 -311 6 -432 17 -607 56 -149 32 -172 46
-330 191 -123 114 -295 244 -395 299 -138 76 -147 98 -24 56 89 -31 159 -65
288 -143 95 -58 268 -139 351 -165 110 -34 196 -42 470 -41 442 1 910 55 1870
214 723 120 980 149 1400 157 326 6 555 -3 970 -38 312 -26 654 -34 835 -20
250 20 1091 132 1346 180 54 10 102 19 107 20 4 0 28 -29 55 -65z m-8530 -296
c28 -46 68 -105 89 -132 l37 -48 -70 6 c-38 3 -159 13 -269 21 -266 21 -337
30 -371 46 -51 25 -41 43 33 66 125 39 484 132 494 127 3 -2 28 -40 57 -86z"/>
<path d="M4770 2639 c-65 -26 -97 -92 -81 -170 52 -250 53 -254 48 -369 -5
-152 -34 -220 -126 -300 -71 -62 -91 -93 -91 -145 0 -101 107 -171 197 -129
66 31 178 156 223 248 63 127 75 188 74 356 -1 115 -7 172 -28 275 -15 72 -35
146 -44 165 -32 65 -106 95 -172 69z"/>
</g>
</svg>