<svg id="svg" xmlns="http://www.w3.org/2000/svg" viewBox="0  0  400 218.1818181818182"><g id="svgg"><path id="path1" d="M224.122 20.393 C 221.007 21.707,220.245 23.658,219.913 31.167 C 219.854 32.496,219.695 34.446,219.559 35.500 C 219.424 36.554,219.207 38.392,219.077 39.583 C 218.948 40.775,218.686 42.913,218.497 44.333 C 217.051 55.165,216.581 60.490,216.738 64.250 C 217.062 72.009,217.330 81.246,217.332 84.688 C 217.333 88.860,217.339 88.829,216.517 89.082 C 215.442 89.412,205.036 94.478,198.500 97.853 C 195.796 99.250,192.571 100.835,191.333 101.376 C 188.744 102.508,183.168 104.804,181.333 105.493 C 176.030 107.484,171.455 110.349,168.244 113.690 C 164.561 117.521,162.792 120.385,156.210 133.167 C 155.290 134.954,154.150 137.158,153.677 138.065 C 153.204 138.971,150.838 143.659,148.420 148.481 C 146.001 153.304,143.644 157.813,143.181 158.500 C 142.264 159.863,142.190 159.958,138.690 164.266 C 136.019 167.554,134.484 169.724,132.587 172.893 C 130.561 176.277,129.640 178.186,125.137 188.333 C 123.246 192.594,121.795 195.535,120.449 197.833 C 119.046 200.231,116.206 204.867,115.099 206.569 C 112.002 211.331,112.751 214.342,117.417 215.883 C 119.016 216.412,125.382 216.503,126.971 216.020 C 130.613 214.914,132.511 211.750,132.833 206.250 C 133.036 202.767,133.199 202.517,144.579 188.250 C 145.968 186.508,148.263 183.595,149.678 181.775 C 151.092 179.956,152.766 177.818,153.396 177.025 C 154.026 176.232,155.616 174.196,156.928 172.500 C 158.241 170.804,159.781 168.817,160.351 168.083 C 161.358 166.788,169.633 156.753,170.523 155.750 C 171.834 154.270,177.445 147.442,179.334 145.026 L 181.073 142.801 181.578 143.366 C 182.100 143.949,185.639 148.131,193.805 157.817 C 200.052 165.228,200.378 165.613,202.204 167.762 C 203.066 168.777,204.396 170.384,205.159 171.334 C 209.964 177.313,214.888 183.164,218.415 187.083 C 221.971 191.036,224.547 193.863,225.089 194.409 C 225.275 194.596,226.737 196.137,228.339 197.832 C 229.940 199.527,231.406 201.042,231.597 201.197 C 233.414 202.678,233.833 203.956,233.879 208.161 L 233.917 211.591 234.462 212.699 C 235.136 214.066,236.414 215.281,237.771 215.844 L 238.750 216.250 252.154 216.296 C 263.898 216.335,265.654 216.309,266.335 216.083 C 271.115 214.495,270.573 208.012,265.557 206.761 C 262.052 205.887,259.996 205.042,256.309 202.959 C 255.268 202.371,253.667 201.491,252.750 201.003 C 248.895 198.949,247.747 197.978,245.758 195.083 C 245.128 194.167,244.030 192.615,243.317 191.635 C 242.605 190.655,241.951 189.718,241.863 189.552 C 241.761 189.358,241.784 187.130,241.926 183.333 C 242.403 170.638,242.545 162.628,242.408 156.250 C 242.220 147.498,242.367 142.774,243.008 136.966 C 244.330 124.988,244.304 119.585,242.902 114.674 C 242.060 111.721,242.419 110.719,244.701 109.657 C 246.214 108.954,247.027 108.934,248.470 109.563 C 254.623 112.247,264.250 109.745,268.298 104.411 C 273.189 97.966,270.757 87.622,263.501 84.007 C 260.393 82.458,255.037 82.450,250.866 83.988 C 245.311 86.036,242.117 88.890,240.478 93.270 C 240.112 94.248,239.307 94.667,237.795 94.667 C 236.326 94.667,236.000 94.229,236.000 92.254 C 236.000 89.322,235.439 85.746,234.009 79.561 C 233.521 77.448,233.197 75.365,232.765 71.561 C 231.724 62.384,231.686 61.727,231.590 51.583 C 231.333 24.125,231.348 24.548,230.568 22.899 C 229.440 20.516,226.520 19.381,224.122 20.393 M226.911 24.396 C 227.534 25.019,227.552 25.554,227.761 50.000 C 227.841 59.295,227.917 62.036,228.172 64.750 C 228.344 66.583,228.568 69.021,228.670 70.167 C 228.980 73.667,229.791 78.747,230.585 82.167 C 231.521 86.194,231.943 88.922,232.081 91.833 C 232.350 97.471,234.658 99.416,239.872 98.397 C 242.304 97.922,243.007 97.332,244.075 94.870 C 245.930 90.597,249.367 88.050,254.803 86.920 C 261.296 85.570,266.439 89.424,266.948 96.019 C 267.543 103.730,257.837 109.025,249.214 105.695 C 247.035 104.854,245.005 105.071,242.295 106.436 C 238.722 108.235,237.868 110.762,239.118 115.833 C 240.180 120.145,240.354 123.774,239.777 129.583 C 238.421 143.212,238.210 147.209,238.495 153.799 C 238.662 157.668,238.669 160.280,238.524 165.750 C 238.423 169.600,238.290 175.206,238.229 178.208 C 238.168 181.210,238.055 183.667,237.978 183.667 C 237.835 183.667,235.220 179.826,234.461 178.500 C 234.133 177.928,234.006 177.415,233.923 176.333 C 233.864 175.554,233.710 174.054,233.582 173.000 C 233.453 171.946,233.191 169.583,232.998 167.750 C 232.806 165.917,232.615 164.267,232.574 164.083 C 232.265 162.700,231.667 154.136,231.666 151.091 C 231.664 146.273,230.923 133.196,230.249 126.083 L 230.012 123.583 229.425 123.042 C 228.702 122.375,228.524 122.372,225.848 122.990 C 224.681 123.260,221.969 123.712,219.821 123.995 C 211.817 125.049,207.648 126.192,202.447 128.756 C 199.192 130.361,199.212 130.617,203.021 136.361 C 204.339 138.348,206.159 141.160,207.066 142.611 C 207.973 144.063,208.884 145.512,209.090 145.833 C 209.296 146.154,210.343 147.842,211.416 149.583 C 212.488 151.325,213.539 153.012,213.750 153.333 C 214.286 154.147,218.021 160.103,219.133 161.917 C 221.311 165.467,226.010 172.934,227.421 175.083 C 232.508 182.836,234.975 186.531,236.513 188.701 C 237.468 190.050,239.519 192.997,241.069 195.251 C 245.295 201.394,245.435 201.516,252.917 205.595 C 258.644 208.718,260.356 209.499,263.151 210.265 C 265.446 210.894,265.765 211.085,265.604 211.729 C 265.446 212.356,265.559 212.351,251.887 212.299 C 239.448 212.250,239.354 212.247,238.887 211.899 C 237.839 211.118,237.750 210.746,237.750 207.167 C 237.750 202.220,237.509 201.722,232.657 196.645 C 224.598 188.213,217.602 180.372,212.526 174.083 C 210.824 171.975,207.767 168.262,205.733 165.833 C 197.008 155.414,195.538 153.663,194.180 152.083 C 193.393 151.167,192.413 150.004,192.002 149.500 C 191.048 148.330,186.245 142.642,184.190 140.250 C 181.039 136.580,180.950 136.606,176.203 142.583 C 174.384 144.875,172.037 147.773,170.989 149.023 C 169.941 150.273,168.633 151.843,168.083 152.512 C 167.533 153.182,166.033 154.979,164.750 156.506 C 160.938 161.041,158.666 163.806,157.165 165.733 C 156.387 166.732,154.625 168.992,153.250 170.754 C 151.875 172.517,150.075 174.842,149.250 175.922 C 147.542 178.157,146.931 178.933,136.583 191.995 C 129.465 200.980,128.842 202.125,128.832 206.250 C 128.820 210.876,127.584 212.213,123.235 212.308 C 117.440 212.434,116.120 211.673,118.076 209.333 C 118.414 208.929,122.692 201.918,123.873 199.833 C 125.468 197.017,126.924 194.045,128.732 189.917 C 129.615 187.900,130.444 186.025,130.575 185.750 C 130.705 185.475,131.525 183.733,132.396 181.880 C 135.750 174.746,137.951 171.393,144.689 163.158 C 146.750 160.640,146.889 160.396,151.486 151.228 C 155.976 142.270,159.508 135.356,162.265 130.124 C 163.219 128.314,164.000 126.797,164.000 126.754 C 164.000 126.574,166.593 122.180,167.293 121.175 C 171.799 114.699,175.122 112.242,184.417 108.519 C 192.787 105.167,192.011 105.528,207.417 97.798 C 209.708 96.647,211.996 95.516,212.500 95.283 C 213.004 95.050,214.313 94.439,215.407 93.926 C 216.502 93.413,218.040 92.721,218.824 92.388 C 220.468 91.692,220.793 91.453,221.106 90.714 C 221.447 89.910,221.398 82.226,220.995 73.250 C 220.659 65.752,220.565 60.256,220.746 58.728 C 220.799 58.282,221.030 56.117,221.259 53.917 C 221.488 51.717,222.008 47.329,222.414 44.167 C 223.218 37.913,223.752 32.912,223.910 30.167 C 224.128 26.391,224.468 24.731,225.127 24.231 C 225.601 23.871,226.466 23.951,226.911 24.396 M226.501 127.208 C 226.503 127.571,227.147 136.944,227.414 140.500 C 227.556 142.379,227.712 146.429,227.762 149.500 C 227.813 152.571,227.960 156.283,228.089 157.750 C 228.570 163.187,228.843 165.968,229.085 167.890 C 229.374 170.189,229.388 170.554,229.181 170.425 C 229.007 170.318,225.741 165.132,221.462 158.167 C 219.857 155.554,217.378 151.572,215.954 149.318 C 214.530 147.064,212.468 143.764,211.372 141.985 C 210.277 140.206,208.397 137.231,207.196 135.375 L 205.013 131.999 205.419 131.733 C 207.502 130.368,213.729 128.747,220.083 127.916 C 221.917 127.676,223.904 127.381,224.500 127.260 C 225.939 126.967,226.500 126.953,226.501 127.208 " stroke="none" fill="currentColor" fill-rule="evenodd"></path><path id="path2" d="M225.708 19.948 C 225.869 19.990,226.131 19.990,226.292 19.948 C 226.452 19.906,226.321 19.872,226.000 19.872 C 225.679 19.872,225.548 19.906,225.708 19.948 M227.372 26.500 C 227.372 26.821,227.406 26.952,227.448 26.792 C 227.490 26.631,227.490 26.369,227.448 26.208 C 227.406 26.048,227.372 26.179,227.372 26.500 M231.392 32.083 C 231.392 32.908,231.420 33.267,231.455 32.880 C 231.490 32.493,231.490 31.818,231.456 31.380 C 231.422 30.942,231.393 31.258,231.392 32.083 M227.553 39.333 C 227.553 39.929,227.584 40.173,227.621 39.875 C 227.658 39.577,227.658 39.090,227.621 38.792 C 227.584 38.494,227.553 38.737,227.553 39.333 M231.555 41.750 C 231.555 42.392,231.586 42.634,231.622 42.288 C 231.658 41.942,231.657 41.417,231.620 41.121 C 231.583 40.825,231.554 41.108,231.555 41.750 M227.736 57.167 C 227.736 58.862,227.761 59.556,227.791 58.708 C 227.821 57.860,227.821 56.473,227.791 55.625 C 227.761 54.777,227.736 55.471,227.736 57.167 M231.728 57.083 C 231.728 58.000,231.756 58.354,231.790 57.869 C 231.824 57.385,231.823 56.635,231.789 56.203 C 231.755 55.770,231.727 56.167,231.728 57.083 M220.705 64.833 C 220.705 65.154,220.740 65.285,220.782 65.125 C 220.823 64.965,220.823 64.702,220.782 64.542 C 220.740 64.381,220.705 64.512,220.705 64.833 M216.709 66.750 C 216.711 67.117,216.745 67.247,216.785 67.040 C 216.824 66.832,216.823 66.532,216.781 66.373 C 216.739 66.214,216.707 66.383,216.709 66.750 M220.875 69.083 C 220.877 69.450,220.911 69.580,220.951 69.373 C 220.991 69.166,220.990 68.866,220.948 68.706 C 220.906 68.547,220.874 68.717,220.875 69.083 M217.220 82.000 C 217.220 82.596,217.250 82.840,217.287 82.542 C 217.324 82.244,217.324 81.756,217.287 81.458 C 217.250 81.160,217.220 81.404,217.220 82.000 M221.396 87.750 C 221.396 88.758,221.424 89.149,221.457 88.619 C 221.490 88.088,221.490 87.263,221.456 86.786 C 221.422 86.308,221.395 86.742,221.396 87.750 M257.044 86.786 C 257.297 86.825,257.672 86.824,257.877 86.784 C 258.082 86.744,257.875 86.713,257.417 86.714 C 256.958 86.716,256.791 86.748,257.044 86.786 M236.039 91.500 C 236.039 91.821,236.073 91.952,236.115 91.792 C 236.157 91.631,236.157 91.369,236.115 91.208 C 236.073 91.048,236.039 91.179,236.039 91.500 M253.958 110.787 C 254.256 110.824,254.744 110.824,255.042 110.787 C 255.340 110.750,255.096 110.720,254.500 110.720 C 253.904 110.720,253.660 110.750,253.958 110.787 M238.383 112.333 C 238.383 112.837,238.415 113.044,238.453 112.792 C 238.491 112.540,238.491 112.127,238.453 111.875 C 238.415 111.623,238.383 111.829,238.383 112.333 M231.372 141.333 C 231.372 141.654,231.406 141.785,231.448 141.625 C 231.490 141.465,231.490 141.202,231.448 141.042 C 231.406 140.881,231.372 141.012,231.372 141.333 M227.539 145.167 C 227.539 145.487,227.573 145.619,227.615 145.458 C 227.657 145.298,227.657 145.035,227.615 144.875 C 227.573 144.715,227.539 144.846,227.539 145.167 M238.205 147.167 C 238.205 147.487,238.240 147.619,238.282 147.458 C 238.323 147.298,238.323 147.035,238.282 146.875 C 238.240 146.715,238.205 146.846,238.205 147.167 M238.205 150.500 C 238.205 150.821,238.240 150.952,238.282 150.792 C 238.323 150.631,238.323 150.369,238.282 150.208 C 238.240 150.048,238.205 150.179,238.205 150.500 M242.548 154.750 C 242.549 155.208,242.581 155.376,242.620 155.123 C 242.658 154.869,242.657 154.494,242.617 154.289 C 242.578 154.084,242.546 154.292,242.548 154.750 M242.562 163.833 C 242.562 164.796,242.589 165.190,242.623 164.708 C 242.657 164.227,242.657 163.440,242.623 162.958 C 242.589 162.477,242.562 162.871,242.562 163.833 M238.379 166.500 C 238.379 166.912,238.411 167.081,238.451 166.875 C 238.491 166.669,238.491 166.331,238.451 166.125 C 238.411 165.919,238.379 166.087,238.379 166.500 M242.385 170.750 C 242.386 171.300,242.417 171.505,242.454 171.205 C 242.491 170.906,242.490 170.456,242.452 170.205 C 242.414 169.955,242.384 170.200,242.385 170.750 M238.217 174.000 C 238.217 174.504,238.248 174.710,238.286 174.458 C 238.324 174.206,238.324 173.794,238.286 173.542 C 238.248 173.290,238.217 173.496,238.217 174.000 M242.205 176.500 C 242.205 176.821,242.240 176.952,242.282 176.792 C 242.323 176.631,242.323 176.369,242.282 176.208 C 242.240 176.048,242.205 176.179,242.205 176.500 M238.042 179.417 C 238.044 179.783,238.078 179.914,238.118 179.706 C 238.158 179.499,238.156 179.199,238.115 179.040 C 238.073 178.880,238.040 179.050,238.042 179.417 M242.039 181.500 C 242.039 181.821,242.073 181.952,242.115 181.792 C 242.157 181.631,242.157 181.369,242.115 181.208 C 242.073 181.048,242.039 181.179,242.039 181.500 M241.875 186.250 C 241.877 186.617,241.911 186.747,241.951 186.540 C 241.991 186.332,241.990 186.032,241.948 185.873 C 241.906 185.714,241.874 185.883,241.875 186.250 M237.885 206.250 C 237.886 206.800,237.917 207.005,237.954 206.705 C 237.991 206.406,237.990 205.956,237.952 205.705 C 237.914 205.455,237.884 205.700,237.885 206.250 M121.375 216.457 C 122.085 216.488,123.248 216.488,123.958 216.457 C 124.669 216.426,124.087 216.400,122.667 216.400 C 121.246 216.400,120.665 216.426,121.375 216.457 M244.042 216.458 C 245.852 216.485,248.815 216.485,250.625 216.458 C 252.435 216.431,250.954 216.409,247.333 216.409 C 243.713 216.409,242.231 216.431,244.042 216.458 M257.047 216.456 C 257.485 216.490,258.160 216.490,258.547 216.455 C 258.934 216.420,258.575 216.392,257.750 216.392 C 256.925 216.393,256.609 216.422,257.047 216.456 M259.625 216.451 C 259.831 216.491,260.169 216.491,260.375 216.451 C 260.581 216.411,260.412 216.379,260.000 216.379 C 259.587 216.379,259.419 216.411,259.625 216.451 M261.792 216.457 C 262.365 216.489,263.302 216.489,263.875 216.457 C 264.448 216.424,263.979 216.398,262.833 216.398 C 261.688 216.398,261.219 216.424,261.792 216.457 " stroke="none" fill="currentColor" fill-rule="evenodd"></path><path id="path3" d="M231.399 28.500 C 231.399 29.738,231.425 30.244,231.457 29.625 C 231.489 29.006,231.489 27.994,231.457 27.375 C 231.425 26.756,231.399 27.262,231.399 28.500 M219.881 30.417 C 219.882 30.875,219.915 31.043,219.953 30.789 C 219.991 30.536,219.990 30.161,219.951 29.956 C 219.911 29.751,219.880 29.958,219.881 30.417 M223.872 30.333 C 223.872 30.654,223.906 30.785,223.948 30.625 C 223.990 30.465,223.990 30.202,223.948 30.042 C 223.906 29.881,223.872 30.012,223.872 30.333 M219.705 33.500 C 219.705 33.821,219.740 33.952,219.782 33.792 C 219.823 33.631,219.823 33.369,219.782 33.208 C 219.740 33.048,219.705 33.179,219.705 33.500 M231.395 35.667 C 231.395 36.629,231.423 37.023,231.456 36.542 C 231.490 36.060,231.490 35.273,231.456 34.792 C 231.423 34.310,231.395 34.704,231.395 35.667 M227.564 36.333 C 227.564 37.479,227.591 37.948,227.623 37.375 C 227.656 36.802,227.656 35.865,227.623 35.292 C 227.591 34.719,227.564 35.188,227.564 36.333 M231.566 45.167 C 231.566 46.496,231.592 47.040,231.624 46.375 C 231.655 45.710,231.655 44.623,231.624 43.958 C 231.592 43.294,231.566 43.837,231.566 45.167 M227.737 50.667 C 227.737 52.637,227.762 53.444,227.791 52.458 C 227.821 51.473,227.821 49.860,227.791 48.875 C 227.762 47.890,227.737 48.696,227.737 50.667 M216.875 57.417 C 216.877 57.783,216.911 57.914,216.951 57.706 C 216.991 57.499,216.990 57.199,216.948 57.040 C 216.906 56.880,216.874 57.050,216.875 57.417 M220.709 59.417 C 220.711 59.783,220.745 59.914,220.785 59.706 C 220.824 59.499,220.823 59.199,220.781 59.040 C 220.739 58.880,220.707 59.050,220.709 59.417 M216.709 59.917 C 216.711 60.283,216.745 60.414,216.785 60.206 C 216.824 59.999,216.823 59.699,216.781 59.540 C 216.739 59.380,216.707 59.550,216.709 59.917 M216.714 65.417 C 216.716 65.875,216.748 66.043,216.786 65.789 C 216.825 65.536,216.824 65.161,216.784 64.956 C 216.744 64.751,216.713 64.958,216.714 65.417 M220.721 66.417 C 220.722 67.058,220.752 67.300,220.788 66.955 C 220.824 66.609,220.824 66.084,220.787 65.788 C 220.750 65.492,220.721 65.775,220.721 66.417 M216.889 70.000 C 216.889 70.688,216.919 70.969,216.955 70.625 C 216.991 70.281,216.991 69.719,216.955 69.375 C 216.919 69.031,216.889 69.313,216.889 70.000 M220.883 70.500 C 220.883 71.004,220.915 71.210,220.953 70.958 C 220.991 70.706,220.991 70.294,220.953 70.042 C 220.915 69.790,220.883 69.996,220.883 70.500 M221.050 74.333 C 221.050 74.837,221.081 75.044,221.119 74.792 C 221.158 74.540,221.158 74.127,221.119 73.875 C 221.081 73.623,221.050 73.829,221.050 74.333 M217.050 74.667 C 217.050 75.171,217.081 75.377,217.119 75.125 C 217.158 74.873,217.158 74.460,217.119 74.208 C 217.081 73.956,217.050 74.162,217.050 74.667 M221.214 78.417 C 221.216 78.875,221.248 79.043,221.286 78.789 C 221.325 78.536,221.324 78.161,221.284 77.956 C 221.244 77.751,221.213 77.958,221.214 78.417 M217.221 79.917 C 217.222 80.558,217.252 80.800,217.288 80.455 C 217.324 80.109,217.324 79.584,217.287 79.288 C 217.250 78.992,217.221 79.275,217.221 79.917 M256.795 82.787 C 257.094 82.825,257.544 82.824,257.795 82.786 C 258.045 82.748,257.800 82.717,257.250 82.718 C 256.700 82.719,256.495 82.750,256.795 82.787 M266.833 86.417 C 267.144 86.737,267.436 87.000,267.482 87.000 C 267.528 87.000,267.311 86.737,267.000 86.417 C 266.689 86.096,266.397 85.833,266.351 85.833 C 266.305 85.833,266.522 86.096,266.833 86.417 M255.875 86.782 C 256.035 86.823,256.298 86.823,256.458 86.782 C 256.619 86.740,256.487 86.705,256.167 86.705 C 255.846 86.705,255.715 86.740,255.875 86.782 M235.872 89.667 C 235.872 89.987,235.906 90.119,235.948 89.958 C 235.990 89.798,235.990 89.535,235.948 89.375 C 235.906 89.215,235.872 89.346,235.872 89.667 M232.050 92.667 C 232.050 93.171,232.081 93.377,232.119 93.125 C 232.158 92.873,232.158 92.460,232.119 92.208 C 232.081 91.956,232.050 92.162,232.050 92.667 M236.052 92.917 C 236.053 93.467,236.084 93.672,236.121 93.372 C 236.158 93.072,236.157 92.622,236.119 92.372 C 236.081 92.122,236.051 92.367,236.052 92.917 M266.890 96.750 C 266.891 97.483,266.920 97.763,266.956 97.371 C 266.991 96.979,266.990 96.379,266.954 96.037 C 266.919 95.696,266.890 96.017,266.890 96.750 M270.888 96.583 C 270.889 97.225,270.919 97.467,270.955 97.121 C 270.991 96.775,270.990 96.250,270.954 95.955 C 270.917 95.659,270.887 95.942,270.888 96.583 M237.294 98.785 C 237.501 98.824,237.801 98.823,237.960 98.781 C 238.120 98.739,237.950 98.707,237.583 98.709 C 237.217 98.711,237.086 98.745,237.294 98.785 M264.406 102.875 L 263.917 103.417 264.458 102.927 C 264.963 102.471,265.077 102.333,264.948 102.333 C 264.919 102.333,264.675 102.577,264.406 102.875 M246.542 105.115 C 246.702 105.157,246.965 105.157,247.125 105.115 C 247.285 105.073,247.154 105.039,246.833 105.039 C 246.512 105.039,246.381 105.073,246.542 105.115 M240.075 107.875 L 239.417 108.583 240.125 107.925 C 240.515 107.562,240.833 107.243,240.833 107.216 C 240.833 107.090,240.688 107.216,240.075 107.875 M168.333 113.417 C 167.928 113.829,167.635 114.167,167.681 114.167 C 167.726 114.167,168.095 113.829,168.500 113.417 C 168.905 113.004,169.199 112.667,169.153 112.667 C 169.107 112.667,168.738 113.004,168.333 113.417 M171.167 116.250 C 170.762 116.662,170.468 117.000,170.514 117.000 C 170.560 117.000,170.928 116.662,171.333 116.250 C 171.738 115.837,172.032 115.500,171.986 115.500 C 171.940 115.500,171.572 115.837,171.167 116.250 M240.064 123.333 C 240.064 124.479,240.091 124.948,240.123 124.375 C 240.156 123.802,240.156 122.865,240.123 122.292 C 240.091 121.719,240.064 122.188,240.064 123.333 M244.062 123.083 C 244.063 124.092,244.090 124.483,244.123 123.952 C 244.157 123.422,244.156 122.597,244.123 122.119 C 244.089 121.641,244.062 122.075,244.062 123.083 M243.879 127.167 C 243.879 127.579,243.911 127.748,243.951 127.542 C 243.991 127.335,243.991 126.998,243.951 126.792 C 243.911 126.585,243.879 126.754,243.879 127.167 M239.872 127.333 C 239.872 127.654,239.906 127.785,239.948 127.625 C 239.990 127.465,239.990 127.202,239.948 127.042 C 239.906 126.881,239.872 127.013,239.872 127.333 M230.372 127.500 C 230.372 127.821,230.406 127.952,230.448 127.792 C 230.490 127.631,230.490 127.369,230.448 127.208 C 230.406 127.048,230.372 127.179,230.372 127.500 M226.542 129.083 C 226.544 129.450,226.578 129.580,226.618 129.373 C 226.658 129.166,226.656 128.866,226.615 128.706 C 226.573 128.547,226.540 128.717,226.542 129.083 M243.705 129.500 C 243.705 129.821,243.740 129.952,243.782 129.792 C 243.823 129.631,243.823 129.369,243.782 129.208 C 243.740 129.048,243.705 129.179,243.705 129.500 M226.709 131.583 C 226.711 131.950,226.745 132.080,226.785 131.873 C 226.824 131.666,226.823 131.366,226.781 131.206 C 226.739 131.047,226.707 131.217,226.709 131.583 M226.872 134.167 C 226.872 134.487,226.906 134.619,226.948 134.458 C 226.990 134.298,226.990 134.035,226.948 133.875 C 226.906 133.715,226.872 133.846,226.872 134.167 M231.045 136.667 C 231.045 137.079,231.078 137.248,231.118 137.042 C 231.157 136.835,231.157 136.498,231.118 136.292 C 231.078 136.085,231.045 136.254,231.045 136.667 M239.042 136.583 C 239.044 136.950,239.078 137.080,239.118 136.873 C 239.158 136.666,239.156 136.366,239.115 136.206 C 239.073 136.047,239.040 136.217,239.042 136.583 M180.794 137.785 C 181.001 137.824,181.301 137.823,181.460 137.781 C 181.620 137.739,181.450 137.707,181.083 137.709 C 180.717 137.711,180.586 137.745,180.794 137.785 M227.205 138.667 C 227.205 138.987,227.240 139.119,227.282 138.958 C 227.323 138.798,227.323 138.535,227.282 138.375 C 227.240 138.215,227.205 138.346,227.205 138.667 M231.217 139.333 C 231.217 139.837,231.248 140.044,231.286 139.792 C 231.324 139.540,231.324 139.127,231.286 138.875 C 231.248 138.623,231.217 138.829,231.217 139.333 M242.709 140.417 C 242.711 140.783,242.745 140.914,242.785 140.706 C 242.824 140.499,242.823 140.199,242.781 140.040 C 242.739 139.880,242.707 140.050,242.709 140.417 M238.705 140.833 C 238.705 141.154,238.740 141.285,238.782 141.125 C 238.823 140.965,238.823 140.702,238.782 140.542 C 238.740 140.381,238.705 140.512,238.705 140.833 M227.379 141.167 C 227.379 141.579,227.411 141.748,227.451 141.542 C 227.491 141.335,227.491 140.998,227.451 140.792 C 227.411 140.585,227.379 140.754,227.379 141.167 M231.381 142.583 C 231.382 143.042,231.415 143.209,231.453 142.956 C 231.491 142.703,231.490 142.328,231.451 142.123 C 231.411 141.918,231.380 142.125,231.381 142.583 M242.542 142.750 C 242.544 143.117,242.578 143.247,242.618 143.040 C 242.658 142.832,242.656 142.532,242.615 142.373 C 242.573 142.214,242.540 142.383,242.542 142.750 M227.550 143.833 C 227.550 144.337,227.581 144.544,227.619 144.292 C 227.658 144.040,227.658 143.627,227.619 143.375 C 227.581 143.123,227.550 143.329,227.550 143.833 M242.372 145.167 C 242.372 145.487,242.406 145.619,242.448 145.458 C 242.490 145.298,242.490 145.035,242.448 144.875 C 242.406 144.715,242.372 144.846,242.372 145.167 M231.542 145.750 C 231.544 146.117,231.578 146.247,231.618 146.040 C 231.658 145.832,231.656 145.532,231.615 145.373 C 231.573 145.214,231.540 145.383,231.542 145.750 M227.737 150.667 C 227.737 152.637,227.762 153.444,227.791 152.458 C 227.821 151.473,227.821 149.860,227.791 148.875 C 227.762 147.890,227.737 148.696,227.737 150.667 M238.223 148.833 C 238.223 149.521,238.252 149.802,238.288 149.458 C 238.324 149.115,238.324 148.552,238.288 148.208 C 238.252 147.865,238.223 148.146,238.223 148.833 M242.221 148.750 C 242.222 149.392,242.252 149.634,242.288 149.288 C 242.324 148.942,242.324 148.417,242.287 148.121 C 242.250 147.825,242.221 148.108,242.221 148.750 M242.375 152.250 C 242.377 152.617,242.411 152.747,242.451 152.540 C 242.491 152.332,242.490 152.032,242.448 151.873 C 242.406 151.714,242.374 151.883,242.375 152.250 M231.705 154.833 C 231.705 155.154,231.740 155.285,231.782 155.125 C 231.823 154.965,231.823 154.702,231.782 154.542 C 231.740 154.381,231.705 154.512,231.705 154.833 M238.559 156.917 C 238.559 157.742,238.587 158.100,238.622 157.713 C 238.657 157.327,238.657 156.652,238.623 156.213 C 238.588 155.775,238.560 156.092,238.559 156.917 M242.570 158.833 C 242.570 160.712,242.595 161.481,242.624 160.542 C 242.654 159.602,242.654 158.065,242.624 157.125 C 242.595 156.185,242.570 156.954,242.570 158.833 M238.564 160.917 C 238.564 162.017,238.591 162.445,238.624 161.868 C 238.656 161.292,238.656 160.392,238.623 159.868 C 238.590 159.345,238.563 159.817,238.564 160.917 M228.539 163.500 C 228.539 163.821,228.573 163.952,228.615 163.792 C 228.657 163.631,228.657 163.369,228.615 163.208 C 228.573 163.048,228.539 163.179,228.539 163.500 M238.389 168.333 C 238.389 169.021,238.419 169.302,238.455 168.958 C 238.491 168.615,238.491 168.052,238.455 167.708 C 238.419 167.365,238.389 167.646,238.389 168.333 M242.392 168.500 C 242.392 169.279,242.420 169.598,242.455 169.208 C 242.490 168.819,242.490 168.181,242.455 167.792 C 242.420 167.402,242.392 167.721,242.392 168.500 M242.220 175.000 C 242.220 175.596,242.250 175.840,242.287 175.542 C 242.324 175.244,242.324 174.756,242.287 174.458 C 242.250 174.160,242.220 174.404,242.220 175.000 M238.225 176.167 C 238.225 176.946,238.254 177.265,238.289 176.875 C 238.324 176.485,238.324 175.848,238.289 175.458 C 238.254 175.069,238.225 175.387,238.225 176.167 M242.055 179.917 C 242.055 180.558,242.086 180.800,242.122 180.455 C 242.158 180.109,242.157 179.584,242.120 179.288 C 242.083 178.992,242.054 179.275,242.055 179.917 M238.063 181.833 C 238.063 182.887,238.090 183.319,238.123 182.792 C 238.156 182.265,238.156 181.402,238.123 180.875 C 238.090 180.348,238.063 180.779,238.063 181.833 M241.887 184.667 C 241.887 185.262,241.917 185.506,241.954 185.208 C 241.991 184.910,241.991 184.423,241.954 184.125 C 241.917 183.827,241.887 184.071,241.887 184.667 M216.000 184.552 C 216.000 184.581,216.244 184.825,216.542 185.094 L 217.083 185.583 216.594 185.042 C 216.138 184.537,216.000 184.423,216.000 184.552 M224.083 187.500 C 224.441 187.867,224.772 188.167,224.818 188.167 C 224.863 188.167,224.608 187.867,224.250 187.500 C 223.892 187.133,223.562 186.833,223.516 186.833 C 223.470 186.833,223.725 187.133,224.083 187.500 M218.833 187.719 C 218.833 187.748,219.077 187.991,219.375 188.260 L 219.917 188.750 219.427 188.208 C 218.971 187.703,218.833 187.590,218.833 187.719 M241.709 188.750 C 241.711 189.117,241.745 189.247,241.785 189.040 C 241.824 188.832,241.823 188.532,241.781 188.373 C 241.739 188.214,241.707 188.383,241.709 188.750 M226.000 189.583 C 226.311 189.904,226.603 190.167,226.649 190.167 C 226.695 190.167,226.478 189.904,226.167 189.583 C 225.856 189.262,225.564 189.000,225.518 189.000 C 225.472 189.000,225.689 189.262,226.000 189.583 M220.833 189.917 C 221.144 190.237,221.436 190.500,221.482 190.500 C 221.528 190.500,221.311 190.237,221.000 189.917 C 220.689 189.596,220.397 189.333,220.351 189.333 C 220.305 189.333,220.522 189.596,220.833 189.917 M227.667 191.385 C 227.667 191.414,227.910 191.658,228.208 191.927 L 228.750 192.417 228.260 191.875 C 227.804 191.370,227.667 191.257,227.667 191.385 M230.160 194.042 C 230.850 194.778,231.000 194.910,231.000 194.785 C 231.000 194.758,230.644 194.402,230.208 193.993 L 229.417 193.250 230.160 194.042 M227.083 196.667 C 227.720 197.308,228.279 197.833,228.324 197.833 C 228.370 197.833,227.887 197.308,227.250 196.667 C 226.613 196.025,226.055 195.500,226.009 195.500 C 225.963 195.500,226.447 196.025,227.083 196.667 M233.750 197.833 C 234.294 198.383,234.777 198.833,234.823 198.833 C 234.869 198.833,234.461 198.383,233.917 197.833 C 233.372 197.283,232.890 196.833,232.844 196.833 C 232.798 196.833,233.206 197.283,233.750 197.833 M229.917 199.667 C 230.553 200.308,231.112 200.833,231.158 200.833 C 231.204 200.833,230.720 200.308,230.083 199.667 C 229.447 199.025,228.888 198.500,228.842 198.500 C 228.796 198.500,229.280 199.025,229.917 199.667 M231.333 201.052 C 231.333 201.081,231.577 201.325,231.875 201.594 L 232.417 202.083 231.927 201.542 C 231.471 201.037,231.333 200.923,231.333 201.052 M233.725 209.167 C 233.725 209.946,233.754 210.265,233.789 209.875 C 233.824 209.485,233.824 208.848,233.789 208.458 C 233.754 208.069,233.725 208.387,233.725 209.167 M237.721 209.083 C 237.722 209.725,237.752 209.967,237.788 209.621 C 237.824 209.275,237.824 208.750,237.787 208.455 C 237.750 208.159,237.721 208.442,237.721 209.083 M121.042 212.291 C 121.844 212.321,123.156 212.321,123.958 212.291 C 124.760 212.260,124.104 212.235,122.500 212.235 C 120.896 212.235,120.240 212.260,121.042 212.291 M245.958 212.292 C 249.465 212.317,255.202 212.317,258.708 212.292 C 262.215 212.266,259.346 212.246,252.333 212.246 C 245.321 212.246,242.452 212.266,245.958 212.292 M235.167 214.052 C 235.167 214.081,235.410 214.325,235.708 214.594 L 236.250 215.083 235.760 214.542 C 235.304 214.037,235.167 213.923,235.167 214.052 " stroke="none" fill="currentColor" fill-rule="evenodd"></path><path id="path4" d="M227.406 31.333 C 227.406 33.762,227.429 34.756,227.458 33.542 C 227.486 32.327,227.486 30.340,227.458 29.125 C 227.429 27.910,227.406 28.904,227.406 31.333 M219.712 31.667 C 219.712 32.079,219.745 32.248,219.784 32.042 C 219.824 31.835,219.824 31.498,219.784 31.292 C 219.745 31.085,219.712 31.254,219.712 31.667 M223.879 32.167 C 223.879 32.579,223.911 32.748,223.951 32.542 C 223.991 32.335,223.991 31.998,223.951 31.792 C 223.911 31.585,223.879 31.754,223.879 32.167 M231.563 38.833 C 231.563 39.887,231.590 40.319,231.623 39.792 C 231.656 39.265,231.656 38.402,231.623 37.875 C 231.590 37.348,231.563 37.779,231.563 38.833 M227.570 43.500 C 227.570 45.288,227.594 46.019,227.624 45.125 C 227.654 44.231,227.654 42.769,227.624 41.875 C 227.594 40.981,227.570 41.712,227.570 43.500 M231.731 53.417 C 231.732 54.608,231.758 55.074,231.790 54.451 C 231.823 53.829,231.822 52.854,231.790 52.285 C 231.757 51.716,231.731 52.225,231.731 53.417 M216.705 58.167 C 216.705 58.487,216.740 58.619,216.782 58.458 C 216.823 58.298,216.823 58.035,216.782 57.875 C 216.740 57.715,216.705 57.846,216.705 58.167 M220.879 58.833 C 220.879 59.246,220.911 59.415,220.951 59.208 C 220.991 59.002,220.991 58.665,220.951 58.458 C 220.911 58.252,220.879 58.421,220.879 58.833 M231.720 59.667 C 231.720 60.262,231.750 60.506,231.787 60.208 C 231.824 59.910,231.824 59.423,231.787 59.125 C 231.750 58.827,231.720 59.071,231.720 59.667 M216.566 62.500 C 216.566 63.829,216.592 64.373,216.624 63.708 C 216.655 63.044,216.655 61.956,216.624 61.292 C 216.592 60.627,216.566 61.171,216.566 62.500 M227.712 60.833 C 227.712 61.246,227.745 61.415,227.784 61.208 C 227.824 61.002,227.824 60.665,227.784 60.458 C 227.745 60.252,227.712 60.421,227.712 60.833 M220.730 62.500 C 220.730 63.554,220.757 63.985,220.790 63.458 C 220.823 62.931,220.823 62.069,220.790 61.542 C 220.757 61.015,220.730 61.446,220.730 62.500 M220.885 67.583 C 220.886 68.133,220.917 68.338,220.954 68.039 C 220.991 67.739,220.990 67.289,220.952 67.039 C 220.914 66.788,220.884 67.033,220.885 67.583 M216.721 68.417 C 216.722 69.058,216.752 69.300,216.788 68.955 C 216.824 68.609,216.824 68.084,216.787 67.788 C 216.750 67.492,216.721 67.775,216.721 68.417 M221.052 71.917 C 221.053 72.467,221.084 72.672,221.121 72.372 C 221.158 72.072,221.157 71.622,221.119 71.372 C 221.081 71.122,221.051 71.367,221.052 71.917 M216.881 72.750 C 216.882 73.208,216.915 73.376,216.953 73.123 C 216.991 72.869,216.990 72.494,216.951 72.289 C 216.911 72.084,216.880 72.292,216.881 72.750 M221.217 76.000 C 221.217 76.504,221.248 76.710,221.286 76.458 C 221.324 76.206,221.324 75.794,221.286 75.542 C 221.248 75.290,221.217 75.496,221.217 76.000 M217.045 77.000 C 217.045 77.412,217.078 77.581,217.118 77.375 C 217.157 77.169,217.157 76.831,217.118 76.625 C 217.078 76.419,217.045 76.587,217.045 77.000 M221.402 83.250 C 221.401 84.808,221.426 85.468,221.457 84.717 C 221.488 83.965,221.488 82.690,221.458 81.883 C 221.427 81.077,221.402 81.692,221.402 83.250 M217.235 85.667 C 217.235 87.179,217.260 87.798,217.291 87.042 C 217.322 86.285,217.322 85.048,217.291 84.292 C 217.260 83.535,217.235 84.154,217.235 85.667 M263.333 88.719 C 263.333 88.748,263.577 88.991,263.875 89.260 L 264.417 89.750 263.927 89.208 C 263.471 88.703,263.333 88.590,263.333 88.719 M236.039 90.500 C 236.039 90.821,236.073 90.952,236.115 90.792 C 236.157 90.631,236.157 90.369,236.115 90.208 C 236.073 90.048,236.039 90.179,236.039 90.500 M231.887 91.167 C 231.887 91.763,231.917 92.006,231.954 91.708 C 231.991 91.410,231.991 90.923,231.954 90.625 C 231.917 90.327,231.887 90.571,231.887 91.167 M271.042 96.583 C 271.044 96.950,271.078 97.080,271.118 96.873 C 271.158 96.666,271.156 96.366,271.115 96.206 C 271.073 96.047,271.040 96.217,271.042 96.583 M239.991 107.792 L 239.417 108.417 240.042 107.842 C 240.623 107.308,240.743 107.167,240.616 107.167 C 240.588 107.167,240.307 107.448,239.991 107.792 M238.205 112.167 C 238.205 112.487,238.240 112.619,238.282 112.458 C 238.323 112.298,238.323 112.035,238.282 111.875 C 238.240 111.715,238.205 111.846,238.205 112.167 M171.329 116.292 L 170.250 117.417 171.375 116.338 C 171.994 115.745,172.500 115.239,172.500 115.213 C 172.500 115.090,172.330 115.247,171.329 116.292 M239.875 121.417 C 239.877 121.783,239.911 121.914,239.951 121.706 C 239.991 121.499,239.990 121.199,239.948 121.040 C 239.906 120.880,239.874 121.050,239.875 121.417 M227.877 122.453 C 228.131 122.491,228.506 122.490,228.711 122.451 C 228.916 122.411,228.708 122.380,228.250 122.381 C 227.792 122.382,227.624 122.415,227.877 122.453 M239.881 125.250 C 239.882 125.708,239.915 125.876,239.953 125.623 C 239.991 125.369,239.990 124.994,239.951 124.789 C 239.911 124.584,239.880 124.792,239.881 125.250 M230.372 126.000 C 230.372 126.321,230.406 126.452,230.448 126.292 C 230.490 126.131,230.490 125.869,230.448 125.708 C 230.406 125.548,230.372 125.679,230.372 126.000 M244.042 126.250 C 244.044 126.617,244.078 126.747,244.118 126.540 C 244.158 126.332,244.156 126.032,244.115 125.873 C 244.073 125.714,244.040 125.883,244.042 126.250 M230.539 127.833 C 230.539 128.154,230.573 128.285,230.615 128.125 C 230.657 127.965,230.657 127.702,230.615 127.542 C 230.573 127.381,230.539 127.513,230.539 127.833 M239.705 128.000 C 239.705 128.321,239.740 128.452,239.782 128.292 C 239.823 128.131,239.823 127.869,239.782 127.708 C 239.740 127.548,239.705 127.679,239.705 128.000 M243.872 128.833 C 243.872 129.154,243.906 129.285,243.948 129.125 C 243.990 128.965,243.990 128.702,243.948 128.542 C 243.906 128.381,243.872 128.512,243.872 128.833 M231.039 134.833 C 231.039 135.154,231.073 135.285,231.115 135.125 C 231.157 134.965,231.157 134.702,231.115 134.542 C 231.073 134.381,231.039 134.512,231.039 134.833 M231.209 137.250 C 231.211 137.617,231.245 137.747,231.285 137.540 C 231.324 137.332,231.323 137.032,231.281 136.873 C 231.239 136.714,231.207 136.883,231.209 137.250 M238.872 137.333 C 238.872 137.654,238.906 137.785,238.948 137.625 C 238.990 137.465,238.990 137.202,238.948 137.042 C 238.906 136.881,238.872 137.012,238.872 137.333 M179.324 138.458 L 178.750 139.083 179.375 138.509 C 179.957 137.974,180.077 137.833,179.949 137.833 C 179.922 137.833,179.640 138.115,179.324 138.458 M182.750 138.500 C 183.108 138.867,183.438 139.167,183.484 139.167 C 183.530 139.167,183.275 138.867,182.917 138.500 C 182.559 138.133,182.228 137.833,182.182 137.833 C 182.137 137.833,182.392 138.133,182.750 138.500 M231.383 140.000 C 231.383 140.504,231.415 140.710,231.453 140.458 C 231.491 140.206,231.491 139.794,231.453 139.542 C 231.415 139.290,231.383 139.496,231.383 140.000 M227.209 140.417 C 227.211 140.783,227.245 140.914,227.285 140.706 C 227.324 140.499,227.323 140.199,227.281 140.040 C 227.239 139.880,227.207 140.050,227.209 140.417 M238.542 141.583 C 238.544 141.950,238.578 142.080,238.618 141.873 C 238.658 141.666,238.656 141.366,238.615 141.206 C 238.573 141.047,238.540 141.217,238.542 141.583 M242.705 142.000 C 242.705 142.321,242.740 142.452,242.782 142.292 C 242.823 142.131,242.823 141.869,242.782 141.708 C 242.740 141.548,242.705 141.679,242.705 142.000 M185.500 141.719 C 185.500 141.748,185.744 141.991,186.042 142.260 L 186.583 142.750 186.094 142.208 C 185.638 141.703,185.500 141.590,185.500 141.719 M227.375 143.083 C 227.377 143.450,227.411 143.580,227.451 143.373 C 227.491 143.166,227.490 142.866,227.448 142.706 C 227.406 142.547,227.374 142.717,227.375 143.083 M231.550 143.667 C 231.550 144.171,231.581 144.377,231.619 144.125 C 231.658 143.873,231.658 143.460,231.619 143.208 C 231.581 142.956,231.550 143.162,231.550 143.667 M227.545 146.333 C 227.545 146.746,227.578 146.915,227.618 146.708 C 227.657 146.502,227.657 146.165,227.618 145.958 C 227.578 145.752,227.545 145.921,227.545 146.333 M231.737 150.167 C 231.737 152.046,231.761 152.815,231.791 151.875 C 231.821 150.935,231.821 149.398,231.791 148.458 C 231.761 147.519,231.737 148.287,231.737 150.167 M188.167 151.417 C 188.478 151.737,188.770 152.000,188.815 152.000 C 188.861 152.000,188.644 151.737,188.333 151.417 C 188.022 151.096,187.730 150.833,187.685 150.833 C 187.639 150.833,187.856 151.096,188.167 151.417 M242.550 153.167 C 242.550 153.671,242.581 153.877,242.619 153.625 C 242.658 153.373,242.658 152.960,242.619 152.708 C 242.581 152.456,242.550 152.662,242.550 153.167 M238.379 154.000 C 238.379 154.412,238.411 154.581,238.451 154.375 C 238.491 154.169,238.491 153.831,238.451 153.625 C 238.411 153.419,238.379 153.587,238.379 154.000 M232.372 161.167 C 232.372 161.487,232.406 161.619,232.448 161.458 C 232.490 161.298,232.490 161.035,232.448 160.875 C 232.406 160.715,232.372 160.846,232.372 161.167 M228.205 161.333 C 228.205 161.654,228.240 161.785,228.282 161.625 C 228.323 161.465,228.323 161.202,228.282 161.042 C 228.240 160.881,228.205 161.012,228.205 161.333 M238.388 164.750 C 238.389 165.392,238.419 165.634,238.455 165.288 C 238.491 164.942,238.490 164.417,238.454 164.121 C 238.417 163.825,238.387 164.108,238.388 164.750 M242.555 166.583 C 242.555 167.225,242.586 167.467,242.622 167.121 C 242.658 166.775,242.657 166.250,242.620 165.955 C 242.583 165.659,242.554 165.942,242.555 166.583 M238.225 171.833 C 238.225 172.612,238.254 172.931,238.289 172.542 C 238.324 172.152,238.324 171.515,238.289 171.125 C 238.254 170.735,238.225 171.054,238.225 171.833 M242.379 172.333 C 242.379 172.746,242.411 172.915,242.451 172.708 C 242.491 172.502,242.491 172.165,242.451 171.958 C 242.411 171.752,242.379 171.921,242.379 172.333 M242.217 177.833 C 242.217 178.338,242.248 178.544,242.286 178.292 C 242.324 178.040,242.324 177.627,242.286 177.375 C 242.248 177.123,242.217 177.329,242.217 177.833 M238.050 178.000 C 238.050 178.504,238.081 178.710,238.119 178.458 C 238.158 178.206,238.158 177.794,238.119 177.542 C 238.081 177.290,238.050 177.496,238.050 178.000 M242.057 183.250 C 242.058 183.983,242.087 184.263,242.122 183.871 C 242.157 183.479,242.157 182.879,242.121 182.537 C 242.085 182.196,242.057 182.517,242.057 183.250 M224.167 187.417 C 224.478 187.737,224.770 188.000,224.815 188.000 C 224.861 188.000,224.644 187.737,224.333 187.417 C 224.022 187.096,223.730 186.833,223.685 186.833 C 223.639 186.833,223.856 187.096,224.167 187.417 M241.887 187.833 C 241.887 188.429,241.917 188.673,241.954 188.375 C 241.991 188.077,241.991 187.590,241.954 187.292 C 241.917 186.994,241.887 187.237,241.887 187.833 M225.667 189.052 C 225.667 189.081,225.910 189.325,226.208 189.594 L 226.750 190.083 226.260 189.542 C 225.804 189.037,225.667 188.923,225.667 189.052 M227.833 191.417 C 228.144 191.737,228.436 192.000,228.482 192.000 C 228.528 192.000,228.311 191.737,228.000 191.417 C 227.689 191.096,227.397 190.833,227.351 190.833 C 227.305 190.833,227.522 191.096,227.833 191.417 M222.833 192.250 C 223.144 192.571,223.436 192.833,223.482 192.833 C 223.528 192.833,223.311 192.571,223.000 192.250 C 222.689 191.929,222.397 191.667,222.351 191.667 C 222.305 191.667,222.522 191.929,222.833 192.250 M229.833 193.583 C 230.144 193.904,230.436 194.167,230.482 194.167 C 230.528 194.167,230.311 193.904,230.000 193.583 C 229.689 193.262,229.397 193.000,229.351 193.000 C 229.305 193.000,229.522 193.262,229.833 193.583 M224.826 194.375 C 225.517 195.111,225.667 195.243,225.667 195.118 C 225.667 195.091,225.310 194.735,224.875 194.326 L 224.083 193.583 224.826 194.375 M233.083 197.000 C 233.628 197.550,234.110 198.000,234.156 198.000 C 234.202 198.000,233.794 197.550,233.250 197.000 C 232.706 196.450,232.223 196.000,232.177 196.000 C 232.131 196.000,232.539 196.450,233.083 197.000 M227.417 197.167 C 227.961 197.717,228.444 198.167,228.490 198.167 C 228.535 198.167,228.128 197.717,227.583 197.167 C 227.039 196.617,226.556 196.167,226.510 196.167 C 226.465 196.167,226.872 196.617,227.417 197.167 M231.167 201.083 C 231.757 201.679,232.278 202.167,232.324 202.167 C 232.370 202.167,231.924 201.679,231.333 201.083 C 230.743 200.487,230.222 200.000,230.176 200.000 C 230.130 200.000,230.576 200.487,231.167 201.083 M128.714 205.917 C 128.716 206.375,128.748 206.543,128.786 206.289 C 128.825 206.036,128.824 205.661,128.784 205.456 C 128.744 205.251,128.713 205.458,128.714 205.917 M132.888 206.250 C 132.889 206.892,132.919 207.134,132.955 206.788 C 132.991 206.442,132.990 205.917,132.954 205.621 C 132.917 205.325,132.887 205.608,132.888 206.250 M237.872 207.667 C 237.872 207.987,237.906 208.119,237.948 207.958 C 237.990 207.798,237.990 207.535,237.948 207.375 C 237.906 207.215,237.872 207.346,237.872 207.667 M113.039 211.167 C 113.039 211.487,113.073 211.619,113.115 211.458 C 113.157 211.298,113.157 211.035,113.115 210.875 C 113.073 210.715,113.039 210.846,113.039 211.167 M269.717 211.500 C 269.717 212.004,269.748 212.210,269.786 211.958 C 269.824 211.706,269.824 211.294,269.786 211.042 C 269.748 210.790,269.717 210.996,269.717 211.500 M114.000 214.052 C 114.000 214.081,114.244 214.325,114.542 214.594 L 115.083 215.083 114.594 214.542 C 114.138 214.037,114.000 213.923,114.000 214.052 " stroke="none" fill="currentColor" fill-rule="evenodd"></path></g></svg>