<svg viewBox="0 0 2816 1536" xmlns="http://www.w3.org/2000/svg">
<g fill="#4FD1C5">
<path d="M0 0 C448.47 0 896.94 0 1359 0 C1359 506.88 1359 1013.76 1359 1536 C1255.05 1536 1151.1 1536 1044 1536 C1047.21955234 1533.85363177 1049.93120333 1533.00607692 1053.625 1531.875 C1077.65135968 1524.10964757 1101.86954602 1509.2181982 1115 1487 C1115.64066406 1485.96746094 1116.28132813 1484.93492188 1116.94140625 1483.87109375 C1140.06862739 1445.79962107 1137.78194401 1403.0624532 1128.20825195 1361.03491211 C1125.72930079 1350.09273145 1123.63495181 1339.07575095 1121.5 1328.0625 C1118.02591788 1310.13205632 1118.02591788 1310.13205632 1114.3125 1292.25 C1112.17091114 1282.24435071 1110.42290988 1272.17756939 1108.67929077 1262.09701538 C1106.79646728 1251.23367353 1104.69542224 1240.439943 1102.3996582 1229.6550293 C1099.58452959 1216.2948333 1097.15479039 1202.86296911 1094.71533203 1189.42993164 C1094.46739395 1188.07538124 1094.46739395 1188.07538124 1094.21444702 1186.69346619 C1093.90435074 1184.99907414 1093.59704301 1183.3041683 1093.29312134 1181.60865784 C1092.44330337 1176.97663658 1091.31392006 1172.52745502 1090 1168 C1089.66489594 1166.23708886 1089.3647542 1164.46705303 1089.10546875 1162.69140625 C1088.95730713 1161.70986572 1088.80914551 1160.7283252 1088.65649414 1159.71704102 C1088.50172607 1158.67604248 1088.34695801 1157.63504395 1088.1875 1156.5625 C1086.71490115 1147.01404316 1084.95826642 1137.57246719 1082.93310547 1128.12695312 C1081.05973861 1119.37978201 1079.35863866 1110.6048268 1077.69946289 1101.81469727 C1076.72508361 1096.67495814 1075.70173356 1091.55853111 1074.54321289 1086.45727539 C1073.8809076 1083.46127416 1073.27085309 1080.45616562 1072.66015625 1077.44921875 C1069.27823259 1060.93633233 1065.51644111 1044.54262128 1061.4375 1028.1875 C1061.2122464 1027.27817719 1060.9869928 1026.36885437 1060.75491333 1025.43197632 C1056.04694441 1006.47349511 1050.43141197 987.83969531 1044.25 969.3125 C1043.99299316 968.54207367 1043.73598633 967.77164734 1043.47119141 966.97787476 C1033.93862267 938.50781075 1022.41960524 910.83010193 1007 885 C1006.45472656 884.0821875 1005.90945313 883.164375 1005.34765625 882.21875 C998.73289796 871.47987591 991.01769745 861.40367239 983.50390625 851.28515625 C975.93919152 841.0944199 968.63876231 830.7668363 961.52734375 820.25488281 C954.60716784 810.03833155 947.57685133 799.90522203 940.36279297 789.89404297 C938.88480248 787.83989567 937.41307275 785.78133836 935.94140625 783.72265625 C928.96915423 773.99194164 921.81897792 764.41853247 914.50048828 754.94580078 C913.08695422 753.11276035 911.68060578 751.27450426 910.27734375 749.43359375 C904.98970437 742.50395548 899.55472229 735.7169411 894 729 C892.90319396 727.66443346 891.80687459 726.32846717 890.7109375 724.9921875 C875.60590063 706.57502253 875.60590063 706.57502253 859.890625 688.6796875 C856.07181355 684.4789949 852.35863513 680.24681369 848.8125 675.8125 C844.45669433 670.42324307 839.77561487 665.38697599 835.02172852 660.34814453 C832.03202448 657.17913144 829.0806046 654.00105136 826.25 650.6875 C822.84869369 646.72789846 819.12837185 643.11303145 815.4140625 639.44921875 C812.73628549 636.73244499 810.27061499 633.89447745 807.83953857 630.95753479 C806.08693827 628.95242674 806.08693827 628.95242674 803.95831299 627.60166931 C800.38208887 625.14859059 798.31828729 623.27582266 797.2479248 618.98538208 C796.94655104 615.18961085 796.89168915 611.43241439 796.921875 607.62890625 C796.90342516 606.20063935 796.88107221 604.77241821 796.85507202 603.3442688 C796.80612135 600.3182825 796.77948933 597.29330544 796.77105713 594.26693726 C796.74846503 587.1751748 796.60131693 580.08553981 796.4601326 572.99531746 C796.42940084 571.42979545 796.40002163 569.86424631 796.3719902 568.29867363 C796.1460317 555.70131721 795.52289074 543.2163361 794.125 530.6875 C793.99489029 529.51474518 793.99489029 529.51474518 793.8621521 528.31829834 C793.36304243 523.90097853 792.82241742 519.48987042 792.26104736 515.08007812 C791.91355776 512.3112108 791.58987329 509.53978605 791.2665863 506.76800537 C790.34274329 498.85473816 789.33455883 490.95426953 788.27539062 483.05786133 C787.98716939 480.90412307 787.70246786 478.749936 787.41796875 476.59570312 C785.14239257 459.44155525 782.62362602 442.45782582 778.60742188 425.60791016 C777.99739485 422.98881504 777.43755268 420.36340973 776.890625 417.73046875 C770.61573738 387.92884844 761.17301742 355.19753202 747.03857422 328.00048828 C745.74539893 325.50959069 744.48640028 323.00204792 743.22265625 320.49609375 C737.68519072 309.60899352 731.99027086 299.02742302 725 289 C724.58427734 288.40316406 724.16855469 287.80632812 723.74023438 287.19140625 C713.91944674 273.1949652 702.68881603 260.45315647 691 248 C690.38769531 247.34515625 689.77539062 246.6903125 689.14453125 246.015625 C684.16919107 240.86301617 678.58457454 236.46921957 673 232 C672.24203125 231.37480469 671.4840625 230.74960938 670.703125 230.10546875 C658.15132476 219.82597717 644.78218511 210.5438754 631 202 C630.22817383 201.52095215 629.45634766 201.0419043 628.66113281 200.54833984 C625.13752944 198.36327024 621.61217583 196.18107229 618.08398438 194.00341797 C611.48949361 189.93194449 604.92448795 185.81665431 598.3828125 181.66088867 C593.95514802 178.85190575 589.50896293 176.07730501 585.0390625 173.3359375 C573.2293842 166.07451846 561.9029098 158.56057283 551 150 C548.91799851 148.39410515 546.83469576 146.78989573 544.75 145.1875 C543.70585938 144.38183594 542.66171875 143.57617188 541.5859375 142.74609375 C522.05131932 127.73970081 502.24091304 113.04099373 482 99 C480.50339844 97.95972656 480.50339844 97.95972656 478.9765625 96.8984375 C463.46713808 86.34160239 447.0581115 77.2092536 430.53222656 68.36230469 C428.24965631 67.13431182 425.97857448 65.88809243 423.7109375 64.6328125 C404.78518213 54.24260478 384.74368285 46.26075406 364.47827148 38.90429688 C362.23955636 38.08741176 360.00941384 37.25138779 357.78125 36.40625 C354.07179548 35.01019337 350.32636172 33.74267181 346.5625 32.5 C345.34691406 32.0978125 344.13132812 31.695625 342.87890625 31.28125 C342.24871582 31.07435547 341.61852539 30.86746094 340.96923828 30.65429688 C339.63646274 30.21147039 338.30674137 29.759362 336.97998047 29.29882812 C330.40525086 27.03674913 323.72879446 25.24311784 317 23.5 C315.80463623 23.19030273 314.60927246 22.88060547 313.37768555 22.56152344 C305.55292876 20.56874897 297.76290833 18.86432676 289.7890625 17.609375 C286.06062963 17.00975074 282.38551577 16.26295904 278.6875 15.5 C241.67991462 8.40614584 203.12403896 8.98904476 165.58827209 8.00239182 C139.42777555 7.31366638 113.33259351 6.10821824 87.20877075 4.53761292 C76.39338096 3.8924047 65.57350123 3.36336615 54.75 2.875 C53.40956635 2.81436371 53.40956635 2.81436371 52.04205322 2.75250244 C34.70032888 1.97614972 17.35355647 1.43016676 0 1 C0 0.67 0 0.34 0 0 Z " transform="translate(1457,0)"/>
<path d="M0 0 C455.73 0 911.46 0 1381 0 C1381 0.33 1381 0.66 1381 1 C1379.95473145 1.0501123 1378.90946289 1.10022461 1377.83251953 1.15185547 C1352.33936797 2.3661048 1352.33936797 2.3661048 1326.875 4.0625 C1325.82973145 4.14161621 1324.78446289 4.22073242 1323.70751953 4.30224609 C1318.61401363 4.69285864 1318.61401363 4.69285864 1313.57495117 5.49291992 C1310.7126589 6.05658552 1307.90294749 6.33122985 1304.99609375 6.578125 C1274.52636644 9.2798439 1244.4152625 13.66824686 1214.33544922 19.20556641 C1211.18762113 19.78463632 1208.03794383 20.35250129 1204.88720703 20.91552734 C1192.69896028 23.09931199 1180.55002853 25.43841078 1168.42041016 27.92724609 C1165.60535997 28.50402406 1162.78906597 29.07443345 1159.97265625 29.64453125 C1150.10558484 31.65401893 1140.31770112 33.83344269 1130.56451416 36.34588623 C1125.50569847 37.6362051 1120.43653818 38.88538854 1115.36956406 40.14320755 C1111.24612821 41.1675755 1107.12371824 42.19606384 1103.00112724 43.22382545 C1099.4764851 44.10237517 1095.95163587 44.98007329 1092.42626953 45.85571289 C1078.07783736 49.42031991 1063.74103611 53.01634317 1049.4609375 56.84765625 C1047.88996811 57.26806938 1047.88996811 57.26806938 1046.28726196 57.69697571 C1039.60417906 59.50723953 1033.06487991 61.56090124 1026.5234375 63.83203125 C1022.58893346 65.13626263 1018.62611651 66.23520843 1014.625 67.3125 C1002.95902178 70.48284805 991.48339886 74.22895582 980 78 C978.92138702 78.35405914 978.92138702 78.35405914 977.82098389 78.715271 C973.03369814 80.28797657 968.24869776 81.86746121 963.46575928 83.45333862 C961.88144136 83.97852744 960.29685249 84.50289967 958.7119751 85.02639771 C951.16922322 87.52047698 943.66189129 90.02882569 936.31420898 93.06152344 C931.01257112 95.21148609 925.59537327 97.069446 920.2109375 99 C914.94296009 100.89943974 909.72011784 102.87704624 904.52880859 104.97705078 C901.90574771 106.03812677 899.27599106 107.08103386 896.64453125 108.12109375 C857.64855878 123.58651903 818.67523049 139.80552709 781.2734375 158.84838867 C775.9002609 161.57747746 770.47011351 164.18021732 765.03369141 166.78076172 C744.06845821 176.81338709 723.23816365 187.18716586 703.09570312 198.79980469 C700.63947685 200.20646922 698.17193764 201.5921082 695.703125 202.9765625 C683.28482059 209.94537309 670.95788679 217.05253693 658.73730469 224.36279297 C656.93216883 225.44246127 655.12555783 226.51966758 653.31738281 227.59423828 C636.10854688 237.83252535 619.39893617 248.79836937 602.715271 259.86279297 C601.1697656 260.88744715 599.62327341 261.91061254 598.07666016 262.93359375 C576.33265682 277.31610808 554.83439002 292.07272075 534.15234375 307.953125 C519.89767777 318.89540597 505.44058552 329.54062305 490.84887695 340.02856445 C484.22586506 344.80433682 477.70297519 349.708675 471.18212891 354.62255859 C465.93702931 358.56787898 460.64800511 362.4356473 455.29150391 366.2277832 C447.89443128 371.4737432 440.61167761 376.8759095 433.32666016 382.27587891 C431.83517652 383.38111054 430.34274776 384.48506856 428.84912109 385.58740234 C415.88586527 395.15823168 403.12991209 405.01363691 391.2578125 415.92578125 C389.78974175 417.274476 388.30597312 418.60634733 386.8046875 419.91796875 C374.25522203 430.91470374 362.1509101 442.73800547 352 456 C350.84564453 457.39412109 350.84564453 457.39412109 349.66796875 458.81640625 C317.62341222 498.32961532 310.51924943 546.09539464 310.91080093 595.32223892 C310.94842533 600.08058974 310.96686499 604.83891482 310.9826355 609.59738159 C311.02720503 622.28619049 311.08907886 634.97488945 311.17502391 647.66348809 C311.24780694 658.4240531 311.30092282 669.18451002 311.3203125 679.9453125 C311.32262493 681.17058132 311.32262493 681.17058132 311.32498407 682.42060304 C311.36981245 713.47154308 309.91822477 744.3004518 307.7178545 775.26744461 C306.86002123 787.52297195 306.32020519 799.78578982 305.875 812.0625 C305.84841686 812.78590387 305.82183372 813.50930775 305.79444504 814.25463295 C305.65533969 818.11201429 305.53862259 821.96967919 305.43359375 825.828125 C305.39962997 827.03809143 305.3656662 828.24805786 305.33067322 829.49468994 C305.21624493 833.66302708 305.10685424 837.8314632 305 842 C304.96944393 843.18875229 304.96944393 843.18875229 304.93827057 844.40151978 C303.47767365 901.50997049 302.71322644 958.61797329 302.34155273 1015.7434082 C302.20718307 1035.91838288 302.06309954 1056.08872973 301.53125 1076.2578125 C301.50246419 1077.37368114 301.50246419 1077.37368114 301.47309685 1078.51209259 C301.07931529 1093.38821492 300.24684044 1108.23365394 299.25732422 1123.08105469 C299.01206104 1126.81631514 298.78702636 1130.55227758 298.56640625 1134.2890625 C297.59930884 1149.97110373 295.7997362 1165.44537562 293.56201172 1180.99414062 C293.0717394 1184.44143087 292.62334797 1187.89299768 292.18547058 1191.34729004 C288.77386973 1218.21655385 284.68298298 1246.30555556 273 1271 C272.69094727 1271.66080566 272.38189453 1272.32161133 272.06347656 1273.00244141 C267.80972367 1281.92236689 262.70361822 1289.69002435 256 1297 C255.24074219 1297.82886719 254.48148438 1298.65773438 253.69921875 1299.51171875 C226.9845259 1327.36320704 189.23399266 1346.22502106 155.90234375 1364.7109375 C152.311116 1366.70305903 148.73890195 1368.7201276 145.19140625 1370.7890625 C137.29488703 1375.3654346 129.30329881 1379.35999396 120.875 1382.875 C119.60619995 1383.41120972 119.60619995 1383.41120972 118.31176758 1383.95825195 C104.19492681 1389.63851995 89.23676582 1391.9763801 74.28173828 1394.27905273 C55.08917307 1397.25925159 37.11436587 1402.1832392 22 1415 C21.01902344 1415.76441406 20.03804687 1416.52882813 19.02734375 1417.31640625 C15.90206118 1419.93146873 13.60889844 1422.94393708 11.4375 1426.375 C10.86225586 1427.27714233 10.86225586 1427.27714233 10.27539062 1428.19750977 C5.06056908 1436.74659644 2.21743033 1446.07033387 1 1456 C0.67 1456 0.34 1456 0 1456 C0 975.52 0 495.04 0 0 Z " transform="translate(0,0)"/>
<path d="M0 0 C0.07516846 1.24366333 0.07516846 1.24366333 0.15185547 2.51245117 C0.346605 5.70550442 0.54464191 8.89833527 0.74462891 12.09106445 C0.8698997 14.10548451 0.99166494 16.12012163 1.11328125 18.13476562 C2.29013803 37.1419182 4.38834928 55.96921497 7.125 74.8125 C7.34926666 76.37049316 7.34926666 76.37049316 7.57806396 77.95996094 C11.94483192 108.23407619 16.60115307 138.53456161 22.87109375 168.48046875 C23.90008686 173.4138162 24.78927083 178.36532136 25.66479492 183.32788086 C28.61456557 199.94726035 32.44566933 216.33161178 36.31097412 232.75683594 C37.56354757 238.09323096 38.77849413 243.43670943 39.9609375 248.7890625 C40.11294617 249.47619827 40.26495483 250.16333405 40.42156982 250.87129211 C40.57055725 251.54484238 40.71954468 252.21839264 40.87304688 252.91235352 C43.10123826 262.98550725 45.40634139 272.94975942 48.49780273 282.79614258 C50.06903039 287.89301889 50.74681426 292.68309945 51 298 C50.06800781 298.60585938 49.13601563 299.21171875 48.17578125 299.8359375 C36.59518755 307.42227387 25.66213092 315.39279532 15.4609375 324.78515625 C12.87302408 327.11427833 10.20781137 329.31175468 7.5 331.5 C3.9052235 334.4081338 0.41739372 337.38541332 -3 340.5 C-7.30690627 344.42528167 -11.77260333 348.10460993 -16.3046875 351.765625 C-18.82505788 353.85497552 -21.22684135 356.02255772 -23.625 358.25 C-52.48393353 384.39066664 -87.29900215 404.16883587 -125 414 C-125.68094727 414.18014648 -126.36189453 414.36029297 -127.06347656 414.54589844 C-135.38861219 416.71852704 -143.74478712 418.38843988 -152.25 419.6875 C-153.02899658 419.80689941 -153.80799316 419.92629883 -154.6105957 420.04931641 C-195.30689623 425.91094093 -236.72625526 420.9157078 -275.75683594 408.68896484 C-319.65535117 395.20598596 -359.30392219 404.81895613 -400.3125 422.5 C-400.93830963 422.7690918 -401.56411926 423.03818359 -402.20889282 423.31542969 C-410.19347626 426.75954902 -418.02143162 430.44212593 -425.77709961 434.37011719 C-433.25893218 438.15382405 -440.8572159 441.70171595 -448.43017578 445.29833984 C-450.93890677 446.49419917 -453.44518117 447.69428605 -455.94873047 448.90087891 C-490.56689687 465.5846976 -525.69828161 480.36255025 -561.90380859 493.2532959 C-563.9015921 493.96494519 -565.89820626 494.67977906 -567.89453125 495.39550781 C-580.28517878 499.82406631 -592.66659255 504.00112361 -605.40283203 507.31494141 C-608.40910934 508.10791134 -611.40535393 508.93434501 -614.40234375 509.76171875 C-633.52988134 515.00471343 -652.79642536 519.49803902 -672.13330078 523.89306641 C-701.83343855 530.45390505 -701.83343855 530.45390505 -731 539 C-732.19036865 539.39952881 -732.19036865 539.39952881 -733.40478516 539.80712891 C-753.981799 546.81598268 -774.60880312 556.46879709 -791 571 C-791.70640625 571.62390625 -792.4128125 572.2478125 -793.140625 572.890625 C-804.62054439 583.66948061 -811.94398779 598.48617515 -812.58276367 614.25439453 C-812.8165215 630.14181939 -810.03508003 645.32449555 -807.10986328 660.88720703 C-806.7539109 662.78151526 -806.39827803 664.67588355 -806.04296875 666.5703125 C-805.78024925 667.97077065 -805.78024925 667.97077065 -805.51222229 669.39952087 C-803.73262533 679.09204955 -802.50135442 688.84031299 -801.30111694 698.61853027 C-800.93030406 701.55121032 -800.49697402 704.47245492 -800.05078125 707.39453125 C-797.87659221 722.68331743 -797.70383371 737.89731083 -797.6875 753.3125 C-797.68225815 754.89679306 -797.68225815 754.89679306 -797.6769104 756.51309204 C-797.63963795 776.83249258 -799.30642631 796.78180775 -802.25 816.875 C-802.40757278 817.96622665 -802.40757278 817.96622665 -802.56832886 819.07949829 C-809.87284098 869.45785844 -809.87284098 869.45785844 -816.38354492 886.65429688 C-818.00800934 890.95559708 -819.43026581 895.30575826 -820.8203125 899.6875 C-821.35633771 901.3614408 -821.89272851 903.03526457 -822.42944336 904.70898438 C-822.70625946 905.57354248 -822.98307556 906.43810059 -823.26828003 907.32885742 C-828.1098357 922.42420471 -833.13893027 937.37795573 -838.8996582 952.15136719 C-840.48089897 956.24498095 -842.01605383 960.35564406 -843.55371094 964.46575928 C-845.25951883 969.02527132 -846.97154371 973.58237494 -848.68916321 978.13745117 C-849.95326908 981.49046225 -851.2150777 984.84433608 -852.47680664 988.19824219 C-853.11468523 989.89255147 -853.7533508 991.5865647 -854.39282227 993.28027344 C-857.9554187 1002.71846128 -861.45324837 1012.17428611 -864.7890625 1021.6953125 C-865.06910629 1022.49443054 -865.34915009 1023.29354858 -865.63768005 1024.11688232 C-868.03012647 1030.9950362 -870.27412522 1037.91811697 -872.4140625 1044.87890625 C-873.53702726 1048.51751133 -874.68122986 1052.14868996 -875.8359375 1055.77734375 C-889.21557483 1098.09815552 -899.8188862 1141.73278019 -904 1186 C-904.08433289 1186.87054016 -904.16866577 1187.74108032 -904.2555542 1188.63800049 C-905.78381663 1204.73983313 -906.33066357 1220.70575698 -906.25 1236.875 C-906.24656586 1238.01119781 -906.24313171 1239.14739563 -906.23959351 1240.31802368 C-906.12768176 1271.96738635 -903.49032546 1302.83940114 -896.68481445 1333.79956055 C-893.91750062 1346.73243649 -892.72771783 1359.65736348 -892.6875 1372.875 C-892.68210205 1373.96200195 -892.6767041 1375.04900391 -892.67114258 1376.16894531 C-892.7809254 1388.4302541 -896.16258408 1399.80848566 -904.00390625 1409.46875 C-919.56158455 1424.36744745 -941.45012115 1424.59764853 -961.6484375 1424.2265625 C-973.76638216 1423.86770024 -985.55118259 1422.35424843 -997.44970703 1420.10839844 C-1005.54069227 1418.62845439 -1013.70059845 1417.99817802 -1021.88867188 1417.30297852 C-1024.28275368 1417.06984484 -1026.6622693 1416.80302572 -1029.04882812 1416.50756836 C-1039.61045048 1415.21367552 -1049.98684008 1414.63688745 -1060.625 1414.6875 C-1061.41248627 1414.68899048 -1062.19997253 1414.69048096 -1063.01132202 1414.6920166 C-1085.7989255 1414.76850327 -1108.16434093 1417.07032302 -1130.6015625 1421.0859375 C-1136.53224894 1422.13002751 -1142.48065059 1422.81934447 -1148.47216797 1423.40454102 C-1152.1459266 1423.73508889 -1152.1459266 1423.73508889 -1155.74951172 1424.47973633 C-1158.96493645 1425.2230722 -1162.21051812 1425.44893897 -1165.4921875 1425.71875 C-1166.22538712 1425.78132492 -1166.95858673 1425.84389984 -1167.71400452 1425.90837097 C-1170.10064921 1426.11013563 -1172.48771781 1426.30593015 -1174.875 1426.5 C-1175.69420929 1426.56692047 -1176.51341858 1426.63384094 -1177.35745239 1426.70278931 C-1196.76548625 1428.27894022 -1216.0280236 1429.0812175 -1235.5 1429.125 C-1236.3236203 1429.12776947 -1237.1472406 1429.13053894 -1237.99581909 1429.13339233 C-1240.36184207 1429.13921859 -1242.72772657 1429.13738711 -1245.09375 1429.1328125 C-1245.80221573 1429.13478134 -1246.51068146 1429.13675018 -1247.24061584 1429.13877869 C-1251.26949604 1429.1201622 -1255.04287706 1428.7328793 -1259 1428 C-1261.45710998 1427.85290029 -1263.91572086 1427.72975631 -1266.375 1427.625 C-1278.58678298 1426.95955045 -1293.831733 1425.94441654 -1303.5625 1417.875 C-1306.37712676 1414.20374771 -1306.22613421 1411.59806231 -1306 1407 C-1305.26292228 1403.04658314 -1304.76446796 1400.7436228 -1301.86010742 1397.91845703 C-1298.54571698 1395.69528332 -1295.81012264 1394.8942633 -1291.92578125 1393.9921875 C-1291.2332576 1393.82935272 -1290.54073395 1393.66651794 -1289.82722473 1393.49874878 C-1280.1605608 1391.27239267 -1270.39443791 1389.46856085 -1260.64428711 1387.65087891 C-1243.5016153 1384.44044302 -1227.15479564 1380.00642874 -1211.375 1372.4375 C-1209.73905884 1371.6655127 -1209.73905884 1371.6655127 -1208.07006836 1370.87792969 C-1187.91977554 1361.28324232 -1168.54779014 1350.60503863 -1149.45947266 1339.06860352 C-1147.00389507 1337.59190315 -1144.53308003 1336.1445427 -1142.05224609 1334.71069336 C-1132.12127979 1328.96149291 -1122.47624193 1322.86956024 -1112.94091797 1316.48608398 C-1110.61021469 1314.92761351 -1108.27224463 1313.38049585 -1105.93359375 1311.83398438 C-1093.78971875 1303.75882976 -1082.68317756 1294.95284904 -1072 1285 C-1071.19949219 1284.26523438 -1070.39898438 1283.53046875 -1069.57421875 1282.7734375 C-1046.11357789 1260.39789805 -1033.00300113 1230.27095388 -1025.55078125 1199.26611328 C-1024.87896774 1196.50202951 -1024.15774611 1193.75180986 -1023.4375 1191 C-1019.69347309 1175.79251992 -1017.27761039 1160.50992703 -1015.39477539 1144.9753418 C-1014.59945944 1138.43788643 -1013.67102084 1131.98370976 -1012.44189453 1125.5144043 C-1008.17961213 1101.26178194 -1007.86225118 1075.73729323 -1006.62231445 1051.19311523 C-1006.44055384 1047.62249158 -1006.24889232 1044.05249395 -1006.05664062 1040.48242188 C-1003.66167806 994.66376278 -1003.74806747 948.76744647 -1003.48697662 902.89958191 C-1003.10844384 836.45367839 -1003.10844384 836.45367839 -1002.53125 814.73828125 C-1002.50303917 813.64936112 -1002.50303917 813.64936112 -1002.47425842 812.53844261 C-1002.26011331 804.55274517 -1001.87517571 796.59163107 -1001.35011292 788.6217041 C-1001.00479985 783.31585736 -1000.80947887 778.02251139 -1000.71875 772.70703125 C-1000.69113586 771.3888868 -1000.69113586 771.3888868 -1000.66296387 770.04411316 C-1000.58618816 766.37821583 -1000.51699174 762.71218892 -1000.44775391 759.04614258 C-1000.27164186 749.92951662 -1000.05745802 740.87023469 -999.26757812 731.78295898 C-998.89151261 726.46622983 -998.69828464 721.14628182 -998.5 715.8203125 C-998.45879028 714.7153392 -998.41758057 713.61036591 -998.37512207 712.47190857 C-998.20508443 707.849228 -998.03909611 703.22641072 -997.875 698.60351562 C-997.75311657 695.19649274 -997.62676746 691.78965664 -997.5 688.3828125 C-997.46455078 687.34416046 -997.42910156 686.30550842 -997.39257812 685.23538208 C-997.35583984 684.25681244 -997.31910156 683.2782428 -997.28125 682.27001953 C-997.25095703 681.41876495 -997.22066406 680.56751038 -997.18945312 679.69046021 C-997 677 -997 677 -996.49050903 673.65802002 C-995.97542798 669.81675174 -995.85926002 666.06758005 -995.87060547 662.20166016 C-995.86885315 661.45385284 -995.86710083 660.70604553 -995.86529541 659.93557739 C-995.86090913 657.47004849 -995.86381133 655.00459211 -995.8671875 652.5390625 C-995.86651172 650.78966254 -995.86553942 649.04026268 -995.86428833 647.29086304 C-995.86281416 643.61072909 -995.86495017 639.9306194 -995.86962891 636.25048828 C-995.87521786 631.6398006 -995.87202518 627.02917204 -995.86617947 622.4184866 C-995.84464342 602.27021864 -996.04514517 582.15634378 -996.76733398 562.02026367 C-998.62530127 509.54722271 -993.70925867 463.03899044 -956.9375 423.1875 C-954.97866051 421.10481666 -952.99567003 419.04736789 -951 417 C-950.51611816 416.50097168 -950.03223633 416.00194336 -949.53369141 415.48779297 C-943.91726102 409.71645263 -938.13881454 404.21220102 -932 399 C-930.93794321 398.07520418 -929.87682845 397.14932593 -928.81640625 396.22265625 C-922.54716175 390.76372821 -916.20594141 385.51987971 -909.50390625 380.59375 C-905.82678638 377.88995312 -902.21103401 375.10770584 -898.58935547 372.33032227 C-888.90925383 364.91134889 -879.12235943 357.66981655 -869.20166016 350.57666016 C-865.45906758 347.89650238 -861.73020618 345.19735641 -858 342.5 C-853.49394289 339.24203753 -848.98557977 335.98757467 -844.46484375 332.75 C-835.66245071 326.43709601 -826.99091821 319.98439454 -818.40625 313.37890625 C-793.68102002 294.37194358 -768.56248491 275.89912038 -742.5480957 258.69384766 C-737.90545164 255.6210129 -733.29154941 252.52221488 -728.7421875 249.3125 C-724.75910485 246.50739538 -720.71362599 243.86038309 -716.5625 241.3125 C-715.16242316 240.4458571 -713.76269797 239.57864593 -712.36328125 238.7109375 C-711.64479004 238.26588867 -710.92629883 237.82083984 -710.18603516 237.36230469 C-708.02639197 236.01644709 -705.87680625 234.65602557 -703.73046875 233.2890625 C-694.11601959 227.1660422 -684.42640216 221.17252968 -674.6875 215.25 C-674.10979858 214.89791473 -673.53209717 214.54582947 -672.93688965 214.18307495 C-665.4243058 209.60754194 -657.8536482 205.1609345 -650.20385742 200.82006836 C-647.00117833 199.0006694 -643.81207293 197.15906948 -640.625 195.3125 C-630.19039233 189.34818648 -619.58399321 183.69336892 -609 178 C-608.22317871 177.58121582 -607.44635742 177.16243164 -606.64599609 176.73095703 C-599.51550239 172.888404 -592.35433532 169.12332905 -585.09375 165.53125 C-582.36965341 164.18295977 -579.65526607 162.81670541 -576.94213867 161.4465332 C-564.32759169 155.09420191 -551.59735822 148.97489843 -538.85406494 142.88598633 C-537.07854348 142.03753291 -535.30366105 141.18774261 -533.52880859 140.33789062 C-513.63942902 130.84831885 -493.40412408 122.30839986 -473 114 C-472.30829712 113.71815857 -471.61659424 113.43631714 -470.90393066 113.14593506 C-454.68595275 106.54336481 -438.38813089 100.17819513 -421.96484375 94.10302734 C-418.81551 92.93136316 -415.67287089 91.74296445 -412.53125 90.55078125 C-411.4592334 90.14496826 -410.3872168 89.73915527 -409.28271484 89.32104492 C-407.2508876 88.55145147 -405.21989243 87.77965576 -403.18994141 87.00512695 C-398.03899214 85.06041737 -392.88965483 83.34846667 -387.60183716 81.81877136 C-385.10171837 81.03200973 -382.721776 80.11434907 -380.30126953 79.11157227 C-375.34422979 77.10576023 -370.33536508 75.37138274 -365.25 73.72265625 C-364.35240967 73.42942978 -363.45481934 73.13620331 -362.5300293 72.83409119 C-360.64149386 72.21821056 -358.75240692 71.60401868 -356.86279297 70.99145508 C-354.03305319 70.07322551 -351.20589981 69.14734795 -348.37890625 68.22070312 C-338.32672507 64.94213441 -328.25021836 61.88606958 -318.04638672 59.11669922 C-314.40448449 58.12392033 -310.79835707 57.03674809 -307.1953125 55.91015625 C-300.79829384 53.91395889 -294.35324963 52.14950241 -287.875 50.4375 C-286.61002686 50.10234375 -285.34505371 49.7671875 -284.04174805 49.421875 C-279.69648619 48.2736314 -275.34851752 47.13584302 -271 46 C-270.18505066 45.786922 -269.37010132 45.57384399 -268.53045654 45.35430908 C-248.66039516 40.163186 -228.77446727 35.06505502 -208.75 30.5 C-208.05041168 30.34023682 -207.35082336 30.18047363 -206.6300354 30.01586914 C-197.84334387 28.01661954 -189.03319714 26.15762042 -180.18933105 24.42816162 C-177.74332046 23.94980187 -175.29795161 23.46822374 -172.85253906 22.98681641 C-150.95297646 18.68539565 -129.09732561 14.45129742 -106.97998047 11.42382812 C-101.70335667 10.67335959 -96.44715225 9.79757145 -91.1875 8.9375 C-73.94986941 6.16367429 -56.71296852 3.88901611 -39.34646606 2.08886719 C-37.60390063 1.9077487 -35.8615975 1.72408441 -34.11959839 1.53759766 C-22.70225609 0.32318386 -11.48143192 -0.24172411 0 0 Z " transform="translate(1360,56)"/>
<path d="M0 0 C36.95809023 -0.23021806 73.83033036 -0.45874505 110.69921875 2.5390625 C118.44188378 3.15005729 126.19047094 3.33080065 133.953125 3.51757812 C140.95806273 3.72337729 147.90659526 4.13651588 154.89016724 4.70654297 C171.26221477 6.03155762 187.59700375 6.48335112 204.01126099 6.83370972 C231.080942 7.41758234 258.05074864 8.22677195 285 11 C286.63437012 11.155896 286.63437012 11.155896 288.30175781 11.31494141 C342.24553786 16.53834071 392.94482315 33.27536549 441 58 C441.9075 58.46341797 442.815 58.92683594 443.75 59.40429688 C464.60867816 70.0669238 464.60867816 70.0669238 472.171875 75.1171875 C475.26161681 77.17417031 478.40287335 79.13433869 481.55322266 81.09667969 C498.82656094 91.88605283 515.24616148 103.55501332 531.37255859 115.98583984 C535.63809082 119.25573771 539.94388236 122.47134886 544.25 125.6875 C549.80849656 129.83991187 555.34065703 134.02134137 560.83105469 138.26342773 C568.03700478 143.82524671 575.3371489 149.07661817 583 154 C584.27153645 154.83486761 585.54232255 155.67087874 586.8125 156.5078125 C594.31660568 161.43277148 601.90291474 166.17431709 609.625 170.75 C620.11403209 176.97100329 630.2899712 183.64006426 640.47216797 190.34765625 C643.21872791 192.14297378 645.98959865 193.895116 648.76928711 195.63842773 C656.59551613 200.56002968 663.94431005 206.04757544 671.27294922 211.67529297 C672.7294923 212.79251134 674.19394654 213.89940466 675.66015625 215.00390625 C689.96764173 225.87961391 703.01444952 238.78820979 714 253 C714.71414063 253.8971875 715.42828125 254.794375 716.1640625 255.71875 C730.40134813 274.03101844 742.85863833 295.68324478 749.9375 317.8046875 C750.8300344 320.48885345 751.81719175 323.06603043 752.8828125 325.68359375 C771.97321384 372.9239486 783.5793249 431.90354384 783 483 C780.87710076 480.29054558 779.15819655 477.58861902 777.57421875 474.53515625 C767.79873583 455.9867601 756.75046467 438.68632167 743.30371094 422.58007812 C742.12632444 421.15310332 740.98649463 419.69534218 739.8515625 418.234375 C728.48018188 403.25819643 728.48018188 403.25819643 714 392 C714 391.34 714 390.68 714 390 C713.4534375 389.76539063 712.906875 389.53078125 712.34375 389.2890625 C709.37595789 387.65677684 707.05758655 385.59570015 704.5 383.375 C698.63784319 378.39920201 692.52907164 374.07488159 686 370 C685.3802832 369.608125 684.76056641 369.21625 684.12207031 368.8125 C673.21877297 361.96113987 662.05938589 356.51114025 650 352 C649.24525391 351.71640625 648.49050781 351.4328125 647.71289062 351.140625 C610.80557151 337.61538446 568.94694319 337.48115364 533.05712891 353.88818359 C525.70105008 357.42107622 519.1766251 361.6883242 513 367 C512.18917969 367.68964844 511.37835937 368.37929688 510.54296875 369.08984375 C489.32878029 387.63189172 474.89701531 413.51014433 472.69726562 441.90820312 C470.54916223 480.07312868 480.8075706 518.67019789 498.78515625 552.34375 C499.18605469 553.2203125 499.58695313 554.096875 500 555 C499.67 555.66 499.34 556.32 499 557 C485.42299767 544.00074245 474.4497804 528.85934646 464.140625 513.20703125 C445.34983608 485.05513763 423.71843911 459.04394862 401 434 C400.15050781 433.05640625 399.30101562 432.1128125 398.42578125 431.140625 C392.21363047 424.28923207 385.77895701 417.67482236 379.25 411.125 C378.45803223 410.32843994 377.66606445 409.53187988 376.85009766 408.71118164 C372.64198377 404.51406993 368.35403456 400.48053282 363.84912109 396.60400391 C361.05957905 394.18424008 358.38050462 391.65094056 355.6875 389.125 C350.84867182 384.62412396 345.88806047 380.34394743 340.734375 376.203125 C337.85254067 373.88118991 335.01946047 371.50744293 332.1875 369.125 C325.57098777 363.60410687 318.81925857 358.26778704 312 353 C311.05898437 352.27296875 310.11796875 351.5459375 309.1484375 350.796875 C293.67647732 339.02946866 277.60875788 328.09504318 261 318 C260.24428711 317.54028809 259.48857422 317.08057617 258.70996094 316.60693359 C238.58996742 304.46169554 217.69460329 294.46785111 195.75561523 286.06640625 C193.05713262 285.02210997 190.37817063 283.93701451 187.69921875 282.84375 C175.56348692 277.97982574 162.52505432 275.69206869 149.68994141 273.47021484 C147.97137277 273.16980069 146.25461909 272.85867803 144.54052734 272.53369141 C131.498348 270.08314989 118.5439875 269.68726582 105.3125 269.625 C104.09061981 269.61321716 104.09061981 269.61321716 102.84405518 269.60119629 C86.81332693 269.48089215 71.47650088 271.55930207 55.99601746 275.72702026 C53.22142631 276.4736 50.89187391 277 48 277 C45.73924304 270.55046523 43.90467438 264.06036972 42.2578125 257.4296875 C42.00756317 256.43156036 41.75731384 255.43343323 41.4994812 254.40505981 C40.97171487 252.29602663 40.44571349 250.18655108 39.92138672 248.07666016 C39.13900099 244.93128723 38.34924101 241.78783622 37.55859375 238.64453125 C32.75222302 219.44215452 28.46296801 200.16636272 24.9375 180.6875 C23.41596405 172.381984 21.876258 164.09505509 19.9375 155.875 C17.4307109 145.10964011 15.78901647 134.18351133 14.02731323 123.27702332 C13.21275169 118.25322488 12.35754574 113.23724985 11.48828125 108.22265625 C8.2279023 89.33110011 5.52937577 70.44840494 3.38623047 51.39794922 C3.05608609 48.49343 2.70959924 45.59209626 2.34765625 42.69140625 C0.88706028 30.97869667 -0.07635441 19.33766221 -0.0234375 7.53515625 C-0.02174561 6.80558716 -0.02005371 6.07601807 -0.01831055 5.32434082 C-0.01394811 3.54955541 -0.00722487 1.77477606 0 0 Z " transform="translate(1414,54)"/>
<path d="M0 0 C7.16436454 5.319808 13.55224569 11.63769017 19.99853516 17.78857422 C21.32769298 19.05430831 22.66793075 20.30840292 24.01171875 21.55859375 C48.27472902 44.72101387 64.83859297 77.29042212 78.85351562 107.26098633 C85.56320281 121.60546241 93.18752025 134.92681696 102.59375 147.6796875 C103.02292725 148.26484131 103.45210449 148.84999512 103.89428711 149.45288086 C113.98860698 162.72662891 126.42634537 174.26625075 138.21875 185.9921875 C139.77692925 187.54533565 141.33487336 189.09871973 142.89257812 190.65234375 C146.28805371 194.0381076 149.6857168 197.42165721 153.08546448 200.8031311 C153.6038237 201.31926971 154.12218292 201.83540833 154.65625 202.3671875 C155.21871933 202.88807953 155.78118866 203.40897156 156.36070251 203.94564819 C157.65625 205.3671875 157.65625 205.3671875 157.65625 207.3671875 C158.64625 207.6971875 159.63625 208.0271875 160.65625 208.3671875 C160.65625 209.0271875 160.65625 209.6871875 160.65625 210.3671875 C161.31625 210.3671875 161.97625 210.3671875 162.65625 210.3671875 C164.1015625 211.8359375 164.1015625 211.8359375 165.78125 213.8671875 C169.03518881 217.7171109 172.50397718 221.22783085 176.15234375 224.703125 C177.65625 226.3671875 177.65625 226.3671875 177.65625 228.3671875 C178.31625 228.3671875 178.97625 228.3671875 179.65625 228.3671875 C181.06640625 229.765625 181.06640625 229.765625 182.71875 231.7421875 C185.43548786 234.94265095 188.19960219 238.08024813 191.03125 241.1796875 C194.88330299 245.4467765 198.52562849 249.84822 202.140625 254.31640625 C205.08550258 257.88775623 208.11351311 261.37924693 211.15625 264.8671875 C215.69591558 270.07554681 220.14669763 275.33833184 224.4921875 280.7109375 C226.78297347 283.52273255 229.12505386 286.28689396 231.46875 289.0546875 C236.94955394 295.61979268 242.04416155 302.44934218 247.1328125 309.3203125 C248.60853342 311.303076 250.0979938 313.27450822 251.59375 315.2421875 C257.70814806 323.29758345 263.59222019 331.48743852 269.36572266 339.79052734 C273.32511597 345.48126827 277.33821798 351.12861652 281.40625 356.7421875 C281.94266113 357.48275391 282.47907227 358.22332031 283.03173828 358.98632812 C284.07678792 360.42852874 285.12202977 361.87059009 286.16748047 363.3125 C291.38000927 370.50643939 296.58685364 377.69263679 301.46875 385.1171875 C308.05534955 395.09079861 315.03490383 404.88167936 322.46875 414.2421875 C326.53438873 419.39398952 330.09964303 424.85604876 333.65625 430.3671875 C334.05247559 430.98013672 334.44870117 431.59308594 334.85693359 432.22460938 C350.45287221 456.45107328 361.2918998 482.14814291 370.65625 509.3671875 C370.95547363 510.23311523 371.25469727 511.09904297 371.56298828 511.99121094 C372.37235034 514.34325906 373.17356027 516.69781339 373.96875 519.0546875 C374.18692383 519.69962158 374.40509766 520.34455566 374.62988281 521.0090332 C376.46234413 526.54488486 378.04446238 532.14880363 379.63208008 537.7590332 C380.56481265 541.04505338 381.51974901 544.32364412 382.48046875 547.6015625 C388.17923089 567.36771745 392.45787834 587.36773336 396.63964844 607.50048828 C397.78260585 612.99186325 398.9712597 618.47265834 400.16430664 623.95336914 C403.8627247 640.97047335 407.37103329 658.03902228 410.09375 675.2421875 C411.25592076 682.52996666 412.76894659 689.72074733 414.34375 696.9296875 C416.89336865 708.63372804 419.29378697 720.36157564 421.59375 732.1171875 C421.76179138 732.97574341 421.92983276 733.83429932 422.10296631 734.71887207 C425.05074916 749.83362601 427.7544291 764.98708047 430.31030273 780.17285156 C431.58354057 787.68067502 432.98420808 795.05640515 434.92163086 802.42749023 C436.37159454 808.22975435 437.41963307 814.11755707 438.53125 819.9921875 C438.79254077 821.35822064 439.05418436 822.72418633 439.31616211 824.09008789 C440.10007966 828.18171777 440.87857205 832.27436787 441.65625 836.3671875 C442.50842131 840.84673746 443.36227625 845.32595812 444.21875 849.8046875 C444.41952148 850.8568042 444.62029297 851.9089209 444.82714844 852.99291992 C446.41959608 861.27890456 448.15777839 869.5302521 449.91552734 877.7824707 C451.41358295 884.92423859 452.65451389 892.07995511 453.66845703 899.30639648 C454.11581597 902.40675495 454.63628589 905.30785192 455.63671875 908.28125 C462.443935 928.88546777 462.04174991 954.72007358 453.16796875 974.51953125 C444.68459473 990.49984045 431.489075 1001.06112892 414.65625 1007.3671875 C403.02146429 1010.86021877 391.63424564 1010.77659404 379.60595703 1010.70776367 C377.51524874 1010.70691589 375.42453956 1010.70739549 373.33383179 1010.70909119 C367.69839723 1010.70994665 362.06315696 1010.69239395 356.42776728 1010.67136931 C350.52345947 1010.65252727 344.61914647 1010.65084616 338.71481323 1010.64729309 C327.55212395 1010.63799465 316.38952355 1010.61341081 305.22687328 1010.58324462 C292.51096269 1010.54963188 279.79504771 1010.53319735 267.07910371 1010.51815832 C240.93810333 1010.4868592 214.79718166 1010.43414176 188.65625 1010.3671875 C188.65625 1009.7071875 188.65625 1009.0471875 188.65625 1008.3671875 C223.09215485 989.39821453 260.34195866 976.28612833 298.52539062 967.12304688 C301.65329938 966.36789984 304.77208083 965.58191271 307.890625 964.7890625 C317.74223353 962.31803198 327.52678238 960.17397397 337.5612793 958.57958984 C355.63214883 955.6773462 370.58357289 951.00182813 382.453125 936.11328125 C392.61514618 921.65000853 393.51452828 905.0785572 391.33984375 887.86230469 C390.45927212 882.93153103 389.10636192 878.15634181 387.65625 873.3671875 C387.2770904 872.05383347 386.89949311 870.74002742 386.5234375 869.42578125 C385.72155279 866.64870303 384.89562914 863.87994937 384.05859375 861.11328125 C383.01725267 857.63991445 382.04389804 854.15280099 381.09765625 850.65234375 C376.93899631 835.30659537 372.0657153 820.31675 366.65625 805.3671875 C366.35799316 804.5426709 366.05973633 803.7181543 365.75244141 802.86865234 C362.99892896 795.30421856 360.08819344 787.81255413 356.94067383 780.40258789 C355.72472067 777.52900005 354.53284064 774.64650219 353.34375 771.76171875 C344.87067881 751.42947161 334.98460222 731.8086303 324.65625 712.3671875 C324.34604919 711.7828595 324.03584839 711.19853149 323.71624756 710.59649658 C318.06463316 699.9536101 312.40180134 689.31515468 306.5703125 678.76953125 C280.6533403 631.89905356 261.0030701 583.440868 244.390625 532.578125 C242.92519249 528.12564729 241.33963336 523.74106507 239.65625 519.3671875 C239.11822754 517.93850342 239.11822754 517.93850342 238.56933594 516.48095703 C223.85841603 477.51167159 203.43310723 443.29280462 176.65625 411.3671875 C176.14707031 410.75891113 175.63789063 410.15063477 175.11328125 409.52392578 C169.16593307 402.44329435 163.05331443 395.54104488 156.74291992 388.78198242 C154.21893398 386.07684314 151.7590328 383.34732122 149.40625 380.4921875 C146.72677515 377.2784126 143.63329792 374.67606943 140.390625 372.04296875 C138.65625 370.3671875 138.65625 370.3671875 137.671875 368.28515625 C136.82896339 366.24301352 136.82896339 366.24301352 134.921875 365.50390625 C131.44189595 363.75791676 129.08875846 360.96138964 126.40625 358.1796875 C122.33057295 354.02776095 118.24464922 349.99991215 113.8046875 346.234375 C111.47886996 344.21302812 109.23079931 342.12161634 106.98022461 340.01733398 C101.85946558 335.23212117 96.68032236 330.64833336 91.1484375 326.3359375 C88.44686822 324.20178246 85.83779902 321.9767224 83.21875 319.7421875 C71.33790307 309.80826646 58.67349836 300.74815562 45.65625 292.3671875 C44.63273437 291.69945312 43.60921875 291.03171875 42.5546875 290.34375 C37.26250354 286.91064705 31.94634468 283.53309962 26.5546875 280.2578125 C16.44798187 274.10855733 6.81661984 267.86432651 -2.34375 260.3671875 C-3.27058594 259.63113281 -4.19742188 258.89507813 -5.15234375 258.13671875 C-15.40595606 249.91928477 -24.85289425 240.94072779 -34.15625 231.6796875 C-34.86152832 230.97908203 -35.56680664 230.27847656 -36.29345703 229.55664062 C-50.61398738 215.19219263 -62.92050523 199.08648142 -74.34375 182.3671875 C-74.77252441 181.74521484 -75.20129883 181.12324219 -75.64306641 180.48242188 C-82.51106564 170.50332349 -88.76550076 160.18603918 -94.92382812 149.75732422 C-96.1884307 147.62863453 -97.47147505 145.51314323 -98.765625 143.40234375 C-114.03098673 118.3132464 -128.84658797 90.88580383 -136.34375 62.3671875 C-136.82134766 60.55347656 -136.82134766 60.55347656 -137.30859375 58.703125 C-141.49244372 40.07824451 -142.05018083 19.48376431 -132.21875 2.6796875 C-121.51796049 -12.88509724 -107.18074574 -21.04617449 -89.0012207 -25.16333008 C-56.3467724 -30.93223261 -26.16287871 -18.2268055 0 0 Z " transform="translate(2079.34375,474.6328125)"/>
<path d="M0 0 C3.63401577 1.71122564 6.12637103 3.79933887 9.0625 6.5625 C26.1657973 22.38098919 45.11991135 35.91447153 65 48 C67.20941413 49.35241124 69.41711166 50.70759709 71.625 52.0625 C72.63175781 52.67996094 73.63851562 53.29742188 74.67578125 53.93359375 C78.74416244 56.46258746 82.78362476 59.03363514 86.8125 61.625 C87.50617676 62.06851807 88.19985352 62.51203613 88.91455078 62.96899414 C96.33678687 67.76603341 103.22412669 73.06239994 109.875 78.875 C113.89498038 82.35966174 117.93348043 85.78365002 122.125 89.0625 C126.95603377 92.87647403 131.44577724 96.99724111 135.9453125 101.19140625 C138.160866 103.25136015 140.42760216 105.2389051 142.7199707 107.21289062 C146.81717021 110.79281095 150.69507731 114.55005644 154.53515625 118.40234375 C155.21750839 119.08373917 155.89986053 119.76513458 156.60289001 120.46717834 C158.03344437 121.89705741 159.46275767 123.32817911 160.89086914 124.76049805 C163.05699074 126.93197711 165.22840174 129.09806325 167.40039062 131.26367188 C168.79979987 132.66374202 170.19889884 134.06412238 171.59765625 135.46484375 C172.23639175 136.10155502 172.87512726 136.7382663 173.53321838 137.39427185 C177.88570271 141.7690896 181.97672486 146.32226863 186 151 C186.9609926 152.09484578 187.92301467 153.18879015 188.88671875 154.28125 C195.82595107 162.22595543 202.25826562 170.45432049 208.49023438 178.96240234 C210.04715677 181.06364333 211.63658794 183.13673376 213.234375 185.20703125 C214.26047781 186.55464094 215.28652167 187.90229553 216.3125 189.25 C216.79920166 189.8699585 217.28590332 190.48991699 217.78735352 191.12866211 C220.97663742 195.36675122 220.97663742 195.36675122 221.07421875 198.01171875 C219.4428301 201.03127083 217.52549849 203.80062765 215.5 206.5625 C215.05148682 207.18092773 214.60297363 207.79935547 214.14086914 208.43652344 C209.97095391 214.13538311 205.5830194 219.62736625 201 225 C200.30519531 225.83015625 199.61039063 226.6603125 198.89453125 227.515625 C174.35959319 255.93861335 137.57844892 272.46702049 100.53393555 275.82128906 C58.92229686 278.75603417 20.11595448 265.32717902 -11.36328125 238.13671875 C-38.79751305 213.81962457 -58.18926603 177.52655426 -61.75 140.8125 C-61.86106173 138.54285382 -61.94003246 136.27157046 -62 134 C-62.03109863 133.20029785 -62.06219727 132.4005957 -62.09423828 131.57666016 C-63.34488072 97.0551581 -53.76603937 65.24776604 -34 37 C-33.27167969 35.95199219 -32.54335937 34.90398438 -31.79296875 33.82421875 C-22.68455093 21.31950578 -11.04126104 10.7698573 0 0 Z " transform="translate(2018,756)"/>
<path d="M0 0 C3.52768395 0.01065912 7.05485161 0.00008431 10.58251953 -0.01269531 C28.14645973 -0.02368358 45.37997777 1.02664931 62.74267578 3.69824219 C63.65364014 3.8377832 64.56460449 3.97732422 65.50317383 4.12109375 C66.22545166 4.23420898 66.94772949 4.34732422 67.69189453 4.46386719 C94.61600582 8.5926075 123.13570776 11.5770929 149.86743164 4.56103516 C152.17376858 4.2252801 153.7265802 4.55730217 155.93017578 5.26074219 C155.12580078 5.73511719 154.32142578 6.20949219 153.49267578 6.69824219 C151.0826409 8.02974372 151.0826409 8.02974372 149.93017578 9.26074219 C151.58017578 9.59074219 153.23017578 9.92074219 154.93017578 10.26074219 C154.93017578 10.59074219 154.93017578 10.92074219 154.93017578 11.26074219 C68.80017578 11.26074219 -17.32982422 11.26074219 -106.06982422 11.26074219 C-106.06982422 10.93074219 -106.06982422 10.60074219 -106.06982422 10.26074219 C-101.42618096 9.72860158 -96.78249258 9.19685682 -92.13876343 8.66546631 C-90.51165786 8.4792339 -88.88456229 8.29291415 -87.25747681 8.10650635 C-78.42630668 7.09489549 -69.59461926 6.09260793 -60.75732422 5.13574219 C-55.80640808 4.59587545 -50.87415865 3.97354917 -45.94482422 3.26074219 C-44.87756104 3.10686035 -43.81029785 2.95297852 -42.71069336 2.79443359 C-40.41606378 2.45807872 -38.12352682 2.10678677 -35.83447266 1.734375 C-23.90515052 -0.02449878 -12.04089369 -0.04315138 0 0 Z " transform="translate(292.06982421875,1524.7392578125)"/>
<path d="M0 0 C0.33 0 0.66 0 1 0 C1.12375 0.8971875 1.2475 1.794375 1.375 2.71875 C4.18471432 19.71752161 11.53805054 34.04704846 25.5 44.625 C42.27321558 55.62510883 60.23178267 60.16109606 80 62 C80 62.33 80 62.66 80 63 C53.6 63 27.2 63 0 63 C0 42.21 0 21.42 0 0 Z " transform="translate(0,1473)"/>
<path d="M0 0 C55.77 0 111.54 0 169 0 C166 4 166 4 162.75 4.75 C159.15081911 4.98994539 155.60586841 5.07358915 152 5 C152 5.66 152 6.32 152 7 C137.92840534 7.19554855 123.97303449 6.68222406 109.92810059 5.83197021 C103.98930791 5.47341796 98.04929273 5.13618891 92.109375 4.796875 C90.9149176 4.72826263 89.72046021 4.65965027 88.48980713 4.58895874 C77.24636483 3.94725179 66.00020378 3.38368642 54.75 2.875 C53.41636414 2.81463562 53.41636414 2.81463562 52.05578613 2.75305176 C34.70948078 1.97654132 17.3581389 1.43028035 0 1 C0 0.67 0 0.34 0 0 Z " transform="translate(1457,0)"/>
<path d="M0 0 C30.03 0 60.06 0 91 0 C90.67 1.32 90.34 2.64 90 4 C59.99032028 3.26367632 29.99638324 2.1481954 0 1 C0 0.67 0 0.34 0 0 Z " transform="translate(1457,0)"/>
<path d="M0 0 C19.8 0 39.6 0 60 0 C60 0.33 60 0.66 60 1 C17.56631332 3.18137854 17.56631332 3.18137854 1 4 C0.67 2.68 0.34 1.36 0 0 Z " transform="translate(1321,0)"/>
<path d="M0 0 C-0.804375 0.474375 -1.60875 0.94875 -2.4375 1.4375 C-4.84753488 2.76900154 -4.84753488 2.76900154 -6 4 C-3.525 4.495 -3.525 4.495 -1 5 C-1 5.33 -1 5.66 -1 6 C-5.41654255 6.08706286 -9.83286457 6.14041378 -14.25 6.1875 C-15.50425781 6.21263672 -16.75851562 6.23777344 -18.05078125 6.26367188 C-19.25605469 6.27333984 -20.46132813 6.28300781 -21.703125 6.29296875 C-22.81333008 6.3086792 -23.92353516 6.32438965 -25.06738281 6.34057617 C-28.29964043 5.9652016 -29.63907032 5.17758089 -32 3 C-30.73285156 2.87882812 -29.46570313 2.75765625 -28.16015625 2.6328125 C-26.46090914 2.4638266 -24.76169195 2.29453963 -23.0625 2.125 C-22.23169922 2.04636719 -21.40089844 1.96773437 -20.54492188 1.88671875 C-15.56735964 1.38315214 -10.84135309 0.59614794 -6.00561523 -0.69970703 C-3.72641223 -1.04096323 -2.17949615 -0.69321231 0 0 Z " transform="translate(448,1530)"/>
<path d="M0 0 C-0.66 0.33 -1.32 0.66 -2 1 C-2 1.66 -2 2.32 -2 3 C-2.99 3 -3.98 3 -5 3 C-5 2.34 -5 1.68 -5 1 C-7.31 1.66 -9.62 2.32 -12 3 C-11.505 3.99 -11.505 3.99 -11 5 C-22.88 5 -34.76 5 -47 5 C-47 4.67 -47 4.34 -47 4 C-45.98164063 3.88406494 -44.96328125 3.76812988 -43.9140625 3.64868164 C-40.10460475 3.21487663 -36.29521291 2.78049517 -32.48583984 2.34594727 C-30.84295388 2.15861761 -29.20005054 1.97144039 -27.55712891 1.78442383 C-25.18387237 1.51424435 -22.81068071 1.24350093 -20.4375 0.97265625 C-19.71320801 0.89032242 -18.98891602 0.80798859 -18.24267578 0.72315979 C-17.54255371 0.64315231 -16.84243164 0.56314484 -16.12109375 0.48071289 C-15.44224121 0.40337921 -14.76338867 0.32604553 -14.06396484 0.24636841 C-12.63583714 0.0758977 -11.20909843 -0.10647506 -9.78369141 -0.29837036 C-3.16802837 -1.18801064 -3.16802837 -1.18801064 0 0 Z " transform="translate(233,1531)"/>
<path d="M0 0 C0.70744354 0.00141495 1.41488708 0.0028299 2.14376831 0.00428772 C4.40578419 0.00989025 6.66770148 0.02244307 8.9296875 0.03515625 C10.46223815 0.04017093 11.99479036 0.04473389 13.52734375 0.04882812 C17.28649638 0.05986048 21.04557522 0.07712673 24.8046875 0.09765625 C24.8046875 0.42765625 24.8046875 0.75765625 24.8046875 1.09765625 C18.8646875 1.59265625 18.8646875 1.59265625 12.8046875 2.09765625 C12.8046875 2.75765625 12.8046875 3.41765625 12.8046875 4.09765625 C5.2146875 4.09765625 -2.3753125 4.09765625 -10.1953125 4.09765625 C-9.8653125 3.10765625 -9.5353125 2.11765625 -9.1953125 1.09765625 C-6.23720774 -0.38139613 -3.240597 -0.02425278 0 0 Z " transform="translate(1602.1953125,60.90234375)"/>
<path d="M0 0 C0.33 0 0.66 0 1 0 C1.33 6.93 1.66 13.86 2 21 C2.33 21 2.66 21 3 21 C3.02684679 23.64590014 3.04676357 26.29153096 3.0625 28.9375 C3.07087891 29.69224609 3.07925781 30.44699219 3.08789062 31.22460938 C3.09652441 33.14994313 3.05224333 35.07535581 3 37 C2.505 37.495 2.505 37.495 2 38 C1.76472227 40.34987262 1.58613583 42.70556039 1.4375 45.0625 C1.35371094 46.35285156 1.26992188 47.64320312 1.18359375 48.97265625 C1.12300781 49.97167969 1.06242187 50.97070312 1 52 C0.67 52 0.34 52 0 52 C0 34.84 0 17.68 0 0 Z " transform="translate(453,1267)"/>
<path d="M0 0 C0 0.33 0 0.66 0 1 C5.445 1.495 5.445 1.495 11 2 C11 2.33 11 2.66 11 3 C-1.21 3 -13.42 3 -26 3 C-26.33 2.01 -26.66 1.02 -27 0 C-25.48019531 0.01740234 -25.48019531 0.01740234 -23.9296875 0.03515625 C-22.57812686 0.04454209 -21.2265642 0.05364143 -19.875 0.0625 C-19.20984375 0.07087891 -18.5446875 0.07925781 -17.859375 0.08789062 C-11.63695349 0.11839269 -6.14325232 -1.31641121 0 0 Z " transform="translate(133,1482)"/>
<path d="M0 0 C9.57 0 19.14 0 29 0 C29.66 1.65 30.32 3.3 31 5 C27.04 5 23.08 5 19 5 C19.33 4.34 19.66 3.68 20 3 C13.4 2.67 6.8 2.34 0 2 C0 1.34 0 0.68 0 0 Z " transform="translate(1657,59)"/>
<path d="M0 0 C1.010625 0.0825 2.02125 0.165 3.0625 0.25 C3.7225 1.24 4.3825 2.23 5.0625 3.25 C2.25502545 4.0295458 -0.35779808 4.4210149 -3.265625 4.56640625 C-4.46445313 4.62924805 -4.46445313 4.62924805 -5.6875 4.69335938 C-6.5125 4.73267578 -7.3375 4.77199219 -8.1875 4.8125 C-9.02796875 4.85568359 -9.8684375 4.89886719 -10.734375 4.94335938 C-12.80190671 5.04908543 -14.86968281 5.15001295 -16.9375 5.25 C-16.9375 3.93 -16.9375 2.61 -16.9375 1.25 C-16.01066406 1.26160156 -15.08382812 1.27320313 -14.12890625 1.28515625 C-12.33259766 1.29869141 -12.33259766 1.29869141 -10.5 1.3125 C-8.70755859 1.32990234 -8.70755859 1.32990234 -6.87890625 1.34765625 C-3.5218393 1.23619984 -3.34386181 0.28458398 0 0 Z " transform="translate(200.9375,1476.75)"/>
<path d="M0 0 C0 0.66 0 1.32 0 2 C-1.65 2.66 -3.3 3.32 -5 4 C-4.67 4.99 -4.34 5.98 -4 7 C-5.95799514 7.33531415 -7.91640774 7.66819143 -9.875 8 C-10.96554687 8.185625 -12.05609375 8.37125 -13.1796875 8.5625 C-16 9 -16 9 -18 9 C-18 8.34 -18 7.68 -18 7 C-18.66 6.67 -19.32 6.34 -20 6 C-17.04329782 4.99513105 -14.08438423 3.99693976 -11.125 3 C-10.28324219 2.71382812 -9.44148437 2.42765625 -8.57421875 2.1328125 C-7.76855469 1.86210937 -6.96289062 1.59140625 -6.1328125 1.3125 C-5.38918457 1.06113281 -4.64555664 0.80976563 -3.87939453 0.55078125 C-2 0 -2 0 0 0 Z " transform="translate(1002,128)"/>
<path d="M0 0 C5.61 0.66 11.22 1.32 17 2 C16.34 2.66 15.68 3.32 15 4 C15.99 4.99 16.98 5.98 18 7 C15.56199034 6.69112547 13.12464633 6.37805338 10.6875 6.0625 C9.99720703 5.97548828 9.30691406 5.88847656 8.59570312 5.79882812 C5.59857712 5.40789865 2.87549881 4.9584996 0 4 C0 2.68 0 1.36 0 0 Z " transform="translate(1734,15)"/>
<path d="M0 0 C1.74965358 -0.05429959 3.49979787 -0.09292823 5.25 -0.125 C6.22453125 -0.14820313 7.1990625 -0.17140625 8.203125 -0.1953125 C11.0196498 0.00137219 12.60949036 0.55431084 15 2 C14.01 3.485 14.01 3.485 13 5 C8.1472189 5.32351874 3.78003652 4.9560073 -1 4 C-0.67 2.68 -0.34 1.36 0 0 Z " transform="translate(1136,472)"/>
<path d="M0 0 C2.63549805 -0.17871094 2.63549805 -0.17871094 5.76171875 0.265625 C6.87998047 0.41386719 7.99824219 0.56210938 9.15039062 0.71484375 C10.90125977 0.97974609 10.90125977 0.97974609 12.6875 1.25 C14.45577148 1.49169922 14.45577148 1.49169922 16.25976562 1.73828125 C19.17641199 2.13976294 22.08879995 2.56102709 25 3 C25 3.33 25 3.66 25 4 C15.76 4 6.52 4 -3 4 C-2.01 2.68 -1.02 1.36 0 0 Z " transform="translate(55,1532)"/>
<path d="M0 0 C10.3734499 -0.16494885 20.6510926 0.34956362 31 1 C31 1.33 31 1.66 31 2 C24.28837062 2.88021369 17.76594019 3.11381955 11 3 C11 3.33 11 3.66 11 4 C7.09409237 4.17754126 4.31097606 4.20731737 1 2 C0.67 1.34 0.34 0.68 0 0 Z " transform="translate(96,1480)"/>
<path d="M0 0 C1.58361328 0.08701172 1.58361328 0.08701172 3.19921875 0.17578125 C4.80216797 0.24345703 4.80216797 0.24345703 6.4375 0.3125 C7.24574219 0.37050781 8.05398438 0.42851563 8.88671875 0.48828125 C8.55671875 1.14828125 8.22671875 1.80828125 7.88671875 2.48828125 C8.54671875 3.14828125 9.20671875 3.80828125 9.88671875 4.48828125 C3.94671875 4.81828125 -1.99328125 5.14828125 -8.11328125 5.48828125 C-3.11328125 0.48828125 -3.11328125 0.48828125 0 0 Z " transform="translate(270.11328125,1466.51171875)"/>
<path d="M0 0 C-0.33 0.99 -0.66 1.98 -1 3 C-0.34 3 0.32 3 1 3 C1 3.66 1 4.32 1 5 C-5.435 5.495 -5.435 5.495 -12 6 C-11.67 5.01 -11.34 4.02 -11 3 C-11.66 2.34 -12.32 1.68 -13 1 C-8.62426048 0.40667939 -4.42471556 -0.13827236 0 0 Z " transform="translate(2138,1084)"/>
<path d="M0 0 C0.66 0.33 1.32 0.66 2 1 C2.33 1.99 2.66 2.98 3 4 C1.8803014 5.00593243 0.7540588 6.0045849 -0.375 7 C-1.00148438 7.556875 -1.62796875 8.11375 -2.2734375 8.6875 C-4 10 -4 10 -6 10 C-6 9.34 -6 8.68 -6 8 C-6.99 7.67 -7.98 7.34 -9 7 C-6.03 4.69 -3.06 2.38 0 0 Z " transform="translate(450,437)"/>
<path d="M0 0 C-3.0622744 2.48627517 -6.1457054 4.09989404 -9.75 5.6875 C-10.73484375 6.12449219 -11.7196875 6.56148437 -12.734375 7.01171875 C-13.48203125 7.33785156 -14.2296875 7.66398438 -15 8 C-14.67 6.35 -14.34 4.7 -14 3 C-13.360625 2.87625 -12.72125 2.7525 -12.0625 2.625 C-11.0415625 2.315625 -11.0415625 2.315625 -10 2 C-9.67 1.34 -9.34 0.68 -9 0 C-5.52176885 -1.15941038 -3.54104422 -0.70820884 0 0 Z " transform="translate(761,229)"/>
<path d="M0 0 C0.66 0.33 1.32 0.66 2 1 C1.01 1.33 0.02 1.66 -1 2 C-1.66179847 3.98045559 -1.66179847 3.98045559 -2 6 C-3 7 -3 7 -5.72265625 7.09765625 C-7.37587891 7.08025391 -7.37587891 7.08025391 -9.0625 7.0625 C-10.16722656 7.05347656 -11.27195312 7.04445312 -12.41015625 7.03515625 C-13.69212891 7.01775391 -13.69212891 7.01775391 -15 7 C-12.0356239 5.02374927 -9.21212254 3.70113094 -5.9375 2.3125 C-4.87402344 1.85488281 -3.81054688 1.39726562 -2.71484375 0.92578125 C-1.81894531 0.62027344 -0.92304687 0.31476563 0 0 Z " transform="translate(885,171)"/>
<path d="M0 0 C-0.19140625 1.859375 -0.19140625 1.859375 -1 4 C-3.21484375 5.265625 -3.21484375 5.265625 -5.9375 6.25 C-6.83339844 6.58515625 -7.72929688 6.9203125 -8.65234375 7.265625 C-11 8 -11 8 -13 8 C-10.95058999 2.26165198 -5.98766709 -0.70443142 0 0 Z " transform="translate(920,154)"/>
<path d="M0 0 C0.66 0.33 1.32 0.66 2 1 C0.02 1.99 0.02 1.99 -2 3 C-2 3.99 -2 4.98 -2 6 C-1.34 6.33 -0.68 6.66 0 7 C-3.63 7.33 -7.26 7.66 -11 8 C-11.33 7.01 -11.66 6.02 -12 5 C-10.04578965 4.13644222 -8.08648653 3.28440066 -6.125 2.4375 C-5.03445313 1.96183594 -3.94390625 1.48617187 -2.8203125 0.99609375 C-1.88960937 0.66738281 -0.95890625 0.33867187 0 0 Z " transform="translate(899,165)"/>
<path d="M0 0 C3.3 0 6.6 0 10 0 C9 3 9 3 7 4 C5.45976004 4.06950541 3.91665012 4.08452357 2.375 4.0625 C1.14910156 4.04896484 1.14910156 4.04896484 -0.1015625 4.03515625 C-1.04128906 4.01775391 -1.04128906 4.01775391 -2 4 C-1.34 2.68 -0.68 1.36 0 0 Z " transform="translate(171,1479)"/>
<path d="M0 0 C0 0.66 0 1.32 0 2 C0.66 2.33 1.32 2.66 2 3 C-1.96 3.99 -5.92 4.98 -10 6 C-10.33 5.34 -10.66 4.68 -11 4 C-7.89249437 0.23828266 -4.70670775 0 0 0 Z " transform="translate(1023,118)"/>
<path d="M0 0 C-0.33 1.32 -0.66 2.64 -1 4 C-1.66 4 -2.32 4 -3 4 C-3.66 6.31 -4.32 8.62 -5 11 C-5.66 11 -6.32 11 -7 11 C-7 10.34 -7 9.68 -7 9 C-7.66 8.67 -8.32 8.34 -9 8 C-8.21366078 6.85050412 -7.42073742 5.70551011 -6.625 4.5625 C-6.18414062 3.92441406 -5.74328125 3.28632813 -5.2890625 2.62890625 C-3.63708041 0.54140161 -2.66927652 0 0 0 Z " transform="translate(393,496)"/>
<path d="M0 0 C4.82360189 -0.19294408 8.49646738 0.24252386 13 2 C13 2.33 13 2.66 13 3 C8.71 3.66 4.42 4.32 0 5 C0 3.35 0 1.7 0 0 Z " transform="translate(1975,393)"/>
<path d="M0 0 C0.99 0.33 1.98 0.66 3 1 C1.68 4.3 0.36 7.6 -1 11 C-1.99 10.67 -2.98 10.34 -4 10 C-4 7.69 -4 5.38 -4 3 C-3.01 3 -2.02 3 -1 3 C-0.67 2.01 -0.34 1.02 0 0 Z " transform="translate(2210,1464)"/>
<path d="M0 0 C-2.88341534 4.21422242 -5.04303419 5.76075855 -10 7 C-10 5 -10 5 -8 3 C-8.99 2.34 -9.98 1.68 -11 1 C-9.5437328 0.63743142 -8.08488815 0.28520207 -6.625 -0.0625 C-5.40683594 -0.35833984 -5.40683594 -0.35833984 -4.1640625 -0.66015625 C-2 -1 -2 -1 0 0 Z " transform="translate(1107,99)"/>
<path d="M0 0 C2.1875 1.3125 2.1875 1.3125 4 3 C4 3.66 4 4.32 4 5 C4.99 5.33 5.98 5.66 7 6 C4 8 4 8 1 8 C0.566875 7.0409375 0.566875 7.0409375 0.125 6.0625 C-0.82823451 3.84793921 -0.82823451 3.84793921 -3 3 C-3 2.34 -3 1.68 -3 1 C-2.01 0.67 -1.02 0.34 0 0 Z " transform="translate(1761,510)"/>
<path d="M0 0 C0.99 0.33 1.98 0.66 3 1 C4.32 0.67 5.64 0.34 7 0 C5.68 2.64 4.36 5.28 3 8 C0.525 7.01 0.525 7.01 -2 6 C-1.34 4.02 -0.68 2.04 0 0 Z M1 2 C2 4 2 4 2 4 Z " transform="translate(456,1453)"/>
<path d="M0 0 C0 0.66 0 1.32 0 2 C-2.27119696 4.23334367 -3.60293349 4.95840784 -6.796875 5.29296875 C-7.77140625 5.25816406 -8.7459375 5.22335937 -9.75 5.1875 C-11.22726563 5.14689453 -11.22726563 5.14689453 -12.734375 5.10546875 C-13.85585937 5.05326172 -13.85585937 5.05326172 -15 5 C-12.18178397 3.12118931 -10.14357281 2.30990783 -6.9375 1.375 C-6.05964844 1.11460938 -5.18179688 0.85421875 -4.27734375 0.5859375 C-2 0 -2 0 0 0 Z " transform="translate(2516,1531)"/>
<path d="M0 0 C0.639375 0.2475 1.27875 0.495 1.9375 0.75 C2.2675 1.74 2.5975 2.73 2.9375 3.75 C3.5975 4.41 4.2575 5.07 4.9375 5.75 C-3.63392857 4.89285714 -3.63392857 4.89285714 -7.0625 2.75 C-6.0725 2.75 -5.0825 2.75 -4.0625 2.75 C-4.0625 2.09 -4.0625 1.43 -4.0625 0.75 C-2.0625 -0.25 -2.0625 -0.25 0 0 Z " transform="translate(1097.0625,519.25)"/>
<path d="M0 0 C-2 3 -2 3 -4.1640625 3.73046875 C-5.38222656 3.95669922 -5.38222656 3.95669922 -6.625 4.1875 C-7.85089844 4.42533203 -7.85089844 4.42533203 -9.1015625 4.66796875 C-10.04128906 4.83232422 -10.04128906 4.83232422 -11 5 C-11.33 4.01 -11.66 3.02 -12 2 C-10.56656 1.46809459 -9.12804633 0.94984742 -7.6875 0.4375 C-6.48673828 0.00244141 -6.48673828 0.00244141 -5.26171875 -0.44140625 C-3 -1 -3 -1 0 0 Z " transform="translate(980,79)"/>
<path d="M0 0 C0.66 0.66 1.32 1.32 2 2 C1.72122737 3.34579891 1.37032704 4.67646429 1 6 C0.77711499 8.58656673 0.58685615 11.15952778 0.4375 13.75 C0.39431641 14.44738281 0.35113281 15.14476563 0.30664062 15.86328125 C0.20110404 17.57531922 0.1001009 19.28763561 0 21 C-0.33 21 -0.66 21 -1 21 C-1 14.73 -1 8.46 -1 2 C-2.65 2 -4.3 2 -6 2 C-6 1.67 -6 1.34 -6 1 C-3.125 0.375 -3.125 0.375 0 0 Z " transform="translate(1361,54)"/>
<path d="M0 0 C0.99 0.33 1.98 0.66 3 1 C2.01 6.28 1.02 11.56 0 17 C-0.33 17 -0.66 17 -1 17 C-1.02699725 14.72923158 -1.04639453 12.45837179 -1.0625 10.1875 C-1.07990234 8.29064453 -1.07990234 8.29064453 -1.09765625 6.35546875 C-1 3 -1 3 0 0 Z " transform="translate(1,1439)"/>
<path d="M0 0 C0.66 0.33 1.32 0.66 2 1 C1.31267043 3.74931827 0.64439778 5.53418821 -1.69140625 7.22265625 C-3.43116325 8.20324656 -5.2137611 9.10688055 -7 10 C-6.6875 7.625 -6.6875 7.625 -6 5 C-5.01 4.34 -4.02 3.68 -3 3 C-3 3.66 -3 4.32 -3 5 C-2.34 5 -1.68 5 -1 5 C-1.33 4.01 -1.66 3.02 -2 2 C-1.34 1.34 -0.68 0.68 0 0 Z " transform="translate(581,612)"/>
<path d="M0 0 C2.64 0.33 5.28 0.66 8 1 C8 1.99 8 2.98 8 4 C7 5 7 5 4.4375 5.0625 C3.2309375 5.0315625 3.2309375 5.0315625 2 5 C1.34 3.35 0.68 1.7 0 0 Z " transform="translate(1094,468)"/>
<path d="M0 0 C1.32 0 2.64 0 4 0 C4.05416188 1.60379341 4.09286638 3.20811406 4.125 4.8125 C4.14820313 5.70582031 4.17140625 6.59914063 4.1953125 7.51953125 C4 10 4 10 2 13 C1.34 8.71 0.68 4.42 0 0 Z " transform="translate(1391,267)"/>
<path d="M0 0 C-2 2.5625 -2 2.5625 -5 5 C-7.89116824 5.14963532 -10.13399816 4.63149193 -13 4 C-10.56272708 2.37515139 -8.62713877 1.34310925 -5.9375 0.3125 C-5.24527344 0.04050781 -4.55304687 -0.23148437 -3.83984375 -0.51171875 C-2 -1 -2 -1 0 0 Z " transform="translate(941,92)"/>
<path d="M0 0 C2.64 0 5.28 0 8 0 C7.01 0.495 7.01 0.495 6 1 C5.34786708 3.02463255 5.34786708 3.02463255 5 5 C2.03 4.505 2.03 4.505 -1 4 C-0.67 2.68 -0.34 1.36 0 0 Z " transform="translate(1313,59)"/>
<path d="M0 0 C4.62 0 9.24 0 14 0 C14 0.33 14 0.66 14 1 C15.65 1.33 17.3 1.66 19 2 C19 2.33 19 2.66 19 3 C12.4294834 3.24794402 6.43028541 2.32388229 0 1 C0 0.67 0 0.34 0 0 Z " transform="translate(74,1480)"/>
<path d="M0 0 C0 0.66 0 1.32 0 2 C1.65 2 3.3 2 5 2 C5 2.33 5 2.66 5 3 C-0.94 3.495 -0.94 3.495 -7 4 C-7 3.01 -7 2.02 -7 1 C-4.53721199 -0.231394 -2.7204945 -0.07159196 0 0 Z " transform="translate(1275,6)"/>
<path d="M0 0 C-0.66 3.63 -1.32 7.26 -2 11 C-5 7 -5 7 -4.8125 3.8125 C-4.544375 2.884375 -4.27625 1.95625 -4 1 C-2 0 -2 0 0 0 Z " transform="translate(283,1238)"/>
<path d="M0 0 C0.66 0.33 1.32 0.66 2 1 C2 1.66 2 2.32 2 3 C2.33 3.66 2.66 4.32 3 5 C-3.0546875 5.1953125 -3.0546875 5.1953125 -5 5 C-5.66 4.34 -6.32 3.68 -7 3 C-4.69631264 1.93347808 -2.35981813 0.93578995 0 0 Z " transform="translate(884,573)"/>
<path d="M0 0 C-1.98 0.99 -1.98 0.99 -4 2 C-3.67 2.66 -3.34 3.32 -3 4 C-5.64 4 -8.28 4 -11 4 C-11 3.34 -11 2.68 -11 2 C-11.66 1.67 -12.32 1.34 -13 1 C-11.58622218 0.63447197 -10.16879424 0.28304505 -8.75 -0.0625 C-7.96109375 -0.25972656 -7.1721875 -0.45695312 -6.359375 -0.66015625 C-3.89605178 -1.01497267 -2.34395868 -0.76877544 0 0 Z " transform="translate(1171,84)"/>
<path d="M0 0 C3.96 0.99 3.96 0.99 8 2 C7.67 2.99 7.34 3.98 7 5 C4.03 4.67 1.06 4.34 -2 4 C-1.34 2.68 -0.68 1.36 0 0 Z " transform="translate(1768,78)"/>
<path d="M0 0 C1.010625 0.0825 2.02125 0.165 3.0625 0.25 C3.7225 1.24 4.3825 2.23 5.0625 3.25 C2.06769083 4.1223412 -0.57325911 4.35829766 -3.6875 4.3125 C-4.48671875 4.30347656 -5.2859375 4.29445313 -6.109375 4.28515625 C-6.71265625 4.27355469 -7.3159375 4.26195312 -7.9375 4.25 C-7.298125 3.775625 -6.65875 3.30125 -6 2.8125 C-2.57700144 0.21931927 -2.57700144 0.21931927 0 0 Z " transform="translate(200.9375,1476.75)"/>
<path d="M0 0 C0.66 0.33 1.32 0.66 2 1 C1.649375 1.61875 1.29875 2.2375 0.9375 2.875 C0.4734375 3.926875 0.4734375 3.926875 0 5 C0.33 5.66 0.66 6.32 1 7 C-0.32 7 -1.64 7 -3 7 C-3 6.34 -3 5.68 -3 5 C-4.32 4.67 -5.64 4.34 -7 4 C-1.7265625 0.77734375 -1.7265625 0.77734375 0 0 Z " transform="translate(204,1399)"/>
<path d="M0 0 C1.32 0 2.64 0 4 0 C4.12375 0.639375 4.2475 1.27875 4.375 1.9375 C4.58125 2.618125 4.7875 3.29875 5 4 C5.66 4.33 6.32 4.66 7 5 C3.37 4.67 -0.26 4.34 -4 4 C-2.68 3.34 -1.36 2.68 0 2 C0 1.34 0 0.68 0 0 Z " transform="translate(2032,393)"/>
<path d="M0 0 C-0.8125 3.4375 -0.8125 3.4375 -2 7 C-2.99 7.33 -3.98 7.66 -5 8 C-5.75 6.25 -5.75 6.25 -6 4 C-2.77777778 0 -2.77777778 0 0 0 Z " transform="translate(629,243)"/>
<path d="M0 0 C3 2 3 2 4 4 C0.04 4 -3.92 4 -8 4 C-7.34 3.01 -6.68 2.02 -6 1 C-3.4375 0.875 -3.4375 0.875 -1 1 C-0.67 0.67 -0.34 0.34 0 0 Z " transform="translate(1684,60)"/>
<path d="M0 0 C-0.33 0.99 -0.66 1.98 -1 3 C-2.27875 2.95875 -3.5575 2.9175 -4.875 2.875 C-7.01871492 2.75787127 -7.01871492 2.75787127 -9 3 C-9.66 3.66 -10.32 4.32 -11 5 C-11 4.34 -11 3.68 -11 3 C-12.65 3 -14.3 3 -16 3 C-16 2.67 -16 2.34 -16 2 C-14.08404518 1.66259915 -12.16720278 1.33023588 -10.25 1 C-9.18265625 0.814375 -8.1153125 0.62875 -7.015625 0.4375 C-4 0 -4 0 0 0 Z " transform="translate(1230,16)"/>
<path d="M0 0 C2 2 2 2 2.125 5.125 C2.08375 6.07375 2.0425 7.0225 2 8 C1.34 8 0.68 8 0 8 C-0.33 8.66 -0.66 9.32 -1 10 C-1.33 7.03 -1.66 4.06 -2 1 C-1.34 0.67 -0.68 0.34 0 0 Z " transform="translate(2563,1233)"/>
<path d="M0 0 C0.99 0.33 1.98 0.66 3 1 C2.67 2.65 2.34 4.3 2 6 C0.68 5.67 -0.64 5.34 -2 5 C-2 3.68 -2 2.36 -2 1 C-1.34 0.67 -0.68 0.34 0 0 Z " transform="translate(1863,538)"/>
<path d="M0 0 C5.75 0.75 5.75 0.75 8 3 C6.1875 4.5625 6.1875 4.5625 4 6 C3.01 5.67 2.02 5.34 1 5 C0.67 3.35 0.34 1.7 0 0 Z " transform="translate(565,344)"/>
<path d="M0 0 C2.64 0 5.28 0 8 0 C5.77174356 2.22825644 4.34238372 2.69239369 1.375 3.625 C0.55773437 3.88539063 -0.25953125 4.14578125 -1.1015625 4.4140625 C-1.72804688 4.60742188 -2.35453125 4.80078125 -3 5 C-3 4.34 -3 3.68 -3 3 C-2.34 3 -1.68 3 -1 3 C-0.67 2.01 -0.34 1.02 0 0 Z " transform="translate(807,202)"/>
<path d="M0 0 C1.32 0 2.64 0 4 0 C4 1.32 4 2.64 4 4 C1.69 4.33 -0.62 4.66 -3 5 C-1.125 1.125 -1.125 1.125 0 0 Z " transform="translate(1116,35)"/>
<path d="M0 0 C4.62 0 9.24 0 14 0 C13.34 1.32 12.68 2.64 12 4 C9.03 3.505 9.03 3.505 6 3 C6 2.67 6 2.34 6 2 C3.03 1.505 3.03 1.505 0 1 C0 0.67 0 0.34 0 0 Z " transform="translate(129,1480)"/>
<path d="M0 0 C-0.33 0.66 -0.66 1.32 -1 2 C-0.34 2.66 0.32 3.32 1 4 C-1.64 4 -4.28 4 -7 4 C-7 3.01 -7 2.02 -7 1 C-4.53721199 -0.231394 -2.7204945 -0.07159196 0 0 Z " transform="translate(279,1467)"/>
<path d="M0 0 C0.33 1.32 0.66 2.64 1 4 C-0.43359375 6.140625 -0.43359375 6.140625 -2.4375 8.25 C-3.09621094 8.95640625 -3.75492187 9.6628125 -4.43359375 10.390625 C-5.20896484 11.18726563 -5.20896484 11.18726563 -6 12 C-6.66 11.67 -7.32 11.34 -8 11 C-5.36 7.37 -2.72 3.74 0 0 Z " transform="translate(265,1284)"/>
<path d="M0 0 C0.66 0.33 1.32 0.66 2 1 C2 1.66 2 2.32 2 3 C2.99 3 3.98 3 5 3 C4.67 4.65 4.34 6.3 4 8 C2.02 6.35 0.04 4.7 -2 3 C-1.34 2.01 -0.68 1.02 0 0 Z " transform="translate(2204,826)"/>
<path d="M0 0 C2.64465038 3.1254959 3.84414715 6.08788267 5 10 C2.69 8.02 0.38 6.04 -2 4 C-1.34 2.68 -0.68 1.36 0 0 Z " transform="translate(1909,601)"/>
<path d="M0 0 C1.32 0.33 2.64 0.66 4 1 C3.67 2.32 3.34 3.64 3 5 C1.02 5.33 -0.96 5.66 -3 6 C-2.67 4.68 -2.34 3.36 -2 2 C-1.34 2 -0.68 2 0 2 C0 1.34 0 0.68 0 0 Z " transform="translate(719,567)"/>
<path d="M0 0 C0 2.64 0 5.28 0 8 C-0.66 8 -1.32 8 -2 8 C-2.99 5.69 -3.98 3.38 -5 1 C-2 0 -2 0 0 0 Z " transform="translate(1957,561)"/>
<path d="M0 0 C2.4375 1.1875 2.4375 1.1875 3.4375 3.1875 C0.38486336 4.16870464 -1.50986336 4.16870464 -4.5625 3.1875 C-4.5625 2.1975 -4.5625 1.2075 -4.5625 0.1875 C-2.5625 -0.8125 -2.5625 -0.8125 0 0 Z " transform="translate(2105.5625,212.8125)"/>
<path d="M0 0 C0.1875 3.3125 0.1875 3.3125 0 7 C-0.99 7.99 -1.98 8.98 -3 10 C-3.33 7.03 -3.66 4.06 -4 1 C-1 0 -1 0 0 0 Z " transform="translate(1378,177)"/>
<path d="M0 0 C0.66 0.33 1.32 0.66 2 1 C2 1.66 2 2.32 2 3 C-0.88415883 4.44207941 -3.41721528 4.09394887 -6.625 4.0625 C-7.81351563 4.05347656 -9.00203125 4.04445313 -10.2265625 4.03515625 C-11.14179687 4.02355469 -12.05703125 4.01195312 -13 4 C-13 3.67 -13 3.34 -13 3 C-9.7 3 -6.4 3 -3 3 C-3 2.34 -3 1.68 -3 1 C-2.01 0.67 -1.02 0.34 0 0 Z " transform="translate(1587,56)"/>
<path d="M0 0 C0.66 0.33 1.32 0.66 2 1 C-0.97 4.3 -3.94 7.6 -7 11 C-7.66 10.67 -8.32 10.34 -9 10 C-7.8758824 8.70756532 -6.75067408 7.41607925 -5.625 6.125 C-4.99851562 5.40570312 -4.37203125 4.68640625 -3.7265625 3.9453125 C-2.52573166 2.5923402 -1.2791655 1.2791655 0 0 Z " transform="translate(2226,1447)"/>
<path d="M0 0 C0.99 0.66 1.98 1.32 3 2 C-0.3 2.33 -3.6 2.66 -7 3 C-7 2.01 -7 1.02 -7 0 C-4.28569464 -1.35715268 -2.88661718 -0.77445827 0 0 Z " transform="translate(63,1394)"/>
<path d="M0 0 C4.62 0 9.24 0 14 0 C12.515 1.485 12.515 1.485 11 3 C8.30078125 2.85546875 8.30078125 2.85546875 5.3125 2.1875 C4.31863281 1.97480469 3.32476563 1.76210938 2.30078125 1.54296875 C1.54152344 1.36378906 0.78226563 1.18460937 0 1 C0 0.67 0 0.34 0 0 Z " transform="translate(1481,375)"/>
<path d="M0 0 C1.09658936 3.28976808 0.79953138 4.71303767 0 8 C-0.66 8 -1.32 8 -2 8 C-2.66 6.02 -3.32 4.04 -4 2 C-2.68 1.34 -1.36 0.68 0 0 Z " transform="translate(2168,371)"/>
<path d="M0 0 C0.99 0 1.98 0 3 0 C3 0.66 3 1.32 3 2 C3.99 2.33 4.98 2.66 6 3 C3.36 3.99 0.72 4.98 -2 6 C-1.34 4.02 -0.68 2.04 0 0 Z " transform="translate(843,184)"/>
<path d="M0 0 C0 0.66 0 1.32 0 2 C0.66 2.33 1.32 2.66 2 3 C-0.64 3.66 -3.28 4.32 -6 5 C-6 4.01 -6 3.02 -6 2 C-3 0 -3 0 0 0 Z " transform="translate(955,141)"/>
<path d="M0 0 C0.66 0 1.32 0 2 0 C2.33 1.65 2.66 3.3 3 5 C1.02 5.99 1.02 5.99 -1 7 C-1.625 5.1875 -1.625 5.1875 -2 3 C-1.34 2.01 -0.68 1.02 0 0 Z " transform="translate(1960,571)"/>
<path d="M0 0 C0.33 0.99 0.66 1.98 1 3 C-3.625 5.125 -3.625 5.125 -7 4 C-7 3.34 -7 2.68 -7 2 C-4.35261084 0.5393715 -3.10551666 0 0 0 Z " transform="translate(744,235)"/>
<path d="M0 0 C0.99 0.33 1.98 0.66 3 1 C3 1.99 3 2.98 3 4 C0.125 4.625 0.125 4.625 -3 5 C-3.66 4.34 -4.32 3.68 -5 3 C-2.6875 1.4375 -2.6875 1.4375 0 0 Z " transform="translate(690,205)"/>
<path d="M0 0 C3.465 1.485 3.465 1.485 7 3 C7 4.32 7 5.64 7 7 C3.63408134 5.55746343 1.48952921 3.66735273 -1 1 C-0.67 0.67 -0.34 0.34 0 0 Z " transform="translate(1948,170)"/>
<path d="M0 0 C0.66 0.33 1.32 0.66 2 1 C1.19152271 2.16945792 0.37810888 3.33550461 -0.4375 4.5 C-0.88996094 5.1496875 -1.34242188 5.799375 -1.80859375 6.46875 C-2.20175781 6.9740625 -2.59492188 7.479375 -3 8 C-3.33 8 -3.66 8 -4 8 C-4 6.35 -4 4.7 -4 3 C-3.34 3 -2.68 3 -2 3 C-2 2.34 -2 1.68 -2 1 C-1.34 0.67 -0.68 0.34 0 0 Z " transform="translate(2526,1455)"/>
<path d="M0 0 C2.64 0.33 5.28 0.66 8 1 C5.03312999 2.64826111 2.34373475 3.44271087 -1 4 C-0.67 2.68 -0.34 1.36 0 0 Z " transform="translate(2352,1389)"/>
<path d="M0 0 C0.33 0.66 0.66 1.32 1 2 C1.66 2.33 2.32 2.66 3 3 C1.02 5.31 -0.96 7.62 -3 10 C-3.33 9.34 -3.66 8.68 -4 8 C-3.22265625 6.0546875 -3.22265625 6.0546875 -2.0625 3.875 C-1.49208984 2.78832031 -1.49208984 2.78832031 -0.91015625 1.6796875 C-0.60980469 1.12539063 -0.30945312 0.57109375 0 0 Z " transform="translate(1973,810)"/>
<path d="M0 0 C0.66 0.66 1.32 1.32 2 2 C1.34 2 0.68 2 0 2 C0 1.34 0 0.68 0 0 Z M-3 2 C-2.01 2 -1.02 2 0 2 C-0.8125 4.4375 -0.8125 4.4375 -2 7 C-2.99 7.33 -3.98 7.66 -5 8 C-4.125 3.125 -4.125 3.125 -3 2 Z " transform="translate(751,229)"/>
<path d="M0 0 C0.33 0.66 0.66 1.32 1 2 C-0.4726862 5.27263601 -1.42695432 6.72014048 -4.6875 8.3125 C-5.450625 8.539375 -6.21375 8.76625 -7 9 C-6.02180976 7.68677212 -5.0424189 6.37443848 -4.0625 5.0625 C-3.51722656 4.33160156 -2.97195312 3.60070313 -2.41015625 2.84765625 C-1 1 -1 1 0 0 Z " transform="translate(19,1416)"/>
<path d="M0 0 C0.99 0 1.98 0 3 0 C2.67 2.31 2.34 4.62 2 7 C1.67 6.34 1.34 5.68 1 5 C0.01 4.67 -0.98 4.34 -2 4 C-1.34 2.68 -0.68 1.36 0 0 Z " transform="translate(336,1238)"/>
<path d="M0 0 C-0.33 0.66 -0.66 1.32 -1 2 C-1.66 2 -2.32 2 -3 2 C-3.33 2.99 -3.66 3.98 -4 5 C-4.66 5 -5.32 5 -6 5 C-6 4.01 -6 3.02 -6 2 C-6.66 1.67 -7.32 1.34 -8 1 C-5.07175348 0.02391783 -3.04386724 -0.08226668 0 0 Z " transform="translate(691,579)"/>
<path d="M0 0 C0.66 0.33 1.32 0.66 2 1 C2 2.32 2 3.64 2 5 C0.35 5 -1.3 5 -3 5 C-3.33 4.01 -3.66 3.02 -4 2 C-2.125 0.9375 -2.125 0.9375 0 0 Z " transform="translate(751,234)"/>
<path d="M0 0 C-0.33 0.66 -0.66 1.32 -1 2 C-1.66 2 -2.32 2 -3 2 C-3 2.99 -3 3.98 -3 5 C-3.99 5.33 -4.98 5.66 -6 6 C-6 4.02 -6 2.04 -6 0 C-2.25 -1.125 -2.25 -1.125 0 0 Z " transform="translate(807,203)"/>
<path d="M0 0 C0 0.99 0 1.98 0 3 C-3.37462715 2.45276317 -5.08235 1.9451 -8 0 C-4.71023192 -1.09658936 -3.28696233 -0.79953138 0 0 Z " transform="translate(1817,91)"/>
<path d="M0 0 C3.3 0 6.6 0 10 0 C9.67 0.99 9.34 1.98 9 3 C4.45804635 3.37849614 3.9855604 2.9891703 0 0 Z " transform="translate(416,1533)"/>
<path d="M0 0 C-0.99 0.495 -0.99 0.495 -2 1 C-2 1.66 -2 2.32 -2 3 C-2.99 3 -3.98 3 -5 3 C-5 2.34 -5 1.68 -5 1 C-7.31 1 -9.62 1 -12 1 C-12 0.67 -12 0.34 -12 0 C-3.42857143 -1.28571429 -3.42857143 -1.28571429 0 0 Z " transform="translate(233,1531)"/>
<path d="M0 0 C1.32 1.32 2.64 2.64 4 4 C3.34 4.66 2.68 5.32 2 6 C-0.625 5.625 -0.625 5.625 -3 5 C-2.01 3.35 -1.02 1.7 0 0 Z " transform="translate(2244,689)"/>
<path d="M0 0 C1.5625 1.25 1.5625 1.25 3 3 C2.8125 5.125 2.8125 5.125 2 7 C1.01 7.495 1.01 7.495 0 8 C-0.98120464 4.94736336 -0.98120464 3.05263664 0 0 Z " transform="translate(1913,601)"/>
<path d="M0 0 C0.99 0.33 1.98 0.66 3 1 C3.6875 3.0625 3.6875 3.0625 4 5 C3.01 5.33 2.02 5.66 1 6 C0.01 4.35 -0.98 2.7 -2 1 C-1.34 0.67 -0.68 0.34 0 0 Z " transform="translate(2182,284)"/>
<path d="M0 0 C0.66 0.66 1.32 1.32 2 2 C-2.455 3.485 -2.455 3.485 -7 5 C-5 1 -5 1 -2.5 0.125 C-1.2625 0.063125 -1.2625 0.063125 0 0 Z " transform="translate(917,156)"/>
<path d="M0 0 C1.32 0.33 2.64 0.66 4 1 C4 1.99 4 2.98 4 4 C0.25 5.125 0.25 5.125 -2 4 C-2 3.34 -2 2.68 -2 2 C-1.34 2 -0.68 2 0 2 C0 1.34 0 0.68 0 0 Z " transform="translate(929,149)"/>
<path d="M0 0 C-0.33 0.99 -0.66 1.98 -1 3 C-2.65 3 -4.3 3 -6 3 C-6.33 2.34 -6.66 1.68 -7 1 C-3.375 -1.125 -3.375 -1.125 0 0 Z " transform="translate(851,128)"/>
<path d="M0 0 C0 0.99 0 1.98 0 3 C-1.98 3.33 -3.96 3.66 -6 4 C-6 3.01 -6 2.02 -6 1 C-3 0 -3 0 0 0 Z " transform="translate(1055,109)"/>
<path d="M0 0 C3.125 -0.1875 3.125 -0.1875 6 0 C5.01 1.485 5.01 1.485 4 3 C0.875 3.1875 0.875 3.1875 -2 3 C-1.34 2.01 -0.68 1.02 0 0 Z " transform="translate(279,1467)"/>
<path d="M0 0 C-0.33 0.99 -0.66 1.98 -1 3 C-1.99 3 -2.98 3 -4 3 C-4.33 3.66 -4.66 4.32 -5 5 C-6.32 4.67 -7.64 4.34 -9 4 C-6.43425105 1.43425105 -3.68548192 0 0 0 Z " transform="translate(2325,1458)"/>
<path d="M0 0 C0.33 0 0.66 0 1 0 C1.33 3.3 1.66 6.6 2 10 C1.01 10.33 0.02 10.66 -1 11 C-0.67 7.37 -0.34 3.74 0 0 Z " transform="translate(1,1449)"/>
<path d="M0 0 C-1.125 1.5625 -1.125 1.5625 -3 3 C-6.1875 2.6875 -6.1875 2.6875 -9 2 C-3.42857143 -1.71428571 -3.42857143 -1.71428571 0 0 Z " transform="translate(2171,1077)"/>
<path d="M0 0 C0.99 0.99 1.98 1.98 3 3 C2.01 3.33 1.02 3.66 0 4 C-0.33 3.01 -0.66 2.02 -1 1 C-0.67 0.67 -0.34 0.34 0 0 Z M-2 4 C-1.01 4.33 -0.02 4.66 1 5 C0.67 5.66 0.34 6.32 0 7 C-1.32 7 -2.64 7 -4 7 C-4 6.34 -4 5.68 -4 5 C-3.34 4.67 -2.68 4.34 -2 4 Z " transform="translate(1866,642)"/>
<path d="M0 0 C0.66 0.33 1.32 0.66 2 1 C-1.625 4 -1.625 4 -5 4 C-5.33 4.66 -5.66 5.32 -6 6 C-6.33 5.01 -6.66 4.02 -7 3 C-4.69631264 1.93347808 -2.35981813 0.93578995 0 0 Z " transform="translate(870,579)"/>
<path d="M0 0 C0.66 0.33 1.32 0.66 2 1 C2 2.32 2 3.64 2 5 C0.125 5.625 0.125 5.625 -2 6 C-2.66 5.34 -3.32 4.68 -4 4 C-3.34 3.67 -2.68 3.34 -2 3 C-2.33 2.34 -2.66 1.68 -3 1 C-2.01 0.67 -1.02 0.34 0 0 Z " transform="translate(1302,502)"/>
<path d="M0 0 C2.0625 0.4375 2.0625 0.4375 4 1 C2.71034824 2.37562854 1.37310707 3.70766393 0 5 C-0.66 5 -1.32 5 -2 5 C-1.125 1.125 -1.125 1.125 0 0 Z " transform="translate(683,269)"/>
<path d="M0 0 C0.66 0.33 1.32 0.66 2 1 C-0.36292656 3.52588702 -1.66462511 4.88820837 -5 6 C-5.33 5.01 -5.66 4.02 -6 3 C-4.03533587 1.93224776 -2.03144641 0.93446535 0 0 Z " transform="translate(791,153)"/>
<path d="M0 0 C2.49361571 1.20381448 4.68143083 2.45428722 7 4 C2.545 4.495 2.545 4.495 -2 5 C-1.34 3.35 -0.68 1.7 0 0 Z " transform="translate(1157,81)"/>
<path d="M0 0 C2.64 0 5.28 0 8 0 C8 0.66 8 1.32 8 2 C5.04335481 3.4783226 2.25770263 3.06032783 -1 3 C-0.67 2.01 -0.34 1.02 0 0 Z " transform="translate(1474,50)"/>
<path d="M0 0 C2.0625 0.4375 2.0625 0.4375 4 1 C4 1.99 4 2.98 4 4 C2.35 4 0.7 4 -1 4 C-1 1 -1 1 0 0 Z " transform="translate(1548,0)"/>
<path d="M0 0 C0.66 0.33 1.32 0.66 2 1 C1.67 1.99 1.34 2.98 1 4 C-1.47739354 4.90837763 -3.33579484 5 -6 5 C-4.02 3.35 -2.04 1.7 0 0 Z " transform="translate(1359,465)"/>
<path d="M0 0 C0.66 0.33 1.32 0.66 2 1 C1.2884375 1.6496875 1.2884375 1.6496875 0.5625 2.3125 C-1.23686957 4.02309613 -1.23686957 4.02309613 -2 7 C-3.32 6.34 -4.64 5.68 -6 5 C-4.02 3.35 -2.04 1.7 0 0 Z " transform="translate(551,362)"/>
<path d="M0 0 C0.66 0.33 1.32 0.66 2 1 C-0.31 2.65 -2.62 4.3 -5 6 C-5 5.34 -5 4.68 -5 4 C-5.66 3.67 -6.32 3.34 -7 3 C-4.69631264 1.93347808 -2.35981813 0.93578995 0 0 Z " transform="translate(858,182)"/>
<path d="M0 0 C0.66 0.33 1.32 0.66 2 1 C1.67 1.99 1.34 2.98 1 4 C-0.65 4.33 -2.3 4.66 -4 5 C-4.33 4.01 -4.66 3.02 -5 2 C-2.625 0.9375 -2.625 0.9375 0 0 Z " transform="translate(868,178)"/>
<path d="M0 0 C0.66 0.33 1.32 0.66 2 1 C0.02 1.99 0.02 1.99 -2 3 C-1.67 3.66 -1.34 4.32 -1 5 C-2.32 5.33 -3.64 5.66 -5 6 C-5 4.68 -5 3.36 -5 2 C-2.625 0.9375 -2.625 0.9375 0 0 Z " transform="translate(1012,124)"/>
</g>
</svg>