<svg viewBox="0 0 2816 1536" xmlns="http://www.w3.org/2000/svg">
<g fill="#4FD1C5"><path id="path0" d="M88.167 0.476 C 80.125 3.104,74.043 10.872,73.075 19.750 L 72.966 20.750 66.275 20.751 C 62.595 20.752,56.733 20.862,53.250 20.997 C 40.160 21.502,34.525 21.345,29.500 20.335 C 23.167 19.062,16.818 19.086,7.917 20.419 C 7.000 20.556,5.626 20.735,4.863 20.817 C 1.110 21.219,-0.862 23.871,0.425 26.787 C 1.382 28.956,2.746 29.696,7.417 30.578 C 13.432 31.714,15.472 32.290,19.890 34.099 C 24.227 35.875,27.552 36.281,31.167 35.474 C 34.215 34.794,35.220 34.899,45.000 36.920 C 46.604 37.252,48.667 37.665,49.583 37.838 C 50.500 38.012,52.675 38.452,54.417 38.817 C 57.650 39.495,64.823 40.752,68.417 41.272 C 70.483 41.571,77.188 41.685,81.859 41.500 C 84.642 41.390,84.729 41.468,87.036 46.182 C 88.277 48.718,88.712 49.317,89.760 49.931 C 91.047 50.686,93.207 50.635,94.347 49.823 C 94.896 49.433,95.792 49.408,96.630 49.761 C 105.667 53.566,107.974 52.721,112.422 43.976 C 112.968 42.903,113.167 42.833,115.688 42.833 L 116.996 42.833 117.913 43.663 C 120.420 45.933,123.841 50.460,126.922 55.583 C 132.468 64.806,138.800 67.967,148.445 66.329 L 150.432 65.992 153.341 67.177 C 159.373 69.634,162.051 70.226,171.793 71.257 C 175.255 71.623,178.151 72.298,184.793 74.287 C 188.145 75.291,187.834 74.802,187.573 78.667 C 187.087 85.868,187.161 96.028,187.746 102.583 C 188.250 108.224,188.518 110.225,189.606 116.500 C 190.349 120.782,190.509 122.485,190.668 127.833 C 190.876 134.834,191.193 137.048,192.779 142.583 C 193.889 146.455,193.904 146.614,194.087 156.500 C 194.138 159.204,194.286 163.254,194.417 165.500 C 194.548 167.746,194.808 172.358,194.995 175.750 C 195.181 179.142,195.419 182.999,195.523 184.322 C 196.029 190.776,195.008 196.720,193.073 198.584 C 190.161 201.389,180.448 205.944,174.583 207.254 C 168.864 208.531,167.303 214.791,172.000 217.614 L 172.917 218.165 181.750 218.163 C 188.844 218.161,190.862 218.111,192.000 217.910 C 194.575 217.457,199.540 217.412,202.374 217.816 C 205.923 218.323,208.934 218.299,210.726 217.752 C 215.774 216.209,217.958 211.517,216.388 205.587 C 214.046 196.738,214.279 190.029,217.437 175.417 C 220.009 163.518,220.080 163.027,220.078 157.167 C 220.076 151.604,219.579 147.690,218.217 142.500 C 217.773 140.810,217.116 137.979,216.934 136.970 C 216.710 135.734,217.436 129.329,218.182 125.948 C 218.832 123.003,219.532 119.896,220.105 117.417 C 221.409 111.773,221.692 110.343,222.732 104.167 C 223.825 97.674,224.667 90.939,225.432 82.565 L 225.723 79.380 227.320 79.274 C 228.198 79.216,229.937 79.168,231.184 79.168 C 242.690 79.163,258.970 77.045,273.333 73.684 C 274.924 73.312,276.032 73.155,280.583 72.658 C 286.178 72.047,291.959 70.430,296.333 68.253 C 299.222 66.816,304.754 65.645,312.500 64.833 C 314.287 64.645,316.612 64.382,317.667 64.247 C 318.721 64.112,321.758 63.738,324.417 63.417 C 327.075 63.095,330.750 62.647,332.583 62.420 C 334.417 62.194,337.454 61.855,339.333 61.667 C 341.212 61.478,343.613 61.237,344.667 61.130 C 348.259 60.766,360.501 60.861,364.750 61.286 C 369.785 61.789,375.063 61.999,381.667 61.958 L 387.250 61.924 390.654 62.645 C 395.521 63.676,397.228 63.358,398.946 61.100 C 402.876 55.932,396.374 49.041,383.750 44.993 C 380.525 43.959,379.490 43.432,377.000 41.554 C 368.752 35.334,364.680 35.022,359.440 40.209 C 357.757 41.874,357.461 42.100,356.645 42.351 C 354.080 43.138,345.289 42.665,335.917 41.236 C 325.697 39.677,323.820 39.472,318.946 39.377 C 311.515 39.233,306.109 39.997,296.000 42.620 C 294.396 43.036,291.846 43.697,290.333 44.090 C 285.187 45.424,278.848 45.533,271.000 44.422 C 269.063 44.148,264.835 43.643,261.250 43.257 C 257.231 42.824,251.162 42.492,244.333 42.331 C 235.571 42.125,234.597 41.970,232.380 40.422 C 221.970 33.154,212.575 31.912,199.400 36.060 C 191.339 38.598,185.439 37.603,172.688 31.557 C 171.463 30.976,170.438 30.500,170.411 30.500 C 170.383 30.500,168.723 29.704,166.722 28.732 C 153.251 22.186,150.080 20.767,146.333 19.609 C 138.636 17.232,131.940 16.666,124.534 17.769 C 120.523 18.367,117.832 16.885,115.420 12.750 C 111.168 5.463,107.836 2.335,102.344 0.476 L 100.937 0.000 95.260 0.006 L 89.583 0.013 88.167 0.476 M99.333 4.816 C 104.050 6.018,107.660 9.183,110.662 14.750 C 111.651 16.584,112.342 17.622,113.246 18.627 L 114.015 19.482 113.382 19.658 C 108.817 20.923,104.413 21.509,96.250 21.934 C 86.746 22.430,84.458 22.430,81.306 21.936 C 79.779 21.696,78.447 21.500,78.348 21.500 C 77.944 21.500,78.182 19.461,78.862 17.083 C 81.460 8.004,90.524 2.573,99.333 4.816 M138.417 22.898 C 145.234 24.200,148.140 25.331,161.583 31.915 C 184.243 43.012,189.835 44.236,201.583 40.667 C 212.521 37.345,220.028 38.252,228.192 43.881 C 232.542 46.880,233.352 47.077,242.417 47.333 C 253.103 47.634,259.594 48.105,268.917 49.253 C 281.198 50.766,286.054 50.617,293.616 48.495 C 297.606 47.376,301.095 46.540,306.117 45.503 C 310.721 44.552,311.979 44.434,317.583 44.433 C 323.110 44.431,324.069 44.512,330.417 45.508 C 342.305 47.373,349.980 48.066,354.595 47.690 C 358.773 47.350,359.835 46.906,362.362 44.441 C 366.290 40.609,368.028 40.794,374.000 45.677 C 376.318 47.572,378.557 48.670,383.333 50.255 C 388.419 51.941,390.169 52.859,392.711 55.172 C 395.278 57.508,395.470 58.732,393.167 58.084 C 389.621 57.087,386.940 56.789,382.083 56.854 C 373.755 56.964,372.031 56.892,361.083 55.978 C 354.007 55.388,344.850 55.857,331.583 57.489 C 327.917 57.940,323.829 58.430,322.500 58.577 C 301.284 60.933,300.335 61.118,292.083 64.504 C 286.729 66.701,283.565 67.462,278.203 67.842 C 275.793 68.013,274.981 68.159,266.698 69.906 C 244.272 74.637,217.042 75.579,198.917 72.252 C 198.183 72.118,197.021 71.930,196.333 71.834 C 194.236 71.543,190.578 70.696,187.333 69.751 C 179.896 67.585,178.835 67.290,177.417 66.993 C 175.102 66.509,173.009 66.209,169.917 65.918 C 163.454 65.309,160.429 64.609,155.803 62.652 C 151.426 60.800,151.145 60.762,146.583 61.416 C 139.686 62.403,135.696 60.176,131.343 52.906 C 129.180 49.293,127.089 46.289,125.130 43.977 C 124.228 42.914,124.181 42.795,124.708 42.905 C 128.657 43.731,130.388 44.271,132.299 45.275 C 134.288 46.319,135.636 46.149,136.503 44.745 C 137.486 43.154,136.649 41.837,133.750 40.416 C 128.567 37.874,123.530 37.156,114.914 37.732 C 107.792 38.209,99.377 37.928,90.417 36.915 C 83.882 36.176,83.430 36.153,80.504 36.422 C 75.329 36.899,72.295 36.747,65.250 35.660 C 61.599 35.097,60.731 34.933,48.500 32.488 C 34.463 29.682,34.609 29.700,31.000 30.413 C 27.016 31.202,25.707 31.029,20.899 29.082 C 17.271 27.613,15.326 27.022,11.605 26.259 C 8.004 25.520,8.000 25.514,11.000 25.177 C 11.779 25.090,13.467 24.886,14.750 24.725 C 18.572 24.246,23.328 24.309,26.250 24.876 C 33.505 26.285,33.086 26.248,41.833 26.246 C 46.188 26.245,52.450 26.133,55.750 25.997 C 64.107 25.653,71.378 25.679,74.583 26.064 C 77.143 26.372,77.327 26.400,80.725 26.990 C 84.181 27.591,99.261 27.147,106.410 26.234 C 108.334 25.989,109.330 25.794,116.000 24.358 C 125.989 22.209,132.566 21.780,138.417 22.898 M94.500 42.414 C 95.737 42.548,99.037 42.746,101.833 42.854 C 104.629 42.963,106.970 43.097,107.034 43.152 C 107.228 43.316,105.730 45.743,105.086 46.308 C 104.270 47.025,103.691 46.988,101.250 46.061 C 96.049 44.084,94.993 43.913,93.184 44.755 C 92.690 44.985,92.259 45.148,92.228 45.117 C 92.086 44.975,90.833 42.303,90.833 42.142 C 90.833 42.025,91.080 41.999,91.542 42.067 C 91.931 42.125,93.263 42.281,94.500 42.414 M194.364 76.592 C 199.885 77.761,209.828 78.844,217.474 79.108 L 220.710 79.221 220.612 80.235 C 220.559 80.793,220.401 82.375,220.261 83.750 C 220.122 85.125,219.965 86.737,219.913 87.333 C 219.823 88.373,219.184 93.801,218.824 96.583 C 218.572 98.536,217.902 102.637,217.246 106.250 C 216.556 110.044,216.065 112.328,214.002 121.333 C 211.676 131.484,211.371 136.036,212.675 141.167 C 215.862 153.711,215.861 160.273,212.668 173.250 C 209.459 186.293,208.893 197.446,211.045 205.250 C 212.998 212.334,211.012 213.995,202.167 212.671 C 198.221 212.081,195.050 212.260,187.385 213.506 C 182.175 214.352,176.264 214.237,174.681 213.259 C 174.081 212.888,175.450 212.198,177.667 211.755 C 180.563 211.177,185.299 209.131,191.167 205.924 C 200.855 200.629,201.597 197.577,199.759 170.583 C 199.444 165.947,199.204 159.743,199.077 152.917 C 198.941 145.634,198.755 144.161,197.436 139.949 C 196.280 136.258,196.001 134.283,195.831 128.583 C 195.645 122.337,195.359 119.735,193.920 111.167 C 192.819 104.610,192.135 94.985,192.263 87.833 C 192.327 84.251,192.650 76.899,192.759 76.542 C 192.840 76.278,192.892 76.280,194.364 76.592 " stroke="none" fill-rule="evenodd"></path><path id="path1" d="M0.007 12.125 C 0.014 22.444,0.048 24.157,0.237 23.627 C 1.053 21.340,1.915 20.998,9.000 20.151 C 18.770 18.982,23.488 18.921,28.043 19.904 C 34.140 21.219,40.717 21.422,56.169 20.770 C 60.580 20.584,65.265 20.488,68.124 20.524 L 72.825 20.583 72.926 19.833 C 73.813 13.248,76.385 8.322,80.954 4.460 C 83.105 2.642,86.698 0.600,88.499 0.172 C 88.820 0.096,69.040 0.026,44.542 0.017 L 0.000 0.000 0.007 12.125 M101.750 0.114 C 106.514 1.184,111.017 5.101,114.840 11.500 C 117.705 16.295,120.033 18.084,123.000 17.773 C 123.504 17.720,125.004 17.564,126.333 17.426 C 132.607 16.778,138.781 17.290,144.583 18.940 C 147.270 19.705,147.725 19.855,149.667 20.618 C 151.674 21.406,152.129 21.608,155.472 23.193 C 156.602 23.728,157.563 24.167,157.606 24.167 C 157.649 24.167,159.049 24.835,160.717 25.651 C 164.735 27.617,170.026 30.167,170.089 30.167 C 170.117 30.167,171.070 30.611,172.208 31.153 C 185.502 37.493,191.340 38.464,199.880 35.759 C 207.862 33.231,213.502 32.855,219.964 34.418 C 224.060 35.409,229.190 37.799,232.156 40.099 C 234.233 41.710,235.713 41.970,243.917 42.171 C 251.182 42.348,256.384 42.599,259.500 42.922 C 265.192 43.511,266.739 43.688,268.917 43.995 C 270.200 44.177,272.150 44.406,273.250 44.504 C 274.350 44.602,275.362 44.713,275.500 44.751 C 276.441 45.010,281.556 45.174,283.699 45.015 C 287.218 44.753,289.018 44.394,293.833 42.993 C 295.341 42.555,296.928 42.172,302.000 41.023 C 313.024 38.527,319.813 38.539,336.000 41.085 C 342.625 42.127,345.776 42.404,351.083 42.411 C 357.156 42.418,356.862 42.492,359.000 40.413 C 361.836 37.654,363.622 36.726,366.417 36.556 C 368.582 36.424,371.604 37.304,372.846 38.428 C 372.991 38.559,373.160 38.667,373.222 38.667 C 373.359 38.667,376.139 40.675,377.750 41.937 C 379.307 43.158,381.056 43.984,384.167 44.970 C 392.327 47.555,398.905 52.148,399.882 55.941 C 399.925 56.111,399.970 43.594,399.981 28.125 L 400.000 0.000 250.708 0.019 C 168.598 0.030,101.567 0.072,101.750 0.114 M91.917 4.739 C 85.162 6.315,79.685 12.121,78.593 18.862 C 78.157 21.556,77.862 21.182,80.833 21.702 C 84.766 22.391,87.682 22.351,101.667 21.417 C 105.457 21.164,113.036 19.890,113.640 19.404 C 113.671 19.379,113.288 18.877,112.789 18.289 C 112.290 17.700,111.449 16.438,110.920 15.484 C 107.441 9.209,104.388 6.404,99.500 4.994 C 97.876 4.526,93.465 4.378,91.917 4.739 M129.250 22.432 C 122.846 23.073,120.008 23.554,112.500 25.270 C 107.532 26.406,106.002 26.573,95.083 27.174 C 87.228 27.606,83.249 27.606,80.967 27.177 C 73.595 25.788,67.527 25.588,52.195 26.230 C 39.662 26.754,32.702 26.483,27.456 25.265 C 23.335 24.309,18.372 24.311,11.361 25.273 C 9.047 25.590,9.054 25.679,11.417 26.069 C 14.301 26.544,17.859 27.616,20.989 28.952 C 25.379 30.826,27.445 31.128,30.500 30.344 C 32.861 29.737,34.986 29.710,37.833 30.251 C 39.162 30.504,40.775 30.803,41.417 30.915 C 42.678 31.137,52.465 33.093,57.750 34.180 C 62.114 35.078,69.432 36.174,73.250 36.502 C 75.211 36.670,76.386 36.627,80.583 36.234 C 82.589 36.047,83.643 36.025,84.833 36.148 C 85.704 36.237,88.592 36.537,91.250 36.814 C 100.382 37.765,109.597 38.017,116.667 37.508 C 124.410 36.951,130.887 38.225,135.558 41.225 C 137.069 42.196,137.432 43.740,136.451 45.029 C 135.386 46.427,134.290 46.462,131.725 45.182 C 130.121 44.381,126.140 43.167,125.118 43.167 C 124.642 43.167,124.589 43.086,127.143 46.261 C 127.718 46.976,130.603 51.370,131.667 53.150 C 135.877 60.199,140.114 62.380,147.241 61.170 C 150.742 60.576,151.964 60.722,154.917 62.091 C 159.352 64.148,162.993 65.089,168.469 65.594 C 173.944 66.098,178.581 66.927,181.917 67.997 C 182.467 68.174,183.854 68.587,185.000 68.917 C 186.146 69.246,187.533 69.660,188.083 69.836 C 190.619 70.651,196.272 71.747,202.583 72.649 C 206.031 73.141,208.662 73.372,216.083 73.832 C 231.160 74.766,250.524 73.245,265.917 69.918 C 267.810 69.508,268.455 69.375,273.250 68.403 C 274.998 68.048,277.237 67.734,279.096 67.582 C 282.250 67.324,282.802 67.242,285.250 66.669 C 287.424 66.161,289.177 65.537,293.917 63.585 C 297.057 62.292,300.308 61.318,303.000 60.862 C 305.904 60.371,307.581 60.130,310.135 59.835 C 317.579 58.977,323.303 58.320,325.417 58.083 C 326.700 57.940,328.875 57.675,330.250 57.497 C 332.788 57.166,334.925 56.918,340.167 56.342 C 344.575 55.858,351.552 55.601,357.000 55.722 C 361.663 55.826,362.716 55.893,368.417 56.450 C 370.575 56.660,373.216 56.732,379.500 56.751 C 388.268 56.777,388.667 56.805,392.143 57.654 C 394.813 58.306,395.009 58.241,394.170 56.974 C 392.545 54.520,388.817 52.189,384.083 50.665 C 378.651 48.917,376.757 48.004,373.891 45.757 C 367.680 40.887,366.014 40.748,362.162 44.778 C 360.620 46.393,360.275 46.619,358.523 47.168 C 355.753 48.035,350.804 48.223,345.536 47.661 C 341.885 47.271,336.821 46.650,335.371 46.415 C 334.520 46.277,332.983 46.049,331.954 45.908 C 330.925 45.767,329.558 45.548,328.917 45.420 C 324.660 44.571,315.143 44.299,310.583 44.894 C 307.493 45.298,302.437 46.363,297.250 47.703 C 284.623 50.965,282.338 51.094,268.333 49.326 C 266.271 49.066,263.308 48.735,261.750 48.591 C 260.192 48.448,258.630 48.291,258.279 48.244 C 257.223 48.102,248.198 47.689,243.833 47.583 C 234.997 47.368,232.127 46.859,229.659 45.068 C 220.704 38.567,212.665 37.319,201.833 40.746 C 193.165 43.489,187.540 43.223,178.083 39.623 C 176.291 38.941,172.164 37.165,170.279 36.265 C 169.438 35.864,168.150 35.254,167.417 34.909 C 166.683 34.565,163.959 33.245,161.363 31.975 C 158.766 30.705,156.612 29.667,156.576 29.667 C 156.540 29.667,155.252 29.059,153.714 28.316 C 148.166 25.637,145.784 24.749,141.001 23.578 C 137.754 22.783,131.673 22.190,129.250 22.432 M0.017 122.208 L 0.000 218.167 86.208 218.157 C 152.984 218.149,172.342 218.102,172.083 217.949 C 168.870 216.035,168.204 211.399,170.783 208.894 C 171.619 208.080,173.336 207.314,175.167 206.937 C 179.085 206.130,181.634 205.061,188.917 201.171 C 192.826 199.083,193.948 197.942,194.572 195.417 C 195.479 191.753,195.640 188.830,195.272 182.750 C 194.114 163.620,194.021 161.759,193.835 153.907 C 193.660 146.583,193.590 145.947,192.558 142.333 C 191.809 139.714,191.157 136.772,190.822 134.500 C 190.720 133.813,190.575 130.775,190.500 127.750 C 190.361 122.211,190.104 119.656,189.252 115.333 C 187.247 105.175,186.607 91.464,187.493 77.669 C 187.661 75.054,187.724 75.268,186.713 75.006 C 186.275 74.892,185.242 74.591,184.417 74.337 C 183.592 74.082,182.204 73.678,181.333 73.439 C 180.463 73.201,179.075 72.814,178.250 72.581 C 176.210 72.004,172.367 71.388,168.932 71.087 C 165.489 70.784,161.972 70.181,159.167 69.411 C 157.155 68.858,156.481 68.613,152.333 66.924 L 150.417 66.144 148.257 66.508 C 140.295 67.850,133.237 65.182,129.122 59.275 C 128.729 58.711,127.497 56.788,126.383 55.000 C 123.960 51.109,123.270 50.123,123.085 50.291 C 123.009 50.360,122.997 50.329,123.058 50.223 C 123.285 49.825,118.653 44.219,118.285 44.447 C 118.191 44.504,118.161 44.477,118.217 44.387 C 118.273 44.297,118.019 43.948,117.654 43.611 C 116.938 42.953,115.986 42.837,113.777 43.140 L 112.970 43.250 111.938 45.250 C 110.820 47.416,110.146 48.544,109.629 49.113 C 109.438 49.322,109.352 49.562,109.425 49.680 C 109.506 49.811,109.482 49.842,109.360 49.767 C 109.255 49.702,108.983 49.836,108.753 50.065 C 106.205 52.613,103.352 52.674,97.704 50.301 C 95.928 49.555,95.308 49.530,94.000 50.152 C 91.399 51.388,88.914 50.369,87.474 47.474 C 87.230 46.984,86.717 45.946,86.334 45.167 C 85.332 43.128,84.718 42.226,84.054 41.815 C 83.415 41.420,83.772 41.419,78.340 41.832 C 73.493 42.201,66.881 41.440,55.333 39.185 C 52.153 38.564,41.579 36.419,39.250 35.922 C 35.607 35.145,34.053 35.072,31.612 35.567 C 27.334 36.433,22.585 35.822,19.083 33.954 C 17.510 33.115,13.353 31.913,9.417 31.160 C 2.800 29.894,0.915 29.002,0.211 26.805 C 0.086 26.411,0.029 54.085,0.017 122.208 M91.159 42.564 C 91.245 42.789,91.541 43.421,91.817 43.968 L 92.320 44.965 93.035 44.607 C 94.518 43.866,96.631 44.072,99.500 45.235 C 104.364 47.208,104.792 47.147,106.418 44.240 L 106.983 43.231 101.783 43.031 C 98.923 42.921,95.683 42.721,94.583 42.587 C 90.571 42.096,90.983 42.099,91.159 42.564 M399.833 59.794 C 399.833 59.956,399.572 60.476,399.253 60.950 C 397.644 63.338,395.111 63.960,391.167 62.934 C 388.385 62.211,387.208 62.129,379.000 62.090 C 374.738 62.069,370.688 61.999,370.000 61.933 C 355.081 60.502,348.159 60.660,330.583 62.833 C 328.383 63.106,324.671 63.556,322.333 63.834 C 319.996 64.112,316.921 64.487,315.500 64.667 C 314.079 64.847,311.979 65.073,310.833 65.170 C 306.441 65.540,300.450 66.779,297.667 67.894 C 296.887 68.206,295.425 68.811,294.417 69.239 C 289.383 71.375,284.171 72.641,278.917 73.003 C 276.841 73.147,274.444 73.556,270.667 74.411 C 266.532 75.348,265.823 75.500,265.585 75.500 C 265.447 75.500,265.333 75.573,265.333 75.661 C 265.333 75.750,265.238 75.786,265.122 75.742 C 265.006 75.697,264.274 75.775,263.497 75.916 C 262.096 76.169,260.022 76.518,256.000 77.179 C 252.575 77.742,245.443 78.581,242.667 78.748 C 241.704 78.806,240.054 78.922,239.000 79.005 C 237.946 79.089,235.583 79.203,233.750 79.259 C 231.917 79.315,230.004 79.386,229.500 79.417 C 228.996 79.448,227.977 79.479,227.237 79.487 L 225.891 79.500 225.698 81.625 C 225.330 85.675,224.492 93.588,224.335 94.500 C 224.248 95.004,224.061 96.374,223.920 97.544 C 223.778 98.714,223.519 100.439,223.343 101.377 C 223.167 102.316,222.974 103.496,222.912 104.000 C 222.851 104.504,222.627 105.817,222.415 106.917 C 222.203 108.017,221.983 109.254,221.927 109.667 C 221.797 110.617,220.958 114.570,220.424 116.750 C 220.031 118.354,219.679 119.878,218.754 124.000 C 217.716 128.620,217.301 131.479,217.216 134.583 L 217.135 137.583 217.830 140.397 C 218.212 141.944,218.597 143.399,218.684 143.629 C 218.972 144.387,219.979 150.708,220.158 152.884 C 220.684 159.281,220.110 164.540,217.824 174.277 C 214.733 187.439,214.253 196.388,216.218 204.250 C 218.108 211.815,216.434 216.017,210.750 217.969 C 210.406 218.087,239.794 218.144,305.125 218.154 L 400.000 218.167 400.000 138.833 C 400.000 95.200,399.962 59.500,399.917 59.500 C 399.871 59.500,399.833 59.632,399.833 59.794 M192.940 77.071 C 192.892 77.353,192.802 78.483,192.740 79.583 C 192.677 80.683,192.601 81.720,192.570 81.887 C 192.540 82.055,192.465 84.080,192.404 86.387 C 192.184 94.716,192.937 104.576,194.499 113.833 C 194.877 116.073,195.454 120.014,195.682 121.917 C 195.770 122.650,195.910 125.650,195.993 128.583 C 196.146 134.018,196.596 137.474,197.401 139.405 C 198.756 142.654,199.043 144.997,199.254 154.500 C 199.367 159.630,199.879 171.098,200.090 173.250 C 201.433 186.937,200.750 197.060,198.236 200.686 C 195.942 203.997,185.586 209.748,178.333 211.739 C 174.400 212.819,174.141 212.950,175.201 213.321 C 177.505 214.129,182.803 214.098,187.999 213.245 C 195.183 212.066,198.273 211.947,203.500 212.649 C 210.261 213.557,212.794 211.725,211.343 206.976 C 210.898 205.519,210.240 202.805,210.014 201.500 C 209.149 196.493,209.780 185.506,211.325 178.667 C 211.501 177.887,211.870 176.200,212.145 174.917 C 212.421 173.633,212.909 171.383,213.231 169.917 C 215.612 159.053,215.484 152.907,212.643 141.789 C 211.433 137.053,211.411 134.571,212.519 127.833 C 212.707 126.688,213.159 124.438,213.523 122.833 C 213.887 121.229,214.365 119.068,214.586 118.031 C 214.808 116.994,215.099 115.719,215.235 115.198 C 215.975 112.346,217.807 102.776,218.350 98.917 C 218.761 96.003,219.227 92.241,219.517 89.500 C 220.117 83.840,220.494 80.087,220.497 79.734 C 220.500 79.398,220.397 79.381,217.652 79.273 C 210.763 79.003,200.378 77.956,196.714 77.163 C 196.236 77.059,195.210 76.881,194.435 76.766 L 193.026 76.558 192.940 77.071 M193.917 217.850 C 193.183 217.927,192.433 218.019,192.250 218.055 C 192.067 218.092,194.392 218.122,197.417 218.123 C 202.565 218.125,202.821 218.111,201.417 217.910 C 199.735 217.669,195.939 217.639,193.917 217.850 " stroke="none" fill-rule="evenodd"></path><path id="path2" d="M83.577 9.208 L 82.750 10.083 83.625 9.256 C 84.106 8.801,84.500 8.408,84.500 8.381 C 84.500 8.257,84.346 8.395,83.577 9.208 M117.000 15.052 C 117.000 15.081,117.244 15.325,117.542 15.594 L 118.083 16.083 117.594 15.542 C 117.138 15.037,117.000 14.923,117.000 15.052 M63.044 20.620 C 63.297 20.658,63.672 20.657,63.877 20.617 C 64.082 20.578,63.875 20.546,63.417 20.548 C 62.958 20.549,62.791 20.581,63.044 20.620 M69.708 20.615 C 69.869 20.657,70.131 20.657,70.292 20.615 C 70.452 20.573,70.321 20.539,70.000 20.539 C 69.679 20.539,69.548 20.573,69.708 20.615 M57.960 20.785 C 58.168 20.824,58.468 20.823,58.627 20.781 C 58.786 20.739,58.617 20.707,58.250 20.709 C 57.883 20.711,57.753 20.745,57.960 20.785 M53.208 20.948 C 53.369 20.990,53.631 20.990,53.792 20.948 C 53.952 20.906,53.821 20.872,53.500 20.872 C 53.179 20.872,53.048 20.906,53.208 20.948 M64.208 25.788 C 64.552 25.824,65.115 25.824,65.458 25.788 C 65.802 25.752,65.521 25.723,64.833 25.723 C 64.146 25.723,63.865 25.752,64.208 25.788 M67.463 25.789 C 67.855 25.824,68.455 25.824,68.796 25.788 C 69.137 25.752,68.817 25.723,68.083 25.724 C 67.350 25.724,67.071 25.754,67.463 25.789 M49.958 26.284 C 50.165 26.324,50.502 26.324,50.708 26.284 C 50.915 26.245,50.746 26.212,50.333 26.212 C 49.921 26.212,49.752 26.245,49.958 26.284 M36.708 26.448 C 36.869 26.490,37.131 26.490,37.292 26.448 C 37.452 26.406,37.321 26.372,37.000 26.372 C 36.679 26.372,36.548 26.406,36.708 26.448 M44.292 26.455 C 44.681 26.490,45.319 26.490,45.708 26.455 C 46.098 26.420,45.779 26.392,45.000 26.392 C 44.221 26.392,43.902 26.420,44.292 26.455 M88.960 27.451 C 89.168 27.491,89.468 27.490,89.627 27.448 C 89.786 27.406,89.617 27.374,89.250 27.375 C 88.883 27.377,88.753 27.411,88.960 27.451 M33.875 35.115 C 34.035 35.157,34.298 35.157,34.458 35.115 C 34.619 35.073,34.487 35.039,34.167 35.039 C 33.846 35.039,33.715 35.073,33.875 35.115 M119.125 37.451 C 119.331 37.491,119.669 37.491,119.875 37.451 C 120.081 37.411,119.912 37.379,119.500 37.379 C 119.087 37.379,118.919 37.411,119.125 37.451 M121.042 37.448 C 121.202 37.490,121.465 37.490,121.625 37.448 C 121.785 37.406,121.654 37.372,121.333 37.372 C 121.013 37.372,120.881 37.406,121.042 37.448 M315.294 39.285 C 315.501 39.324,315.801 39.323,315.960 39.281 C 316.120 39.239,315.950 39.207,315.583 39.209 C 315.217 39.211,315.086 39.245,315.294 39.285 M319.627 39.285 C 319.834 39.324,320.134 39.323,320.294 39.281 C 320.453 39.239,320.283 39.207,319.917 39.209 C 319.550 39.211,319.420 39.245,319.627 39.285 M72.875 41.782 C 73.035 41.823,73.298 41.823,73.458 41.782 C 73.619 41.740,73.487 41.705,73.167 41.705 C 72.846 41.705,72.715 41.740,72.875 41.782 M241.958 42.289 C 242.348 42.324,242.985 42.324,243.375 42.289 C 243.765 42.254,243.446 42.225,242.667 42.225 C 241.887 42.225,241.569 42.254,241.958 42.289 M100.042 42.948 C 100.202 42.990,100.465 42.990,100.625 42.948 C 100.785 42.906,100.654 42.872,100.333 42.872 C 100.013 42.872,99.881 42.906,100.042 42.948 M104.294 43.118 C 104.501 43.158,104.801 43.156,104.960 43.115 C 105.120 43.073,104.950 43.040,104.583 43.042 C 104.217 43.044,104.086 43.078,104.294 43.118 M316.381 44.457 C 316.912 44.490,317.737 44.490,318.214 44.456 C 318.692 44.422,318.258 44.395,317.250 44.396 C 316.242 44.396,315.851 44.424,316.381 44.457 M240.127 47.451 C 240.334 47.491,240.634 47.490,240.794 47.448 C 240.953 47.406,240.783 47.374,240.417 47.375 C 240.050 47.377,239.920 47.411,240.127 47.451 M247.375 47.615 C 247.535 47.657,247.798 47.657,247.958 47.615 C 248.119 47.573,247.987 47.539,247.667 47.539 C 247.346 47.539,247.215 47.573,247.375 47.615 M91.794 50.618 C 92.001 50.658,92.301 50.656,92.460 50.615 C 92.620 50.573,92.450 50.540,92.083 50.542 C 91.717 50.544,91.586 50.578,91.794 50.618 M350.375 55.782 C 350.535 55.823,350.798 55.823,350.958 55.782 C 351.119 55.740,350.988 55.705,350.667 55.705 C 350.346 55.705,350.215 55.740,350.375 55.782 M350.711 60.953 C 350.964 60.991,351.339 60.990,351.544 60.951 C 351.749 60.911,351.542 60.880,351.083 60.881 C 350.625 60.882,350.457 60.915,350.711 60.953 M220.875 74.115 C 221.035 74.157,221.298 74.157,221.458 74.115 C 221.619 74.073,221.487 74.039,221.167 74.039 C 220.846 74.039,220.715 74.073,220.875 74.115 M218.208 79.282 C 218.369 79.323,218.631 79.323,218.792 79.282 C 218.952 79.240,218.821 79.205,218.500 79.205 C 218.179 79.205,218.048 79.240,218.208 79.282 M232.294 79.285 C 232.501 79.324,232.801 79.323,232.960 79.281 C 233.120 79.239,232.950 79.207,232.583 79.209 C 232.217 79.211,232.086 79.245,232.294 79.285 M187.048 89.583 C 187.049 90.042,187.081 90.209,187.120 89.956 C 187.158 89.703,187.157 89.328,187.117 89.123 C 187.078 88.918,187.046 89.125,187.048 89.583 M187.205 95.833 C 187.205 96.154,187.240 96.285,187.282 96.125 C 187.323 95.965,187.323 95.702,187.282 95.542 C 187.240 95.381,187.205 95.513,187.205 95.833 M190.542 125.417 C 190.544 125.783,190.578 125.914,190.618 125.706 C 190.658 125.499,190.656 125.199,190.615 125.040 C 190.573 124.880,190.540 125.050,190.542 125.417 M199.039 149.333 C 199.039 149.654,199.073 149.785,199.115 149.625 C 199.157 149.465,199.157 149.202,199.115 149.042 C 199.073 148.881,199.039 149.012,199.039 149.333 M193.883 154.667 C 193.883 155.171,193.915 155.377,193.953 155.125 C 193.991 154.873,193.991 154.460,193.953 154.208 C 193.915 153.956,193.883 154.162,193.883 154.667 M214.872 154.500 C 214.872 154.821,214.906 154.952,214.948 154.792 C 214.990 154.631,214.990 154.369,214.948 154.208 C 214.906 154.048,214.872 154.179,214.872 154.500 M199.205 157.500 C 199.205 157.821,199.240 157.952,199.282 157.792 C 199.323 157.631,199.323 157.369,199.282 157.208 C 199.240 157.048,199.205 157.179,199.205 157.500 M199.375 162.083 C 199.377 162.450,199.411 162.580,199.451 162.373 C 199.491 162.166,199.490 161.866,199.448 161.706 C 199.406 161.547,199.374 161.717,199.375 162.083 M214.885 193.583 C 214.886 194.133,214.917 194.338,214.954 194.039 C 214.991 193.739,214.990 193.289,214.952 193.039 C 214.914 192.788,214.884 193.033,214.885 193.583 M214.875 196.583 C 214.877 196.950,214.911 197.080,214.951 196.873 C 214.991 196.666,214.990 196.366,214.948 196.206 C 214.906 196.047,214.874 196.217,214.875 196.583 M196.377 217.620 C 196.631 217.658,197.006 217.657,197.211 217.617 C 197.416 217.578,197.208 217.546,196.750 217.548 C 196.292 217.549,196.124 217.581,196.377 217.620 M198.128 217.621 C 198.428 217.658,198.878 217.657,199.128 217.619 C 199.378 217.581,199.133 217.551,198.583 217.552 C 198.033 217.553,197.828 217.584,198.128 217.621 " stroke="none" fill-rule="evenodd"></path><path id="path3" d="M94.542 4.455 C 94.885 4.491,95.448 4.491,95.792 4.455 C 96.135 4.419,95.854 4.389,95.167 4.389 C 94.479 4.389,94.198 4.419,94.542 4.455 M110.493 5.542 C 111.184 6.278,111.333 6.410,111.333 6.285 C 111.333 6.258,110.977 5.902,110.542 5.493 L 109.750 4.750 110.493 5.542 M16.042 19.448 C 16.202 19.490,16.465 19.490,16.625 19.448 C 16.785 19.406,16.654 19.372,16.333 19.372 C 16.012 19.372,15.881 19.406,16.042 19.448 M60.955 20.620 C 61.250 20.657,61.775 20.658,62.121 20.622 C 62.467 20.586,62.225 20.555,61.583 20.555 C 60.942 20.554,60.659 20.583,60.955 20.620 M70.794 20.618 C 71.001 20.658,71.301 20.656,71.460 20.615 C 71.620 20.573,71.450 20.540,71.083 20.542 C 70.717 20.544,70.586 20.578,70.794 20.618 M56.544 20.786 C 56.797 20.825,57.172 20.824,57.377 20.784 C 57.582 20.744,57.375 20.713,56.917 20.714 C 56.458 20.716,56.291 20.748,56.544 20.786 M52.208 20.948 C 52.369 20.990,52.631 20.990,52.792 20.948 C 52.952 20.906,52.821 20.872,52.500 20.872 C 52.179 20.872,52.048 20.906,52.208 20.948 M47.460 21.118 C 47.668 21.158,47.968 21.156,48.127 21.115 C 48.286 21.073,48.117 21.040,47.750 21.042 C 47.383 21.044,47.253 21.078,47.460 21.118 M39.216 21.291 C 39.931 21.322,41.056 21.322,41.716 21.290 C 42.376 21.259,41.792 21.233,40.417 21.233 C 39.042 21.234,38.501 21.259,39.216 21.291 M102.208 21.448 C 102.369 21.490,102.631 21.490,102.792 21.448 C 102.952 21.406,102.821 21.372,102.500 21.372 C 102.179 21.372,102.048 21.406,102.208 21.448 M99.542 21.615 C 99.702 21.657,99.965 21.657,100.125 21.615 C 100.285 21.573,100.154 21.539,99.833 21.539 C 99.513 21.539,99.381 21.573,99.542 21.615 M1.073 22.208 L 0.583 22.750 1.125 22.260 C 1.630 21.804,1.743 21.667,1.615 21.667 C 1.586 21.667,1.342 21.910,1.073 22.208 M96.542 21.782 C 96.702 21.823,96.965 21.823,97.125 21.782 C 97.285 21.740,97.154 21.705,96.833 21.705 C 96.513 21.705,96.381 21.740,96.542 21.782 M85.201 22.290 C 85.816 22.322,86.866 22.322,87.534 22.291 C 88.203 22.259,87.700 22.233,86.417 22.232 C 85.133 22.232,84.586 22.258,85.201 22.290 M60.125 25.951 C 60.331 25.991,60.669 25.991,60.875 25.951 C 61.081 25.911,60.913 25.879,60.500 25.879 C 60.087 25.879,59.919 25.911,60.125 25.951 M55.627 26.118 C 55.834 26.158,56.134 26.156,56.294 26.115 C 56.453 26.073,56.283 26.040,55.917 26.042 C 55.550 26.044,55.420 26.078,55.627 26.118 M51.292 26.284 C 51.498 26.324,51.835 26.324,52.042 26.284 C 52.248 26.245,52.079 26.212,51.667 26.212 C 51.254 26.212,51.085 26.245,51.292 26.284 M46.711 26.453 C 46.964 26.491,47.339 26.490,47.544 26.451 C 47.749 26.411,47.542 26.380,47.083 26.381 C 46.625 26.382,46.457 26.415,46.711 26.453 M102.125 26.784 C 102.331 26.824,102.669 26.824,102.875 26.784 C 103.081 26.745,102.912 26.712,102.500 26.712 C 102.087 26.712,101.919 26.745,102.125 26.784 M82.795 36.121 C 83.094 36.158,83.544 36.157,83.795 36.119 C 84.045 36.081,83.800 36.051,83.250 36.052 C 82.700 36.053,82.495 36.084,82.795 36.121 M73.542 36.615 C 73.702 36.657,73.965 36.657,74.125 36.615 C 74.285 36.573,74.154 36.539,73.833 36.539 C 73.512 36.539,73.381 36.573,73.542 36.615 M76.292 36.618 C 76.498 36.657,76.835 36.657,77.042 36.618 C 77.248 36.578,77.079 36.545,76.667 36.545 C 76.254 36.545,76.085 36.578,76.292 36.618 M190.961 37.287 C 191.261 37.325,191.711 37.324,191.961 37.286 C 192.212 37.248,191.967 37.217,191.417 37.218 C 190.867 37.219,190.662 37.250,190.961 37.287 M118.042 37.448 C 118.202 37.490,118.465 37.490,118.625 37.448 C 118.785 37.406,118.654 37.372,118.333 37.372 C 118.013 37.372,117.881 37.406,118.042 37.448 M103.375 37.789 C 103.810 37.824,104.523 37.824,104.958 37.789 C 105.394 37.755,105.037 37.727,104.167 37.727 C 103.296 37.727,102.940 37.755,103.375 37.789 M111.375 37.788 C 111.719 37.824,112.281 37.824,112.625 37.788 C 112.969 37.752,112.688 37.723,112.000 37.723 C 111.313 37.723,111.031 37.752,111.375 37.788 M210.125 38.951 C 210.331 38.991,210.669 38.991,210.875 38.951 C 211.081 38.911,210.912 38.879,210.500 38.879 C 210.088 38.879,209.919 38.911,210.125 38.951 M314.208 39.282 C 314.369 39.323,314.631 39.323,314.792 39.282 C 314.952 39.240,314.821 39.205,314.500 39.205 C 314.179 39.205,314.048 39.240,314.208 39.282 M358.409 41.042 L 357.750 41.750 358.458 41.091 C 359.117 40.478,359.243 40.333,359.117 40.333 C 359.090 40.333,358.771 40.652,358.409 41.042 M82.542 41.448 C 82.702 41.490,82.965 41.490,83.125 41.448 C 83.285 41.406,83.154 41.372,82.833 41.372 C 82.512 41.372,82.381 41.406,82.542 41.448 M71.794 41.785 C 72.001 41.824,72.301 41.823,72.460 41.781 C 72.620 41.739,72.450 41.707,72.083 41.709 C 71.717 41.711,71.586 41.745,71.794 41.785 M75.125 41.955 C 75.515 41.990,76.152 41.990,76.542 41.955 C 76.931 41.920,76.612 41.892,75.833 41.892 C 75.054 41.892,74.735 41.920,75.125 41.955 M244.708 42.289 C 245.144 42.324,245.856 42.324,246.292 42.289 C 246.727 42.255,246.371 42.227,245.500 42.227 C 244.629 42.227,244.273 42.255,244.708 42.289 M250.958 42.451 C 251.165 42.491,251.502 42.491,251.708 42.451 C 251.915 42.411,251.746 42.379,251.333 42.379 C 250.921 42.379,250.752 42.411,250.958 42.451 M191.292 42.621 C 191.590 42.658,192.077 42.658,192.375 42.621 C 192.673 42.584,192.429 42.553,191.833 42.553 C 191.237 42.553,190.994 42.584,191.292 42.621 M254.125 42.618 C 254.331 42.657,254.669 42.657,254.875 42.618 C 255.081 42.578,254.912 42.545,254.500 42.545 C 254.088 42.545,253.919 42.578,254.125 42.618 M350.625 42.624 C 351.381 42.655,352.619 42.655,353.375 42.624 C 354.131 42.593,353.512 42.568,352.000 42.568 C 350.488 42.568,349.869 42.593,350.625 42.624 M96.375 42.782 C 96.535 42.823,96.798 42.823,96.958 42.782 C 97.119 42.740,96.987 42.705,96.667 42.705 C 96.346 42.705,96.215 42.740,96.375 42.782 M257.042 42.782 C 257.202 42.823,257.465 42.823,257.625 42.782 C 257.785 42.740,257.654 42.705,257.333 42.705 C 257.012 42.705,256.881 42.740,257.042 42.782 M98.711 42.953 C 98.964 42.991,99.339 42.990,99.544 42.951 C 99.749 42.911,99.542 42.880,99.083 42.881 C 98.625 42.882,98.457 42.915,98.711 42.953 M102.958 43.118 C 103.165 43.157,103.502 43.157,103.708 43.118 C 103.915 43.078,103.746 43.045,103.333 43.045 C 102.921 43.045,102.752 43.078,102.958 43.118 M112.938 43.132 C 112.893 43.204,113.133 43.236,113.470 43.203 C 114.392 43.112,114.502 43.028,113.718 43.013 C 113.334 43.006,112.983 43.059,112.938 43.132 M118.145 44.057 C 118.247 44.180,118.275 44.349,118.207 44.432 C 118.139 44.515,118.153 44.526,118.238 44.456 C 118.324 44.386,118.624 44.535,118.905 44.788 C 119.207 45.059,119.146 44.958,118.758 44.541 C 118.145 43.883,117.725 43.552,118.145 44.057 M321.042 44.615 C 321.202 44.657,321.465 44.657,321.625 44.615 C 321.785 44.573,321.654 44.539,321.333 44.539 C 321.012 44.539,320.881 44.573,321.042 44.615 M279.042 45.115 C 279.202 45.157,279.465 45.157,279.625 45.115 C 279.785 45.073,279.654 45.039,279.333 45.039 C 279.012 45.039,278.881 45.073,279.042 45.115 M282.875 45.115 C 283.035 45.157,283.298 45.157,283.458 45.115 C 283.619 45.073,283.487 45.039,283.167 45.039 C 282.846 45.039,282.715 45.073,282.875 45.115 M238.960 47.451 C 239.168 47.491,239.468 47.490,239.627 47.448 C 239.786 47.406,239.617 47.374,239.250 47.375 C 238.883 47.377,238.753 47.411,238.960 47.451 M245.375 47.621 C 245.719 47.657,246.281 47.657,246.625 47.621 C 246.969 47.585,246.688 47.556,246.000 47.556 C 245.313 47.556,245.031 47.585,245.375 47.621 M249.544 47.786 C 249.797 47.825,250.172 47.824,250.377 47.784 C 250.582 47.744,250.375 47.713,249.917 47.714 C 249.458 47.716,249.291 47.748,249.544 47.786 M346.792 47.784 C 346.998 47.824,347.335 47.824,347.542 47.784 C 347.748 47.745,347.579 47.712,347.167 47.712 C 346.754 47.712,346.585 47.745,346.792 47.784 M253.042 47.953 C 253.294 47.991,253.706 47.991,253.958 47.953 C 254.210 47.915,254.004 47.883,253.500 47.883 C 252.996 47.883,252.790 47.915,253.042 47.953 M350.708 47.957 C 351.419 47.988,352.581 47.988,353.292 47.957 C 354.002 47.926,353.421 47.900,352.000 47.900 C 350.579 47.900,349.998 47.926,350.708 47.957 M280.792 50.455 C 281.181 50.490,281.819 50.490,282.208 50.455 C 282.598 50.420,282.279 50.392,281.500 50.392 C 280.721 50.392,280.402 50.420,280.792 50.455 M396.917 52.000 C 397.368 52.458,397.775 52.833,397.821 52.833 C 397.867 52.833,397.535 52.458,397.083 52.000 C 396.632 51.542,396.225 51.167,396.179 51.167 C 396.133 51.167,396.465 51.542,396.917 52.000 M361.627 55.951 C 361.834 55.991,362.134 55.990,362.294 55.948 C 362.453 55.906,362.283 55.874,361.917 55.875 C 361.550 55.877,361.420 55.911,361.627 55.951 M363.875 56.115 C 364.035 56.157,364.298 56.157,364.458 56.115 C 364.619 56.073,364.488 56.039,364.167 56.039 C 363.846 56.039,363.715 56.073,363.875 56.115 M372.294 56.785 C 372.501 56.824,372.801 56.823,372.960 56.781 C 373.120 56.739,372.950 56.707,372.583 56.709 C 372.217 56.711,372.086 56.745,372.294 56.785 M130.917 61.500 C 131.368 61.958,131.775 62.333,131.821 62.333 C 131.867 62.333,131.535 61.958,131.083 61.500 C 130.632 61.042,130.225 60.667,130.179 60.667 C 130.133 60.667,130.465 61.042,130.917 61.500 M353.292 60.957 C 353.956 60.989,355.044 60.989,355.708 60.957 C 356.373 60.925,355.829 60.900,354.500 60.900 C 353.171 60.900,352.627 60.925,353.292 60.957 M348.127 61.118 C 348.334 61.158,348.634 61.156,348.794 61.115 C 348.953 61.073,348.783 61.040,348.417 61.042 C 348.050 61.044,347.920 61.078,348.127 61.118 M359.125 61.118 C 359.331 61.157,359.669 61.157,359.875 61.118 C 360.081 61.078,359.912 61.045,359.500 61.045 C 359.087 61.045,358.919 61.078,359.125 61.118 M345.211 61.286 C 345.464 61.325,345.839 61.324,346.044 61.284 C 346.249 61.244,346.042 61.213,345.583 61.214 C 345.125 61.216,344.957 61.248,345.211 61.286 M362.042 61.282 C 362.202 61.323,362.465 61.323,362.625 61.282 C 362.785 61.240,362.654 61.205,362.333 61.205 C 362.012 61.205,361.881 61.240,362.042 61.282 M368.042 61.782 C 368.202 61.823,368.465 61.823,368.625 61.782 C 368.785 61.740,368.654 61.705,368.333 61.705 C 368.012 61.705,367.881 61.740,368.042 61.782 M375.199 62.124 C 376.179 62.154,377.829 62.154,378.866 62.125 C 379.902 62.095,379.100 62.071,377.083 62.071 C 375.067 62.071,374.219 62.095,375.199 62.124 M385.542 62.115 C 385.702 62.157,385.965 62.157,386.125 62.115 C 386.285 62.073,386.154 62.039,385.833 62.039 C 385.512 62.039,385.381 62.073,385.542 62.115 M393.958 63.451 C 394.165 63.491,394.502 63.491,394.708 63.451 C 394.915 63.411,394.746 63.379,394.333 63.379 C 393.921 63.379,393.752 63.411,393.958 63.451 M279.375 67.615 C 279.535 67.657,279.798 67.657,279.958 67.615 C 280.119 67.573,279.987 67.539,279.667 67.539 C 279.346 67.539,279.215 67.573,279.375 67.615 M277.042 67.782 C 277.202 67.823,277.465 67.823,277.625 67.782 C 277.785 67.740,277.654 67.705,277.333 67.705 C 277.012 67.705,276.881 67.740,277.042 67.782 M209.375 73.448 C 209.535 73.490,209.798 73.490,209.958 73.448 C 210.119 73.406,209.987 73.372,209.667 73.372 C 209.346 73.372,209.215 73.406,209.375 73.448 M222.128 74.121 C 222.428 74.158,222.878 74.157,223.128 74.119 C 223.378 74.081,223.133 74.051,222.583 74.052 C 222.033 74.053,221.828 74.084,222.128 74.121 M229.875 74.119 C 230.127 74.158,230.540 74.158,230.792 74.119 C 231.044 74.081,230.838 74.050,230.333 74.050 C 229.829 74.050,229.623 74.081,229.875 74.119 M217.127 79.285 C 217.334 79.324,217.634 79.323,217.794 79.281 C 217.953 79.239,217.783 79.207,217.417 79.209 C 217.050 79.211,216.920 79.245,217.127 79.285 M233.544 79.286 C 233.797 79.325,234.172 79.324,234.377 79.284 C 234.582 79.244,234.375 79.213,233.917 79.214 C 233.458 79.216,233.291 79.248,233.544 79.286 M226.547 79.456 C 226.985 79.490,227.660 79.490,228.047 79.455 C 228.434 79.420,228.075 79.392,227.250 79.392 C 226.425 79.393,226.109 79.422,226.547 79.456 M187.059 87.417 C 187.059 88.242,187.087 88.600,187.122 88.213 C 187.157 87.827,187.157 87.152,187.123 86.713 C 187.088 86.275,187.060 86.592,187.059 87.417 M187.061 92.417 C 187.061 93.333,187.089 93.687,187.123 93.203 C 187.157 92.718,187.156 91.968,187.122 91.536 C 187.088 91.104,187.060 91.500,187.061 92.417 M192.379 93.500 C 192.379 93.912,192.411 94.081,192.451 93.875 C 192.491 93.669,192.491 93.331,192.451 93.125 C 192.411 92.919,192.379 93.087,192.379 93.500 M187.209 96.917 C 187.211 97.283,187.245 97.414,187.285 97.206 C 187.324 96.999,187.323 96.699,187.281 96.540 C 187.239 96.380,187.207 96.550,187.209 96.917 M192.539 97.167 C 192.539 97.487,192.573 97.619,192.615 97.458 C 192.657 97.298,192.657 97.035,192.615 96.875 C 192.573 96.715,192.539 96.846,192.539 97.167 M192.872 101.833 C 192.872 102.154,192.906 102.285,192.948 102.125 C 192.990 101.965,192.990 101.702,192.948 101.542 C 192.906 101.381,192.872 101.513,192.872 101.833 M187.705 104.333 C 187.705 104.654,187.740 104.785,187.782 104.625 C 187.823 104.465,187.823 104.202,187.782 104.042 C 187.740 103.881,187.705 104.013,187.705 104.333 M195.901 127.833 C 195.901 129.346,195.926 129.965,195.957 129.208 C 195.988 128.452,195.988 127.215,195.957 126.458 C 195.926 125.702,195.901 126.321,195.901 127.833 M190.568 129.000 C 190.568 130.512,190.593 131.131,190.624 130.375 C 190.655 129.619,190.655 128.381,190.624 127.625 C 190.593 126.869,190.568 127.487,190.568 129.000 M211.729 135.583 C 211.729 136.592,211.757 136.983,211.790 136.452 C 211.823 135.922,211.823 135.097,211.789 134.619 C 211.756 134.141,211.729 134.575,211.729 135.583 M217.061 135.750 C 217.061 136.667,217.089 137.020,217.123 136.536 C 217.157 136.052,217.156 135.302,217.122 134.869 C 217.088 134.437,217.060 134.833,217.061 135.750 M199.039 148.333 C 199.039 148.654,199.073 148.785,199.115 148.625 C 199.157 148.465,199.157 148.202,199.115 148.042 C 199.073 147.881,199.039 148.012,199.039 148.333 M193.718 148.917 C 193.719 149.467,193.750 149.672,193.787 149.372 C 193.825 149.072,193.824 148.622,193.786 148.372 C 193.748 148.122,193.717 148.367,193.718 148.917 M214.705 153.000 C 214.705 153.321,214.740 153.452,214.782 153.292 C 214.823 153.131,214.823 152.869,214.782 152.708 C 214.740 152.548,214.705 152.679,214.705 153.000 M214.875 155.583 C 214.877 155.950,214.911 156.080,214.951 155.873 C 214.991 155.666,214.990 155.366,214.948 155.206 C 214.906 155.047,214.874 155.217,214.875 155.583 M199.214 155.917 C 199.216 156.375,199.248 156.543,199.286 156.289 C 199.325 156.036,199.324 155.661,199.284 155.456 C 199.244 155.251,199.213 155.458,199.214 155.917 M193.889 156.667 C 193.889 157.354,193.919 157.635,193.955 157.292 C 193.991 156.948,193.991 156.385,193.955 156.042 C 193.919 155.698,193.889 155.979,193.889 156.667 M214.883 158.333 C 214.883 158.837,214.915 159.044,214.953 158.792 C 214.991 158.540,214.991 158.127,214.953 157.875 C 214.915 157.623,214.883 157.829,214.883 158.333 M220.205 159.667 C 220.205 159.987,220.240 160.119,220.282 159.958 C 220.323 159.798,220.323 159.535,220.282 159.375 C 220.240 159.215,220.205 159.346,220.205 159.667 M199.379 160.833 C 199.379 161.246,199.411 161.415,199.451 161.208 C 199.491 161.002,199.491 160.665,199.451 160.458 C 199.411 160.252,199.379 160.421,199.379 160.833 M194.045 161.333 C 194.045 161.746,194.078 161.915,194.118 161.708 C 194.157 161.502,194.157 161.165,194.118 160.958 C 194.078 160.752,194.045 160.921,194.045 161.333 M199.545 164.500 C 199.545 164.912,199.578 165.081,199.618 164.875 C 199.657 164.669,199.657 164.331,199.618 164.125 C 199.578 163.919,199.545 164.087,199.545 164.500 M199.714 167.917 C 199.716 168.375,199.748 168.543,199.786 168.289 C 199.825 168.036,199.824 167.661,199.784 167.456 C 199.744 167.251,199.713 167.458,199.714 167.917 M194.381 168.250 C 194.382 168.708,194.415 168.876,194.453 168.623 C 194.491 168.369,194.490 167.994,194.451 167.789 C 194.411 167.584,194.380 167.792,194.381 168.250 M194.545 171.000 C 194.545 171.412,194.578 171.581,194.618 171.375 C 194.657 171.169,194.657 170.831,194.618 170.625 C 194.578 170.419,194.545 170.587,194.545 171.000 M194.705 173.833 C 194.705 174.154,194.740 174.285,194.782 174.125 C 194.823 173.965,194.823 173.702,194.782 173.542 C 194.740 173.381,194.705 173.512,194.705 173.833 M200.205 176.000 C 200.205 176.321,200.240 176.452,200.282 176.292 C 200.323 176.131,200.323 175.869,200.282 175.708 C 200.240 175.548,200.205 175.679,200.205 176.000 M194.872 176.667 C 194.872 176.987,194.906 177.119,194.948 176.958 C 194.990 176.798,194.990 176.535,194.948 176.375 C 194.906 176.215,194.872 176.346,194.872 176.667 M200.548 181.750 C 200.549 182.208,200.581 182.376,200.620 182.123 C 200.658 181.869,200.657 181.494,200.617 181.289 C 200.578 181.084,200.546 181.292,200.548 181.750 M195.375 184.917 C 195.377 185.283,195.411 185.414,195.451 185.206 C 195.491 184.999,195.490 184.699,195.448 184.540 C 195.406 184.380,195.374 184.550,195.375 184.917 M200.736 187.667 C 200.736 189.454,200.761 190.185,200.791 189.292 C 200.821 188.398,200.821 186.935,200.791 186.042 C 200.761 185.148,200.736 185.879,200.736 187.667 M209.705 190.833 C 209.705 191.154,209.740 191.285,209.782 191.125 C 209.823 190.965,209.823 190.702,209.782 190.542 C 209.740 190.381,209.705 190.512,209.705 190.833 M215.042 191.417 C 215.044 191.783,215.078 191.914,215.118 191.706 C 215.158 191.499,215.156 191.199,215.115 191.040 C 215.073 190.880,215.040 191.050,215.042 191.417 M214.881 195.250 C 214.882 195.708,214.915 195.876,214.953 195.623 C 214.991 195.369,214.990 194.994,214.951 194.789 C 214.911 194.584,214.880 194.792,214.881 195.250 M209.542 195.250 C 209.544 195.617,209.578 195.747,209.618 195.540 C 209.658 195.332,209.656 195.032,209.615 194.873 C 209.573 194.714,209.540 194.883,209.542 195.250 M215.039 198.333 C 215.039 198.654,215.073 198.785,215.115 198.625 C 215.157 198.465,215.157 198.202,215.115 198.042 C 215.073 197.881,215.039 198.012,215.039 198.333 M217.050 209.000 C 217.050 209.504,217.081 209.710,217.119 209.458 C 217.158 209.206,217.158 208.794,217.119 208.542 C 217.081 208.290,217.050 208.496,217.050 209.000 " stroke="none" fill-rule="evenodd"></path><path id="path4" d="M80.573 4.875 L 80.083 5.417 80.625 4.927 C 80.923 4.658,81.167 4.414,81.167 4.385 C 81.167 4.257,81.029 4.370,80.573 4.875 M109.667 4.917 C 109.978 5.237,110.270 5.500,110.315 5.500 C 110.361 5.500,110.144 5.237,109.833 4.917 C 109.522 4.596,109.230 4.333,109.185 4.333 C 109.139 4.333,109.356 4.596,109.667 4.917 M129.294 17.285 C 129.501 17.324,129.801 17.323,129.960 17.281 C 130.120 17.239,129.950 17.207,129.583 17.209 C 129.217 17.211,129.086 17.245,129.294 17.285 M133.708 17.282 C 133.869 17.323,134.131 17.323,134.292 17.282 C 134.452 17.240,134.321 17.205,134.000 17.205 C 133.679 17.205,133.548 17.240,133.708 17.282 M122.708 17.948 C 122.869 17.990,123.131 17.990,123.292 17.948 C 123.452 17.906,123.321 17.872,123.000 17.872 C 122.679 17.872,122.548 17.906,122.708 17.948 M20.047 19.289 C 20.485 19.324,21.160 19.323,21.547 19.288 C 21.934 19.254,21.575 19.225,20.750 19.226 C 19.925 19.226,19.609 19.255,20.047 19.289 M13.375 19.782 C 13.535 19.823,13.798 19.823,13.958 19.782 C 14.119 19.740,13.987 19.705,13.667 19.705 C 13.346 19.705,13.215 19.740,13.375 19.782 M65.458 20.624 C 66.215 20.655,67.452 20.655,68.208 20.624 C 68.965 20.593,68.346 20.568,66.833 20.568 C 65.321 20.568,64.702 20.593,65.458 20.624 M4.708 20.782 C 4.869 20.823,5.131 20.823,5.292 20.782 C 5.452 20.740,5.321 20.705,5.000 20.705 C 4.679 20.705,4.548 20.740,4.708 20.782 M59.463 20.789 C 59.855 20.824,60.455 20.824,60.796 20.788 C 61.137 20.752,60.817 20.723,60.083 20.724 C 59.350 20.724,59.071 20.754,59.463 20.789 M71.708 20.782 C 71.869 20.823,72.131 20.823,72.292 20.782 C 72.452 20.740,72.321 20.705,72.000 20.705 C 71.679 20.705,71.548 20.740,71.708 20.782 M54.375 20.953 C 54.627 20.991,55.040 20.991,55.292 20.953 C 55.544 20.915,55.337 20.883,54.833 20.883 C 54.329 20.883,54.123 20.915,54.375 20.953 M49.461 21.121 C 49.761 21.158,50.211 21.157,50.461 21.119 C 50.712 21.081,50.467 21.051,49.917 21.052 C 49.367 21.053,49.162 21.084,49.461 21.121 M43.795 21.287 C 44.094 21.325,44.544 21.324,44.795 21.286 C 45.045 21.248,44.800 21.217,44.250 21.218 C 43.700 21.219,43.495 21.250,43.795 21.287 M101.460 21.618 C 101.668 21.658,101.968 21.656,102.127 21.615 C 102.286 21.573,102.117 21.540,101.750 21.542 C 101.383 21.544,101.253 21.578,101.460 21.618 M98.375 21.786 C 98.627 21.824,99.040 21.824,99.292 21.786 C 99.544 21.748,99.337 21.717,98.833 21.717 C 98.329 21.717,98.123 21.748,98.375 21.786 M95.127 21.951 C 95.334 21.991,95.634 21.990,95.794 21.948 C 95.953 21.906,95.783 21.874,95.417 21.875 C 95.050 21.877,94.920 21.911,95.127 21.951 M127.794 22.451 C 128.001 22.491,128.301 22.490,128.460 22.448 C 128.620 22.406,128.450 22.374,128.083 22.375 C 127.717 22.377,127.586 22.411,127.794 22.451 M18.628 24.454 C 18.928 24.491,19.378 24.490,19.628 24.452 C 19.878 24.414,19.633 24.384,19.083 24.385 C 18.533 24.386,18.328 24.417,18.628 24.454 M21.458 24.454 C 21.756 24.491,22.244 24.491,22.542 24.454 C 22.840 24.417,22.596 24.387,22.000 24.387 C 21.404 24.387,21.160 24.417,21.458 24.454 M62.375 25.786 C 62.627 25.824,63.040 25.824,63.292 25.786 C 63.544 25.748,63.337 25.717,62.833 25.717 C 62.329 25.717,62.123 25.748,62.375 25.786 M69.711 25.786 C 69.964 25.825,70.339 25.824,70.544 25.784 C 70.749 25.744,70.542 25.713,70.083 25.714 C 69.625 25.716,69.457 25.748,69.711 25.786 M58.294 25.951 C 58.501 25.991,58.801 25.990,58.960 25.948 C 59.120 25.906,58.950 25.874,58.583 25.875 C 58.217 25.877,58.086 25.911,58.294 25.951 M53.794 26.118 C 54.001 26.158,54.301 26.156,54.460 26.115 C 54.620 26.073,54.450 26.040,54.083 26.042 C 53.717 26.044,53.586 26.078,53.794 26.118 M34.794 26.285 C 35.001 26.324,35.301 26.323,35.460 26.281 C 35.620 26.239,35.450 26.207,35.083 26.209 C 34.717 26.211,34.586 26.245,34.794 26.285 M47.875 26.288 C 48.219 26.324,48.781 26.324,49.125 26.288 C 49.469 26.252,49.188 26.223,48.500 26.223 C 47.813 26.223,47.531 26.252,47.875 26.288 M39.200 26.457 C 39.997 26.488,41.347 26.488,42.200 26.458 C 43.052 26.427,42.400 26.402,40.750 26.402 C 39.100 26.402,38.402 26.427,39.200 26.457 M100.542 26.782 C 100.702 26.823,100.965 26.823,101.125 26.782 C 101.285 26.740,101.154 26.705,100.833 26.705 C 100.513 26.705,100.381 26.740,100.542 26.782 M94.208 27.115 C 94.369 27.157,94.631 27.157,94.792 27.115 C 94.952 27.073,94.821 27.039,94.500 27.039 C 94.179 27.039,94.048 27.073,94.208 27.115 M90.961 27.287 C 91.261 27.325,91.711 27.324,91.961 27.286 C 92.212 27.248,91.967 27.217,91.417 27.218 C 90.867 27.219,90.662 27.250,90.961 27.287 M84.625 27.457 C 85.381 27.488,86.619 27.488,87.375 27.457 C 88.131 27.426,87.513 27.401,86.000 27.401 C 84.487 27.401,83.869 27.426,84.625 27.457 M33.875 29.953 C 34.127 29.991,34.540 29.991,34.792 29.953 C 35.044 29.915,34.837 29.883,34.333 29.883 C 33.829 29.883,33.623 29.915,33.875 29.953 M211.381 33.623 C 211.912 33.657,212.737 33.656,213.214 33.623 C 213.692 33.589,213.258 33.562,212.250 33.562 C 211.242 33.563,210.851 33.590,211.381 33.623 M26.792 35.955 C 27.181 35.990,27.819 35.990,28.208 35.955 C 28.598 35.920,28.279 35.892,27.500 35.892 C 26.721 35.892,26.402 35.920,26.792 35.955 M81.627 36.285 C 81.834 36.324,82.134 36.323,82.294 36.281 C 82.453 36.239,82.283 36.207,81.917 36.209 C 81.550 36.211,81.420 36.245,81.627 36.285 M84.208 36.282 C 84.369 36.323,84.631 36.323,84.792 36.282 C 84.952 36.240,84.821 36.205,84.500 36.205 C 84.179 36.205,84.048 36.240,84.208 36.282 M366.461 36.621 C 366.761 36.658,367.211 36.657,367.461 36.619 C 367.712 36.581,367.467 36.551,366.917 36.552 C 366.367 36.553,366.162 36.584,366.461 36.621 M193.208 37.282 C 193.369 37.323,193.631 37.323,193.792 37.282 C 193.952 37.240,193.821 37.205,193.500 37.205 C 193.179 37.205,193.048 37.240,193.208 37.282 M100.708 37.786 C 100.960 37.824,101.373 37.824,101.625 37.786 C 101.877 37.748,101.671 37.717,101.167 37.717 C 100.662 37.717,100.456 37.748,100.708 37.786 M113.960 37.785 C 114.168 37.824,114.468 37.823,114.627 37.781 C 114.786 37.739,114.617 37.707,114.250 37.709 C 113.883 37.711,113.753 37.745,113.960 37.785 M106.208 37.958 C 107.285 37.987,109.048 37.987,110.125 37.958 C 111.202 37.929,110.321 37.905,108.167 37.905 C 106.013 37.905,105.131 37.929,106.208 37.958 M211.125 38.790 C 211.606 38.823,212.394 38.823,212.875 38.790 C 213.356 38.756,212.963 38.728,212.000 38.728 C 211.037 38.728,210.644 38.756,211.125 38.790 M316.964 39.290 C 317.448 39.324,318.198 39.323,318.631 39.289 C 319.063 39.255,318.667 39.227,317.750 39.228 C 316.833 39.228,316.480 39.256,316.964 39.290 M84.500 42.083 C 84.811 42.404,85.103 42.667,85.149 42.667 C 85.195 42.667,84.978 42.404,84.667 42.083 C 84.356 41.762,84.064 41.500,84.018 41.500 C 83.972 41.500,84.189 41.762,84.500 42.083 M74.701 41.790 C 75.316 41.822,76.366 41.822,77.034 41.791 C 77.703 41.759,77.200 41.733,75.917 41.732 C 74.633 41.732,74.086 41.758,74.701 41.790 M366.544 41.786 C 366.797 41.825,367.172 41.824,367.377 41.784 C 367.582 41.744,367.375 41.713,366.917 41.714 C 366.458 41.716,366.291 41.748,366.544 41.786 M240.042 42.286 C 240.294 42.324,240.706 42.324,240.958 42.286 C 241.210 42.248,241.004 42.217,240.500 42.217 C 239.996 42.217,239.790 42.248,240.042 42.286 M189.708 42.448 C 189.869 42.490,190.131 42.490,190.292 42.448 C 190.452 42.406,190.321 42.372,190.000 42.372 C 189.679 42.372,189.548 42.406,189.708 42.448 M248.711 42.453 C 248.964 42.491,249.339 42.490,249.544 42.451 C 249.749 42.411,249.542 42.380,249.083 42.381 C 248.625 42.382,248.457 42.415,248.711 42.453 M252.460 42.618 C 252.668 42.658,252.968 42.656,253.127 42.615 C 253.286 42.573,253.117 42.540,252.750 42.542 C 252.383 42.544,252.253 42.578,252.460 42.618 M347.708 42.615 C 347.869 42.657,348.131 42.657,348.292 42.615 C 348.452 42.573,348.321 42.539,348.000 42.539 C 347.679 42.539,347.548 42.573,347.708 42.615 M97.875 42.782 C 98.035 42.823,98.298 42.823,98.458 42.782 C 98.619 42.740,98.487 42.705,98.167 42.705 C 97.846 42.705,97.715 42.740,97.875 42.782 M255.294 42.785 C 255.501 42.824,255.801 42.823,255.960 42.781 C 256.120 42.739,255.950 42.707,255.583 42.709 C 255.217 42.711,255.086 42.745,255.294 42.785 M351.795 42.787 C 352.094 42.825,352.544 42.824,352.795 42.786 C 353.045 42.748,352.800 42.717,352.250 42.718 C 351.700 42.719,351.495 42.750,351.795 42.787 M101.295 42.954 C 101.594 42.991,102.044 42.990,102.295 42.952 C 102.545 42.914,102.300 42.884,101.750 42.885 C 101.200 42.886,100.995 42.917,101.295 42.954 M114.211 42.953 C 114.464 42.991,114.839 42.990,115.044 42.951 C 115.249 42.911,115.042 42.880,114.583 42.881 C 114.125 42.882,113.957 42.915,114.211 42.953 M257.708 42.948 C 257.869 42.990,258.131 42.990,258.292 42.948 C 258.452 42.906,258.321 42.872,258.000 42.872 C 257.679 42.872,257.548 42.906,257.708 42.948 M105.333 43.095 C 105.893 43.220,107.130 43.241,107.058 43.125 C 107.015 43.056,106.554 43.009,106.032 43.019 C 105.510 43.030,105.196 43.064,105.333 43.095 M362.494 44.292 L 361.583 45.250 362.542 44.339 C 363.432 43.493,363.576 43.333,363.453 43.333 C 363.427 43.333,362.995 43.765,362.494 44.292 M94.958 44.284 C 95.165 44.324,95.502 44.324,95.708 44.284 C 95.915 44.245,95.746 44.212,95.333 44.212 C 94.921 44.212,94.752 44.245,94.958 44.284 M314.627 44.451 C 314.834 44.491,315.134 44.490,315.294 44.448 C 315.453 44.406,315.283 44.374,314.917 44.375 C 314.550 44.377,314.420 44.411,314.627 44.451 M319.461 44.454 C 319.761 44.491,320.211 44.490,320.461 44.452 C 320.712 44.414,320.467 44.384,319.917 44.385 C 319.367 44.386,319.162 44.417,319.461 44.454 M311.875 44.615 C 312.035 44.657,312.298 44.657,312.458 44.615 C 312.619 44.573,312.487 44.539,312.167 44.539 C 311.846 44.539,311.715 44.573,311.875 44.615 M322.625 44.618 C 322.831 44.657,323.169 44.657,323.375 44.618 C 323.581 44.578,323.412 44.545,323.000 44.545 C 322.587 44.545,322.419 44.578,322.625 44.618 M242.049 47.457 C 242.671 47.489,243.646 47.489,244.215 47.457 C 244.784 47.424,244.275 47.398,243.083 47.398 C 241.892 47.398,241.426 47.425,242.049 47.457 M248.542 47.619 C 248.794 47.658,249.206 47.658,249.458 47.619 C 249.710 47.581,249.504 47.550,249.000 47.550 C 248.496 47.550,248.290 47.581,248.542 47.619 M346.294 47.618 C 346.501 47.658,346.801 47.656,346.960 47.615 C 347.120 47.573,346.950 47.540,346.583 47.542 C 346.217 47.544,346.086 47.578,346.294 47.618 M251.542 47.786 C 251.794 47.824,252.206 47.824,252.458 47.786 C 252.710 47.748,252.504 47.717,252.000 47.717 C 251.496 47.717,251.290 47.748,251.542 47.786 M348.708 47.786 C 348.960 47.824,349.373 47.824,349.625 47.786 C 349.877 47.748,349.671 47.717,349.167 47.717 C 348.662 47.717,348.456 47.748,348.708 47.786 M354.211 47.786 C 354.464 47.825,354.839 47.824,355.044 47.784 C 355.249 47.744,355.042 47.713,354.583 47.714 C 354.125 47.716,353.957 47.748,354.211 47.786 M261.208 48.448 C 261.369 48.490,261.631 48.490,261.792 48.448 C 261.952 48.406,261.821 48.372,261.500 48.372 C 261.179 48.372,261.048 48.406,261.208 48.448 M108.742 49.875 L 108.083 50.583 108.792 49.925 C 109.450 49.312,109.577 49.167,109.450 49.167 C 109.423 49.167,109.105 49.485,108.742 49.875 M278.125 50.284 C 278.331 50.324,278.669 50.324,278.875 50.284 C 279.081 50.245,278.912 50.212,278.500 50.212 C 278.087 50.212,277.919 50.245,278.125 50.284 M283.460 50.285 C 283.668 50.324,283.968 50.323,284.127 50.281 C 284.286 50.239,284.117 50.207,283.750 50.209 C 283.383 50.211,283.253 50.245,283.460 50.285 M397.667 52.917 C 397.978 53.237,398.270 53.500,398.315 53.500 C 398.361 53.500,398.144 53.237,397.833 52.917 C 397.522 52.596,397.230 52.333,397.185 52.333 C 397.139 52.333,397.356 52.596,397.667 52.917 M351.460 55.785 C 351.668 55.824,351.968 55.823,352.127 55.781 C 352.286 55.739,352.117 55.707,351.750 55.709 C 351.383 55.711,351.253 55.745,351.460 55.785 M356.377 55.786 C 356.631 55.825,357.006 55.824,357.211 55.784 C 357.416 55.744,357.208 55.713,356.750 55.714 C 356.292 55.716,356.124 55.748,356.377 55.786 M347.208 55.948 C 347.369 55.990,347.631 55.990,347.792 55.948 C 347.952 55.906,347.821 55.872,347.500 55.872 C 347.179 55.872,347.048 55.906,347.208 55.948 M360.208 55.948 C 360.369 55.990,360.631 55.990,360.792 55.948 C 360.952 55.906,360.821 55.872,360.500 55.872 C 360.179 55.872,360.048 55.906,360.208 55.948 M344.208 56.115 C 344.369 56.157,344.631 56.157,344.792 56.115 C 344.952 56.073,344.821 56.039,344.500 56.039 C 344.179 56.039,344.048 56.073,344.208 56.115 M342.042 56.282 C 342.202 56.323,342.465 56.323,342.625 56.282 C 342.785 56.240,342.654 56.205,342.333 56.205 C 342.012 56.205,341.881 56.240,342.042 56.282 M364.375 56.282 C 364.535 56.323,364.798 56.323,364.958 56.282 C 365.119 56.240,364.988 56.205,364.667 56.205 C 364.346 56.205,364.215 56.240,364.375 56.282 M366.542 56.448 C 366.702 56.490,366.965 56.490,367.125 56.448 C 367.285 56.406,367.154 56.372,366.833 56.372 C 366.512 56.372,366.381 56.406,366.542 56.448 M382.042 56.782 C 382.202 56.823,382.465 56.823,382.625 56.782 C 382.785 56.740,382.654 56.705,382.333 56.705 C 382.012 56.705,381.881 56.740,382.042 56.782 M384.208 56.782 C 384.369 56.823,384.631 56.823,384.792 56.782 C 384.952 56.740,384.821 56.705,384.500 56.705 C 384.179 56.705,384.048 56.740,384.208 56.782 M376.458 56.954 C 376.756 56.991,377.244 56.991,377.542 56.954 C 377.840 56.917,377.596 56.887,377.000 56.887 C 376.404 56.887,376.160 56.917,376.458 56.954 M130.167 60.552 C 130.167 60.581,130.410 60.825,130.708 61.094 L 131.250 61.583 130.760 61.042 C 130.304 60.537,130.167 60.423,130.167 60.552 M149.708 60.953 C 149.960 60.991,150.373 60.991,150.625 60.953 C 150.877 60.915,150.671 60.883,150.167 60.883 C 149.662 60.883,149.456 60.915,149.708 60.953 M349.042 60.953 C 349.294 60.991,349.706 60.991,349.958 60.953 C 350.210 60.915,350.004 60.883,349.500 60.883 C 348.996 60.883,348.790 60.915,349.042 60.953 M358.125 60.954 C 358.423 60.991,358.910 60.991,359.208 60.954 C 359.506 60.917,359.262 60.887,358.667 60.887 C 358.071 60.887,357.827 60.917,358.125 60.954 M345.877 61.120 C 346.131 61.158,346.506 61.157,346.711 61.117 C 346.916 61.078,346.708 61.046,346.250 61.048 C 345.792 61.049,345.624 61.081,345.877 61.120 M361.294 61.118 C 361.501 61.158,361.801 61.156,361.960 61.115 C 362.120 61.073,361.950 61.040,361.583 61.042 C 361.217 61.044,361.086 61.078,361.294 61.118 M343.542 61.282 C 343.702 61.323,343.965 61.323,344.125 61.282 C 344.285 61.240,344.154 61.205,343.833 61.205 C 343.512 61.205,343.381 61.240,343.542 61.282 M143.463 61.622 C 143.855 61.657,144.455 61.657,144.796 61.621 C 145.137 61.585,144.817 61.557,144.083 61.557 C 143.350 61.558,143.071 61.587,143.463 61.622 M369.458 61.784 C 369.665 61.824,370.002 61.824,370.208 61.784 C 370.415 61.745,370.246 61.712,369.833 61.712 C 369.421 61.712,369.252 61.745,369.458 61.784 M372.625 61.954 C 372.923 61.991,373.410 61.991,373.708 61.954 C 374.006 61.917,373.762 61.887,373.167 61.887 C 372.571 61.887,372.327 61.917,372.625 61.954 M381.458 61.957 C 382.215 61.988,383.452 61.988,384.208 61.957 C 384.965 61.926,384.346 61.901,382.833 61.901 C 381.321 61.901,380.702 61.926,381.458 61.957 M143.542 66.789 C 143.977 66.824,144.690 66.824,145.125 66.789 C 145.560 66.755,145.204 66.727,144.333 66.727 C 143.462 66.727,143.106 66.755,143.542 66.789 M278.875 67.782 C 279.035 67.823,279.298 67.823,279.458 67.782 C 279.619 67.740,279.487 67.705,279.167 67.705 C 278.846 67.705,278.715 67.740,278.875 67.782 M210.208 73.615 C 210.369 73.657,210.631 73.657,210.792 73.615 C 210.952 73.573,210.821 73.539,210.500 73.539 C 210.179 73.539,210.048 73.573,210.208 73.615 M241.042 73.615 C 241.202 73.657,241.465 73.657,241.625 73.615 C 241.785 73.573,241.654 73.539,241.333 73.539 C 241.012 73.539,240.881 73.573,241.042 73.615 M212.375 73.782 C 212.535 73.823,212.798 73.823,212.958 73.782 C 213.119 73.740,212.987 73.705,212.667 73.705 C 212.346 73.705,212.215 73.740,212.375 73.782 M238.627 73.785 C 238.834 73.824,239.134 73.823,239.294 73.781 C 239.453 73.739,239.283 73.707,238.917 73.709 C 238.550 73.711,238.420 73.745,238.627 73.785 M215.208 73.948 C 215.369 73.990,215.631 73.990,215.792 73.948 C 215.952 73.906,215.821 73.872,215.500 73.872 C 215.179 73.872,215.048 73.906,215.208 73.948 M219.625 74.118 C 219.831 74.157,220.169 74.157,220.375 74.118 C 220.581 74.078,220.412 74.045,220.000 74.045 C 219.588 74.045,219.419 74.078,219.625 74.118 M232.125 74.118 C 232.331 74.157,232.669 74.157,232.875 74.118 C 233.081 74.078,232.912 74.045,232.500 74.045 C 232.088 74.045,231.919 74.078,232.125 74.118 M192.734 76.564 C 192.686 76.691,192.675 77.123,192.710 77.523 L 192.775 78.250 192.804 77.387 C 192.830 76.635,192.882 76.514,193.208 76.451 L 193.583 76.379 193.203 76.356 C 192.994 76.344,192.783 76.437,192.734 76.564 M187.539 78.000 C 187.539 78.321,187.573 78.452,187.615 78.292 C 187.657 78.131,187.657 77.869,187.615 77.708 C 187.573 77.548,187.539 77.679,187.539 78.000 M212.542 78.948 C 212.702 78.990,212.965 78.990,213.125 78.948 C 213.285 78.906,213.154 78.872,212.833 78.872 C 212.512 78.872,212.381 78.906,212.542 78.948 M215.627 79.118 C 215.834 79.158,216.134 79.156,216.294 79.115 C 216.453 79.073,216.283 79.040,215.917 79.042 C 215.550 79.044,215.420 79.078,215.627 79.118 M235.208 79.119 C 235.460 79.158,235.873 79.158,236.125 79.119 C 236.377 79.081,236.171 79.050,235.667 79.050 C 235.162 79.050,234.956 79.081,235.208 79.119 M219.625 79.284 C 219.831 79.324,220.169 79.324,220.375 79.284 C 220.581 79.245,220.412 79.212,220.000 79.212 C 219.588 79.212,219.419 79.245,219.625 79.284 M228.882 79.290 C 229.504 79.323,230.479 79.322,231.049 79.290 C 231.618 79.257,231.108 79.231,229.917 79.231 C 228.725 79.232,228.259 79.258,228.882 79.290 M192.539 80.000 C 192.539 80.321,192.573 80.452,192.615 80.292 C 192.657 80.131,192.657 79.869,192.615 79.708 C 192.573 79.548,192.539 79.679,192.539 80.000 M187.372 80.667 C 187.372 80.987,187.406 81.119,187.448 80.958 C 187.490 80.798,187.490 80.535,187.448 80.375 C 187.406 80.215,187.372 80.346,187.372 80.667 M192.372 83.167 C 192.372 83.487,192.406 83.619,192.448 83.458 C 192.490 83.298,192.490 83.035,192.448 82.875 C 192.406 82.715,192.372 82.846,192.372 83.167 M225.372 83.167 C 225.372 83.487,225.406 83.619,225.448 83.458 C 225.490 83.298,225.490 83.035,225.448 82.875 C 225.406 82.715,225.372 82.846,225.372 83.167 M187.224 85.250 C 187.224 85.983,187.254 86.263,187.289 85.871 C 187.324 85.479,187.324 84.879,187.288 84.537 C 187.252 84.196,187.223 84.517,187.224 85.250 M192.231 89.083 C 192.232 90.275,192.258 90.741,192.290 90.118 C 192.323 89.496,192.322 88.521,192.290 87.951 C 192.257 87.382,192.231 87.892,192.231 89.083 M187.220 94.333 C 187.220 94.929,187.250 95.173,187.287 94.875 C 187.324 94.577,187.324 94.090,187.287 93.792 C 187.250 93.494,187.220 93.737,187.220 94.333 M192.379 95.500 C 192.379 95.912,192.411 96.081,192.451 95.875 C 192.491 95.669,192.491 95.331,192.451 95.125 C 192.411 94.919,192.379 95.087,192.379 95.500 M187.372 98.333 C 187.372 98.654,187.406 98.785,187.448 98.625 C 187.490 98.465,187.490 98.202,187.448 98.042 C 187.406 97.881,187.372 98.013,187.372 98.333 M195.717 124.833 C 195.717 125.337,195.748 125.544,195.786 125.292 C 195.824 125.040,195.824 124.627,195.786 124.375 C 195.748 124.123,195.717 124.329,195.717 124.833 M195.872 131.833 C 195.872 132.154,195.906 132.285,195.948 132.125 C 195.990 131.965,195.990 131.702,195.948 131.542 C 195.906 131.381,195.872 131.512,195.872 131.833 M190.709 132.083 C 190.711 132.450,190.745 132.580,190.785 132.373 C 190.824 132.166,190.823 131.866,190.781 131.706 C 190.739 131.547,190.707 131.717,190.709 132.083 M211.875 133.750 C 211.877 134.117,211.911 134.247,211.951 134.040 C 211.991 133.832,211.990 133.532,211.948 133.373 C 211.906 133.214,211.874 133.383,211.875 133.750 M216.881 136.083 C 216.882 136.542,216.915 136.709,216.953 136.456 C 216.991 136.203,216.990 135.828,216.951 135.623 C 216.911 135.418,216.880 135.625,216.881 136.083 M193.900 151.083 C 193.900 152.458,193.926 152.999,193.957 152.284 C 193.989 151.569,193.988 150.444,193.957 149.784 C 193.925 149.124,193.900 149.708,193.900 151.083 M199.059 152.083 C 199.059 152.908,199.087 153.267,199.122 152.880 C 199.157 152.493,199.157 151.818,199.123 151.380 C 199.088 150.942,199.060 151.258,199.059 152.083 M215.058 157.167 C 215.058 157.946,215.087 158.265,215.122 157.875 C 215.157 157.485,215.157 156.848,215.122 156.458 C 215.087 156.069,215.058 156.387,215.058 157.167 M220.226 157.250 C 220.225 158.075,220.254 158.434,220.288 158.047 C 220.323 157.660,220.324 156.985,220.289 156.547 C 220.255 156.109,220.226 156.425,220.226 157.250 M194.053 158.833 C 194.053 159.429,194.084 159.673,194.121 159.375 C 194.158 159.077,194.158 158.590,194.121 158.292 C 194.084 157.994,194.053 158.237,194.053 158.833 M199.221 159.083 C 199.222 159.725,199.252 159.967,199.288 159.621 C 199.324 159.275,199.324 158.750,199.287 158.455 C 199.250 158.159,199.221 158.442,199.221 159.083 M214.872 160.500 C 214.872 160.821,214.906 160.952,214.948 160.792 C 214.990 160.631,214.990 160.369,214.948 160.208 C 214.906 160.048,214.872 160.179,214.872 160.500 M194.209 163.083 C 194.211 163.450,194.245 163.580,194.285 163.373 C 194.324 163.166,194.323 162.866,194.281 162.706 C 194.239 162.547,194.207 162.717,194.209 163.083 M199.387 163.667 C 199.387 164.262,199.417 164.506,199.454 164.208 C 199.491 163.910,199.491 163.423,199.454 163.125 C 199.417 162.827,199.387 163.071,199.387 163.667 M194.379 166.167 C 194.379 166.579,194.411 166.748,194.451 166.542 C 194.491 166.335,194.491 165.998,194.451 165.792 C 194.411 165.585,194.379 165.754,194.379 166.167 M199.550 167.167 C 199.550 167.671,199.581 167.877,199.619 167.625 C 199.658 167.373,199.658 166.960,199.619 166.708 C 199.581 166.456,199.550 166.662,199.550 167.167 M194.545 169.167 C 194.545 169.579,194.578 169.748,194.618 169.542 C 194.657 169.335,194.657 168.998,194.618 168.792 C 194.578 168.585,194.545 168.754,194.545 169.167 M199.709 170.083 C 199.711 170.450,199.745 170.580,199.785 170.373 C 199.824 170.166,199.823 169.866,199.781 169.706 C 199.739 169.547,199.707 169.717,199.709 170.083 M194.712 171.833 C 194.712 172.246,194.745 172.415,194.784 172.208 C 194.824 172.002,194.824 171.665,194.784 171.458 C 194.745 171.252,194.712 171.421,194.712 171.833 M199.872 172.667 C 199.872 172.987,199.906 173.119,199.948 172.958 C 199.990 172.798,199.990 172.535,199.948 172.375 C 199.906 172.215,199.872 172.346,199.872 172.667 M194.881 174.917 C 194.882 175.375,194.915 175.543,194.953 175.289 C 194.991 175.036,194.990 174.661,194.951 174.456 C 194.911 174.251,194.880 174.458,194.881 174.917 M200.214 177.750 C 200.216 178.208,200.248 178.376,200.286 178.123 C 200.325 177.869,200.324 177.494,200.284 177.289 C 200.244 177.084,200.213 177.292,200.214 177.750 M195.042 177.917 C 195.044 178.283,195.078 178.414,195.118 178.206 C 195.158 177.999,195.156 177.699,195.115 177.540 C 195.073 177.380,195.040 177.550,195.042 177.917 M200.381 180.750 C 200.382 181.208,200.415 181.376,200.453 181.123 C 200.491 180.869,200.490 180.494,200.451 180.289 C 200.411 180.084,200.380 180.292,200.381 180.750 M200.552 184.250 C 200.553 184.800,200.584 185.005,200.621 184.705 C 200.658 184.406,200.657 183.956,200.619 183.705 C 200.581 183.455,200.551 183.700,200.552 184.250 M195.558 186.500 C 195.558 187.279,195.587 187.598,195.622 187.208 C 195.657 186.819,195.657 186.181,195.622 185.792 C 195.587 185.402,195.558 185.721,195.558 186.500 M210.205 186.167 C 210.205 186.487,210.240 186.619,210.282 186.458 C 210.323 186.298,210.323 186.035,210.282 185.875 C 210.240 185.715,210.205 185.846,210.205 186.167 M195.552 189.417 C 195.553 189.967,195.584 190.172,195.621 189.872 C 195.658 189.572,195.657 189.122,195.619 188.872 C 195.581 188.622,195.551 188.867,195.552 189.417 M200.545 191.000 C 200.545 191.412,200.578 191.581,200.618 191.375 C 200.657 191.169,200.657 190.831,200.618 190.625 C 200.578 190.419,200.545 190.588,200.545 191.000 M214.875 192.083 C 214.877 192.450,214.911 192.580,214.951 192.373 C 214.991 192.166,214.990 191.866,214.948 191.706 C 214.906 191.547,214.874 191.717,214.875 192.083 M214.875 197.750 C 214.877 198.117,214.911 198.247,214.951 198.040 C 214.991 197.832,214.990 197.532,214.948 197.373 C 214.906 197.214,214.874 197.383,214.875 197.750 M211.714 208.917 C 211.716 209.375,211.748 209.543,211.786 209.289 C 211.825 209.036,211.824 208.661,211.784 208.456 C 211.744 208.251,211.713 208.458,211.714 208.917 M170.740 209.042 L 170.250 209.583 170.792 209.094 C 171.297 208.638,171.410 208.500,171.281 208.500 C 171.252 208.500,171.009 208.744,170.740 209.042 M169.214 212.917 C 169.216 213.375,169.248 213.543,169.286 213.289 C 169.325 213.036,169.324 212.661,169.284 212.456 C 169.244 212.251,169.213 212.458,169.214 212.917 M197.121 212.287 C 197.417 212.324,197.942 212.324,198.288 212.288 C 198.634 212.252,198.392 212.222,197.750 212.221 C 197.108 212.221,196.825 212.250,197.121 212.287 M180.213 214.123 C 180.652 214.157,181.327 214.157,181.713 214.122 C 182.100 214.087,181.742 214.059,180.917 214.059 C 180.092 214.060,179.775 214.088,180.213 214.123 M195.127 217.618 C 195.334 217.658,195.634 217.656,195.794 217.615 C 195.953 217.573,195.783 217.540,195.417 217.542 C 195.050 217.544,194.920 217.578,195.127 217.618 M199.794 217.618 C 200.001 217.658,200.301 217.656,200.460 217.615 C 200.620 217.573,200.450 217.540,200.083 217.542 C 199.717 217.544,199.586 217.578,199.794 217.618 " stroke="none" fill-rule="evenodd"></path></g>
</svg>