<svg viewBox="0 0 2816 1536" xmlns="http://www.w3.org/2000/svg">
<path d="M0 0 C20.09987919 11.33250331 31.81745911 30.80041467 38.00390625 52.3515625 C38.349375 53.60710937 38.69484375 54.86265625 39.05078125 56.15625 C39.26798828 56.8790918 39.48519531 57.60193359 39.70898438 58.34667969 C45.22067682 76.93136968 46.32398013 97.99836325 43.05078125 117.15625 C41.6421814 132.24005635 45.40440873 146.73705259 48.48828125 161.40625 C49.03976833 164.08011884 49.58618175 166.75501655 50.13256836 169.42993164 C51.49752254 176.09770216 52.8813793 182.76139719 54.27185059 189.42388916 C56.04173933 197.90457139 57.79886044 206.38787429 59.54885864 214.87268066 C60.09104167 217.48653347 60.6422356 220.09834313 61.19506836 222.70996094 C61.53495647 224.33632467 61.87360795 225.96294741 62.2109375 227.58984375 C62.45314278 228.75125381 62.45314278 228.75125381 62.70024109 229.93612671 C63.56660676 234.24043052 64.25325033 238.52722005 64.78466797 242.88623047 C64.9036998 243.84167252 65.02273163 244.79711456 65.14537048 245.7815094 C65.36578987 247.6227162 65.56687687 249.46637612 65.74537659 251.31211853 C66.24780863 255.54758351 66.51254749 257.56824936 69.46411133 260.79272461 C72.23762421 262.5227998 75.07887296 263.79984058 78.05078125 265.15625 C81.88355747 267.96421975 85.46946354 271.03594964 89.05078125 274.15625 C89.67597656 274.69636719 90.30117187 275.23648437 90.9453125 275.79296875 C110.2208063 293.7142124 119.35814088 321.21854493 125.05078125 346.15625 C125.30069824 347.20280762 125.30069824 347.20280762 125.55566406 348.27050781 C128.23080348 359.89601018 128.36111623 371.59827159 128.42578125 383.46875 C128.43372711 384.23806854 128.44167297 385.00738708 128.44985962 385.80001831 C128.56955386 400.89255633 127.60622284 415.19443445 117.33984375 427.1484375 C110.64613589 433.72917139 100.21039086 437.97027145 90.81640625 438.25390625 C89.65625 438.24230469 88.49609375 438.23070312 87.30078125 438.21875 C86.1303125 438.20972656 84.95984375 438.20070313 83.75390625 438.19140625 C82.861875 438.17980469 81.96984375 438.16820312 81.05078125 438.15625 C81.16581394 440.6778876 81.29252902 443.1980619 81.42578125 445.71875 C81.45671875 446.42322266 81.48765625 447.12769531 81.51953125 447.85351562 C82.11413707 458.60597093 85.99960793 466.43699197 93.36328125 474.15625 C93.84966064 474.67533936 94.33604004 475.19442871 94.8371582 475.72924805 C96.23325593 477.21290591 97.64168655 478.68493032 99.05078125 480.15625 C99.70820312 480.84332031 100.365625 481.53039062 101.04296875 482.23828125 C103.77051113 485.02238557 106.58182946 487.6323231 109.55078125 490.15625 C113.71501092 493.73021022 117.51684212 497.62393887 121.36328125 501.53125 C126.38287437 506.61431987 131.4969785 511.28645859 137.1015625 515.7265625 C154.5103625 530.06864674 170.82518913 546.48322635 176.05078125 569.15625 C176.22061523 569.76428467 176.39044922 570.37231934 176.56542969 570.9987793 C178.96390433 581.66040927 177.67751359 594.41329554 175.30078125 604.96875 C175.14391846 605.66564941 174.98705566 606.36254883 174.82543945 607.08056641 C173.92432319 610.6789808 172.76515543 613.68341965 170.98510742 616.93505859 C168.2912254 622.96087152 168.61538335 629.06360214 168.78068733 635.52677345 C168.83752084 637.80165803 168.86653688 640.07552777 168.88902283 642.35099792 C168.95833957 648.81664386 169.07960201 655.28114863 169.20825195 661.74584961 C169.62018222 683.2979945 168.4860045 703.89533829 165.0065136 725.18501091 C164.04971203 731.04230998 163.25230739 736.91330162 162.49035645 742.79882812 C161.76162948 748.36475604 160.93875764 753.91647766 160.11328125 759.46875 C159.9421582 760.62286377 159.77103516 761.77697754 159.59472656 762.96606445 C158.18817668 772.38169795 156.66951917 781.77492795 155.05078125 791.15625 C156.18773437 791.21683594 157.3246875 791.27742187 158.49609375 791.33984375 C162.56758589 791.55889375 166.63835404 791.78944611 170.70898438 792.02392578 C172.69233769 792.135996 174.67620408 792.23892843 176.66015625 792.33984375 C186.04807444 792.89009254 195.2463141 794.29800101 204.52441406 795.76660156 C206.85104385 796.12544396 209.17906076 796.45652851 211.51171875 796.7734375 C241.19789563 800.86406517 270.83825197 807.04270895 299.53417969 815.65820312 C305.44805865 817.43175524 311.37510308 819.01948477 317.38232422 820.44775391 C320.73547524 821.33804158 323.84326664 822.57908709 327.03125 823.93359375 C329.50002893 824.93324162 331.96378372 825.84405124 334.4765625 826.72265625 C351.99134006 832.86483923 369.67247876 841.40804901 378.91015625 858.4921875 C380.73146521 862.74606665 382.05673319 867.11026187 383.2890625 871.56640625 C383.79914487 874.064231 383.79914487 874.064231 385.05078125 875.15625 C387.29176085 884.10981745 387.33295546 893.10061113 387.2565918 902.25830078 C387.23814137 904.54861435 387.23608421 906.83852544 387.23632812 909.12890625 C387.19889132 920.37626541 387.19889132 920.37626541 386.54582214 923.81549072 C385.92816282 927.98373447 385.9430473 932.01387178 385.98486328 936.22021484 C385.98946815 937.11735954 385.99407303 938.01450424 385.99881744 938.93883514 C386.00919784 940.88940024 386.02178917 942.83995453 386.03633499 944.79049301 C386.06682833 949.00540447 386.08373652 953.22033796 386.10133934 957.4353199 C386.11069535 959.6711555 386.12055329 961.90698905 386.13088417 964.14282036 C386.43854752 1030.82539863 386.43854752 1030.82539863 384.55078125 1059.65625 C384.48093018 1060.73072388 384.4110791 1061.80519775 384.33911133 1062.91223145 C384.27038818 1063.96761108 384.20166504 1065.02299072 384.13085938 1066.11035156 C383.99686713 1068.17509597 383.86339189 1070.23987399 383.73046875 1072.3046875 C383.6671637 1073.28562378 383.60385864 1074.26656006 383.53863525 1075.27722168 C382.84420467 1086.60681086 382.70676423 1097.93302883 382.67578125 1109.28125 C382.66828857 1110.20768311 382.6607959 1111.13411621 382.65307617 1112.08862305 C382.54405899 1128.15484785 383.21611203 1144.03192503 394.515625 1156.64453125 C410.72283883 1172.60430671 434.31115049 1183.37003649 456.05078125 1189.15625 C469.74342013 1192.801595 480.81925484 1195.86068464 488.48828125 1208.53125 C489.77903957 1214.55478884 490.13451808 1220.02111963 486.92578125 1225.46875 C481.01368714 1233.63072437 473.70946931 1236.8566744 463.94726562 1238.76196289 C455.116191 1240.07735433 446.46984039 1240.47422243 437.55078125 1240.40625 C436.86089111 1240.4041452 436.17100098 1240.40204041 435.46020508 1240.39987183 C422.15291618 1240.35252107 408.86245428 1239.72207961 395.70507812 1237.62231445 C389.89757438 1236.89999042 384.06818119 1237.0789542 378.22653198 1237.14221573 C376.07297502 1237.16447919 373.91950906 1237.17840077 371.76586914 1237.18991089 C365.64814964 1237.2232809 359.53058156 1237.26507838 353.41308594 1237.32763672 C349.65616235 1237.36546313 345.8993894 1237.38835851 342.14230347 1237.40194321 C340.71983623 1237.40994651 339.29738807 1237.42348225 337.87503052 1237.44287491 C325.06263186 1237.61459916 315.96559928 1235.31644015 306.2890625 1226.5625 C299.15088563 1218.93885518 296.74927912 1209.01837221 296.82421875 1198.8515625 C297.35142416 1190.25266041 298.84151826 1181.55192791 301.08984375 1173.234375 C310.76895233 1134.9695393 299.56724191 1089.43802475 287.6953125 1053.16162109 C276.9961856 1019.87274673 270.97308469 984.56315694 280.05078125 950.15625 C280.43631466 948.63805047 280.82173285 947.11982168 281.20703125 945.6015625 C282.10914266 942.10647531 283.0618829 938.62791442 284.05078125 935.15625 C270.94919492 935.60917162 258.34862459 936.2396415 245.60546875 939.54296875 C238.69105494 941.28149834 231.73506236 942.72831648 224.73828125 944.09375 C224.0815744 944.22220306 223.42486755 944.35065613 222.7482605 944.48300171 C208.67911308 947.21347911 194.5439152 949.10318032 180.31274414 950.77075195 C177.98286752 951.04609625 175.65716043 951.35770646 173.33520508 951.69335938 C168.2390287 952.32933398 163.1568429 952.31796857 158.02734375 952.32421875 C156.97644058 952.3284082 155.92553741 952.33259766 154.8427887 952.33691406 C151.45374779 952.34666054 148.0648338 952.34670987 144.67578125 952.34375 C143.52284576 952.34347809 142.36991028 952.34320618 141.18203735 952.34292603 C120.60947862 952.32051095 100.55979365 951.40717387 80.17578125 948.53125 C67.56913706 945.93479151 67.56913706 945.93479151 55.5703125 948.5625 C52.91037818 950.62616923 50.49635012 952.84287405 48.05078125 955.15625 C46.0392162 956.89816826 44.0212661 958.62737246 41.98828125 960.34375 C41.44719727 960.80450928 40.90611328 961.26526855 40.34863281 961.73999023 C33.1435391 967.83860222 25.61595231 973.51479868 18.05078125 979.15625 C17.3645166 979.66881348 16.67825195 980.18137695 15.97119141 980.70947266 C-4.43619913 995.87575316 -25.60189972 1010.01232873 -47.94921875 1022.15625 C-48.63902832 1022.53426758 -49.32883789 1022.91228516 -50.03955078 1023.30175781 C-68.02100892 1033.13890837 -86.50650111 1041.92263467 -105.26171875 1050.17358398 C-108.77458311 1051.72357544 -112.27002204 1053.29222742 -115.72265625 1054.97265625 C-125.85287875 1059.90028102 -136.23828234 1063.68162818 -146.94921875 1067.15625 C-147.68479004 1067.40149414 -148.42036133 1067.64673828 -149.17822266 1067.89941406 C-160.69513475 1071.68832268 -172.19163701 1073.27373609 -184.234375 1074.48046875 C-185.31823486 1074.59253662 -186.40209473 1074.70460449 -187.51879883 1074.82006836 C-189.83117723 1075.04668177 -192.14649999 1075.24482968 -194.46362305 1075.41625977 C-208.82878174 1076.71099694 -222.65271351 1080.57651797 -236.57226562 1084.18597412 C-239.28830383 1084.88690534 -242.00748973 1085.57512078 -244.72678947 1086.26326942 C-275.77305214 1093.84821708 -275.77305214 1093.84821708 -305.94921875 1104.15625 C-307.78014853 1104.64165773 -309.61957007 1105.09578158 -311.46484375 1105.5234375 C-317.99568894 1107.11725097 -324.33261928 1109.1310689 -330.69921875 1111.28125 C-331.86517578 1111.67449463 -333.03113281 1112.06773926 -334.23242188 1112.47290039 C-337.80894164 1113.68871379 -341.38025784 1114.91843426 -344.94921875 1116.15625 C-346.57053711 1116.71820068 -346.57053711 1116.71820068 -348.22460938 1117.29150391 C-381.17278613 1128.12282669 -381.17278613 1128.12282669 -405.05859375 1151.4453125 C-410.22525178 1164.13732026 -410.26794023 1177.68141415 -409.94921875 1191.15625 C-408.68078125 1191.79240234 -408.68078125 1191.79240234 -407.38671875 1192.44140625 C-391.74223621 1200.53031484 -391.74223621 1200.53031484 -386.94921875 1208.46875 C-385.26902242 1214.66447395 -384.86035797 1220.42925996 -387.51171875 1226.40625 C-391.23941809 1232.90347245 -396.89157062 1236.83310499 -403.94921875 1239.15625 C-406.67036385 1239.44428934 -409.15352976 1239.60135895 -411.8671875 1239.58984375 C-412.60568436 1239.5950856 -413.34418121 1239.60032745 -414.10505676 1239.60572815 C-415.66060132 1239.61211615 -417.21619439 1239.61085335 -418.77172852 1239.60229492 C-421.11370223 1239.59383316 -423.45319133 1239.62250868 -425.79492188 1239.65429688 C-438.46205503 1239.71397297 -450.03086063 1237.71403812 -459.94921875 1229.15625 C-468.75688638 1219.65894397 -472.44863888 1207.5446601 -474.82421875 1195.09375 C-478.44965294 1177.30362567 -483.66203517 1162.67140145 -495.27734375 1148.4453125 C-503.63505441 1137.00227874 -505.3753496 1124.94117657 -503.94921875 1111.15625 C-502.19081616 1104.29775028 -499.54612104 1098.66107379 -493.94921875 1094.15625 C-493.06234375 1093.33125 -492.17546875 1092.50625 -491.26171875 1091.65625 C-480.16534198 1082.77914858 -465.18894033 1080.18798994 -451.51171875 1077.84375 C-436.2721336 1074.90738214 -422.19686151 1067.63971091 -408.73730469 1060.14648438 C-407.19563824 1059.29271606 -405.64003529 1058.46420207 -404.08203125 1057.640625 C-385.88635366 1048.0173791 -368.95764628 1036.26696956 -352.12109375 1024.48046875 C-333.05524067 1011.14818743 -312.80710687 999.26703867 -290.94921875 991.15625 C-289.96695312 990.78242187 -288.9846875 990.40859375 -287.97265625 990.0234375 C-278.23338994 986.53924927 -268.03634963 984.38447788 -257.94921875 982.15625 C-256.70386353 981.87914185 -256.70386353 981.87914185 -255.43334961 981.59643555 C-249.55308693 980.34767782 -243.7491955 979.68903827 -237.76171875 979.21875 C-202.53713945 976.02637722 -180.64501014 959.23871421 -156.94921875 934.15625 C-156.26214844 933.29386719 -155.57507812 932.43148437 -154.8671875 931.54296875 C-153.16446655 929.42410419 -151.52354599 927.76895396 -149.44921875 926.03125 C-146.46033989 923.4804443 -143.5417518 920.87230931 -140.66259766 918.19799805 C-135.54077496 913.44248811 -130.30338644 908.91463205 -124.85546875 904.53125 C-121.53968404 901.82157647 -118.30856011 899.02450785 -115.07421875 896.21875 C-110.55891582 892.31034927 -105.962979 888.56966924 -101.19921875 884.96875 C-90.1659399 877.64160847 -90.1659399 877.64160847 -83.38671875 866.96875 C-83.06079826 864.66160999 -83.06079826 864.66160999 -82.94921875 862.15625 C-81.94864013 844.81288717 -78.78773927 829.7041955 -70.94921875 814.15625 C-70.65031738 813.55329102 -70.35141602 812.95033203 -70.04345703 812.32910156 C-60.23832807 792.8885376 -44.72916093 779.75361725 -27.3046875 767.2890625 C-10.45147503 755.2006897 1.50240972 740.14045643 6.23828125 719.53125 C8.7332994 704.24397777 7.21095955 688.56718301 4.4609375 673.43896484 C4.07707995 671.3026148 3.73009252 669.16391277 3.39453125 667.01953125 C1.76124548 657.24898244 -0.99984195 648.06364504 -4.13110352 638.68457031 C-5.04601787 635.85709998 -5.88001736 633.00997742 -6.72265625 630.16015625 C-9.02037616 622.66023696 -11.84342086 615.39725807 -14.72045898 608.10534668 C-15.65836899 605.72633409 -16.58874863 603.34448535 -17.51757812 600.96191406 C-20.18309263 594.1344286 -22.86739977 587.31732506 -25.65625 580.5390625 C-32.40101433 564.05247862 -37.42713206 547.07630392 -39.625 529.3515625 C-39.83826399 527.11837861 -39.83826399 527.11837861 -40.94921875 525.15625 C-45.13025987 492.79189467 -40.71342771 459.08548948 -31.6484375 427.94921875 C-30.78731552 424.98940212 -30.78731552 424.98940212 -30.94921875 421.15625 C-32.84634628 419.21892043 -32.84634628 419.21892043 -35.38671875 417.46875 C-56.1974628 401.50994909 -70.94629658 377.37407716 -74.56640625 351.18359375 C-75.69132722 340.91915915 -75.78102574 330.12657043 -72.94921875 320.15625 C-72.61921875 318.93421875 -72.28921875 317.7121875 -71.94921875 316.453125 C-64.46638671 289.98424065 -47.68773365 273.085405 -24.41796875 259.44140625 C-21.94921875 258.15625 -21.94921875 258.15625 -19.94921875 258.15625 C-19.87887309 243.77781951 -19.82630618 229.39941604 -19.79378223 215.02084827 C-19.77836904 208.34334413 -19.75700605 201.66596325 -19.72290039 194.98852539 C-19.69015721 188.53701839 -19.67233421 182.08562265 -19.66458702 175.63403893 C-19.6590703 173.18023618 -19.64829791 170.7264391 -19.63202858 168.2726841 C-18.49209623 147.49555508 -18.49209623 147.49555508 -26.07421875 128.96875 C-27.35011625 127.68208543 -28.64295718 126.41207676 -29.94921875 125.15625 C-44.15816564 110.24438701 -49.51174736 97.43206341 -49.50512695 76.99926758 C-49.51178318 74.69646099 -49.56672052 72.39776864 -49.62304688 70.09570312 C-49.63183551 68.61720201 -49.63779871 67.13868078 -49.640625 65.66015625 C-49.66218155 64.97989883 -49.6837381 64.29964142 -49.70594788 63.59877014 C-49.667016 60.89250532 -49.41266622 58.76167272 -47.74264526 56.58004761 C-45.27514744 54.32519441 -43.40518002 53.20581101 -40.07421875 52.84375 C-39.37296875 52.946875 -38.67171875 53.05 -37.94921875 53.15625 C-37.95969238 52.34470459 -37.97016602 51.53315918 -37.98095703 50.69702148 C-38.02270525 46.99596289 -38.04860488 43.29495399 -38.07421875 39.59375 C-38.09097656 38.31693359 -38.10773438 37.04011719 -38.125 35.72460938 C-38.18605948 23.97065912 -36.3036733 14.92842766 -27.98828125 6.06640625 C-19.68130735 -1.46079424 -10.76432196 -4.6595061 0 0 Z " fill="currentColor" transform="translate(1415.94921875,149.84375)"/>
<path d="M0 0 C20.09987919 11.33250331 31.81745911 30.80041467 38.00390625 52.3515625 C38.349375 53.60710937 38.69484375 54.86265625 39.05078125 56.15625 C39.26798828 56.8790918 39.48519531 57.60193359 39.70898438 58.34667969 C45.22067682 76.93136968 46.32398013 97.99836325 43.05078125 117.15625 C41.6421814 132.24005635 45.40440873 146.73705259 48.48828125 161.40625 C49.03976833 164.08011884 49.58618175 166.75501655 50.13256836 169.42993164 C51.49752254 176.09770216 52.8813793 182.76139719 54.27185059 189.42388916 C56.04173933 197.90457139 57.79886044 206.38787429 59.54885864 214.87268066 C60.09104167 217.48653347 60.6422356 220.09834313 61.19506836 222.70996094 C61.53495647 224.33632467 61.87360795 225.96294741 62.2109375 227.58984375 C62.45314278 228.75125381 62.45314278 228.75125381 62.70024109 229.93612671 C63.56660676 234.24043052 64.25325033 238.52722005 64.78466797 242.88623047 C64.9036998 243.84167252 65.02273163 244.79711456 65.14537048 245.7815094 C65.36578987 247.6227162 65.56687687 249.46637612 65.74537659 251.31211853 C66.24780863 255.54758351 66.51254749 257.56824936 69.46411133 260.79272461 C72.23762421 262.5227998 75.07887296 263.79984058 78.05078125 265.15625 C81.88355747 267.96421975 85.46946354 271.03594964 89.05078125 274.15625 C89.67597656 274.69636719 90.30117187 275.23648437 90.9453125 275.79296875 C110.2208063 293.7142124 119.35814088 321.21854493 125.05078125 346.15625 C125.30069824 347.20280762 125.30069824 347.20280762 125.55566406 348.27050781 C128.23080348 359.89601018 128.36111623 371.59827159 128.42578125 383.46875 C128.43372711 384.23806854 128.44167297 385.00738708 128.44985962 385.80001831 C128.56955386 400.89255633 127.60622284 415.19443445 117.33984375 427.1484375 C110.64613589 433.72917139 100.21039086 437.97027145 90.81640625 438.25390625 C89.65625 438.24230469 88.49609375 438.23070312 87.30078125 438.21875 C86.1303125 438.20972656 84.95984375 438.20070313 83.75390625 438.19140625 C82.861875 438.17980469 81.96984375 438.16820312 81.05078125 438.15625 C81.16581394 440.6778876 81.29252902 443.1980619 81.42578125 445.71875 C81.45671875 446.42322266 81.48765625 447.12769531 81.51953125 447.85351562 C82.11413707 458.60597093 85.99960793 466.43699197 93.36328125 474.15625 C93.84966064 474.67533936 94.33604004 475.19442871 94.8371582 475.72924805 C96.23325593 477.21290591 97.64168655 478.68493032 99.05078125 480.15625 C99.70820312 480.84332031 100.365625 481.53039062 101.04296875 482.23828125 C103.77051113 485.02238557 106.58182946 487.6323231 109.55078125 490.15625 C113.71501092 493.73021022 117.51684212 497.62393887 121.36328125 501.53125 C126.38287437 506.61431987 131.4969785 511.28645859 137.1015625 515.7265625 C154.5103625 530.06864674 170.82518913 546.48322635 176.05078125 569.15625 C176.22061523 569.76428467 176.39044922 570.37231934 176.56542969 570.9987793 C178.96390433 581.66040927 177.67751359 594.41329554 175.30078125 604.96875 C175.14391846 605.66564941 174.98705566 606.36254883 174.82543945 607.08056641 C173.92432319 610.6789808 172.76515543 613.68341965 170.98510742 616.93505859 C168.2912254 622.96087152 168.61538335 629.06360214 168.78068733 635.52677345 C168.83752084 637.80165803 168.86653688 640.07552777 168.88902283 642.35099792 C168.95833957 648.81664386 169.07960201 655.28114863 169.20825195 661.74584961 C169.62018222 683.2979945 168.4860045 703.89533829 165.0065136 725.18501091 C164.04971203 731.04230998 163.25230739 736.91330162 162.49035645 742.79882812 C161.76162948 748.36475604 160.93875764 753.91647766 160.11328125 759.46875 C159.9421582 760.62286377 159.77103516 761.77697754 159.59472656 762.96606445 C158.18817668 772.38169795 156.66951917 781.77492795 155.05078125 791.15625 C156.18773437 791.21683594 157.3246875 791.27742187 158.49609375 791.33984375 C162.56758589 791.55889375 166.63835404 791.78944611 170.70898438 792.02392578 C172.69233769 792.135996 174.67620408 792.23892843 176.66015625 792.33984375 C186.04807444 792.89009254 195.2463141 794.29800101 204.52441406 795.76660156 C206.85104385 796.12544396 209.17906076 796.45652851 211.51171875 796.7734375 C241.19789563 800.86406517 270.83825197 807.04270895 299.53417969 815.65820312 C305.44805865 817.43175524 311.37510308 819.01948477 317.38232422 820.44775391 C320.73547524 821.33804158 323.84326664 822.57908709 327.03125 823.93359375 C329.50002893 824.93324162 331.96378372 825.84405124 334.4765625 826.72265625 C351.99134006 832.86483923 369.67247876 841.40804901 378.91015625 858.4921875 C380.73146521 862.74606665 382.05673319 867.11026187 383.2890625 871.56640625 C383.79914487 874.064231 383.79914487 874.064231 385.05078125 875.15625 C387.29176085 884.10981745 387.33295546 893.10061113 387.2565918 902.25830078 C387.23814137 904.54861435 387.23608421 906.83852544 387.23632812 909.12890625 C387.19889132 920.37626541 387.19889132 920.37626541 386.54582214 923.81549072 C385.92816282 927.98373447 385.9430473 932.01387178 385.98486328 936.22021484 C385.98946815 937.11735954 385.99407303 938.01450424 385.99881744 938.93883514 C386.00919784 940.88940024 386.02178917 942.83995453 386.03633499 944.79049301 C386.06682833 949.00540447 386.08373652 953.22033796 386.10133934 957.4353199 C386.11069535 959.6711555 386.12055329 961.90698905 386.13088417 964.14282036 C386.43854752 1030.82539863 386.43854752 1030.82539863 384.55078125 1059.65625 C384.48093018 1060.73072388 384.4110791 1061.80519775 384.33911133 1062.91223145 C384.27038818 1063.96761108 384.20166504 1065.02299072 384.13085938 1066.11035156 C383.99686713 1068.17509597 383.86339189 1070.23987399 383.73046875 1072.3046875 C383.6671637 1073.28562378 383.60385864 1074.26656006 383.53863525 1075.27722168 C382.84420467 1086.60681086 382.70676423 1097.93302883 382.67578125 1109.28125 C382.66828857 1110.20768311 382.6607959 1111.13411621 382.65307617 1112.08862305 C382.54405899 1128.15484785 383.21611203 1144.03192503 394.515625 1156.64453125 C410.72283883 1172.60430671 434.31115049 1183.37003649 456.05078125 1189.15625 C469.74342013 1192.801595 480.81925484 1195.86068464 488.48828125 1208.53125 C489.77903957 1214.55478884 490.13451808 1220.02111963 486.92578125 1225.46875 C481.01368714 1233.63072437 473.70946931 1236.8566744 463.94726562 1238.76196289 C455.116191 1240.07735433 446.46984039 1240.47422243 437.55078125 1240.40625 C436.86089111 1240.4041452 436.17100098 1240.40204041 435.46020508 1240.39987183 C422.15291618 1240.35252107 408.86245428 1239.72207961 395.70507812 1237.62231445 C389.89757438 1236.89999042 384.06818119 1237.0789542 378.22653198 1237.14221573 C376.07297502 1237.16447919 373.91950906 1237.17840077 371.76586914 1237.18991089 C365.64814964 1237.2232809 359.53058156 1237.26507838 353.41308594 1237.32763672 C349.65616235 1237.36546313 345.8993894 1237.38835851 342.14230347 1237.40194321 C340.71983623 1237.40994651 339.29738807 1237.42348225 337.87503052 1237.44287491 C325.06263186 1237.61459916 315.96559928 1235.31644015 306.2890625 1226.5625 C299.15088563 1218.93885518 296.74927912 1209.01837221 296.82421875 1198.8515625 C297.35142416 1190.25266041 298.84151826 1181.55192791 301.08984375 1173.234375 C310.76895233 1134.9695393 299.56724191 1089.43802475 287.6953125 1053.16162109 C276.9961856 1019.87274673 270.97308469 984.56315694 280.05078125 950.15625 C280.43631466 948.63805047 280.82173285 947.11982168 281.20703125 945.6015625 C282.10914266 942.10647531 283.0618829 938.62791442 284.05078125 935.15625 C270.94919492 935.60917162 258.34862459 936.2396415 245.60546875 939.54296875 C238.69105494 941.28149834 231.73506236 942.72831648 224.73828125 944.09375 C224.0815744 944.22220306 223.42486755 944.35065613 222.7482605 944.48300171 C208.67911308 947.21347911 194.5439152 949.10318032 180.31274414 950.77075195 C177.98286752 951.04609625 175.65716043 951.35770646 173.33520508 951.69335938 C168.2390287 952.32933398 163.1568429 952.31796857 158.02734375 952.32421875 C156.97644058 952.3284082 155.92553741 952.33259766 154.8427887 952.33691406 C151.45374779 952.34666054 148.0648338 952.34670987 144.67578125 952.34375 C143.52284576 952.34347809 142.36991028 952.34320618 141.18203735 952.34292603 C120.60947862 952.32051095 100.55979365 951.40717387 80.17578125 948.53125 C67.56913706 945.93479151 67.56913706 945.93479151 55.5703125 948.5625 C52.91037818 950.62616923 50.49635012 952.84287405 48.05078125 955.15625 C46.0392162 956.89816826 44.0212661 958.62737246 41.98828125 960.34375 C41.44719727 960.80450928 40.90611328 961.26526855 40.34863281 961.73999023 C33.1435391 967.83860222 25.61595231 973.51479868 18.05078125 979.15625 C17.3645166 979.66881348 16.67825195 980.18137695 15.97119141 980.70947266 C-4.43619913 995.87575316 -25.60189972 1010.01232873 -47.94921875 1022.15625 C-48.63902832 1022.53426758 -49.32883789 1022.91228516 -50.03955078 1023.30175781 C-68.02100892 1033.13890837 -86.50650111 1041.92263467 -105.26171875 1050.17358398 C-108.77458311 1051.72357544 -112.27002204 1053.29222742 -115.72265625 1054.97265625 C-125.85287875 1059.90028102 -136.23828234 1063.68162818 -146.94921875 1067.15625 C-147.68479004 1067.40149414 -148.42036133 1067.64673828 -149.17822266 1067.89941406 C-160.69513475 1071.68832268 -172.19163701 1073.27373609 -184.234375 1074.48046875 C-185.31823486 1074.59253662 -186.40209473 1074.70460449 -187.51879883 1074.82006836 C-189.83117723 1075.04668177 -192.14649999 1075.24482968 -194.46362305 1075.41625977 C-208.82878174 1076.71099694 -222.65271351 1080.57651797 -236.57226562 1084.18597412 C-239.28830383 1084.88690534 -242.00748973 1085.57512078 -244.72678947 1086.26326942 C-275.77305214 1093.84821708 -275.77305214 1093.84821708 -305.94921875 1104.15625 C-307.78014853 1104.64165773 -309.61957007 1105.09578158 -311.46484375 1105.5234375 C-317.99568894 1107.11725097 -324.33261928 1109.1310689 -330.69921875 1111.28125 C-331.86517578 1111.67449463 -333.03113281 1112.06773926 -334.23242188 1112.47290039 C-337.80894164 1113.68871379 -341.38025784 1114.91843426 -344.94921875 1116.15625 C-346.57053711 1116.71820068 -346.57053711 1116.71820068 -348.22460938 1117.29150391 C-381.17278613 1128.12282669 -381.17278613 1128.12282669 -405.05859375 1151.4453125 C-410.22525178 1164.13732026 -410.26794023 1177.68141415 -409.94921875 1191.15625 C-408.68078125 1191.79240234 -408.68078125 1191.79240234 -407.38671875 1192.44140625 C-391.74223621 1200.53031484 -391.74223621 1200.53031484 -386.94921875 1208.46875 C-385.26902242 1214.66447395 -384.86035797 1220.42925996 -387.51171875 1226.40625 C-391.23941809 1232.90347245 -396.89157062 1236.83310499 -403.94921875 1239.15625 C-406.67036385 1239.44428934 -409.15352976 1239.60135895 -411.8671875 1239.58984375 C-412.60568436 1239.5950856 -413.34418121 1239.60032745 -414.10505676 1239.60572815 C-415.66060132 1239.61211615 -417.21619439 1239.61085335 -418.77172852 1239.60229492 C-421.11370223 1239.59383316 -423.45319133 1239.62250868 -425.79492188 1239.65429688 C-438.46205503 1239.71397297 -450.03086063 1237.71403812 -459.94921875 1229.15625 C-468.75688638 1219.65894397 -472.44863888 1207.5446601 -474.82421875 1195.09375 C-478.44965294 1177.30362567 -483.66203517 1162.67140145 -495.27734375 1148.4453125 C-503.63505441 1137.00227874 -505.3753496 1124.94117657 -503.94921875 1111.15625 C-502.19081616 1104.29775028 -499.54612104 1098.66107379 -493.94921875 1094.15625 C-493.06234375 1093.33125 -492.17546875 1092.50625 -491.26171875 1091.65625 C-480.16534198 1082.77914858 -465.18894033 1080.18798994 -451.51171875 1077.84375 C-436.2721336 1074.90738214 -422.19686151 1067.63971091 -408.73730469 1060.14648438 C-407.19563824 1059.29271606 -405.64003529 1058.46420207 -404.08203125 1057.640625 C-385.88635366 1048.0173791 -368.95764628 1036.26696956 -352.12109375 1024.48046875 C-333.05524067 1011.14818743 -312.80710687 999.26703867 -290.94921875 991.15625 C-289.96695312 990.78242187 -288.9846875 990.40859375 -287.97265625 990.0234375 C-278.23338994 986.53924927 -268.03634963 984.38447788 -257.94921875 982.15625 C-256.70386353 981.87914185 -256.70386353 981.87914185 -255.43334961 981.59643555 C-249.55308693 980.34767782 -243.7491955 979.68903827 -237.76171875 979.21875 C-202.53713945 976.02637722 -180.64501014 959.23871421 -156.94921875 934.15625 C-156.26214844 933.29386719 -155.57507812 932.43148437 -154.8671875 931.54296875 C-153.16446655 929.42410419 -151.52354599 927.76895396 -149.44921875 926.03125 C-146.46033989 923.4804443 -143.5417518 920.87230931 -140.66259766 918.19799805 C-135.54077496 913.44248811 -130.30338644 908.91463205 -124.85546875 904.53125 C-121.53968404 901.82157647 -118.30856011 899.02450785 -115.07421875 896.21875 C-110.55891582 892.31034927 -105.962979 888.56966924 -101.19921875 884.96875 C-90.1659399 877.64160847 -90.1659399 877.64160847 -83.38671875 866.96875 C-83.06079826 864.66160999 -83.06079826 864.66160999 -82.94921875 862.15625 C-81.94864013 844.81288717 -78.78773927 829.7041955 -70.94921875 814.15625 C-70.65031738 813.55329102 -70.35141602 812.95033203 -70.04345703 812.32910156 C-60.23832807 792.8885376 -44.72916093 779.75361725 -27.3046875 767.2890625 C-10.45147503 755.2006897 1.50240972 740.14045643 6.23828125 719.53125 C8.7332994 704.24397777 7.21095955 688.56718301 4.4609375 673.43896484 C4.07707995 671.3026148 3.73009252 669.16391277 3.39453125 667.01953125 C1.76124548 657.24898244 -0.99984195 648.06364504 -4.13110352 638.68457031 C-5.04601787 635.85709998 -5.88001736 633.00997742 -6.72265625 630.16015625 C-9.02037616 622.66023696 -11.84342086 615.39725807 -14.72045898 608.10534668 C-15.65836899 605.72633409 -16.58874863 603.34448535 -17.51757812 600.96191406 C-20.18309263 594.1344286 -22.86739977 587.31732506 -25.65625 580.5390625 C-32.40101433 564.05247862 -37.42713206 547.07630392 -39.625 529.3515625 C-39.83826399 527.11837861 -39.83826399 527.11837861 -40.94921875 525.15625 C-45.13025987 492.79189467 -40.71342771 459.08548948 -31.6484375 427.94921875 C-30.78731552 424.98940212 -30.78731552 424.98940212 -30.94921875 421.15625 C-32.84634628 419.21892043 -32.84634628 419.21892043 -35.38671875 417.46875 C-56.1974628 401.50994909 -70.94629658 377.37407716 -74.56640625 351.18359375 C-75.69132722 340.91915915 -75.78102574 330.12657043 -72.94921875 320.15625 C-72.61921875 318.93421875 -72.28921875 317.7121875 -71.94921875 316.453125 C-64.46638671 289.98424065 -47.68773365 273.085405 -24.41796875 259.44140625 C-21.94921875 258.15625 -21.94921875 258.15625 -19.94921875 258.15625 C-19.87887309 243.77781951 -19.82630618 229.39941604 -19.79378223 215.02084827 C-19.77836904 208.34334413 -19.75700605 201.66596325 -19.72290039 194.98852539 C-19.69015721 188.53701839 -19.67233421 182.08562265 -19.66458702 175.63403893 C-19.6590703 173.18023618 -19.64829791 170.7264391 -19.63202858 168.2726841 C-18.49209623 147.49555508 -18.49209623 147.49555508 -26.07421875 128.96875 C-27.35011625 127.68208543 -28.64295718 126.41207676 -29.94921875 125.15625 C-44.15816564 110.24438701 -49.51174736 97.43206341 -49.50512695 76.99926758 C-49.51178318 74.69646099 -49.56672052 72.39776864 -49.62304688 70.09570312 C-49.63183551 68.61720201 -49.63779871 67.13868078 -49.640625 65.66015625 C-49.66218155 64.97989883 -49.6837381 64.29964142 -49.70594788 63.59877014 C-49.667016 60.89250532 -49.41266622 58.76167272 -47.74264526 56.58004761 C-45.27514744 54.32519441 -43.40518002 53.20581101 -40.07421875 52.84375 C-39.37296875 52.946875 -38.67171875 53.05 -37.94921875 53.15625 C-37.95969238 52.34470459 -37.97016602 51.53315918 -37.98095703 50.69702148 C-38.02270525 46.99596289 -38.04860488 43.29495399 -38.07421875 39.59375 C-38.09097656 38.31693359 -38.10773438 37.04011719 -38.125 35.72460938 C-38.18605948 23.97065912 -36.3036733 14.92842766 -27.98828125 6.06640625 C-19.68130735 -1.46079424 -10.76432196 -4.6595061 0 0 Z M-13.03916931 22.82691956 C-15.34385934 25.63751939 -15.4481474 26.8988722 -15.44750977 30.48803711 C-15.45754532 31.55271713 -15.46758087 32.61739716 -15.47792053 33.71434021 C-15.46973801 34.85919388 -15.46155548 36.00404755 -15.453125 37.18359375 C-15.46254623 38.36466202 -15.47196747 39.54573029 -15.48167419 40.7625885 C-15.51037994 44.53981832 -15.51340023 48.31641976 -15.51171875 52.09375 C-15.51532348 55.86741808 -15.52483267 59.64062766 -15.55247498 63.41419983 C-15.56929105 65.76247858 -15.57211767 68.11090839 -15.5594635 70.45921326 C-15.56634689 71.52704544 -15.57323029 72.59487762 -15.58032227 73.69506836 C-15.5793605 74.63120468 -15.57839874 75.567341 -15.57740784 76.53184509 C-16.02529187 79.69320756 -17.0869042 81.58376211 -18.94921875 84.15625 C-21.60374957 85.35916358 -24.04737036 85.63296586 -26.94921875 86.15625 C-25.22483666 97.01985715 -20.12164856 103.14421802 -12.38671875 110.59375 C-0.37668334 122.24081247 2.65598328 136.48134876 3.12934303 152.87745094 C3.14477439 155.68634293 3.12943894 158.49321547 3.10083008 161.30200195 C3.09455093 162.35757294 3.08827179 163.41314392 3.08180237 164.5007019 C3.06803706 166.77696885 3.05212206 169.05322364 3.03425026 171.32946205 C3.00729945 174.96371427 2.98962018 178.59790264 2.97477722 182.23222351 C2.93237934 192.56109944 2.88537683 202.88985419 2.80395508 213.21850586 C2.23051672 251.84309875 2.23051672 251.84309875 6.51521301 290.14151001 C12.70576124 324.98841093 7.80326213 361.04034644 0.55078125 395.40625 C0.34495926 396.39266983 0.34495926 396.39266983 0.13497925 397.39901733 C-1.5807897 405.49328003 -3.91832109 413.13531784 -6.79394531 420.88818359 C-8.41398706 425.47099824 -9.53260609 430.10175498 -10.57421875 434.84375 C-10.98813471 436.65918506 -11.40348364 438.47429404 -11.8203125 440.2890625 C-12.01351074 441.13500977 -12.20670898 441.98095703 -12.40576172 442.85253906 C-13.06938554 445.66563628 -13.8358486 448.44186355 -14.63671875 451.21875 C-18.82455634 466.1955929 -19.18778669 481.59274154 -19.19921875 497.03125 C-19.19989349 497.85194977 -19.20056824 498.67264954 -19.20126343 499.51821899 C-19.18464112 512.26722067 -18.71817613 524.66264771 -15.94921875 537.15625 C-15.79356445 537.87022949 -15.63791016 538.58420898 -15.47753906 539.31982422 C-10.72598178 560.1517515 -1.91135878 580.22483241 6.29541016 599.87280273 C9.20493405 606.87875842 11.72462734 613.93721909 14.05078125 621.15625 C14.5073725 622.51274721 14.96657668 623.86837097 15.4296875 625.22265625 C17.88539288 632.47630746 20.18802938 639.72474776 22.05078125 647.15625 C22.36917969 648.40664063 22.68757813 649.65703125 23.015625 650.9453125 C24.10948217 655.33164343 25.09239169 659.73861297 26.05078125 664.15625 C26.2837793 665.18274658 26.2837793 665.18274658 26.52148438 666.22998047 C29.01147839 677.52927148 29.36366864 688.81731225 29.42578125 700.34375 C29.43363647 701.05651093 29.4414917 701.76927185 29.44958496 702.50363159 C29.56656206 716.14539864 28.41568653 729.81240635 22.42578125 742.28125 C22.08023193 743.02568359 21.73468262 743.77011719 21.37866211 744.53710938 C13.18847087 761.69925781 1.88252206 775.43883382 -14.07421875 785.84375 C-21.56052487 790.72891349 -28.30390253 796.18845904 -34.94921875 802.15625 C-35.6246875 802.74792969 -36.30015625 803.33960938 -36.99609375 803.94921875 C-50.76108956 816.73551073 -59.17730953 836.43362533 -60.04003906 855.1237793 C-60.07388518 856.5740191 -60.10605139 858.02429887 -60.13671875 859.47460938 C-60.47877614 872.09866476 -63.34599415 881.42574274 -72.30078125 890.72265625 C-76.7367754 894.79879837 -81.51099314 898.37005624 -86.34570312 901.94921875 C-89.73983247 904.50411757 -92.99073755 907.23689107 -96.265625 909.94140625 C-98.07841267 911.43754979 -99.89896432 912.92432835 -101.7265625 914.40234375 C-107.15801788 918.7977852 -112.42876934 923.31830553 -117.59765625 928.01953125 C-121.85099772 931.8842784 -126.12793709 935.71616683 -130.63671875 939.28125 C-133.26629125 941.41333581 -135.56855488 943.7491027 -137.94921875 946.15625 C-138.73079346 946.94306152 -139.51236816 947.72987305 -140.31762695 948.54052734 C-141.12031006 949.3495752 -141.92299316 950.15862305 -142.75 950.9921875 C-144.5871674 952.83861349 -146.4244092 954.68496546 -148.26171875 956.53125 C-149.17373047 957.45164062 -150.08574219 958.37203125 -151.02539062 959.3203125 C-156.16785602 964.48120967 -161.38633967 969.45160699 -166.94921875 974.15625 C-167.76648437 974.86652344 -168.58375 975.57679688 -169.42578125 976.30859375 C-187.4964433 991.32367113 -208.89039102 997.96535129 -231.88671875 1001.09375 C-273.67869994 1007.10041725 -306.3246824 1019.74978454 -341.0078125 1043.75 C-353.76317392 1052.56978759 -366.65953525 1061.16207257 -379.94921875 1069.15625 C-381.03074219 1069.83558594 -382.11226562 1070.51492188 -383.2265625 1071.21484375 C-408.83331217 1087.19475209 -435.06109801 1096.89910788 -464.30029297 1103.70336914 C-471.4996754 1105.42575304 -476.70250993 1107.78618677 -480.94921875 1114.15625 C-482.7240805 1119.48083525 -482.86084434 1124.87865788 -480.44921875 1130.03125 C-478.6260074 1133.29890696 -476.44295208 1136.22857782 -474.19921875 1139.21875 C-461.96635699 1155.74902974 -456.26646005 1174.13197814 -452.12841797 1194.0715332 C-450.45309891 1201.90814469 -448.58607788 1209.9712038 -441.94921875 1215.15625 C-438.58670682 1216.29606063 -435.40067452 1216.27120812 -431.87109375 1216.25390625 C-430.13085938 1216.24907227 -430.13085938 1216.24907227 -428.35546875 1216.24414062 C-427.14890625 1216.23576172 -425.94234375 1216.22738281 -424.69921875 1216.21875 C-423.4771875 1216.21423828 -422.25515625 1216.20972656 -420.99609375 1216.20507812 C-417.98041929 1216.19329815 -414.96484377 1216.17684853 -411.94921875 1216.15625 C-414.69292206 1214.07609658 -417.47253496 1212.17710999 -420.38671875 1210.34375 C-425.48211846 1206.96637158 -429.74803411 1203.0260757 -431.94921875 1197.15625 C-434.39483416 1184.85516952 -433.22824756 1172.82991218 -430.69921875 1160.65625 C-430.49474121 1159.66641113 -430.29026367 1158.67657227 -430.07958984 1157.65673828 C-425.93292899 1138.99833157 -416.99348622 1127.10526796 -400.91455078 1116.85522461 C-368.32547068 1096.7302355 -328.47286208 1086.56500474 -291.94921875 1076.15625 C-290.56742432 1075.76203857 -290.56742432 1075.76203857 -289.15771484 1075.35986328 C-275.03314207 1071.34227833 -260.86609577 1067.5217144 -246.64648438 1063.85595703 C-243.17714327 1062.95596322 -239.71359922 1062.0348342 -236.25 1061.11303711 C-218.48245585 1056.39398024 -201.32318869 1053.16352378 -182.96972656 1051.94116211 C-159.90325533 1050.30203923 -138.39396062 1040.37616211 -117.43994141 1031.23925781 C-115.16943412 1030.25200332 -112.89457663 1029.27593479 -110.6171875 1028.3046875 C-101.94650478 1024.59017877 -93.50658309 1020.52313098 -85.10351562 1016.24072266 C-82.85922555 1015.11094744 -80.60186407 1014.01178082 -78.33984375 1012.91796875 C-64.8038167 1006.33734768 -51.84692715 998.90555733 -38.94921875 991.15625 C-38.18061523 990.69718262 -37.41201172 990.23811523 -36.62011719 989.76513672 C-26.35699692 983.61057983 -16.68147358 976.76695394 -7.04199219 969.68310547 C-4.58842787 967.89302249 -2.10852345 966.14324244 0.37646484 964.3972168 C11.62659811 956.47881591 22.53426604 948.0253997 33.05078125 939.15625 C32.72078125 938.49625 32.39078125 937.83625 32.05078125 937.15625 C30.27413395 936.56719432 30.27413395 936.56719432 28.05078125 936.09375 C15.11412496 932.40550559 3.31785989 924.65774719 -6.94921875 916.15625 C-7.820625 915.44855469 -8.69203125 914.74085938 -9.58984375 914.01171875 C-19.12105227 905.89849678 -25.51311421 896.64697941 -30.88671875 885.46875 C-31.26449463 884.68516113 -31.64227051 883.90157227 -32.03149414 883.09423828 C-35.38139136 875.81663816 -37.72704891 868.24568362 -36.94921875 860.15625 C-35.69465903 857.33349064 -34.66537153 855.69336459 -32.19921875 853.84375 C-27.81312119 852.50355352 -24.32609678 852.46781099 -20.19921875 854.53125 C-17.49657027 857.6843399 -16.79671681 860.28291011 -15.74609375 864.24609375 C-13.07432738 874.00327977 -9.22931386 882.23429995 -2.94921875 890.15625 C-2.45035156 890.83042969 -1.95148438 891.50460937 -1.4375 892.19921875 C11.66476002 908.73380885 35.79890657 918.88054049 56.1640625 921.6640625 C59.05078125 922.15625 59.05078125 922.15625 62.08203125 923.0859375 C112.95907799 938.12014976 174.40957341 932.06684209 225.28515625 920.6484375 C243.27056898 916.63711367 260.92206754 913.6941334 279.36328125 913.65625 C280.3777533 913.64951263 280.3777533 913.64951263 281.41271973 913.64263916 C290.5650174 913.61771247 298.3571671 914.15233695 306.17578125 919.15625 C309.41072609 924.33216174 307.64910724 930.27925488 306.44677734 936.06054688 C305.72966743 939.02093651 304.96183107 941.96344918 304.17578125 944.90625 C303.63241411 947.03993226 303.09073939 949.17404625 302.55078125 951.30859375 C301.87182549 953.96994833 301.19289853 956.63019852 300.4765625 959.28173828 C295.50043792 977.78794561 296.76939431 998.61433389 301.05078125 1017.15625 C301.24365723 1018.00364746 301.4365332 1018.85104492 301.63525391 1019.72412109 C303.4831781 1027.72019777 305.36688174 1035.58367301 308.34570312 1043.24023438 C309.47179165 1046.30032534 310.24875038 1049.43575344 311.05078125 1052.59375 C312.08008085 1056.63803969 313.17196314 1060.58721297 314.5234375 1064.53515625 C318.76645592 1077.06577782 321.20243258 1090.18411748 323.30078125 1103.21875 C323.46376709 1104.22808594 323.62675293 1105.23742188 323.79467773 1106.27734375 C327.78653965 1132.15123025 327.47437545 1159.07265661 321.36328125 1184.59375 C320.15967235 1189.83298875 319.67105008 1194.86137225 319.55078125 1200.21875 C319.52024658 1200.93409912 319.48971191 1201.64944824 319.45825195 1202.38647461 C319.45598402 1206.20431353 319.91542298 1207.9810945 322.26953125 1211.02734375 C326.50101701 1214.26633215 329.97310278 1215.41142583 335.28125 1215.38671875 C336.73241211 1215.38381836 336.73241211 1215.38381836 338.21289062 1215.38085938 C339.21126953 1215.36861328 340.20964844 1215.35636719 341.23828125 1215.34375 C342.75325195 1215.3427832 342.75325195 1215.3427832 344.29882812 1215.34179688 C349.33831808 1215.5204125 349.33831808 1215.5204125 354.05078125 1214.15625 C358.66898645 1213.87313506 363.29976636 1213.9133034 367.92578125 1213.90625 C368.62293243 1213.90391357 369.32008362 1213.90157715 370.0383606 1213.89916992 C379.63176512 1213.88713972 388.96257733 1214.42336981 398.48828125 1215.65625 C410.39301085 1217.17262028 422.12586965 1217.43790534 434.11328125 1217.40625 C435.40768631 1217.40467896 435.40768631 1217.40467896 436.72824097 1217.40307617 C445.87857261 1217.37948412 454.95309889 1217.25374009 464.05078125 1216.15625 C464.05078125 1215.49625 464.05078125 1214.83625 464.05078125 1214.15625 C462.79265625 1213.86492187 461.53453125 1213.57359375 460.23828125 1213.2734375 C428.53876049 1205.76852687 389.05652663 1190.43749468 370.5078125 1161.734375 C361.35141096 1145.53269935 360.56192852 1129.02692006 360.73828125 1110.90625 C360.74766495 1108.89314865 360.7568575 1106.88004641 360.76586914 1104.86694336 C360.91273094 1083.30257653 361.51238644 1061.60885299 363.30471802 1040.11035156 C364.1793422 1029.03804136 364.16713348 1018.00794374 364.12594604 1006.90716171 C364.11303108 1003.39286445 364.1066298 999.87860548 364.10180664 996.36428833 C364.09046562 988.91992478 364.07118691 981.47559348 364.05078125 974.03125 C364.02714594 965.36418007 364.00680084 956.69712767 363.99484253 948.03003311 C363.98836951 944.5706059 363.97586991 941.11123395 363.96313477 937.65182495 C363.95950337 935.53725228 363.9561515 933.4226791 363.953125 931.30810547 C363.94537552 929.86962502 363.94537552 929.86962502 363.93746948 928.40208435 C363.93713295 924.17483515 364.02252073 920.28345758 365.05078125 916.15625 C366.23948793 897.58901189 366.16211828 877.77140218 354.36328125 862.40625 C347.27069966 854.8868874 337.3794475 851.47811542 327.86328125 848.09375 C326.18782227 847.48176758 326.18782227 847.48176758 324.47851562 846.85742188 C321.01070065 845.59946951 317.53323583 844.37304898 314.05078125 843.15625 C312.89860107 842.74810059 311.7464209 842.33995117 310.55932617 841.91943359 C300.10125418 838.3089003 289.48311692 835.52641822 278.73828125 832.90625 C277.77558319 832.67113708 276.81288513 832.43602417 275.8210144 832.19378662 C236.98666447 822.78047862 197.83303732 816.71578621 158.05078125 813.15625 C156.6459272 813.02311905 156.6459272 813.02311905 155.21269226 812.88729858 C148.16988787 812.24922919 141.18665605 811.99611275 134.1171875 811.9453125 C131.9003827 811.91728658 129.68358589 811.88862254 127.46679688 811.859375 C124.02156443 811.81792266 120.57648879 811.78097141 117.13110352 811.75488281 C113.77199902 811.72733554 110.41354276 811.68152419 107.0546875 811.6328125 C106.02444962 811.62955963 104.99421173 811.62630676 103.93275452 811.62295532 C94.92069863 811.4677483 94.92069863 811.4677483 91.05078125 808.15625 C89.05290037 805.15942868 88.69142897 804.21539854 88.55078125 800.78125 C88.49921875 800.03101563 88.44765625 799.28078125 88.39453125 798.5078125 C89.40616621 794.88278722 91.90445549 792.98874256 95.05078125 791.15625 C97.9528269 790.45422774 100.75412614 790.43418088 103.73046875 790.44921875 C104.54323273 790.43409744 105.3559967 790.41897614 106.19338989 790.40339661 C108.77113885 790.36065376 111.34771384 790.35169511 113.92578125 790.34375 C115.6810205 790.32059509 117.43623205 790.29522768 119.19140625 790.26757812 C123.47796774 790.20485892 127.76380167 790.17241891 132.05078125 790.15625 C137.69922049 755.22786774 137.69922049 755.22786774 143.10443115 720.26123047 C143.35762821 718.58414719 143.61187757 716.90722239 143.86724854 715.23046875 C144.22231352 712.89504549 144.5728428 710.55898785 144.921875 708.22265625 C145.1170874 706.92271729 145.3122998 705.62277832 145.51342773 704.28344727 C146.72738233 695.40003597 147.20191815 686.60603064 147.18359375 677.64453125 C147.18455048 676.59146286 147.1855072 675.53839447 147.18649292 674.45341492 C147.18716839 672.24587951 147.18535871 670.03834205 147.18115234 667.83081055 C147.17577884 664.46723965 147.18112729 661.10380128 147.1875 657.74023438 C147.18683942 655.58333304 147.18555868 653.42643179 147.18359375 651.26953125 C147.18561798 650.27351395 147.18764221 649.27749664 147.18972778 648.251297 C147.17150622 642.7891056 146.84416487 637.56096271 146.05078125 632.15625 C144.77132424 620.51157166 148.94248157 611.0579349 153.1171875 600.4453125 C156.46875634 590.95729638 156.76573629 578.15957996 153.26171875 568.66015625 C145.81358476 553.25933727 133.93915875 542.09669467 121.05078125 531.15625 C109.33082854 520.84964966 97.88343795 510.15963907 86.953125 499.01953125 C85.05945492 497.16474557 83.08743954 495.4764802 81.05078125 493.78125 C74.24798694 487.94445248 68.90675768 480.64254699 64.05078125 473.15625 C63.72078125 473.15625 63.39078125 473.15625 63.05078125 473.15625 C62.63915475 481.068626 63.41667906 488.37627654 64.98364258 496.10327148 C66.17876558 502.13143496 67.44465873 508.66140074 64.05078125 514.15625 C61.86328125 514.96875 61.86328125 514.96875 59.05078125 515.15625 C57.89578125 515.28 56.74078125 515.40375 55.55078125 515.53125 C52.05078125 515.15625 52.05078125 515.15625 49.23828125 512.96875 C29.6693739 487.80872627 41.79325879 428.95354112 43.86724854 399.75305176 C44.12661978 396.08321168 44.37603313 392.4127483 44.625 388.7421875 C44.78773803 386.35937347 44.95049715 383.97656088 45.11328125 381.59375 C45.19030273 380.4603418 45.26732422 379.32693359 45.34667969 378.15917969 C45.73347621 372.52696533 46.15109516 366.89966891 46.6171875 361.2734375 C49.62935225 323.1167629 50.9712257 282.93596417 42.52050781 245.38720703 C41.17004764 238.97322311 40.09154556 232.49849985 38.93994141 226.04638672 C37.77096726 219.62500984 36.3697321 213.32831409 34.74267578 207.00854492 C33.67189328 202.59430641 32.95716742 198.13881242 32.23828125 193.65625 C30.73537872 184.63883485 28.9377927 175.71225795 26.98828125 166.78125 C26.23021177 163.26699399 25.47357431 159.75243248 24.71728516 156.23779297 C24.31299175 154.36856537 23.90488253 152.50015019 23.48974609 150.63330078 C20.36228286 136.43655093 19.80761157 121.63850318 21.81494141 107.22338867 C23.51854026 92.29132711 22.08069387 77.56604282 18.05078125 63.15625 C17.76195068 62.11984375 17.76195068 62.11984375 17.46728516 61.0625 C13.57267946 47.52736239 7.87611226 37.25450687 -1.94921875 27.15625 C-2.4596875 26.59550781 -2.97015625 26.03476563 -3.49609375 25.45703125 C-5.20264081 23.61880618 -6.77554989 22.24571578 -9.01171875 21.09375 C-11.14256358 20.96889335 -11.14256358 20.96889335 -13.03916931 22.82691956 Z " fill="currentColor" transform="translate(1415.94921875,149.84375)"/>
<path d="M0 0 C1.12295776 0.95260646 2.24451428 1.90686489 3.36547852 2.86181641 C3.99019547 3.39304108 4.61491241 3.92426575 5.25856018 4.47158813 C21.37286659 18.61465346 28.04510763 42.94823838 33 63 C33.16806152 63.65887207 33.33612305 64.31774414 33.50927734 64.99658203 C35.9504543 74.91054317 36.30012124 84.69340872 36.375 94.875 C36.39590698 96.71155151 36.39590698 96.71155151 36.41723633 98.58520508 C36.37252552 107.13426036 36.0769768 116.00824632 30.6875 123 C25.68030665 126.72628342 21.78063437 128.38258049 15.5078125 128.29296875 C14.30898437 128.28330078 13.11015625 128.27363281 11.875 128.26367188 C10.6375 128.23853516 9.4 128.21339844 8.125 128.1875 C6.86429688 128.17396484 5.60359375 128.16042969 4.3046875 128.14648438 C1.20268546 128.11123435 -1.89843534 128.06195504 -5 128 C-5.97691557 123.64794956 -5.80550795 120.37915423 -5.1875 115.9375 C-3.76118915 104.70789927 -3.28097257 93.41806421 -2.69799805 82.12084961 C-2.65870178 81.36350021 -2.61940552 80.60615082 -2.57891846 79.82585144 C-2.50668227 78.42229917 -2.43590214 77.01867056 -2.36712646 75.61494446 C-2.1417417 71.17008515 -1.82964914 66.73705744 -1.49072266 62.29931641 C-0.99137122 55.39803459 -0.78582597 48.51879369 -0.68359375 41.6015625 C-0.66281265 40.40058929 -0.64203156 39.19961609 -0.62062073 37.96224976 C-0.55603331 34.183216 -0.49666954 30.40412206 -0.4375 26.625 C-0.39422807 24.03905666 -0.35061127 21.45311906 -0.30664062 18.8671875 C-0.2004473 12.5781858 -0.0985248 6.28912627 0 0 Z " fill="currentColor" transform="translate(1486,438)"/>
<path d="M0 0 C0.99 0.33 1.98 0.66 3 1 C10.56070292 39.50227637 5.02876796 77.9060584 -3 116 C-14.67844404 110.72669377 -22.99162943 96.14926959 -27.9375 84.8125 C-28.65434402 82.88566395 -29.34347823 80.948215 -30 79 C-30.31710937 78.14148438 -30.63421875 77.28296875 -30.9609375 76.3984375 C-35.20394637 62.89087715 -35.27911737 44.79370164 -29 32 C-28.5875 31.09765625 -28.175 30.1953125 -27.75 29.265625 C-21.58548324 16.86654016 -12.34542363 6.42377583 0 0 Z " fill="currentColor" transform="translate(1397,432)"/>
<path d="M0 0 C2.31 1.98 4.62 3.96 7 6 C7 6.99 7 7.98 7 9 C6.01 9 5.02 9 4 9 C3.67 10.32 3.34 11.64 3 13 C2.67 13 2.34 13 2 13 C1.67 16.3 1.34 19.6 1 23 C0.67 23 0.34 23 0 23 C0 15.41 0 7.82 0 0 Z " fill="currentColor" transform="translate(1486,438)"/>
<path d="M0 0 C0.66 0.33 1.32 0.66 2 1 C-7.57 10.57 -17.14 20.14 -27 30 C-27.66 29.67 -28.32 29.34 -29 29 C-27.77023437 27.78763672 -27.77023437 27.78763672 -26.515625 26.55078125 C-25.42694863 25.47149002 -24.3384145 24.39205531 -23.25 23.3125 C-22.71117187 22.78205078 -22.17234375 22.25160156 -21.6171875 21.70507812 C-18.50837446 18.61522126 -15.73745202 15.42901885 -13 12 C-11.71944049 10.79836166 -10.40739047 9.62917536 -9.0625 8.5 C-5.88790299 5.78824143 -2.90566895 2.9964711 0 0 Z " fill="currentColor" transform="translate(1276,1067)"/>
<path d="M0 0 C0.33 1.32 0.66 2.64 1 4 C0.34 4 -0.32 4 -1 4 C-0.67 7.3 -0.34 10.6 0 14 C-0.99 14 -1.98 14 -3 14 C-5.44697666 9.63799813 -6.50269348 5.97306516 -7 1 C-2.25 0 -2.25 0 0 0 Z " fill="currentColor" transform="translate(1396,235)"/>
<path d="M0 0 C-1.7578125 0.9765625 -3.515625 1.953125 -5.2734375 2.9296875 C-7.1612614 4.00897274 -7.1612614 4.00897274 -9 6 C-10.32 6 -11.64 6 -13 6 C-13.33 4.68 -13.66 3.36 -14 2 C-12.42085985 1.46658816 -10.83645613 0.94874237 -9.25 0.4375 C-8.36828125 0.14746094 -7.4865625 -0.14257812 -6.578125 -0.44140625 C-3.92165684 -1.01697435 -2.52968894 -0.89248371 0 0 Z " fill="currentColor" transform="translate(1149,1243)"/>
<path d="M0 0 C3.3 1.65 6.6 3.3 10 5 C10 5.33 10 5.66 10 6 C6.7 6 3.4 6 0 6 C-1 2 -1 2 0 0 Z " fill="currentColor" transform="translate(994,1360)"/>
<path d="M0 0 C0.75 1.625 0.75 1.625 1 4 C-0.9375 7.25 -0.9375 7.25 -3 10 C-2.67 10.66 -2.34 11.32 -2 12 C-3.65 12 -5.3 12 -7 12 C-2.96127563 3.55353075 -2.96127563 3.55353075 0 0 Z " fill="currentColor" transform="translate(1377,449)"/>
<path d="M0 0 C0.66 0 1.32 0 2 0 C1.88557539 1.60495567 1.75805306 3.20898119 1.625 4.8125 C1.55539062 5.70582031 1.48578125 6.59914063 1.4140625 7.51953125 C1 10 1 10 -1 13 C-2.20577428 8.05632546 -1.6290678 4.79137588 0 0 Z " fill="currentColor" transform="translate(1404,1010)"/>
<path d="M0 0 C2.31 0.66 4.62 1.32 7 2 C7 2.66 7 3.32 7 4 C6.4225 4.12375 5.845 4.2475 5.25 4.375 C2.97664233 5.00648824 1.0746471 5.88858191 -1 7 C-0.67 4.69 -0.34 2.38 0 0 Z " fill="currentColor" transform="translate(1409,571)"/>
<path d="M0 0 C0 0.99 0 1.98 0 3 C-1.98 3.33 -3.96 3.66 -6 4 C-6.33 3.01 -6.66 2.02 -7 1 C-3.375 -1.125 -3.375 -1.125 0 0 Z " fill="currentColor" transform="translate(1352,1157)"/>
<path d="M0 0 C0.99 0.33 1.98 0.66 3 1 C2.67 1.66 2.34 2.32 2 3 C1.64830932 4.32860925 1.31229724 5.66158328 1 7 C-0.65 5.35 -2.3 3.7 -4 2 C-2.68 2 -1.36 2 0 2 C0 1.34 0 0.68 0 0 Z " fill="currentColor" transform="translate(1425,151)"/>
<path d="M0 0 C0 0.66 0 1.32 0 2 C0.66 2.33 1.32 2.66 2 3 C-1.465 4.485 -1.465 4.485 -5 6 C-5.33 5.01 -5.66 4.02 -6 3 C-2.25 0 -2.25 0 0 0 Z " fill="currentColor" transform="translate(1019,1226)"/>
<path d="M0 0 C3.96 0.33 7.92 0.66 12 1 C12 1.33 12 1.66 12 2 C3.585 2.495 3.585 2.495 -5 3 C-5 2.67 -5 2.34 -5 2 C-3.35 2 -1.7 2 0 2 C0 1.34 0 0.68 0 0 Z " fill="currentColor" transform="translate(1230,1199)"/>
<path d="M0 0 C0.99 0 1.98 0 3 0 C2.67 1.98 2.34 3.96 2 6 C0.35 5.67 -1.3 5.34 -3 5 C-1.6875 2.5 -1.6875 2.5 0 0 Z " fill="currentColor" transform="translate(1697,1085)"/>
<path d="M0 0 C-0.99 0.33 -1.98 0.66 -3 1 C-3.33 1.66 -3.66 2.32 -4 3 C-4.99 3 -5.98 3 -7 3 C-7 2.34 -7 1.68 -7 1 C-8.98 1 -10.96 1 -13 1 C-13 0.67 -13 0.34 -13 0 C-11.58456585 -0.19658808 -10.16755969 -0.38187546 -8.75 -0.5625 C-7.96109375 -0.66691406 -7.1721875 -0.77132813 -6.359375 -0.87890625 C-3.99467126 -1.00027349 -2.2488963 -0.69633257 0 0 Z " fill="currentColor" transform="translate(1229,1225)"/>
<path d="M0 0 C1.125 3.75 1.125 3.75 0 6 C-0.99 6 -1.98 6 -3 6 C-3 5.34 -3 4.68 -3 4 C-3.66 3.67 -4.32 3.34 -5 3 C-3.35 2.01 -1.7 1.02 0 0 Z " fill="currentColor" transform="translate(1063,1202)"/>
<path d="M0 0 C1.65 1.65 3.3 3.3 5 5 C3.35 5.66 1.7 6.32 0 7 C-1.04449911 3.86650268 -0.93423645 3.01031744 0 0 Z " fill="currentColor" transform="translate(1432,164)"/>
<path d="M0 0 C0.66 0.33 1.32 0.66 2 1 C1.67 1.99 1.34 2.98 1 4 C1.99 4.33 2.98 4.66 4 5 C1.69 5.33 -0.62 5.66 -3 6 C-1.125 1.125 -1.125 1.125 0 0 Z " fill="currentColor" transform="translate(1108,1225)"/>
<path d="M0 0 C2 3 2 3 2 5 C1.34 5 0.68 5 0 5 C-0.33 6.32 -0.66 7.64 -1 9 C-1.33 9 -1.66 9 -2 9 C-2.125 5.625 -2.125 5.625 -2 2 C-1.34 1.34 -0.68 0.68 0 0 Z " fill="currentColor" transform="translate(1697,1180)"/>
<path d="M0 0 C0.66 0 1.32 0 2 0 C4 3 4 3 4 6 C3.01 6.495 3.01 6.495 2 7 C0.4375 5.75 0.4375 5.75 -1 4 C-0.6875 1.8125 -0.6875 1.8125 0 0 Z " fill="currentColor" transform="translate(1504,937)"/>
<path d="M0 0 C0 0.66 0 1.32 0 2 C-0.66 2.66 -1.32 3.32 -2 4 C-2 4.66 -2 5.32 -2 6 C-3.32 5.34 -4.64 4.68 -6 4 C-6 3.34 -6 2.68 -6 2 C-2.25 0 -2.25 0 0 0 Z " fill="currentColor" transform="translate(1893,1384)"/>
<path d="M0 0 C-0.99 1.485 -0.99 1.485 -2 3 C-4.97 2.505 -4.97 2.505 -8 2 C-5.44123378 -0.55876622 -3.37797483 -1.68898741 0 0 Z " fill="currentColor" transform="translate(1136,1139)"/>
<path d="M0 0 C0.33 0 0.66 0 1 0 C1.33 2.97 1.66 5.94 2 9 C1.01 8.67 0.02 8.34 -1 8 C-0.67 5.36 -0.34 2.72 0 0 Z " fill="currentColor" transform="translate(1475,368)"/>
</svg>