<svg id="svg" xmlns="http://www.w3.org/2000/svg" viewBox="0  0  400 218.1818181818182"><g id="svgg"><path id="path1" d="M206.417 22.768 C 198.873 24.114,193.736 28.919,191.913 36.333 C 189.998 44.119,191.908 59.415,195.261 63.144 C 196.707 64.752,199.569 65.279,202.417 64.463 C 202.967 64.305,203.578 64.130,203.775 64.073 C 204.249 63.936,204.346 64.390,204.367 66.855 C 204.393 69.814,203.903 70.837,198.207 79.717 C 197.418 80.946,196.291 82.755,194.936 84.965 C 189.095 94.494,188.375 99.004,190.660 111.750 C 190.825 112.667,191.174 114.941,191.436 116.805 L 191.913 120.193 191.160 120.888 C 190.745 121.270,189.246 122.629,187.828 123.906 C 184.579 126.834,183.120 128.326,178.037 133.917 C 168.403 144.512,167.926 144.868,160.256 147.175 C 156.148 148.410,154.917 149.112,152.478 151.610 C 144.687 159.591,143.303 162.326,145.771 164.855 L 146.362 165.460 145.740 166.272 C 144.293 168.161,143.609 170.519,143.594 173.667 C 143.562 180.788,148.416 186.440,155.750 187.819 C 161.605 188.920,179.576 189.111,196.250 188.250 C 218.330 187.109,221.999 187.116,243.410 188.340 C 253.538 188.919,253.755 188.900,255.293 187.297 C 257.890 184.591,256.440 181.010,252.072 179.345 C 251.333 179.063,250.217 178.525,249.593 178.148 C 246.885 176.515,245.960 176.218,241.162 175.437 C 238.219 174.959,236.519 173.989,233.457 171.041 C 232.335 169.960,231.135 168.903,230.792 168.691 C 230.076 168.250,230.057 168.189,230.469 167.647 C 233.742 163.345,234.426 155.317,232.094 148.577 C 230.983 145.364,230.634 144.548,228.676 140.583 C 222.052 127.169,221.815 123.284,226.335 102.167 C 229.488 87.432,229.189 80.296,225.000 70.333 C 223.350 66.411,222.833 64.128,222.828 60.750 C 222.823 57.778,223.045 57.066,225.249 53.000 C 231.014 42.366,229.396 31.028,221.333 25.554 C 217.648 23.051,211.383 21.881,206.417 22.768 M214.700 26.480 C 224.683 29.092,228.139 40.067,222.365 50.827 C 218.279 58.440,218.117 62.642,221.572 71.390 C 225.648 81.711,225.905 87.485,222.905 101.296 C 220.792 111.023,220.125 114.858,219.827 119.000 C 219.426 124.554,220.130 129.453,222.052 134.501 C 222.864 136.632,222.941 136.801,225.340 141.750 C 230.819 153.056,231.441 160.131,227.448 165.750 L 226.737 166.750 225.160 166.851 C 222.367 167.029,220.828 167.791,218.557 170.121 C 216.442 172.290,216.196 172.379,212.083 172.466 C 207.066 172.573,200.565 171.831,193.417 170.336 C 181.033 167.746,171.863 168.185,163.616 171.764 C 161.095 172.858,160.674 173.316,161.026 174.578 C 161.448 176.090,162.594 176.243,165.021 175.111 C 172.360 171.690,181.020 171.279,192.333 173.814 C 197.543 174.981,206.373 176.015,211.193 176.021 C 216.843 176.028,217.940 175.668,220.750 172.882 C 224.320 169.342,226.825 169.511,230.999 173.576 C 234.837 177.313,237.411 178.612,242.078 179.169 C 244.192 179.421,245.414 179.807,247.083 180.753 C 248.351 181.471,250.684 182.633,252.045 183.225 C 252.871 183.583,253.148 184.165,252.770 184.743 C 252.444 185.241,251.523 185.285,247.417 185.003 C 227.782 183.652,217.356 183.583,196.333 184.665 C 179.072 185.554,163.990 185.458,156.955 184.416 C 146.522 182.870,143.383 170.043,152.247 165.179 C 152.978 164.778,154.441 163.873,155.497 163.168 C 159.016 160.818,160.396 160.183,163.307 159.571 C 166.960 158.802,167.890 158.502,170.250 157.331 C 176.191 154.384,192.383 150.462,202.583 149.500 C 205.355 149.238,206.000 148.876,206.000 147.583 C 206.000 145.827,204.904 145.581,200.083 146.259 C 199.167 146.388,198.185 146.495,197.902 146.497 L 197.387 146.500 197.275 142.375 C 197.213 140.106,197.122 138.097,197.071 137.911 C 197.000 137.646,197.158 137.444,197.782 136.999 C 205.078 131.798,206.924 129.483,210.808 120.667 C 212.941 115.823,213.650 114.193,214.250 112.750 C 214.593 111.925,215.092 110.744,215.359 110.126 C 215.797 109.113,217.276 105.493,218.509 102.417 C 218.767 101.775,219.252 100.612,219.588 99.833 C 220.584 97.523,221.066 95.950,220.935 95.432 C 220.632 94.223,218.990 93.722,218.133 94.579 C 217.654 95.058,217.687 94.986,215.478 100.417 C 211.088 111.210,210.130 113.466,206.633 121.246 C 203.655 127.873,203.014 128.609,194.833 134.775 C 190.769 137.839,184.276 142.451,178.333 146.493 C 173.935 149.486,172.800 150.369,170.667 152.461 C 168.556 154.531,167.395 155.104,163.833 155.833 C 159.212 156.779,158.270 157.181,153.750 160.138 C 150.215 162.450,149.231 162.891,148.489 162.494 C 147.867 162.161,148.765 160.943,153.309 155.955 C 156.783 152.141,157.003 152.000,162.083 150.340 C 169.815 147.812,170.687 147.151,180.770 136.167 C 185.640 130.861,187.986 128.503,191.500 125.380 C 196.540 120.900,196.379 121.200,199.601 110.209 C 199.823 109.453,200.199 108.178,200.438 107.376 C 200.676 106.573,200.979 105.504,201.111 105.000 C 201.242 104.496,201.491 103.633,201.663 103.083 C 201.835 102.533,202.249 101.071,202.584 99.833 C 202.918 98.596,203.557 96.271,204.005 94.667 C 204.452 93.063,205.122 90.565,205.494 89.116 C 207.416 81.622,209.978 78.482,214.383 78.219 C 216.572 78.089,217.430 77.369,217.021 76.005 C 216.658 74.794,216.265 74.612,214.216 74.706 C 208.256 74.978,204.458 79.086,202.234 87.667 C 201.818 89.271,201.066 92.046,200.564 93.833 C 196.874 106.949,195.964 110.161,195.512 111.667 C 195.250 112.537,194.988 113.459,194.930 113.715 C 194.791 114.321,194.500 114.134,194.500 113.439 C 194.500 113.141,194.352 112.090,194.170 111.103 C 191.752 97.939,192.273 95.752,201.177 81.711 C 208.060 70.856,208.382 69.996,207.781 64.083 L 207.646 62.750 208.867 62.129 C 212.523 60.270,215.248 56.066,213.762 54.580 C 212.703 53.521,211.686 53.905,210.539 55.795 C 209.102 58.166,207.269 59.335,203.177 60.491 C 198.029 61.946,197.468 61.638,196.227 56.671 C 193.785 46.901,194.202 37.385,197.285 32.534 C 200.646 27.245,207.937 24.710,214.700 26.480 M193.724 141.792 C 193.783 142.685,193.832 144.257,193.832 145.284 L 193.833 147.152 193.208 147.259 C 189.392 147.919,184.024 149.160,179.947 150.327 C 178.326 150.791,178.492 150.637,182.667 147.817 C 184.729 146.424,186.615 145.126,186.857 144.934 C 187.098 144.741,187.725 144.283,188.248 143.917 C 188.771 143.550,190.148 142.558,191.308 141.712 C 192.468 140.866,193.462 140.172,193.517 140.170 C 193.571 140.168,193.665 140.898,193.724 141.792 " stroke="none" fill="currentColor" fill-rule="evenodd"></path><path id="path2" d="M196.740 27.375 L 196.250 27.917 196.792 27.427 C 197.297 26.971,197.410 26.833,197.281 26.833 C 197.252 26.833,197.009 27.077,196.740 27.375 M225.050 40.833 C 225.050 41.337,225.081 41.544,225.119 41.292 C 225.158 41.040,225.158 40.627,225.119 40.375 C 225.081 40.123,225.050 40.329,225.050 40.833 M194.705 45.667 C 194.705 45.987,194.740 46.119,194.782 45.958 C 194.823 45.798,194.823 45.535,194.782 45.375 C 194.740 45.215,194.705 45.346,194.705 45.667 M192.890 100.583 C 192.891 101.317,192.920 101.596,192.956 101.204 C 192.991 100.812,192.990 100.212,192.954 99.871 C 192.919 99.529,192.890 99.850,192.890 100.583 M197.379 143.167 C 197.379 143.579,197.411 143.748,197.451 143.542 C 197.491 143.335,197.491 142.998,197.451 142.792 C 197.411 142.585,197.379 142.754,197.379 143.167 M173.573 143.875 L 173.083 144.417 173.625 143.927 C 174.130 143.471,174.243 143.333,174.115 143.333 C 174.086 143.333,173.842 143.577,173.573 143.875 M177.042 168.615 C 177.202 168.657,177.465 168.657,177.625 168.615 C 177.785 168.573,177.654 168.539,177.333 168.539 C 177.012 168.539,176.881 168.573,177.042 168.615 M179.958 168.618 C 180.165 168.657,180.502 168.657,180.708 168.618 C 180.915 168.578,180.746 168.545,180.333 168.545 C 179.921 168.545,179.752 168.578,179.958 168.618 M178.288 172.287 C 178.584 172.324,179.109 172.324,179.455 172.288 C 179.800 172.252,179.558 172.222,178.917 172.221 C 178.275 172.221,177.992 172.250,178.288 172.287 M209.208 172.448 C 209.369 172.490,209.631 172.490,209.792 172.448 C 209.952 172.406,209.821 172.372,209.500 172.372 C 209.179 172.372,209.048 172.406,209.208 172.448 M230.993 173.708 C 231.684 174.444,231.833 174.577,231.833 174.451 C 231.833 174.425,231.477 174.068,231.042 173.660 L 230.250 172.917 230.993 173.708 M216.708 183.789 C 217.144 183.824,217.856 183.824,218.292 183.789 C 218.727 183.755,218.371 183.727,217.500 183.727 C 216.629 183.727,216.273 183.755,216.708 183.789 M220.048 183.790 C 220.578 183.823,221.403 183.823,221.881 183.789 C 222.359 183.756,221.925 183.729,220.917 183.729 C 219.908 183.729,219.517 183.757,220.048 183.790 M211.125 183.951 C 211.331 183.991,211.669 183.991,211.875 183.951 C 212.081 183.911,211.912 183.879,211.500 183.879 C 211.088 183.879,210.919 183.911,211.125 183.951 M227.375 183.948 C 227.535 183.990,227.798 183.990,227.958 183.948 C 228.119 183.906,227.987 183.872,227.667 183.872 C 227.346 183.872,227.215 183.906,227.375 183.948 M207.127 184.118 C 207.334 184.158,207.634 184.156,207.794 184.115 C 207.953 184.073,207.783 184.040,207.417 184.042 C 207.050 184.044,206.920 184.078,207.127 184.118 M231.458 184.118 C 231.665 184.157,232.002 184.157,232.208 184.118 C 232.415 184.078,232.246 184.045,231.833 184.045 C 231.421 184.045,231.252 184.078,231.458 184.118 M162.875 184.948 C 163.035 184.990,163.298 184.990,163.458 184.948 C 163.619 184.906,163.487 184.872,163.167 184.872 C 162.846 184.872,162.715 184.906,162.875 184.948 M188.294 184.951 C 188.501 184.991,188.801 184.990,188.960 184.948 C 189.120 184.906,188.950 184.874,188.583 184.875 C 188.217 184.877,188.086 184.911,188.294 184.951 M166.958 185.118 C 167.165 185.157,167.502 185.157,167.708 185.118 C 167.915 185.078,167.746 185.045,167.333 185.045 C 166.921 185.045,166.752 185.078,166.958 185.118 M181.708 185.119 C 181.960 185.158,182.373 185.158,182.625 185.119 C 182.877 185.081,182.671 185.050,182.167 185.050 C 181.662 185.050,181.456 185.081,181.708 185.119 M216.542 187.448 C 216.702 187.490,216.965 187.490,217.125 187.448 C 217.285 187.406,217.154 187.372,216.833 187.372 C 216.512 187.372,216.381 187.406,216.542 187.448 M229.627 187.785 C 229.834 187.824,230.134 187.823,230.294 187.781 C 230.453 187.739,230.283 187.707,229.917 187.709 C 229.550 187.711,229.420 187.745,229.627 187.785 M204.960 187.951 C 205.168 187.991,205.468 187.990,205.627 187.948 C 205.786 187.906,205.617 187.874,205.250 187.875 C 204.883 187.877,204.753 187.911,204.960 187.951 M233.542 187.948 C 233.702 187.990,233.965 187.990,234.125 187.948 C 234.285 187.906,234.154 187.872,233.833 187.872 C 233.512 187.872,233.381 187.906,233.542 187.948 M164.458 188.784 C 164.665 188.824,165.002 188.824,165.208 188.784 C 165.415 188.745,165.246 188.712,164.833 188.712 C 164.421 188.712,164.252 188.745,164.458 188.784 M184.375 188.786 C 184.627 188.824,185.040 188.824,185.292 188.786 C 185.544 188.748,185.338 188.717,184.833 188.717 C 184.329 188.717,184.123 188.748,184.375 188.786 M171.375 188.958 C 172.452 188.987,174.215 188.987,175.292 188.958 C 176.369 188.929,175.487 188.905,173.333 188.905 C 171.179 188.905,170.298 188.929,171.375 188.958 " stroke="none" fill="currentColor" fill-rule="evenodd"></path><path id="path3" d="M209.628 26.121 C 209.928 26.158,210.378 26.157,210.628 26.119 C 210.878 26.081,210.633 26.051,210.083 26.052 C 209.533 26.053,209.328 26.084,209.628 26.121 M199.167 30.250 C 198.762 30.662,198.468 31.000,198.514 31.000 C 198.560 31.000,198.928 30.662,199.333 30.250 C 199.738 29.837,200.032 29.500,199.986 29.500 C 199.940 29.500,199.572 29.837,199.167 30.250 M220.667 29.719 C 220.667 29.748,220.910 29.991,221.208 30.260 L 221.750 30.750 221.260 30.208 C 220.804 29.703,220.667 29.590,220.667 29.719 M194.726 43.750 C 194.725 44.575,194.754 44.934,194.788 44.547 C 194.823 44.160,194.824 43.485,194.789 43.047 C 194.755 42.609,194.726 42.925,194.726 43.750 M190.875 43.583 C 190.877 43.950,190.911 44.080,190.951 43.873 C 190.991 43.666,190.990 43.366,190.948 43.206 C 190.906 43.047,190.874 43.217,190.875 43.583 M194.875 47.583 C 194.877 47.950,194.911 48.080,194.951 47.873 C 194.991 47.666,194.990 47.366,194.948 47.206 C 194.906 47.047,194.874 47.217,194.875 47.583 M222.892 60.917 C 222.892 61.742,222.920 62.100,222.955 61.713 C 222.990 61.327,222.990 60.652,222.956 60.213 C 222.922 59.775,222.893 60.092,222.892 60.917 M219.050 60.500 C 219.050 61.004,219.081 61.210,219.119 60.958 C 219.158 60.706,219.158 60.294,219.119 60.042 C 219.081 59.790,219.050 59.996,219.050 60.500 M208.057 66.917 C 208.058 67.650,208.087 67.929,208.122 67.537 C 208.157 67.145,208.157 66.545,208.121 66.204 C 208.085 65.863,208.057 66.183,208.057 66.917 M204.225 67.167 C 204.225 67.946,204.254 68.265,204.289 67.875 C 204.324 67.485,204.324 66.848,204.289 66.458 C 204.254 66.069,204.225 66.387,204.225 67.167 M206.994 77.792 L 206.083 78.750 207.042 77.839 C 207.569 77.338,208.000 76.907,208.000 76.881 C 208.000 76.757,207.841 76.901,206.994 77.792 M224.705 84.833 C 224.705 85.154,224.740 85.285,224.782 85.125 C 224.823 84.965,224.823 84.702,224.782 84.542 C 224.740 84.381,224.705 84.512,224.705 84.833 M228.567 87.000 C 228.567 88.421,228.593 89.002,228.624 88.292 C 228.655 87.581,228.655 86.419,228.624 85.708 C 228.593 84.998,228.567 85.579,228.567 87.000 M224.709 88.417 C 224.711 88.783,224.745 88.914,224.785 88.706 C 224.824 88.499,224.823 88.199,224.781 88.040 C 224.739 87.880,224.707 88.050,224.709 88.417 M219.552 120.417 C 219.553 120.967,219.584 121.172,219.621 120.872 C 219.658 120.572,219.657 120.122,219.619 119.872 C 219.581 119.622,219.551 119.867,219.552 120.417 M223.375 120.417 C 223.377 120.783,223.411 120.914,223.451 120.706 C 223.491 120.499,223.490 120.199,223.448 120.040 C 223.406 119.880,223.374 120.050,223.375 120.417 M188.740 122.875 L 188.250 123.417 188.792 122.927 C 189.297 122.471,189.410 122.333,189.281 122.333 C 189.252 122.333,189.009 122.577,188.740 122.875 M219.552 123.250 C 219.553 123.800,219.584 124.005,219.621 123.705 C 219.658 123.406,219.657 122.956,219.619 122.705 C 219.581 122.455,219.551 122.700,219.552 123.250 M223.372 123.167 C 223.372 123.487,223.406 123.619,223.448 123.458 C 223.490 123.298,223.490 123.035,223.448 122.875 C 223.406 122.715,223.372 122.846,223.372 123.167 M183.158 128.125 L 182.583 128.750 183.208 128.176 C 183.790 127.641,183.910 127.500,183.783 127.500 C 183.755 127.500,183.474 127.781,183.158 128.125 M186.329 130.292 L 185.250 131.417 186.375 130.338 C 186.994 129.745,187.500 129.239,187.500 129.213 C 187.500 129.090,187.330 129.247,186.329 130.292 M180.406 131.042 L 179.917 131.583 180.458 131.094 C 180.963 130.638,181.077 130.500,180.948 130.500 C 180.919 130.500,180.675 130.744,180.406 131.042 M183.742 133.042 L 183.083 133.750 183.792 133.091 C 184.181 132.729,184.500 132.410,184.500 132.383 C 184.500 132.257,184.355 132.383,183.742 133.042 M178.573 133.042 L 178.083 133.583 178.625 133.094 C 179.130 132.638,179.243 132.500,179.115 132.500 C 179.086 132.500,178.842 132.744,178.573 133.042 M181.740 135.208 L 181.250 135.750 181.792 135.260 C 182.297 134.804,182.410 134.667,182.281 134.667 C 182.252 134.667,182.009 134.910,181.740 135.208 M179.991 137.125 L 179.417 137.750 180.042 137.176 C 180.623 136.641,180.743 136.500,180.616 136.500 C 180.588 136.500,180.307 136.781,179.991 137.125 M175.333 142.083 C 174.650 142.771,174.129 143.333,174.175 143.333 C 174.221 143.333,174.817 142.771,175.500 142.083 C 176.183 141.396,176.704 140.833,176.658 140.833 C 176.612 140.833,176.016 141.396,175.333 142.083 M193.557 142.083 C 193.558 142.817,193.587 143.096,193.622 142.704 C 193.657 142.312,193.657 141.712,193.621 141.371 C 193.585 141.029,193.557 141.350,193.557 142.083 M197.375 141.917 C 197.377 142.283,197.411 142.414,197.451 142.206 C 197.491 141.999,197.490 141.699,197.448 141.540 C 197.406 141.380,197.374 141.550,197.375 141.917 M203.042 149.615 C 203.202 149.657,203.465 149.657,203.625 149.615 C 203.785 149.573,203.654 149.539,203.333 149.539 C 203.012 149.539,202.881 149.573,203.042 149.615 M170.575 152.375 L 169.917 153.083 170.625 152.425 C 171.284 151.812,171.410 151.667,171.284 151.667 C 171.257 151.667,170.938 151.985,170.575 152.375 M154.073 155.208 L 153.583 155.750 154.125 155.260 C 154.423 154.991,154.667 154.748,154.667 154.719 C 154.667 154.590,154.529 154.703,154.073 155.208 M225.708 166.782 C 225.869 166.823,226.131 166.823,226.292 166.782 C 226.452 166.740,226.321 166.705,226.000 166.705 C 225.679 166.705,225.548 166.740,225.708 166.782 M175.960 168.618 C 176.168 168.658,176.468 168.656,176.627 168.615 C 176.786 168.573,176.617 168.540,176.250 168.542 C 175.883 168.544,175.753 168.578,175.960 168.618 M181.292 168.618 C 181.498 168.657,181.835 168.657,182.042 168.618 C 182.248 168.578,182.079 168.545,181.667 168.545 C 181.254 168.545,181.085 168.578,181.292 168.618 M218.073 170.375 L 217.583 170.917 218.125 170.427 C 218.630 169.971,218.743 169.833,218.615 169.833 C 218.586 169.833,218.342 170.077,218.073 170.375 M225.044 170.620 C 225.297 170.658,225.672 170.657,225.877 170.617 C 226.082 170.578,225.875 170.546,225.417 170.548 C 224.958 170.549,224.791 170.581,225.044 170.620 M206.960 172.285 C 207.168 172.324,207.468 172.323,207.627 172.281 C 207.786 172.239,207.617 172.207,207.250 172.209 C 206.883 172.211,206.753 172.245,206.960 172.285 M210.797 172.456 C 211.282 172.490,212.032 172.490,212.464 172.456 C 212.896 172.421,212.500 172.394,211.583 172.394 C 210.667 172.395,210.313 172.423,210.797 172.456 M143.390 173.750 C 143.391 174.483,143.420 174.763,143.456 174.371 C 143.491 173.979,143.490 173.379,143.454 173.037 C 143.419 172.696,143.390 173.017,143.390 173.750 M220.167 173.583 C 219.762 173.996,219.468 174.333,219.514 174.333 C 219.560 174.333,219.928 173.996,220.333 173.583 C 220.738 173.171,221.032 172.833,220.986 172.833 C 220.940 172.833,220.572 173.171,220.167 173.583 M232.333 175.083 C 232.644 175.404,232.936 175.667,232.982 175.667 C 233.028 175.667,232.811 175.404,232.500 175.083 C 232.189 174.762,231.897 174.500,231.851 174.500 C 231.805 174.500,232.022 174.762,232.333 175.083 M214.458 183.787 C 214.756 183.824,215.244 183.824,215.542 183.787 C 215.840 183.750,215.596 183.720,215.000 183.720 C 214.404 183.720,214.160 183.750,214.458 183.787 M223.296 183.789 C 223.688 183.824,224.288 183.824,224.629 183.788 C 224.971 183.752,224.650 183.723,223.917 183.724 C 223.183 183.724,222.904 183.754,223.296 183.789 M256.539 184.167 C 256.539 184.487,256.573 184.619,256.615 184.458 C 256.657 184.298,256.657 184.035,256.615 183.875 C 256.573 183.715,256.539 183.846,256.539 184.167 M209.711 183.953 C 209.964 183.991,210.339 183.990,210.544 183.951 C 210.749 183.911,210.542 183.880,210.083 183.881 C 209.625 183.882,209.457 183.915,209.711 183.953 M228.625 183.954 C 228.923 183.991,229.410 183.991,229.708 183.954 C 230.006 183.917,229.762 183.887,229.167 183.887 C 228.571 183.887,228.327 183.917,228.625 183.954 M205.792 184.118 C 205.998 184.157,206.335 184.157,206.542 184.118 C 206.748 184.078,206.579 184.045,206.167 184.045 C 205.754 184.045,205.585 184.078,205.792 184.118 M232.792 184.118 C 232.998 184.157,233.335 184.157,233.542 184.118 C 233.748 184.078,233.579 184.045,233.167 184.045 C 232.754 184.045,232.585 184.078,232.792 184.118 M202.460 184.285 C 202.668 184.324,202.968 184.323,203.127 184.281 C 203.286 184.239,203.117 184.207,202.750 184.209 C 202.383 184.211,202.253 184.245,202.460 184.285 M236.042 184.282 C 236.202 184.323,236.465 184.323,236.625 184.282 C 236.785 184.240,236.654 184.205,236.333 184.205 C 236.012 184.205,235.881 184.240,236.042 184.282 M199.042 184.448 C 199.202 184.490,199.465 184.490,199.625 184.448 C 199.785 184.406,199.654 184.372,199.333 184.372 C 199.012 184.372,198.881 184.406,199.042 184.448 M160.958 184.784 C 161.165 184.824,161.502 184.824,161.708 184.784 C 161.915 184.745,161.746 184.712,161.333 184.712 C 160.921 184.712,160.752 184.745,160.958 184.784 M190.875 184.788 C 191.219 184.824,191.781 184.824,192.125 184.788 C 192.469 184.752,192.188 184.723,191.500 184.723 C 190.813 184.723,190.531 184.752,190.875 184.788 M245.458 184.784 C 245.665 184.824,246.002 184.824,246.208 184.784 C 246.415 184.745,246.246 184.712,245.833 184.712 C 245.421 184.712,245.252 184.745,245.458 184.784 M164.044 184.953 C 164.297 184.991,164.672 184.990,164.877 184.951 C 165.082 184.911,164.875 184.880,164.417 184.881 C 163.958 184.882,163.791 184.915,164.044 184.953 M185.880 184.956 C 186.318 184.990,186.993 184.990,187.380 184.955 C 187.767 184.920,187.408 184.892,186.583 184.892 C 185.758 184.893,185.442 184.922,185.880 184.956 M248.375 184.948 C 248.535 184.990,248.798 184.990,248.958 184.948 C 249.119 184.906,248.987 184.872,248.667 184.872 C 248.346 184.872,248.215 184.906,248.375 184.948 M168.455 185.120 C 168.750 185.157,169.275 185.158,169.621 185.122 C 169.967 185.086,169.725 185.055,169.083 185.055 C 168.442 185.054,168.159 185.083,168.455 185.120 M179.292 185.122 C 179.681 185.157,180.319 185.157,180.708 185.122 C 181.098 185.087,180.779 185.058,180.000 185.058 C 179.221 185.058,178.902 185.087,179.292 185.122 M251.125 185.118 C 251.331 185.157,251.669 185.157,251.875 185.118 C 252.081 185.078,251.912 185.045,251.500 185.045 C 251.088 185.045,250.919 185.078,251.125 185.118 M218.047 187.456 C 218.485 187.490,219.160 187.490,219.547 187.455 C 219.934 187.420,219.575 187.392,218.750 187.392 C 217.925 187.393,217.609 187.422,218.047 187.456 M213.375 187.615 C 213.535 187.657,213.798 187.657,213.958 187.615 C 214.119 187.573,213.987 187.539,213.667 187.539 C 213.346 187.539,213.215 187.573,213.375 187.615 M224.125 187.618 C 224.331 187.657,224.669 187.657,224.875 187.618 C 225.081 187.578,224.912 187.545,224.500 187.545 C 224.088 187.545,223.919 187.578,224.125 187.618 M209.792 187.784 C 209.998 187.824,210.335 187.824,210.542 187.784 C 210.748 187.745,210.579 187.712,210.167 187.712 C 209.754 187.712,209.585 187.745,209.792 187.784 M228.460 187.785 C 228.668 187.824,228.968 187.823,229.127 187.781 C 229.286 187.739,229.117 187.707,228.750 187.709 C 228.383 187.711,228.253 187.745,228.460 187.785 M206.125 187.951 C 206.331 187.991,206.669 187.991,206.875 187.951 C 207.081 187.911,206.912 187.879,206.500 187.879 C 206.088 187.879,205.919 187.911,206.125 187.951 M232.211 187.953 C 232.464 187.991,232.839 187.990,233.044 187.951 C 233.249 187.911,233.042 187.880,232.583 187.881 C 232.125 187.882,231.957 187.915,232.211 187.953 M202.211 188.120 C 202.464 188.158,202.839 188.157,203.044 188.117 C 203.249 188.078,203.042 188.046,202.583 188.048 C 202.125 188.049,201.957 188.081,202.211 188.120 M235.961 188.121 C 236.261 188.158,236.711 188.157,236.961 188.119 C 237.212 188.081,236.967 188.051,236.417 188.052 C 235.867 188.053,235.662 188.084,235.961 188.121 M198.294 188.285 C 198.501 188.324,198.801 188.323,198.960 188.281 C 199.120 188.239,198.950 188.207,198.583 188.209 C 198.217 188.211,198.086 188.245,198.294 188.285 M239.794 188.285 C 240.001 188.324,240.301 188.323,240.460 188.281 C 240.620 188.239,240.450 188.207,240.083 188.209 C 239.717 188.211,239.586 188.245,239.794 188.285 M245.460 188.618 C 245.668 188.658,245.968 188.656,246.127 188.615 C 246.286 188.573,246.117 188.540,245.750 188.542 C 245.383 188.544,245.253 188.578,245.460 188.618 M186.042 188.786 C 186.294 188.824,186.706 188.824,186.958 188.786 C 187.210 188.748,187.004 188.717,186.500 188.717 C 185.996 188.717,185.790 188.748,186.042 188.786 M248.042 188.782 C 248.202 188.823,248.465 188.823,248.625 188.782 C 248.785 188.740,248.654 188.705,248.333 188.705 C 248.012 188.705,247.881 188.740,248.042 188.782 M167.958 188.954 C 168.256 188.991,168.744 188.991,169.042 188.954 C 169.340 188.917,169.096 188.887,168.500 188.887 C 167.904 188.887,167.660 188.917,167.958 188.954 M178.048 188.957 C 178.578 188.990,179.403 188.990,179.881 188.956 C 180.359 188.922,179.925 188.895,178.917 188.896 C 177.908 188.896,177.517 188.924,178.048 188.957 M250.542 188.948 C 250.702 188.990,250.965 188.990,251.125 188.948 C 251.285 188.906,251.154 188.872,250.833 188.872 C 250.512 188.872,250.381 188.906,250.542 188.948 " stroke="none" fill="currentColor" fill-rule="evenodd"></path><path id="path4" d="M209.631 22.456 C 210.115 22.490,210.865 22.490,211.297 22.456 C 211.730 22.421,211.333 22.394,210.417 22.394 C 209.500 22.395,209.146 22.423,209.631 22.456 M198.991 30.292 L 198.417 30.917 199.042 30.342 C 199.623 29.808,199.743 29.667,199.616 29.667 C 199.588 29.667,199.307 29.948,198.991 30.292 M228.720 40.667 C 228.720 41.262,228.750 41.506,228.787 41.208 C 228.824 40.910,228.824 40.423,228.787 40.125 C 228.750 39.827,228.720 40.071,228.720 40.667 M194.709 40.917 C 194.711 41.283,194.745 41.414,194.785 41.206 C 194.824 40.999,194.823 40.699,194.781 40.540 C 194.739 40.380,194.707 40.550,194.709 40.917 M191.055 42.250 C 191.055 42.892,191.086 43.134,191.122 42.788 C 191.158 42.442,191.157 41.917,191.120 41.621 C 191.083 41.325,191.054 41.608,191.055 42.250 M191.053 44.667 C 191.053 45.262,191.084 45.506,191.121 45.208 C 191.158 44.910,191.158 44.423,191.121 44.125 C 191.084 43.827,191.053 44.071,191.053 44.667 M194.709 46.750 C 194.711 47.117,194.745 47.247,194.785 47.040 C 194.824 46.832,194.823 46.532,194.781 46.373 C 194.739 46.214,194.707 46.383,194.709 46.750 M199.125 64.951 C 199.331 64.991,199.669 64.991,199.875 64.951 C 200.081 64.911,199.912 64.879,199.500 64.879 C 199.088 64.879,198.919 64.911,199.125 64.951 M204.372 67.333 C 204.372 67.654,204.406 67.785,204.448 67.625 C 204.490 67.465,204.490 67.202,204.448 67.042 C 204.406 66.881,204.372 67.012,204.372 67.333 M214.121 74.620 C 214.417 74.657,214.942 74.658,215.288 74.622 C 215.634 74.586,215.392 74.555,214.750 74.555 C 214.108 74.554,213.825 74.583,214.121 74.620 M207.740 77.208 L 207.250 77.750 207.792 77.260 C 208.090 76.991,208.333 76.748,208.333 76.719 C 208.333 76.590,208.196 76.703,207.740 77.208 M213.958 78.284 C 214.165 78.324,214.502 78.324,214.708 78.284 C 214.915 78.245,214.746 78.212,214.333 78.212 C 213.921 78.212,213.752 78.245,213.958 78.284 M209.406 80.542 L 208.917 81.083 209.458 80.594 C 209.963 80.138,210.077 80.000,209.948 80.000 C 209.919 80.000,209.675 80.244,209.406 80.542 M228.375 84.417 C 228.377 84.783,228.411 84.914,228.451 84.706 C 228.491 84.499,228.490 84.199,228.448 84.040 C 228.406 83.880,228.374 84.050,228.375 84.417 M228.379 89.333 C 228.379 89.746,228.411 89.915,228.451 89.708 C 228.491 89.502,228.491 89.165,228.451 88.958 C 228.411 88.752,228.379 88.921,228.379 89.333 M224.705 90.000 C 224.705 90.321,224.740 90.452,224.782 90.292 C 224.823 90.131,224.823 89.869,224.782 89.708 C 224.740 89.548,224.705 89.679,224.705 90.000 M194.500 113.573 C 194.500 113.797,194.561 114.018,194.637 114.065 C 194.712 114.111,194.741 113.928,194.701 113.658 C 194.614 113.062,194.500 113.015,194.500 113.573 M223.372 118.667 C 223.372 118.987,223.406 119.119,223.448 118.958 C 223.490 118.798,223.490 118.535,223.448 118.375 C 223.406 118.215,223.372 118.346,223.372 118.667 M219.714 119.417 C 219.716 119.875,219.748 120.043,219.786 119.789 C 219.825 119.536,219.824 119.161,219.784 118.956 C 219.744 118.751,219.713 118.958,219.714 119.417 M193.742 123.375 L 193.083 124.083 193.792 123.425 C 194.450 122.812,194.577 122.667,194.450 122.667 C 194.423 122.667,194.105 122.985,193.742 123.375 M187.406 124.208 L 186.917 124.750 187.458 124.260 C 187.963 123.804,188.077 123.667,187.948 123.667 C 187.919 123.667,187.675 123.910,187.406 124.208 M219.709 124.417 C 219.711 124.783,219.745 124.914,219.785 124.706 C 219.824 124.499,219.823 124.199,219.781 124.040 C 219.739 123.880,219.707 124.050,219.709 124.417 M185.575 125.875 L 184.917 126.583 185.625 125.925 C 186.284 125.312,186.410 125.167,186.284 125.167 C 186.257 125.167,185.938 125.485,185.575 125.875 M188.824 127.792 L 188.250 128.417 188.875 127.842 C 189.457 127.308,189.577 127.167,189.449 127.167 C 189.422 127.167,189.140 127.448,188.824 127.792 M182.575 128.875 L 181.917 129.583 182.625 128.925 C 183.284 128.312,183.410 128.167,183.284 128.167 C 183.257 128.167,182.938 128.485,182.575 128.875 M204.162 131.792 L 203.083 132.917 204.208 131.838 C 204.827 131.245,205.333 130.739,205.333 130.713 C 205.333 130.590,205.164 130.747,204.162 131.792 M184.158 132.458 L 183.583 133.083 184.208 132.509 C 184.790 131.974,184.910 131.833,184.783 131.833 C 184.755 131.833,184.474 132.115,184.158 132.458 M175.073 137.042 L 174.583 137.583 175.125 137.094 C 175.630 136.638,175.743 136.500,175.615 136.500 C 175.586 136.500,175.342 136.744,175.073 137.042 M171.497 140.792 L 169.417 142.917 171.542 140.836 C 172.710 139.691,173.667 138.735,173.667 138.711 C 173.667 138.591,173.430 138.818,171.497 140.792 M197.205 140.500 C 197.205 140.821,197.240 140.952,197.282 140.792 C 197.323 140.631,197.323 140.369,197.282 140.208 C 197.240 140.048,197.205 140.179,197.205 140.500 M193.726 143.750 C 193.725 144.575,193.754 144.934,193.788 144.547 C 193.823 144.160,193.824 143.485,193.789 143.047 C 193.755 142.609,193.726 142.925,193.726 143.750 M197.392 145.167 C 197.392 145.946,197.420 146.265,197.455 145.875 C 197.490 145.485,197.490 144.848,197.455 144.458 C 197.420 144.069,197.392 144.387,197.392 145.167 M172.158 145.125 L 171.583 145.750 172.208 145.176 C 172.790 144.641,172.910 144.500,172.783 144.500 C 172.755 144.500,172.474 144.781,172.158 145.125 M193.705 146.000 C 193.705 146.321,193.740 146.452,193.782 146.292 C 193.823 146.131,193.823 145.869,193.782 145.708 C 193.740 145.548,193.705 145.679,193.705 146.000 M203.542 149.448 C 203.702 149.490,203.965 149.490,204.125 149.448 C 204.285 149.406,204.154 149.372,203.833 149.372 C 203.512 149.372,203.381 149.406,203.542 149.448 M152.075 151.875 L 151.417 152.583 152.125 151.925 C 152.784 151.312,152.910 151.167,152.784 151.167 C 152.757 151.167,152.438 151.485,152.075 151.875 M155.161 153.958 L 154.250 154.917 155.208 154.006 C 156.099 153.159,156.243 153.000,156.119 153.000 C 156.093 153.000,155.662 153.431,155.161 153.958 M229.892 156.917 C 229.892 157.742,229.920 158.100,229.955 157.713 C 229.990 157.327,229.990 156.652,229.956 156.213 C 229.922 155.775,229.893 156.092,229.892 156.917 M233.555 157.083 C 233.555 157.725,233.586 157.967,233.622 157.621 C 233.658 157.275,233.657 156.750,233.620 156.455 C 233.583 156.159,233.554 156.442,233.555 157.083 M145.738 164.952 C 146.157 165.420,146.189 165.526,145.993 165.786 C 145.778 166.070,145.782 166.070,146.088 165.790 C 146.401 165.503,146.395 165.486,145.833 164.957 L 145.258 164.417 145.738 164.952 M178.295 168.621 C 178.594 168.658,179.044 168.657,179.295 168.619 C 179.545 168.581,179.300 168.551,178.750 168.552 C 178.200 168.553,177.995 168.584,178.295 168.621 M175.294 168.785 C 175.501 168.824,175.801 168.823,175.960 168.781 C 176.120 168.739,175.950 168.707,175.583 168.709 C 175.217 168.711,175.086 168.745,175.294 168.785 M182.127 168.785 C 182.334 168.824,182.634 168.823,182.794 168.781 C 182.953 168.739,182.783 168.707,182.417 168.709 C 182.050 168.711,181.920 168.745,182.127 168.785 M233.583 171.167 C 234.405 171.992,235.114 172.667,235.160 172.667 C 235.206 172.667,234.571 171.992,233.750 171.167 C 232.929 170.342,232.219 169.667,232.174 169.667 C 232.128 169.667,232.762 170.342,233.583 171.167 M217.491 171.125 L 216.917 171.750 217.542 171.176 C 218.123 170.641,218.243 170.500,218.116 170.500 C 218.088 170.500,217.807 170.781,217.491 171.125 M176.792 172.284 C 176.998 172.324,177.335 172.324,177.542 172.284 C 177.748 172.245,177.579 172.212,177.167 172.212 C 176.754 172.212,176.585 172.245,176.792 172.284 M180.461 172.287 C 180.761 172.325,181.211 172.324,181.461 172.286 C 181.712 172.248,181.467 172.217,180.917 172.218 C 180.367 172.219,180.162 172.250,180.461 172.287 M220.824 172.792 L 220.250 173.417 220.875 172.842 C 221.457 172.308,221.577 172.167,221.449 172.167 C 221.422 172.167,221.140 172.448,220.824 172.792 M183.542 172.448 C 183.702 172.490,183.965 172.490,184.125 172.448 C 184.285 172.406,184.154 172.372,183.833 172.372 C 183.512 172.372,183.381 172.406,183.542 172.448 M207.958 172.451 C 208.165 172.491,208.502 172.491,208.708 172.451 C 208.915 172.411,208.746 172.379,208.333 172.379 C 207.921 172.379,207.752 172.411,207.958 172.451 M209.461 176.121 C 209.761 176.158,210.211 176.157,210.461 176.119 C 210.712 176.081,210.467 176.051,209.917 176.052 C 209.367 176.053,209.162 176.084,209.461 176.121 M212.292 176.121 C 212.590 176.158,213.077 176.158,213.375 176.121 C 213.673 176.084,213.429 176.053,212.833 176.053 C 212.237 176.053,211.994 176.084,212.292 176.121 M212.625 183.954 C 212.923 183.991,213.410 183.991,213.708 183.954 C 214.006 183.917,213.762 183.887,213.167 183.887 C 212.571 183.887,212.327 183.917,212.625 183.954 M225.625 183.954 C 225.923 183.991,226.410 183.991,226.708 183.954 C 227.006 183.917,226.762 183.887,226.167 183.887 C 225.571 183.887,225.327 183.917,225.625 183.954 M208.461 184.121 C 208.761 184.158,209.211 184.157,209.461 184.119 C 209.712 184.081,209.467 184.051,208.917 184.052 C 208.367 184.053,208.162 184.084,208.461 184.121 M229.795 184.121 C 230.094 184.158,230.544 184.157,230.795 184.119 C 231.045 184.081,230.800 184.051,230.250 184.052 C 229.700 184.053,229.495 184.084,229.795 184.121 M204.461 184.287 C 204.761 184.325,205.211 184.324,205.461 184.286 C 205.712 184.248,205.467 184.217,204.917 184.218 C 204.367 184.219,204.162 184.250,204.461 184.287 M234.125 184.284 C 234.331 184.324,234.669 184.324,234.875 184.284 C 235.081 184.245,234.912 184.212,234.500 184.212 C 234.088 184.212,233.919 184.245,234.125 184.284 M200.625 184.451 C 200.831 184.491,201.169 184.491,201.375 184.451 C 201.581 184.411,201.412 184.379,201.000 184.379 C 200.588 184.379,200.419 184.411,200.625 184.451 M237.627 184.451 C 237.834 184.491,238.134 184.490,238.294 184.448 C 238.453 184.406,238.283 184.374,237.917 184.375 C 237.550 184.377,237.420 184.411,237.627 184.451 M197.127 184.618 C 197.334 184.658,197.634 184.656,197.794 184.615 C 197.953 184.573,197.783 184.540,197.417 184.542 C 197.050 184.544,196.920 184.578,197.127 184.618 M193.544 184.786 C 193.797 184.825,194.172 184.824,194.377 184.784 C 194.582 184.744,194.375 184.713,193.917 184.714 C 193.458 184.716,193.291 184.748,193.544 184.786 M243.627 184.785 C 243.834 184.824,244.134 184.823,244.294 184.781 C 244.453 184.739,244.283 184.707,243.917 184.709 C 243.550 184.711,243.420 184.745,243.627 184.785 M161.794 184.951 C 162.001 184.991,162.301 184.990,162.460 184.948 C 162.620 184.906,162.450 184.874,162.083 184.875 C 161.717 184.877,161.586 184.911,161.794 184.951 M189.792 184.951 C 189.998 184.991,190.335 184.991,190.542 184.951 C 190.748 184.911,190.579 184.879,190.167 184.879 C 189.754 184.879,189.585 184.911,189.792 184.951 M246.460 184.951 C 246.668 184.991,246.968 184.990,247.127 184.948 C 247.286 184.906,247.117 184.874,246.750 184.875 C 246.383 184.877,246.253 184.911,246.460 184.951 M165.375 185.119 C 165.627 185.158,166.040 185.158,166.292 185.119 C 166.544 185.081,166.337 185.050,165.833 185.050 C 165.329 185.050,165.123 185.081,165.375 185.119 M183.708 185.123 C 184.144 185.157,184.856 185.157,185.292 185.123 C 185.727 185.088,185.371 185.060,184.500 185.060 C 183.629 185.060,183.273 185.088,183.708 185.123 M249.211 185.120 C 249.464 185.158,249.839 185.157,250.044 185.117 C 250.249 185.078,250.042 185.046,249.583 185.048 C 249.125 185.049,248.957 185.081,249.211 185.120 M172.198 185.291 C 173.362 185.320,175.312 185.320,176.532 185.291 C 177.752 185.263,176.800 185.239,174.417 185.239 C 172.033 185.239,171.035 185.263,172.198 185.291 M215.211 187.453 C 215.464 187.491,215.839 187.490,216.044 187.451 C 216.249 187.411,216.042 187.380,215.583 187.381 C 215.125 187.382,214.957 187.415,215.211 187.453 M222.127 187.451 C 222.334 187.491,222.634 187.490,222.794 187.448 C 222.953 187.406,222.783 187.374,222.417 187.375 C 222.050 187.377,221.920 187.411,222.127 187.451 M211.377 187.620 C 211.631 187.658,212.006 187.657,212.211 187.617 C 212.416 187.578,212.208 187.546,211.750 187.548 C 211.292 187.549,211.124 187.581,211.377 187.620 M226.461 187.621 C 226.761 187.658,227.211 187.657,227.461 187.619 C 227.712 187.581,227.467 187.551,226.917 187.552 C 226.367 187.553,226.162 187.584,226.461 187.621 M207.211 187.786 C 207.464 187.825,207.839 187.824,208.044 187.784 C 208.249 187.744,208.042 187.713,207.583 187.714 C 207.125 187.716,206.957 187.748,207.211 187.786 M230.961 187.787 C 231.261 187.825,231.711 187.824,231.961 187.786 C 232.212 187.748,231.967 187.717,231.417 187.718 C 230.867 187.719,230.662 187.750,230.961 187.787 M203.295 187.954 C 203.594 187.991,204.044 187.990,204.295 187.952 C 204.545 187.914,204.300 187.884,203.750 187.885 C 203.200 187.886,202.995 187.917,203.295 187.954 M234.795 187.954 C 235.094 187.991,235.544 187.990,235.795 187.952 C 236.045 187.914,235.800 187.884,235.250 187.885 C 234.700 187.886,234.495 187.917,234.795 187.954 M200.044 188.120 C 200.297 188.158,200.672 188.157,200.877 188.117 C 201.082 188.078,200.875 188.046,200.417 188.048 C 199.958 188.049,199.791 188.081,200.044 188.120 M238.127 188.118 C 238.334 188.158,238.634 188.156,238.794 188.115 C 238.953 188.073,238.783 188.040,238.417 188.042 C 238.050 188.044,237.920 188.078,238.127 188.118 M196.458 188.284 C 196.665 188.324,197.002 188.324,197.208 188.284 C 197.415 188.245,197.246 188.212,196.833 188.212 C 196.421 188.212,196.252 188.245,196.458 188.284 M159.708 188.448 C 159.869 188.490,160.131 188.490,160.292 188.448 C 160.452 188.406,160.321 188.372,160.000 188.372 C 159.679 188.372,159.548 188.406,159.708 188.448 M193.044 188.453 C 193.297 188.491,193.672 188.490,193.877 188.451 C 194.082 188.411,193.875 188.380,193.417 188.381 C 192.958 188.382,192.791 188.415,193.044 188.453 M244.042 188.448 C 244.202 188.490,244.465 188.490,244.625 188.448 C 244.785 188.406,244.654 188.372,244.333 188.372 C 244.012 188.372,243.881 188.406,244.042 188.448 M162.460 188.618 C 162.668 188.658,162.968 188.656,163.127 188.615 C 163.286 188.573,163.117 188.540,162.750 188.542 C 162.383 188.544,162.253 188.578,162.460 188.618 M188.375 188.621 C 188.719 188.657,189.281 188.657,189.625 188.621 C 189.969 188.585,189.688 188.556,189.000 188.556 C 188.313 188.556,188.031 188.585,188.375 188.621 M247.042 188.615 C 247.202 188.657,247.465 188.657,247.625 188.615 C 247.785 188.573,247.654 188.539,247.333 188.539 C 247.012 188.539,246.881 188.573,247.042 188.615 M166.042 188.788 C 166.385 188.824,166.948 188.824,167.292 188.788 C 167.635 188.752,167.354 188.723,166.667 188.723 C 165.979 188.723,165.698 188.752,166.042 188.788 M180.708 188.790 C 181.327 188.822,182.340 188.822,182.958 188.790 C 183.577 188.758,183.071 188.732,181.833 188.732 C 180.596 188.732,180.090 188.758,180.708 188.790 M249.794 188.785 C 250.001 188.824,250.301 188.823,250.460 188.781 C 250.620 188.739,250.450 188.707,250.083 188.709 C 249.717 188.711,249.586 188.745,249.794 188.785 " stroke="none" fill="currentColor" fill-rule="evenodd"></path></g></svg>