<!DOCTYPE svg PUBLIC "-//W3C//DTD SVG 20010904//EN"
 "http://www.w3.org/TR/2001/REC-SVG-20010904/DTD/svg10.dtd">
<svg xmlns="http://www.w3.org/2000/svg" viewBox="0 0 2816.000000 1536.000000"
 preserveAspectRatio="xMidYMid meet">
<g transform="translate(0.000000,1536.000000) scale(0.100000,-0.100000)"
fill="currentColor" stroke="none">
<path d="M13930 13589 c-36 -15 -65 -45 -83 -87 -45 -106 -178 -542 -197 -642
-12 -63 -25 -132 -31 -152 -16 -61 -87 -144 -291 -337 -558 -532 -838 -849
-882 -1000 -30 -102 -17 -299 44 -641 84 -475 164 -733 346 -1115 62 -131 111
-266 148 -408 33 -122 86 -321 102 -377 6 -25 33 -112 59 -194 59 -191 120
-432 136 -537 25 -175 -2 -353 -91 -593 -27 -75 -50 -140 -50 -145 0 -5 -11
-42 -25 -84 -42 -130 -74 -271 -95 -414 -27 -197 -29 -217 -36 -428 -13 -408
48 -791 221 -1390 127 -435 128 -446 130 -1010 2 -596 -5 -555 230 -1340 93
-312 105 -445 51 -556 -15 -31 -71 -110 -123 -175 -110 -137 -123 -160 -123
-209 0 -66 60 -150 125 -175 116 -45 404 -55 520 -19 82 25 143 81 185 171 50
105 54 144 41 362 -6 107 -19 232 -27 278 -24 132 -29 441 -10 668 29 349 31
503 7 690 -12 91 -26 181 -31 200 -5 19 -14 71 -19 115 -6 44 -13 92 -16 108
-4 27 -4 27 56 27 131 0 181 57 228 260 61 259 190 477 313 530 118 51 167 54
788 51 469 -2 603 1 727 14 277 29 408 78 530 200 117 117 160 232 150 400 -9
164 -53 249 -203 396 -53 52 -108 106 -123 120 -131 129 -516 410 -796 581
-160 98 -348 198 -587 313 -101 48 -120 73 -161 217 -14 48 -53 162 -87 255
-86 237 -118 434 -90 570 33 165 63 293 95 398 19 66 46 158 59 205 13 47 36
123 49 170 14 47 42 146 62 220 53 201 128 424 173 520 105 224 158 357 220
550 102 319 212 982 192 1149 -10 79 -60 182 -132 272 -160 197 -394 441 -793
826 -110 106 -212 209 -226 230 -31 44 -41 77 -69 228 -12 61 -36 155 -54 210
-19 55 -52 161 -76 235 -61 197 -79 238 -114 265 -44 33 -105 42 -156 21 -37
-14 -44 -15 -70 -1 -33 17 -83 19 -120 4z m44 -1009 c-13 -34 -52 -81 -154
-185 -160 -163 -192 -203 -411 -510 -90 -126 -211 -290 -269 -364 -187 -237
-200 -255 -211 -296 -18 -64 -7 -125 70 -390 159 -549 179 -597 315 -750 53
-60 106 -126 116 -146 58 -110 132 -149 242 -129 66 13 121 49 154 101 52 83
80 268 54 361 -6 20 -26 58 -45 85 -94 132 -114 166 -138 244 -37 118 -48 192
-49 327 -1 195 37 316 133 417 147 156 399 173 573 40 89 -68 157 -218 172
-379 12 -135 -30 -387 -82 -489 -9 -18 -45 -70 -79 -117 -34 -47 -68 -103 -75
-124 -19 -58 -8 -216 20 -291 43 -114 142 -182 261 -178 78 2 113 27 169 123
21 36 76 107 123 158 86 94 129 163 166 262 46 126 221 768 221 812 0 64 -18
100 -100 203 -105 131 -280 367 -403 543 -160 229 -236 322 -392 482 -108 110
-146 156 -158 190 -13 37 -17 108 -20 412 -2 202 -1 365 3 363 4 -3 11 -17 14
-32 4 -16 31 -104 61 -198 65 -203 79 -257 104 -396 20 -112 37 -148 114 -244
43 -53 75 -85 365 -364 189 -181 512 -520 585 -613 23 -29 52 -64 64 -78 30
-33 69 -116 77 -165 11 -66 -50 -467 -120 -790 -55 -254 -131 -479 -244 -720
-106 -227 -141 -323 -201 -555 -22 -85 -61 -225 -86 -310 -181 -618 -207 -735
-206 -930 0 -176 23 -283 106 -515 35 -99 70 -198 77 -220 27 -87 73 -192 96
-222 37 -49 127 -106 287 -182 414 -198 902 -521 1207 -800 245 -223 275 -269
275 -416 0 -76 -4 -99 -26 -145 -61 -129 -181 -199 -404 -235 -92 -14 -464
-36 -510 -30 -11 2 -177 6 -370 10 -573 10 -757 -19 -898 -145 -122 -108 -234
-326 -293 -568 -33 -134 -37 -142 -74 -142 -30 0 -30 1 -30 55 0 30 7 128 16
217 12 126 15 224 10 433 -6 289 -1 342 34 381 20 20 33 24 86 24 34 0 95 -6
136 -14 223 -43 322 -32 708 79 313 90 359 99 513 93 109 -4 133 -9 227 -42
147 -52 173 -55 205 -21 28 31 34 88 11 117 -30 41 -218 104 -421 142 -417 79
-735 198 -1114 415 -206 118 -243 134 -321 134 -74 1 -111 -15 -164 -67 -64
-65 -68 -90 -77 -496 -4 -201 -8 -529 -8 -730 0 -248 -5 -413 -16 -515 -26
-266 -21 -394 27 -664 39 -220 42 -249 42 -426 1 -104 -6 -266 -14 -360 -23
-257 -19 -596 8 -770 14 -93 23 -197 24 -310 l3 -170 -28 -47 c-38 -65 -72
-80 -187 -86 -101 -5 -267 11 -283 27 -6 6 10 33 45 73 177 203 243 367 219
542 -17 121 -66 303 -216 806 -94 315 -109 444 -100 835 11 439 -11 651 -100
965 -142 506 -185 688 -220 935 -44 316 -41 654 10 971 26 156 95 414 140 519
34 78 84 237 94 300 60 358 49 434 -179 1190 -27 88 -67 232 -89 320 -22 88
-47 181 -55 207 -20 64 -109 274 -155 367 -131 263 -238 642 -315 1116 -28
172 -46 340 -40 375 8 41 54 136 81 165 10 11 52 61 93 110 133 161 332 365
713 730 268 256 290 289 322 478 15 90 42 189 110 412 19 61 40 130 47 155 11
39 13 -1 16 -325 2 -325 0 -375 -14 -415z m243 -312 c148 -150 197 -208 303
-358 77 -110 189 -266 275 -385 28 -39 86 -115 130 -168 126 -153 139 -174
138 -210 0 -17 -35 -151 -78 -297 -160 -555 -142 -513 -286 -670 -41 -44 -88
-104 -105 -133 -33 -57 -55 -68 -84 -42 -27 25 -41 73 -42 152 l-1 68 70 105
c39 58 80 130 92 160 92 239 102 576 21 780 -97 247 -326 396 -590 384 -173
-7 -301 -63 -406 -177 -85 -92 -129 -173 -160 -294 -22 -83 -25 -120 -25 -243
1 -274 52 -467 167 -620 26 -36 54 -82 61 -104 28 -80 -11 -216 -64 -224 -16
-2 -30 11 -61 60 -22 35 -77 103 -121 152 -108 120 -126 160 -206 441 -25 88
-51 180 -59 205 -7 25 -31 104 -52 177 -44 155 -49 137 66 275 130 157 322
416 433 584 76 114 189 250 320 386 67 69 125 127 128 127 3 1 64 -59 136
-131z m106 -6114 c29 -15 104 -57 167 -94 216 -125 455 -232 652 -292 43 -12
78 -26 78 -29 0 -4 -10 -9 -22 -12 -13 -2 -94 -25 -180 -50 -283 -82 -363 -89
-587 -51 -57 10 -125 15 -173 12 l-80 -5 4 257 c3 280 5 290 60 290 16 0 52
-12 81 -26z"/>
</g>
</svg>