<!DOCTYPE svg PUBLIC "-//W3C//DTD SVG 20010904//EN"
 "http://www.w3.org/TR/2001/REC-SVG-20010904/DTD/svg10.dtd">
<svg xmlns="http://www.w3.org/2000/svg" viewBox="0 0 2048.000000 2048.000000"
 preserveAspectRatio="xMidYMid meet">
<g transform="translate(0.000000,2048.000000) scale(0.100000,-0.100000)"
fill="currentColor" stroke="none">
<path d="M8889 18019 c-335 -30 -584 -171 -834 -474 -150 -182 -224 -316 -313
-570 -27 -77 -67 -183 -89 -235 -22 -52 -66 -158 -98 -235 -51 -125 -356 -845
-390 -920 -7 -16 -31 -75 -53 -130 -37 -91 -162 -385 -197 -462 -8 -17 -15
-34 -15 -37 0 -3 -15 -38 -34 -78 -19 -40 -55 -125 -82 -188 -47 -115 -186
-440 -284 -665 -29 -66 -88 -197 -131 -292 -44 -95 -79 -175 -79 -178 0 -17
-166 -345 -225 -445 -37 -63 -73 -124 -79 -135 -13 -24 -143 -216 -202 -300
-24 -33 -78 -112 -122 -175 -43 -63 -126 -185 -184 -270 -185 -271 -291 -455
-518 -890 -73 -140 -157 -289 -186 -331 -72 -102 -175 -197 -317 -293 -65 -44
-136 -99 -158 -124 -112 -120 -130 -299 -44 -429 100 -150 363 -220 612 -163
129 30 234 69 368 137 207 105 361 222 692 527 199 183 369 278 597 332 245
59 265 66 351 109 163 83 258 174 324 308 85 174 84 339 -5 604 -79 238 -78
259 16 426 208 366 404 627 740 982 36 39 147 156 246 260 427 452 630 723
804 1075 76 154 154 377 174 496 13 78 19 74 120 -77 53 -79 114 -169 136
-199 41 -57 84 -116 110 -155 26 -39 243 -315 310 -395 183 -218 408 -452 640
-665 177 -162 262 -262 301 -352 11 -25 27 -87 35 -137 19 -108 74 -326 110
-434 39 -115 157 -354 230 -462 92 -139 215 -282 316 -368 292 -248 598 -384
1108 -492 310 -65 417 -114 550 -250 112 -114 178 -265 187 -426 10 -163 -17
-284 -114 -514 -117 -280 -317 -617 -498 -840 -54 -67 -184 -194 -310 -305
-356 -310 -510 -540 -624 -930 -60 -207 -93 -305 -101 -300 -4 3 -11 26 -15
52 -21 144 -141 417 -248 569 -78 112 -255 290 -372 378 -200 148 -448 246
-715 282 -135 18 -222 18 -363 -1 -372 -49 -669 -198 -948 -476 -152 -152
-241 -271 -337 -449 -72 -135 -107 -223 -144 -368 -30 -118 -32 -139 -32 -302
-1 -256 41 -440 153 -677 77 -159 132 -237 262 -366 65 -64 127 -134 137 -155
30 -59 49 -144 76 -337 29 -203 42 -250 91 -316 67 -93 217 -133 349 -95 l57
17 67 -61 c37 -33 108 -86 157 -117 107 -67 145 -96 249 -186 170 -149 315
-172 505 -82 60 29 93 54 161 123 47 48 112 123 145 167 209 281 328 352 650
385 137 14 278 39 348 60 42 13 59 15 62 7 31 -85 126 -409 135 -461 10 -53
11 -120 4 -280 -12 -291 -9 -639 8 -773 l14 -112 -71 -11 c-93 -16 -261 -47
-605 -114 -559 -109 -783 -136 -1365 -166 -417 -21 -585 -36 -770 -69 -640
-113 -604 -106 -920 -196 -110 -31 -274 -76 -365 -100 -539 -142 -575 -155
-638 -225 -46 -50 -65 -100 -59 -156 7 -63 26 -103 80 -161 45 -49 86 -73 160
-93 l49 -13 -94 -31 c-113 -37 -168 -71 -205 -128 -24 -35 -28 -52 -27 -107 2
-141 99 -241 284 -294 218 -63 547 -78 905 -42 137 14 250 18 476 16 383 -3
515 14 749 94 100 35 112 37 235 36 72 0 231 -9 355 -20 124 -11 293 -25 375
-31 83 -6 164 -13 180 -15 17 -3 176 -14 355 -25 864 -53 1513 -59 2145 -20
233 14 270 21 363 65 90 42 183 132 230 221 90 172 200 802 267 1529 68 746
55 1263 -50 2015 -19 138 -35 282 -35 320 l0 69 43 11 c223 58 740 268 950
387 497 281 772 640 843 1103 18 120 34 342 34 487 0 121 14 190 105 498 133
454 168 658 167 995 0 156 -5 238 -20 341 -61 405 -155 674 -380 1097 -89 168
-150 275 -401 711 -39 69 -71 126 -71 127 0 19 -474 741 -616 939 -35 50 -75
106 -89 125 -13 19 -46 62 -72 96 -26 33 -80 103 -120 155 -39 52 -141 173
-225 270 -84 97 -187 215 -228 264 -41 48 -91 106 -111 129 -20 23 -111 136
-204 251 -137 171 -265 325 -295 355 -3 3 -32 37 -65 75 -168 198 -494 534
-651 671 -38 33 -132 116 -209 184 -410 358 -1002 798 -1555 1155 -166 106
-506 315 -514 315 -2 0 -41 21 -87 46 -469 260 -785 407 -999 463 -145 38
-327 53 -481 40z m378 -320 c132 -28 250 -77 537 -219 272 -135 385 -197 636
-348 546 -330 1092 -706 1511 -1043 77 -63 166 -134 197 -158 315 -245 780
-701 1088 -1066 32 -38 68 -81 80 -95 48 -56 159 -189 212 -255 113 -141 399
-483 497 -595 194 -221 367 -441 526 -669 24 -35 74 -107 111 -160 58 -83 225
-336 363 -551 39 -60 122 -201 183 -310 14 -25 44 -76 67 -115 56 -93 155
-266 155 -270 0 -2 22 -41 48 -87 27 -47 73 -129 102 -184 30 -54 64 -117 77
-139 13 -22 43 -81 67 -131 245 -501 324 -1062 220 -1567 -29 -142 -65 -277
-136 -507 -81 -265 -89 -314 -94 -565 -3 -121 -11 -267 -19 -325 -61 -460
-324 -782 -835 -1022 -201 -95 -713 -288 -726 -275 -21 20 43 338 93 465 33
82 26 119 -31 176 -59 60 -137 69 -187 23 -58 -54 -127 -263 -159 -482 -36
-255 -28 -492 34 -928 61 -422 77 -608 83 -957 8 -449 -9 -770 -68 -1290 -68
-608 -144 -1016 -210 -1126 -18 -29 -49 -61 -75 -78 -43 -27 -49 -28 -296 -42
-829 -46 -1899 -15 -2983 87 -285 27 -520 30 -595 7 -371 -113 -353 -110 -780
-113 -195 -1 -402 -8 -460 -14 -192 -22 -388 -30 -503 -21 -135 10 -277 31
-277 40 0 4 35 17 78 30 42 12 142 42 222 65 219 66 694 201 785 224 139 34
708 133 903 156 67 8 265 19 440 25 822 27 1013 45 1812 169 621 97 726 111
825 111 91 0 150 28 182 85 28 49 28 72 4 255 -44 330 -50 622 -22 1085 15
239 -12 522 -66 705 -14 47 -58 166 -98 265 -148 365 -207 626 -207 920 -1
165 16 290 58 432 40 139 25 206 -58 249 -38 20 -107 17 -144 -5 -17 -10 -38
-35 -48 -54 -26 -55 -74 -251 -91 -368 -16 -117 -19 -388 -5 -494 5 -38 12
-93 16 -121 l6 -51 -83 -41 c-220 -105 -392 -155 -684 -197 -99 -14 -216 -35
-259 -46 -239 -61 -411 -188 -609 -450 -126 -168 -198 -229 -272 -229 -37 0
-62 15 -130 79 -72 69 -145 123 -243 181 -40 24 -106 75 -145 115 -119 120
-203 146 -335 106 -39 -11 -75 -21 -81 -21 -19 0 -29 41 -51 207 -30 221 -47
297 -86 383 -31 66 -51 91 -167 205 -102 100 -144 149 -180 211 -68 116 -114
230 -150 363 -29 108 -31 128 -31 291 -1 161 2 183 27 275 101 369 406 734
762 912 97 49 223 94 330 119 106 24 328 24 438 0 313 -68 595 -247 780 -492
148 -197 215 -364 246 -613 20 -157 90 -225 231 -226 66 0 83 4 143 34 141 71
229 220 292 493 36 156 120 348 217 491 46 69 260 284 413 415 215 185 322
313 485 577 332 539 473 916 457 1225 -17 327 -169 600 -433 776 -146 97 -243
132 -562 199 -294 61 -587 168 -761 276 -78 49 -234 173 -276 220 -172 193
-281 373 -370 614 -54 143 -72 209 -110 400 -26 127 -44 188 -71 243 -54 110
-218 299 -394 454 -172 151 -341 324 -491 502 -13 16 -51 61 -84 100 -64 75
-99 121 -260 336 -218 291 -365 511 -490 736 l-78 139 -14 160 c-16 180 -35
286 -58 322 -27 40 -74 63 -134 63 -49 0 -57 -3 -92 -38 -47 -47 -55 -80 -41
-152 37 -177 41 -544 8 -719 -43 -229 -135 -496 -229 -666 -176 -317 -322
-500 -831 -1045 -451 -482 -612 -685 -847 -1070 -208 -340 -220 -431 -104
-755 40 -111 48 -144 52 -226 5 -89 4 -101 -21 -155 -60 -130 -164 -194 -410
-250 -184 -42 -299 -81 -418 -142 -137 -69 -241 -145 -373 -272 -181 -174
-229 -218 -295 -271 -158 -127 -363 -243 -533 -302 -82 -28 -104 -31 -207 -32
-98 0 -122 3 -162 22 -27 12 -48 28 -48 35 0 20 75 88 150 138 87 58 220 162
245 192 11 13 40 48 65 78 74 89 160 230 280 460 283 542 379 696 791 1278
263 372 424 661 609 1092 51 118 96 220 100 225 4 6 22 46 40 90 18 44 36 85
40 90 4 6 12 24 17 40 9 27 242 572 279 652 8 17 14 34 14 38 0 3 11 31 25 61
14 30 25 57 25 60 0 3 11 29 24 57 45 98 163 369 241 557 72 172 195 463 305
720 50 118 98 231 105 250 16 45 133 329 145 355 6 11 28 74 51 140 48 140 73
191 144 301 162 249 377 431 575 484 128 34 345 34 507 -1z m3142 -11581 c10
-35 50 -142 89 -239 95 -238 119 -319 143 -478 25 -165 26 -320 5 -569 -26
-303 -18 -604 25 -890 6 -41 8 -76 5 -79 -3 -3 -90 -16 -193 -29 -103 -14
-406 -58 -673 -99 -731 -112 -779 -117 -1415 -140 -494 -18 -610 -26 -890 -66
-407 -58 -750 -122 -910 -171 -66 -20 -89 -21 -370 -19 -268 1 -412 7 -403 17
2 1 111 32 243 68 132 36 332 93 445 126 201 60 450 115 742 165 281 48 442
62 943 85 494 23 794 64 1590 219 110 22 263 49 340 61 228 35 240 38 267 68
35 37 52 94 44 151 -36 277 -48 526 -35 738 15 242 13 476 -6 579 -8 44 -40
163 -70 263 -79 264 -78 242 -8 273 32 14 61 27 65 27 4 1 16 -27 27 -61z"/>
</g>
</svg>